<svg width="2307" height="2973" viewBox="0 0 2307 2973" fill="none" xmlns="http://www.w3.org/2000/svg">
<path d="M213.759 116.484C293.044 76.186 365.83 64.4867 454.214 68.3865C472.411 69.6864 473.71 43.688 456.813 41.0881C371.029 26.789 276.147 52.7874 204.66 102.185C196.862 108.684 204.66 120.383 213.759 116.484Z" fill="#D4D4D4"/>
<path d="M130.574 200.979C138.373 194.479 142.272 187.98 146.171 177.58C150.07 168.481 137.073 158.082 129.274 165.881C121.476 173.681 117.577 178.88 113.677 189.28C109.778 198.379 122.776 207.479 130.574 200.979Z" fill="#D4D4D4"/>
<path d="M29.1932 454.464C-5.90028 100.885 402.224 -124.002 659.576 147.682C928.626 431.065 666.075 845.741 302.142 791.144C286.545 788.544 280.047 814.543 295.644 818.442C706.367 914.637 965.019 403.767 671.274 113.884C400.924 -151.3 -59.1903 81.3859 7.09735 458.364C9.69687 472.663 30.493 468.763 29.1932 454.464Z" fill="#D4D4D4"/>
<path d="M31.7928 475.262C105.879 488.262 181.265 468.763 250.152 438.865C289.145 421.966 325.538 398.567 361.931 376.468C403.524 350.47 447.715 295.873 491.907 325.771C573.792 381.668 595.888 532.459 560.794 616.954C514.003 731.347 390.526 778.145 274.848 782.044C260.55 782.044 257.951 805.443 272.248 805.443C397.025 802.843 525.701 758.646 581.591 636.453C641.379 505.161 575.092 369.969 481.509 275.074C476.31 268.575 468.512 268.575 460.713 273.774C341.135 355.669 187.764 486.962 33.0926 460.963C22.6945 459.663 21.3947 473.962 31.7928 475.262Z" fill="#D4D4D4"/>
<path d="M4.49763 433.665C-3.30092 601.355 111.078 778.145 280.046 817.143C295.643 821.042 304.742 800.244 289.145 792.444C126.675 722.248 43.4904 609.155 25.2937 432.365C23.994 420.666 4.49763 421.966 4.49763 433.665Z" fill="#D4D4D4"/>
<path d="M255.351 796.343C87.6824 995.231 75.9846 1346.21 202.061 1568.5C212.459 1586.7 242.354 1573.7 231.956 1554.2C121.476 1331.91 121.476 1013.43 278.747 811.942C290.445 798.943 267.049 783.344 255.351 796.343Z" fill="#D4D4D4"/>
<path d="M322.938 1143.42C345.034 1389.11 459.413 1646.49 705.067 1738.79C723.264 1745.29 740.161 1716.69 721.964 1706.29C486.708 1581.5 397.025 1391.71 347.634 1138.22C343.735 1123.92 321.639 1127.82 322.938 1143.42Z" fill="#D4D4D4"/>
<path d="M792.151 549.358C1057.3 519.46 1253.57 652.052 1456.33 797.644C1465.43 804.143 1479.72 793.744 1474.52 783.345C1423.83 680.651 1283.46 616.954 1183.38 575.357C1062.5 525.96 916.928 485.662 788.252 522.06C768.756 525.96 772.655 551.958 792.151 549.358Z" fill="#D4D4D4"/>
<path d="M854.539 853.54C1017.01 863.939 1169.08 883.438 1301.66 984.832C1315.95 995.232 1334.15 975.733 1322.45 962.734C1214.57 844.441 1005.31 815.842 853.24 822.342C836.343 823.642 837.643 852.24 854.539 853.54Z" fill="#D4D4D4"/>
<path d="M1312.05 966.633C1413.44 954.934 1490.12 889.938 1475.82 782.044C1473.22 762.545 1442.03 767.745 1444.63 787.244C1458.93 882.138 1391.34 926.336 1308.16 947.134C1296.46 949.734 1299.06 967.933 1312.05 966.633Z" fill="#D4D4D4"/>
<path d="M1301.66 969.234C1291.26 1009.53 1260.06 1155.12 1318.55 1173.32C1370.54 1188.92 1425.13 1096.63 1453.73 1066.73C1447.23 1065.43 1440.73 1064.13 1434.23 1062.83C1458.93 1107.03 1496.62 1164.22 1555.11 1160.32C1600.6 1156.42 1630.5 1116.13 1646.09 1077.13C1699.38 938.036 1605.8 801.544 1470.63 766.446C1449.83 761.246 1438.13 791.144 1458.93 797.644C1566.81 828.842 1651.29 913.337 1630.5 1032.93C1624 1068.03 1607.1 1117.43 1570.71 1131.72C1517.42 1151.22 1479.72 1091.43 1457.63 1053.73C1453.73 1047.23 1444.63 1043.33 1438.13 1049.83C1417.33 1071.93 1390.04 1120.02 1364.04 1131.72C1286.06 1166.82 1313.35 1021.23 1321.15 977.033C1322.45 962.734 1304.26 958.834 1301.66 969.234Z" fill="#D4D4D4"/>
<path d="M724.564 1729.69C915.628 1710.19 1218.47 1585.4 1239.27 1361.81C1240.57 1347.51 1221.07 1343.61 1215.87 1356.61C1120.99 1558.1 940.324 1668.59 719.365 1698.49C698.569 1701.09 705.067 1730.99 724.564 1729.69Z" fill="#D4D4D4"/>
<path d="M1000.11 861.34C1124.89 1016.03 1202.87 1181.12 1226.27 1380.01C1228.87 1403.41 1263.96 1396.91 1261.36 1373.51C1239.27 1177.22 1148.28 993.932 1015.71 848.34C1006.61 839.241 992.314 852.24 1000.11 861.34Z" fill="#D4D4D4"/>
<path d="M211.159 1576.3C294.344 1610.1 424.319 1601 478.909 1519.1C485.408 1508.7 475.01 1493.1 463.312 1500.9C425.619 1523 395.725 1547.7 352.833 1558.1C308.641 1568.5 264.449 1563.3 221.557 1549C203.361 1542.5 192.963 1569.8 211.159 1576.3Z" fill="#D4D4D4"/>
<path d="M190.363 1547.7C194.263 1639.99 244.953 1742.69 313.84 1803.78C376.229 1857.08 463.312 1860.98 511.404 1788.19C517.902 1777.79 504.905 1767.39 495.806 1773.89C459.413 1799.88 426.919 1825.88 380.128 1810.28C346.334 1799.88 320.339 1772.59 298.243 1746.59C251.452 1688.09 225.457 1616.6 208.56 1543.8C207.26 1530.8 189.064 1534.7 190.363 1547.7Z" fill="#D4D4D4"/>
<path d="M394.425 1669.89C417.821 1702.39 449.015 1733.59 493.207 1733.59C533.5 1733.59 568.593 1702.39 581.591 1665.99C584.19 1656.89 573.792 1647.79 565.994 1654.29C543.898 1675.09 524.401 1706.29 489.308 1704.99C458.114 1703.69 430.819 1676.39 412.622 1655.59C400.924 1645.19 385.327 1659.49 394.425 1669.89Z" fill="#D4D4D4"/>
<path d="M658.276 1708.89C538.698 1951.98 546.497 2318.55 616.684 2575.94C623.183 2601.94 664.775 2594.14 658.276 2568.14C580.29 2284.76 623.182 1994.87 685.571 1714.09C688.17 1698.49 664.775 1695.89 658.276 1708.89Z" fill="#D4D4D4"/>
<path d="M818.147 2547.34C859.739 2469.34 883.135 2386.15 902.631 2300.35C928.626 2180.76 970.218 2071.57 1004.01 1954.58C1007.91 1940.28 989.715 1928.58 980.616 1941.58C866.238 2106.67 857.139 2345.85 792.152 2533.04C786.952 2548.64 810.348 2562.94 818.147 2547.34Z" fill="#D4D4D4"/>
<path d="M1136.59 1857.08C1301.66 1998.77 1531.71 2127.46 1746.17 2170.36C1769.57 2174.26 1772.17 2139.16 1750.07 2133.96C1526.51 2083.27 1345.85 1949.38 1148.29 1840.18C1136.59 1833.68 1127.49 1847.98 1136.59 1857.08Z" fill="#D4D4D4"/>
<path d="M1231.47 1359.21C1357.55 1450.2 1479.72 1542.5 1588.9 1654.29C1688.98 1758.29 1763.07 1881.78 1859.25 1988.37C1867.05 1997.47 1881.35 1988.37 1876.15 1976.67C1764.37 1710.19 1491.42 1477.5 1244.47 1339.71C1231.47 1334.51 1218.47 1351.41 1231.47 1359.21Z" fill="#D4D4D4"/>
<path d="M984.516 1972.77C1005.31 1940.28 1032.61 1915.58 1066.4 1898.68C1102.79 1880.48 1148.29 1880.48 1182.08 1859.68C1193.78 1851.88 1191.18 1837.58 1178.18 1834.98C1136.59 1825.88 1074.2 1853.18 1039.11 1875.28C1004.01 1897.38 980.616 1924.68 963.72 1962.37C957.221 1974.07 976.717 1984.47 984.516 1972.77Z" fill="#D4D4D4"/>
<path d="M1761.77 2152.16C1764.37 2117.07 1768.27 2080.67 1789.07 2050.77C1809.86 2018.27 1839.76 2010.47 1872.25 1996.17C1883.95 1990.97 1882.65 1968.87 1867.05 1968.87C1773.47 1971.47 1729.28 2072.87 1734.48 2153.46C1735.78 2169.06 1760.47 2167.76 1761.77 2152.16Z" fill="#D4D4D4"/>
<path d="M1708.48 2161.26C1807.26 2226.26 1945.04 2222.36 2056.82 2205.46C2134.8 2193.76 2247.88 2175.56 2301.17 2110.57C2315.47 2092.37 2286.87 2072.87 2271.28 2089.77C2221.89 2149.56 2106.21 2163.86 2036.02 2172.96C1922.94 2187.26 1825.46 2175.56 1718.88 2139.16C1707.18 2136.56 1696.78 2153.46 1708.48 2161.26Z" fill="#D4D4D4"/>
<path d="M1859.25 1989.67C2006.13 1987.07 2176.39 1996.17 2284.27 2104.07C2290.77 2110.57 2307.67 2109.27 2306.37 2097.57C2305.07 2029.97 2206.29 2000.07 2154.3 1985.77C2056.82 1961.07 1958.03 1958.47 1859.25 1967.57C1844.96 1968.87 1846.26 1989.67 1859.25 1989.67Z" fill="#D4D4D4"/>
<path d="M628.382 2592.84C655.677 2617.54 686.871 2614.94 720.665 2604.54C758.358 2592.84 809.048 2569.44 829.844 2533.04C835.043 2523.94 825.945 2509.64 815.547 2516.14C786.952 2530.44 763.557 2552.54 734.962 2566.84C711.566 2577.24 668.674 2594.14 645.279 2577.24C633.581 2569.44 619.284 2583.74 628.382 2592.84Z" fill="#D4D4D4"/>
<path d="M633.581 2529.14C545.197 2574.64 477.61 2661.73 432.118 2747.53C400.924 2806.02 360.632 2898.32 404.823 2959.42C412.622 2969.82 428.219 2960.72 426.919 2949.02C400.924 2793.03 525.701 2634.44 645.279 2547.34C654.377 2539.54 643.979 2522.64 633.581 2529.14Z" fill="#D4D4D4"/>
<path d="M417.821 2972.41C620.583 2967.22 916.928 2718.93 853.24 2495.34C848.041 2477.14 822.046 2481.04 824.645 2500.54C853.24 2718.93 620.583 2920.42 417.821 2945.12C400.924 2947.72 402.224 2973.71 417.821 2972.41Z" fill="#D4D4D4"/>
<path d="M664.775 1707.59C757.058 1789.49 868.837 1903.88 989.714 1937.68C1001.41 1941.58 1011.81 1924.68 1000.11 1916.88C945.523 1881.78 889.633 1853.18 837.643 1812.88C784.353 1771.29 733.662 1725.79 679.072 1686.79C664.775 1676.39 653.077 1697.19 664.775 1707.59Z" fill="#D4D4D4"/>
<path d="M1192.48 1868.78C1202.88 1703.69 1237.97 1543.8 1262.66 1380.01C1265.26 1363.11 1237.97 1356.61 1232.77 1373.51C1182.08 1525.6 1165.18 1707.59 1171.68 1867.48C1171.68 1880.48 1192.48 1883.08 1192.48 1868.78Z" fill="#D4D4D4"/>
<path d="M1636.99 2107.97C1669.49 2076.77 1694.18 2037.77 1717.58 2000.07C1739.68 1964.97 1769.57 1924.68 1776.07 1883.08C1777.37 1872.68 1761.77 1866.18 1756.57 1875.28C1713.68 1948.08 1679.89 2029.97 1622.7 2094.97C1616.2 2104.07 1629.2 2115.77 1636.99 2107.97Z" fill="#D4D4D4"/>
<path d="M1461.53 2061.17C1508.32 2061.17 1562.91 2023.47 1578.51 1979.27C1582.4 1967.57 1568.11 1961.07 1560.31 1970.17C1536.91 2000.07 1499.22 2036.47 1460.23 2040.37C1448.53 2041.67 1449.83 2061.17 1461.53 2061.17Z" fill="#D4D4D4"/>
<path d="M1604.5 1937.68C1649.99 1884.38 1688.98 1819.38 1690.28 1747.89C1690.28 1736.19 1673.39 1734.89 1672.09 1746.59C1661.69 1815.48 1634.39 1872.68 1590.2 1927.28C1582.4 1936.38 1596.7 1946.78 1604.5 1937.68Z" fill="#D4D4D4"/>
<path d="M1365.34 1993.57C1492.72 1916.88 1600.6 1797.28 1613.6 1642.59C1614.9 1630.89 1596.7 1626.99 1592.8 1637.39C1568.11 1707.59 1553.81 1775.19 1509.62 1837.58C1468.03 1894.78 1413.44 1938.98 1354.95 1977.97C1345.85 1983.17 1356.25 2000.07 1365.34 1993.57Z" fill="#D4D4D4"/>
<path d="M1269.16 1922.08C1367.94 1799.88 1432.93 1652.99 1455.03 1497C1457.63 1482.7 1435.53 1481.4 1432.93 1494.4C1412.14 1646.49 1345.85 1789.48 1249.67 1909.08C1241.87 1920.78 1260.06 1933.78 1269.16 1922.08Z" fill="#D4D4D4"/>
<path d="M611.485 2483.64C681.672 2503.14 763.557 2496.64 829.844 2466.74C838.943 2462.84 835.043 2447.25 824.645 2448.55C755.758 2461.54 686.871 2473.24 616.684 2462.84C604.986 2461.54 599.787 2481.04 611.485 2483.64Z" fill="#D4D4D4"/>
<path d="M603.687 2380.95C680.372 2397.85 766.156 2403.05 841.542 2379.65C853.24 2375.75 850.641 2358.85 837.643 2360.15C757.058 2366.65 685.571 2371.85 604.986 2358.85C591.989 2357.55 590.689 2378.35 603.687 2380.95Z" fill="#D4D4D4"/>
<path d="M584.19 2228.86C669.974 2262.66 766.156 2286.06 858.439 2279.56C868.837 2278.26 867.537 2261.36 857.139 2261.36C764.856 2252.26 679.072 2244.46 590.689 2210.66C578.991 2204.16 571.192 2223.66 584.19 2228.86Z" fill="#D4D4D4"/>
<path d="M601.087 2092.37C688.171 2133.96 796.051 2163.86 892.233 2143.06C905.23 2140.46 901.331 2123.56 888.333 2123.56C785.653 2130.06 702.468 2104.07 607.586 2074.17C595.888 2071.57 590.689 2087.17 601.087 2092.37Z" fill="#D4D4D4"/>
<path d="M617.984 1924.68C724.564 1963.68 827.245 2013.07 937.724 2044.27C952.022 2048.17 959.82 2027.37 945.523 2023.47C836.343 1989.67 733.662 1941.58 625.782 1907.78C612.785 1902.58 606.286 1920.78 617.984 1924.68Z" fill="#D4D4D4"/>
<path d="M929.926 845.74C1002.71 775.544 1054.7 670.251 1035.21 567.557C1032.61 554.558 1014.41 558.457 1015.71 571.456C1022.21 675.45 984.516 757.345 916.928 834.041C909.13 840.541 922.127 853.54 929.926 845.74Z" fill="#D4D4D4"/>
<path d="M1083.3 841.841C1118.39 771.645 1150.88 697.55 1167.78 620.854C1170.38 611.755 1153.48 607.855 1150.88 616.954C1127.49 692.35 1101.49 765.146 1066.4 835.342C1062.5 845.741 1078.1 850.941 1083.3 841.841Z" fill="#D4D4D4"/>
<path d="M1183.38 843.141C1231.47 778.144 1270.46 704.049 1269.16 619.554C1269.16 609.154 1253.57 606.554 1252.27 618.254C1245.77 701.449 1218.47 766.445 1169.08 832.741C1162.58 843.14 1176.88 852.24 1183.38 843.141Z" fill="#D4D4D4"/>
<path d="M1260.06 880.839C1312.05 879.539 1356.25 819.742 1369.24 774.245C1371.84 763.845 1357.55 758.646 1353.65 767.745C1336.75 805.443 1304.26 858.74 1258.76 863.94C1249.67 865.239 1249.67 880.839 1260.06 880.839Z" fill="#D4D4D4"/>
<path d="M160.469 1062.83C203.361 1116.13 265.749 1153.82 335.936 1142.12C345.034 1140.82 345.034 1125.22 334.636 1123.92C267.049 1122.62 217.658 1104.43 173.466 1051.13C165.668 1043.33 152.67 1053.73 160.469 1062.83Z" fill="#D4D4D4"/>
<path d="M142.272 1231.82C157.869 1255.22 195.562 1261.72 220.258 1266.92C263.15 1277.32 309.941 1281.21 352.833 1270.82C368.43 1266.92 364.531 1244.82 348.934 1247.42C280.047 1255.22 215.059 1244.82 152.67 1217.52C143.572 1212.32 138.373 1225.32 142.272 1231.82Z" fill="#D4D4D4"/>
<path d="M144.872 1351.41C217.658 1390.41 311.241 1413.81 389.227 1373.51C399.625 1368.31 395.725 1350.11 382.728 1352.71C299.543 1370.91 233.256 1368.31 153.97 1335.81C143.572 1330.61 134.474 1346.21 144.872 1351.41Z" fill="#D4D4D4"/>
<path d="M199.462 1504.8C280.047 1506.1 371.03 1515.2 442.516 1469.7C451.615 1464.5 441.217 1450.2 433.418 1454.1C360.631 1491.8 282.646 1486.6 202.061 1486.6C189.063 1485.3 187.764 1503.5 199.462 1504.8Z" fill="#D4D4D4"/>
<path d="M430.819 1451.5C524.401 1519.1 712.866 1434.61 803.849 1395.61C931.226 1341.01 1093.7 1263.02 1153.48 1127.82C1158.68 1114.82 1139.19 1107.02 1132.69 1120.02C1036.51 1339.71 656.977 1463.2 437.318 1434.61C426.919 1433.31 423.02 1446.3 430.819 1451.5Z" fill="#D4D4D4"/>
<path d="M335.936 1134.32C539.998 1121.32 744.06 1004.33 864.938 839.241C871.436 830.141 858.439 818.442 850.64 826.242C703.768 978.333 547.797 1088.83 333.336 1116.12C321.639 1117.42 324.238 1134.32 335.936 1134.32Z" fill="#D4D4D4"/>
<path d="M835.043 845.741C863.638 861.34 877.935 888.638 901.331 910.737C909.13 918.536 920.827 908.137 914.329 900.337C892.233 875.639 876.636 848.341 845.441 831.442C835.043 826.242 824.645 840.541 835.043 845.741Z" fill="#D4D4D4"/>
<path d="M1018.31 1094.03C1087.2 1224.02 1100.19 1352.71 1117.09 1495.7C1118.39 1506.1 1133.99 1504.8 1135.29 1494.4C1148.28 1356.61 1098.89 1205.82 1032.61 1086.23C1027.41 1079.73 1013.11 1084.93 1018.31 1094.03Z" fill="#D4D4D4"/>
<path d="M490.607 1810.28C521.802 1793.38 536.099 1755.69 539.998 1723.19C542.598 1703.69 511.404 1701.09 508.804 1720.59C506.204 1750.49 490.607 1768.69 475.01 1793.38C469.811 1802.48 480.209 1816.78 490.607 1810.28Z" fill="#D4D4D4"/>
<path d="M685.571 155.481C658.276 124.283 611.485 128.183 584.19 159.381C546.497 200.979 562.094 267.275 578.991 314.072C597.188 362.169 628.382 412.866 679.072 431.065C729.763 449.264 773.955 419.366 793.451 372.568C802.549 351.77 771.355 336.171 758.358 354.37C708.967 424.565 638.78 388.168 604.986 324.471C589.389 295.873 575.092 259.475 578.991 226.977C585.49 177.58 627.082 154.181 669.974 172.38C684.271 178.88 693.37 163.281 685.571 155.481Z" fill="#D4D4D4"/>
<path d="M721.964 204.879C695.969 190.58 660.876 178.88 637.48 204.879C615.384 229.577 620.583 277.674 634.881 304.973C638.78 312.772 651.778 308.873 650.478 299.773C646.578 278.974 638.78 252.976 653.077 232.177C666.075 212.678 692.07 216.578 712.866 221.778C721.964 225.677 732.363 211.378 721.964 204.879Z" fill="#D4D4D4"/>
<path d="M656.977 329.671C658.276 330.971 659.576 330.971 659.576 332.271C666.075 338.771 676.473 327.071 669.974 320.572C668.674 319.272 668.674 317.972 667.375 317.972C660.876 308.872 647.878 321.872 656.977 329.671Z" fill="#D4D4D4"/>
<path d="M693.37 353.07C719.365 362.17 745.36 362.17 764.857 340.071C779.154 323.172 790.852 288.074 767.456 273.775C759.658 268.575 753.159 272.475 749.259 278.974C744.06 289.374 747.96 299.773 744.06 311.473C738.861 328.372 716.765 340.071 699.869 336.171C688.171 333.571 681.672 349.17 693.37 353.07Z" fill="#D4D4D4"/>
<path d="M304.742 813.242C281.346 869.139 315.14 910.736 371.03 925.036C473.711 952.334 619.283 889.938 703.768 836.641C766.156 797.643 858.439 732.647 871.437 653.352C880.535 589.655 842.842 540.258 783.053 527.259C764.856 523.359 757.058 554.558 775.254 559.757C919.528 593.555 797.35 719.648 762.257 750.846C727.163 783.344 685.571 809.343 643.979 831.441C608.885 849.64 573.792 862.639 536.099 874.339C504.905 884.738 277.447 949.734 322.938 819.742C329.437 808.043 309.941 801.543 304.742 813.242Z" fill="#D4D4D4"/>
<path d="M390.526 874.339C391.826 873.039 393.126 871.739 394.425 869.139C400.924 861.34 391.826 852.24 384.027 853.54C381.428 853.54 380.128 853.54 377.529 853.54C356.732 856.14 372.33 895.138 390.526 874.339Z" fill="#D4D4D4"/>
<path d="M1370.54 1438.51C1419.93 1429.41 1484.92 1391.71 1494.02 1335.81C1499.22 1302.01 1479.72 1261.72 1469.33 1230.52C1455.03 1186.32 1440.73 1143.42 1423.83 1101.83C1416.04 1083.63 1388.74 1096.63 1396.54 1114.83C1418.64 1164.22 1439.43 1214.92 1453.73 1266.92C1475.82 1350.11 1427.73 1383.91 1362.75 1412.51C1347.15 1419.01 1354.95 1441.11 1370.54 1438.51Z" fill="#D4D4D4"/>
<path d="M762.257 254.276C786.952 245.176 811.648 237.377 837.643 228.277C864.938 219.178 892.233 223.078 920.827 220.478C929.926 219.178 929.926 207.479 922.127 204.879C861.038 181.48 810.348 212.678 754.458 236.077C741.461 241.277 750.559 259.476 762.257 254.276Z" fill="#D4D4D4"/>
<path d="M910.43 221.778C1031.31 329.671 1110.59 497.361 1197.68 631.253C1205.47 642.953 1224.97 629.953 1218.47 618.254C1174.28 540.259 1124.89 464.863 1074.2 390.768C1030.01 325.771 988.415 249.076 923.427 203.579C911.729 194.479 900.031 212.678 910.43 221.778Z" fill="#D4D4D4"/>
<path d="M792.152 442.765C870.137 415.466 941.624 364.769 1005.31 312.772C1018.31 302.373 1001.41 282.874 988.415 293.273C924.727 345.27 854.54 382.968 784.353 424.566C773.955 431.065 780.454 446.664 792.152 442.765Z" fill="#D4D4D4"/>
<path d="M876.636 535.059C946.823 506.461 1011.81 468.763 1070.3 420.666C1082 411.567 1066.4 393.368 1054.7 402.467C997.513 449.265 935.125 486.962 867.537 516.861C855.84 522.06 864.938 538.959 876.636 535.059Z" fill="#D4D4D4"/>
<path d="M1252.27 1318.91C1327.65 1302.01 1399.14 1257.82 1439.43 1188.92C1445.93 1177.22 1430.33 1165.52 1422.53 1177.22C1378.34 1237.02 1323.75 1282.51 1250.97 1303.31C1239.27 1305.91 1241.87 1321.51 1252.27 1318.91Z" fill="#D4D4D4"/>
<path d="M1224.97 1222.72C1260.06 1216.22 1293.86 1194.12 1321.15 1170.72C1330.25 1162.92 1318.55 1148.62 1309.45 1156.42C1282.16 1181.12 1253.57 1191.52 1219.77 1204.52C1208.07 1208.42 1213.27 1224.02 1224.97 1222.72Z" fill="#D4D4D4"/>
<path d="M1759.17 2123.56C1916.44 2149.56 2103.61 2166.46 2241.38 2070.27C2250.48 2063.77 2240.08 2050.77 2230.98 2054.67C2075.01 2131.36 1928.14 2118.37 1760.47 2102.77C1747.47 2102.77 1746.17 2122.27 1759.17 2123.56Z" fill="#D4D4D4"/>
<path d="M416.521 2913.92C565.993 2863.22 751.859 2739.73 788.252 2573.34C790.851 2564.24 775.254 2560.34 771.355 2569.44C711.566 2729.33 560.794 2837.22 406.123 2894.42C393.125 2899.62 403.523 2919.12 416.521 2913.92Z" fill="#D4D4D4"/>
</svg>
