<svg width="3721" height="3904" viewBox="0 0 3721 3904" fill="none" xmlns="http://www.w3.org/2000/svg">
<path d="M650.651 2853.04C653.65 2848.54 653.65 2847.04 650.651 2853.04C641.656 2848.54 632.661 2845.54 625.165 2842.54C619.168 2827.55 628.163 2829.05 622.167 2838.04C619.168 2842.54 619.168 2850.04 617.669 2854.54C614.671 2869.53 611.672 2884.52 608.674 2898.01C602.677 2929.5 593.682 2960.98 592.183 2992.47C592.183 3008.96 602.677 3017.95 617.669 3016.45C712.118 3011.96 799.071 2983.47 881.527 2939.99C895.02 2932.5 886.025 2913.01 871.033 2919C788.577 2954.98 706.121 2974.47 614.671 2972.98C620.667 2980.47 628.163 2989.47 634.16 2996.96C635.659 2962.48 644.654 2926.5 652.15 2892.02C656.648 2874.03 667.142 2842.54 656.648 2824.55C649.152 2814.06 638.658 2811.06 628.163 2818.55C623.666 2821.55 620.667 2829.05 617.669 2835.05C611.672 2856.04 638.658 2869.53 650.651 2853.04Z" fill="#D4D4D4"/>
<path d="M1143.89 2853.04C1598.14 2650.64 2034.41 2389.77 2442.19 2107.92C2683.56 1941.5 3191.79 1649.15 3217.27 1311.83C3217.27 1302.83 3211.27 1292.34 3200.78 1292.34C2992.39 1284.84 2812.49 1356.8 2640.08 1473.74C2625.09 1484.24 2641.58 1509.73 2658.07 1500.73C2730.03 1455.75 2803.49 1410.78 2884.45 1380.79C2957.91 1344.81 3032.87 1328.32 3112.33 1335.81C3181.29 1314.83 3199.28 1331.32 3164.8 1386.79C3164.8 1464.75 3013.38 1599.68 2971.4 1643.16C2806.49 1809.57 2613.1 1950.5 2421.2 2085.43C2016.42 2368.79 1586.15 2632.65 1134.89 2836.55C1121.4 2839.54 1131.89 2859.03 1143.89 2853.04Z" fill="#D4D4D4"/>
<path d="M841.049 2634.15C865.036 2611.66 889.023 2589.17 913.01 2566.68C933.999 2545.7 959.485 2526.21 974.477 2500.72C980.474 2490.22 969.98 2475.23 957.986 2481.23C932.5 2496.22 911.511 2521.71 892.022 2542.7C869.534 2566.68 847.046 2590.67 824.558 2614.66C814.063 2626.65 829.055 2644.64 841.049 2634.15Z" fill="#D4D4D4"/>
<path d="M709.119 1364.3C598.179 1290.84 485.739 1242.86 355.31 1208.38C346.314 1205.38 334.321 1212.88 337.319 1223.37C473.746 1748.1 1040.44 2061.44 1443.72 2364.29C1835.01 2658.14 2344.74 3103.41 2873.96 3034.45C2882.95 3032.95 2888.95 3023.95 2887.45 3016.45C2863.46 2856.04 2746.52 2706.11 2617.59 2613.16C2602.6 2601.17 2584.61 2626.65 2601.1 2637.15C2710.54 2718.11 2959.41 2953.49 2716.54 3008.96C2595.11 3037.44 2379.22 2922 2269.78 2868.03C1989.43 2731.6 1737.57 2542.7 1490.2 2355.29C1275.81 2194.88 1052.43 2047.95 847.045 1874.04C725.61 1772.09 607.174 1659.65 514.224 1530.72C496.234 1505.23 344.815 1313.33 416.776 1251.86C448.26 1226.37 697.126 1386.79 694.127 1385.29C707.62 1394.29 722.612 1373.3 709.119 1364.3Z" fill="#D4D4D4"/>
<path d="M3247.26 1110.93C3244.26 1128.92 3262.25 1148.41 3272.74 1161.91C3290.73 1184.39 3326.71 1155.91 3307.22 1131.92C3298.23 1121.43 3289.23 1109.43 3281.74 1098.94C3263.75 1077.95 3235.26 1103.44 3250.25 1125.92C3302.73 1133.42 3313.22 1128.92 3283.24 1109.43C3280.24 1088.44 3250.25 1091.44 3247.26 1110.93Z" fill="#D4D4D4"/>
<path d="M1677.6 1748.1C1692.59 1545.71 1692.59 1341.81 1725.57 1140.91C1731.57 1100.44 1829.02 679.152 1897.98 706.138C1912.97 712.135 1921.97 836.571 1924.97 853.062C1977.44 1205.38 1980.44 1568.2 1966.94 1923.51C1953.45 2292.33 1926.46 2674.63 1815.52 3028.45C1781.04 3136.39 1682.1 3466.22 1566.66 3308.8C1466.21 3170.88 1518.68 2892.02 1503.69 2733.1C1502.19 2718.11 1478.21 2719.61 1476.71 2734.6C1458.72 2931 1436.23 3296.81 1610.13 3430.24C1616.13 3434.74 1626.63 3434.74 1632.62 3428.74C1948.95 3149.89 1965.44 2547.19 1990.93 2163.39C2022.41 1682.14 2043.4 1145.41 1921.97 673.155C1918.97 662.66 1903.98 653.665 1894.98 662.66C1632.62 943.016 1670.1 1392.79 1652.11 1748.1C1653.61 1761.6 1676.1 1764.6 1677.6 1748.1Z" fill="#D4D4D4"/>
<path d="M1544.17 2008.97C1523.18 2118.42 1518.68 2230.86 1523.18 2340.3C1523.18 2353.79 1545.67 2352.3 1545.67 2338.8C1550.17 2227.86 1548.67 2119.91 1568.16 2010.47C1569.66 1996.98 1547.17 1993.98 1544.17 2008.97Z" fill="#D4D4D4"/>
<path d="M1026.95 1451.26C1514.19 1692.63 1923.47 2082.43 2383.72 2370.28C2395.71 2377.78 2407.71 2359.79 2395.71 2353.79C1936.96 2061.44 1526.18 1670.14 1034.44 1431.77C1020.95 1424.27 1013.46 1445.26 1026.95 1451.26Z" fill="#D4D4D4"/>
<path d="M571.193 1614.67C569.694 1652.15 553.203 1695.63 568.195 1731.61C589.184 1779.59 653.649 1787.08 698.625 1794.58C710.618 1796.08 725.61 1785.59 725.61 1772.09C725.61 1739.11 736.105 1697.13 721.113 1665.65C704.622 1631.16 658.147 1613.17 628.163 1593.68C604.176 1578.69 580.189 1602.68 587.684 1628.17C604.176 1677.64 623.665 1727.12 649.151 1773.59C659.646 1794.58 685.132 1815.57 709.119 1796.08C739.103 1770.59 710.618 1703.13 700.124 1674.64C695.626 1659.65 688.131 1640.16 674.638 1631.16C643.155 1611.67 629.662 1644.66 625.164 1668.65C620.667 1692.63 610.172 1727.12 628.163 1748.1C635.659 1755.6 643.155 1758.6 652.15 1763.1C662.644 1769.09 670.14 1778.09 677.636 1788.58C697.126 1815.57 736.105 1787.08 725.61 1758.6C713.617 1730.11 698.625 1694.13 673.139 1676.14C656.647 1664.15 637.158 1662.65 620.667 1674.64C599.678 1691.13 604.176 1721.12 604.176 1745.11C604.176 1760.1 613.171 1776.59 629.662 1776.59C644.654 1776.59 658.147 1776.59 673.139 1776.59C697.126 1776.59 709.119 1757.1 701.623 1734.61C697.126 1722.62 685.132 1685.14 683.633 1677.64C682.134 1670.14 680.635 1668.65 682.134 1673.14C677.636 1659.65 670.14 1652.15 656.647 1649.16C637.158 1646.16 626.664 1664.15 620.667 1679.14C617.668 1686.64 616.169 1692.63 613.171 1700.13C611.672 1703.13 610.172 1707.63 608.673 1712.12C608.673 1716.62 608.673 1712.12 608.673 1713.62C617.668 1709.12 626.664 1706.13 635.659 1701.63C643.155 1709.12 652.15 1718.12 661.145 1725.62C661.145 1724.12 661.145 1724.12 661.145 1722.62C641.655 1725.62 622.166 1730.11 604.176 1733.11C608.673 1770.59 641.655 1778.09 674.638 1779.59C692.628 1779.59 712.118 1766.1 706.121 1745.11C700.124 1718.12 691.129 1662.65 652.15 1668.65C628.163 1673.14 619.168 1700.13 610.172 1719.62C601.177 1739.11 625.164 1761.6 644.654 1751.1C655.148 1745.11 670.14 1736.11 673.139 1724.12C673.139 1722.62 676.137 1719.62 676.137 1719.62C676.137 1718.12 635.659 1721.12 637.158 1719.62C635.659 1722.62 647.652 1752.6 647.652 1757.1C658.147 1745.11 668.641 1734.61 679.135 1722.62C673.139 1722.62 668.641 1722.62 662.644 1722.62C655.148 1721.12 653.649 1721.12 661.145 1725.62C655.148 1688.14 601.177 1698.63 604.176 1736.11C604.176 1737.61 604.176 1739.11 604.176 1739.11C608.673 1752.6 616.169 1761.6 629.662 1763.1C649.151 1766.1 659.646 1748.1 665.643 1733.11C668.641 1725.62 670.14 1719.62 673.139 1712.12C674.638 1709.12 676.137 1704.63 677.636 1700.13C677.636 1695.63 677.636 1700.13 677.636 1698.63C668.641 1703.13 659.646 1706.13 650.651 1710.62C643.155 1703.13 634.16 1694.13 625.164 1686.64C632.66 1712.12 641.656 1737.61 650.651 1763.1C659.646 1749.6 670.14 1736.11 679.135 1721.12C664.143 1721.12 649.151 1721.12 635.659 1721.12C644.654 1731.61 653.649 1742.11 661.145 1752.6C661.145 1745.11 662.644 1736.11 661.145 1727.12C659.646 1716.62 662.644 1715.12 647.652 1719.62C631.161 1725.62 638.657 1718.12 644.654 1728.61C646.153 1733.11 650.651 1736.11 652.15 1740.61C659.646 1754.1 667.142 1769.09 673.139 1782.59C689.63 1772.09 704.622 1761.6 721.113 1752.6C710.618 1737.61 698.625 1724.12 682.134 1715.12C679.135 1713.62 671.639 1707.63 668.641 1709.12C667.142 1709.12 674.638 1719.62 676.137 1718.12C679.135 1715.12 679.135 1694.13 680.635 1689.63C682.134 1683.64 685.132 1676.14 683.633 1670.14C685.132 1667.15 685.132 1665.65 685.132 1662.65C670.14 1667.15 655.148 1671.64 640.156 1676.14C640.156 1677.64 641.656 1680.64 643.155 1682.14C646.153 1688.14 647.652 1694.13 650.651 1700.13C655.148 1712.12 658.147 1724.12 661.145 1736.11C662.644 1743.61 665.643 1766.1 667.142 1767.59C667.142 1767.59 698.625 1760.1 700.124 1754.1C701.623 1751.1 697.126 1745.11 695.626 1742.11C689.63 1730.11 683.633 1718.12 677.636 1706.13C662.644 1674.64 650.651 1641.66 638.657 1608.68C625.164 1620.67 611.672 1631.16 598.179 1643.16C619.168 1655.15 664.143 1673.14 674.638 1692.63C683.633 1709.12 676.137 1751.1 676.137 1772.09C685.132 1764.6 694.127 1757.1 703.122 1749.6C677.636 1746.61 619.168 1743.61 610.172 1710.62C602.676 1683.64 613.171 1649.16 611.672 1622.17C610.172 1593.68 572.693 1587.69 571.193 1614.67Z" fill="#D4D4D4"/>
<path d="M2292.27 2824.55C2211.31 2871.03 2178.33 2977.47 2233.8 3056.93C2278.78 3119.9 2385.22 3178.37 2458.68 3131.89C2515.65 3095.91 2527.64 3017.95 2506.65 2957.98C2476.67 2871.03 2389.72 2833.55 2302.76 2832.05C2286.27 2832.05 2268.28 2842.54 2266.78 2860.53C2263.78 2916 2265.28 2983.47 2305.76 3028.45C2331.25 3055.43 2371.73 3067.43 2404.71 3049.44C2437.69 3031.45 2449.68 2992.47 2439.19 2957.98C2422.7 2898.01 2361.23 2860.53 2308.76 2833.55C2287.77 2823.05 2266.78 2842.54 2263.78 2862.03C2257.79 2901.01 2241.3 2953.49 2260.79 2992.47C2280.28 3029.95 2331.25 3047.94 2364.23 3068.93C2386.72 3082.42 2413.7 3070.43 2416.7 3044.94C2422.7 3008.96 2449.68 2944.49 2424.2 2911.51C2401.71 2881.52 2340.24 2872.53 2308.76 2856.04C2278.78 2841.04 2257.79 2877.02 2266.78 2902.51C2280.27 2936.99 2268.28 2977.47 2281.77 3010.46C2299.76 3052.44 2358.23 3062.93 2395.71 3073.42C2439.19 3085.42 2458.68 3028.45 2419.7 3008.96C2368.73 2983.47 2320.75 2956.48 2274.28 2925C2269.78 2945.99 2265.28 2966.98 2260.79 2987.97C2305.76 2981.97 2352.24 2981.97 2397.21 2977.47C2437.69 2972.98 2431.69 2914.51 2394.21 2908.51C2380.72 2907.01 2367.23 2904.01 2355.23 2899.51C2317.75 2887.52 2292.27 2935.49 2323.75 2960.98C2358.23 2986.47 2332.75 3011.96 2337.24 3046.44C2341.74 3074.92 2380.72 3074.92 2391.22 3050.94C2401.71 3026.95 2415.2 3011.96 2413.7 2983.47C2412.2 2947.49 2389.72 2923.5 2362.73 2902.51C2352.24 2923.5 2341.74 2942.99 2331.25 2963.98C2350.74 2969.98 2368.73 2974.47 2388.22 2977.47C2386.72 2954.98 2386.72 2931 2385.22 2908.51C2403.21 2907.01 2361.23 2908.51 2355.23 2910.01C2319.25 2911.51 2284.77 2916 2248.79 2920.5C2218.81 2923.5 2211.31 2966.98 2235.3 2983.47C2287.77 3017.95 2340.24 3046.44 2397.21 3074.92C2404.71 3053.93 2413.7 3031.45 2421.2 3010.46C2401.71 3004.46 2368.73 2999.96 2352.24 2986.47C2340.24 2977.47 2349.24 2990.97 2347.74 2975.97C2343.24 2939.99 2344.74 2910.01 2331.25 2874.03C2317.75 2889.02 2302.76 2905.51 2289.27 2920.5C2314.76 2932.5 2355.23 2953.49 2379.22 2956.48C2365.73 2954.98 2379.22 2941.49 2370.23 2948.99C2367.23 2950.49 2367.23 2966.98 2367.23 2968.48C2362.73 2992.47 2358.23 3014.95 2355.23 3038.94C2373.23 3031.45 2389.72 3022.45 2407.71 3014.95C2388.22 3002.96 2337.24 2984.97 2325.25 2963.98C2313.26 2942.99 2331.25 2892.02 2334.25 2871.03C2319.25 2880.02 2304.26 2889.02 2289.27 2899.51C2301.26 2905.51 2412.2 2974.47 2374.72 2995.46C2335.75 3019.45 2331.25 2883.02 2332.75 2871.03C2320.75 2880.02 2308.76 2890.52 2296.77 2899.51C2352.24 2901.01 2412.2 2914.51 2440.69 2966.98C2458.68 2998.46 2463.18 3046.44 2437.69 3076.42C2401.71 3119.9 2328.25 3076.42 2298.27 3047.94C2232.3 2990.97 2260.79 2916 2313.26 2859.03C2328.25 2844.04 2313.26 2812.56 2292.27 2824.55Z" fill="#D4D4D4"/>
<path d="M2317.75 3026.95C2301.26 3007.46 2283.27 2986.47 2269.78 2963.98C2268.28 2960.98 2265.28 2956.48 2263.78 2951.99C2263.78 2950.49 2259.29 2939.99 2260.78 2944.49C2260.78 2941.49 2259.29 2932.5 2259.29 2939.99C2259.29 2936.99 2259.29 2929.5 2259.29 2936.99C2259.29 2932.5 2259.29 2934 2262.28 2932.5C2268.28 2928 2263.78 2929.5 2274.28 2925C2278.78 2923.5 2304.26 2919 2311.76 2919C2350.74 2917.5 2388.22 2925 2424.2 2938.49C2455.68 2950.49 2479.67 2966.98 2490.16 2990.97C2487.16 2984.97 2490.16 2992.47 2490.16 2995.46C2490.16 2987.97 2490.16 2999.96 2490.16 3002.96C2490.16 3001.46 2488.66 3005.96 2487.16 3010.46C2485.66 3013.46 2485.66 3013.46 2482.67 3017.95C2467.67 3041.94 2440.69 3061.43 2416.7 3076.42C2430.19 3079.42 2443.69 3082.42 2457.18 3085.42C2431.69 3058.43 2436.19 3023.95 2413.7 2998.46C2404.71 3016.45 2394.21 3035.94 2385.22 3053.93C2397.21 3055.43 2397.21 3052.44 2385.22 3043.44C2379.22 3031.45 2376.22 3029.95 2377.72 3038.94C2397.21 3032.95 2416.7 3026.95 2436.19 3020.95C2418.2 2998.46 2418.2 2956.48 2409.21 2929.5C2403.21 2911.51 2376.22 2904.01 2368.73 2926.5C2355.23 2972.98 2350.74 3025.45 2385.22 3064.43C2401.71 3085.42 2445.19 3076.42 2443.69 3046.44C2443.69 3010.46 2430.19 2987.97 2391.21 2987.97C2362.73 2987.97 2341.74 3019.45 2362.73 3043.44C2368.73 3050.94 2368.73 3065.93 2371.73 3074.92C2377.72 3095.91 2391.21 3113.9 2406.21 3130.4C2415.2 3140.89 2433.19 3146.89 2446.68 3139.39C2497.66 3107.91 2562.12 3059.93 2556.13 2990.97C2551.63 2941.49 2512.65 2910.01 2470.67 2889.02C2404.71 2856.04 2253.29 2824.55 2206.81 2905.51C2170.83 2968.48 2241.3 3031.45 2287.77 3059.93C2308.76 3070.43 2332.75 3046.44 2317.75 3026.95Z" fill="#D4D4D4"/>
<path d="M2335.74 1668.65C2365.73 1710.62 2461.68 1778.09 2491.66 1697.13C2524.64 1613.17 2413.7 1551.71 2350.74 1532.22C2337.24 1527.72 2319.25 1539.71 2323.75 1554.7C2340.24 1610.18 2344.74 1667.15 2344.74 1724.12C2344.74 1734.61 2352.24 1748.1 2364.23 1748.1C2379.22 1748.1 2392.71 1748.1 2407.71 1748.1C2401.71 1742.11 2394.21 1736.11 2388.22 1730.11C2388.22 1733.11 2389.72 1736.11 2391.22 1739.11C2397.21 1748.1 2404.71 1752.6 2415.2 1751.1C2434.69 1748.1 2443.69 1719.62 2451.18 1704.63C2460.18 1685.14 2467.67 1665.65 2475.17 1647.66C2479.67 1634.16 2470.67 1619.17 2457.18 1617.67C2452.68 1617.67 2455.68 1617.67 2455.68 1613.17C2454.18 1604.18 2445.19 1595.18 2436.19 1595.18C2427.2 1595.18 2418.2 1595.18 2407.71 1595.18C2377.72 1593.68 2373.22 1640.16 2403.21 1640.16C2404.71 1640.16 2407.71 1640.16 2409.21 1640.16C2433.19 1641.66 2442.19 1613.17 2424.2 1598.18C2392.71 1571.2 2377.72 1619.17 2379.22 1643.16C2380.72 1670.14 2383.72 1713.62 2407.71 1731.61C2442.19 1755.6 2460.18 1707.63 2470.67 1683.64C2481.17 1661.15 2479.67 1640.16 2466.17 1619.17C2451.18 1595.18 2439.19 1592.18 2413.7 1592.18C2400.21 1592.18 2385.22 1601.18 2385.22 1616.17C2385.22 1644.66 2385.22 1674.64 2385.22 1703.13C2385.22 1736.11 2437.69 1742.11 2437.69 1707.63C2437.69 1695.63 2437.69 1685.14 2437.69 1673.14C2437.69 1670.14 2439.19 1664.15 2437.69 1661.15C2434.69 1646.16 2451.18 1655.15 2427.2 1664.15C2418.2 1664.15 2409.21 1662.65 2400.21 1662.65C2392.71 1659.65 2400.21 1664.15 2401.71 1668.65C2404.71 1676.14 2410.7 1683.64 2415.2 1691.13C2422.7 1704.63 2449.68 1704.63 2449.68 1685.14C2449.68 1661.15 2445.19 1596.68 2403.21 1616.17C2376.22 1629.67 2383.72 1677.64 2383.72 1701.63C2401.71 1703.13 2418.2 1704.63 2436.19 1706.13C2436.19 1677.64 2436.19 1647.66 2436.19 1619.17C2427.2 1626.67 2416.7 1634.16 2407.71 1643.16C2416.7 1643.16 2427.2 1643.16 2436.19 1643.16C2428.69 1640.16 2419.7 1637.16 2412.2 1634.16C2431.69 1655.15 2422.7 1661.15 2413.7 1682.14C2412.2 1685.14 2410.7 1688.14 2409.21 1691.13C2407.71 1698.63 2407.71 1698.63 2409.21 1694.13C2433.19 1703.13 2440.69 1701.63 2434.69 1691.13C2433.19 1689.63 2433.19 1686.64 2431.69 1685.14C2431.69 1674.64 2425.7 1662.65 2424.2 1650.65C2424.2 1646.16 2424.2 1640.16 2422.7 1635.66C2422.7 1632.66 2422.7 1629.67 2422.7 1628.17C2424.2 1616.17 2415.2 1617.67 2394.21 1635.66C2398.71 1622.17 2404.71 1607.18 2409.21 1593.68C2407.71 1593.68 2404.71 1593.68 2403.21 1593.68C2374.72 1595.18 2370.23 1640.16 2398.71 1638.66C2407.71 1638.66 2418.2 1638.66 2427.2 1638.66C2421.2 1632.66 2413.7 1626.67 2407.71 1620.67C2410.7 1643.16 2425.7 1659.65 2449.68 1661.15C2443.69 1650.65 2437.69 1641.66 2431.69 1631.16C2427.2 1643.16 2421.2 1656.65 2416.7 1668.65C2412.2 1677.64 2409.21 1688.14 2404.71 1697.13C2403.21 1700.13 2400.21 1704.63 2400.21 1707.63C2398.71 1716.62 2386.72 1710.62 2407.71 1707.63C2415.2 1712.12 2422.7 1715.12 2431.69 1719.62C2431.69 1721.12 2431.69 1721.12 2433.19 1722.62C2431.69 1713.62 2422.7 1704.63 2413.7 1704.63C2398.71 1704.63 2385.22 1704.63 2370.23 1704.63C2376.22 1712.12 2383.72 1719.62 2389.72 1728.61C2389.72 1665.65 2383.72 1604.18 2364.23 1542.71C2355.23 1551.71 2347.74 1560.7 2338.74 1569.7C2380.72 1583.19 2470.67 1619.17 2460.18 1679.14C2451.18 1736.11 2370.23 1668.65 2355.23 1652.15C2343.24 1640.16 2325.25 1655.15 2335.74 1668.65Z" fill="#D4D4D4"/>
<path d="M2377.72 1584.69C2382.22 1581.69 2382.22 1581.69 2380.72 1583.19C2373.22 1574.19 2365.73 1565.2 2358.23 1556.2C2344.74 1575.69 2326.75 1605.68 2323.75 1635.66C2337.24 1631.16 2349.24 1628.16 2362.73 1623.67C2358.23 1619.17 2353.74 1614.67 2347.74 1611.67C2337.24 1607.18 2322.25 1613.17 2317.75 1625.17C2307.26 1662.65 2370.23 1709.12 2397.21 1722.62C2403.21 1707.62 2407.71 1692.63 2413.7 1677.64C2385.22 1677.64 2355.23 1677.64 2326.75 1677.64C2334.25 1686.63 2341.74 1695.63 2349.24 1704.63C2349.24 1694.13 2349.24 1682.14 2349.24 1671.64C2349.24 1667.14 2352.24 1641.66 2349.24 1638.66C2346.24 1635.66 2337.24 1659.65 2334.25 1655.15C2335.75 1656.65 2340.24 1655.15 2341.74 1656.65C2346.24 1659.65 2353.74 1659.65 2359.73 1662.65C2367.23 1665.65 2374.72 1668.64 2380.72 1673.14C2382.22 1674.64 2385.22 1677.64 2388.22 1677.64C2401.71 1680.64 2367.23 1697.13 2391.22 1665.65C2379.22 1682.14 2391.22 1703.13 2409.21 1706.12C2404.71 1673.14 2398.71 1661.15 2391.22 1673.14C2388.22 1674.64 2386.72 1677.64 2385.22 1679.14C2379.22 1683.64 2373.22 1689.63 2367.23 1694.13C2361.23 1698.63 2355.23 1701.63 2349.24 1704.63C2338.74 1709.12 2332.75 1707.62 2343.24 1716.62C2356.73 1727.11 2350.74 1719.62 2347.74 1710.62C2346.24 1703.13 2343.24 1695.63 2340.24 1688.13C2335.75 1674.64 2331.25 1661.15 2326.75 1646.16C2316.26 1658.15 2304.26 1670.14 2293.77 1683.64C2308.76 1691.13 2325.25 1698.63 2340.24 1707.62C2350.74 1712.12 2359.73 1716.62 2370.23 1718.12C2374.72 1719.62 2379.22 1719.62 2382.22 1721.12C2389.72 1722.62 2394.21 1725.61 2382.22 1719.62C2403.21 1730.11 2416.7 1695.63 2395.71 1685.14C2409.21 1692.63 2407.71 1694.13 2400.21 1686.63C2397.21 1683.64 2394.21 1680.64 2391.22 1677.64C2382.22 1670.14 2371.73 1664.15 2361.23 1658.15C2344.74 1649.15 2328.25 1641.66 2311.76 1634.16C2287.77 1622.17 2271.28 1652.15 2278.78 1671.64C2281.77 1682.14 2295.27 1718.12 2296.77 1725.61C2296.77 1728.61 2301.26 1740.61 2298.27 1733.11C2307.26 1763.1 2332.75 1769.09 2359.73 1758.6C2383.72 1749.6 2406.21 1731.61 2424.2 1713.62C2442.19 1695.63 2448.18 1659.65 2413.7 1655.15C2419.7 1668.64 2425.7 1682.14 2433.19 1695.63C2469.17 1647.65 2376.22 1608.67 2343.24 1605.68C2287.77 1599.68 2299.76 1662.65 2299.76 1700.13C2299.76 1712.12 2307.26 1727.11 2322.25 1727.11C2352.24 1727.11 2380.72 1727.11 2410.7 1727.11C2431.69 1727.11 2451.18 1695.63 2427.2 1682.14C2410.7 1673.14 2395.71 1661.15 2383.72 1647.65C2379.22 1643.16 2374.72 1637.16 2370.23 1632.66C2359.73 1620.67 2365.73 1619.17 2364.23 1634.16C2353.74 1640.16 2343.24 1647.65 2332.75 1653.65C2329.75 1652.15 2329.75 1652.15 2334.25 1655.15C2346.24 1665.65 2370.23 1655.15 2368.73 1638.66C2368.73 1611.67 2386.72 1595.18 2391.22 1571.19C2394.21 1556.2 2376.22 1535.21 2362.73 1550.2C2359.73 1553.2 2356.73 1556.2 2355.23 1560.7C2341.74 1578.69 2362.73 1595.18 2377.72 1584.69Z" fill="#D4D4D4"/>
</svg>
