<svg width="4086" height="4194" viewBox="0 0 4086 4194" fill="none" xmlns="http://www.w3.org/2000/svg">
<path d="M1021.22 3063.14C842.084 2504.68 956.24 2048.08 1469.06 1731.98C1504.19 1710.9 1481.36 1656.46 1440.96 1674.02C868.428 1919.89 740.222 2552.1 975.559 3084.21C989.609 3114.06 1030 3092.99 1021.22 3063.14Z" fill="#D4D4D4"/>
<path d="M1412.86 1695.1C1602.54 1839.1 1953.79 1809.25 2052.14 1568.66C2062.68 1544.07 2029.31 1519.48 2009.99 1538.8C1925.69 1619.58 1864.22 1693.34 1743.04 1710.9C1632.4 1726.71 1537.56 1684.56 1435.7 1649.44C1407.6 1640.66 1388.28 1677.54 1412.86 1695.1Z" fill="#D4D4D4"/>
<path d="M2059.16 1610.81C2368.26 1538.8 2652.77 1631.88 2860.01 1863.69C2881.09 1888.28 2926.75 1861.93 2909.19 1832.08C2742.34 1544.07 2345.43 1475.58 2050.38 1565.15C2024.04 1573.93 2029.31 1617.83 2059.16 1610.81Z" fill="#D4D4D4"/>
<path d="M945.704 3049.09C1112.55 3856.91 2125.9 4155.46 2766.93 3693.59C3416.74 3224.7 3536.16 2295.7 2879.33 1782.91C2835.42 1749.54 2793.27 1816.27 2831.91 1851.4C3395.67 2351.9 3341.22 3145.67 2742.34 3605.78C2092.53 4102.77 1265.34 3744.52 993.122 3035.04C982.585 3008.69 940.435 3022.74 945.704 3049.09Z" fill="#D4D4D4"/>
<path d="M2220.74 3491.63C2345.43 3546.08 2487.69 3470.56 2559.69 3365.19C2619.4 3277.39 2640.48 3131.63 2519.3 3085.97C2503.49 3078.94 2484.17 3101.77 2498.22 3115.82C2672.09 3279.14 2415.68 3500.42 2233.03 3456.51C2210.2 3449.49 2196.15 3481.1 2220.74 3491.63Z" fill="#D4D4D4"/>
<path d="M2456.07 3056.11C2299.77 3050.84 2127.66 3156.21 2067.94 3303.73C2004.72 3458.27 2168.05 3509.2 2290.99 3463.54C2308.55 3456.51 2303.28 3426.66 2283.96 3426.66C2236.54 3428.41 2146.97 3451.24 2113.61 3403.83C2087.26 3368.7 2117.12 3312.51 2136.44 3280.9C2204.93 3172.02 2331.38 3101.77 2457.83 3091.23C2478.9 3089.48 2477.15 3056.11 2456.07 3056.11Z" fill="#D4D4D4"/>
<path d="M1182.8 2785.67C1154.7 2915.62 1188.06 3098.26 1342.61 3129.87C1390.03 3138.65 1440.96 3128.11 1476.09 3092.99C1518.24 3052.6 1523.51 2985.87 1509.46 2933.18C1497.16 2885.77 1472.58 2843.62 1444.48 2803.23C1425.16 2775.13 1404.08 2748.79 1381.25 2724.2C1358.42 2697.86 1328.56 2660.98 1293.44 2652.2C1274.12 2646.93 1260.07 2662.74 1265.34 2682.05C1275.88 2710.15 1302.22 2729.47 1321.54 2748.79C1340.86 2768.1 1358.42 2787.42 1375.98 2808.49C1402.33 2840.11 1426.91 2875.23 1442.72 2913.86C1462.04 2954.25 1476.09 3006.94 1449.75 3049.09C1402.33 3128.11 1291.68 3080.7 1251.29 3020.99C1203.87 2954.25 1205.63 2866.45 1214.41 2789.18C1216.16 2768.1 1186.31 2766.35 1182.8 2785.67Z" fill="#D4D4D4"/>
<path d="M2385.82 2690.83C2433.24 2720.69 2568.47 2789.18 2603.6 2704.88C2635.21 2629.37 2510.52 2553.85 2450.8 2567.9C2435 2571.42 2424.46 2590.73 2436.75 2604.78C2461.34 2629.37 2494.71 2634.64 2522.81 2655.71C2529.84 2660.98 2550.91 2680.3 2550.91 2685.57C2549.15 2696.1 2524.57 2694.35 2515.79 2694.35C2477.15 2692.59 2440.27 2675.03 2405.14 2659.22C2384.07 2645.17 2366.5 2678.54 2385.82 2690.83Z" fill="#D4D4D4"/>
<path d="M1783.43 2292.19C1760.6 2334.34 1741.28 2387.02 1765.87 2432.68C1785.19 2467.8 1825.58 2483.61 1864.22 2485.36C1934.47 2490.63 2045.11 2448.49 2031.06 2360.68C2022.28 2297.46 1948.52 2243.02 1892.32 2220.19C1865.97 2209.65 1846.66 2248.29 1869.49 2264.09C1908.12 2292.19 2032.82 2357.17 1960.81 2411.61C1923.93 2439.7 1848.41 2453.75 1813.29 2416.88C1785.19 2387.02 1802.75 2337.85 1816.8 2306.24C1823.83 2290.43 1792.21 2272.87 1783.43 2292.19Z" fill="#D4D4D4"/>
<path d="M2526.32 1914.62C2686.14 2063.89 2731.8 2315.02 2960.12 2383.51C2972.41 2387.02 2989.97 2381.75 2993.48 2367.7C3030.37 2213.16 2991.73 2065.65 2879.33 1951.5C2796.78 1867.2 2631.7 1760.08 2508.76 1795.2C2489.44 1800.47 2484.17 1828.57 2505.25 1835.59C2614.14 1872.47 2708.97 1879.49 2803.81 1956.77C2923.23 2055.11 2981.19 2195.6 2946.07 2350.14C2956.6 2344.87 2967.14 2339.6 2979.43 2334.34C2763.42 2271.11 2712.48 2019.99 2552.67 1886.52C2535.1 1872.47 2510.52 1900.57 2526.32 1914.62Z" fill="#D4D4D4"/>
<path d="M2812.59 2787.42C2810.83 2845.37 2780.98 2908.6 2791.52 2964.79C2800.3 3020.99 2860.01 3043.82 2907.43 3063.14C2914.45 3066.65 2923.23 3063.14 2928.5 3056.11C3005.78 2956.01 3011.05 2820.79 2928.5 2720.69C2917.97 2706.64 2891.62 2717.18 2896.89 2736.49C2907.43 2782.15 2932.02 2822.54 2942.55 2869.96C2954.85 2931.43 2933.77 2985.87 2900.4 3038.55C2907.43 3036.79 2914.45 3035.04 2921.48 3031.53C2867.03 3015.72 2817.86 2994.65 2824.88 2929.67C2830.15 2882.25 2842.45 2840.11 2844.2 2792.69C2840.69 2771.62 2812.59 2768.1 2812.59 2787.42Z" fill="#D4D4D4"/>
<path d="M2809.08 2801.47C2828.4 2782.15 2844.2 2757.57 2842.45 2729.47C2842.45 2713.66 2816.1 2711.91 2812.59 2725.96C2807.32 2745.27 2802.05 2761.08 2788 2775.13C2772.2 2790.93 2793.27 2817.28 2809.08 2801.47Z" fill="#D4D4D4"/>
<path d="M1358.42 1888.28C1242.51 1983.11 1166.99 2141.16 1242.51 2285.17C1303.98 2402.83 1439.21 2430.93 1555.12 2374.73C1692.11 2308 1836.12 2134.14 1769.38 1974.33C1704.4 1816.27 1500.68 1788.18 1360.18 1851.4C1335.59 1861.93 1347.88 1905.84 1374.23 1897.06C1490.14 1863.69 1651.71 1851.4 1718.45 1979.6C1792.21 2120.09 1646.45 2283.41 1527.02 2339.61C1426.92 2385.27 1316.27 2351.9 1272.37 2246.53C1221.43 2123.6 1291.68 1997.16 1383.01 1914.62C1398.82 1900.57 1375.98 1874.23 1358.42 1888.28Z" fill="#D4D4D4"/>
<path d="M2036.33 130.375C2006.48 704.634 2041.6 1294.7 2045.11 1870.71C2045.11 1921.64 2118.88 1930.42 2124.14 1877.74C2175.08 1305.24 2110.09 699.366 2074.97 128.619C2073.21 107.545 2038.09 109.301 2036.33 130.375Z" fill="#D4D4D4"/>
<path d="M2041.6 153.205C2159.27 251.549 2276.94 244.524 2420.95 216.426C2549.15 191.84 2693.17 126.862 2826.64 147.936C3000.51 174.278 3132.23 321.794 3239.36 444.725C3479.96 718.683 3652.08 720.439 3980.49 530.776C4012.11 511.458 3989.28 460.53 3955.91 478.091C3690.71 606.29 3513.33 650.193 3309.61 425.407C3220.04 327.063 3141.01 225.206 3021.58 156.717C2708.97 -22.4099 2355.97 311.258 2067.94 111.057C2043.36 91.7395 2017.01 132.131 2041.6 153.205Z" fill="#D4D4D4"/>
<path d="M2092.53 797.71C2334.89 1177.04 2766.93 853.907 3130.47 883.761C3536.16 917.128 3762.72 924.153 3996.3 550.094C4019.13 513.215 3964.69 474.58 3941.86 511.459C3704.76 887.274 3483.48 838.101 3097.1 815.272C2793.27 795.954 2352.45 1055.86 2127.66 774.88C2113.61 757.319 2080.24 776.636 2092.53 797.71Z" fill="#D4D4D4"/>
<path d="M2078.48 26.7624C2074.97 23.2501 2073.21 21.4939 2069.7 17.9817C2060.92 9.20093 2069.7 14.4694 2071.46 21.494C2067.94 9.20095 2052.14 2.17636 2039.84 0.420212C2017.01 -3.09208 1999.45 16.2255 1995.94 35.5431C1990.67 61.8853 2004.72 97.0081 2013.5 121.594C2024.04 151.449 2034.57 202.377 2073.21 205.889C2066.19 202.377 2057.41 198.865 2050.38 193.596C2059.16 200.621 2064.43 207.645 2074.97 212.914C2087.26 218.182 2103.07 209.401 2108.34 197.108C2110.09 193.596 2110.09 190.084 2110.09 186.572C2115.36 158.473 2108.34 186.572 2106.58 188.328C2125.9 181.303 2104.82 128.619 2101.31 119.838C2096.04 104.033 2087.26 86.4713 2083.75 70.666C2081.99 65.3975 2080.24 56.6168 2078.48 51.3484C2078.48 47.8361 2076.72 46.08 2076.72 42.5677C2076.72 49.5923 2076.72 47.8361 2076.72 42.5677C2080.24 28.5185 2069.7 14.4694 2059.16 5.68865C2064.43 17.9817 2069.7 28.5185 2074.97 40.8115C2060.92 47.8361 2046.87 56.6168 2032.82 65.3976C2027.55 63.6414 2038.09 68.9099 2038.09 68.9099C2064.43 91.7397 2099.56 51.3484 2078.48 26.7624Z" fill="#D4D4D4"/>
<path d="M617.286 3686.57C622.555 3679.54 622.555 3679.54 617.286 3686.57C604.992 3681.3 594.455 3677.79 583.917 3674.27C576.893 3654.96 587.43 3656.71 580.405 3669.01C576.892 3674.27 576.893 3684.81 575.136 3691.84C569.868 3711.15 566.355 3730.47 562.843 3749.79C554.061 3790.18 543.524 3830.57 541.768 3872.72C541.768 3893.79 555.818 3904.33 575.136 3904.33C698.073 3899.06 812.229 3862.18 919.36 3804.23C936.923 3795.45 924.629 3769.11 905.31 3776.13C796.423 3821.79 689.292 3848.13 571.624 3846.38C580.405 3856.91 589.186 3867.45 597.967 3877.99C599.724 3832.33 612.017 3786.67 620.799 3741.01C626.067 3716.42 640.117 3677.79 626.067 3653.2C617.286 3639.15 603.236 3635.64 587.43 3644.42C580.405 3649.69 576.893 3658.47 575.136 3665.49C566.355 3690.08 603.236 3707.64 617.286 3686.57Z" fill="#D4D4D4"/>
<path d="M1261.83 3686.57C1850.17 3424.9 2417.44 3085.97 2946.07 2718.93C3260.43 2502.93 3933.08 2118.33 3964.69 1675.78C3966.45 1663.49 3955.91 1649.44 3943.61 1649.44C3673.15 1637.15 3434.3 1733.73 3213.02 1886.52C3193.7 1900.57 3214.77 1933.93 3235.85 1921.64C3346.49 1851.4 3455.38 1791.69 3581.83 1751.3C3685.45 1716.17 3899.71 1621.34 3899.71 1761.83C3899.71 1856.66 3750.43 1993.64 3692.47 2056.86C3474.7 2288.68 3211.26 2481.85 2953.09 2664.49C2417.44 3040.31 1848.41 3391.53 1251.29 3661.98C1231.97 3667.25 1244.27 3693.59 1261.83 3686.57Z" fill="#D4D4D4"/>
<path d="M866.671 3400.32C896.528 3370.46 929.896 3342.36 959.752 3312.51C987.852 3286.17 1021.22 3258.07 1040.54 3224.7C1047.56 3212.41 1035.27 3191.34 1019.46 3200.12C986.096 3219.43 959.752 3252.8 931.652 3280.9C901.796 3310.75 873.696 3344.12 843.84 3373.97C829.79 3389.78 850.865 3416.12 866.671 3400.32Z" fill="#D4D4D4"/>
<path d="M694.559 1746.03C550.547 1651.2 403.023 1586.22 234.423 1542.32C222.129 1538.8 206.323 1547.58 209.836 1561.63C380.191 2241.26 1119.57 2648.69 1641.18 3038.55C2152.24 3421.39 2824.88 4014.97 3516.84 3920.14C3529.14 3918.38 3536.16 3906.09 3534.41 3895.55C3502.8 3686.57 3350 3491.64 3181.4 3368.71C3160.33 3354.66 3139.25 3386.27 3158.57 3400.32C3325.41 3525 3631 3862.18 3258.68 3879.74C3072.52 3888.52 2823.13 3751.55 2663.31 3667.25C2319.09 3488.12 2006.47 3254.56 1697.38 3022.75C1432.18 2822.54 1154.7 2641.66 900.04 2429.17C738.465 2293.95 580.403 2148.19 453.954 1977.84C418.829 1932.18 250.229 1728.47 302.917 1647.68C364.385 1552.85 589.185 1714.42 676.997 1770.61C692.803 1784.66 712.122 1758.32 694.559 1746.03Z" fill="#D4D4D4"/>
<path d="M905.309 1919.89C970.291 1951.5 1038.78 1977.84 1105.52 2002.43C1123.08 2009.45 1137.13 1983.11 1121.33 1974.33C1058.1 1935.69 986.097 1916.37 919.359 1884.76C896.528 1874.23 884.235 1909.35 905.309 1919.89Z" fill="#D4D4D4"/>
<path d="M281.842 4099.26C276.574 4093.99 271.305 4090.48 266.036 4085.21C266.036 4086.97 266.036 4088.72 266.036 4088.72C266.036 4088.72 266.036 4092.24 266.036 4093.99C266.036 4097.5 266.036 4104.53 266.036 4109.8C266.036 4123.85 266.036 4137.9 269.549 4150.19C280.086 4181.8 309.942 4190.58 339.798 4178.29C357.361 4171.26 387.217 4157.21 394.242 4139.65C401.267 4122.09 392.486 4095.75 378.436 4083.46C343.311 4058.87 304.674 4097.5 274.817 4109.8C253.742 4118.58 264.28 4144.92 281.842 4148.43C297.649 4151.95 311.699 4146.68 325.749 4141.41C331.017 4139.65 345.067 4136.14 346.823 4132.63C348.58 4132.63 350.336 4130.87 352.092 4130.87C343.311 4120.33 339.798 4122.09 341.555 4132.63C345.067 4123.85 348.58 4115.07 350.336 4106.29C343.311 4111.55 320.48 4120.33 316.967 4127.36C315.211 4130.87 322.236 4130.87 322.236 4132.63C323.992 4129.12 320.48 4111.55 320.48 4104.53C320.48 4079.94 318.724 4048.33 287.111 4044.82C253.742 4043.06 248.474 4095.75 281.842 4099.26Z" fill="#D4D4D4"/>
<path d="M3789.06 2286.92C3815.41 2300.97 3841.75 2330.82 3875.12 2322.04C3931.32 2307.99 3952.4 2213.16 3968.2 2169.26C3973.47 2153.45 3962.93 2132.38 3945.37 2132.38C3897.95 2130.62 3850.53 2132.38 3803.11 2130.62C3789.06 2130.62 3771.5 2139.4 3771.5 2156.97C3771.5 2204.38 3771.5 2251.8 3771.5 2299.21C3771.5 2313.26 3780.28 2330.82 3797.85 2330.82C3832.97 2330.82 3899.71 2334.34 3917.27 2297.46C3929.56 2272.87 3912 2244.77 3885.66 2241.26C3873.36 2239.5 3855.8 2239.5 3843.51 2243.02C3843.51 2243.02 3822.43 2251.8 3832.97 2248.28C3829.46 2250.04 3824.19 2251.8 3820.68 2253.55C3803.11 2262.33 3806.63 2283.41 3822.43 2292.19C3840 2300.97 3857.56 2302.73 3883.9 2302.73C3876.88 2299.21 3869.85 2295.7 3862.83 2292.19C3857.56 2285.16 3873.36 2267.6 3866.34 2264.09L3855.8 2267.6C3847.02 2267.6 3836.48 2271.11 3827.7 2271.11C3818.92 2272.87 3808.38 2272.87 3799.6 2272.87C3808.38 2283.41 3817.16 2293.94 3825.95 2304.48C3825.95 2257.07 3825.95 2209.65 3825.95 2162.23C3815.41 2171.01 3804.87 2179.8 3794.33 2188.58C3843.51 2188.58 3894.44 2190.33 3945.37 2186.82C3934.83 2174.53 3924.3 2162.23 3915.51 2149.94C3908.49 2183.31 3899.71 2216.67 3885.66 2246.53C3882.15 2257.07 3873.36 2278.14 3861.07 2281.65C3843.51 2286.92 3817.16 2264.09 3803.11 2257.07C3787.31 2251.8 3771.5 2278.14 3789.06 2286.92Z" fill="#D4D4D4"/>
<path d="M4027.91 1393.04C4006.84 1389.53 3994.55 1410.6 4001.57 1426.41C4012.11 1447.48 4024.4 1486.12 4052.5 1487.87C4078.85 1489.63 4094.65 1459.78 4078.85 1438.7C4068.31 1426.41 4057.77 1412.36 4047.23 1400.07C4024.4 1371.97 3987.52 1407.09 4005.08 1435.19C4068.31 1410.6 4077.09 1412.36 4029.67 1440.46C4056.01 1435.19 4054.26 1398.31 4027.91 1393.04Z" fill="#D4D4D4"/>
<path d="M273.061 2234.24C304.674 2258.82 322.236 2295.7 352.092 2322.04C387.217 2353.65 436.392 2358.92 482.055 2362.43C497.861 2364.19 515.423 2351.9 515.423 2334.34C517.179 2293.95 517.179 2234.24 471.517 2216.67C441.661 2206.14 411.805 2227.21 381.949 2214.92C343.311 2199.11 320.48 2258.82 359.117 2276.38C381.949 2286.92 411.805 2288.68 436.392 2279.9C443.417 2278.14 452.198 2279.9 446.93 2274.63C457.467 2283.41 455.711 2323.8 455.711 2336.09C464.492 2323.8 471.517 2313.26 480.298 2300.97C438.148 2302.73 403.024 2297.46 373.167 2265.85C348.58 2239.5 327.505 2216.67 297.649 2199.11C273.061 2185.06 251.987 2216.67 273.061 2234.24Z" fill="#D4D4D4"/>
<path d="M0.843317 1421.14C11.3808 1461.53 21.9183 1526.51 58.7994 1551.1C106.218 1582.71 134.318 1521.24 143.099 1484.36C153.637 1443.97 92.1681 1421.14 81.6306 1461.53C79.8743 1472.07 67.5806 1491.39 69.3369 1501.92C64.0681 1510.7 72.8494 1510.7 95.6805 1501.92C93.9243 1500.17 93.9243 1500.17 92.168 1498.41C92.168 1494.9 86.8993 1489.63 85.1431 1486.12C72.8494 1459.78 62.3119 1431.68 51.7744 1405.34C41.2369 1377.24 -6.18166 1393.04 0.843317 1421.14Z" fill="#D4D4D4"/>
<path d="M3604.66 4092.24C3606.41 4095.75 3601.14 4125.6 3604.66 4136.14C3613.44 4164.24 3645.05 4183.56 3673.15 4190.58C3699.49 4197.61 3725.84 4188.82 3746.91 4173.02C3776.77 4150.19 3785.55 4122.09 3767.99 4086.97C3752.18 4057.11 3688.96 4020.24 3664.37 4060.63C3653.83 4076.43 3664.37 4090.48 3676.66 4101.02C3678.42 4102.77 3697.74 4111.55 3680.18 4101.02C3683.69 4102.77 3692.47 4108.04 3695.98 4111.55C3704.76 4120.34 3706.52 4123.85 3706.52 4137.9C3708.28 4129.12 3710.03 4120.34 3711.79 4111.55C3701.25 4123.85 3699.49 4129.12 3683.69 4125.6C3680.18 4123.85 3667.88 4120.34 3664.37 4115.07C3664.37 4115.07 3667.88 4125.6 3666.13 4115.07C3660.86 4092.24 3667.88 4074.68 3648.56 4057.11C3620.46 4029.02 3581.83 4060.63 3604.66 4092.24Z" fill="#D4D4D4"/>
<path d="M2092.53 370.966C2154 316.526 2224.25 274.379 2292.74 228.719C2308.55 218.182 2290.99 197.108 2276.94 202.377C2236.54 218.182 2201.42 246.28 2166.29 270.866C2134.68 293.696 2101.31 318.282 2074.97 346.38C2060.92 362.186 2078.48 385.016 2092.53 370.966Z" fill="#D4D4D4"/>
<path d="M2113.61 486.871C2111.85 486.871 2108.34 486.871 2106.58 486.871C2085.51 486.871 2081.99 520.238 2103.07 520.238C2117.12 520.238 2136.44 523.751 2146.97 516.726C2159.27 509.701 2157.51 493.896 2145.22 488.628C2134.68 483.359 2117.12 486.871 2104.82 486.871C2083.75 486.871 2080.24 520.238 2101.31 520.238C2103.07 520.238 2106.58 520.238 2108.34 520.238C2132.92 520.238 2136.44 485.115 2113.61 486.871Z" fill="#D4D4D4"/>
<path d="M2350.7 342.869C2417.44 279.648 2492.95 241.012 2575.5 202.377C2591.3 195.353 2584.28 167.254 2566.72 172.523C2477.15 193.597 2394.61 255.062 2331.38 320.039C2317.33 334.088 2336.65 356.918 2350.7 342.869Z" fill="#D4D4D4"/>
<path d="M2522.81 457.018C2668.58 342.868 2817.86 241.012 2977.68 146.18C2997 135.643 2982.95 105.789 2963.63 114.57C2793.27 190.084 2647.5 316.526 2503.49 432.432C2487.69 446.481 2507.01 469.311 2522.81 457.018Z" fill="#D4D4D4"/>
<path d="M2647.5 618.584C2651.02 599.266 2698.44 579.948 2716 576.436C2735.32 572.924 2735.32 543.069 2714.24 541.313C2670.34 537.801 2608.87 564.143 2605.35 613.315C2603.6 643.17 2642.24 644.926 2647.5 618.584Z" fill="#D4D4D4"/>
<path d="M2780.98 516.727C2893.38 434.188 3007.53 335.844 3098.86 228.719C3112.91 211.157 3086.57 188.328 3070.76 202.377C2961.87 293.696 2868.79 400.821 2756.39 488.628C2738.83 504.434 2761.66 530.776 2780.98 516.727Z" fill="#D4D4D4"/>
<path d="M2666.82 887.274C2847.72 713.416 3040.9 557.119 3241.12 406.09C3263.95 388.529 3235.85 355.162 3213.02 372.723C3005.78 514.971 2819.62 683.561 2643.99 860.932C2629.94 876.737 2649.26 903.079 2666.82 887.274Z" fill="#D4D4D4"/>
<path d="M2895.14 889.03C2951.34 836.346 3009.29 785.418 3069 738.002C3125.2 694.098 3188.43 655.463 3237.6 602.779C3249.9 588.729 3237.6 560.631 3218.28 572.924C3090.08 646.682 2972.41 753.807 2870.55 860.932C2854.74 876.737 2877.57 904.835 2895.14 889.03Z" fill="#D4D4D4"/>
<path d="M3293.8 773.124C3348.25 722.195 3413.23 683.56 3465.91 630.876C3481.72 615.071 3458.89 588.728 3443.08 604.534C3390.4 655.462 3325.41 695.853 3272.73 748.538C3256.92 762.587 3278 787.173 3293.8 773.124Z" fill="#D4D4D4"/>
</svg>
