<svg width="858" height="149" viewBox="0 0 858 149" fill="none" xmlns="http://www.w3.org/2000/svg">
<mask id="mask0_1_1101" style="mask-type:luminance" maskUnits="userSpaceOnUse" x="0" y="0" width="858" height="149">
<path d="M857.51 0.0400085H0.440002V148.68H857.51V0.0400085Z" fill="white"/>
</mask>
<g mask="url(#mask0_1_1101)">
<mask id="mask1_1_1101" style="mask-type:luminance" maskUnits="userSpaceOnUse" x="-257" y="34" width="1286" height="128">
<path d="M-256.56 161.11C-256.56 161.11 2.32999 31.84 418.25 34.47C834.17 37.1 1028.25 157.12 1028.25 157.12L-256.56 161.11Z" fill="white"/>
</mask>
<g mask="url(#mask1_1_1101)">
<g style="mix-blend-mode:screen">
<path d="M656.25 -14.38C598.098 -1.22621 538.7 5.63657 479.08 6.09001C418.17 6.54001 357.79 -0.549993 297.31 -10.43C236 -20.42 174.44 -30.96 114.31 -51.55C86.67 -61.03 59.09 -72.05 31.85 -83.71C18.9227 -89.1268 6.28861 -95.2185 -6 -101.96V151.35H864.13V-90.47C857.937 -87.6967 851.733 -84.9933 845.52 -82.36C783.94 -51.74 720.58 -28.96 656.25 -14.38Z" fill="#B2B0AE"/>
</g>
<g style="mix-blend-mode:screen">
<path d="M179.82 -25.38C172.535 -24.9488 165.311 -23.8033 158.25 -21.96C153.05 -20.51 147.56 -18.63 142.97 -14.58C141.098 -13.0209 139.601 -11.0612 138.588 -8.84568C137.576 -6.63017 137.074 -4.21547 137.12 -1.77998C137.4 9.22002 144.91 17.43 150.82 22.33C159.9 29.85 170.05 34.33 180.09 38.24C190.64 42.33 201.21 46.56 211.84 50.24C227.95 55.74 244.24 60.01 260.44 64.89C272 68.31 283.44 72.73 294.96 76.04C303.72 78.5 312.77 80.92 320.96 86.2C325.44 89.04 334.82 96.97 330.12 105.84C328.46 108.96 325.97 111.7 327.21 116.1C328.028 118.955 329.751 121.468 332.12 123.26C336.46 126.65 341.32 128.16 346.06 129.86C358.23 134.016 370.776 136.977 383.52 138.7C411.63 142.83 440.33 142.99 468.32 136.83C480.87 134.08 493.81 130.51 505.65 123.61C510.06 121.06 520.49 114.81 517.1 105.19C514.23 97.04 507.16 92.04 501.88 88.04C494.65 82.44 487.15 77.69 479.82 72.34C474.02 68.12 455.47 54.34 466.61 43.17C471.67 38.08 478.26 36.09 484.18 34.38C491.494 32.349 498.929 30.7792 506.44 29.68C511.27 28.93 516.24 28.62 521.01 27.24C525.01 26.11 528.91 24.94 532.85 23.69C547.34 19.06 561.99 13.96 575.85 5.96002C579.49 3.85002 583.58 1.52002 587.05 -1.78998C551.271 3.19064 515.203 5.82294 479.08 6.09002C418.17 6.54002 357.79 -0.549976 297.31 -10.43C268.67 -15.09 239.98 -19.88 211.41 -25.75C200.882 -26.2568 190.333 -26.1333 179.82 -25.38Z" fill="#B2B0AE"/>
</g>
<g style="mix-blend-mode:screen" opacity="0.61">
<path d="M845.52 -82.36C797.804 -58.5246 747.964 -39.2038 696.65 -24.65C697.457 -22.1719 697.635 -19.5321 697.169 -16.968C696.703 -14.4039 695.607 -11.9958 693.98 -9.96C686.57 -0.489999 675.76 3.65 666.44 7.17C659.938 9.72613 653.252 11.7886 646.44 13.34C628 17.19 609.44 19.69 591.07 24.15C580.83 26.63 570.54 29.42 560.57 33.71C554.3 36.42 545.84 39.62 541.46 47.4C534.57 59.68 552.07 70.94 557.67 74.25C572.37 82.91 587.86 86.25 603.56 88.46C612.79 89.76 622.04 91.13 631.09 94.32C635.57 95.9 641.09 97.59 644.69 102.11C649.87 108.55 643.48 115.11 639.51 118.17C630.9 124.75 621.24 128.63 611.86 132.06C598.54 136.93 584.93 140.14 571.33 142.76C542.04 148.41 512.53 150.56 483.01 151.35H864.13V-90.47C857.943 -87.6967 851.74 -84.9933 845.52 -82.36Z" fill="#B2B0AE"/>
</g>
<path d="M845.52 -82.36C843.133 -81.16 840.737 -79.9867 838.33 -78.84C843.79 -77.26 846.93 -73.12 844.62 -64.68C841.28 -52.59 832.44 -44.16 824.93 -38.14C815.21 -30.29 804.8 -24.48 794.45 -18.71C782.58 -12.1 771.13 -4.28 759.61 3.5C745.61 12.99 731.55 22.75 718.2 34.22C712.03 39.52 706.06 45.22 700.2 51.11C695.62 55.64 691.03 60.45 687.32 66.49C683.61 72.53 680.19 80.75 681.59 89.32C682.606 95.9512 685.706 102.087 690.44 106.84C699.08 115.24 709.93 117.96 720.06 119.41C730.921 120.921 741.887 121.546 752.85 121.28C782.01 120.62 812.39 113.78 840.97 125.38C848.59 128.46 859.69 135.49 858.19 149.83C858.19 150.35 858.07 150.83 857.99 151.35H864.12V-90.47C857.94 -87.6967 851.74 -84.9933 845.52 -82.36Z" fill="#C4C0BF"/>
<g style="mix-blend-mode:screen" opacity="0.61">
<path d="M327.51 149.18C308.05 147.18 288.58 143.83 269.51 137.51C263.12 135.4 256.44 133.72 250.14 131.07C246.88 129.7 240.97 126.97 241.14 120.58C241.31 114.19 245.88 110.97 249.42 108.66C254.29 105.47 260.85 103.78 264.66 98.08C265.61 96.66 268.16 93.36 267.02 91.01C266.174 89.4965 264.929 88.2444 263.42 87.39C259.351 84.6749 255.07 82.2905 250.62 80.26C241.5 76.04 232.15 73.12 222.8 70.26C183.16 58.14 143.98 40.62 105.9 20.53C92.9 13.65 79.72 6.73001 67.16 -1.87999C62.0151 -5.18708 57.3454 -9.18057 53.28 -13.75C50.35 -17.19 47.05 -21.87 46.68 -27.69C45.6 -44.75 62.56 -49.69 70.89 -50.83C78.05 -51.83 85.2 -51.26 92.37 -51.83C98.4167 -52.31 104.473 -52.6433 110.54 -52.83C84.16 -61.99 57.86 -72.53 31.85 -83.66C18.9216 -89.0931 6.28756 -95.2015 -6 -101.96V151.35H358.07C347.87 150.91 337.68 150.23 327.51 149.18Z" fill="#B2B0AE"/>
</g>
<path d="M143.49 146.78C143.26 141.14 145.31 135.35 147.49 130.89C150.11 125.64 153.35 121.22 156.36 116.47C158.81 112.62 161.97 107.62 161.65 101.92C161.19 93.84 155.41 87.86 151.19 83.84C146.447 79.3018 141.112 75.4266 135.33 72.32C111.33 59.45 85.25 58.67 60.04 55.92C37.98 53.53 16.04 48.84 -6.03 46.55V151.35H144.34C143.847 149.873 143.561 148.335 143.49 146.78Z" fill="#C4C0BF"/>
</g>
<path style="mix-blend-mode:multiply" opacity="0.58" d="M706.19 75.04C706.45 75.18 706.71 75.32 706.96 75.47L707.65 75.89L707.78 75.98L708.3 76.33L708.47 76.45L708.92 76.78L709.1 76.92L709.5 77.24L709.68 77.39C709.81 77.49 709.93 77.6 710.05 77.71L710.22 77.86L710.56 78.18L710.72 78.34L711.04 78.67C711.084 78.7191 711.131 78.7659 711.18 78.81L711.49 79.16L711.6 79.29L711.91 79.67L711.99 79.77C712.11 79.92 712.23 80.07 712.33 80.22C712.661 80.6802 712.969 81.1576 713.25 81.65C713.248 81.6766 713.248 81.7034 713.25 81.73C713.32 81.86 713.39 81.98 713.45 82.11L713.51 82.22L713.68 82.55L713.74 82.68L713.88 82.98C713.895 83.0175 713.911 83.0542 713.93 83.09C714.035 83.1379 714.135 83.1948 714.23 83.26L714.36 83.35C714.422 83.4047 714.479 83.465 714.53 83.53C714.534 83.5599 714.534 83.5901 714.53 83.62C714.545 83.6689 714.545 83.7211 714.53 83.77C714.528 83.7996 714.519 83.8284 714.505 83.8544C714.491 83.8805 714.471 83.9032 714.448 83.9212C714.424 83.9391 714.397 83.9519 714.368 83.9586C714.339 83.9653 714.309 83.9657 714.28 83.96H714.21L714.3 84.22V84.32C714.331 84.4086 714.358 84.4987 714.38 84.59V84.68C714.411 84.7686 714.438 84.8587 714.46 84.95V85.02L714.54 85.31C714.593 85.4976 714.637 85.6879 714.67 85.88V86.06C714.67 86.06 714.67 86.06 714.67 86.14C714.67 86.22 714.67 86.22 714.67 86.26V86.43C714.67 86.43 714.67 86.49 714.67 86.52C714.67 86.52 714.67 86.58 714.67 86.61C714.672 86.6533 714.672 86.6967 714.67 86.74C716.502 86.4251 718.263 85.785 719.87 84.85L720.35 85.06L720.53 85.14L720.7 85.05L721.11 84.83L721.6 84.61C721.848 84.5019 722.101 84.4084 722.36 84.33L717.36 74.33L718.22 74.54L723.22 84.12H723.46H723.73H723.83H723.94L724.17 84.19C724.338 84.2463 724.491 84.3432 724.613 84.4723C724.735 84.6014 724.823 84.7586 724.87 84.93C724.895 85.0521 724.895 85.1779 724.87 85.3C724.874 85.3499 724.874 85.4001 724.87 85.45L724.81 85.56V85.63L724.73 85.69L724.62 85.75H724.45H724.33L726 89.21C728.217 88.966 730.458 89.0232 732.66 89.38C736.79 89.95 738.48 87.57 738.48 87.57C739.71 88.57 740.18 90.39 740.98 92.06C741.05 92.21 741.13 92.36 741.21 92.52L740.9 92.69L740.66 92.81L740.35 92.95L739.99 93.1L739.57 93.26C738.153 93.7568 736.662 94.0104 735.16 94.01C734.609 94.0083 734.058 93.9783 733.51 93.92C732.555 93.7963 731.593 93.7361 730.63 93.74H730.08C729.539 93.7573 729.001 93.8175 728.47 93.92C728.138 93.9643 727.817 94.0658 727.52 94.22L725.12 89.37L723.58 86.18C721.142 87.7606 718.506 89.0115 715.74 89.9C715.15 90.09 714.55 90.27 713.94 90.43C714.13 90.5 714.01 90.58 713.77 90.65L713.88 90.72C714.014 90.7918 714.122 90.9036 714.19 91.04C714.198 91.083 714.198 91.1271 714.19 91.17C714.199 91.2129 714.199 91.2572 714.19 91.3C714.193 91.3232 714.193 91.3468 714.19 91.37L714.05 91.52C718.96 93.43 722.11 96.35 722.11 99.63C722.11 105.37 712.5 110.02 700.65 110.02C688.8 110.02 679.18 105.37 679.18 99.63C679.18 96.35 682.34 93.43 687.25 91.52C687.196 91.4779 687.148 91.4272 687.11 91.37V91.29C687.105 91.2535 687.105 91.2165 687.11 91.18C687.106 91.1602 687.106 91.1398 687.11 91.12C687.106 91.0935 687.106 91.0665 687.11 91.04C687.186 90.9002 687.292 90.7787 687.42 90.6837C687.547 90.5888 687.694 90.5227 687.85 90.49C688.145 90.402 688.452 90.3582 688.76 90.36H689.14C689.24 90.36 689.33 90.36 689.43 90.3H689.5C688.137 89.8447 686.869 89.1431 685.76 88.23C683.66 86.44 683.55 84.58 684.05 83.09C684.488 81.9151 685.201 80.8623 686.13 80.02L686.8 80.08L686.85 80.02C687.041 79.7953 687.267 79.6028 687.52 79.45C687.917 79.2277 688.365 79.1107 688.82 79.11H689.11C689.4 79.1211 689.688 79.1613 689.97 79.23H690.07C692.238 77.335 694.774 75.9085 697.52 75.04L697.82 74.59L696.57 74.18L701.44 74.04L701.34 75.12L701.44 79.24L702.44 75.1L702.37 74.04L706.99 74.15H707.15L705.9 74.56L706.19 75.01M723.44 87.89L723.77 88.05L723.68 87.83L723.44 87.89Z" fill="url(#paint0_linear_1_1101)"/>
<path d="M686.59 60.17C686.81 61.17 687.47 63.17 688.9 63.17C689.273 63.208 689.649 63.133 689.979 62.9547C690.309 62.7764 690.578 62.503 690.75 62.17L689.55 59.84L686.59 60.17Z" fill="url(#paint1_linear_1_1101)"/>
<path style="mix-blend-mode:multiply" opacity="0.5" d="M690.05 62.94C690.352 62.778 690.597 62.5265 690.75 62.22L689.55 59.89L688.55 59.98C688.873 61.047 689.38 62.0489 690.05 62.94Z" fill="url(#paint2_linear_1_1101)"/>
<path d="M687.23 60.11L686.59 60.17C686.81 61.17 687.47 63.17 688.9 63.17C688.997 63.175 689.093 63.175 689.19 63.17C688.214 62.3973 687.524 61.3201 687.23 60.11Z" fill="url(#paint3_linear_1_1101)"/>
<path d="M727.479 33.4841L717.708 75.3079L718.575 75.5103L728.346 33.6866L727.479 33.4841Z" fill="#939EBC"/>
<path d="M720.6 50.93C720.6 50.93 722.6 53.48 723.84 53.36C725.68 53.19 725.54 49.75 724.62 49.52C723.768 49.2612 722.942 48.9265 722.15 48.52L720.6 50.93Z" fill="url(#paint4_linear_1_1101)"/>
<g style="mix-blend-mode:multiply" opacity="0.5">
<path d="M720.95 50.38L720.6 50.93C720.6 50.93 722.6 53.48 723.84 53.36C724.102 53.3353 724.35 53.2306 724.55 53.06C724.13 51.44 722.44 50.96 720.95 50.38Z" fill="#777676"/>
</g>
<path d="M725.26 51.56C725.19 50.93 724.96 50.42 724.62 50.34C723.771 50.0818 722.948 49.7471 722.16 49.34L720.89 51.34L720.6 50.98L722.16 48.53C722.948 48.9371 723.771 49.2718 724.62 49.53C725.1 49.64 725.37 50.62 725.26 51.56Z" fill="url(#paint5_linear_1_1101)"/>
<path d="M723.84 48.7L720.75 51.5L720.27 51.93C718.57 50.04 716.83 48.48 715.07 48.02C715.07 48.02 714.66 63.25 706.21 72.42L702.44 72.19L701.44 63.65L701.29 72.19L697.52 72.42C697.52 72.42 692.44 68.9 689.22 60.74L686.22 61.33C686.22 61.33 681.22 52.51 685.85 44.33C688.25 40.06 692.45 37.33 699.85 36.76C709.32 36.1 717.44 40.04 723.84 48.7Z" fill="url(#paint6_linear_1_1101)"/>
<path style="mix-blend-mode:multiply" opacity="0.5" d="M701.31 62.21C700.6 62.4 700.31 70.83 700.43 72.21L701.31 72.15L701.46 63.61L702.46 72.15H703.18C703.52 69.58 701.7 62.1 701.31 62.21Z" fill="url(#paint7_linear_1_1101)"/>
<path d="M698.44 72.36L697.52 72.42C697.52 72.42 692.66 69.04 689.44 61.35C691.965 65.384 694.989 69.0832 698.44 72.36ZM705.62 72.36H706.19C713.99 63.89 714.94 50.25 715.04 48.22C714.53 53.09 711.19 66.04 705.64 72.38L705.62 72.36ZM686.59 44.76C689.77 37.41 704.67 38.76 707.94 39.13C715.02 39.91 721.53 46.27 723.46 49.04L723.84 48.7C717.44 40.04 709.32 36.09 699.84 36.78C692.44 37.32 688.25 40.09 685.84 44.36C681.23 52.51 686.21 61.36 686.21 61.36L686.74 61.25C685.51 57.97 682.8 53.51 686.59 44.76Z" fill="#F7F7F6"/>
<path d="M700.8 5.86C696.95 5.86 694.04 4.45 693.88 3.62C693.88 3.49 693.7 3.46 693.6 3.5C692.51 4.01 692.83 5.56 693.4 6.32C693.625 6.61503 693.899 6.86881 694.21 7.07C693.76 7.25 691.08 5.6 691.53 3.12C691.535 3.07288 691.524 3.02552 691.5 2.98495C691.475 2.94438 691.438 2.91276 691.395 2.89479C691.351 2.87682 691.302 2.87346 691.256 2.88521C691.211 2.89695 691.17 2.92318 691.14 2.96C690.689 3.41886 690.371 3.99123 690.22 4.61629C690.069 5.24136 690.089 5.89577 690.28 6.51C690.57 7.22468 691.077 7.82998 691.73 8.24L691.6 8.32C691.13 8.16181 690.67 7.97821 690.22 7.77C689.6 7.46 688.44 6.93 688.53 6.12C688.53 5.95 688.32 5.93 688.24 6.04C687.63 6.9 688.3 7.8 688.96 8.39C689.162 8.62416 689.282 8.91788 689.302 9.22653C689.322 9.53518 689.24 9.84188 689.07 10.1C687.227 11.6285 685.742 13.5427 684.719 15.7077C683.696 17.8726 683.16 20.2356 683.15 22.63C683.15 31.89 691.05 39.39 700.8 39.39C710.55 39.39 718.44 31.89 718.44 22.63C718.44 13.37 710.54 5.89 700.8 5.86Z" fill="url(#paint8_linear_1_1101)"/>
<g style="mix-blend-mode:multiply" opacity="0.5">
<path d="M718.44 22.63C718.44 31.89 710.54 39.39 700.8 39.39C691.06 39.39 683.16 31.89 683.16 22.63C683.16 21.9615 683.2 21.2937 683.28 20.63C684.508 24.0988 686.794 27.0947 689.815 29.1955C692.836 31.2963 696.441 32.3962 700.12 32.34C709.12 32.34 716.58 25.91 717.63 17.6C718.167 19.2226 718.44 20.9208 718.44 22.63Z" fill="#210F0C"/>
</g>
<path d="M683.92 20.04C686.44 10.04 701.07 4.32 709.78 9.9C712.85 11.9597 715.199 14.9274 716.499 18.3879C717.799 21.8484 717.984 25.6287 717.03 29.2C717.962 27.1351 718.442 24.8953 718.44 22.63C718.44 13.37 710.54 5.89 700.8 5.86C696.95 5.86 694.04 4.45 693.88 3.62C693.88 3.49 693.7 3.46 693.6 3.5C692.51 4.01 692.83 5.56 693.4 6.32C693.625 6.61503 693.899 6.86881 694.21 7.07C693.76 7.25 691.08 5.6 691.53 3.12C691.535 3.07288 691.524 3.02552 691.5 2.98495C691.475 2.94438 691.438 2.91276 691.395 2.89479C691.351 2.87682 691.302 2.87346 691.256 2.88521C691.211 2.89695 691.17 2.92318 691.14 2.96C690.689 3.41886 690.371 3.99123 690.22 4.61629C690.069 5.24136 690.089 5.89577 690.28 6.51C690.57 7.22468 691.077 7.82998 691.73 8.24L691.6 8.32C691.13 8.16181 690.67 7.97821 690.22 7.77C689.6 7.46 688.44 6.93 688.53 6.12C688.53 5.95 688.32 5.93 688.24 6.04C687.63 6.9 688.3 7.8 688.96 8.39C689.162 8.62416 689.282 8.91788 689.302 9.22653C689.322 9.53518 689.24 9.84188 689.07 10.1C687.227 11.6285 685.742 13.5427 684.719 15.7077C683.696 17.8726 683.16 20.2356 683.15 22.63C683.156 23.6372 683.256 24.6416 683.45 25.63C683.303 23.7535 683.462 21.8656 683.92 20.04Z" fill="url(#paint9_linear_1_1101)"/>
<g opacity="0.54">
<path d="M700.8 2.16001C704.454 2.16001 708.025 3.24351 711.063 5.27346C714.1 7.30341 716.467 10.1886 717.865 13.5642C719.263 16.9397 719.628 20.6539 718.914 24.237C718.201 27.8201 716.441 31.1111 713.857 33.6938C711.273 36.2765 707.981 38.0348 704.397 38.7463C700.814 39.4579 697.1 39.0907 693.725 37.6912C690.35 36.2917 687.466 33.9228 685.438 30.8841C683.41 27.8454 682.328 24.2735 682.33 20.62C682.335 15.724 684.283 11.0302 687.746 7.56913C691.209 4.10807 695.904 2.16265 700.8 2.16001ZM700.8 -0.839994C696.553 -0.841972 692.4 0.415793 688.868 2.77419C685.336 5.13258 682.583 8.48563 680.956 12.4092C679.33 16.3327 678.904 20.6504 679.732 24.8161C680.56 28.9818 682.605 32.8083 685.608 35.8116C688.612 38.8148 692.438 40.8598 696.604 41.688C700.77 42.5161 705.087 42.09 709.011 40.4638C712.934 38.8375 716.287 36.0841 718.646 32.5519C721.004 29.0196 722.262 24.8672 722.26 20.62C722.26 17.8018 721.705 15.0113 720.627 12.4076C719.548 9.80397 717.967 7.43824 715.975 5.44549C711.95 1.42096 706.492 -0.839994 700.8 -0.839994Z" fill="white"/>
</g>
<g opacity="0.19">
<path d="M722.005 23.8434C723.785 12.1258 715.73 1.18352 704.012 -0.596954C692.295 -2.37743 681.352 5.67816 679.572 17.3957C677.792 29.1132 685.847 40.0555 697.565 41.836C709.282 43.6164 720.224 35.5609 722.005 23.8434Z" fill="white"/>
</g>
<path d="M712.75 39.91H688.84C688.394 39.91 687.967 39.733 687.652 39.418C687.337 39.1029 687.16 38.6756 687.16 38.23C687.16 37.7845 687.337 37.3571 687.652 37.0421C687.967 36.727 688.394 36.55 688.84 36.55H712.75C712.971 36.5487 713.191 36.5912 713.396 36.675C713.601 36.7589 713.787 36.8824 713.944 37.0385C714.101 37.1947 714.226 37.3803 714.311 37.5848C714.396 37.7893 714.44 38.0086 714.44 38.23C714.44 38.4515 714.396 38.6708 714.311 38.8752C714.226 39.0797 714.101 39.2654 713.944 39.4215C713.787 39.5776 713.601 39.7012 713.396 39.785C713.191 39.8689 712.971 39.9113 712.75 39.91Z" fill="url(#paint10_linear_1_1101)"/>
<path style="mix-blend-mode:screen" d="M714.44 38.23C714.45 38.3264 714.45 38.4236 714.44 38.52C714.374 38.1306 714.172 37.7773 713.87 37.5228C713.567 37.2683 713.185 37.1292 712.79 37.13H688.84C688.62 37.128 688.403 37.1704 688.2 37.2546C687.997 37.3388 687.814 37.4631 687.66 37.62C687.41 37.8615 687.245 38.1772 687.19 38.52C687.18 38.4236 687.18 38.3264 687.19 38.23C687.193 37.7853 687.37 37.3595 687.685 37.045C687.999 36.7305 688.425 36.5526 688.87 36.55H712.78C713.222 36.5553 713.644 36.7346 713.955 37.0491C714.266 37.3636 714.44 37.7879 714.44 38.23Z" fill="url(#paint11_linear_1_1101)"/>
<path style="mix-blend-mode:multiply" opacity="0.5" d="M714.44 38.23C714.44 38.4508 714.397 38.6696 714.313 38.8738C714.229 39.078 714.106 39.2636 713.95 39.42C713.633 39.7339 713.206 39.91 712.76 39.91H688.84C688.394 39.91 687.967 39.733 687.652 39.418C687.337 39.1029 687.16 38.6756 687.16 38.23C687.165 38.05 687.195 37.8715 687.25 37.7C687.36 38.035 687.573 38.3266 687.858 38.5332C688.144 38.7397 688.487 38.8507 688.84 38.85H712.75C712.972 38.8504 713.191 38.8063 713.396 38.7204C713.6 38.6345 713.785 38.5086 713.94 38.35C714.123 38.1683 714.26 37.9454 714.34 37.7C714.403 37.8697 714.437 38.049 714.44 38.23Z" fill="url(#paint12_linear_1_1101)"/>
<path d="M697.54 72.42L697.84 73.36L696.58 74.21L701.38 74.05L701.31 72.2L697.54 72.42Z" fill="url(#paint13_linear_1_1101)"/>
<path style="mix-blend-mode:screen" opacity="0.79" d="M701.95 3.42002C703.02 1.16002 710.95 2.01002 715.74 8.55002C719.87 14.16 720.62 22.63 718.44 22.63C717.85 22.63 716.25 14.51 710.72 10.85C704.8 6.94002 700.18 7.15002 701.95 3.42002Z" fill="url(#paint14_linear_1_1101)"/>
<path style="mix-blend-mode:screen" opacity="0.79" d="M701.08 35.45C700.08 37.76 692.17 37.25 687.08 30.92C682.71 25.49 681.61 17.06 683.78 16.97C684.37 16.97 686.32 24.97 692.01 28.4C698.08 32.04 702.68 31.65 701.08 35.45Z" fill="url(#paint15_linear_1_1101)"/>
<path d="M710.98 50.57C711.19 54.02 712.98 55.31 714.38 53.99C714.72 53.66 715.11 54.99 713.75 55.99C712.39 56.99 709.62 56.68 709.81 50.65C710.196 50.5785 710.588 50.5517 710.98 50.57Z" fill="url(#paint16_linear_1_1101)"/>
<g style="mix-blend-mode:multiply" opacity="0.5">
<path d="M711.99 56.32C712.146 56.2166 712.291 56.0958 712.42 55.96C712.601 55.7548 712.739 55.5156 712.827 55.2563C712.914 54.9971 712.949 54.723 712.93 54.45C711.93 54.2 711.12 52.87 710.93 50.57C710.539 50.5484 710.146 50.5719 709.76 50.64C709.69 54.53 710.82 56.04 711.99 56.32Z" fill="#2C1C43"/>
</g>
<path d="M712.93 39.04C711.67 39.16 709.68 42.21 710.35 45.17C710.45 45.61 711.12 45.36 711.15 44.96C711.28 42.66 712.74 40.35 713.98 39.96C714.88 39.62 713.27 38.98 712.93 39.04Z" fill="url(#paint17_linear_1_1101)"/>
<g style="mix-blend-mode:multiply" opacity="0.5">
<path d="M711.15 40.59C710.322 41.9524 710.036 43.5767 710.35 45.14C710.45 45.58 711.12 45.33 711.15 44.93C711.224 43.8356 711.545 42.7722 712.09 41.82C711.834 41.3693 711.518 40.9555 711.15 40.59Z" fill="#2C1C43"/>
</g>
<path style="mix-blend-mode:screen" d="M712.7 39.51C713.052 39.6497 713.387 39.8274 713.7 40.04C713.793 39.9884 713.89 39.945 713.99 39.91C714.89 39.62 713.28 38.98 712.99 39.01C712.725 39.0531 712.476 39.1671 712.27 39.34L712.7 39.51Z" fill="url(#paint18_linear_1_1101)"/>
<path style="mix-blend-mode:screen" d="M714.38 54.04C714.217 54.1988 714.028 54.3275 713.82 54.42C713.853 55.0667 713.689 55.7081 713.35 56.26C713.49 56.1954 713.624 56.1184 713.75 56.03C715.11 55.04 714.72 53.66 714.38 54.04Z" fill="url(#paint19_linear_1_1101)"/>
<path d="M693.38 50.64C693.58 56.64 690.73 56.91 689.44 55.98C689.197 55.8214 688.969 55.6406 688.76 55.44C688.7 54.93 688.71 54.49 688.68 53.91C690.04 55.23 692.01 54.02 692.21 50.57C692.601 50.5481 692.994 50.5716 693.38 50.64Z" fill="#574F50"/>
<g style="mix-blend-mode:multiply" opacity="0.5">
<path d="M693.38 50.64C693.58 56.64 690.73 56.91 689.44 55.98C689.197 55.8214 688.969 55.6406 688.76 55.44C688.7 54.93 688.71 54.49 688.68 53.91C690.04 55.23 692.01 54.02 692.21 50.57C692.601 50.5481 692.994 50.5716 693.38 50.64Z" fill="#2C1C43"/>
</g>
<path d="M689.22 39.91C690.46 40.32 691.92 42.63 692.05 44.91C692.05 45.31 692.75 45.56 692.84 45.12C693.52 42.12 691.52 39.12 690.27 38.99C689.92 38.98 688.32 39.62 689.22 39.91Z" fill="url(#paint20_linear_1_1101)"/>
<g style="mix-blend-mode:multiply" opacity="0.5">
<path d="M692.05 40.59C692.871 41.9551 693.153 43.5779 692.84 45.14C692.75 45.58 692.07 45.33 692.05 44.93C691.971 43.8364 691.65 42.7741 691.11 41.82C691.36 41.365 691.676 40.9503 692.05 40.59Z" fill="#2C1C43"/>
</g>
<path style="mix-blend-mode:screen" d="M690.5 39.51C690.148 39.6497 689.813 39.8274 689.5 40.04C689.407 39.9884 689.31 39.945 689.21 39.91C688.31 39.62 689.91 38.98 690.26 39.01C690.522 39.0533 690.768 39.1674 690.97 39.34L690.5 39.51Z" fill="url(#paint21_linear_1_1101)"/>
<path style="mix-blend-mode:multiply" opacity="0.5" d="M699.54 74.11L701.44 74.04L701.36 72.18L700.36 72.25C700.322 72.9491 700.03 73.6103 699.54 74.11Z" fill="url(#paint22_linear_1_1101)"/>
<path d="M697.44 74.18C697.69 74.02 697.93 73.85 698.17 73.68C698.41 73.51 698.7 73.38 698.5 73.01C698.37 72.8 698.18 72.61 698.03 72.4H697.57L697.87 73.34L696.62 74.19L697.44 74.18Z" fill="url(#paint23_linear_1_1101)"/>
<path d="M706.21 72.42L705.91 73.36L707.17 74.21L702.37 74.05L702.44 72.2L706.21 72.42Z" fill="url(#paint24_linear_1_1101)"/>
<path style="mix-blend-mode:multiply" opacity="0.5" d="M703.44 72.25L702.44 72.19L702.37 74.04H703.91C703.63 73.4827 703.47 72.8729 703.44 72.25Z" fill="url(#paint25_linear_1_1101)"/>
<path d="M705.73 72.39C705.55 72.7 705.35 73 705.14 73.3C705.525 73.5656 705.889 73.8598 706.23 74.18H707.17L705.92 73.33L706.21 72.39H705.73Z" fill="url(#paint26_linear_1_1101)"/>
<path d="M691.88 35.9C693.03 34.24 708.2 34.41 709.88 35.9C711.56 37.39 711.64 58.45 710.35 59.9C709.06 61.35 692.53 60.9 691.72 59.76C690.14 57.61 690.73 37.56 691.88 35.9Z" fill="url(#paint27_linear_1_1101)"/>
<g style="mix-blend-mode:multiply" opacity="0.2">
<path d="M710.32 59.86C709.03 61.27 692.49 60.86 691.68 59.72C690.96 58.72 690.68 53.87 690.76 48.79C690.76 53.07 691.06 56.79 691.68 57.64C692.49 58.77 709.03 59.19 710.32 57.78C710.86 57.19 711.15 53.11 711.18 48.48C711.23 53.91 710.94 59.18 710.32 59.86Z" fill="#777676"/>
</g>
<g style="mix-blend-mode:multiply" opacity="0.4">
<path d="M710.32 44.84C709.03 45.41 692.49 45.24 691.68 44.84C690.87 44.44 690.68 42.04 690.78 39.75C690.87 41.2 691.14 42.39 691.68 42.69C692.49 43.15 709.03 43.32 710.32 42.69C710.79 42.48 711.08 41.17 711.16 39.58C711.28 42.04 711 44.54 710.32 44.84Z" fill="#777676"/>
</g>
<path d="M691.88 34.63C693.03 33.95 708.2 34.02 709.88 34.63C711.56 35.24 711.64 43.82 710.35 44.39C709.06 44.96 692.53 44.8 691.72 44.34C690.14 43.48 690.73 35.31 691.88 34.63Z" fill="url(#paint28_linear_1_1101)"/>
<g style="mix-blend-mode:screen" opacity="0.3">
<path d="M711.18 40.78C711.12 38.45 710.67 36.07 709.84 35.78C708.2 35.17 693.03 35.1 691.84 35.78C691.24 36.13 690.79 38.56 690.72 40.9C690.64 38.27 691.14 35.06 691.84 34.64C692.99 33.96 708.16 34.03 709.84 34.64C710.81 35.04 711.25 38.15 711.18 40.78Z" fill="#646363"/>
</g>
<g style="mix-blend-mode:multiply" opacity="0.2">
<path d="M710.32 44.39C709.03 44.97 692.49 44.8 691.68 44.34C690.87 43.88 690.68 41.54 690.78 39.25C690.87 40.7 691.14 41.9 691.68 42.19C692.49 42.65 709.03 42.82 710.32 42.25C710.79 42.03 711.08 40.73 711.16 39.13C711.28 41.55 711 44.09 710.32 44.39Z" fill="#777676"/>
</g>
<path style="mix-blend-mode:multiply" opacity="0.5" d="M694.07 46.52C693.01 47.74 692.79 54.96 694.07 55.64C695.35 56.32 707.16 56.4 707.59 55.64C708.02 54.88 708.59 47.54 707.59 46.52C706.59 45.5 695.13 45.31 694.07 46.52Z" fill="url(#paint29_linear_1_1101)"/>
<path style="mix-blend-mode:multiply" opacity="0.5" d="M688.5 48.3C688.5 48.3 688.42 47.75 688.21 48.69C687.474 52.725 687.63 56.8723 688.67 60.84C688.851 60.7962 689.035 60.7628 689.22 60.74C688.82 58.13 688.44 50.38 688.5 48.3Z" fill="url(#paint30_linear_1_1101)"/>
<path style="mix-blend-mode:multiply" opacity="0.5" d="M720.75 51.5L720.27 51.93C718.57 50.04 716.83 48.48 715.07 48.02C715.07 48.02 716.07 47.39 718.68 49.21C719.503 49.8413 720.205 50.6173 720.75 51.5Z" fill="url(#paint31_linear_1_1101)"/>
<path d="M718.64 75.1L718.06 74.97L734.13 6.22L734.74 6.37L718.64 75.1Z" fill="white"/>
<path d="M771.28 6.50001C771.28 6.50001 762.73 -2.36999 750.77 0.780009C738.81 3.93001 734.99 0.0400085 734.99 0.0400085L729.8 23.5C729.8 23.5 736.37 26.59 749.58 22.56C760.28 19.3 765.25 30.47 765.25 30.47C768.53 25.24 769.2 15.12 771.28 6.50001Z" fill="url(#paint32_linear_1_1101)"/>
<path d="M753.07 2.04001C756.364 1.6329 759.708 2.0606 762.794 3.28379C765.88 4.50697 768.609 6.48639 770.73 9.04001C770.9 8.21001 771.08 7.39001 771.28 6.58001C771.28 6.58001 762.73 -2.28999 750.77 0.860009C738.81 4.01001 734.99 0.0400085 734.99 0.0400085C734.99 0.0400085 735.98 4.65001 753.07 2.04001Z" fill="white"/>
<path d="M741.085 5.79324L740.36 10.3542L739.808 10.2664L740.441 6.28449L740.414 6.28025L739.183 6.84266L739.272 6.28145L740.533 5.70547L741.085 5.79324ZM743.15 10.8614C742.814 10.8081 742.543 10.6714 742.336 10.4512C742.129 10.2296 741.991 9.93445 741.922 9.56573C741.853 9.19553 741.858 8.76248 741.937 8.2666C742.015 7.77369 742.144 7.36269 742.324 7.03361C742.506 6.70328 742.73 6.46482 742.995 6.31824C743.262 6.1704 743.562 6.12291 743.895 6.17576C744.227 6.22862 744.497 6.36659 744.703 6.58969C744.912 6.81155 745.05 7.10757 745.119 7.47778C745.19 7.84673 745.186 8.27767 745.108 8.77058C745.029 9.26647 744.899 9.67969 744.719 10.0103C744.539 10.3393 744.316 10.5772 744.051 10.7238C743.786 10.8689 743.485 10.9147 743.15 10.8614ZM743.228 10.3715C743.56 10.4243 743.844 10.305 744.079 10.0136C744.314 9.72217 744.479 9.27952 744.573 8.68564C744.636 8.29072 744.647 7.94771 744.607 7.65663C744.568 7.36578 744.481 7.1351 744.347 6.96459C744.214 6.79432 744.038 6.69172 743.818 6.6568C743.489 6.60442 743.205 6.72606 742.968 7.02171C742.731 7.31588 742.565 7.75915 742.471 8.35154C742.408 8.74647 742.397 9.08861 742.436 9.37798C742.475 9.66734 742.561 9.89642 742.694 10.0652C742.829 10.2342 743.007 10.3363 743.228 10.3715ZM747.499 12.8038C747.41 12.7897 747.332 12.7696 747.264 12.7437C747.197 12.7192 747.151 12.6982 747.126 12.6806L747.333 12.2386C747.456 12.2916 747.567 12.3214 747.666 12.328C747.765 12.3347 747.859 12.3047 747.947 12.2381C748.037 12.1731 748.127 12.0589 748.219 11.8953L748.359 11.6436L747.641 8.00409L748.211 8.09469L748.722 10.9706L748.758 10.9763L750.135 8.40048L750.705 8.49109L748.63 12.1799C748.537 12.3462 748.433 12.4796 748.318 12.58C748.203 12.682 748.077 12.751 747.94 12.7872C747.805 12.8235 747.658 12.8291 747.499 12.8038ZM750.855 12.022L751.399 8.60133L751.907 8.68203L751.825 9.1987L751.86 9.20436C751.949 9.04501 752.084 8.92561 752.264 8.84615C752.444 8.7667 752.637 8.74325 752.842 8.77581C752.88 8.78194 752.928 8.79035 752.986 8.80104C753.044 8.81173 753.087 8.82091 753.116 8.8286L753.031 9.36309C753.014 9.3558 752.975 9.34263 752.912 9.32358C752.851 9.30328 752.786 9.28758 752.716 9.27649C752.55 9.25007 752.396 9.26136 752.254 9.31038C752.114 9.35815 751.997 9.43688 751.902 9.5466C751.808 9.65506 751.749 9.78649 751.725 9.9409L751.381 12.1056L750.855 12.022ZM756.034 10.1233L755.54 10.1819C755.523 10.0985 755.491 10.0151 755.445 9.93164C755.401 9.84696 755.334 9.77233 755.243 9.70776C755.153 9.6432 755.032 9.59876 754.879 9.57446C754.669 9.54119 754.487 9.56172 754.332 9.63604C754.179 9.70912 754.091 9.81915 754.067 9.96613C754.047 10.0968 754.078 10.2075 754.161 10.2983C754.244 10.3892 754.382 10.4759 754.576 10.5584L755.064 10.7638C755.358 10.8867 755.568 11.0365 755.694 11.2132C755.82 11.3885 755.863 11.5956 755.825 11.8347C755.794 12.0306 755.71 12.1969 755.573 12.3334C755.437 12.4701 755.262 12.567 755.047 12.6243C754.832 12.6815 754.592 12.689 754.326 12.6468C753.978 12.5913 753.701 12.4697 753.496 12.2819C753.292 12.0941 753.182 11.8499 753.167 11.5493L753.686 11.5038C753.704 11.6955 753.772 11.8478 753.89 11.9609C754.009 12.0742 754.176 12.1479 754.391 12.1821C754.636 12.221 754.839 12.2 754.999 12.1189C755.162 12.0367 755.254 11.922 755.278 11.775C755.297 11.6563 755.271 11.5502 755.201 11.4568C755.13 11.3619 755.012 11.2808 754.847 11.2133L754.298 10.9891C753.996 10.8651 753.784 10.7134 753.662 10.5342C753.542 10.3537 753.5 10.1454 753.538 9.90933C753.568 9.71632 753.65 9.5542 753.782 9.42295C753.915 9.29195 754.083 9.19911 754.285 9.14445C754.488 9.09002 754.71 9.08192 754.951 9.12015C755.289 9.17394 755.543 9.29041 755.713 9.46955C755.884 9.64893 755.991 9.86685 756.034 10.1233Z" fill="black"/>
<path d="M738.722 16.5585C738.5 16.5233 738.315 16.4398 738.164 16.308C738.015 16.1763 737.909 16.0083 737.845 15.8041C737.783 15.6 737.772 15.3714 737.812 15.1182C737.852 14.8629 737.934 14.6473 738.057 14.4716C738.181 14.2961 738.334 14.1688 738.517 14.0899C738.701 14.0111 738.903 13.9893 739.124 14.0245C739.346 14.0596 739.531 14.1431 739.68 14.2748C739.83 14.4066 739.937 14.5751 739.999 14.7802C740.062 14.9855 740.074 15.2159 740.033 15.4712C739.993 15.7244 739.911 15.9382 739.787 16.1127C739.665 16.2873 739.511 16.4141 739.328 16.4928C739.145 16.5718 738.943 16.5937 738.722 16.5585ZM738.775 16.2202C738.943 16.2469 739.089 16.2258 739.211 16.1569C739.333 16.088 739.431 15.9874 739.506 15.8553C739.58 15.7231 739.63 15.5752 739.657 15.4113C739.683 15.2475 739.681 15.0907 739.651 14.9409C739.621 14.7912 739.559 14.664 739.465 14.5595C739.37 14.4551 739.239 14.3895 739.071 14.3628C738.902 14.336 738.757 14.3577 738.635 14.4277C738.513 14.4977 738.414 14.5993 738.339 14.7325C738.265 14.8657 738.214 15.0142 738.188 15.178C738.162 15.3418 738.164 15.4981 738.194 15.6468C738.224 15.7955 738.286 15.9216 738.381 16.025C738.476 16.1284 738.607 16.1935 738.775 16.2202ZM741.896 14.4977L741.846 14.8168L740.524 14.6069L740.575 14.2877L741.896 14.4977ZM740.581 16.8017L741.024 14.0123C741.047 13.8719 741.098 13.7601 741.179 13.677C741.26 13.5938 741.357 13.5372 741.47 13.5072C741.582 13.4771 741.697 13.4714 741.814 13.49C741.907 13.5047 741.981 13.5241 742.037 13.5483C742.093 13.5725 742.135 13.5933 742.162 13.6106L742.001 13.9189C741.983 13.9095 741.958 13.8972 741.925 13.8823C741.894 13.8674 741.851 13.8557 741.797 13.8471C741.672 13.8273 741.577 13.8444 741.512 13.8984C741.448 13.9525 741.406 14.0403 741.387 14.1615L740.958 16.8615L740.581 16.8017ZM743.298 17.2335L743.688 14.7824L744.052 14.8402L743.991 15.2232L744.023 15.2283C744.095 15.1056 744.193 15.0171 744.319 14.9628C744.444 14.9075 744.587 14.8925 744.746 14.9179C744.908 14.9436 745.037 15.0017 745.132 15.0922C745.229 15.1817 745.298 15.2968 745.338 15.4373L745.363 15.4413C745.446 15.3247 745.556 15.2391 745.694 15.1846C745.831 15.129 745.988 15.1152 746.163 15.1431C746.382 15.1779 746.551 15.275 746.668 15.4344C746.786 15.5927 746.822 15.816 746.776 16.1043L746.515 17.7447L746.139 17.6849L746.399 16.0445C746.428 15.8636 746.399 15.7265 746.313 15.6331C746.226 15.5397 746.116 15.4824 745.982 15.4611C745.809 15.4337 745.668 15.4646 745.556 15.5538C745.445 15.642 745.377 15.7653 745.352 15.9238L745.098 17.5195L744.715 17.4587L744.982 15.78C745.004 15.6406 744.977 15.5212 744.9 15.4217C744.823 15.3212 744.714 15.2596 744.571 15.2369C744.473 15.2214 744.378 15.2329 744.284 15.2715C744.192 15.3103 744.112 15.3718 744.045 15.456C743.98 15.5394 743.937 15.6412 743.918 15.7614L743.675 17.2933L743.298 17.2335ZM749.242 16.228L748.889 16.2699C748.877 16.2102 748.854 16.1504 748.821 16.0906C748.789 16.0299 748.741 15.9765 748.676 15.9302C748.612 15.8839 748.524 15.8521 748.415 15.8347C748.265 15.8108 748.134 15.8256 748.023 15.8788C747.914 15.9312 747.85 16.01 747.834 16.1153C747.819 16.2089 747.841 16.2883 747.901 16.3534C747.96 16.4184 748.059 16.4806 748.198 16.5397L748.548 16.6869C748.758 16.7749 748.909 16.8823 748.999 17.0089C749.089 17.1345 749.121 17.2829 749.093 17.4542C749.071 17.5946 749.011 17.7137 748.912 17.8115C748.815 17.9095 748.689 17.979 748.535 18.02C748.382 18.061 748.21 18.0663 748.019 18.0361C747.769 17.9964 747.571 17.9092 747.424 17.7747C747.278 17.6401 747.199 17.4651 747.189 17.2497L747.56 17.2171C747.573 17.3545 747.622 17.4636 747.706 17.5446C747.792 17.6258 747.911 17.6786 748.066 17.7032C748.241 17.7311 748.386 17.716 748.501 17.6579C748.618 17.5989 748.684 17.5168 748.701 17.4115C748.714 17.3264 748.696 17.2504 748.646 17.1834C748.595 17.1155 748.511 17.0573 748.392 17.009L747.999 16.8483C747.783 16.7594 747.631 16.6508 747.543 16.5224C747.457 16.393 747.427 16.2438 747.454 16.0746C747.476 15.9363 747.534 15.8202 747.629 15.7261C747.724 15.6322 747.845 15.5657 747.989 15.5266C748.135 15.4876 748.294 15.4818 748.467 15.5091C748.709 15.5477 748.891 15.6311 749.013 15.7595C749.135 15.888 749.212 16.0442 749.242 16.228ZM750.539 18.4366C750.309 18.4001 750.12 18.3144 749.972 18.1795C749.823 18.0446 749.719 17.8748 749.66 17.6702C749.601 17.4656 749.591 17.2409 749.629 16.9962C749.669 16.7473 749.75 16.5349 749.871 16.359C749.994 16.1822 750.147 16.0532 750.329 15.972C750.512 15.8898 750.714 15.8664 750.936 15.9015C751.108 15.9289 751.258 15.9855 751.386 16.0713C751.515 16.1571 751.614 16.2645 751.684 16.3934C751.754 16.5223 751.787 16.6651 751.784 16.8217L751.408 16.7618C751.397 16.6456 751.348 16.5365 751.263 16.4346C751.179 16.3318 751.054 16.2672 750.888 16.2408C750.741 16.2175 750.607 16.2353 750.484 16.2944C750.362 16.3525 750.26 16.4458 750.176 16.5743C750.093 16.7019 750.038 16.8582 750.008 17.0433C749.978 17.2327 749.982 17.4023 750.019 17.5522C750.057 17.7023 750.125 17.8248 750.222 17.9199C750.32 18.0152 750.444 18.0746 750.593 18.0983C750.691 18.1138 750.782 18.1109 750.868 18.0896C750.953 18.0682 751.028 18.03 751.094 17.975C751.159 17.9199 751.211 17.8496 751.248 17.7639L751.625 17.8238C751.581 17.9651 751.507 18.087 751.405 18.1896C751.303 18.2914 751.179 18.3653 751.031 18.4116C750.884 18.457 750.72 18.4653 750.539 18.4366ZM753.049 18.8355C752.82 18.799 752.63 18.7133 752.482 18.5784C752.333 18.4435 752.229 18.2737 752.17 18.0691C752.111 17.8645 752.101 17.6398 752.14 17.3952C752.179 17.1462 752.26 16.9338 752.382 16.7579C752.505 16.5811 752.657 16.4521 752.839 16.3709C753.022 16.2888 753.224 16.2653 753.446 16.3004C753.618 16.3278 753.768 16.3844 753.896 16.4702C754.025 16.556 754.124 16.6634 754.194 16.7923C754.264 16.9213 754.297 17.064 754.294 17.2206L753.918 17.1607C753.907 17.0445 753.859 16.9354 753.773 16.8335C753.689 16.7307 753.564 16.6661 753.398 16.6397C753.252 16.6164 753.117 16.6343 752.994 16.6933C752.872 16.7514 752.77 16.8447 752.686 16.9732C752.604 17.1008 752.548 17.2571 752.518 17.4422C752.488 17.6316 752.492 17.8012 752.529 17.9511C752.567 18.1012 752.635 18.2237 752.732 18.3188C752.831 18.4141 752.954 18.4735 753.103 18.4972C753.201 18.5127 753.293 18.5098 753.378 18.4885C753.463 18.4671 753.538 18.4289 753.604 18.3739C753.669 18.3188 753.721 18.2485 753.758 18.1629L754.135 18.2227C754.091 18.364 754.017 18.486 753.915 18.5886C753.814 18.6903 753.689 18.7643 753.541 18.8105C753.394 18.8559 753.23 18.8642 753.049 18.8355Z" fill="black"/>
<g style="mix-blend-mode:multiply" opacity="0.5">
<path d="M844.11 83.32C841.012 83.6066 837.934 84.0741 834.89 84.72C831.27 85.35 827.59 84.8 824.01 84.24C817.08 83.15 810.61 81.24 803.51 81.47C797.21 81.71 791.59 83.65 785.82 86.01C782.907 87.2409 780.062 88.6296 777.3 90.17C774.13 91.89 770.88 94.17 767.3 94.94C767.02 95 766.63 95.6 767.12 95.56C769.526 95.2398 771.854 94.4841 773.99 93.33C776.99 91.96 779.99 90.58 782.99 89.33C789.45 86.69 795.99 84.46 802.99 84.24C809.99 84.02 817.22 85.24 824.16 86.06C827.278 86.4333 830.427 86.4567 833.55 86.13C837.05 85.78 840.44 84.58 843.91 84.03C844.24 83.98 844.67 83.29 844.11 83.32Z" fill="#83858F"/>
</g>
<path d="M832.5 137.94C831.08 137.36 828.63 137.84 827.23 138.25C826.959 138.339 826.703 138.467 826.47 138.63C825.23 139.1 823.76 140.17 824.02 141.63C824.49 144.41 830.02 142.45 831.43 141.63C832.44 141.04 834.44 138.71 832.5 137.94Z" fill="#9294A0"/>
<path d="M837.92 142.24H837.69C837.633 142.156 837.552 142.091 837.457 142.054C837.363 142.017 837.259 142.008 837.16 142.03C837.054 142.04 836.95 142.064 836.85 142.1H836.71C836.394 142.121 836.09 142.225 835.827 142.4C835.564 142.575 835.351 142.817 835.21 143.1C835.04 143.39 835.09 143.71 835.44 143.8H835.66C835.761 143.894 835.888 143.954 836.024 143.972C836.16 143.99 836.299 143.965 836.42 143.9C836.574 143.829 836.719 143.738 836.85 143.63C837.025 143.551 837.19 143.45 837.34 143.33C837.499 143.201 837.619 143.032 837.69 142.84C837.9 142.75 838.26 142.31 837.92 142.24Z" fill="#9294A0"/>
<path d="M845.24 128.83C844.004 128.919 842.8 129.26 841.7 129.83C841.031 129.941 840.411 130.251 839.92 130.72C839.231 131.242 838.776 132.016 838.656 132.873C838.536 133.729 838.761 134.598 839.28 135.29C840.37 137.04 843.47 137.16 845.28 137.07C848.28 136.92 852.59 135.39 852.87 131.85C853.15 128.31 847.33 128.73 845.24 128.83Z" fill="#9294A0"/>
<path d="M803.1 142.91C803.013 142.73 802.864 142.588 802.68 142.51C802.68 142.38 802.68 142.23 802.48 142.32L802.3 142.38C801.746 142.297 801.183 142.297 800.63 142.38C800.276 142.433 799.937 142.56 799.635 142.753C799.334 142.946 799.076 143.2 798.88 143.5C798.787 143.614 798.726 143.75 798.702 143.895C798.678 144.04 798.691 144.189 798.742 144.327C798.792 144.465 798.877 144.587 798.989 144.682C799.101 144.778 799.236 144.842 799.38 144.87C799.605 144.908 799.836 144.873 800.04 144.77C800.312 144.802 800.587 144.779 800.85 144.7L801.85 144.45C802.44 144.31 803.44 143.62 803.1 142.91Z" fill="#9294A0"/>
<g style="mix-blend-mode:multiply" opacity="0.5">
<path d="M835.44 124.58C832.29 121.257 829.338 117.751 826.6 114.08C825.23 112.21 823.79 110.41 822.6 108.44C822.178 107.562 821.64 106.745 821 106.01C820.806 105.72 820.55 105.478 820.25 105.3C818.49 104.18 816.01 103.97 813.98 103.8C810.98 103.55 807.98 103.41 804.91 103.38C793.67 103.27 782.91 106.6 772.06 108.91C764.06 110.62 756.56 114.43 749.3 118.4L749.11 118.48C743.84 120.82 738.11 123.48 734.03 127.65C733.715 127.894 733.46 128.208 733.287 128.567C733.113 128.927 733.025 129.321 733.03 129.72C732.65 130.751 732.339 131.807 732.1 132.88C731.51 135.08 730.88 137.21 730.1 139.38C728.76 143.19 727.82 147.38 725.78 150.92C725.58 151.27 726.05 151.24 726.22 151.06C728.79 148.28 730.32 144.27 731.62 140.77C732.849 137.654 733.676 134.395 734.08 131.07C734.832 131.462 735.655 131.7 736.5 131.77C737.94 131.897 739.387 131.924 740.83 131.85C740.674 132.198 740.563 132.564 740.5 132.94C740.088 134.482 739.567 135.992 738.94 137.46C738.42 139.08 737.94 140.74 737.51 142.38C737.08 144.02 736.99 145.68 736.07 147.02C735.93 147.24 736.25 147.25 736.37 147.12C737.92 145.18 738.49 142.12 739.3 139.79C739.88 138.18 740.45 136.59 741.13 135.01C741.56 134.01 741.65 132.74 742.13 131.77L744.23 131.58C744.02 132.39 744.12 133.31 743.97 134.14C743.91 134.49 743.84 136.74 743.59 136.84C743.34 136.94 743.22 137.28 743.5 137.22C744.24 137.07 744.39 135.84 744.5 135.22C744.78 133.97 745.06 132.71 745.22 131.43H745.51C751.87 130.76 758.19 129.43 764.51 128.43C768.74 127.8 772.94 127.04 777.12 126.11C777.311 127.974 777.618 129.824 778.04 131.65C778.41 134.17 778.34 136.84 779.17 139.27C779.26 139.54 779.72 139.21 779.67 138.99C779.15 136.45 779.44 133.68 779.3 131.1C779.202 129.304 778.965 127.519 778.59 125.76L779.69 125.5C779.793 125.961 779.864 126.429 779.9 126.9C779.962 127.918 780.147 128.926 780.45 129.9C780.54 130.21 781.02 129.82 781 129.6C780.91 128.428 780.91 127.252 781 126.08C781 125.82 781 125.5 781 125.19C782.35 124.86 783.7 124.51 785.05 124.13C791.421 122.426 797.702 120.404 803.87 118.07C804.17 119.74 805.78 121.24 806.66 122.57C807.81 124.31 808.84 126.49 810.53 127.76C810.77 127.95 811.37 127.41 811.14 127.18C809.67 125.75 808.9 123.35 807.91 121.55C807.34 120.55 806.59 119.66 806.08 118.61C805.86 118.16 805.73 117.75 805.52 117.41C809.021 115.98 812.42 114.31 815.69 112.41L816.01 112.22C816.72 113.11 817.51 113.99 818.26 114.82C819.49 116.18 820.55 117.69 821.81 119.03C822.05 119.28 822.64 118.8 822.42 118.54C821.13 116.99 820.05 115.27 818.79 113.7C818.28 113.07 817.79 112.13 817.16 111.47C818.386 110.669 819.491 109.695 820.44 108.58C820.702 109.19 821 109.784 821.33 110.36C822.552 112.313 823.888 114.193 825.33 115.99C828.092 119.432 831.332 122.463 834.95 124.99C835.17 125.15 835.61 124.77 835.44 124.58ZM818.25 108.36C817.537 109.078 816.725 109.691 815.84 110.18C814.169 111.269 812.429 112.248 810.63 113.11C810.609 112.917 810.542 112.731 810.434 112.569C810.326 112.407 810.18 112.274 810.01 112.18C807.28 111 803.61 111.18 800.68 111.18C796.84 111.18 792.93 112.07 789.14 112.67C785.35 113.27 781.34 114.14 777.48 115.09C770.01 116.91 762.48 118.9 755.62 122.43C753.09 123.73 750.07 125.32 748.62 127.85C748.386 128.22 748.232 128.636 748.17 129.07C746.17 129.4 744.07 129.68 741.99 129.85C740.173 130.065 738.337 130.065 736.52 129.85C736.01 129.77 735.12 129.62 734.92 129.05C734.6 128.11 738.22 125.92 738.82 125.5C741.654 123.514 744.667 121.797 747.82 120.37L753.02 118.15C755.57 117.15 758.12 116.21 760.65 115.31C768.269 112.577 776.055 110.332 783.96 108.59C790.414 107.064 796.989 106.104 803.61 105.72C806.36 105.72 809.12 105.89 811.86 106.09C813.373 106.179 814.878 106.383 816.36 106.7C816.74 106.79 819.12 107.22 818.25 108.36Z" fill="#292D3C"/>
</g>
<g style="mix-blend-mode:multiply" opacity="0.8">
<path d="M578.23 56.84C577.945 56.7396 577.655 56.6561 577.36 56.59C575.229 56.1299 573.017 56.2194 570.93 56.85C569.4 57.27 567.18 58.31 568.07 60.2C568.82 61.81 572.41 61.2 573.7 61.03C575.56 60.79 577.86 61.21 579.36 59.74C580.86 58.27 579.62 57.34 578.23 56.84Z" fill="#878893"/>
</g>
<g style="mix-blend-mode:multiply" opacity="0.8">
<path d="M587.18 58.76C586.441 58.4949 585.652 58.3994 584.871 58.4808C584.091 58.5622 583.338 58.8182 582.67 59.23C582.16 59.44 581.61 59.81 581.67 60.28C581.86 61.05 583.16 61 583.76 61.05C584.727 61.1165 585.698 61.0931 586.66 60.98C586.985 60.9601 587.3 60.8579 587.574 60.683C587.849 60.508 588.075 60.2661 588.23 59.98C588.58 59.29 587.7 58.94 587.18 58.76Z" fill="#878893"/>
</g>
<path d="M642.23 75.42C640.92 74.65 638.42 74.67 636.98 74.82C636.698 74.8629 636.423 74.9402 636.16 75.05C634.86 75.28 633.25 76.05 633.26 77.49C633.26 80.17 639.04 79.26 640.57 78.74C641.66 78.36 644.01 76.48 642.23 75.42Z" fill="#9294A0"/>
<path d="M646.86 80.37L646.65 80.29C646.604 80.2 646.534 80.125 646.447 80.0736C646.36 80.0222 646.261 79.9967 646.16 80C646.057 79.9903 645.953 79.9903 645.85 80C645.807 79.9911 645.763 79.9911 645.72 80C645.411 79.9588 645.097 79.9979 644.808 80.1136C644.519 80.2292 644.265 80.4174 644.07 80.66C644.014 80.7048 643.971 80.7637 643.946 80.8306C643.921 80.8975 643.914 80.97 643.926 81.0404C643.939 81.1109 643.97 81.1767 644.016 81.2312C644.062 81.2856 644.122 81.3267 644.19 81.35L644.4 81.41C644.489 81.5113 644.604 81.5857 644.734 81.6246C644.863 81.6634 645 81.6653 645.13 81.63C645.295 81.5838 645.455 81.5236 645.61 81.45C645.787 81.3931 645.961 81.3263 646.13 81.25C646.305 81.155 646.453 81.0174 646.56 80.85C646.77 80.84 647.2 80.49 646.86 80.37Z" fill="#9294A0"/>
<path d="M656.24 69.04C655.005 68.9184 653.758 69.0407 652.57 69.4C651.902 69.4007 651.248 69.5877 650.68 69.94C650.308 70.1146 649.976 70.3637 649.704 70.6719C649.432 70.9802 649.227 71.341 649.1 71.732C648.973 72.123 648.928 72.5358 648.968 72.9449C649.008 73.354 649.131 73.7505 649.33 74.11C650.11 75.93 653.14 76.57 654.93 76.78C657.93 77.15 662.41 76.44 663.25 73.18C664.09 69.92 658.31 69.31 656.24 69.04Z" fill="#9294A0"/>
<path d="M612.44 75.11C612.384 74.924 612.259 74.7665 612.09 74.67C612.15 74.54 612.09 74.41 611.93 74.45H611.72C611.19 74.2821 610.636 74.1977 610.08 74.2C609.728 74.187 609.377 74.2459 609.049 74.3732C608.72 74.5004 608.421 74.6933 608.17 74.94C608.062 75.0341 607.981 75.155 607.935 75.2905C607.889 75.426 607.88 75.5712 607.909 75.7114C607.937 75.8516 608.002 75.9818 608.097 76.0887C608.192 76.1956 608.314 76.2754 608.45 76.32C608.664 76.3947 608.896 76.3947 609.11 76.32C609.374 76.3923 609.648 76.416 609.92 76.39C610.28 76.39 610.6 76.39 610.92 76.31C611.56 76.31 612.61 75.83 612.44 75.11Z" fill="#9294A0"/>
<g style="mix-blend-mode:multiply" opacity="0.5">
<path d="M540.13 65.89C539.061 63.8972 538.109 61.8437 537.28 59.74C536.87 58.66 536.43 57.62 536.09 56.52C536.002 56.0484 535.851 55.5909 535.64 55.16C535.59 54.9946 535.501 54.8437 535.38 54.72C534.579 54.0062 533.624 53.4861 532.59 53.2C531.18 52.68 529.76 52.2 528.32 51.81C522.98 50.29 517.44 50.48 511.95 50.16C507.869 50.0974 503.801 50.6228 499.87 51.72H499.77C496.96 52.15 493.88 52.72 491.39 54.12C490.9 54.41 490.68 54.71 490.64 54.98C490.327 55.4244 490.043 55.8887 489.79 56.37C489.22 57.37 488.64 58.27 488 59.2C486.971 60.958 485.779 62.6153 484.44 64.15C484.29 64.3 484.53 64.34 484.63 64.28C486.191 63.1282 487.518 61.6892 488.54 60.04C489.537 58.7225 490.357 57.2803 490.98 55.75C491.29 56.0302 491.65 56.2505 492.04 56.4C492.693 56.6432 493.361 56.8436 494.04 57C493.92 57.1407 493.822 57.2993 493.75 57.47C493.359 58.1593 492.922 58.8208 492.44 59.45C491.99 60.16 491.56 60.89 491.12 61.61C490.792 62.3373 490.357 63.0114 489.83 63.61C489.73 63.69 489.89 63.74 489.95 63.7C490.89 62.785 491.685 61.7331 492.31 60.58C492.79 59.88 493.31 59.21 493.8 58.58C494.14 58.17 494.35 57.58 494.7 57.17L495.7 57.35C495.49 57.71 495.43 58.16 495.24 58.53C495.17 58.69 494.84 59.76 494.71 59.77C494.58 59.78 494.48 59.93 494.63 59.95C494.99 59.95 495.23 59.4 495.36 59.14C495.67 58.5852 495.95 58.0144 496.2 57.43H496.34C499.45 57.95 502.65 58.12 505.78 58.5C507.88 58.75 509.99 58.93 512.09 59.03C511.935 59.9425 511.845 60.8648 511.82 61.79C511.544 63.0323 511.387 64.298 511.35 65.57C511.35 65.71 511.63 65.57 511.63 65.5C511.83 64.2128 512.114 62.9401 512.48 61.69C512.675 60.8253 512.796 59.9454 512.84 59.06H513.4C513.386 59.2918 513.356 59.5224 513.31 59.75C513.215 60.244 513.174 60.7471 513.19 61.25C513.19 61.41 513.47 61.25 513.49 61.17C513.592 60.5992 513.739 60.0374 513.93 59.49C513.984 59.3534 514.027 59.213 514.06 59.07C514.75 59.07 515.44 59.07 516.14 59.07C519.36 59.07 522.65 58.98 525.89 58.63C525.969 59.504 526.221 60.3538 526.63 61.13C526.849 62.1885 527.245 63.2026 527.8 64.13C527.88 64.26 528.25 64.13 528.16 63.94C527.756 62.947 527.487 61.9044 527.36 60.84C527.22 60.27 526.98 59.76 526.87 59.2C526.82 58.95 526.81 58.75 526.76 58.55C528.61 58.3382 530.444 58.0041 532.25 57.55L532.43 57.49C532.66 58.01 532.91 58.49 533.16 59.02C533.57 59.83 533.88 60.69 534.31 61.49C534.39 61.63 534.73 61.49 534.67 61.33C534.24 60.43 533.96 59.48 533.57 58.55C533.41 58.19 533.29 57.68 533.08 57.28C533.771 57.0417 534.425 56.7049 535.02 56.28C535.061 56.6172 535.124 56.9513 535.21 57.28C535.555 58.3803 535.966 59.4589 536.44 60.51C537.311 62.5067 538.463 64.3689 539.86 66.04C539.93 66.13 540.18 66.04 540.13 65.89ZM534.05 55.89C533.614 56.1363 533.146 56.3214 532.66 56.44C531.723 56.7421 530.768 56.9826 529.8 57.16C529.816 57.066 529.809 56.9697 529.779 56.8791C529.749 56.7885 529.698 56.7065 529.63 56.64C528.307 55.8327 526.84 55.2893 525.31 55.04C523.435 54.6363 521.534 54.3722 519.62 54.25C517.67 54.03 515.71 53.93 513.75 53.88C509.944 53.6506 506.125 53.8688 502.37 54.53C500.892 54.7088 499.49 55.2822 498.31 56.19C498.153 56.3405 498.027 56.5207 497.94 56.72C496.94 56.6 495.94 56.47 494.94 56.29C494.048 56.1412 493.176 55.893 492.34 55.55C492.1 55.44 491.7 55.26 491.68 54.96C491.68 54.46 493.68 53.89 494 53.77C495.623 53.1912 497.297 52.766 499 52.5L501.76 52.12C503.1 51.97 504.44 51.87 505.76 51.76C509.752 51.4509 513.761 51.3975 517.76 51.6C521.014 51.703 524.253 52.0878 527.44 52.75C528.76 53.11 530.04 53.55 531.32 54C532.032 54.2391 532.724 54.5333 533.39 54.88C533.54 54.98 534.61 55.49 534.05 55.93V55.89Z" fill="#292D3C"/>
</g>
<g style="mix-blend-mode:multiply" opacity="0.5">
<path d="M695.02 134.97C688.34 136.1 681.96 137.34 675.14 136.97C668.32 136.6 661.63 135.21 654.83 135.6C648.03 135.99 641.25 138.22 634.83 140.77C631.443 142 627.97 142.979 624.44 143.7C622.86 144.06 621.32 144.56 619.73 144.93C618.86 145.14 616.22 146.04 615.51 145.73C615.35 145.67 615.06 145.95 615.24 146.06C616.61 146.85 618.94 145.8 620.36 145.59C623.54 145.14 626.74 144.47 629.9 143.87C637 142.5 643.64 139.56 650.84 138.43C654.68 137.83 658.58 138.31 662.43 138.43C666.28 138.55 670.32 138.64 674.29 138.55C681.265 138.266 688.186 137.192 694.92 135.35C695.08 135.32 695.32 134.92 695.02 134.97Z" fill="#83858F"/>
</g>
<g style="mix-blend-mode:multiply" opacity="0.5">
<path d="M741.96 111.47C735.66 111.47 729.51 111.28 723.46 113.33C720.36 114.33 717.29 115.56 714.19 116.64C711.92 117.43 707.09 119.18 704.91 117.86C704.84 117.86 704.67 117.97 704.74 118.03C706.12 119.27 707.98 119.09 709.74 118.87C712.455 118.569 715.135 118.003 717.74 117.18C721.56 115.93 725.29 114.18 729.22 113.33C733.38 112.33 737.55 112.45 741.77 112.01C741.94 112.04 742.3 111.46 741.96 111.47Z" fill="#83858F"/>
</g>
<g style="mix-blend-mode:multiply" opacity="0.5">
<path d="M391.29 121.9C393.022 119.73 394.433 117.322 395.48 114.75C396.043 113.408 396.521 112.032 396.91 110.63C397.01 110.222 397.084 109.808 397.13 109.39C397.899 109.903 398.742 110.294 399.63 110.55C399.404 111.086 399.208 111.633 399.04 112.19C398.57 113.36 398.23 114.59 397.72 115.76C397.64 115.95 398.08 116.13 398.18 115.94C398.7 114.94 399.07 113.81 399.57 112.76C399.87 112.13 400.19 111.46 400.46 110.76L400.68 110.82C402.985 111.371 405.323 111.768 407.68 112.01C407.62 112.25 407.62 112.52 407.57 112.82C407.44 113.55 407.15 114.2 406.99 114.93C406.71 116.18 406.67 117.78 406.05 118.93C405.94 119.12 406.41 119.33 406.52 119.17C407.195 117.979 407.668 116.685 407.92 115.34C408.22 114.34 408.92 113.19 408.79 112.13C412.94 112.48 417.13 112.47 421.24 112.41C422.12 112.41 423 112.41 423.88 112.33C423.88 112.51 424.01 112.7 424.06 112.85C424.318 113.542 424.519 114.255 424.66 114.98C424.66 115.13 425.05 115.27 425.05 115.07C425.054 114.431 424.987 113.794 424.85 113.17C424.775 112.882 424.735 112.587 424.73 112.29C424.96 112.29 425.19 112.29 425.42 112.24C425.514 113.369 425.694 114.489 425.96 115.59C426.473 117.166 426.87 118.777 427.15 120.41C427.15 120.56 427.5 120.67 427.5 120.5C427.428 118.882 427.2 117.274 426.82 115.7C426.749 114.522 426.602 113.349 426.38 112.19C429.07 112 431.73 111.71 434.38 111.33C438.38 110.75 442.38 110.45 446.38 109.71C446.443 109.705 446.507 109.705 446.57 109.71C446.902 110.449 447.273 111.17 447.68 111.87C447.86 112.18 448.18 112.87 448.68 112.87C448.86 112.87 448.68 112.66 448.56 112.66C448.44 112.66 447.96 111.29 447.85 111.1C447.61 110.62 447.5 110.1 447.23 109.6L448.53 109.34C448.99 109.84 449.28 110.6 449.71 111.12C450.4 111.94 451.03 112.79 451.71 113.67C452.62 114.92 453.52 116.67 454.8 117.56C454.89 117.62 455.09 117.56 454.96 117.45C454.263 116.698 453.69 115.841 453.26 114.91C452.68 114 452.12 113.09 451.51 112.19C450.867 111.422 450.282 110.606 449.76 109.75C449.661 109.535 449.529 109.336 449.37 109.16C450.258 108.951 451.128 108.67 451.97 108.32C452.465 108.133 452.915 107.843 453.29 107.47C454.142 109.398 455.226 111.215 456.52 112.88C457.94 114.75 459.58 116.88 461.62 118.12C461.76 118.2 462.05 118.12 461.86 117.96C460 116.21 458.68 113.83 457.19 111.76C456.35 110.6 455.59 109.42 454.83 108.2C454.494 107.6 454.12 107.022 453.71 106.47C453.65 106.11 453.36 105.74 452.71 105.4C449.49 103.63 445.56 103.03 441.96 102.57H441.84C436.75 101.48 431.56 100.57 426.41 100.94C419.41 101.49 412.41 101.41 405.59 103.49C403.78 104.05 401.97 104.68 400.19 105.38C398.885 105.768 397.687 106.453 396.69 107.38C396.533 107.539 396.419 107.735 396.36 107.95C396.108 108.508 395.929 109.096 395.83 109.7C395.43 111.11 394.89 112.45 394.4 113.83C393.405 116.538 392.253 119.186 390.95 121.76C390.88 121.86 391.2 122.04 391.29 121.9ZM399.29 107.49C400.122 107.03 400.992 106.642 401.89 106.33C403.51 105.71 405.14 105.12 406.8 104.62C410.867 103.664 415.009 103.062 419.18 102.82C424.259 102.457 429.356 102.413 434.44 102.69C436.12 102.78 437.84 102.89 439.56 103.04C440.73 103.17 441.91 103.3 443.09 103.45C445.245 103.738 447.368 104.231 449.43 104.92C449.88 105.06 452.43 105.74 452.43 106.37C452.43 106.75 451.91 106.99 451.62 107.13C450.564 107.595 449.456 107.931 448.32 108.13C447.04 108.4 445.75 108.6 444.46 108.76C444.335 108.517 444.169 108.297 443.97 108.11C442.61 106.86 440.5 106.43 438.75 106.11C433.95 105.375 429.08 105.204 424.24 105.6C421.74 105.72 419.24 105.91 416.77 106.24C414.335 106.458 411.919 106.849 409.54 107.41C407.78 107.93 405.54 108.46 404.09 109.66C404.003 109.748 403.938 109.856 403.902 109.974C403.865 110.093 403.858 110.218 403.88 110.34C402.638 110.148 401.412 109.867 400.21 109.5C399.588 109.366 398.989 109.143 398.43 108.84C397.67 108.32 399.03 107.63 399.27 107.49H399.29Z" fill="#292D3C"/>
</g>
<g style="mix-blend-mode:multiply" opacity="0.5">
<path d="M181.44 94.38C182.978 92.8383 184.29 91.0877 185.34 89.18C185.899 88.1845 186.396 87.1559 186.83 86.1C186.945 85.7731 187.039 85.4391 187.11 85.1C187.667 85.561 188.287 85.9414 188.95 86.23C188.728 86.6221 188.528 87.026 188.35 87.44C187.87 88.33 187.5 89.25 187 90.11C186.92 90.26 187.25 90.44 187.34 90.31C187.84 89.54 188.22 88.71 188.71 87.94C189 87.48 189.31 86.94 189.57 86.48L189.75 86.55C191.5 87.1953 193.295 87.7133 195.12 88.1C195.05 88.29 195.03 88.5 194.96 88.74C194.8 89.29 194.51 89.74 194.32 90.32C194.092 91.3641 193.725 92.373 193.23 93.32C193.14 93.45 193.48 93.66 193.58 93.55C194.213 92.6815 194.699 91.7154 195.02 90.69C195.504 89.9542 195.844 89.1329 196.02 88.27C199.22 88.91 202.49 89.27 205.7 89.59C206.39 89.66 207.07 89.7 207.76 89.75C207.76 89.91 207.83 90.06 207.86 90.19C207.999 90.7516 208.092 91.3235 208.14 91.9C208.14 92.01 208.41 92.16 208.43 91.99C208.495 91.4955 208.495 90.9945 208.43 90.5C208.415 90.2669 208.415 90.0331 208.43 89.8H208.99C208.959 90.6851 209 91.5713 209.11 92.45C209.367 93.7265 209.53 95.0198 209.6 96.32C209.6 96.44 209.85 96.56 209.87 96.42C209.952 95.1529 209.918 93.881 209.77 92.62C209.825 91.6975 209.825 90.7725 209.77 89.85C211.88 89.94 213.99 89.94 216.1 89.85C219.26 89.76 222.45 89.85 225.61 89.66H225.74C225.93 90.27 226.17 90.86 226.42 91.45C226.54 91.72 226.71 92.3 227.09 92.3C227.23 92.3 227.09 92.15 227.01 92.13C226.93 92.11 226.65 91.01 226.59 90.85C226.44 90.46 226.42 90.01 226.24 89.62L227.29 89.54C227.59 89.97 227.75 90.54 228.04 91.04C228.51 91.74 228.93 92.46 229.34 93.2C229.851 94.4034 230.546 95.52 231.4 96.51C231.47 96.51 231.63 96.51 231.54 96.43C231.062 95.783 230.691 95.064 230.44 94.3C230.07 93.55 229.71 92.78 229.32 92.03C228.89 91.3704 228.506 90.6821 228.17 89.97C228.107 89.7939 228.023 89.626 227.92 89.47C228.629 89.3845 229.331 89.2474 230.02 89.06C230.424 88.9512 230.802 88.7606 231.13 88.5C231.606 90.0809 232.278 91.5961 233.13 93.01C234.007 94.7317 235.201 96.2722 236.65 97.55C236.75 97.63 236.98 97.6 236.85 97.45C235.654 95.8011 234.616 94.0433 233.75 92.2C233.2 91.2 232.75 90.2 232.23 89.2C232.024 88.7004 231.784 88.2158 231.51 87.75C231.478 87.5563 231.402 87.3726 231.287 87.213C231.173 87.0535 231.023 86.9225 230.85 86.83C228.49 85.16 225.48 84.35 222.72 83.66H222.62C218.805 82.2086 214.8 81.316 210.73 81.01C205.24 80.82 199.73 80.12 194.28 81.15C192.81 81.43 191.35 81.75 189.9 82.15C188.846 82.3552 187.849 82.7887 186.98 83.42C186.854 83.5354 186.752 83.6748 186.68 83.83C186.437 84.2449 186.245 84.6883 186.11 85.15C185.68 86.22 185.11 87.22 184.63 88.25C183.612 90.269 182.48 92.2288 181.24 94.12C181.1 94.31 181.34 94.46 181.44 94.38ZM188.94 83.85C189.635 83.5712 190.35 83.3472 191.08 83.18C192.4 82.84 193.72 82.51 195.08 82.28C198.335 81.8957 201.618 81.7954 204.89 81.98C208.883 82.1448 212.861 82.5656 216.8 83.24C218.1 83.46 219.43 83.7 220.8 83.97L223.52 84.6C225.177 85.0213 226.791 85.5972 228.34 86.32C228.67 86.47 230.62 87.23 230.55 87.71C230.49 88 230.08 88.15 229.83 88.24C228.967 88.5016 228.079 88.6692 227.18 88.74C226.18 88.83 225.13 88.87 224.11 88.88C224.033 88.6786 223.922 88.4923 223.78 88.33C222.687 87.3255 221.343 86.6345 219.89 86.33C216.217 85.3225 212.437 84.7552 208.63 84.64C206.63 84.51 204.72 84.44 202.75 84.47C200.833 84.4197 198.914 84.5099 197.01 84.74C195.42 84.8506 193.868 85.2719 192.44 85.98C192.367 86.0425 192.309 86.121 192.271 86.2094C192.233 86.2978 192.215 86.3938 192.22 86.49C191.268 86.2228 190.335 85.8886 189.43 85.49C188.958 85.3321 188.513 85.1028 188.11 84.81C187.61 84.35 188.73 83.94 188.92 83.85H188.94Z" fill="#292D3C"/>
</g>
<g style="mix-blend-mode:multiply" opacity="0.5">
<path d="M106.44 102.04C98.15 98.83 88.87 98.83 80.44 96.13C76.23 94.78 72.72 92.24 69.06 89.83C65.3997 87.4632 61.5807 85.3515 57.63 83.51C53.4857 81.6671 49.2148 80.1231 44.85 78.89C40.4938 77.4669 35.9984 76.5115 31.44 76.04C26.76 75.63 22.06 76.6 17.44 77.36C14.98 77.76 12.5 78.1 10.02 78.46C7.53999 78.82 4.85999 79.81 2.43999 79.82C2.24999 79.82 1.87999 80.22 2.19999 80.28C3.61635 80.4527 5.05216 80.3715 6.43999 80.04C8.79999 79.66 11.32 79.7 13.71 79.52C18.86 79.12 23.93 78.03 29.11 78.15C34.1726 78.4156 39.1549 79.5277 43.85 81.44C47.98 83.04 52.18 84.7 56.14 86.66C60.1 88.62 63.68 91.06 67.62 92.96C71.689 94.8684 75.9062 96.4436 80.23 97.67C88.52 100.13 97.4 101.11 105.87 102.8C106.19 102.87 106.83 102.17 106.44 102.04Z" fill="#83858F"/>
</g>
<g style="mix-blend-mode:multiply" opacity="0.8">
<path d="M29.09 149.11C30.87 150.86 33.61 150.37 35.83 150.64C37.36 150.84 41.63 151.57 42.53 149.64C43.53 147.39 40.95 146.15 39.12 145.64C36.6378 144.888 34.0049 144.781 31.47 145.33C31.1138 145.407 30.763 145.507 30.42 145.63C28.76 146.25 27.34 147.39 29.09 149.11Z" fill="#878893"/>
</g>
<g style="mix-blend-mode:multiply" opacity="0.8">
<path d="M18.44 149.42C18.6263 149.757 18.8961 150.041 19.2235 150.244C19.551 150.447 19.9251 150.563 20.31 150.58C21.4575 150.725 22.6165 150.755 23.77 150.67C24.47 150.67 26.02 150.67 26.25 149.75C26.39 149.2 25.72 148.75 25.12 148.5C24.3214 148.012 23.424 147.709 22.4933 147.612C21.5626 147.515 20.6219 147.627 19.74 147.94C19.15 148.15 18.1 148.58 18.44 149.42Z" fill="#878893"/>
</g>
<g style="mix-blend-mode:multiply" opacity="0.8">
<path d="M11.28 87.12C12.88 88.7 15.35 88.25 17.35 88.5C18.74 88.67 22.59 89.34 23.4 87.62C24.35 85.62 21.97 84.46 20.33 84.02C18.0947 83.3412 15.723 83.2448 13.44 83.74C13.0997 83.815 12.7654 83.9152 12.44 84.04C10.98 84.55 9.70002 85.57 11.28 87.12Z" fill="#878893"/>
</g>
<g style="mix-blend-mode:multiply" opacity="0.8">
<path d="M1.70001 87.4C1.87105 87.6965 2.11534 87.9442 2.40949 88.1193C2.70364 88.2944 3.03781 88.391 3.38001 88.4C4.41473 88.5299 5.45953 88.56 6.50001 88.49C7.14001 88.49 8.50001 88.49 8.73001 87.66C8.86001 87.16 8.26001 86.75 7.73001 86.53C7.00766 86.0913 6.19636 85.8196 5.35548 85.7348C4.5146 85.65 3.6654 85.7543 2.87001 86.04C2.32001 86.26 1.37001 86.64 1.70001 87.4Z" fill="#878893"/>
</g>
<g style="mix-blend-mode:multiply" opacity="0.5">
<path d="M14.27 131.93C16.7075 129.501 18.7852 126.737 20.44 123.72C21.3174 122.14 22.102 120.511 22.79 118.84C22.965 118.349 23.1119 117.848 23.23 117.34C24.1077 118.08 25.0921 118.684 26.15 119.13C25.7785 119.753 25.4446 120.397 25.15 121.06C24.39 122.44 23.8 123.91 23.02 125.27C22.89 125.5 23.41 125.79 23.56 125.57C24.35 124.37 24.95 123.06 25.72 121.84C26.18 121.11 26.66 120.32 27.08 119.54L27.36 119.65C30.1328 120.661 32.9731 121.476 35.86 122.09C35.74 122.39 35.7 122.72 35.59 123.09C35.34 123.97 34.89 124.75 34.59 125.61C34.07 127.12 33.81 129.07 32.88 130.37C32.73 130.59 33.27 130.91 33.43 130.74C34.55 129.53 35.05 127.74 35.7 126.21C36.19 125.08 37.22 123.7 37.22 122.38C42.2782 123.336 47.3813 124.037 52.51 124.48C53.6 124.58 54.68 124.67 55.77 124.74C55.77 124.98 55.87 125.22 55.92 125.42C56.1452 126.306 56.2957 127.209 56.37 128.12C56.37 128.31 56.8 128.53 56.83 128.29C56.93 127.5 56.93 126.7 56.83 125.91C56.8047 125.54 56.8047 125.17 56.83 124.8C57.12 124.8 57.41 124.8 57.7 124.86C57.653 126.26 57.7165 127.661 57.89 129.05C58.2979 131.068 58.5586 133.114 58.67 135.17C58.67 135.35 59.06 135.53 59.1 135.31C59.41 133.31 58.99 131.31 58.93 129.31C59.02 127.848 59.02 126.382 58.93 124.92C62.26 125.07 65.59 125.08 68.93 124.99C73.93 124.86 78.93 125.05 83.93 124.69H84.16C84.4678 125.648 84.8249 126.589 85.23 127.51C85.41 127.93 85.69 128.85 86.23 128.87C86.46 128.87 86.23 128.62 86.12 128.59C86.01 128.56 85.55 126.83 85.46 126.59C85.23 125.97 85.18 125.26 84.91 124.65L86.55 124.51C87.04 125.2 87.3 126.17 87.75 126.87C88.49 127.99 89.15 129.13 89.81 130.3C90.74 131.96 91.61 134.25 93.06 135.53C93.16 135.62 93.42 135.53 93.27 135.42C92.38 134.51 92.09 133.15 91.55 132.04C91.01 130.93 90.39 129.63 89.76 128.46C89.0883 127.414 88.487 126.325 87.96 125.2C87.856 124.918 87.7183 124.649 87.55 124.4C88.6721 124.271 89.7822 124.054 90.87 123.75C91.5084 123.579 92.1066 123.283 92.63 122.88C93.3956 125.379 94.4741 127.772 95.84 130C97.32 132.5 99.04 135.39 101.4 137.17C101.55 137.3 101.92 137.26 101.71 137C99.66 134.59 98.37 131.47 96.82 128.72C95.95 127.16 95.17 125.61 94.42 124C94.083 123.211 93.699 122.443 93.27 121.7C93.2251 121.398 93.1116 121.11 92.9382 120.859C92.7649 120.608 92.5363 120.399 92.27 120.25C88.56 117.61 83.8 116.32 79.44 115.25H79.27C73.17 113.18 66.9 111.25 60.5 111.05C51.81 110.75 43.13 109.65 34.5 111.27C32.18 111.71 29.87 112.27 27.59 112.83C25.9196 113.132 24.3418 113.817 22.98 114.83C22.7709 115.012 22.6038 115.237 22.49 115.49C22.098 116.14 21.7952 116.839 21.59 117.57C20.91 119.24 20.05 120.83 19.25 122.46C17.6392 125.648 15.8497 128.743 13.89 131.73C13.75 131.83 14.14 132.04 14.27 131.93ZM26.12 115.31C27.214 114.861 28.3406 114.497 29.49 114.22C31.57 113.7 33.67 113.22 35.78 112.81C40.9202 112.208 46.1031 112.054 51.27 112.35C57.5824 112.621 63.8715 113.289 70.1 114.35C72.16 114.71 74.26 115.07 76.35 115.5L80.65 116.5C83.2654 117.169 85.813 118.08 88.26 119.22C88.78 119.45 91.87 120.66 91.74 121.42C91.66 121.88 91 122.12 90.62 122.25C89.2613 122.672 87.8589 122.937 86.44 123.04C84.82 123.19 83.2 123.25 81.59 123.27C81.4827 122.948 81.309 122.651 81.08 122.4C79.59 120.66 77.08 119.84 74.93 119.18C69.17 117.41 63.12 116.9 57.13 116.52C54.03 116.32 50.94 116.19 47.84 116.26C44.8104 116.175 41.7787 116.315 38.77 116.68C36.51 117.07 33.67 117.41 31.77 118.68C31.6501 118.772 31.5552 118.892 31.494 119.03C31.4328 119.168 31.4074 119.32 31.42 119.47C29.9224 119.05 28.4528 118.535 27.02 117.93C26.2724 117.671 25.5654 117.308 24.92 116.85C24.04 116.09 25.8 115.45 26.12 115.31Z" fill="#292D3C"/>
</g>
<g style="mix-blend-mode:multiply" opacity="0.5">
<path d="M146.68 63.96C144.944 63.6562 143.163 63.7347 141.46 64.19C141.198 64.2536 140.946 64.3511 140.71 64.48C139.48 64.83 138.03 65.64 138.29 66.78C138.75 68.89 144.23 67.41 145.62 66.78C146.62 66.34 148.6 64.54 146.68 63.96Z" fill="#9294A0"/>
<path d="M152.04 67.22H151.82C151.753 67.1536 151.67 67.1044 151.58 67.0765C151.489 67.0487 151.393 67.043 151.3 67.06H150.99H150.85C150.562 67.0615 150.277 67.129 150.019 67.2573C149.761 67.3855 149.535 67.5712 149.36 67.8C149.19 68.02 149.24 68.27 149.59 68.32C149.663 68.3294 149.737 68.3294 149.81 68.32C149.919 68.3932 150.044 68.4387 150.175 68.4526C150.306 68.4666 150.438 68.4485 150.56 68.4C150.711 68.3462 150.855 68.2758 150.99 68.19C151.144 68.1541 151.295 68.1038 151.44 68.04C151.591 67.9539 151.712 67.8252 151.79 67.67C152.03 67.6 152.38 67.27 152.04 67.22Z" fill="#9294A0"/>
<path d="M159.29 57.04C158.089 57.1121 156.908 57.3754 155.79 57.82C155.152 57.8947 154.544 58.1286 154.02 58.5C152.567 59.5267 152.373 60.6867 153.44 61.98C154.52 63.3 157.58 63.39 159.36 63.33C162.36 63.2 166.6 62.04 166.87 59.38C167.14 56.72 161.37 56.98 159.29 57.04Z" fill="#9294A0"/>
<path d="M117.58 67.72C117.48 67.5709 117.332 67.4613 117.16 67.41C117.16 67.31 117.16 67.2 116.97 67.27C116.904 67.2808 116.84 67.3011 116.78 67.33C116.232 67.2582 115.678 67.2582 115.13 67.33C114.468 67.3825 113.851 67.6825 113.4 68.17C113.03 68.61 113.26 69.08 113.9 69.17C114.119 69.2038 114.343 69.1797 114.55 69.1C114.818 69.1243 115.087 69.1075 115.35 69.05L116.35 68.84C116.92 68.77 117.86 68.25 117.58 67.72Z" fill="#9294A0"/>
</g>
<g style="mix-blend-mode:multiply" opacity="0.5">
<path d="M322.54 107.49C317.629 107.368 312.764 106.522 308.1 104.98C303.52 103.29 299.46 101.5 294.57 100.81C289.913 100.276 285.205 100.36 280.57 101.06C275.41 101.72 270.4 103.17 265.2 101.97C265.02 101.97 264.68 102.32 264.9 102.4C268.54 103.71 272.35 103.61 276.15 103.4C281.485 102.889 286.853 102.812 292.2 103.17C297.26 103.66 302.01 105.57 306.91 106.83C311.909 108.033 317.057 108.498 322.19 108.21C322.44 108.18 323.01 107.51 322.54 107.49Z" fill="#83858F"/>
</g>
<g style="mix-blend-mode:multiply" opacity="0.8">
<path d="M224.74 128.74C224.384 128.614 224.02 128.51 223.65 128.43C221.026 127.859 218.299 127.969 215.73 128.75C213.83 129.26 211.11 130.55 212.2 132.89C213.12 134.89 217.55 134.1 219.14 133.89C221.44 133.6 224.28 134.11 226.14 132.3C228 130.49 226.44 129.36 224.74 128.74Z" fill="#878893"/>
</g>
<g style="mix-blend-mode:multiply" opacity="0.8">
<path d="M235.78 131.11C234.868 130.783 233.893 130.665 232.929 130.765C231.965 130.865 231.035 131.182 230.21 131.69C229.58 131.94 228.9 132.4 229.04 132.98C229.28 133.93 230.87 133.87 231.61 133.98C232.804 134.058 234.003 134.021 235.19 133.87C235.587 133.854 235.973 133.737 236.311 133.528C236.649 133.32 236.928 133.028 237.12 132.68C237.5 131.76 236.44 131.32 235.78 131.11Z" fill="#878893"/>
</g>
<g style="mix-blend-mode:screen" opacity="0.4">
<path d="M274.44 54.32C277.25 54.42 280.04 54.53 282.85 54.42C280.061 54.0521 277.237 54.0185 274.44 54.32Z" fill="#9294A0"/>
</g>
<g style="mix-blend-mode:screen" opacity="0.4">
<path d="M310.72 53.35C305.917 53.2598 301.113 53.4903 296.34 54.04L290.34 54.73C293.23 55.23 296.17 55.73 299.02 56.36C302.213 57.2369 305.322 58.3948 308.31 59.82C311.998 61.5644 315.995 62.5635 320.07 62.76C324.07 62.87 328 62.54 331.96 62.3C335.815 62.0767 339.68 62.1134 343.53 62.41C346.525 62.7363 349.549 62.6792 352.53 62.24C343.61 59.75 334.38 58.55 325.44 56.11C320.52 54.75 315.86 53.48 310.72 53.35Z" fill="#9294A0"/>
</g>
<g style="mix-blend-mode:multiply" opacity="0.5">
<path d="M353.74 60.7C348.8 60.52 344.25 60.7 339.44 59.35C335.18 58.18 330.79 57.35 326.44 56.49C317.17 54.49 307.57 51.98 298.02 52.21C293.3 52.32 288.6 53.03 283.88 53.29C278.521 53.5018 273.154 53.3782 267.81 52.92C262.89 52.56 258.04 51.92 253.15 51.31C249.29 50.8 245.15 50.43 242.04 47.82C241.98 47.77 241.84 47.88 241.9 47.94C244.11 50.09 247.03 50.94 249.97 51.61C254.53 52.61 259.12 53.61 263.73 54.33C268.586 55.2488 273.502 55.8203 278.44 56.04C283.57 56.13 288.64 55.49 293.74 55.04C304.31 54.19 314.4 55.43 324.74 57.54C329.64 58.54 334.6 59.42 339.43 60.71C344.03 61.94 348.52 61.71 353.24 61.59C353.65 61.58 354.33 60.71 353.74 60.7Z" fill="#83858F"/>
</g>
<g style="mix-blend-mode:multiply" opacity="0.5">
<path d="M488.24 144.97C485.45 144.69 482.7 145.34 479.91 144.84C477.12 144.34 474.12 143.84 471.21 143.36C468.59 142.91 465.96 143.62 463.47 144.42C462.11 144.86 460.75 145.26 459.41 145.77C458.002 146.479 456.478 146.926 454.91 147.09C454.8 147.09 454.6 147.32 454.78 147.34C456.88 147.65 459.25 146.58 461.27 146.08C464.167 145.202 467.207 144.9 470.22 145.19C473.143 145.766 476.099 146.164 479.07 146.38C482.089 146.3 485.097 145.992 488.07 145.46C488.21 145.44 488.56 145.04 488.24 144.97Z" fill="#83858F"/>
</g>
<g style="mix-blend-mode:multiply" opacity="0.8">
<path d="M285.2 70.39C286.86 72.03 289.42 71.56 291.5 71.82C292.94 72.01 296.94 72.7 297.77 70.92C298.77 68.8 296.3 67.63 294.58 67.18C292.258 66.4708 289.793 66.3676 287.42 66.88C287.11 66.95 286.77 67.05 286.42 67.16C284.89 67.72 283.56 68.78 285.2 70.39Z" fill="#878893"/>
</g>
<g style="mix-blend-mode:multiply" opacity="0.8">
<path d="M275.25 70.68C275.421 70.9988 275.673 71.2671 275.98 71.4584C276.287 71.6496 276.639 71.7571 277 71.77C278.071 71.9049 279.153 71.935 280.23 71.86C280.9 71.8 282.34 71.86 282.55 71C282.69 70.47 282.06 70.06 281.5 69.83C280.759 69.3731 279.925 69.0891 279.059 68.9991C278.194 68.9091 277.319 69.0153 276.5 69.31C275.89 69.49 274.91 69.9 275.25 70.68Z" fill="#878893"/>
</g>
<g style="mix-blend-mode:multiply" opacity="0.5">
<path d="M666.61 118.8C664.889 118.517 663.127 118.598 661.44 119.04C661.18 119.104 660.928 119.198 660.69 119.32C659.45 119.68 658.01 120.49 658.26 121.63C658.73 123.73 664.2 122.25 665.6 121.63C666.55 121.19 668.53 119.39 666.61 118.8Z" fill="#9294A0"/>
<path d="M671.96 122.04H671.74C671.675 121.971 671.592 121.919 671.501 121.891C671.41 121.863 671.313 121.859 671.22 121.88C671.117 121.871 671.013 121.871 670.91 121.88H670.78C670.49 121.879 670.203 121.946 669.943 122.074C669.683 122.202 669.456 122.389 669.28 122.62C669.12 122.83 669.17 123.09 669.52 123.14H669.74C669.851 123.21 669.977 123.252 670.108 123.262C670.238 123.273 670.369 123.251 670.49 123.2C670.639 123.151 670.783 123.087 670.92 123.01L671.4 122.78C671.551 122.693 671.67 122.56 671.74 122.4C671.96 122.45 672.31 122.11 671.96 122.04Z" fill="#9294A0"/>
<path d="M679.22 111.91C678.017 111.982 676.833 112.242 675.71 112.68C675.078 112.766 674.475 112.999 673.95 113.36C672.49 114.36 672.28 115.55 673.32 116.82C674.36 118.09 677.46 118.24 679.24 118.17C682.24 118.06 686.48 116.89 686.75 114.23C687.02 111.57 681.29 111.83 679.22 111.91Z" fill="#9294A0"/>
<path d="M637.5 122.57C637.455 122.494 637.396 122.427 637.326 122.374C637.256 122.321 637.175 122.282 637.09 122.26C637.09 122.16 637.09 122.05 636.89 122.12H636.7C636.152 122.058 635.598 122.058 635.05 122.12C634.388 122.173 633.771 122.472 633.32 122.96C632.95 123.41 633.19 123.86 633.82 123.96C634.017 124.039 634.23 124.066 634.44 124.04C634.708 124.061 634.978 124.041 635.24 123.98L636.24 123.79C636.85 123.62 637.78 123.1 637.5 122.57Z" fill="#9294A0"/>
</g>
<g style="mix-blend-mode:multiply" opacity="0.8">
<path d="M152.23 116.44C150.812 116.202 149.361 116.267 147.97 116.63C147.755 116.687 147.547 116.767 147.35 116.87C146.35 117.16 145.16 117.87 145.35 118.75C145.73 120.47 150.2 119.26 151.35 118.75C152.18 118.39 153.79 116.92 152.23 116.44Z" fill="#878893"/>
<path d="M156.6 119.1H156.42C156.367 119.044 156.3 119.003 156.227 118.98C156.153 118.957 156.075 118.954 156 118.97C155.914 118.96 155.826 118.96 155.74 118.97H155.63C155.394 118.973 155.162 119.03 154.95 119.136C154.739 119.241 154.554 119.393 154.41 119.58C154.28 119.75 154.32 119.96 154.6 120.01H154.78C154.876 120.058 154.982 120.082 155.09 120.082C155.197 120.082 155.304 120.058 155.4 120.01C155.522 119.969 155.639 119.915 155.75 119.85C155.885 119.797 156.015 119.733 156.14 119.66C156.262 119.592 156.36 119.487 156.42 119.36C156.59 119.42 156.88 119.14 156.6 119.1Z" fill="#878893"/>
<path d="M162.52 110.81C161.539 110.867 160.574 111.08 159.66 111.44C159.141 111.505 158.646 111.697 158.22 112C157.033 112.84 156.863 113.78 157.71 114.82C158.58 115.9 161.09 115.98 162.54 115.92C165 115.83 168.45 114.92 168.68 112.71C168.91 110.5 164.22 110.75 162.52 110.81Z" fill="#878893"/>
<path d="M128.44 119.52C128.364 119.393 128.242 119.3 128.1 119.26C128.1 119.18 128.1 119.1 127.95 119.15H127.79C127.345 119.098 126.895 119.098 126.45 119.15C125.905 119.189 125.397 119.436 125.03 119.84C124.72 120.2 124.92 120.57 125.44 120.68C125.616 120.707 125.795 120.686 125.96 120.62C126.178 120.657 126.402 120.657 126.62 120.62L127.45 120.46C127.92 120.38 128.68 119.95 128.44 119.52Z" fill="#878893"/>
</g>
<g style="mix-blend-mode:screen" opacity="0.4">
<path d="M519.7 106.8C516.793 106.298 513.85 106.034 510.9 106.01C514.97 108.01 518.9 111.23 522.18 112.81C526.39 114.81 531.54 114.34 536.03 113.59C539.728 112.98 543.373 112.08 546.93 110.9C542.607 110.832 538.292 110.498 534.01 109.9C529.15 109.15 524.49 107.86 519.7 106.8Z" fill="#9294A0"/>
</g>
<g style="mix-blend-mode:multiply" opacity="0.5">
<path d="M554.64 110.57C549.71 110.39 544.79 110.21 539.86 110.14C534.61 110.07 529.86 108.74 524.86 107.21C520.19 105.77 516.21 104.74 511.27 104.93C505.97 105.13 500.63 105.46 495.37 104.69C495.25 104.69 495.05 104.93 495.22 104.97C499.934 106.002 504.757 106.449 509.58 106.3C511.808 106.255 514.037 106.365 516.25 106.63C519.05 107 521.8 108.32 524.5 109.14C529.03 110.52 533.33 111.7 538.11 111.62C543.56 111.53 549.02 111.14 554.47 110.95C554.59 110.94 554.88 110.58 554.64 110.57Z" fill="#83858F"/>
</g>
<g style="mix-blend-mode:multiply" opacity="0.8">
<path d="M589.17 111.04C588.81 110.92 588.43 110.81 588.08 110.73C585.455 110.167 582.729 110.281 580.16 111.06C578.26 111.57 575.53 112.86 576.63 115.2C577.55 117.2 581.98 116.41 583.56 116.2C585.87 115.91 588.7 116.42 590.56 114.61C592.42 112.8 590.88 111.69 589.17 111.04Z" fill="#878893"/>
</g>
<g style="mix-blend-mode:multiply" opacity="0.8">
<path d="M600.21 113.44C599.298 113.113 598.323 112.995 597.359 113.095C596.395 113.195 595.465 113.512 594.64 114.02C594.01 114.28 593.32 114.74 593.47 115.32C593.7 116.26 595.3 116.21 596.04 116.26C597.233 116.35 598.433 116.32 599.62 116.17C600.019 116.154 600.408 116.034 600.746 115.822C601.085 115.61 601.362 115.313 601.55 114.96C601.92 114.1 600.83 113.65 600.21 113.44Z" fill="#878893"/>
</g>
<g style="mix-blend-mode:multiply" opacity="0.8">
<path d="M381.77 44.5C381.41 44.3704 381.043 44.2635 380.67 44.18C378.018 43.6102 375.266 43.7238 372.67 44.51C370.76 45.03 367.99 46.33 369.1 48.7C370.04 50.7 374.51 49.93 376.1 49.7C378.43 49.41 381.3 49.92 383.16 48.09C385.02 46.26 383.5 45.12 381.77 44.5Z" fill="#9294A0"/>
</g>
<g style="mix-blend-mode:multiply" opacity="0.8">
<path d="M392.94 46.88C392.017 46.5518 391.032 46.4344 390.058 46.5365C389.084 46.6386 388.145 46.9575 387.31 47.47C386.67 47.74 385.98 48.2 386.12 48.78C386.36 49.78 387.98 49.69 388.72 49.78C389.93 49.865 391.146 49.8348 392.35 49.69C392.761 49.6725 393.16 49.5503 393.51 49.335C393.86 49.1197 394.149 48.8185 394.35 48.46C394.69 47.55 393.58 47.1 392.94 46.88Z" fill="#9294A0"/>
</g>
<g style="mix-blend-mode:multiply" opacity="0.5">
<path d="M357.9 122.89C356.41 123.25 354.95 123.67 353.48 124.11C355.48 124.11 357.48 124.11 359.37 124.22C363.42 124.4 367.42 124.76 371.48 124.6C374.74 124.49 377.98 124.23 381.23 123.96C373.44 123.04 365.61 121.04 357.9 122.89Z" fill="#83858F"/>
</g>
</g>
<defs>
<linearGradient id="paint0_linear_1_1101" x1="713.66" y1="57.91" x2="708.79" y2="114.22" gradientUnits="userSpaceOnUse">
<stop offset="0.19" stop-color="#892613"/>
<stop offset="0.9" stop-color="#1E0F25" stop-opacity="0"/>
</linearGradient>
<linearGradient id="paint1_linear_1_1101" x1="686.59" y1="61.55" x2="690.75" y2="61.55" gradientUnits="userSpaceOnUse">
<stop stop-color="#36204C"/>
<stop offset="1" stop-color="#583681"/>
</linearGradient>
<linearGradient id="paint2_linear_1_1101" x1="688.55" y1="61.41" x2="690.75" y2="61.41" gradientUnits="userSpaceOnUse">
<stop stop-color="#36204C"/>
<stop offset="1" stop-color="#583681"/>
</linearGradient>
<linearGradient id="paint3_linear_1_1101" x1="686.59" y1="61.66" x2="689.19" y2="61.66" gradientUnits="userSpaceOnUse">
<stop stop-color="#36204C"/>
<stop offset="1" stop-color="#583681"/>
</linearGradient>
<linearGradient id="paint4_linear_1_1101" x1="720.6" y1="50.92" x2="725.28" y2="50.92" gradientUnits="userSpaceOnUse">
<stop stop-color="#36204C"/>
<stop offset="1" stop-color="#583681"/>
</linearGradient>
<linearGradient id="paint5_linear_1_1101" x1="720.6" y1="50.02" x2="725.29" y2="50.02" gradientUnits="userSpaceOnUse">
<stop stop-color="#36204C"/>
<stop offset="1" stop-color="#583681"/>
</linearGradient>
<linearGradient id="paint6_linear_1_1101" x1="683.88" y1="54.56" x2="723.84" y2="54.56" gradientUnits="userSpaceOnUse">
<stop stop-color="#E4DAE5"/>
<stop offset="1" stop-color="#F7F3F8"/>
</linearGradient>
<linearGradient id="paint7_linear_1_1101" x1="700.41" y1="67.23" x2="703.2" y2="67.23" gradientUnits="userSpaceOnUse">
<stop stop-color="#CDB8D4" stop-opacity="0.9"/>
<stop offset="1" stop-color="#CDB8D4" stop-opacity="0.3"/>
</linearGradient>
<linearGradient id="paint8_linear_1_1101" x1="683.15" y1="21.13" x2="718.44" y2="21.13" gradientUnits="userSpaceOnUse">
<stop stop-color="#2D2969"/>
<stop offset="1" stop-color="#1C1E40"/>
</linearGradient>
<linearGradient id="paint9_linear_1_1101" x1="683.15" y1="16.04" x2="718.44" y2="16.04" gradientUnits="userSpaceOnUse">
<stop stop-color="#E4DAE5"/>
<stop offset="1" stop-color="#F7F3F8"/>
</linearGradient>
<linearGradient id="paint10_linear_1_1101" x1="687.16" y1="38.23" x2="714.43" y2="38.23" gradientUnits="userSpaceOnUse">
<stop stop-color="#36204C"/>
<stop offset="1" stop-color="#583681"/>
</linearGradient>
<linearGradient id="paint11_linear_1_1101" x1="687.16" y1="37.54" x2="714.43" y2="37.54" gradientUnits="userSpaceOnUse">
<stop stop-color="#36204C"/>
<stop offset="1" stop-color="#583681"/>
</linearGradient>
<linearGradient id="paint12_linear_1_1101" x1="687.16" y1="38.81" x2="714.43" y2="38.81" gradientUnits="userSpaceOnUse">
<stop stop-color="#36204C"/>
<stop offset="1" stop-color="#583681"/>
</linearGradient>
<linearGradient id="paint13_linear_1_1101" x1="696.58" y1="73.2" x2="701.39" y2="73.2" gradientUnits="userSpaceOnUse">
<stop stop-color="#36204C"/>
<stop offset="1" stop-color="#583681"/>
</linearGradient>
<linearGradient id="paint14_linear_1_1101" x1="703.83" y1="2.10002" x2="722.24" y2="20.67" gradientUnits="userSpaceOnUse">
<stop stop-color="white"/>
<stop offset="1" stop-color="white" stop-opacity="0"/>
</linearGradient>
<linearGradient id="paint15_linear_1_1101" x1="683.36" y1="14.81" x2="695.95" y2="35.15" gradientUnits="userSpaceOnUse">
<stop stop-color="white"/>
<stop offset="1" stop-color="white" stop-opacity="0"/>
</linearGradient>
<linearGradient id="paint16_linear_1_1101" x1="709.8" y1="53.47" x2="714.71" y2="53.47" gradientUnits="userSpaceOnUse">
<stop stop-color="#36204C"/>
<stop offset="1" stop-color="#583681"/>
</linearGradient>
<linearGradient id="paint17_linear_1_1101" x1="710.22" y1="42.19" x2="714.25" y2="42.19" gradientUnits="userSpaceOnUse">
<stop stop-color="#36204C"/>
<stop offset="1" stop-color="#583681"/>
</linearGradient>
<linearGradient id="paint18_linear_1_1101" x1="712.21" y1="39.53" x2="714.25" y2="39.53" gradientUnits="userSpaceOnUse">
<stop stop-color="#36204C"/>
<stop offset="1" stop-color="#583681"/>
</linearGradient>
<linearGradient id="paint19_linear_1_1101" x1="713.35" y1="55.07" x2="714.71" y2="55.07" gradientUnits="userSpaceOnUse">
<stop stop-color="#36204C"/>
<stop offset="1" stop-color="#583681"/>
</linearGradient>
<linearGradient id="paint20_linear_1_1101" x1="688.95" y1="42.19" x2="692.98" y2="42.19" gradientUnits="userSpaceOnUse">
<stop stop-color="#36204C"/>
<stop offset="1" stop-color="#583681"/>
</linearGradient>
<linearGradient id="paint21_linear_1_1101" x1="688.95" y1="39.53" x2="690.98" y2="39.53" gradientUnits="userSpaceOnUse">
<stop stop-color="#36204C"/>
<stop offset="1" stop-color="#583681"/>
</linearGradient>
<linearGradient id="paint22_linear_1_1101" x1="699.54" y1="73.15" x2="701.39" y2="73.15" gradientUnits="userSpaceOnUse">
<stop stop-color="#36204C"/>
<stop offset="1" stop-color="#583681"/>
</linearGradient>
<linearGradient id="paint23_linear_1_1101" x1="696.59" y1="73.3" x2="698.54" y2="73.3" gradientUnits="userSpaceOnUse">
<stop stop-color="#36204C"/>
<stop offset="1" stop-color="#583681"/>
</linearGradient>
<linearGradient id="paint24_linear_1_1101" x1="702.36" y1="73.2" x2="707.17" y2="73.2" gradientUnits="userSpaceOnUse">
<stop stop-color="#36204C"/>
<stop offset="1" stop-color="#583681"/>
</linearGradient>
<linearGradient id="paint25_linear_1_1101" x1="702.37" y1="73.15" x2="703.91" y2="73.15" gradientUnits="userSpaceOnUse">
<stop stop-color="#36204C"/>
<stop offset="1" stop-color="#583681"/>
</linearGradient>
<linearGradient id="paint26_linear_1_1101" x1="705.14" y1="73.3" x2="707.17" y2="73.3" gradientUnits="userSpaceOnUse">
<stop stop-color="#36204C"/>
<stop offset="1" stop-color="#583681"/>
</linearGradient>
<linearGradient id="paint27_linear_1_1101" x1="690.75" y1="47.74" x2="711.19" y2="47.74" gradientUnits="userSpaceOnUse">
<stop stop-color="#E4DAE5"/>
<stop offset="1" stop-color="#F7F3F8"/>
</linearGradient>
<linearGradient id="paint28_linear_1_1101" x1="690.75" y1="39.45" x2="711.19" y2="39.45" gradientUnits="userSpaceOnUse">
<stop stop-color="#E4DAE5"/>
<stop offset="1" stop-color="#F7F3F8"/>
</linearGradient>
<linearGradient id="paint29_linear_1_1101" x1="693.19" y1="50.93" x2="708.14" y2="50.93" gradientUnits="userSpaceOnUse">
<stop stop-color="#CDB8D4" stop-opacity="0.9"/>
<stop offset="1" stop-color="#CDB8D4" stop-opacity="0.3"/>
</linearGradient>
<linearGradient id="paint30_linear_1_1101" x1="687.74" y1="54.49" x2="689.22" y2="54.49" gradientUnits="userSpaceOnUse">
<stop stop-color="#CDB8D4" stop-opacity="0.9"/>
<stop offset="1" stop-color="#CDB8D4" stop-opacity="0.3"/>
</linearGradient>
<linearGradient id="paint31_linear_1_1101" x1="715.07" y1="49.92" x2="720.75" y2="49.92" gradientUnits="userSpaceOnUse">
<stop stop-color="#CDB8D4" stop-opacity="0.9"/>
<stop offset="1" stop-color="#CDB8D4" stop-opacity="0.3"/>
</linearGradient>
<linearGradient id="paint32_linear_1_1101" x1="729.463" y1="16.279" x2="771.655" y2="14.2745" gradientUnits="userSpaceOnUse">
<stop stop-color="#E4DAE5"/>
<stop offset="1" stop-color="#F7F3F8"/>
</linearGradient>
</defs>
</svg>
