<svg width="858" height="143" viewBox="0 0 858 143" fill="none" xmlns="http://www.w3.org/2000/svg">
<mask id="mask0_17_421" style="mask-type:luminance" maskUnits="userSpaceOnUse" x="0" y="0" width="858" height="143">
<path d="M857.68 0H0.609985V142.3H857.68V0Z" fill="white"/>
</mask>
<g mask="url(#mask0_17_421)">
<mask id="mask1_17_421" style="mask-type:luminance" maskUnits="userSpaceOnUse" x="-260" y="44" width="1286" height="121">
<path d="M-259.56 164.12C-55.1901 21.2 808.34 -9.01997 1025.2 160.12L-259.56 164.12Z" fill="white"/>
</mask>
<g mask="url(#mask1_17_421)">
<g style="mix-blend-mode:screen">
<path d="M653.24 -11.34C440.73 35.02 186.08 -3.64999 -9.00006 -99V154.35H861.12V-87.46C793.55 -55.34 724.14 -26.47 653.24 -11.34Z" fill="#B2B0AE"/>
</g>
<g style="mix-blend-mode:screen">
<path d="M176.81 -22.34C144.23 -21.51 115.95 -3.94998 147.81 25.37C166.21 39.75 187.81 44.96 208.81 53.24C245.16 65.91 283.04 72.86 317.97 89.24C338.32 104.5 322.53 107.64 324.19 119.24C330.49 135.41 365.32 138.49 380.49 141.83C421.41 147.4 465.03 146.31 502.63 126.75C522.79 116.67 514.16 101.37 498.86 91.13C436.24 51.13 454.72 39.65 517.95 30.37C540.74 23.37 564.6 16.81 583.95 1.37002C458.4 20.27 332.05 1.82002 208.38 -22.63C197.86 -23.1526 187.318 -23.0558 176.81 -22.34Z" fill="#B2B0AE"/>
</g>
<g style="mix-blend-mode:screen" opacity="0.61">
<path d="M842.51 -79.34C794.783 -55.509 744.933 -36.1916 693.61 -21.64C698.69 3.04001 660.28 11.25 643.44 16.36C617.61 22.49 491.14 35.58 554.69 77.25C577.92 91.66 603.37 89.36 628.12 97.32C665.2 109.32 626.4 129.77 608.88 135.07C567.41 149.46 523.36 153 480.03 154.35H861.12V-87.46C854.933 -84.7133 848.73 -82.0067 842.51 -79.34Z" fill="#B2B0AE"/>
</g>
<path d="M842.51 -79.34C840.123 -78.1467 837.73 -76.9733 835.33 -75.82C854.04 -68.53 830.76 -40.71 821.93 -35.13C800.84 -19.08 777.84 -9.26999 756.61 6.51001C733.28 23.66 674.61 59.66 678.54 92.32C681.31 111.84 700.82 120.72 717.07 122.42C750.07 131.9 855.81 100.78 855 154.35H861.12V-87.46C854.933 -84.7133 848.73 -82.0067 842.51 -79.34Z" fill="#C4C0BF"/>
<g style="mix-blend-mode:screen" opacity="0.61">
<path d="M324.5 152.19C311.63 151.04 236.2 139.88 238.14 123.59C239.64 109.29 254.72 111.25 261.65 101.08C270.31 91.69 253.83 87 247.65 83.26C198.47 65.82 149.87 49.84 102.94 23.53C84.8699 13.47 64.9899 4.81002 50.2799 -10.74C33.6099 -28.88 51.0499 -47.1 67.8799 -47.83C81.0899 -48.83 94.3099 -49.02 107.53 -49.83C68.1299 -64.15 28.3099 -79 -9.00006 -99V154.35H355.06C344.86 153.92 334.67 153.24 324.5 152.19Z" fill="#B2B0AE"/>
</g>
<path d="M140.49 149.78C139.49 131.59 157.42 122.17 158.67 104.93C146.4 64.66 90.9699 62.76 57.0699 58.92C35.0099 56.53 13.0699 51.84 -9.00006 49.56V154.35H141.33C140.835 152.874 140.552 151.335 140.49 149.78Z" fill="#C4C0BF"/>
</g>
<path style="mix-blend-mode:multiply" opacity="0.58" d="M703.19 78C706.64 79.724 709.401 82.5697 711.02 86.07C711.42 86.13 712.08 86.97 711.36 86.92C711.691 87.8112 711.919 88.7372 712.04 89.68C712.036 89.7232 712.036 89.7668 712.04 89.81C713.873 89.4945 715.635 88.8509 717.24 87.91L717.9 88.2C718.482 87.8717 719.095 87.6004 719.73 87.39L714.73 77.39L715.6 77.59L720.6 87.17C720.939 87.1446 721.28 87.1923 721.6 87.31C721.771 87.3647 721.925 87.4624 722.048 87.5937C722.17 87.725 722.257 87.8856 722.3 88.06C722.33 88.1778 722.334 88.3011 722.309 88.4203C722.285 88.5396 722.233 88.6517 722.159 88.7481C722.085 88.8445 721.99 88.9227 721.881 88.9768C721.772 89.0308 721.652 89.0593 721.53 89.06L723.21 92.53C724.83 92.08 735.13 93.67 735.69 90.88C737.02 91.88 737.5 94.12 738.42 95.88C734.75 98.53 728.71 96.28 724.72 97.59L722.32 92.74H722.37L720.82 89.54C717.856 91.4621 714.606 92.9001 711.19 93.8C711.38 93.86 711.25 93.94 711.01 94.02C711.2 94.0981 711.353 94.2444 711.44 94.43C711.46 94.4969 711.466 94.5676 711.455 94.6368C711.445 94.706 711.419 94.772 711.38 94.83C711.345 94.8924 711.297 94.9469 711.24 94.99C728.5 102.29 715.13 113.99 697.84 113.48C680.56 113.95 667.18 102.29 684.44 94.99C684.388 94.9414 684.341 94.8878 684.3 94.83C684.259 94.773 684.232 94.7069 684.221 94.6373C684.211 94.5677 684.217 94.4966 684.24 94.43C684.58 93.67 685.82 93.83 686.55 93.69H686.62C680.87 92.1 679.25 86.52 683.26 83.41L683.93 83.47C684.159 83.156 684.461 82.9014 684.809 82.7274C685.157 82.5535 685.541 82.4652 685.93 82.47H686.22C686.514 82.4761 686.806 82.5164 687.09 82.59H687.18C689.295 80.5502 691.817 78.9794 694.58 77.98L694.87 77.53L693.61 77.13L698.43 77.03L698.34 78.11L698.48 82.24L699.48 78.11L699.42 77.03C699.6 77.03 704.03 77.15 704.2 77.13L702.95 77.55L703.25 78M720.41 90.89L720.75 91.06L720.65 90.84L720.41 90.89Z" fill="url(#paint0_linear_17_421)"/>
<path d="M683.61 63.18C683.74 65.52 686.53 67.46 687.78 65.18L686.58 62.85L683.61 63.18Z" fill="url(#paint1_linear_17_421)"/>
<path style="mix-blend-mode:multiply" opacity="0.5" d="M687.04 65.94C687.343 65.7766 687.591 65.5257 687.75 65.22L686.55 62.89L685.55 62.99C685.872 64.0524 686.376 65.0506 687.04 65.94Z" fill="url(#paint2_linear_17_421)"/>
<path d="M684.23 63.11L683.58 63.18C683.8 64.29 684.58 66.45 686.18 66.18C685.204 65.4042 684.517 64.323 684.23 63.11Z" fill="url(#paint3_linear_17_421)"/>
<path d="M724.472 36.4749L714.701 78.2987L715.567 78.5012L725.339 36.6774L724.472 36.4749Z" fill="#939EBC"/>
<path d="M717.61 53.94C717.61 53.94 719.61 56.48 720.85 56.37C722.69 56.19 722.55 52.75 721.63 52.53C720.777 52.2745 719.95 51.9398 719.16 51.53L717.61 53.94Z" fill="url(#paint4_linear_17_421)"/>
<g style="mix-blend-mode:multiply" opacity="0.5">
<path d="M717.95 53.38L717.6 53.94C717.66 54.02 720.26 57.38 721.6 56.07C721.12 54.44 719.42 53.96 717.95 53.38Z" fill="#777676"/>
</g>
<path d="M722.26 54.56C722.4 53.02 719.38 52.72 719.15 52.3L717.89 54.3L717.6 53.95L719.15 51.49C719.79 52.04 722.91 52.29 722.26 54.56Z" fill="url(#paint5_linear_17_421)"/>
<path d="M720.84 51.66L717.27 54.9C715.57 53 713.82 51.45 712.07 50.98C712.07 50.98 711.65 66.22 703.2 75.38L699.44 75.16L698.44 66.61L698.3 75.16L694.53 75.38C694.53 75.38 689.38 71.86 686.21 63.7L683.21 64.29C671.05 40.22 706.39 29.85 720.84 51.66Z" fill="url(#paint6_linear_17_421)"/>
<path style="mix-blend-mode:multiply" opacity="0.5" d="M698.31 65.21C697.6 65.41 697.31 73.84 697.43 75.21H698.31L698.45 66.66L699.45 75.21H700.16C700.51 72.59 698.69 65.11 698.31 65.21Z" fill="url(#paint7_linear_17_421)"/>
<path d="M695.46 75.37L694.54 75.42C694.54 75.42 689.65 72.08 686.47 64.35C688.99 68.3875 692.011 72.0902 695.46 75.37ZM702.63 75.37H703.21C711.01 66.91 711.96 53.27 712.05 51.24C711.53 56.1 708.18 69.02 702.61 75.39L702.63 75.37ZM683.61 47.77C686.8 40.41 701.69 41.77 704.97 42.14C712.05 42.92 718.55 49.27 720.49 52.05L720.87 51.7C706.36 29.82 671.05 40.26 683.21 64.33L683.74 64.23C682.51 60.98 679.79 56.51 683.61 47.77Z" fill="#F7F7F6"/>
<path d="M697.79 8.87001C693.47 8.87001 691.32 7.26001 690.6 6.51001C689.15 7.31001 690.09 9.44001 691.21 10.08C690.76 10.25 688.08 8.61001 688.52 6.08001C688.53 6.03229 688.523 5.98258 688.5 5.9394C688.478 5.89621 688.441 5.86225 688.396 5.84333C688.351 5.82441 688.301 5.82172 688.254 5.83571C688.207 5.8497 688.167 5.8795 688.14 5.92001C687.772 6.27711 687.49 6.71372 687.317 7.1964C687.144 7.67908 687.083 8.19501 687.14 8.70466C687.197 9.21432 687.37 9.70417 687.646 10.1367C687.921 10.5692 688.292 10.933 688.73 11.2L688.6 11.27C687.6 10.81 685.6 10.41 685.53 9.07001C685.53 8.90001 685.32 8.88001 685.24 8.99001C684.09 10.5 687.24 11.58 686.07 13.05C684.218 14.5885 682.728 16.5159 681.705 18.6952C680.681 20.8746 680.151 23.2524 680.15 25.66C680.24 47.58 715.35 47.59 715.44 25.66C715.44 16.37 707.54 8.89001 697.79 8.87001Z" fill="url(#paint8_linear_17_421)"/>
<g style="mix-blend-mode:multiply" opacity="0.5">
<path d="M715.44 25.66C714.86 48.93 677.97 46.97 680.28 23.66C685.43 40.47 712.72 38.29 714.62 20.66C715.157 22.2725 715.434 23.9604 715.44 25.66Z" fill="#210F0C"/>
</g>
<path d="M680.92 23.06C688.06 2.42001 719.69 9.80001 714.03 32.2C719.09 21.28 710.09 8.67001 697.79 8.87001C693.48 8.87001 691.32 7.26001 690.6 6.51001C689.15 7.31001 690.09 9.44001 691.21 10.08C690.76 10.25 688.08 8.61001 688.52 6.08001C688.53 6.03229 688.523 5.98258 688.5 5.9394C688.478 5.89621 688.441 5.86225 688.396 5.84333C688.351 5.82441 688.301 5.82172 688.254 5.83571C688.207 5.8497 688.167 5.8795 688.14 5.92001C687.772 6.27711 687.49 6.71372 687.317 7.1964C687.144 7.67908 687.083 8.19501 687.14 8.70466C687.197 9.21432 687.37 9.70417 687.646 10.1367C687.921 10.5692 688.292 10.933 688.73 11.2L688.6 11.27C687.6 10.82 685.6 10.41 685.53 9.07001C685.53 8.90001 685.32 8.88001 685.24 8.99001C684.1 10.5 687.24 11.58 686.07 13.05C683.825 14.9135 682.119 17.3435 681.129 20.0882C680.139 22.8329 679.901 25.7924 680.44 28.66C680.3 26.7797 680.462 24.889 680.92 23.06Z" fill="url(#paint9_linear_17_421)"/>
<g opacity="0.54">
<path d="M697.79 2.47V5.47C706.53 5.47 716.02 11.15 716.25 23.63C716.02 36.11 706.52 41.79 697.79 41.79C689.06 41.79 679.61 36.11 679.33 23.66C679.57 11.19 689.06 5.5 697.79 5.5V2.5M697.79 2.5C687.18 2.47 676.61 9.53 676.33 23.66C676.57 37.77 687.18 44.82 697.79 44.82C708.4 44.82 719.01 37.74 719.26 23.66C719.02 9.55 708.41 2.5 697.79 2.5Z" fill="white"/>
</g>
<g opacity="0.19">
<path d="M719.26 23.66C718.77 51.87 676.81 51.87 676.33 23.66C676.81 -4.57999 718.78 -4.57999 719.26 23.66Z" fill="white"/>
</g>
<path d="M709.75 42.92H685.84C685.394 42.92 684.967 42.743 684.652 42.4279C684.337 42.1129 684.16 41.6856 684.16 41.24C684.16 40.7944 684.337 40.3671 684.652 40.0521C684.967 39.737 685.394 39.56 685.84 39.56H709.75C710.196 39.56 710.623 39.737 710.938 40.0521C711.253 40.3671 711.43 40.7944 711.43 41.24C711.43 41.6856 711.253 42.1129 710.938 42.4279C710.623 42.743 710.196 42.92 709.75 42.92Z" fill="url(#paint10_linear_17_421)"/>
<path style="mix-blend-mode:screen" d="M711.43 41.24C711.44 41.3364 711.44 41.4336 711.43 41.53C711.366 41.1388 711.165 40.7831 710.862 40.5266C710.56 40.2701 710.176 40.1296 709.78 40.13C708.78 40.73 683.29 38.64 684.22 41.53C684.171 41.2865 684.177 41.0352 684.237 40.7942C684.297 40.5533 684.411 40.3288 684.569 40.1372C684.727 39.9456 684.926 39.7917 685.151 39.6866C685.376 39.5816 685.622 39.5281 685.87 39.53H709.78C710.001 39.5339 710.218 39.5813 710.421 39.6693C710.623 39.7574 710.806 39.8844 710.959 40.0432C711.112 40.202 711.233 40.3894 711.314 40.5948C711.394 40.8001 711.434 41.0194 711.43 41.24Z" fill="url(#paint11_linear_17_421)"/>
<path style="mix-blend-mode:multiply" opacity="0.5" d="M711.43 41.24C712.86 44.68 686.81 42.24 685.84 42.92C685.574 42.9194 685.312 42.8557 685.076 42.7342C684.84 42.6127 684.636 42.4369 684.48 42.2212C684.325 42.0055 684.223 41.756 684.183 41.4933C684.143 41.2306 684.166 40.9622 684.25 40.71C684.363 41.0423 684.577 41.3309 684.862 41.5354C685.147 41.7398 685.489 41.8498 685.84 41.85C686.56 41.38 712.36 43.06 711.34 40.71C711.4 40.8801 711.431 41.0595 711.43 41.24Z" fill="url(#paint12_linear_17_421)"/>
<path d="M694.54 75.42L694.84 76.36L693.58 77.21L698.38 77.05L698.31 75.2L694.54 75.42Z" fill="url(#paint13_linear_17_421)"/>
<path style="mix-blend-mode:screen" opacity="0.79" d="M698.94 6.43C700.01 4.16 707.94 5.01 712.74 11.56C716.87 17.16 717.61 25.66 715.44 25.66C710.54 9.14 696.41 12.27 698.94 6.43Z" fill="url(#paint14_linear_17_421)"/>
<path style="mix-blend-mode:screen" opacity="0.79" d="M698.07 38.45C697.07 40.76 689.17 40.25 684.07 33.92C679.7 28.5 678.59 20.07 680.77 19.98C686.31 36.16 700.35 32.53 698.07 38.45Z" fill="url(#paint15_linear_17_421)"/>
<path d="M707.98 53.58C708.18 57.03 709.98 58.31 711.38 56.99C712.9 59.44 706.16 61.89 706.81 53.65C707.196 53.5816 707.589 53.5581 707.98 53.58Z" fill="url(#paint16_linear_17_421)"/>
<g style="mix-blend-mode:multiply" opacity="0.5">
<path d="M708.99 59.32C709.299 59.1207 709.55 58.8421 709.715 58.5133C709.88 58.1844 709.955 57.8173 709.93 57.45C708.93 57.2 708.11 55.87 707.93 53.58C707.539 53.5581 707.146 53.5816 706.76 53.65C706.68 57.53 707.82 59.01 708.99 59.32Z" fill="#2C1C43"/>
</g>
<path d="M709.92 42.02C707.84 41.61 706.01 50.12 708.14 47.94C708.13 43.23 713.35 42.66 709.92 42.02Z" fill="url(#paint17_linear_17_421)"/>
<g style="mix-blend-mode:multiply" opacity="0.5">
<path d="M708.14 43.6C706.45 46.73 707.19 51.79 709.08 44.82C708.828 44.3697 708.511 43.9587 708.14 43.6Z" fill="#2C1C43"/>
</g>
<path style="mix-blend-mode:screen" d="M709.69 42.52C710.044 42.6556 710.379 42.8335 710.69 43.05C712.22 42.62 709.79 41.54 709.22 42.34L709.69 42.52Z" fill="url(#paint18_linear_17_421)"/>
<path style="mix-blend-mode:screen" d="M711.38 56.99C711.216 57.1542 711.022 57.2865 710.81 57.38C710.854 58.0247 710.69 58.6665 710.34 59.21C711.67 58.8 712.04 56.55 711.38 56.99Z" fill="url(#paint19_linear_17_421)"/>
<path d="M690.38 53.66C690.46 60.19 687.5 60.14 685.76 58.46C685.7 57.94 685.7 57.46 685.67 56.92C687.04 58.24 689.01 57.04 689.21 53.59C689.601 53.5684 689.994 53.5919 690.38 53.66Z" fill="#574F50"/>
<g style="mix-blend-mode:multiply" opacity="0.5">
<path d="M690.38 53.66C690.46 60.19 687.5 60.14 685.76 58.46C685.7 57.94 685.7 57.46 685.67 56.92C687.04 58.24 689.01 57.04 689.21 53.59C689.601 53.5684 689.994 53.5919 690.38 53.66Z" fill="#2C1C43"/>
</g>
<path d="M686.22 42.92C688.61 43.25 688.91 49.61 689.84 48.15C690.51 45.15 688.52 42.15 687.26 42.02C686.92 41.99 685.31 42.66 686.22 42.92Z" fill="url(#paint20_linear_17_421)"/>
<g style="mix-blend-mode:multiply" opacity="0.5">
<path d="M689.04 43.6C690.73 46.73 690.04 51.79 688.1 44.82C688.359 44.3741 688.675 43.964 689.04 43.6Z" fill="#2C1C43"/>
</g>
<path style="mix-blend-mode:screen" d="M687.5 42.52C687.147 42.6563 686.811 42.8342 686.5 43.05C684.97 42.62 687.41 41.54 687.98 42.34L687.5 42.52Z" fill="url(#paint21_linear_17_421)"/>
<path style="mix-blend-mode:multiply" opacity="0.5" d="M696.53 77.12L698.38 77.06L698.3 75.2L697.3 75.26C697.277 75.9528 697.004 76.6138 696.53 77.12Z" fill="url(#paint22_linear_17_421)"/>
<path d="M694.41 77.19C695.25 76.7 695.96 76.19 694.99 75.4H694.54L694.83 76.34L693.58 77.2L694.41 77.19Z" fill="url(#paint23_linear_17_421)"/>
<path d="M703.21 75.42L702.91 76.36L704.17 77.21L699.37 77.05L699.44 75.2L703.21 75.42Z" fill="url(#paint24_linear_17_421)"/>
<path style="mix-blend-mode:multiply" opacity="0.5" d="M700.45 75.26L699.45 75.2L699.37 77.06H700.92C700.634 76.5013 700.474 75.887 700.45 75.26Z" fill="url(#paint25_linear_17_421)"/>
<path d="M702.73 75.4C702.54 75.7 702.34 76.01 702.14 76.3C702.521 76.5662 702.882 76.8604 703.22 77.18H704.16L702.91 76.32L703.21 75.38L702.73 75.4Z" fill="url(#paint26_linear_17_421)"/>
<path d="M688.87 38.91C690.03 37.25 705.19 37.41 706.87 38.91C708.55 40.41 708.64 61.46 707.35 62.91C706.06 64.36 689.53 63.91 688.71 62.78C687.14 60.66 687.72 40.57 688.87 38.91Z" fill="url(#paint27_linear_17_421)"/>
<g style="mix-blend-mode:multiply" opacity="0.2">
<path d="M707.31 62.87C706.02 64.27 689.49 63.87 688.67 62.73C687.96 61.73 687.67 56.88 687.75 51.8C687.75 56.07 688.06 59.8 688.67 60.64C689.49 61.77 706.02 62.19 707.31 60.78C707.85 60.19 708.15 56.12 708.18 51.48C708.23 56.92 707.93 62.19 707.31 62.87Z" fill="#777676"/>
</g>
<g style="mix-blend-mode:multiply" opacity="0.4">
<path d="M707.31 47.84C706.02 48.42 689.49 48.25 688.67 47.84C687.85 47.43 687.67 45.04 687.78 42.75C687.86 44.2 688.14 45.4 688.67 45.69C689.49 46.15 706.02 46.32 707.31 45.75C707.79 45.53 708.07 44.23 708.16 42.63C708.27 45 707.99 47.54 707.31 47.84Z" fill="#777676"/>
</g>
<path d="M688.87 37.66C690.03 36.98 705.19 37.05 706.87 37.66C708.55 38.27 708.64 46.85 707.35 47.42C706.06 47.99 689.53 47.83 688.71 47.37C687.14 46.48 687.72 38.31 688.87 37.66Z" fill="url(#paint28_linear_17_421)"/>
<g style="mix-blend-mode:screen" opacity="0.3">
<path d="M708.17 43.79C708.11 41.45 707.67 39.08 706.83 38.79C705.19 38.18 690.03 38.12 688.83 38.79C688.23 39.15 687.83 41.57 687.71 43.92C687.64 41.29 688.13 38.07 688.83 37.66C689.99 36.98 705.15 37.05 706.83 37.66C707.8 38 708.24 41.15 708.17 43.79Z" fill="#646363"/>
</g>
<g style="mix-blend-mode:multiply" opacity="0.2">
<path d="M707.31 47.4C706.02 47.97 689.49 47.8 688.67 47.35C687.85 46.9 687.67 44.55 687.78 42.26C687.86 43.71 688.14 44.9 688.67 45.2C689.49 45.66 706.02 45.83 707.31 45.25C707.79 45.04 708.07 43.73 708.16 42.14C708.27 44.56 707.99 47.1 707.31 47.4Z" fill="#777676"/>
</g>
<path style="mix-blend-mode:multiply" opacity="0.5" d="M691.06 49.53C690 50.74 689.79 57.97 691.06 58.64C692.33 59.31 704.15 59.41 704.59 58.64C705.03 57.87 705.59 50.55 704.59 49.53C703.59 48.51 692.12 48.31 691.06 49.53Z" fill="url(#paint29_linear_17_421)"/>
<path style="mix-blend-mode:multiply" opacity="0.5" d="M685.49 51.3C683.88 54.3 685.13 62.39 685.66 63.85C685.86 63.85 686.02 63.78 686.22 63.74C685.82 61.13 685.45 53.39 685.49 51.3Z" fill="url(#paint30_linear_17_421)"/>
<path style="mix-blend-mode:multiply" opacity="0.5" d="M717.75 54.5L717.27 54.94C715.57 53.04 713.82 51.49 712.07 51.02C712.09 50.17 717.16 52.55 717.75 54.5Z" fill="url(#paint31_linear_17_421)"/>
<path d="M715.64 78.1L715.06 77.97L731.13 9.22L731.74 9.37L715.64 78.1Z" fill="white"/>
<path d="M768.27 9.50999C756.54 -3.31001 740.47 9.24999 731.98 3.04999L726.8 26.51C737.49 32.14 753.75 16.39 762.25 33.51C765.52 28.24 766.2 18.12 768.27 9.50999Z" fill="url(#paint32_linear_17_421)"/>
<path d="M750.07 5.01001C753.363 4.60371 756.705 5.03184 759.789 6.25503C762.873 7.47822 765.601 9.45721 767.72 12.01C767.9 11.19 768.08 10.37 768.27 9.56001C756.54 -3.25999 740.47 9.30001 731.98 3.10001C731.98 3.05001 732.98 7.66001 750.07 5.01001Z" fill="white"/>
<path d="M737.39 10.36L736.87 13.66L736.13 13.55L736.65 10.28C736.673 10.1213 736.634 9.95972 736.541 9.82919C736.448 9.69865 736.308 9.60934 736.15 9.58001L736.27 8.85001C736.619 8.90188 736.932 9.09006 737.142 9.3732C737.352 9.65634 737.441 10.0113 737.39 10.36Z" fill="black"/>
<path d="M742.9 11.24L742.61 13.17C742.553 13.5249 742.358 13.8431 742.068 14.0548C741.778 14.2665 741.415 14.3547 741.06 14.3L739.13 13.99C738.88 13.9534 738.646 13.8465 738.455 13.6819C738.264 13.5172 738.123 13.3015 738.05 13.06L741.18 13.56C741.258 13.5728 741.338 13.57 741.415 13.5518C741.492 13.5336 741.565 13.5002 741.629 13.4538C741.693 13.4073 741.748 13.3485 741.789 13.281C741.83 13.2134 741.858 13.1383 741.87 13.06L742.18 11.12C742.193 11.0418 742.19 10.9619 742.172 10.8848C742.153 10.8077 742.12 10.735 742.074 10.6708C742.027 10.6067 741.968 10.5524 741.901 10.511C741.833 10.4697 741.758 10.4422 741.68 10.43L739.74 10.12C739.661 10.1072 739.58 10.1104 739.503 10.1293C739.425 10.1481 739.352 10.1823 739.288 10.2298C739.223 10.2773 739.169 10.3372 739.128 10.4059C739.088 10.4746 739.061 10.5508 739.05 10.63L738.74 12.56C738.725 12.6393 738.725 12.7207 738.74 12.8L737.98 12.68C737.97 12.6003 737.97 12.5197 737.98 12.44L738.28 10.51C738.308 10.3346 738.37 10.1664 738.463 10.015C738.556 9.86373 738.678 9.73229 738.822 9.62824C738.966 9.52419 739.13 9.44958 739.302 9.4087C739.475 9.36782 739.655 9.36146 739.83 9.38999L741.77 9.68999C742.125 9.74659 742.443 9.94141 742.655 10.2318C742.866 10.5223 742.955 10.8847 742.9 11.24Z" fill="black"/>
<path d="M746.44 10.43L746.85 12.58L748.41 12.82L749.47 10.92L750.26 11.04L749 13.3C748.944 13.3964 748.861 13.4748 748.762 13.5261C748.663 13.5774 748.551 13.5996 748.44 13.59L746.59 13.29C746.48 13.2658 746.379 13.2106 746.299 13.1309C746.219 13.0511 746.164 12.9502 746.14 12.84L745.61 10.31L746.44 10.43ZM747.82 13.86L747.61 15.34L746.87 15.22L747.11 13.75L747.82 13.86Z" fill="black"/>
<path d="M754.13 11.66C754.305 11.6868 754.473 11.748 754.624 11.8401C754.775 11.9321 754.907 12.0533 755.011 12.1965C755.115 12.3397 755.19 12.5021 755.231 12.6743C755.272 12.8466 755.278 13.0253 755.25 13.2C755.193 13.555 754.998 13.8731 754.708 14.0848C754.418 14.2966 754.055 14.3847 753.7 14.33L754.57 16.45L753.72 16.31L752.85 14.19L751.54 13.98L751.66 13.25L753.82 13.59C753.979 13.6134 754.14 13.5744 754.271 13.4812C754.401 13.3879 754.491 13.2477 754.52 13.09C754.543 12.9299 754.503 12.767 754.407 12.6362C754.312 12.5054 754.169 12.4171 754.01 12.39L751.48 11.99L750.86 15.86L750.13 15.74L750.86 11.14L754.13 11.66Z" fill="black"/>
<path d="M759.99 16.13C759.895 16.4431 759.689 16.7109 759.412 16.8838C759.134 17.0567 758.803 17.1229 758.48 17.07L755.55 16.6L755.67 15.87L758.6 16.33C758.727 16.3525 758.858 16.3335 758.973 16.2758C759.088 16.2182 759.182 16.125 759.24 16.01L759.99 16.13ZM756.47 13.59C756.49 13.717 756.551 13.8341 756.642 13.9242C756.734 14.0142 756.853 14.0723 756.98 14.09L758.91 14.4C759.231 14.4527 759.523 14.6189 759.732 14.8685C759.942 15.118 760.054 15.4344 760.05 15.76L759.3 15.64C759.28 15.513 759.219 15.3959 759.127 15.3059C759.036 15.2158 758.917 15.1577 758.79 15.14L756.86 14.83C756.538 14.7793 756.245 14.6137 756.035 14.3636C755.826 14.1136 755.714 13.7962 755.72 13.47L756.47 13.59ZM760.21 12.59L760.1 13.33L757.17 12.86C757.042 12.8415 756.912 12.8634 756.797 12.9226C756.682 12.9817 756.589 13.0752 756.53 13.19L755.78 13.07C755.873 12.7577 756.077 12.4901 756.353 12.3171C756.629 12.144 756.958 12.0775 757.28 12.13L760.21 12.59Z" fill="black"/>
<path d="M737.61 15.97C737.788 16.0006 737.955 16.0791 738.093 16.1971C738.23 16.3151 738.333 16.4682 738.39 16.64L736.14 16.28C736.027 16.2628 735.912 16.291 735.82 16.3585C735.728 16.4261 735.667 16.5273 735.65 16.64L735.43 18.03C735.413 18.1427 735.441 18.2577 735.508 18.3495C735.576 18.4414 735.677 18.5028 735.79 18.52L737.17 18.74C737.226 18.75 737.284 18.7485 737.34 18.7357C737.396 18.7229 737.449 18.6991 737.496 18.6655C737.543 18.6319 737.582 18.5894 737.612 18.5404C737.642 18.4913 737.661 18.4368 737.67 18.38L737.89 17C737.9 16.9438 737.9 16.8862 737.89 16.83L738.43 16.91C738.435 16.9666 738.435 17.0234 738.43 17.08L738.21 18.47C738.161 18.7194 738.019 18.941 737.813 19.0896C737.607 19.2382 737.352 19.3027 737.1 19.27L735.71 19.05C735.46 19.0013 735.239 18.8594 735.09 18.6532C734.942 18.4471 734.877 18.192 734.91 17.94L735.13 16.56C735.176 16.3087 735.317 16.0848 735.524 15.9342C735.73 15.7835 735.986 15.7176 736.24 15.75L737.61 15.97Z" fill="black"/>
<path d="M741.83 16.66L741.75 17.19L740.08 16.92C739.966 16.9052 739.852 16.9341 739.759 17.001C739.666 17.0679 739.602 17.1676 739.58 17.28L739.21 19.66L738.69 19.57L739.06 17.23C739.109 16.9806 739.25 16.759 739.457 16.6104C739.663 16.4618 739.918 16.3973 740.17 16.43L741.83 16.66ZM740.83 17.92L740.74 18.45L739.74 18.28L739.82 17.76L740.83 17.92Z" fill="black"/>
<path d="M744.21 17.02L743.68 20.32L743.16 20.23L743.68 16.93L744.21 17.02ZM745.3 17.19C745.456 17.3996 745.687 17.5399 745.945 17.581C746.203 17.6222 746.467 17.5608 746.68 17.41L747.34 17.52C747.591 17.5665 747.815 17.7074 747.966 17.9138C748.116 18.1203 748.182 18.3765 748.15 18.63L747.77 20.97L747.25 20.88L747.62 18.54C747.63 18.484 747.628 18.4266 747.615 18.3712C747.603 18.3159 747.579 18.2637 747.545 18.2179C747.511 18.1721 747.469 18.1336 747.42 18.1047C747.371 18.0759 747.316 18.0572 747.26 18.05L746.6 17.94C746.543 17.93 746.485 17.9315 746.429 17.9443C746.373 17.9571 746.321 17.9809 746.274 18.0145C746.227 18.048 746.188 18.0906 746.158 18.1396C746.128 18.1887 746.108 18.2432 746.1 18.3L745.73 20.66L745.2 20.58L745.57 18.24C745.58 18.1834 745.578 18.1255 745.566 18.0695C745.553 18.0135 745.529 17.9606 745.495 17.914C745.462 17.8674 745.419 17.828 745.37 17.7981C745.321 17.7682 745.267 17.7485 745.21 17.74L744.55 17.64L744.64 17.11L745.3 17.19Z" fill="black"/>
<path d="M751.69 20.75C751.616 20.9696 751.467 21.1564 751.27 21.2786C751.073 21.4009 750.84 21.4508 750.61 21.42L748.51 21.09L748.6 20.56L750.7 20.89C750.79 20.9041 750.882 20.8894 750.962 20.8481C751.043 20.8068 751.109 20.7409 751.15 20.66L751.69 20.75ZM749.17 18.92C749.183 19.0117 749.225 19.0969 749.29 19.1633C749.355 19.2298 749.439 19.2741 749.53 19.29L750.92 19.51C751.151 19.5547 751.359 19.6795 751.507 19.8624C751.655 20.0453 751.734 20.2746 751.73 20.51L751.19 20.43C751.18 20.337 751.139 20.2502 751.074 20.1832C751.008 20.1161 750.923 20.0728 750.83 20.06L749.45 19.84C749.217 19.7974 749.007 19.6735 748.857 19.4904C748.706 19.3073 748.626 19.0768 748.63 18.84L749.17 18.92ZM751.85 18.23L751.77 18.76L749.67 18.43C749.579 18.4167 749.486 18.4317 749.404 18.4728C749.322 18.5139 749.254 18.5793 749.21 18.66L748.67 18.57C748.744 18.3504 748.893 18.1636 749.09 18.0414C749.287 17.9191 749.52 17.8692 749.75 17.9L751.85 18.23Z" fill="black"/>
<path d="M754.9 18.72C755.149 18.7687 755.371 18.9106 755.519 19.1168C755.668 19.3229 755.733 19.578 755.7 19.83L755.17 19.74C755.18 19.684 755.178 19.6266 755.165 19.5712C755.153 19.5159 755.129 19.4637 755.095 19.4179C755.061 19.3721 755.019 19.3336 754.97 19.3047C754.921 19.2759 754.866 19.2572 754.81 19.25L753.43 19.03C753.373 19.02 753.315 19.0215 753.259 19.0343C753.203 19.0471 753.151 19.0709 753.104 19.1045C753.057 19.1381 753.018 19.1806 752.988 19.2296C752.958 19.2787 752.938 19.3332 752.93 19.39L752.71 20.77C752.7 20.8266 752.701 20.8845 752.714 20.9405C752.727 20.9965 752.751 21.0494 752.784 21.096C752.818 21.1426 752.861 21.182 752.91 21.2119C752.959 21.2418 753.013 21.2615 753.07 21.27L754.46 21.49C754.516 21.4999 754.573 21.4984 754.629 21.4855C754.684 21.4726 754.736 21.4486 754.782 21.4149C754.828 21.3813 754.866 21.3387 754.895 21.2897C754.924 21.2407 754.943 21.1864 754.95 21.13L755.48 21.21C755.433 21.4613 755.292 21.6852 755.086 21.8358C754.88 21.9865 754.623 22.0524 754.37 22.02L752.99 21.8C752.739 21.7535 752.515 21.6126 752.364 21.4062C752.213 21.1997 752.148 20.9435 752.18 20.69L752.4 19.3C752.449 19.0506 752.591 18.829 752.797 18.6804C753.003 18.5318 753.258 18.4673 753.51 18.5L754.9 18.72Z" fill="black"/>
<path d="M758.7 19.32C758.951 19.3665 759.175 19.5074 759.326 19.7139C759.476 19.9203 759.542 20.1765 759.51 20.43L758.98 20.35C758.99 20.2935 758.989 20.2355 758.976 20.1795C758.963 20.1235 758.939 20.0707 758.905 20.0241C758.872 19.9774 758.829 19.938 758.78 19.9081C758.731 19.8783 758.677 19.8585 758.62 19.85L757.23 19.66C757.174 19.6501 757.117 19.6516 757.061 19.6645C757.006 19.6774 756.954 19.7014 756.908 19.7351C756.862 19.7687 756.824 19.8113 756.795 19.8603C756.766 19.9093 756.747 19.9636 756.74 20.02L756.52 21.41C756.51 21.466 756.512 21.5234 756.524 21.5788C756.537 21.6341 756.561 21.6863 756.595 21.7321C756.629 21.7779 756.671 21.8164 756.72 21.8453C756.769 21.8741 756.824 21.8928 756.88 21.9L758.26 22.12C758.317 22.13 758.374 22.1285 758.43 22.1157C758.486 22.1029 758.539 22.0791 758.586 22.0455C758.633 22.012 758.672 21.9694 758.702 21.9204C758.732 21.8713 758.752 21.8168 758.76 21.76L759.29 21.85C759.241 22.0994 759.099 22.321 758.893 22.4696C758.687 22.6182 758.432 22.6827 758.18 22.65L756.79 22.43C756.541 22.3813 756.319 22.2394 756.17 22.0332C756.022 21.8271 755.957 21.572 755.99 21.32L756.21 19.94C756.256 19.6887 756.397 19.4648 756.604 19.3142C756.81 19.1635 757.067 19.0976 757.32 19.13L758.7 19.32Z" fill="black"/>
<g style="mix-blend-mode:multiply" opacity="0.5">
<path d="M841.11 86.32C802.11 91.96 808.5 72.54 764.11 98.57C776.21 95.49 786.98 87.27 799.96 87.26C813.13 86.77 829.98 92.66 841.11 86.32Z" fill="#83858F"/>
</g>
<path d="M829.5 140.94C826.75 140.24 821.09 141.09 821.01 144.68C821.79 148.49 833.26 143.97 829.5 140.94Z" fill="#9294A0"/>
<path d="M842.23 131.83C834.04 132.17 833.14 140.93 842.23 140.11C851.49 139.57 853.05 130.38 842.23 131.83Z" fill="#9294A0"/>
<g style="mix-blend-mode:multiply" opacity="0.5">
<path d="M832.43 127.58C827.705 122.559 823.397 117.161 819.55 111.44C818.26 107.85 814.4 106.88 810.93 106.81C789.15 104.25 743.7 115.69 729.93 132.73C727.66 139.73 726.08 147.31 722.7 153.93C727.46 150.53 729.84 140.4 731 134.08C733 135.08 735.54 134.88 737.75 134.85C730.95 155.41 732.89 153.85 739.04 134.77C739.74 134.71 740.44 134.66 741.14 134.58C741 136.472 740.756 138.355 740.41 140.22C741.94 139.02 741.63 136.28 742.15 134.48C752.81 133.07 763.5 131.28 774.05 129.15C776.19 147.24 777.48 145.44 775.53 128.81L776.62 128.55C777.41 134.94 778.03 133.81 777.93 128.23C785.689 126.305 793.329 123.927 800.81 121.11C801.03 122.11 807.7 133.11 808.08 130.22C805.86 127.34 804.32 123.57 802.45 120.45C806.073 118.981 809.583 117.246 812.95 115.26C820.19 124.33 821.52 123.97 814.09 114.52C815.321 113.721 816.426 112.743 817.37 111.62C820.68 117.35 826.8 126.03 832.43 127.58ZM815.24 111.36C813.08 113.36 810.24 114.73 807.63 116.12C799.7 109.63 748.78 121.6 745.13 132.12C714.34 136.97 748.06 121.05 757.6 118.31C769.61 114.02 805.82 103.45 815.24 111.36Z" fill="#292D3C"/>
</g>
<g style="mix-blend-mode:multiply" opacity="0.8">
<path d="M575.23 59.85C572.23 58.93 564.39 58.77 565.06 63.21C565.82 64.82 569.4 64.21 570.69 64.03C573.27 64.49 580.37 62.24 575.23 59.85Z" fill="#878893"/>
</g>
<g style="mix-blend-mode:multiply" opacity="0.8">
<path d="M584.18 61.76C582.56 61.18 579.27 61.44 578.72 63.29C579.52 65.13 588.4 63.86 584.18 61.76Z" fill="#878893"/>
</g>
<path d="M639.22 78.43C636.68 77.33 630.97 77.08 630.22 80.49C630.34 84.15 642.4 81.96 639.22 78.43Z" fill="#9294A0"/>
<path d="M643.86 83.37L643.65 83.3C643.1 82.3 639.75 83.63 641.4 84.4C641.95 84.97 643.13 84.4 643.55 83.84C643.76 83.85 644.19 83.49 643.86 83.37Z" fill="#9294A0"/>
<path d="M653.23 72.05C645.11 70.96 642.82 79.05 651.92 79.8C661.2 80.85 664.04 72.48 653.23 72.05Z" fill="#9294A0"/>
<path d="M609.44 78.12C609.385 77.9308 609.26 77.7697 609.09 77.67C609.24 77.4 608.9 77.44 608.73 77.5C606.98 76.32 602.73 78.88 606.11 79.38C607.16 79.54 609.42 79.57 609.44 78.12Z" fill="#9294A0"/>
<g style="mix-blend-mode:multiply" opacity="0.5">
<path d="M537.12 68.9C535.12 65.36 533.9 61.44 532.38 57.72C525.53 53.3 516.81 53.59 508.94 53.17C501.899 53.1996 494.928 54.5567 488.39 57.17C485.76 60.17 484.3 64.26 481.39 67.17C484.12 66.17 486.55 61.65 487.94 58.8C488.861 59.4588 489.928 59.8843 491.05 60.04C485.25 68.78 486.39 68.27 491.67 60.17L492.67 60.36C492.36 61.1 491.9 62.45 491.59 62.95C492.47 62.57 492.69 61.23 493.16 60.44C498.43 61.15 503.76 61.71 509.06 62.05C507.74 70.68 508.61 70.05 509.81 62.05H510.36C509.9 65.11 510.36 64.66 511.03 62.05C514.997 62.1524 518.968 62.0221 522.92 61.66C524.67 68.54 526 69.22 523.8 61.56C525.715 61.33 527.61 60.959 529.47 60.45C531.67 65.59 532.38 65.59 530.11 60.25C530.799 60.0294 531.453 59.7093 532.05 59.3C532.85 62.49 534.61 67.42 537.12 68.9ZM531.04 58.9C529.69 59.5137 528.264 59.9442 526.8 60.18C522.52 55.93 499.35 55.02 494.94 59.66C479.87 57.95 497.68 54.74 502.68 54.66C511.05 54.57 525 53.3 531.04 58.93V58.9Z" fill="#292D3C"/>
</g>
<g style="mix-blend-mode:multiply" opacity="0.5">
<path d="M692.01 137.98C678.67 141.56 665.32 138.79 651.83 138.59C638.27 139.59 625.91 147.18 612.48 148.74C622.33 149.93 636.58 143.25 647.82 141.44C662.28 140.66 678.87 143.43 692.01 137.98Z" fill="#83858F"/>
</g>
<g style="mix-blend-mode:multiply" opacity="0.5">
<path d="M738.96 114.48C732.66 114.53 726.5 114.28 720.46 116.33C714.64 117.98 707.54 122.25 701.74 121.04C709.66 124.32 718.33 117.79 726.17 116.34C730.02 114.9 736.18 116.3 738.96 114.48Z" fill="#83858F"/>
</g>
<g style="mix-blend-mode:multiply" opacity="0.5">
<path d="M388.28 124.91C391.2 121.264 393.203 116.971 394.12 112.39C394.889 112.903 395.732 113.294 396.62 113.55C393.88 120.49 394.76 120.44 397.45 113.8C399.837 114.392 402.263 114.81 404.71 115.05C402.08 125.05 403.79 123.94 405.82 115.15C410.839 115.503 415.874 115.566 420.9 115.34C421.84 118.71 422.41 119.23 421.75 115.34H422.45C424.23 125.6 425.34 126.34 423.45 115.34C430.18 114.74 436.97 113.87 443.65 112.83C444.28 113.83 444.59 115.52 445.73 115.97C445.91 115.97 445.73 115.77 445.61 115.77C445.109 114.773 444.665 113.748 444.28 112.7C444.71 112.62 445.14 112.54 445.57 112.44C452.57 122.69 454.03 123.27 446.38 112.26C447.802 112.02 449.145 111.444 450.3 110.58C452.14 114.18 455.39 119.88 458.87 121.07C455.65 117.68 453.35 113.4 450.71 109.58C435.46 101.4 413.49 102.86 397.22 108.46C395.14 109.13 392.98 110.46 392.86 112.81C392.01 116.72 388.68 121.66 388.28 124.91ZM396.28 110.5C405.21 101.82 471.38 106.91 441.44 111.79C436.36 106.07 405.59 107.88 400.87 113.35C399.52 112.99 392.82 112.32 396.26 110.5H396.28Z" fill="#292D3C"/>
</g>
<g style="mix-blend-mode:multiply" opacity="0.5">
<path d="M178.42 97.38C181.012 94.7961 182.953 91.6323 184.08 88.15C184.64 88.6126 185.263 88.9931 185.93 89.28C183.17 94.43 183.93 94.43 186.55 89.53C188.355 90.2149 190.21 90.7565 192.1 91.15C189.19 98.61 190.6 98.01 192.96 91.34C196.84 92.0706 200.76 92.5682 204.7 92.83C205.11 95.47 205.54 95.98 205.36 92.83H205.91C206.38 100.95 207.19 101.54 206.66 92.88C211.98 93 217.33 92.96 222.66 92.72C222.71 93.19 223.98 96.06 223.93 95.19C223.626 94.3687 223.369 93.5306 223.16 92.68L224.16 92.6C228.67 101.17 229.73 101.67 224.79 92.52C225.926 92.4569 227.029 92.1133 228 91.52C229.12 94.52 231.15 99.23 233.75 100.46C231.54 97.54 230.12 94 228.41 90.77C217.04 83 200.19 82.25 186.81 85.14C185.13 85.48 183.32 86.29 183.02 88.14C182.05 91.33 179.01 94.89 178.42 97.38ZM185.92 86.86C192.27 80.99 244.98 90.54 221.01 91.86C216.76 86.86 194.22 85.63 189.24 89.46C188.15 89.07 183.25 88.04 185.92 86.86Z" fill="#292D3C"/>
</g>
<g style="mix-blend-mode:multiply" opacity="0.5">
<path d="M103.4 105.01C95.11 101.8 85.83 101.8 77.4 99.09C48.61 82.66 32.61 73.41 -0.850037 83.28C13.01 83.22 27.53 78.28 40.85 84.45C53.61 88.66 64.18 97.37 77.22 100.66C85.52 103.11 94.39 104.1 102.87 105.79C103.19 105.87 103.83 105.18 103.4 105.01Z" fill="#83858F"/>
</g>
<g style="mix-blend-mode:multiply" opacity="0.8">
<path d="M8.27 90.12C9.61 91.6 19.52 92.73 20.39 90.66C22.68 85.4 4.34 84.84 8.27 90.12Z" fill="#878893"/>
</g>
<g style="mix-blend-mode:multiply" opacity="0.8">
<path d="M-1.31006 90.41C-0.490059 92 4.78994 92.09 5.68994 90.71C5.35994 88.5 -1.24006 87.8 -1.31006 90.41Z" fill="#878893"/>
</g>
<g style="mix-blend-mode:multiply" opacity="0.5">
<path d="M11.2599 134.93C15.3795 130.857 18.4653 125.858 20.2599 120.35C21.1396 121.085 22.1237 121.685 23.1799 122.13C18.7699 130.36 19.8799 130.43 24.1799 122.55C27.0377 123.611 29.9687 124.464 32.9499 125.1C28.2499 137.21 30.5299 135.99 34.3099 125.38C40.4402 126.539 46.6348 127.327 52.8599 127.74C53.5299 132.04 54.1699 132.74 53.8599 127.81L54.7299 127.87C55.4899 140.87 56.73 141.87 55.91 127.93C64.3099 128.13 72.7699 128.05 81.1499 127.67C81.7899 128.98 81.93 131.14 83.27 131.86C83.5 131.86 83.27 131.6 83.16 131.58C82.58 130.58 82.3999 128.71 81.9399 127.58L83.5799 127.44C90.8599 141.15 92.5799 142.07 84.5799 127.32C86.2799 127.06 88.2799 126.87 89.6499 125.81C91.4299 130.5 94.65 138 98.7299 139.93C94.6399 134.93 92.9399 128.33 89.2499 123.17C79.6699 118.02 68.2499 115.11 57.4699 113.94C45.0899 113.71 30.1999 111.19 19.4699 118.38C17.6699 123.99 12.6599 130.38 11.2599 134.93ZM23.1099 118.31C37.2399 108.73 115.8 124.77 78.5599 126.26C73.8199 118.61 34.2399 116.39 28.3599 122.48C26.7899 121.83 18.6099 120.08 23.1099 118.31Z" fill="#292D3C"/>
</g>
<g style="mix-blend-mode:multiply" opacity="0.5">
<path d="M143.68 66.96C141.26 66.53 135.61 66.78 135.28 69.78C135.75 72.57 147.27 69.51 143.68 66.96Z" fill="#9294A0"/>
<path d="M149.04 70.22C148.967 70.2304 148.893 70.2304 148.82 70.22C148.18 69.53 145.09 70.98 146.82 71.4C147.43 71.76 148.45 71.19 148.82 70.67C149.02 70.66 149.38 70.27 149.04 70.22Z" fill="#9294A0"/>
<path d="M156.29 60.07C148.23 60.22 147.38 67.07 156.29 66.33C165.82 65.83 166.61 58.87 156.29 60.07Z" fill="#9294A0"/>
<path d="M114.61 70.72C114.512 70.5715 114.362 70.4646 114.19 70.42C113.5 69.72 108.46 71.01 110.93 72.24C111.93 72.13 114.66 72.17 114.61 70.72Z" fill="#9294A0"/>
</g>
<g style="mix-blend-mode:multiply" opacity="0.5">
<path d="M319.53 110.5C309.53 110.77 301.12 105.58 291.53 103.81C281.77 102.42 270.82 105.81 261.83 105.41C270.69 108.13 280.05 104.87 289.12 106.15C298.74 107.14 310.96 113.82 319.53 110.5Z" fill="#83858F"/>
</g>
<g style="mix-blend-mode:multiply" opacity="0.8">
<path d="M221.73 131.75C218.3 130.59 208.09 130.54 209.19 135.9C210.12 137.9 214.54 137.11 216.13 136.9C219.3 137.47 228.07 134.66 221.73 131.75Z" fill="#878893"/>
</g>
<g style="mix-blend-mode:multiply" opacity="0.8">
<path d="M232.77 134.11C230.77 133.38 226.77 133.72 226.03 135.99C226.92 138.25 238.13 136.66 232.77 134.11Z" fill="#878893"/>
</g>
<g style="mix-blend-mode:screen" opacity="0.4">
<path d="M271.47 57.32C274.28 57.43 277.07 57.54 279.89 57.43C277.097 57.0641 274.271 57.0271 271.47 57.32Z" fill="#9294A0"/>
</g>
<g style="mix-blend-mode:screen" opacity="0.4">
<path d="M307.71 56.35C300.898 56.2913 294.092 56.7493 287.35 57.72C297.94 58.22 306.65 65.11 317.08 65.72C327.89 64.99 338.75 65.72 349.51 65.19C335.61 62.38 321.83 58.05 307.71 56.35Z" fill="#9294A0"/>
</g>
<g style="mix-blend-mode:multiply" opacity="0.5">
<path d="M350.74 63.66C331.86 63.78 313.99 54.89 295.05 55.18C276.71 56.38 255.81 58.05 238.92 50.91C254.2 59.06 273.71 59.59 290.75 58.01C306.27 56.76 321.42 60.2 336.44 63.69C338.78 64.37 351.02 65.92 350.74 63.66Z" fill="#83858F"/>
</g>
<g style="mix-blend-mode:multiply" opacity="0.8">
<path d="M282.19 73.4C283.53 74.93 293.87 76.1 294.77 73.92C297.15 68.5 278.1 67.91 282.19 73.4Z" fill="#878893"/>
</g>
<g style="mix-blend-mode:multiply" opacity="0.8">
<path d="M272.24 73.66C273.1 75.32 278.57 75.41 279.55 73.98C279.16 71.71 272.33 70.99 272.24 73.66Z" fill="#878893"/>
</g>
<g style="mix-blend-mode:multiply" opacity="0.5">
<path d="M663.61 121.81C661.19 121.38 655.54 121.63 655.22 124.63C655.67 127.41 667.21 124.36 663.61 121.81Z" fill="#9294A0"/>
<path d="M668.96 125.07C668.887 125.064 668.813 125.064 668.74 125.07C668.11 124.36 665.01 125.81 666.74 126.24C667.34 126.59 668.39 126.03 668.74 125.51C668.95 125.45 669.31 125.12 668.96 125.07Z" fill="#9294A0"/>
<path d="M676.21 114.91C668.06 115.18 667.21 121.77 676.21 121.18C685.75 120.66 686.48 113.72 676.21 114.91Z" fill="#9294A0"/>
<path d="M634.49 125.58C634.398 125.426 634.252 125.312 634.08 125.26C633.35 124.59 628.35 125.86 630.82 127.08C631.86 126.98 634.61 127.02 634.49 125.58Z" fill="#9294A0"/>
</g>
<g style="mix-blend-mode:multiply" opacity="0.8">
<path d="M149.22 119.45C147.22 119.1 142.63 119.3 142.36 121.76C142.74 124.02 152.17 121.53 149.22 119.45Z" fill="#878893"/>
<path d="M153.61 122.11H153.43C152.91 121.54 150.38 122.72 151.79 123.11C152.27 123.4 153.13 122.94 153.43 122.51C153.61 122.42 153.88 122.15 153.61 122.11Z" fill="#878893"/>
<path d="M159.52 113.82C152.94 113.94 152.24 119.51 159.52 118.93C167.31 118.54 167.9 112.84 159.52 113.82Z" fill="#878893"/>
<path d="M125.45 122.52C125.373 122.396 125.251 122.307 125.11 122.27C124.45 121.72 120.51 122.71 122.44 123.75C123.29 123.66 125.53 123.66 125.45 122.52Z" fill="#878893"/>
</g>
<g style="mix-blend-mode:screen" opacity="0.4">
<path d="M516.69 109.8C513.786 109.301 510.846 109.041 507.9 109.02C520.59 118.43 529.35 119.02 543.9 113.91C534.67 113.9 525.61 112.05 516.69 109.8Z" fill="#9294A0"/>
</g>
<g style="mix-blend-mode:multiply" opacity="0.5">
<path d="M551.61 113.58C541.55 113.12 531.4 113.81 521.8 110.21C512.42 106.68 501.37 108.5 492.15 107.98C499.05 109.84 506.15 108.88 513.15 109.64C525.37 114.04 539.41 116.12 551.61 113.58Z" fill="#83858F"/>
</g>
<g style="mix-blend-mode:multiply" opacity="0.8">
<path d="M586.16 114.08C582.73 112.93 572.52 112.87 573.62 118.23C574.55 120.23 578.97 119.44 580.56 119.23C583.73 119.8 592.49 117.03 586.16 114.08Z" fill="#878893"/>
</g>
<g style="mix-blend-mode:multiply" opacity="0.8">
<path d="M597.2 116.45C595.2 115.72 591.14 116.05 590.46 118.32C591.34 120.59 602.55 118.98 597.2 116.45Z" fill="#878893"/>
</g>
<g style="mix-blend-mode:multiply" opacity="0.8">
<path d="M378.77 47.5C375.31 46.32 364.96 46.28 366.08 51.71C367.01 53.71 371.49 52.93 373.08 52.71C376.31 53.3 385.16 50.48 378.77 47.5Z" fill="#9294A0"/>
</g>
<g style="mix-blend-mode:multiply" opacity="0.8">
<path d="M389.94 49.89C387.94 49.16 383.81 49.5 383.12 51.79C384.02 54.09 395.36 52.46 389.94 49.89Z" fill="#9294A0"/>
</g>
<g style="mix-blend-mode:multiply" opacity="0.5">
<path d="M354.9 125.89C353.41 126.25 351.9 126.68 350.48 127.12C359.83 127.24 368.92 128.12 378.23 126.96C370.44 126.04 362.61 124.04 354.9 125.89Z" fill="#83858F"/>
</g>
</g>
<defs>
<linearGradient id="paint0_linear_17_421" x1="710.66" y1="60.89" x2="705.79" y2="117.3" gradientUnits="userSpaceOnUse">
<stop offset="0.19" stop-color="#892613"/>
<stop offset="0.9" stop-color="#1E0F25" stop-opacity="0"/>
</linearGradient>
<linearGradient id="paint1_linear_17_421" x1="683.58" y1="64.55" x2="687.75" y2="64.55" gradientUnits="userSpaceOnUse">
<stop stop-color="#36204C"/>
<stop offset="1" stop-color="#583681"/>
</linearGradient>
<linearGradient id="paint2_linear_17_421" x1="685.54" y1="64.42" x2="687.75" y2="64.42" gradientUnits="userSpaceOnUse">
<stop stop-color="#36204C"/>
<stop offset="1" stop-color="#583681"/>
</linearGradient>
<linearGradient id="paint3_linear_17_421" x1="683.58" y1="64.66" x2="686.18" y2="64.66" gradientUnits="userSpaceOnUse">
<stop stop-color="#36204C"/>
<stop offset="1" stop-color="#583681"/>
</linearGradient>
<linearGradient id="paint4_linear_17_421" x1="717.6" y1="53.93" x2="722.28" y2="53.93" gradientUnits="userSpaceOnUse">
<stop stop-color="#36204C"/>
<stop offset="1" stop-color="#583681"/>
</linearGradient>
<linearGradient id="paint5_linear_17_421" x1="717.6" y1="53.02" x2="722.35" y2="53.02" gradientUnits="userSpaceOnUse">
<stop stop-color="#36204C"/>
<stop offset="1" stop-color="#583681"/>
</linearGradient>
<linearGradient id="paint6_linear_17_421" x1="680.7" y1="57.58" x2="720.84" y2="57.58" gradientUnits="userSpaceOnUse">
<stop stop-color="#E4DAE5"/>
<stop offset="1" stop-color="#F7F3F8"/>
</linearGradient>
<linearGradient id="paint7_linear_17_421" x1="697.41" y1="70.23" x2="700.2" y2="70.23" gradientUnits="userSpaceOnUse">
<stop stop-color="#CDB8D4" stop-opacity="0.9"/>
<stop offset="1" stop-color="#CDB8D4" stop-opacity="0.3"/>
</linearGradient>
<linearGradient id="paint8_linear_17_421" x1="680.15" y1="23.98" x2="715.44" y2="23.98" gradientUnits="userSpaceOnUse">
<stop stop-color="#2D2969"/>
<stop offset="1" stop-color="#1C1E40"/>
</linearGradient>
<linearGradient id="paint9_linear_17_421" x1="680.14" y1="19.04" x2="715.46" y2="19.04" gradientUnits="userSpaceOnUse">
<stop stop-color="#E4DAE5"/>
<stop offset="1" stop-color="#F7F3F8"/>
</linearGradient>
<linearGradient id="paint10_linear_17_421" x1="684.16" y1="41.24" x2="711.43" y2="41.24" gradientUnits="userSpaceOnUse">
<stop stop-color="#36204C"/>
<stop offset="1" stop-color="#583681"/>
</linearGradient>
<linearGradient id="paint11_linear_17_421" x1="684.16" y1="40.54" x2="711.43" y2="40.54" gradientUnits="userSpaceOnUse">
<stop stop-color="#36204C"/>
<stop offset="1" stop-color="#583681"/>
</linearGradient>
<linearGradient id="paint12_linear_17_421" x1="684.16" y1="41.92" x2="711.48" y2="41.92" gradientUnits="userSpaceOnUse">
<stop stop-color="#36204C"/>
<stop offset="1" stop-color="#583681"/>
</linearGradient>
<linearGradient id="paint13_linear_17_421" x1="693.58" y1="76.2" x2="698.39" y2="76.2" gradientUnits="userSpaceOnUse">
<stop stop-color="#36204C"/>
<stop offset="1" stop-color="#583681"/>
</linearGradient>
<linearGradient id="paint14_linear_17_421" x1="700.83" y1="5.1" x2="719.25" y2="23.67" gradientUnits="userSpaceOnUse">
<stop stop-color="white"/>
<stop offset="1" stop-color="white" stop-opacity="0"/>
</linearGradient>
<linearGradient id="paint15_linear_17_421" x1="680.3" y1="17.85" x2="692.89" y2="38.19" gradientUnits="userSpaceOnUse">
<stop stop-color="white"/>
<stop offset="1" stop-color="white" stop-opacity="0"/>
</linearGradient>
<linearGradient id="paint16_linear_17_421" x1="706.77" y1="56.44" x2="711.6" y2="56.44" gradientUnits="userSpaceOnUse">
<stop stop-color="#36204C"/>
<stop offset="1" stop-color="#583681"/>
</linearGradient>
<linearGradient id="paint17_linear_17_421" x1="707.19" y1="45.15" x2="711.09" y2="45.15" gradientUnits="userSpaceOnUse">
<stop stop-color="#36204C"/>
<stop offset="1" stop-color="#583681"/>
</linearGradient>
<linearGradient id="paint18_linear_17_421" x1="709.21" y1="42.55" x2="711.18" y2="42.55" gradientUnits="userSpaceOnUse">
<stop stop-color="#36204C"/>
<stop offset="1" stop-color="#583681"/>
</linearGradient>
<linearGradient id="paint19_linear_17_421" x1="710.34" y1="58.07" x2="711.7" y2="58.07" gradientUnits="userSpaceOnUse">
<stop stop-color="#36204C"/>
<stop offset="1" stop-color="#583681"/>
</linearGradient>
<linearGradient id="paint20_linear_17_421" x1="685.94" y1="45.19" x2="689.97" y2="45.19" gradientUnits="userSpaceOnUse">
<stop stop-color="#36204C"/>
<stop offset="1" stop-color="#583681"/>
</linearGradient>
<linearGradient id="paint21_linear_17_421" x1="686.01" y1="42.55" x2="687.98" y2="42.55" gradientUnits="userSpaceOnUse">
<stop stop-color="#36204C"/>
<stop offset="1" stop-color="#583681"/>
</linearGradient>
<linearGradient id="paint22_linear_17_421" x1="696.53" y1="76.16" x2="698.38" y2="76.16" gradientUnits="userSpaceOnUse">
<stop stop-color="#36204C"/>
<stop offset="1" stop-color="#583681"/>
</linearGradient>
<linearGradient id="paint23_linear_17_421" x1="693.58" y1="76.31" x2="695.46" y2="76.31" gradientUnits="userSpaceOnUse">
<stop stop-color="#36204C"/>
<stop offset="1" stop-color="#583681"/>
</linearGradient>
<linearGradient id="paint24_linear_17_421" x1="699.36" y1="76.2" x2="704.17" y2="76.2" gradientUnits="userSpaceOnUse">
<stop stop-color="#36204C"/>
<stop offset="1" stop-color="#583681"/>
</linearGradient>
<linearGradient id="paint25_linear_17_421" x1="699.36" y1="76.15" x2="700.91" y2="76.15" gradientUnits="userSpaceOnUse">
<stop stop-color="#36204C"/>
<stop offset="1" stop-color="#583681"/>
</linearGradient>
<linearGradient id="paint26_linear_17_421" x1="702.14" y1="76.31" x2="704.16" y2="76.31" gradientUnits="userSpaceOnUse">
<stop stop-color="#36204C"/>
<stop offset="1" stop-color="#583681"/>
</linearGradient>
<linearGradient id="paint27_linear_17_421" x1="687.75" y1="50.74" x2="708.18" y2="50.74" gradientUnits="userSpaceOnUse">
<stop stop-color="#E4DAE5"/>
<stop offset="1" stop-color="#F7F3F8"/>
</linearGradient>
<linearGradient id="paint28_linear_17_421" x1="687.75" y1="42.46" x2="708.18" y2="42.46" gradientUnits="userSpaceOnUse">
<stop stop-color="#E4DAE5"/>
<stop offset="1" stop-color="#F7F3F8"/>
</linearGradient>
<linearGradient id="paint29_linear_17_421" x1="690.19" y1="53.94" x2="705.13" y2="53.94" gradientUnits="userSpaceOnUse">
<stop stop-color="#CDB8D4" stop-opacity="0.9"/>
<stop offset="1" stop-color="#CDB8D4" stop-opacity="0.3"/>
</linearGradient>
<linearGradient id="paint30_linear_17_421" x1="684.7" y1="57.58" x2="686.22" y2="57.58" gradientUnits="userSpaceOnUse">
<stop stop-color="#CDB8D4" stop-opacity="0.9"/>
<stop offset="1" stop-color="#CDB8D4" stop-opacity="0.3"/>
</linearGradient>
<linearGradient id="paint31_linear_17_421" x1="712.07" y1="52.89" x2="717.75" y2="52.89" gradientUnits="userSpaceOnUse">
<stop stop-color="#CDB8D4" stop-opacity="0.9"/>
<stop offset="1" stop-color="#CDB8D4" stop-opacity="0.3"/>
</linearGradient>
<linearGradient id="paint32_linear_17_421" x1="726.455" y1="19.2904" x2="768.647" y2="17.2859" gradientUnits="userSpaceOnUse">
<stop stop-color="#E4DAE5"/>
<stop offset="1" stop-color="#F7F3F8"/>
</linearGradient>
</defs>
</svg>
