<svg width="21610" height="3639" viewBox="0 0 21610 3639" fill="none" xmlns="http://www.w3.org/2000/svg">
<g clip-path="url(#clip0_202_4)">
<mask id="mask0_202_4" style="mask-type:luminance" maskUnits="userSpaceOnUse" x="-6210" y="175" width="31874" height="3144">
<path d="M-6209.15 3318.78C-6209.15 3318.78 213.839 111.97 10531.8 176.913C20849.8 241.855 25664 3220.24 25664 3220.24L-6209.15 3318.78Z" fill="white"/>
</mask>
<g mask="url(#mask0_202_4)">
<path d="M16447.6 -1035.66C14991.7 -707.228 13520.1 -537.97 12047.4 -526.761C10534.3 -515.552 9034.71 -691.535 7532.85 -937.016C6009.69 -1184.74 4482.05 -1447.03 2988.03 -1958.17C2300.99 -2193.56 1616.18 -2467.06 940.345 -2757.38C624.281 -2893.01 308.218 -3039.85 0 -3211.35V3081.46H21608.9V-2925.52C21455.3 -2857.14 21300.7 -2789.89 21147.1 -2723.75C19618.4 -1963.77 18044.8 -1397.71 16447.6 -1035.66Z" fill="#B2B0AE"/>
<path opacity="0.61" d="M21148.2 -2724.87C19940 -2124.06 18703.8 -1644.31 17450.7 -1291.22C17493.3 -1157.83 17463.1 -1026.69 17384.6 -925.804C17200.8 -690.412 16931.8 -588.408 16700.9 -500.977C16537.3 -439.327 16371.4 -383.281 16204.4 -347.412C15746 -252.134 15285.4 -189.363 14829.2 -78.3922C14574.8 -16.7419 14319.2 52.755 14071.6 159.242C13915.8 226.497 13705.1 306.082 13597.5 498.879C13426 803.768 13860.8 1084 13999.8 1165.82C14365.2 1381.04 14749.6 1463.99 15139.7 1518.91C15369.4 1551.42 15599.2 1585.05 15823.4 1664.63C15934.3 1703.86 16071 1745.34 16160.7 1858.55C16289.6 2018.84 16130.4 2182.49 16031.8 2257.59C15817.7 2421.25 15577.9 2517.65 15344.8 2602.84C15014.1 2723.89 14675.7 2803.48 14338.3 2868.49C13610.9 3008.61 12877.9 3062.41 12144.9 3081.47H21608.9V-2925.52C21456.5 -2857.14 21301.8 -2789.89 21148.2 -2724.87Z" fill="#B2B0AE"/>
<path d="M21148.2 -2724.87C21088.8 -2694.61 21029.4 -2666.58 20970 -2637.44C21105.6 -2598.21 21184.1 -2495.08 21125.8 -2285.47C21042.9 -1985.07 20822.1 -1775.46 20637.2 -1626.38C20396.2 -1431.34 20137.3 -1286.74 19879.5 -1143.26C19584.7 -979.608 19300.1 -784.569 19014.2 -591.771C18665.7 -356.379 18317.1 -114.262 17985.4 171.572C17831.8 302.719 17683.9 445.075 17537 590.794C17423.8 702.886 17309.5 822.823 17217.6 973.026C17124.6 1124.35 17040.5 1327.23 17075.3 1540.21C17104.4 1721.8 17190.7 1873.12 17296.1 1975.12C17510.1 2183.61 17780.3 2251.99 18031.3 2287.86C18300.3 2325.97 18574.9 2340.54 18846.1 2334.94C19570.2 2318.12 20324.5 2148.87 21033.9 2436.94C21223.3 2513.16 21499 2688.03 21462.1 3044.48C21460.9 3056.81 21458.7 3069.14 21457.6 3082.59H21610V-2925.52C21456.5 -2857.14 21301.8 -2789.89 21148.2 -2724.87Z" fill="#C4C0BF"/>
<path opacity="0.61" d="M8282.66 3026.54C7799.6 2977.22 7315.41 2893.15 6842.44 2736.22C6683.29 2683.54 6517.41 2642.07 6361.62 2575.93C6280.92 2542.31 6134.1 2473.93 6137.46 2315.88C6140.82 2156.71 6255.14 2077.13 6342.57 2019.96C6463.61 1940.37 6626.13 1898.9 6721.39 1757.67C6744.93 1721.8 6808.82 1639.97 6779.67 1581.68C6758.38 1537.97 6722.51 1513.31 6690.01 1492.01C6586.9 1422.51 6480.42 1364.22 6371.71 1314.9C6145.31 1210.66 5913.3 1137.8 5681.3 1067.18C4698.36 764.535 3725.51 329.62 2779.57 -169.187C2455.66 -339.566 2129.51 -512.187 1817.93 -726.282C1698 -808.109 1576.96 -898.903 1472.72 -1021.08C1399.87 -1106.27 1318.05 -1222.85 1309.09 -1367.44C1282.19 -1791.15 1703.6 -1914.45 1909.83 -1942.47C2088.04 -1967.13 2265.12 -1952.56 2443.33 -1967.13C2593.51 -1979.46 2743.7 -1987.31 2895.01 -1992.92C2239.34 -2220.46 1587.04 -2481.63 940.345 -2758.5C624.281 -2894.13 308.218 -3040.97 0 -3212.47V3080.34H9041.43C8789.26 3069.14 8535.96 3052.32 8282.66 3026.54Z" fill="#B2B0AE"/>
<path d="M3713.19 2966.01C3707.58 2825.9 3758.02 2682.42 3812.94 2571.45C3877.94 2441.42 3958.64 2331.57 4033.73 2212.76C4094.25 2117.48 4172.71 1993.06 4164.86 1851.82C4153.66 1651.18 4010.2 1502.1 3904.84 1402.33C3781.55 1284.64 3649.3 1190.48 3510.32 1116.5C2914.06 797.041 2266.24 777.985 1640.84 709.609C1093.89 650.201 548.067 533.626 0 477.58V3080.34H3733.36C3722.15 3044.47 3714.31 3006.36 3713.19 2966.01Z" fill="#C4C0BF"/>
<path d="M4615.42 -1309.16C4436.1 -1295.71 4256.77 -1273.29 4079.68 -1223.97C3950.79 -1188.1 3814.06 -1141.02 3699.74 -1041.26C3621.28 -971.761 3550.67 -866.395 3554.03 -722.918C3560.76 -450.536 3747.93 -245.408 3893.63 -124.35C4118.91 62.8432 4371.09 173.814 4621.03 271.333C4883.29 373.336 5145.56 477.582 5408.94 568.376C5810.19 704.006 6214.79 810.493 6617.16 931.552C6904.08 1017.86 7186.52 1127.71 7474.57 1208.42C7692 1268.95 7917.28 1329.48 8121.26 1460.62C8231.1 1531.24 8464.23 1729.64 8347.66 1949.34C8306.19 2026.69 8244.55 2095.06 8275.93 2203.79C8298.35 2284.5 8346.54 2341.66 8398.1 2382.02C8505.69 2466.08 8626.74 2503.07 8744.42 2545.67C9049.28 2654.4 9361.98 2719.41 9674.68 2765.37C10372.9 2868.49 11085.8 2871.86 11780.6 2719.41C12092.2 2651.04 12413.9 2562.48 12707.5 2390.98C12817.4 2327.09 13076.3 2172.4 12992.2 1933.65C12920.5 1730.76 12745.7 1607.46 12614.5 1506.58C12435.2 1367.59 12248 1249.89 12066.5 1116.5C11923 1011.14 11461.2 670.379 11738.1 392.392C11863.6 265.729 12027.2 216.408 12174 173.814C12356.7 121.131 12541.7 87.5032 12725.5 58.3595C12845.4 39.3039 12968.7 31.4576 13087.5 -2.16985C13186.1 -30.1927 13283.6 -59.3365 13381.1 -90.7221C13740.9 -205.055 14105.2 -332.84 14448.1 -531.242C14538.9 -583.925 14639.8 -641.091 14726.1 -724.039C13835.1 -600.738 12941.8 -534.604 12046.3 -527.879C10533.2 -516.67 9033.59 -692.653 7531.73 -938.134C6820.02 -1053.59 6108.32 -1172.4 5398.86 -1319.24C5137.71 -1329.33 4876.57 -1329.33 4615.42 -1309.16Z" fill="#C4C0BF"/>
<path opacity="0.5" d="M21114 1397.38C21036.8 1401.86 20961.8 1418.65 20885.6 1432.09C20796.1 1447.77 20705.4 1434.33 20616.9 1420.89C20445.6 1394.02 20285.5 1345.87 20109.8 1352.59C19954.1 1358.19 19815.3 1406.34 19672 1464.56C19599.2 1493.67 19529.8 1530.62 19461.5 1567.57C19383.2 1610.12 19302.6 1667.23 19215.2 1685.14C19208.5 1686.26 19198.4 1700.82 19210.8 1700.82C19273.4 1696.34 19324.9 1670.59 19380.9 1645.95C19454.8 1612.36 19528.7 1577.65 19603.7 1547.42C19763.8 1482.48 19923.9 1427.61 20097.5 1422.01C20271 1416.42 20449 1447.77 20620.3 1466.8C20698.7 1475.76 20773.7 1476.88 20852 1467.92C20938.3 1458.96 21022.2 1429.85 21108.4 1416.42C21116.3 1413.06 21127.5 1396.26 21114 1397.38Z" fill="#83858F"/>
<path opacity="0.8" d="M16872 3098.2C16865.3 3095.96 16857.4 3093.72 16850.7 3091.48C16794.7 3079.16 16745.5 3083.64 16691.7 3098.2C16653.7 3108.27 16598.8 3134.03 16621.2 3181.05C16640.2 3220.24 16728.7 3205.69 16760 3201.21C16805.9 3195.61 16863 3205.69 16900 3169.86C16935.8 3135.15 16906.7 3110.51 16872 3098.2Z" fill="#878893"/>
<path d="M20826.3 2746.61C20791.6 2732.06 20731.1 2744.37 20696.4 2754.45C20692 2755.57 20685.2 2758.93 20677.4 2763.41C20647.2 2774.61 20610.2 2801.48 20616.9 2838.43C20628.1 2906.73 20764.7 2858.58 20800.6 2838.43C20825.2 2824.99 20874.4 2765.65 20826.3 2746.61Z" fill="#9294A0"/>
<path d="M20960.6 2852.98C20958.4 2852.98 20957.3 2851.86 20955 2851.86C20952.8 2848.51 20949.5 2846.27 20941.6 2846.27C20939.4 2846.27 20936 2847.39 20933.8 2847.39C20932.7 2847.39 20931.5 2847.39 20930.4 2847.39C20913.6 2848.51 20901.3 2857.46 20893.5 2872.02C20889 2878.74 20890.1 2887.69 20899.1 2888.81C20901.3 2888.81 20902.4 2888.81 20904.7 2889.93C20909.1 2894.41 20917 2895.53 20923.7 2892.17C20928.2 2889.93 20931.5 2887.69 20933.8 2885.46C20938.3 2883.22 20941.6 2880.98 20946.1 2878.74C20949.5 2875.38 20952.8 2870.9 20955 2866.42C20959.5 2866.42 20968.5 2855.22 20960.6 2852.98Z" fill="#9294A0"/>
<path d="M21140.9 2521.55C21116.3 2522.67 21082.7 2531.63 21053.6 2547.31C21037.9 2549.55 21023.3 2556.26 21009.9 2569.7C20974.1 2603.29 20968.5 2641.36 20994.2 2682.79C21021.1 2726.46 21097.2 2728.7 21142 2726.46C21217 2723.1 21322.3 2685.03 21329 2597.69C21335.7 2512.6 21193.5 2519.31 21140.9 2521.55Z" fill="#9294A0"/>
<path d="M20099.7 2869.78C20097.5 2865.3 20094.1 2861.94 20089.6 2859.7C20090.7 2856.34 20089.6 2852.98 20085.1 2855.22C20084 2856.34 20081.8 2856.34 20080.7 2856.34C20066.1 2854.1 20048.2 2855.22 20039.2 2857.46C20021.3 2860.82 20005.7 2869.78 19995.6 2885.46C19986.6 2900.01 19992.2 2914.57 20007.9 2919.05C20012.4 2920.17 20018 2919.05 20023.6 2916.81C20030.3 2917.93 20038.1 2916.81 20043.7 2914.57C20052.7 2912.33 20060.5 2911.21 20069.5 2907.85C20084 2904.49 20106.4 2887.69 20099.7 2869.78Z" fill="#9294A0"/>
<path opacity="0.5" d="M20899.1 2416.3C20821.8 2333.45 20747.9 2248.35 20680.8 2156.53C20647.2 2110.63 20611.3 2065.84 20581.1 2016.57C20569.9 1998.66 20558.7 1971.78 20541.9 1956.11C20537.4 1950.51 20531.8 1943.79 20524 1938.19C20480.3 1910.2 20418.8 1905.72 20369.5 1901.24C20295.6 1894.52 20220.6 1891.17 20145.6 1891.17C19867.9 1887.81 19602.6 1970.66 19333.9 2027.77C19135.7 2070.32 18951 2164.37 18771.9 2261.78C18770.8 2262.9 18768.5 2262.9 18767.4 2264.02C18637.5 2322.25 18495.3 2388.31 18394.6 2491.32C18374.4 2511.48 18367.7 2528.27 18370 2542.83C18359.9 2567.46 18354.3 2594.33 18346.4 2621.21C18331.9 2676.07 18316.2 2728.7 18297.2 2782.44C18263.6 2876.5 18241.2 2980.63 18190.8 3067.97C18185.2 3076.92 18197.5 3075.8 18202 3071.32C18265.8 3003.02 18303.9 2903.37 18335.2 2817.15C18365.5 2736.54 18387.9 2660.4 18395.7 2577.54C18412.5 2586.5 18433.8 2593.21 18455 2594.33C18490.9 2597.69 18526.7 2597.69 18562.5 2596.57C18559.2 2604.41 18555.8 2613.37 18554.7 2623.45C18548 2662.64 18528.9 2697.35 18516.6 2735.42C18503.2 2775.72 18493.1 2817.15 18480.8 2857.46C18469.6 2895.53 18468.5 2939.2 18445 2972.79C18441.6 2978.39 18449.4 2978.39 18452.8 2975.03C18490.9 2926.88 18505.4 2850.74 18525.6 2793.64C18540.1 2753.33 18553.6 2714.14 18570.4 2674.95C18580.4 2650.32 18582.7 2618.97 18595 2594.33C18612.9 2593.21 18629.7 2590.98 18646.5 2589.86C18640.9 2610.01 18644.2 2632.4 18639.8 2653.68C18638.7 2662.64 18636.4 2717.5 18630.8 2720.86C18627.5 2721.98 18621.9 2732.06 18628.6 2729.82C18646.5 2726.46 18651 2695.11 18653.2 2681.67C18659.9 2650.32 18666.6 2620.09 18671.1 2587.62C18673.4 2587.62 18675.6 2587.62 18677.8 2586.5C18834.6 2569.7 18991.3 2536.11 19148.1 2512.6C19253.3 2496.92 19356.3 2477.89 19459.3 2455.49C19460.4 2501.4 19476.1 2547.31 19481.7 2592.09C19490.6 2654.8 19489.5 2720.86 19509.7 2780.2C19511.9 2786.92 19523.1 2779.08 19522 2773.49C19509.7 2710.78 19516.4 2642.48 19513 2578.66C19510.8 2534.99 19505.2 2490.2 19495.1 2446.53C19504.1 2444.29 19513 2442.06 19522 2439.82C19524.2 2451.01 19527.6 2463.33 19527.6 2474.53C19527.6 2498.04 19534.3 2524.91 19541 2548.43C19543.3 2556.26 19554.5 2546.19 19554.5 2540.59C19552.2 2512.6 19551.1 2482.36 19553.3 2453.25C19553.3 2446.53 19554.5 2438.7 19554.5 2430.86C19588 2423.02 19621.6 2414.06 19655.2 2405.11C19810.8 2361.44 19968.7 2315.53 20119.8 2255.07C20127.7 2296.5 20166.9 2333.45 20188.1 2365.92C20216.1 2408.46 20241.9 2463.33 20283.3 2494.68C20288.9 2499.16 20304.6 2485.72 20299 2480.13C20263.2 2444.29 20244.1 2384.95 20219.5 2341.28C20204.9 2315.53 20187 2294.26 20174.7 2268.5C20169.1 2257.31 20165.7 2247.23 20161.3 2238.27C20247.5 2202.44 20332.6 2162.13 20412.1 2115.1C20414.3 2113.98 20417.7 2111.75 20419.9 2110.63C20437.8 2133.02 20456.8 2154.29 20475.9 2174.45C20506.1 2208.04 20533 2246.11 20563.2 2278.58C20568.8 2284.18 20583.3 2272.98 20577.8 2266.26C20545.3 2228.19 20519.5 2185.65 20488.2 2146.46C20475.9 2130.78 20463.6 2107.27 20447.9 2091.59C20474.8 2072.56 20508.3 2046.8 20528.5 2019.93C20535.2 2035.61 20541.9 2050.16 20550.9 2063.6C20581.1 2111.75 20615.8 2157.65 20650.5 2202.44C20715.5 2285.3 20801.7 2363.68 20887.9 2424.14C20892.4 2430.86 20903.5 2421.9 20899.1 2416.3ZM20474.8 2015.45C20461.3 2033.37 20433.3 2049.04 20415.4 2060.24C20374 2087.11 20331.4 2110.63 20286.7 2133.02C20285.5 2122.94 20279.9 2113.98 20271 2109.51C20203.8 2080.39 20113.1 2085.99 20040.4 2085.99C19945.2 2085.99 19848.9 2107.27 19754.9 2122.94C19657.5 2138.62 19562.3 2158.77 19466 2182.29C19281.3 2227.07 19095.4 2276.34 18926.4 2363.68C18863.7 2396.15 18788.7 2435.34 18751.7 2498.04C18745 2509.24 18741.7 2519.31 18740.5 2528.27C18690.2 2536.11 18639.8 2543.95 18588.3 2547.31C18543.5 2550.67 18497.6 2552.91 18452.8 2546.19C18440.5 2543.95 18418.1 2540.59 18413.6 2526.03C18405.8 2502.52 18495.3 2448.77 18509.9 2437.58C18579.3 2388.31 18654.3 2346.88 18732.7 2311.05C18775.2 2293.14 18818.9 2274.1 18861.4 2256.19C18924.1 2231.55 18988 2208.04 19049.5 2185.65C19237.6 2118.46 19430.2 2062.48 19626.1 2019.93C19782.9 1985.22 19948.6 1954.99 20112 1948.27C20180.3 1948.27 20248.6 1952.75 20315.8 1957.23C20353.8 1959.47 20389.7 1963.95 20426.6 1971.78C20436.7 1977.38 20496 1987.46 20474.8 2015.45Z" fill="#292D3C"/>
<path opacity="0.8" d="M14542.1 742.359C14535.4 740.119 14527.6 737.88 14520.9 735.64C14464.9 723.324 14415.6 727.803 14361.9 742.359C14323.8 752.436 14269 778.189 14291.3 825.216C14310.4 865.525 14398.8 849.849 14430.2 845.371C14476.1 839.772 14533.2 849.849 14570.1 814.019C14605.9 778.189 14576.8 754.675 14542.1 742.359Z" fill="#878893"/>
<path opacity="0.8" d="M14763.8 789.386C14729.1 778.189 14683.2 779.309 14651.9 800.583C14639.5 806.182 14626.1 815.139 14628.3 826.336C14632.8 845.371 14665.3 844.251 14679.8 845.371C14702.2 847.611 14729.1 846.491 14751.5 843.132C14767.2 840.892 14784 834.174 14790.7 818.498C14797.4 802.823 14776.1 793.865 14763.8 789.386Z" fill="#878893"/>
<path d="M16124.1 1201.43C16091.6 1182.4 16030 1182.4 15994.2 1186.88C15989.7 1186.88 15981.9 1189.12 15974.1 1192.47C15941.6 1198.07 15902.4 1217.11 15902.4 1252.94C15902.4 1319 16045.7 1296.61 16082.7 1284.29C16109.5 1274.21 16167.8 1227.18 16124.1 1201.43Z" fill="#9294A0"/>
<path d="M16238.3 1323.48C16236.1 1323.48 16234.9 1322.36 16232.7 1321.24C16231.6 1317.88 16227.1 1314.52 16220.4 1314.52C16218.1 1314.52 16214.8 1314.52 16212.5 1314.52C16211.4 1314.52 16210.3 1313.4 16209.2 1313.4C16192.4 1311.16 16179 1317.88 16168.9 1329.08C16163.3 1334.68 16163.3 1342.51 16172.2 1345.87C16174.5 1346.99 16175.6 1346.99 16177.8 1346.99C16181.2 1352.59 16189 1353.71 16195.7 1352.59C16200.2 1351.47 16203.6 1350.35 16206.9 1348.11C16211.4 1346.99 16215.9 1344.75 16220.4 1343.63C16224.9 1341.39 16228.2 1338.03 16230.5 1333.56C16236 1335.8 16246.1 1326.84 16238.3 1323.48Z" fill="#9294A0"/>
<path d="M16470 1043.56C16445.4 1040.2 16410.7 1043.56 16379.4 1052.51C16363.7 1052.51 16348 1055.87 16332.3 1065.95C16290.9 1091.7 16279.7 1125.29 16298.7 1168.96C16317.8 1213.75 16392.8 1229.42 16437.6 1235.02C16512.6 1243.98 16622.3 1226.07 16643.6 1146.57C16663.7 1068.19 16521.5 1050.27 16470 1043.56Z" fill="#9294A0"/>
<path d="M15387.4 1193.6C15386.3 1189.12 15382.9 1185.76 15378.5 1182.4C15379.6 1179.04 15379.6 1175.68 15375.1 1176.8C15372.9 1176.8 15371.7 1177.92 15369.5 1177.92C15356.1 1172.32 15338.2 1172.32 15329.2 1171.2C15311.3 1171.2 15294.5 1176.8 15282.2 1189.12C15271 1201.43 15274.3 1215.99 15288.9 1222.71C15293.4 1224.95 15299 1224.95 15305.7 1222.71C15312.4 1224.95 15320.2 1224.95 15325.8 1223.83C15334.8 1223.83 15342.6 1222.71 15351.6 1221.59C15366.1 1223.83 15391.9 1211.51 15387.4 1193.6Z" fill="#9294A0"/>
<path opacity="0.5" d="M13600.6 966.297C13574.8 917.03 13550.2 866.644 13530 814.018C13520 787.145 13508.8 761.392 13500.9 734.52C13497.6 724.442 13496.5 709.886 13489.7 700.929C13488.6 697.57 13486.4 694.211 13483 689.732C13466.2 670.697 13437.1 660.62 13413.6 651.662C13378.9 639.346 13344.2 627.029 13308.4 616.952C13176.3 580.002 13039.7 584.48 12904.2 576.643C12804.6 571.044 12703.8 592.318 12605.3 614.712C12604.2 614.712 12604.2 614.712 12603 614.712C12533.6 624.79 12457.5 638.226 12395.9 674.056C12383.6 680.774 12378 688.612 12376.9 695.33C12369 705.408 12362.3 717.724 12355.6 730.041C12341.1 753.554 12327.6 777.068 12311.9 800.582C12284 840.891 12259.3 887.918 12223.5 922.628C12220.1 925.988 12225.7 927.107 12228 925.988C12267.2 901.354 12298.5 858.806 12324.3 821.856C12348.9 787.145 12369 753.554 12384.7 715.485C12391.4 722.203 12400.4 727.802 12410.5 731.161C12427.3 737.879 12444.1 742.358 12460.8 745.717C12458.6 749.076 12455.3 752.435 12454.1 756.914C12445.2 774.829 12431.7 788.265 12421.7 805.06C12410.5 822.976 12399.3 840.891 12389.2 858.806C12379.1 875.601 12372.4 895.756 12357.8 909.192C12355.6 911.431 12359 912.551 12361.2 911.432C12385.8 893.516 12402.6 858.806 12419.4 834.173C12431.7 817.377 12442.9 800.582 12456.4 783.786C12464.2 773.709 12469.8 759.153 12478.8 749.076C12487.7 750.195 12495.6 752.435 12504.5 753.555C12498.9 762.512 12497.8 773.709 12493.3 782.667C12491.1 786.026 12483.2 812.898 12479.9 812.898C12477.6 812.898 12474.3 817.377 12477.6 817.377C12486.6 818.497 12492.2 803.941 12495.6 797.223C12503.4 783.786 12510.1 769.23 12516.8 754.674C12517.9 754.674 12519.1 754.674 12520.2 754.674C12597.4 766.991 12675.8 771.47 12753.1 781.547C12804.6 788.265 12857.2 792.744 12908.7 794.983C12903.1 817.377 12904.2 840.891 12902 863.285C12898.6 894.636 12888.5 924.868 12890.8 956.219C12890.8 959.578 12897.5 957.339 12897.5 955.1C12899.7 923.748 12912 891.277 12918.8 861.045C12923.2 839.771 12926.6 817.377 12927.7 796.103C12932.2 796.103 12936.7 796.103 12941.1 796.103C12941.1 801.701 12940 807.3 12938.9 812.898C12935.5 824.095 12935.5 838.651 12935.5 849.848C12935.5 853.207 12942.3 850.968 12943.4 847.609C12945.6 834.173 12950.1 819.617 12954.6 806.18C12955.7 802.821 12956.8 799.462 12957.9 796.103C12974.7 796.103 12991.5 797.223 13009.4 797.223C13088.9 796.103 13170.7 794.983 13250.1 786.026C13247.9 807.3 13262.5 829.694 13268.1 847.609C13275.9 872.242 13281.5 901.354 13297.2 921.509C13299.4 924.868 13308.4 920.389 13306.1 917.03C13293.8 895.756 13292.7 864.404 13286 840.891C13282.6 826.335 13277 814.018 13273.7 800.582C13272.5 794.983 13272.5 789.385 13271.4 784.906C13317.3 779.307 13362.1 770.35 13406.9 759.153C13408 759.153 13410.2 758.033 13411.4 758.033C13417 771.47 13423.7 783.786 13429.3 796.103C13439.4 816.257 13447.2 837.532 13457.3 857.686C13459.5 861.045 13467.3 857.686 13466.2 854.327C13456.2 831.933 13448.3 808.42 13439.4 786.026C13434.9 777.068 13432.6 764.751 13427 754.674C13442.7 749.076 13461.7 741.238 13475.2 731.161C13476.3 738.998 13477.4 747.956 13479.7 754.674C13487.5 781.547 13498.7 808.42 13508.8 834.173C13528.9 882.319 13560.3 930.466 13592.7 970.775C13595 971.895 13601.7 968.536 13600.6 966.297ZM13450.6 719.964C13441.6 726.682 13425.9 730.041 13415.8 733.4C13392.3 741.238 13368.8 746.836 13345.3 751.315C13346.4 746.836 13344.2 741.238 13340.8 737.879C13312.8 715.485 13268.1 705.408 13234.5 696.45C13189.7 684.133 13140.4 681.894 13093.4 676.296C13045.3 670.697 12997.1 668.458 12947.9 667.338C12853.8 665.099 12758.7 663.979 12666.9 683.014C12633.3 689.732 12591.8 699.809 12566.1 724.442C12561.6 728.921 12558.3 733.4 12557.1 737.879C12531.4 734.52 12506.8 731.161 12482.1 726.682C12459.7 722.203 12438.5 717.724 12418.3 708.767C12412.7 706.527 12402.6 702.048 12401.5 694.211C12400.4 681.894 12450.8 667.338 12458.6 665.099C12497.8 650.543 12539.2 640.465 12580.6 633.747C12603 630.388 12626.5 627.029 12648.9 624.79C12682.5 621.43 12715 618.071 12747.5 615.832C12846 607.994 12944.5 606.874 13043 612.473C13122.5 615.832 13205.4 623.67 13283.7 641.585C13316.2 650.543 13347.6 661.739 13380 672.936C13397.9 679.655 13414.7 686.373 13431.5 694.211C13437.1 696.45 13464 708.767 13450.6 719.964Z" fill="#292D3C"/>
<path opacity="0.5" d="M17428.4 2673.83C17263.8 2701.83 17106 2732.06 16936.9 2723.1C16770.1 2714.14 16603.3 2679.43 16435.3 2689.51C16264 2699.59 16099.5 2754.45 15941.6 2817.15C15858.8 2850.74 15770.3 2868.66 15684.1 2889.93C15644.9 2898.89 15606.8 2911.21 15567.7 2920.17C15546.4 2925.76 15480.3 2948.16 15463.5 2940.32C15460.2 2939.2 15452.3 2945.92 15456.8 2948.16C15490.4 2968.31 15548.6 2941.44 15583.3 2936.96C15661.7 2925.76 15741.2 2908.97 15819.6 2894.41C15995.3 2860.82 16158.8 2788.04 16336.8 2760.05C16432 2745.49 16528.3 2756.69 16623.4 2760.05C16721.9 2763.41 16818.2 2765.65 16916.7 2763.41C17093.6 2760.05 17256 2726.46 17426.2 2683.91C17429.5 2682.79 17436.2 2672.71 17428.4 2673.83Z" fill="#83858F"/>
<path opacity="0.5" d="M18588.3 2092.71C18432.6 2093.83 18280.4 2088.23 18131.5 2138.62C18054.2 2164.37 17979.2 2193.48 17902 2220.36C17846 2240.51 17726.2 2283.06 17672.5 2250.59C17670.2 2249.47 17666.9 2253.95 17668 2255.07C17701.6 2285.3 17747.5 2280.82 17790 2276.34C17858.3 2267.38 17922.1 2256.19 17988.2 2234.91C18082.2 2203.56 18175.1 2162.13 18271.4 2139.74C18374.4 2116.22 18477.4 2118.46 18581.6 2107.27C18588.3 2106.15 18597.2 2092.71 18588.3 2092.71Z" fill="#83858F"/>
<path opacity="0.5" d="M9921.66 2350.24C9963.08 2298.74 10001.1 2234.91 10025.8 2173.33C10039.2 2139.74 10051.5 2106.15 10061.6 2071.44C10063.8 2061.36 10066.1 2051.28 10067.2 2041.21C10084 2053.52 10109.7 2063.6 10128.8 2070.32C10122.1 2083.75 10118.7 2099.43 10114.2 2110.63C10103 2139.74 10094.1 2169.97 10081.8 2199.08C10079.5 2203.56 10090.7 2208.04 10093 2203.56C10106.4 2177.81 10115.3 2150.94 10127.7 2125.18C10135.5 2109.51 10143.3 2092.71 10150 2077.04C10152.3 2078.16 10154.5 2078.16 10155.6 2078.16C10212.7 2091.59 10271 2101.67 10329.2 2107.27C10328.1 2112.87 10328.1 2119.58 10325.8 2127.42C10322.5 2145.34 10315.7 2162.13 10311.3 2180.05C10304.5 2211.4 10303.4 2250.59 10287.8 2278.58C10285.5 2283.06 10296.7 2288.66 10299 2284.18C10318 2257.31 10324.7 2220.36 10333.7 2189.01C10340.4 2165.49 10358.3 2136.38 10354.9 2109.51C10456.8 2118.46 10560.9 2118.46 10662.8 2116.23C10684.1 2116.23 10706.5 2115.11 10727.7 2113.99C10728.9 2118.46 10731.1 2122.94 10732.2 2126.3C10738.9 2143.1 10743.4 2162.13 10746.8 2178.93C10747.9 2182.29 10756.9 2185.65 10756.9 2181.17C10756.9 2166.61 10755.7 2148.7 10752.4 2134.14C10750.1 2127.42 10750.1 2119.58 10749 2111.75C10754.6 2111.75 10760.2 2111.75 10765.8 2110.63C10768.1 2138.62 10772.5 2166.61 10779.2 2193.48C10788.2 2232.67 10805 2272.98 10808.4 2312.17C10808.4 2315.53 10817.3 2318.89 10817.3 2314.41C10819.6 2274.1 10806.1 2234.91 10800.5 2195.72C10796 2166.61 10797.2 2136.38 10789.3 2108.39C10855.4 2103.91 10921.4 2096.07 10987.5 2087.11C11086 2072.56 11186.8 2065.84 11284.2 2046.8C11285.3 2046.8 11287.5 2045.68 11288.7 2045.68C11296.5 2063.6 11306.6 2081.51 11316.6 2099.43C11321.1 2107.27 11329 2125.18 11340.2 2124.06C11344.6 2124.06 11339 2118.46 11336.8 2118.46C11332.3 2118.46 11322.2 2084.87 11318.9 2079.28C11313.3 2066.96 11309.9 2053.52 11303.2 2042.33C11314.4 2040.09 11324.5 2037.85 11335.7 2035.61C11346.9 2047.92 11354.7 2066.96 11364.8 2079.28C11381.6 2099.43 11397.3 2120.7 11412.9 2141.98C11435.3 2173.33 11457.7 2215.88 11489.1 2238.27C11491.3 2239.39 11495.8 2238.27 11492.4 2236.03C11473.4 2220.36 11464.4 2193.48 11451 2173.33C11436.4 2150.94 11423 2128.54 11407.3 2106.15C11393.9 2085.99 11374.9 2068.08 11363.7 2045.68C11360.3 2040.09 11358.1 2035.61 11353.6 2031.13C11376 2025.53 11397.3 2018.81 11417.4 2010.97C11429.7 2005.38 11442 1998.66 11449.9 1989.7C11470 2037.85 11496.9 2080.39 11529.4 2122.94C11564.1 2168.85 11605.5 2222.6 11655.9 2252.83C11659.2 2255.07 11666 2252.83 11661.5 2249.47C11615.6 2205.8 11583.1 2147.58 11546.2 2096.07C11524.9 2066.96 11507 2037.85 11487.9 2007.61C11479 1993.06 11471.1 1977.38 11459.9 1965.07C11458.8 1956.11 11451 1947.15 11435.3 1938.19C11355.8 1894.53 11258.4 1879.97 11170 1868.77C11168.9 1868.77 11167.7 1868.77 11166.6 1868.77C11041.2 1841.9 10912.5 1818.39 10784.8 1828.46C10612.4 1841.9 10437.8 1839.66 10271 1891.17C10226.2 1904.6 10181.4 1920.28 10137.7 1938.19C10108.6 1949.39 10072.8 1963.95 10051.5 1988.58C10047 1993.06 10044.8 1998.66 10043.7 2003.14C10035.9 2015.45 10033.6 2033.37 10030.3 2046.8C10020.2 2081.51 10006.7 2115.11 9994.43 2148.7C9970.92 2215.88 9940.69 2280.82 9909.34 2344.64C9911.58 2349.12 9919.42 2353.6 9921.66 2350.24ZM10118.7 1994.18C10140 1982.98 10161.2 1972.9 10183.6 1965.07C10223.9 1949.39 10264.2 1934.83 10304.5 1922.52C10404.2 1896.76 10509.4 1885.57 10610.2 1877.73C10735.6 1868.77 10862.1 1867.65 10987.5 1874.37C11028.9 1876.61 11071.5 1878.85 11114 1883.33C11143.1 1886.69 11172.2 1890.05 11201.3 1893.41C11255.1 1901.24 11307.7 1912.44 11358.1 1929.24C11369.3 1932.6 11433.1 1949.39 11432 1965.07C11432 1975.14 11418.5 1980.74 11411.8 1984.1C11386.1 1996.42 11358.1 2003.14 11330.1 2009.85C11298.7 2016.57 11266.3 2021.05 11234.9 2025.53C11232.7 2019.93 11228.2 2014.33 11222.6 2009.85C11189 1978.5 11136.4 1968.43 11093.8 1960.59C10975.2 1938.19 10854.3 1942.67 10735.6 1948.27C10674 1951.63 10612.4 1956.11 10550.9 1963.95C10491.5 1971.78 10429.9 1976.26 10371.7 1993.06C10328.1 2006.49 10272.1 2018.81 10237.4 2049.04C10232.9 2053.52 10231.8 2059.12 10232.9 2065.84C10201.5 2061.36 10171.3 2054.64 10142.2 2045.68C10129.9 2042.33 10109.7 2036.73 10098.5 2028.89C10079.5 2014.33 10113.1 1997.54 10118.7 1994.18Z" fill="#292D3C"/>
<path opacity="0.5" d="M4656.3 1662.75C4693.25 1625.8 4727.96 1579.89 4753.71 1533.98C4767.14 1509.35 4780.58 1483.6 4790.65 1457.84C4794.01 1450.01 4795.13 1442.17 4797.37 1434.33C4809.69 1445.53 4828.72 1455.6 4843.27 1462.32C4836.56 1471.28 4833.2 1483.6 4828.72 1492.55C4816.4 1514.95 4807.45 1537.34 4795.13 1558.62C4792.89 1561.98 4801.85 1566.45 4804.09 1563.1C4816.4 1544.06 4826.48 1523.91 4837.67 1504.87C4844.39 1493.67 4852.23 1481.36 4858.95 1469.04C4861.19 1470.16 4862.31 1470.16 4863.42 1471.28C4907.09 1486.96 4951.87 1499.27 4996.65 1509.35C4994.41 1513.83 4994.41 1519.43 4992.18 1525.03C4987.7 1538.46 4980.98 1550.78 4976.5 1564.21C4968.66 1587.73 4964.19 1619.08 4949.63 1639.23C4947.39 1642.59 4956.35 1648.19 4958.59 1644.83C4976.5 1625.8 4984.34 1597.81 4994.42 1574.29C5002.25 1556.38 5017.93 1535.1 5017.93 1513.83C5097.42 1529.5 5178.03 1538.46 5257.51 1546.3C5274.31 1547.42 5291.1 1549.66 5309.02 1550.78C5310.13 1554.14 5310.13 1558.62 5311.25 1561.98C5314.61 1575.41 5316.85 1589.97 5317.97 1604.52C5317.97 1606.76 5324.69 1611.24 5324.69 1606.76C5325.81 1595.57 5326.93 1581.01 5324.69 1569.81C5323.57 1564.21 5324.69 1558.62 5324.69 1553.02C5329.17 1553.02 5333.65 1553.02 5338.12 1554.14C5337 1576.53 5338.12 1598.93 5341.48 1620.2C5344.84 1651.55 5354.92 1684.02 5353.8 1716.49C5353.8 1719.85 5360.52 1722.09 5360.52 1718.73C5364.99 1687.38 5358.28 1654.91 5358.28 1624.68C5357.16 1602.28 5361.63 1578.77 5357.16 1556.38C5409.78 1558.62 5461.28 1558.62 5513.9 1557.5C5592.27 1555.26 5671.76 1558.62 5750.13 1553.02C5751.25 1553.02 5752.37 1553.02 5753.49 1553.02C5757.96 1567.57 5763.56 1582.13 5770.28 1596.69C5773.64 1603.4 5777 1617.96 5787.07 1617.96C5790.43 1617.96 5787.07 1614.6 5784.83 1613.48C5781.48 1612.36 5775.88 1585.49 5774.76 1582.13C5771.4 1572.05 5770.28 1560.86 5765.8 1551.9C5774.76 1550.78 5782.59 1550.78 5791.55 1549.66C5799.39 1560.86 5802.75 1575.41 5810.58 1586.61C5821.78 1604.52 5832.98 1622.44 5843.05 1640.35C5857.61 1666.11 5871.04 1703.06 5894.55 1722.09C5895.67 1723.21 5900.15 1723.21 5897.91 1719.85C5883.36 1705.3 5878.88 1684.02 5871.04 1667.23C5862.08 1648.19 5853.13 1629.16 5843.05 1611.24C5834.1 1594.45 5821.78 1578.77 5815.06 1559.74C5812.82 1554.14 5810.58 1550.78 5808.34 1547.42C5826.26 1545.18 5844.17 1541.82 5860.96 1537.34C5871.04 1533.98 5881.12 1529.5 5888.95 1523.91C5900.15 1564.21 5918.06 1598.93 5939.33 1635.88C5962.85 1675.06 5989.72 1720.97 6026.66 1748.96C6028.9 1751.2 6034.5 1750.08 6031.14 1746.73C5998.67 1708.66 5978.52 1659.39 5953.89 1616.84C5940.45 1592.21 5928.14 1568.69 5915.82 1542.94C5910.23 1530.62 5904.63 1518.31 5897.91 1507.11C5897.91 1500.39 5892.31 1492.55 5881.12 1484.72C5822.9 1443.29 5747.89 1423.13 5679.59 1406.34H5677.35C5581.07 1373.87 5483.67 1343.63 5382.91 1340.28C5246.32 1335.8 5109.73 1317.88 4974.26 1343.63C4937.32 1350.35 4901.49 1358.19 4865.66 1368.27C4842.15 1374.99 4811.92 1382.82 4792.89 1399.62C4789.53 1402.98 4787.29 1406.34 4785.05 1409.7C4778.34 1418.65 4774.98 1433.21 4770.5 1442.17C4759.3 1469.04 4745.87 1493.67 4733.55 1518.31C4708.92 1568.69 4679.81 1616.84 4649.59 1663.87C4648.47 1661.63 4655.18 1664.99 4656.3 1662.75ZM4843.27 1401.86C4860.07 1394.02 4877.98 1389.54 4895.89 1385.06C4928.36 1377.23 4961.95 1368.27 4994.42 1362.67C5075.02 1351.47 5157.87 1352.59 5237.36 1354.83C5335.88 1359.31 5435.53 1369.39 5532.93 1386.18C5565.4 1391.78 5597.86 1397.38 5631.45 1404.1C5653.84 1409.7 5676.24 1414.18 5698.63 1419.77C5740.05 1430.97 5780.36 1444.41 5818.42 1462.32C5826.26 1465.68 5875.52 1484.72 5873.28 1497.03C5872.16 1503.75 5862.08 1508.23 5855.37 1510.47C5834.09 1517.19 5811.7 1520.55 5789.31 1522.79C5763.56 1525.03 5738.93 1526.15 5713.18 1526.15C5712.06 1521.67 5708.7 1517.19 5705.34 1512.71C5681.83 1485.84 5642.65 1472.4 5609.06 1462.32C5518.38 1434.33 5423.21 1426.49 5329.17 1419.77C5281.03 1416.42 5231.76 1415.3 5183.62 1415.3C5136.6 1416.41 5087.34 1414.18 5041.44 1422.01C5005.61 1427.61 4960.83 1433.21 4930.6 1453.36C4927.24 1455.6 4925 1461.2 4925 1465.68C4901.49 1458.96 4877.98 1451.13 4855.59 1441.05C4845.51 1436.57 4830.96 1430.97 4823.12 1424.25C4809.69 1414.18 4837.67 1404.1 4843.27 1401.86Z" fill="#292D3C"/>
<path opacity="0.5" d="M2795.57 1851.98C2589.57 1772.48 2360.06 1772.48 2149.58 1705.3C2045.46 1671.71 1958.13 1609 1867.45 1549.66C1777.88 1490.32 1681.6 1438.81 1584.2 1392.9C1483.43 1344.75 1373.72 1311.16 1267.36 1278.69C1159.88 1245.1 1047.92 1218.23 935.963 1208.15C819.528 1198.07 703.092 1221.59 588.896 1240.62C527.319 1250.7 465.743 1258.54 405.286 1267.5C343.709 1276.45 277.654 1301.09 217.197 1301.09C212.719 1301.09 202.643 1311.16 210.48 1312.28C247.426 1319 279.894 1313.4 317.959 1306.69C376.177 1297.73 438.873 1297.73 498.21 1293.25C625.842 1283.17 751.234 1256.3 879.985 1259.66C1000.9 1263.02 1131.89 1297.73 1244.97 1340.28C1346.85 1379.47 1452.09 1420.89 1549.49 1470.16C1646.89 1518.31 1736.46 1579.89 1833.86 1626.92C1933.5 1675.07 2040.98 1712.01 2146.22 1743.37C2352.22 1803.83 2571.66 1828.46 2782.14 1871.01C2789.98 1874.37 2806.77 1856.46 2795.57 1851.98Z" fill="#83858F"/>
<path opacity="0.8" d="M877.748 3020.94C921.411 3064.61 989.705 3052.29 1044.56 3059.01C1082.63 3063.49 1188.99 3082.52 1210.26 3034.38C1236.01 2978.39 1171.08 2948.16 1125.17 2934.72C1060.24 2917.93 1002.02 2912.33 935.965 2926.88C927.009 2929.12 918.052 2931.36 910.215 2934.72C869.911 2950.4 834.084 2978.39 877.748 3020.94Z" fill="#878893"/>
<path opacity="0.8" d="M613.527 3028.78C621.364 3046.69 641.516 3055.65 659.429 3057.89C686.299 3061.25 717.647 3062.37 745.636 3060.13C763.549 3059.01 801.615 3060.13 807.213 3037.73C810.572 3024.3 793.778 3013.1 779.223 3006.38C743.397 2979.51 687.419 2978.39 645.994 2992.95C631.44 2997.43 605.69 3007.5 613.527 3028.78Z" fill="#878893"/>
<path opacity="0.8" d="M435.515 1483.6C475.819 1522.79 536.276 1511.59 586.657 1518.31C621.364 1522.79 716.528 1539.58 736.68 1497.03C760.191 1446.65 700.854 1418.65 660.549 1407.46C602.331 1391.78 549.711 1386.18 489.254 1400.74C481.417 1401.86 473.58 1405.22 465.743 1407.46C428.797 1419.77 396.33 1444.41 435.515 1483.6Z" fill="#878893"/>
<path opacity="0.8" d="M198.165 1490.32C204.882 1507.11 222.796 1513.83 239.589 1516.07C264.22 1519.43 292.209 1520.55 316.84 1518.31C332.514 1517.19 367.221 1518.31 372.818 1498.15C376.177 1485.84 361.623 1475.76 348.188 1470.16C315.72 1446.65 265.339 1445.53 228.393 1457.84C213.839 1462.32 190.328 1471.28 198.165 1490.32Z" fill="#878893"/>
<path opacity="0.5" d="M510.526 2594.34C568.743 2536.11 624.722 2463.33 663.907 2390.55C685.179 2351.36 705.331 2311.05 722.125 2269.62C726.603 2258.43 729.962 2244.99 733.321 2232.67C752.353 2250.59 782.582 2266.26 806.093 2277.46C796.017 2292.02 789.299 2311.05 782.582 2325.61C763.549 2360.32 748.995 2396.15 729.962 2429.74C726.603 2435.34 740.038 2443.18 743.397 2437.58C763.549 2407.35 778.104 2374.87 797.136 2344.64C808.332 2326.73 820.647 2306.57 830.723 2287.54C832.963 2288.66 836.321 2289.78 837.441 2289.78C905.735 2315.53 976.268 2334.57 1047.92 2350.24C1044.56 2356.96 1043.44 2365.92 1041.2 2374.87C1034.49 2397.27 1023.29 2416.3 1016.57 2437.58C1003.14 2475.65 997.54 2523.79 974.029 2555.15C970.67 2560.74 984.105 2568.58 987.464 2564.1C1015.45 2533.87 1027.77 2489.08 1043.44 2452.13C1055.76 2424.14 1081.51 2389.43 1081.51 2356.96C1206.9 2382.71 1334.53 2396.15 1461.04 2409.59C1487.91 2411.82 1514.78 2414.06 1541.65 2416.3C1542.77 2421.9 1543.89 2428.62 1545.01 2433.1C1550.61 2454.37 1553.97 2477.89 1556.21 2500.28C1556.21 2504.76 1567.4 2510.36 1567.4 2504.76C1569.64 2485.72 1570.76 2464.45 1567.4 2445.42C1566.28 2436.46 1566.28 2427.5 1566.28 2417.42C1573 2418.54 1580.84 2418.54 1587.56 2418.54C1586.44 2453.25 1587.56 2487.96 1592.03 2522.67C1597.63 2573.06 1613.31 2624.57 1611.07 2674.95C1611.07 2679.43 1621.14 2683.91 1621.14 2678.31C1628.98 2629.05 1618.9 2578.66 1616.66 2529.39C1615.54 2493.56 1621.14 2456.61 1615.54 2420.78C1698.39 2424.14 1781.24 2425.26 1864.09 2423.02C1988.36 2419.66 2112.63 2424.14 2236.91 2415.18C2239.15 2415.18 2240.27 2415.18 2242.51 2414.06C2250.34 2437.58 2259.3 2461.09 2269.38 2484.6C2273.85 2494.68 2280.57 2518.2 2295.13 2518.2C2300.72 2518.2 2295.13 2511.48 2292.89 2511.48C2287.29 2510.36 2278.33 2467.81 2276.09 2461.09C2270.49 2445.42 2269.38 2428.62 2262.66 2412.94C2276.09 2411.82 2289.53 2410.71 2302.96 2409.59C2315.28 2426.38 2322 2451.01 2333.19 2467.81C2351.1 2495.8 2367.9 2523.79 2383.57 2552.91C2407.08 2594.34 2428.35 2651.44 2464.18 2682.79C2466.42 2685.03 2473.14 2683.91 2469.78 2680.55C2447.39 2658.16 2440.67 2624.57 2427.23 2596.57C2412.68 2567.46 2398.13 2537.23 2382.45 2508.12C2367.9 2481.25 2348.86 2456.61 2337.67 2427.5C2334.31 2419.66 2332.07 2414.06 2327.59 2407.35C2355.58 2403.99 2383.57 2398.39 2410.44 2391.67C2427.23 2387.19 2442.91 2379.35 2454.1 2370.4C2472.02 2433.1 2500.01 2489.08 2533.59 2547.31C2570.54 2610.01 2613.08 2681.67 2671.3 2725.34C2675.78 2728.7 2684.74 2727.58 2679.14 2720.86C2628.76 2660.4 2596.29 2583.14 2558.23 2515.96C2536.95 2476.77 2517.92 2438.7 2498.89 2398.39C2489.93 2379.35 2482.09 2359.2 2470.9 2341.28C2469.78 2330.09 2463.06 2317.77 2445.15 2305.45C2353.34 2240.51 2234.67 2208.04 2127.19 2181.17C2126.07 2181.17 2124.95 2180.05 2122.71 2180.05C1971.57 2128.54 1815.95 2081.51 1656.97 2075.92C1442.01 2068.08 1225.93 2041.21 1012.09 2081.51C954.996 2092.71 896.778 2105.03 840.8 2120.7C802.734 2130.78 755.712 2143.1 726.603 2169.97C721.005 2175.57 716.527 2181.17 714.288 2186.77C703.092 2201.32 698.614 2222.6 691.896 2238.27C675.103 2279.7 653.831 2318.89 633.679 2359.2C594.494 2438.7 548.591 2514.84 500.449 2589.86C497.091 2592.1 507.167 2597.69 510.526 2594.34ZM803.854 2182.29C830.724 2171.09 858.713 2163.25 887.822 2155.41C939.322 2141.98 990.822 2129.66 1043.44 2120.7C1169.95 2103.91 1302.06 2103.91 1427.46 2109.51C1584.2 2116.23 1739.82 2131.9 1894.32 2158.77C1945.82 2167.73 1997.32 2176.69 2049.94 2186.77C2085.77 2195.72 2121.59 2203.56 2156.3 2211.4C2221.23 2229.31 2285.05 2250.59 2345.51 2278.58C2357.82 2284.18 2435.07 2314.41 2431.71 2333.45C2429.47 2344.64 2413.8 2351.36 2403.72 2353.6C2370.14 2364.8 2334.31 2370.4 2299.6 2372.64C2259.3 2375.99 2218.99 2378.23 2178.69 2378.23C2176.45 2371.52 2171.97 2363.68 2166.37 2356.96C2129.43 2314.41 2066.73 2293.14 2014.11 2277.46C1870.81 2233.79 1720.78 2220.36 1573 2211.4C1495.75 2206.92 1419.62 2203.56 1342.37 2204.68C1268.48 2205.8 1190.11 2202.44 1117.33 2214.76C1061.36 2224.84 990.822 2232.67 942.681 2265.14C937.083 2269.62 933.724 2277.46 933.724 2285.3C896.778 2274.1 859.832 2261.79 824.006 2247.23C809.452 2240.51 784.821 2232.67 771.386 2220.36C752.353 2202.44 796.017 2185.65 803.854 2182.29Z" fill="#292D3C"/>
<g opacity="0.5">
<path d="M3795.35 908.072C3760.65 896.875 3700.19 905.833 3665.48 913.671C3661 914.79 3654.29 917.03 3646.45 921.509C3616.22 930.466 3580.4 950.621 3585.99 978.613C3597.19 1031.24 3733.78 994.289 3768.48 978.613C3793.11 967.416 3842.38 922.628 3795.35 908.072Z" fill="#9294A0"/>
<path d="M3927.46 989.81C3925.22 989.81 3924.1 988.69 3921.87 988.69C3919.63 986.451 3915.15 984.211 3908.43 985.331C3906.19 985.331 3903.95 986.451 3900.59 986.451C3899.47 986.451 3898.35 986.451 3897.24 986.451C3880.44 986.451 3868.13 994.289 3860.29 1004.37C3855.81 1009.96 3856.93 1016.68 3865.89 1017.8C3868.13 1017.8 3869.25 1017.8 3871.48 1018.92C3875.96 1022.28 3883.8 1023.4 3890.52 1021.16C3895 1020.04 3898.35 1017.8 3901.71 1015.56C3906.19 1014.44 3909.55 1012.2 3914.03 1009.96C3917.39 1007.72 3920.75 1004.37 3922.99 1001.01C3927.46 998.767 3936.42 990.93 3927.46 989.81Z" fill="#9294A0"/>
<path d="M4107.72 737.879C4083.09 738.999 4049.5 745.717 4020.39 756.914C4004.72 759.153 3990.16 764.752 3976.73 773.709C3940.9 799.462 3935.3 827.455 3961.05 859.926C3987.92 892.397 4064.05 894.637 4107.72 893.517C4182.73 890.158 4286.85 862.165 4293.57 794.984C4301.4 730.041 4159.22 735.64 4107.72 737.879Z" fill="#9294A0"/>
<path d="M3073.23 1002.13C3070.99 998.768 3067.63 996.528 3063.15 994.289C3064.27 992.05 3063.15 988.691 3058.67 990.93C3057.55 990.93 3055.32 992.05 3054.2 992.05C3039.64 989.81 3022.85 990.93 3012.77 993.169C2994.86 995.409 2979.18 1002.13 2970.23 1014.44C2961.27 1025.64 2966.87 1036.84 2982.54 1040.2C2987.02 1041.32 2992.62 1040.2 2998.22 1037.96C3004.93 1039.08 3012.77 1037.96 3018.37 1036.84C3027.33 1034.6 3035.16 1033.48 3043 1031.24C3056.43 1027.88 3079.95 1014.44 3073.23 1002.13Z" fill="#9294A0"/>
</g>
<path opacity="0.5" d="M8157.21 1988.58C8034.06 1980.74 7915.38 1968.42 7798.95 1925.88C7684.75 1884.45 7583.99 1839.66 7463.08 1822.86C7347.76 1807.19 7230.2 1813.91 7114.89 1829.58C6987.26 1845.26 6862.98 1882.21 6733.11 1851.98C6728.64 1850.86 6719.68 1860.93 6725.28 1863.17C6815.96 1895.64 6910.01 1893.4 7004.05 1886.69C7137.28 1877.73 7269.39 1867.65 7402.62 1881.09C7528.01 1893.4 7646.69 1940.43 7767.6 1971.78C7888.51 2003.13 8022.86 2010.97 8147.13 2006.49C8154.97 2005.37 8169.53 1989.7 8157.21 1988.58Z" fill="#83858F"/>
<path opacity="0.8" d="M5731.1 2515.96C5722.14 2512.6 5713.18 2510.36 5704.23 2508.12C5634.81 2492.44 5574.36 2498.04 5507.18 2515.96C5460.16 2528.27 5392.98 2560.74 5419.85 2618.97C5442.25 2668.23 5553.08 2649.2 5592.27 2643.6C5649.37 2635.76 5719.9 2649.2 5765.8 2604.41C5810.59 2560.74 5773.64 2531.63 5731.1 2515.96Z" fill="#878893"/>
<path opacity="0.8" d="M6005.39 2574.18C5962.85 2559.62 5904.63 2560.74 5867.68 2588.74C5852.01 2595.45 5835.21 2606.65 5838.57 2621.21C5844.17 2644.72 5884.48 2643.6 5902.39 2644.72C5930.38 2646.96 5962.85 2645.84 5990.84 2642.48C6009.87 2640.24 6031.14 2631.28 6038.98 2613.37C6047.93 2590.97 6021.06 2579.78 6005.39 2574.18Z" fill="#878893"/>
<path opacity="0.4" d="M6964.86 669.578C7034.28 671.817 7103.69 675.176 7173.1 671.817C7103.69 663.979 7034.28 660.62 6964.86 669.578Z" fill="#9294A0"/>
<path opacity="0.4" d="M7863.88 644.944C7745.21 641.585 7625.41 649.423 7506.74 661.74C7457.48 667.338 7408.22 672.937 7357.84 678.535C7429.49 690.852 7502.26 702.049 7572.79 718.844C7653.4 737.879 7727.29 771.47 7803.43 805.061C7898.59 846.489 7990.39 875.601 8094.51 877.841C8193.04 880.08 8291.56 872.242 8390.08 866.644C8486.37 861.045 8580.41 862.165 8676.69 868.883C8751.7 874.482 8825.6 877.841 8899.49 864.404C8677.81 802.821 8449.42 772.589 8227.74 712.126C8107.95 679.655 7991.51 648.303 7863.88 644.944Z" fill="#9294A0"/>
<path opacity="0.5" d="M8931.96 827.454C8808.8 822.975 8696.84 826.334 8577.05 793.863C8471.81 764.751 8362.09 745.716 8255.73 723.322C8026.22 675.175 7787.75 611.353 7550.4 616.951C7432.85 620.31 7316.41 637.106 7199.98 643.824C7066.75 650.542 6934.64 644.944 6801.41 634.866C6679.37 625.909 6558.46 610.233 6437.55 594.557C6341.26 582.241 6238.26 572.163 6162.13 508.341C6161.01 507.221 6157.65 509.46 6158.77 511.7C6213.63 565.445 6286.4 586.719 6359.18 602.395C6472.25 628.148 6586.45 651.662 6700.65 669.577C6822.68 689.731 6942.47 708.766 7065.63 711.006C7193.26 713.245 7318.65 697.569 7445.16 687.492C7707.14 666.218 7957.93 697.569 8214.31 749.075C8336.34 773.709 8458.38 796.102 8579.29 827.454C8693.49 857.686 8804.32 853.207 8921.88 848.728C8929.72 849.848 8946.51 827.454 8931.96 827.454Z" fill="#83858F"/>
<path opacity="0.5" d="M12317.5 2920.16C12248.1 2913.45 12181 2929.12 12111.5 2916.81C12039.9 2904.49 11968.2 2892.17 11896.6 2879.86C11831.6 2868.66 11766.7 2886.57 11705.1 2905.61C11671.6 2916.81 11638 2926.88 11604.4 2939.2C11568.6 2952.64 11531.6 2971.67 11493.5 2971.67C11491.3 2971.67 11485.7 2977.27 11490.2 2978.39C11541.7 2986.23 11601 2959.35 11650.3 2947.04C11723.1 2929.12 11796.9 2914.57 11872 2924.64C11945.8 2934.72 12016.4 2952.64 12090.3 2953.76C12165.3 2954.88 12238.1 2940.32 12311.9 2931.36C12317.5 2932.48 12325.4 2921.28 12317.5 2920.16Z" fill="#83858F"/>
<path opacity="0.8" d="M7231.32 1068.19C7272.75 1108.5 7336.56 1097.3 7388.06 1104.02C7423.89 1108.5 7522.41 1125.29 7543.68 1081.63C7568.31 1029 7506.74 999.888 7464.19 988.691C7403.74 973.016 7348.88 967.417 7286.18 980.853C7278.34 983.093 7270.51 985.332 7261.55 987.572C7223.48 1002.13 7189.9 1027.88 7231.32 1068.19Z" fill="#878893"/>
<path opacity="0.8" d="M6983.9 1074.91C6991.73 1091.7 7009.65 1099.54 7027.56 1101.78C7053.31 1105.14 7082.42 1106.26 7108.17 1104.02C7124.96 1102.9 7160.79 1104.02 7165.27 1082.75C7168.63 1069.31 7152.95 1059.23 7139.52 1053.63C7105.93 1029 7053.31 1027.88 7014.13 1040.2C7000.69 1045.8 6976.06 1055.87 6983.9 1074.91Z" fill="#878893"/>
<g opacity="0.5">
<path d="M16726.4 2274.1C16691.7 2262.9 16631.3 2271.86 16597.7 2279.7C16593.2 2280.82 16586.5 2283.06 16578.6 2286.42C16548.4 2295.38 16512.6 2315.53 16518.2 2343.52C16529.4 2395.03 16664.8 2359.2 16699.6 2343.52C16725.3 2333.45 16773.4 2288.66 16726.4 2274.1Z" fill="#9294A0"/>
<path d="M16858.5 2354.72C16856.3 2354.72 16855.2 2353.6 16852.9 2353.6C16850.7 2351.36 16847.3 2349.12 16840.6 2350.24C16838.4 2350.24 16835 2351.36 16832.8 2351.36C16831.7 2351.36 16830.5 2351.36 16829.4 2351.36C16812.6 2351.36 16800.3 2359.2 16792.5 2369.28C16788 2374.87 16789.1 2380.47 16798.1 2382.71C16800.3 2382.71 16801.4 2382.71 16803.7 2383.83C16808.2 2387.19 16816 2388.31 16822.7 2384.95C16827.2 2383.83 16829.4 2381.59 16832.8 2380.47C16837.3 2379.35 16840.6 2377.11 16845.1 2374.87C16849.6 2372.63 16851.8 2369.28 16854.1 2365.92C16858.5 2363.68 16867.5 2355.84 16858.5 2354.72Z" fill="#9294A0"/>
<path d="M17037.7 2103.91C17013 2105.03 16979.4 2111.75 16951.5 2122.94C16935.8 2125.18 16921.2 2129.66 16907.8 2139.74C16872 2165.49 16866.4 2193.48 16892.1 2224.83C16919 2257.31 16994 2259.55 17038.8 2258.43C17113.8 2255.07 17217.9 2227.07 17224.6 2161.01C17230.2 2096.07 17089.2 2101.67 17037.7 2103.91Z" fill="#9294A0"/>
<path d="M16006.5 2367.04C16004.3 2363.68 16000.9 2361.44 15996.5 2359.2C15997.6 2356.96 15996.5 2353.6 15992 2355.84C15990.9 2355.84 15988.6 2356.96 15987.5 2356.96C15973 2354.72 15956.2 2356.96 15947.2 2358.08C15929.3 2360.32 15913.6 2367.04 15904.7 2379.35C15895.7 2390.55 15901.3 2401.75 15917 2405.11C15921.5 2406.23 15927 2405.11 15932.6 2403.99C15939.4 2405.11 15947.2 2403.99 15952.8 2402.87C15961.8 2401.75 15969.6 2399.51 15977.4 2398.39C15990.9 2392.79 16014.4 2380.47 16006.5 2367.04Z" fill="#9294A0"/>
</g>
<g opacity="0.8">
<path d="M3931.94 2210.28C3903.95 2201.32 3854.69 2209.16 3826.7 2214.76C3823.34 2215.88 3817.74 2218.12 3811.03 2220.36C3786.4 2228.19 3757.29 2243.87 3761.76 2267.38C3770.72 2309.93 3881.56 2279.7 3910.67 2267.38C3930.82 2258.43 3971.12 2222.6 3931.94 2210.28Z" fill="#878893"/>
<path d="M4040.54 2276.34C4039.42 2276.34 4037.18 2276.34 4036.06 2275.22C4034.94 2272.98 4031.58 2271.86 4025.98 2271.86C4023.74 2271.86 4021.51 2271.86 4019.27 2272.98C4018.15 2272.98 4017.03 2272.98 4017.03 2272.98C4003.59 2272.98 3993.52 2279.7 3986.8 2287.54C3983.44 2292.02 3984.56 2296.5 3991.28 2297.62C3992.4 2297.62 3994.64 2297.62 3995.76 2297.62C3999.11 2300.97 4005.83 2300.97 4011.43 2298.74C4014.79 2297.62 4017.03 2296.5 4020.39 2294.26C4023.74 2293.14 4027.1 2290.9 4030.46 2289.78C4033.82 2287.54 4036.06 2285.3 4037.18 2281.94C4040.54 2284.18 4048.38 2277.46 4040.54 2276.34Z" fill="#878893"/>
<path d="M4188.32 2071.44C4168.17 2072.56 4141.3 2078.15 4117.79 2087.11C4105.47 2088.23 4093.16 2092.71 4081.96 2100.55C4052.85 2121.82 4048.37 2145.34 4069.65 2171.09C4090.92 2197.96 4153.61 2200.2 4189.44 2197.96C4251.02 2195.72 4336.1 2172.21 4341.7 2118.46C4346.18 2064.72 4229.75 2069.2 4188.32 2071.44Z" fill="#878893"/>
<path d="M3343.04 2286.42C3341.92 2283.06 3338.56 2281.94 3335.21 2279.7C3336.33 2277.46 3335.21 2275.22 3331.85 2276.34C3330.73 2276.34 3329.61 2277.46 3328.49 2277.46C3317.29 2276.34 3302.74 2277.46 3294.9 2278.58C3280.35 2280.82 3268.03 2286.42 3260.19 2295.38C3252.36 2304.33 3257.96 2313.29 3270.27 2316.65C3273.63 2317.77 3279.23 2316.65 3283.71 2315.53C3289.3 2316.65 3294.9 2315.53 3300.5 2314.41C3307.22 2313.29 3313.93 2312.17 3320.65 2309.93C3329.61 2308.81 3348.64 2297.61 3343.04 2286.42Z" fill="#878893"/>
</g>
<path opacity="0.4" d="M13095.6 1977.38C13024 1961.71 12951.2 1961.71 12878.5 1958.35C12979.2 2007.61 13076.6 2087.11 13157.2 2126.3C13261.3 2176.69 13389 2164.37 13499.8 2145.34C13590.5 2129.66 13681.2 2108.39 13769.6 2079.27C13663.3 2077.04 13555.8 2069.2 13450.6 2053.52C13329.6 2035.61 13214.3 2003.14 13095.6 1977.38Z" fill="#9294A0"/>
<path opacity="0.5" d="M13958.8 2070.32C13836.8 2065.84 13714.8 2061.36 13593.9 2059.12C13464 2056.88 13345.3 2024.41 13222.2 1986.34C13106.8 1950.51 13008.3 1925.88 12886.3 1930.35C12755.3 1934.83 12623.2 1943.79 12493.3 1924.76C12490 1924.76 12485.5 1930.35 12490 1931.47C12606.4 1960.59 12725.1 1963.95 12844.9 1963.95C12899.7 1963.95 12954.6 1965.07 13009.4 1971.78C13078.9 1980.74 13146 2013.21 13213.2 2033.37C13325.2 2066.96 13431.5 2096.07 13549.1 2094.95C13683.4 2092.71 13818.9 2082.63 13953.2 2078.15C13957.7 2079.27 13964.4 2070.32 13958.8 2070.32Z" fill="#83858F"/>
<path opacity="0.8" d="M14812 2082.63C14803 2079.27 14794 2077.03 14785.1 2074.79C14716.8 2059.12 14656.3 2064.72 14589.2 2082.63C14542.1 2094.95 14475 2127.42 14501.8 2184.53C14524.2 2233.79 14633.9 2214.76 14673.1 2209.16C14730.2 2202.44 14799.6 2214.76 14845.5 2169.97C14891.4 2127.42 14854.5 2098.31 14812 2082.63Z" fill="#878893"/>
<path opacity="0.8" d="M15085.1 2141.98C15042.6 2127.42 14984.4 2128.54 14947.4 2156.53C14931.7 2163.25 14915 2174.45 14918.3 2189C14923.9 2212.52 14964.2 2211.4 14982.1 2212.52C15010.1 2214.76 15042.6 2213.64 15070.6 2210.28C15089.6 2208.04 15110.9 2199.08 15118.7 2180.05C15127.7 2157.65 15100.8 2146.45 15085.1 2141.98Z" fill="#878893"/>
<path opacity="0.8" d="M9627.21 425.483C9618.25 422.124 9609.3 419.885 9600.34 417.646C9530.93 401.97 9469.35 407.568 9401.06 425.483C9354.03 437.8 9284.62 470.271 9312.61 529.615C9336.12 578.882 9446.96 559.847 9487.26 555.368C9545.48 547.53 9616.01 560.967 9661.92 515.059C9706.7 470.271 9669.75 441.159 9627.21 425.483Z" fill="#9294A0"/>
<path opacity="0.8" d="M9903.74 484.828C9861.2 470.272 9801.86 471.391 9763.8 499.384C9748.12 506.102 9731.33 517.299 9734.69 531.855C9740.28 555.369 9780.59 554.249 9799.62 555.369C9827.61 557.608 9861.2 556.488 9889.19 553.129C9908.22 550.89 9929.49 541.932 9937.33 522.897C9947.41 501.623 9919.42 490.426 9903.74 484.828Z" fill="#9294A0"/>
<path opacity="0.5" d="M9034.95 2370.39C8998.01 2379.35 8961.06 2389.43 8925.23 2400.63C8975.62 2399.51 9026 2401.75 9070.78 2402.87C9171.54 2407.34 9270.06 2416.3 9370.82 2412.94C9451.43 2409.58 9532.04 2403.99 9612.65 2397.27C9420.09 2373.75 9226.4 2324.49 9034.95 2370.39Z" fill="#83858F"/>
</g>
</g>
<rect y="1617" width="21610" height="2022" fill="url(#paint0_linear_202_4)"/>
<defs>
<linearGradient id="paint0_linear_202_4" x1="10805" y1="1617" x2="10805" y2="3639" gradientUnits="userSpaceOnUse">
<stop stop-color="#FFFDFD" stop-opacity="0"/>
<stop offset="0.729167" stop-color="#E9E9E9"/>
<stop offset="1" stop-color="#D9D9D9"/>
</linearGradient>
<clipPath id="clip0_202_4">
<rect width="21610" height="3087" fill="white"/>
</clipPath>
</defs>
</svg>
