<svg width="3199" height="3982" viewBox="0 0 3199 3982" fill="none" xmlns="http://www.w3.org/2000/svg">
<path d="M950.754 3574.99C941.382 3623.41 897.645 3670.27 855.469 3693.7C807.046 3720.25 767.995 3706.19 716.447 3704.63C700.827 3704.63 693.017 3720.25 702.389 3732.74C743.002 3790.53 832.039 3771.79 883.586 3740.55C942.944 3704.63 977.309 3648.4 977.309 3578.12C978.871 3559.37 953.878 3557.81 950.754 3574.99Z" fill="#D4D4D4"/>
<path d="M741.44 3710.88C677.396 3726.5 616.476 3756.17 552.432 3763.98C444.651 3776.48 441.527 3698.38 388.417 3632.78C379.045 3621.85 360.301 3628.1 358.739 3642.15C349.366 3721.81 421.22 3804.59 500.885 3813.96C586.797 3823.33 675.834 3776.48 752.374 3742.11C767.995 3735.87 760.185 3706.19 741.44 3710.88Z" fill="#D4D4D4"/>
<path d="M411.848 3667.14C364.987 3624.97 305.629 3599.98 258.767 3557.81C229.089 3531.26 202.534 3500.02 196.286 3459.41C188.475 3414.12 213.468 3376.63 219.716 3332.9C221.278 3314.15 199.41 3301.66 185.351 3314.15C118.183 3373.51 127.556 3484.4 177.541 3551.56C227.527 3617.16 315.001 3667.14 393.104 3693.7C407.162 3698.38 424.344 3678.08 411.848 3667.14Z" fill="#D4D4D4"/>
<path d="M208.782 3353.2C243.147 3295.41 249.395 3237.62 261.892 3172.02C280.636 3076.75 332.184 3043.95 425.907 3029.89C461.834 3023.64 450.899 2970.54 416.534 2975.22C335.308 2984.59 257.205 3015.83 225.965 3097.05C196.286 3173.58 202.534 3261.05 179.103 3339.14C174.417 3354.76 199.41 3370.38 208.782 3353.2Z" fill="#D4D4D4"/>
<path d="M421.22 3017.39C516.505 3023.64 541.498 2922.12 624.287 2897.13C750.812 2859.64 839.849 2989.28 942.944 3037.7C971.061 3050.19 996.054 3003.34 967.937 2989.28C875.776 2940.86 799.236 2844.02 688.33 2839.34C644.593 2837.77 594.608 2844.02 557.118 2869.01C504.009 2904.94 485.264 2965.85 418.096 2984.59C404.038 2990.84 402.476 3015.83 421.22 3017.39Z" fill="#D4D4D4"/>
<path d="M981.995 3595.3C1055.41 3579.68 1108.52 3525.01 1117.89 3450.04C1125.7 3386 1103.83 3275.11 1049.16 3236.06C1039.79 3229.81 1024.17 3236.06 1024.17 3246.99C1021.05 3298.54 1056.97 3348.52 1064.78 3400.06C1075.72 3481.28 1035.1 3520.33 971.061 3560.93C957.002 3573.43 961.689 3599.98 981.995 3595.3Z" fill="#D4D4D4"/>
<path d="M1064.78 3292.29C1103.83 3234.5 1125.7 3151.72 1096.02 3084.55C1072.59 3031.45 1002.3 2959.6 941.382 2962.73C930.448 2962.73 924.2 2978.35 928.886 2987.72C955.441 3033.01 1014.8 3045.51 1042.92 3093.93C1077.28 3154.84 1050.73 3214.19 1033.54 3275.11C1027.29 3295.41 1052.29 3311.03 1064.78 3292.29Z" fill="#D4D4D4"/>
<path d="M774.243 3053.32C746.126 3029.89 713.323 3008.02 675.834 3006.46C633.659 3004.9 599.294 3031.45 569.615 3059.56C561.805 3067.37 558.681 3082.99 566.491 3092.36C610.228 3139.22 657.09 3140.78 716.447 3122.04C738.316 3115.79 739.878 3084.55 714.885 3081.43C694.579 3078.31 677.396 3084.55 657.09 3086.12C632.097 3089.24 619.6 3079.87 600.856 3062.69C599.294 3073.62 599.294 3084.55 597.732 3095.49C619.6 3073.62 646.155 3047.07 680.52 3051.75C707.075 3054.88 732.068 3073.62 757.061 3084.55C777.367 3090.8 788.301 3064.25 774.243 3053.32Z" fill="#D4D4D4"/>
<path d="M439.965 3197.01C408.724 3203.26 377.483 3212.63 355.614 3237.62C330.622 3265.73 324.373 3303.22 322.811 3340.71C322.811 3353.2 333.746 3367.26 347.804 3364.13C374.359 3356.32 411.848 3345.39 424.344 3315.72C427.469 3307.91 421.22 3295.41 411.848 3295.41C385.293 3295.41 360.301 3315.72 336.87 3323.52C346.242 3331.33 357.176 3337.58 366.549 3345.39C366.549 3317.28 369.673 3286.04 388.417 3264.17C404.038 3246.99 429.031 3237.62 450.899 3229.81C466.52 3220.44 457.147 3192.33 439.965 3197.01Z" fill="#D4D4D4"/>
<path d="M794.55 3598.42C861.718 3539.07 950.754 3495.33 986.681 3406.31C991.367 3393.81 981.995 3381.32 969.499 3378.19C916.389 3370.38 892.958 3393.81 860.155 3431.3C850.783 3442.23 864.842 3454.73 875.776 3450.04C910.141 3435.98 922.637 3412.55 964.813 3417.24C958.564 3407.87 953.878 3398.5 947.63 3389.13C914.827 3471.91 822.666 3506.27 771.119 3574.99C763.309 3592.17 782.053 3609.35 794.55 3598.42Z" fill="#D4D4D4"/>
<path d="M814.856 3462.53C771.119 3487.53 758.623 3535.94 750.812 3582.8C746.126 3609.35 785.177 3610.92 791.426 3585.93C799.236 3550 803.922 3514.08 830.477 3485.96C841.411 3476.59 830.477 3454.73 814.856 3462.53Z" fill="#D4D4D4"/>
<path d="M550.87 3570.31C533.688 3570.31 514.943 3567.18 510.257 3550C505.571 3531.26 516.505 3514.08 505.571 3495.33C500.885 3485.96 489.95 3482.84 480.578 3490.65C458.71 3509.39 461.834 3553.12 474.33 3576.55C489.95 3606.23 521.191 3606.23 552.432 3604.67C571.177 3603.11 569.615 3570.31 550.87 3570.31Z" fill="#D4D4D4"/>
<path d="M746.126 3420.36C753.936 3392.25 761.747 3348.52 728.944 3331.34C707.075 3320.4 664.9 3331.34 663.338 3357.89C663.338 3365.7 666.462 3371.94 674.272 3375.07C689.892 3381.32 696.141 3367.26 710.199 3368.82C714.885 3368.82 711.761 3404.74 711.761 3412.55C710.199 3431.3 739.878 3440.67 746.126 3420.36Z" fill="#D4D4D4"/>
<path d="M207.22 3768.67C308.753 3935.79 669.586 4090.42 803.922 3879.56C811.732 3867.07 799.236 3848.32 785.177 3856.13C677.396 3915.49 586.797 3943.6 464.958 3899.87C375.921 3868.63 299.381 3812.4 229.089 3749.92C218.154 3740.55 200.972 3756.17 207.22 3768.67Z" fill="#D4D4D4"/>
<path d="M786.739 3885.81C949.192 3938.92 1056.97 3848.32 1175.69 3746.8C1255.35 3678.08 1333.46 3645.28 1424.05 3599.98C1483.41 3570.31 1514.65 3528.13 1533.4 3464.1C1538.08 3446.92 1516.22 3439.11 1508.4 3454.73C1447.49 3578.12 1291.28 3593.73 1191.31 3676.52C1066.35 3779.6 974.185 3887.37 796.112 3853.01C774.243 3849.89 767.995 3879.56 786.739 3885.81Z" fill="#D4D4D4"/>
<path d="M1511.53 3432.86C1441.24 3509.39 1353.76 3475.03 1264.73 3471.91C1252.23 3471.91 1244.42 3487.52 1255.35 3495.33C1335.02 3548.44 1494.35 3554.69 1536.52 3450.04C1542.77 3437.54 1522.46 3421.93 1511.53 3432.86Z" fill="#D4D4D4"/>
<path d="M1302.21 3493.77C1474.04 3395.37 1411.56 3179.83 1542.77 3054.88C1648.99 2954.92 1800.51 2948.67 1797.38 2772.17C1797.38 2750.31 1769.27 2748.75 1764.58 2769.05C1727.09 2937.74 1566.2 2936.17 1474.04 3059.56C1378.76 3187.64 1420.93 3362.57 1280.35 3464.1C1264.73 3473.47 1283.47 3503.14 1302.21 3493.77Z" fill="#D4D4D4"/>
<path d="M1789.57 2734.69C1678.67 2911.18 1403.75 2723.76 1267.85 2886.19C1250.67 2906.5 1280.35 2926.8 1299.09 2914.31C1410 2839.34 1516.22 2869.01 1641.18 2861.2C1722.41 2856.52 1786.45 2829.96 1817.69 2748.75C1822.38 2733.13 1798.95 2719.07 1789.57 2734.69Z" fill="#D4D4D4"/>
<path d="M1336.58 2861.2C1350.64 2726.88 1438.11 2669.09 1545.89 2606.61C1616.19 2567.57 1703.66 2517.58 1725.53 2434.8C1730.22 2419.18 1711.47 2411.38 1702.1 2422.31C1624 2508.21 1536.52 2553.51 1441.24 2617.55C1355.32 2676.9 1306.9 2751.87 1306.9 2858.08C1306.9 2878.38 1335.02 2881.51 1336.58 2861.2Z" fill="#D4D4D4"/>
<path d="M1706.78 2419.18C1556.83 2486.35 1372.51 2439.49 1213.18 2492.59C1085.09 2536.33 967.937 2623.79 875.776 2720.63C858.594 2737.81 880.462 2761.24 899.207 2748.75C1046.04 2651.91 1155.38 2544.14 1336.58 2511.34C1461.54 2489.47 1617.75 2530.08 1722.41 2441.05C1733.34 2431.68 1720.84 2412.94 1706.78 2419.18Z" fill="#D4D4D4"/>
<path d="M935.134 2712.82C944.506 2662.84 955.44 2617.55 981.995 2573.81C1003.86 2537.89 1033.54 2509.78 1061.66 2480.1C1071.03 2470.73 1061.66 2453.55 1049.16 2459.79C961.689 2501.97 900.769 2617.55 905.455 2714.38C907.017 2731.57 932.01 2726.88 935.134 2712.82Z" fill="#D4D4D4"/>
<path d="M1033.54 2442.61C911.703 2559.76 728.944 2542.57 582.111 2606.61C530.564 2628.48 482.14 2659.72 446.213 2703.45C385.293 2775.3 388.417 2872.14 285.322 2908.06C272.826 2912.75 279.074 2931.49 293.133 2929.93C347.804 2922.12 383.731 2909.62 414.972 2862.76C439.965 2826.84 447.775 2783.11 474.33 2747.18C518.067 2686.27 586.797 2655.03 655.527 2633.17C797.674 2586.31 958.564 2590.99 1055.41 2462.92C1064.78 2448.86 1046.04 2431.68 1033.54 2442.61Z" fill="#D4D4D4"/>
<path d="M332.184 2890.88C344.68 2886.19 352.49 2887.75 361.863 2876.82C371.235 2865.89 375.921 2848.71 380.607 2834.65C389.979 2800.29 399.352 2754.99 382.169 2720.63C377.483 2711.26 364.987 2712.82 360.301 2722.19C347.804 2748.75 349.366 2779.98 344.68 2808.1C343.118 2820.59 339.994 2833.09 335.308 2844.02C333.746 2847.15 325.936 2869.01 322.811 2870.57C308.753 2876.82 318.125 2895.56 332.184 2890.88Z" fill="#D4D4D4"/>
<path d="M368.111 2733.13C213.468 2922.12 -3.65635 3093.93 1.02979 3359.45C4.15388 3509.39 61.9496 3738.99 227.527 3781.16C244.709 3785.85 261.892 3760.86 243.147 3749.92C72.8839 3651.52 5.71593 3403.18 61.9496 3218.88C118.183 3034.57 286.884 2906.5 394.666 2751.87C408.724 2734.69 382.169 2717.51 368.111 2733.13Z" fill="#D4D4D4"/>
<path d="M1177.25 3732.74C1425.62 3665.58 1664.61 3604.67 1820.81 3386C1923.91 3240.74 1989.52 3109.54 2128.54 2992.4C2219.14 2915.87 2281.62 2869.01 2305.05 2748.75C2308.17 2733.13 2283.18 2728.44 2276.93 2742.5C2216.01 2889.32 2098.86 2940.86 1997.33 3050.19C1927.03 3126.73 1877.05 3218.88 1820.81 3307.91C1656.8 3565.62 1431.86 3603.11 1169.44 3709.31C1155.38 3714 1163.19 3737.43 1177.25 3732.74Z" fill="#D4D4D4"/>
<path d="M2295.68 2726.88C2256.63 2773.74 2200.39 2804.97 2142.6 2823.72C2094.17 2839.34 2039.5 2836.21 1994.2 2858.08C1984.83 2862.76 1984.83 2878.38 1995.76 2881.51C2052 2897.13 2122.29 2875.26 2175.4 2854.95C2234.76 2831.53 2283.18 2797.16 2317.55 2742.5C2325.36 2728.44 2306.61 2715.95 2295.68 2726.88Z" fill="#D4D4D4"/>
<path d="M2025.44 2867.45C2100.42 2803.41 2155.09 2723.76 2219.14 2651.91C2292.55 2570.69 2383.15 2508.21 2458.13 2428.56C2559.66 2322.35 2623.71 2189.59 2628.39 2041.2C2628.39 2025.59 2604.96 2017.78 2600.28 2034.96C2547.17 2225.51 2489.37 2352.02 2337.85 2484.78C2211.33 2595.68 2111.35 2720.63 2005.14 2851.83C1997.33 2862.76 2014.51 2876.82 2025.44 2867.45Z" fill="#D4D4D4"/>
<path d="M2601.84 2034.96C2556.54 2138.04 2462.82 2194.27 2361.28 2234.88C2298.8 2259.87 2201.95 2267.68 2150.41 2312.98C2142.6 2320.79 2145.72 2337.97 2158.22 2337.97C2239.44 2339.53 2355.03 2284.86 2426.89 2248.94C2517.49 2205.2 2590.9 2141.17 2623.71 2042.77C2631.52 2027.15 2609.65 2019.34 2601.84 2034.96Z" fill="#D4D4D4"/>
<path d="M2206.64 2295.79C2278.49 2236.44 2317.55 2184.9 2344.1 2094.31C2394.09 1928.75 2398.77 1824.1 2520.61 1694.46C2564.35 1647.61 2606.52 1605.43 2625.27 1541.4C2656.51 1433.63 2587.78 1350.84 2614.33 1243.07C2617.46 1229.02 2598.71 1214.96 2589.34 1230.58C2547.17 1308.67 2570.6 1302.43 2576.84 1393.02C2590.9 1610.12 2529.98 1602.31 2428.45 1722.58C2287.87 1886.58 2336.29 2111.49 2187.9 2278.61C2176.96 2289.55 2195.71 2305.17 2206.64 2295.79Z" fill="#D4D4D4"/>
<path d="M2594.03 1227.45C2544.04 1282.12 2522.17 1338.35 2487.81 1402.39C2434.7 1500.79 2367.53 1517.97 2275.37 1574.2C2086.36 1688.21 1959.84 1866.27 1759.89 1967.8C1738.03 1978.73 1753.65 2006.84 1775.51 2000.59C2008.26 1924.06 2142.6 1699.15 2353.47 1580.44C2506.55 1494.54 2520.61 1396.14 2614.33 1246.2C2622.14 1233.7 2604.96 1214.96 2594.03 1227.45Z" fill="#D4D4D4"/>
<path d="M1806.76 1984.98C1872.36 1924.06 1864.55 1830.35 1895.79 1753.81C1937.97 1653.85 2055.12 1608.56 2116.04 1522.65C2125.41 1510.16 2108.23 1496.1 2097.3 1505.47C2023.88 1563.26 1925.47 1619.49 1873.92 1699.15C1823.94 1778.81 1827.06 1885.01 1784.89 1969.36C1780.2 1981.85 1797.38 1992.79 1806.76 1984.98Z" fill="#D4D4D4"/>
<path d="M2086.36 1500.79C1923.91 1600.75 1727.09 1599.19 1589.63 1741.32C1442.8 1894.39 1397.5 2064.63 1180.38 2141.17C1163.19 2147.41 1172.56 2173.97 1189.75 2170.84C1360.01 2139.6 1434.99 2020.9 1528.71 1888.14C1620.87 1753.82 1714.6 1680.41 1869.24 1631.99C1955.15 1605.43 2031.69 1583.57 2100.42 1522.65C2111.35 1513.28 2100.42 1491.42 2086.36 1500.79Z" fill="#D4D4D4"/>
<path d="M1231.92 2144.29C1275.66 2109.93 1294.4 2056.82 1310.03 2005.28C1330.33 1938.12 1347.51 1874.08 1380.32 1811.61C1386.57 1800.67 1374.07 1786.61 1363.13 1795.99C1270.97 1878.77 1294.4 2028.71 1210.05 2119.3C1197.56 2134.92 1214.74 2158.35 1231.92 2144.29Z" fill="#D4D4D4"/>
<path d="M1369.38 1794.42C1231.92 1831.91 1136.64 1963.11 1046.04 2064.63C974.185 2147.41 908.579 2214.58 808.608 2262.99C753.936 2289.55 730.506 2302.04 705.513 2358.27C700.827 2370.77 718.009 2383.26 727.381 2373.89C775.805 2320.78 825.79 2308.29 883.586 2275.49C936.696 2245.81 980.433 2197.39 1021.05 2153.66C1130.39 2034.96 1227.24 1891.26 1374.07 1816.29C1388.13 1810.04 1383.44 1789.74 1369.38 1794.42Z" fill="#D4D4D4"/>
<path d="M753.936 2319.22C841.411 2250.5 896.083 2122.42 900.769 2011.53C900.769 2000.59 886.71 1994.35 880.462 2003.72C821.104 2098.99 821.104 2213.01 736.754 2297.36C724.257 2309.85 739.878 2330.16 753.936 2319.22Z" fill="#D4D4D4"/>
<path d="M875.776 2016.21C658.652 2284.86 263.454 2548.82 230.651 2922.12C229.089 2937.74 252.519 2943.98 257.206 2928.36C333.746 2720.63 427.469 2562.88 580.549 2400.44C691.454 2281.74 811.732 2170.84 897.645 2031.83C908.579 2017.78 886.71 2002.16 875.776 2016.21Z" fill="#D4D4D4"/>
<path d="M2294.11 2798.73C2430.01 2628.48 2619.02 2501.97 2745.55 2325.47C2867.39 2153.66 2809.59 1956.86 2858.01 1763.19C2861.14 1749.13 2842.39 1736.63 2834.58 1750.69C2728.36 1939.68 2831.46 2133.36 2686.19 2325.47C2561.22 2491.03 2384.71 2606.61 2269.12 2781.55C2256.63 2797.16 2281.62 2814.35 2294.11 2798.73Z" fill="#D4D4D4"/>
<path d="M2873.63 1769.43C2931.43 1663.22 3034.52 1589.81 3087.63 1480.48C3157.93 1335.22 3072.01 1191.53 3111.06 1040.03C3114.19 1027.53 3097.01 1015.03 3087.63 1027.53C3012.66 1154.04 3095.44 1275.87 3059.52 1408.63C3022.03 1541.4 2898.63 1627.3 2842.39 1752.25C2834.58 1771 2864.26 1788.18 2873.63 1769.43Z" fill="#D4D4D4"/>
<path d="M3089.2 1024.41C3053.27 1057.21 3022.03 1091.57 2989.23 1127.49C2956.42 1164.98 2915.81 1200.9 2895.5 1246.2C2887.69 1261.82 2911.12 1275.87 2923.62 1264.94C2959.55 1233.7 2987.66 1191.53 3018.9 1155.61C3051.71 1119.68 3084.51 1083.76 3112.63 1044.71C3122 1030.65 3101.69 1011.91 3089.2 1024.41Z" fill="#D4D4D4"/>
<path d="M2932.99 1224.33C2978.29 983.797 3137.62 791.683 3186.04 554.274C3223.53 373.094 3168.86 190.351 3129.81 13.8564C3125.12 -8.01018 3093.88 -1.76258 3095.44 20.104C3114.19 280.942 3184.48 485.551 3072.01 741.702C3001.72 901.016 2917.37 1043.15 2898.63 1219.64C2895.5 1244.63 2928.31 1246.2 2932.99 1224.33Z" fill="#D4D4D4"/>
<path d="M3098.57 16.9801C3078.26 190.351 3061.08 373.094 2917.37 488.674C2850.2 543.341 2772.1 577.703 2715.87 646.426C2689.31 679.226 2679.94 704.217 2659.63 741.702C2587.78 877.588 2565.91 901.016 2453.44 996.292C2358.16 1077.51 2287.87 1211.83 2183.21 1275.87C2162.9 1288.37 2176.96 1321.17 2198.83 1310.23C2331.6 1249.32 2411.27 1099.38 2522.17 1007.23C2637.76 911.95 2673.69 796.369 2764.29 682.35C2842.39 582.388 2964.23 535.531 3034.52 432.446C3111.07 316.865 3126.69 152.865 3125.12 20.1039C3126.69 1.36106 3100.13 -1.76274 3098.57 16.9801Z" fill="#D4D4D4"/>
<path d="M2230.07 1264.94C2273.81 1211.83 2294.11 1144.67 2312.86 1079.07C2334.73 1004.1 2364.41 933.816 2389.4 860.407C2392.52 849.474 2380.03 838.54 2370.65 846.35C2266 944.75 2272.25 1121.24 2198.83 1243.07C2186.33 1264.94 2214.45 1283.68 2230.07 1264.94Z" fill="#D4D4D4"/>
<path d="M2353.47 882.274C2222.26 918.197 2128.54 1016.6 2044.19 1118.12C1989.52 1183.72 1939.53 1254.01 1878.61 1316.48C1814.57 1382.08 1741.15 1414.88 1664.61 1463.3C1648.99 1472.67 1656.8 1494.54 1673.98 1492.98C1800.51 1486.73 1905.16 1366.46 1980.14 1275.87C2098.86 1133.74 2194.14 997.855 2362.84 908.826C2376.9 902.579 2370.65 877.588 2353.47 882.274Z" fill="#D4D4D4"/>
<path d="M1725.53 1492.98C1786.45 1405.51 1795.82 1157.17 1864.55 1107.19C1886.42 1091.57 1859.87 1060.33 1838 1075.95C1638.05 1213.4 1502.16 1447.68 1316.27 1605.43C1139.76 1755.38 985.119 1911.57 819.542 2075.57C807.046 2088.06 819.542 2114.61 838.287 2103.68C902.331 2066.19 947.63 2017.78 999.178 1963.11C1103.83 1850.65 1205.37 1760.06 1324.08 1664.79C1522.46 1503.91 1656.8 1250.88 1866.11 1108.75C1884.86 1096.25 1862.99 1061.89 1844.25 1074.39C1742.71 1139.99 1755.21 1378.96 1702.1 1477.36C1691.16 1492.98 1714.6 1510.16 1725.53 1492.98Z" fill="#D4D4D4"/>
</svg>
