<svg width="5804" height="1609" viewBox="0 0 5804 1609" fill="none" xmlns="http://www.w3.org/2000/svg">
<g opacity="0.2">
<path d="M3621.06 946.103H3618.86L3163.35 727.927C3163.35 727.927 3163.35 727.927 3161.15 727.927L2980.7 562.642C2978.5 560.438 2978.5 560.439 2978.5 558.235C2978.5 556.031 2978.5 553.827 2980.7 553.827L3200.76 373.115L2934.49 64.5832C2932.29 62.3794 2932.29 57.9719 2934.49 55.7681C2936.69 53.5643 2941.09 53.5643 2943.29 55.7681L3213.96 368.708C3213.96 370.911 3216.16 370.911 3216.16 373.115C3216.16 375.319 3216.16 375.319 3213.96 377.523L2993.91 558.235L3169.95 716.908L3623.27 932.881C3625.47 935.085 3627.67 937.288 3625.47 941.696C3625.47 943.9 3623.27 946.103 3621.06 946.103Z" fill="#8D8D8D"/>
<path d="M3174.35 677.239C3198.56 681.647 3213.96 705.889 3209.56 730.131C3205.16 754.372 3180.95 769.799 3156.75 765.391C3132.54 760.984 3117.14 736.742 3121.54 712.5C3125.94 688.258 3150.15 672.832 3174.35 677.239Z" fill="#8D8D8D"/>
<path d="M2991.71 525.178C3009.31 529.585 3022.51 547.216 3018.11 564.846C3013.71 582.476 2996.11 595.699 2978.5 591.292C2960.9 586.884 2947.7 569.254 2952.1 551.623C2956.5 531.789 2974.1 520.77 2991.71 525.178Z" fill="#8D8D8D"/>
<path d="M3224.96 295.982C3266.78 304.797 3293.18 344.465 3284.38 386.338C3275.58 428.21 3235.97 454.655 3194.16 445.84C3152.35 437.025 3125.94 397.357 3134.74 355.485C3143.54 315.816 3183.15 289.37 3224.96 295.982Z" fill="#8D8D8D"/>
<path d="M2930.09 0.672598C2958.7 7.284 2978.5 35.9333 2971.9 64.5827C2965.3 93.2321 2936.69 113.066 2908.09 106.455C2879.48 99.8437 2859.67 71.1941 2866.27 42.5447C2872.88 13.8953 2901.48 -3.735 2930.09 0.672598Z" fill="#8D8D8D"/>
</g>
<g opacity="0.2">
<path d="M21.1837 1595.76C18.9831 1595.76 16.7826 1593.55 14.582 1591.35C14.582 1589.15 14.582 1584.74 18.9832 1584.74L228.036 1514.22L109.206 1311.47C107.005 1309.26 107.005 1307.06 109.206 1304.86C111.406 1302.65 111.406 1302.65 115.808 1302.65L544.915 1331.3L254.442 923.6C252.242 921.396 252.242 916.988 256.643 914.785C258.844 912.581 263.245 912.581 265.445 916.988L562.52 1335.71C564.72 1337.91 564.72 1340.12 562.52 1342.32C560.319 1344.53 560.319 1344.53 555.918 1344.53L124.61 1315.88L241.239 1516.42C241.239 1518.63 241.239 1520.83 241.239 1520.83C241.239 1523.03 239.039 1523.03 236.838 1525.24L21.1837 1595.76Z" fill="#8D8D8D"/>
<path d="M588.926 1326.9C595.528 1344.53 584.525 1364.36 566.921 1368.77C549.316 1375.38 529.511 1364.36 525.11 1346.73C518.509 1329.1 529.511 1309.26 547.116 1304.86C564.72 1300.45 584.525 1309.26 588.926 1326.9Z" fill="#8D8D8D"/>
<path d="M129.01 1302.65C131.211 1309.26 126.81 1318.08 120.208 1320.28C113.606 1322.49 104.804 1318.08 102.604 1311.47C100.403 1304.86 104.804 1296.04 111.406 1293.84C118.007 1291.63 126.81 1293.84 129.01 1302.65Z" fill="#8D8D8D"/>
<path d="M254.442 1509.81C258.843 1520.83 252.242 1531.85 241.239 1534.05C230.236 1538.46 219.233 1531.85 217.033 1520.83C212.632 1509.81 219.233 1498.79 230.236 1496.59C241.239 1494.38 252.242 1501 254.442 1509.81Z" fill="#8D8D8D"/>
<path d="M276.448 912.581C278.649 921.396 274.247 930.211 265.445 934.619C256.643 936.822 247.841 932.415 243.44 923.6C241.239 914.784 245.64 905.969 254.442 901.562C263.245 899.358 272.047 903.765 276.448 912.581Z" fill="#8D8D8D"/>
<path d="M342.464 1315.88C344.664 1324.69 340.263 1335.71 331.461 1340.12C322.659 1342.32 311.656 1337.91 307.255 1329.1C305.055 1320.28 309.456 1309.26 318.258 1304.86C327.06 1300.45 338.063 1304.86 342.464 1315.88Z" fill="#8D8D8D"/>
<path d="M38.788 1582.54C43.1891 1593.56 36.5874 1604.57 25.5846 1606.78C14.5819 1611.19 3.57912 1604.57 1.37857 1593.56C-3.02254 1582.54 3.57909 1571.52 14.5819 1569.31C25.5846 1567.11 34.3869 1573.72 38.788 1582.54Z" fill="#8D8D8D"/>
</g>
<g opacity="0.2">
<path d="M5122.6 859.874C5120.4 859.874 5120.4 859.874 5122.6 859.874C5118.2 857.67 5116 855.467 5116 851.059L5261.24 357.408C5261.24 355.204 5263.44 353 5265.64 353C5267.84 353 5270.04 353 5272.24 355.204L5514.3 712.22L5600.12 498.451C5600.12 496.247 5602.32 496.247 5604.52 494.043C5606.72 494.043 5608.92 494.043 5608.92 494.043L5800.37 619.66C5802.57 621.864 5804.77 626.271 5802.57 628.475C5800.37 630.679 5795.97 632.883 5793.77 630.679L5608.92 509.47L5523.1 727.646C5523.1 729.85 5520.9 732.054 5518.7 732.054C5516.5 732.054 5514.3 732.054 5512.1 729.85L5270.04 372.834L5129.2 853.263C5127 857.67 5124.8 859.874 5122.6 859.874Z" fill="#8D8D8D"/>
<path d="M4731.32 406.936C4742.32 391.509 4762.12 387.102 4777.53 398.121C4792.93 409.14 4797.33 428.974 4786.33 444.401C4775.33 459.827 4755.52 464.235 4740.12 453.216C4724.71 444.401 4720.31 422.363 4731.32 406.936Z" fill="#8D8D8D"/>
<path d="M4995.38 785.99C4999.78 779.378 5008.58 777.175 5015.19 781.582C5021.79 785.99 5023.99 794.805 5019.59 801.416C5015.19 808.028 5006.38 810.232 4999.78 805.824C4993.18 801.417 4990.98 792.601 4995.38 785.99Z" fill="#8D8D8D"/>
<path d="M5081.2 556.794C5087.81 547.979 5098.81 545.775 5107.61 550.183C5116.41 556.794 5118.61 567.813 5114.21 576.628C5107.61 585.444 5096.61 587.647 5087.81 583.24C5076.8 578.832 5074.6 565.609 5081.2 556.794Z" fill="#8D8D8D"/>
<path d="M4599.29 909.403C4603.69 900.587 4614.69 898.384 4623.5 904.995C4632.3 909.403 4634.5 920.421 4627.9 929.237C4623.5 938.052 4612.49 940.256 4603.69 933.644C4597.09 927.033 4594.89 918.218 4599.29 909.403Z" fill="#8D8D8D"/>
<path d="M4874.35 609.685C4880.95 600.87 4891.96 598.666 4900.76 605.278C4909.56 611.889 4911.76 622.908 4905.16 631.723C4898.56 640.539 4887.55 642.742 4878.75 636.131C4872.15 629.519 4869.95 618.501 4874.35 609.685Z" fill="#8D8D8D"/>
<path d="M5272.65 682.411C5279.25 673.596 5290.26 671.392 5299.06 675.799C5307.86 682.411 5310.06 693.43 5305.66 702.245C5299.06 711.06 5288.06 713.264 5279.25 708.856C5268.25 704.449 5266.05 691.226 5272.65 682.411Z" fill="#8D8D8D"/>
</g>
<g opacity="0.5">
<path d="M1618.01 1237L1629.01 1270.06H1662.02L1635.62 1287.69L1646.62 1320.74L1618.01 1298.71L1589.4 1320.74L1600.41 1287.69L1574 1270.06H1607.01L1618.01 1237Z" fill="#8D8D8D"/>
</g>
<g opacity="0.5">
<path d="M2670.26 958.994L2681.26 992.051H2716.47L2687.87 1009.68L2698.87 1042.74L2670.26 1020.7L2643.85 1040.53L2654.86 1009.68L2626.25 992.051H2661.46L2670.26 958.994Z" fill="#8D8D8D"/>
</g>
<g opacity="0.5">
<path d="M916.813 468L930.017 507.668H971.827L938.819 529.706L949.822 567.171L916.813 542.929L883.805 567.171L897.008 529.706L864 507.668H905.811L916.813 468Z" fill="white"/>
</g>
<path d="M3927 145.465C3927 145.465 3946.8 147.668 3953.41 152.076C3960.01 156.484 3962.21 187.337 3962.21 187.337C3962.21 187.337 3964.41 160.891 3973.21 154.28C3982.01 147.668 4001.82 147.668 4001.82 147.668C4001.82 147.668 3979.81 145.465 3973.21 136.649C3966.61 127.834 3964.41 108 3964.41 108C3964.41 108 3964.41 130.038 3955.61 136.649C3946.8 143.261 3927 145.465 3927 145.465Z" fill="white"/>
</svg>
