<svg width="9074" height="9042" viewBox="0 0 9074 9042" fill="none" xmlns="http://www.w3.org/2000/svg">
<path d="M1970 9041.25H32.75V2583.75H1970V9041.25ZM9073.25 9041.25H7136V5591.65C7136 4692.77 6815.71 4245.26 6180.94 4245.26C5677.9 4245.26 5358.9 4495.82 5198.75 4997.56C5198.75 5812.5 5198.75 9041.25 5198.75 9041.25H3261.5C3261.5 9041.25 3287.33 3229.5 3261.5 2583.75H4790.64L4908.81 3875.25H4948.84C5345.98 3229.5 5980.75 2791.68 6851.22 2791.68C7513.12 2791.68 8048.44 2975.72 8457.2 3438.08C8868.55 3901.08 9073.25 4522.29 9073.25 5394.7V9041.25Z" fill="black"/>
<path d="M1001.37 1938C1554.16 1938 2002.29 1504.33 2002.29 969.375C2002.29 434.418 1554.16 0.75 1001.37 0.75C448.585 0.75 0.460938 434.418 0.460938 969.375C0.460938 1504.33 448.585 1938 1001.37 1938Z" fill="black"/>
</svg>
