<svg width="12013" height="7982" viewBox="0 0 12013 7982" fill="none" xmlns="http://www.w3.org/2000/svg">
<path fill-rule="evenodd" clip-rule="evenodd" d="M6168.91 1683.93C6865.61 741.741 7635.88 0 8620.86 0C10480.5 0 12012 2367.11 12012.8 5185.43C12012.8 6904.65 11272.5 7981.97 9942.93 7981.97C8784.53 7981.97 8144.89 7331.82 6996.99 5411.41L6496.24 4568.31L6407.65 4420.42C6277.07 4199.71 6144.43 3980.24 6009.75 3762.01L5125.37 5323.57C3869.37 7519.51 3162.16 7981.97 2180.18 7981.97C815.315 7981.97 0 6919.66 0 5234.98C0 2543.54 1497.75 0 3451.95 0C3691.44 0 3921.17 29.2792 4145.64 91.5915C4378.37 156.156 4604.35 256.757 4831.08 397.147C5264.26 666.666 5697.44 1084.08 6168.91 1683.93ZM7307.05 3353.6C7117.86 3045.79 6936.18 2762.76 6761.25 2503L6756.75 2496.99C7391.13 1517.27 7915.16 1030.03 8537.53 1030.03C9831.07 1030.03 10866.4 2934.68 10866.4 5274.02C10866.4 6165.91 10573.6 6683.18 9969.21 6683.18C9388.88 6683.18 9111.85 6300.29 8009.75 4528.52L7307.05 3353.6ZM3638.13 1318.32C4182.43 1393.39 4677.92 1794.29 5394.89 2820.57C4981.2 3454.03 4572.03 4090.43 4167.41 4729.73C3148.65 6325.82 2796.54 6683.93 2229.73 6683.93C1646.39 6683.93 1298.8 6171.92 1298.8 5257.5C1298.8 3304.05 2273.27 1305.55 3435.43 1305.55C3503.75 1305.55 3571.32 1309.31 3638.13 1318.32Z" fill="black"/>
</svg>
