<svg width="4239" height="2511" viewBox="0 0 4239 2511" fill="none" xmlns="http://www.w3.org/2000/svg">
<path d="M1309.26 1158.44C1593.87 795.437 1980.14 500.681 2398.35 309.018C2627.78 203.022 2870.28 128.97 3121.5 99.9302C3424.99 65.0823 3687.82 126.066 3979.7 198.666C4005.84 204.474 4017.46 172.53 3994.22 160.914C3517.93 -77.2133 2899.33 31.6864 2434.65 237.87C1985.94 436.794 1580.8 750.425 1290.38 1146.82C1280.22 1156.98 1299.09 1170.05 1309.26 1158.44Z" fill="#D4D4D4"/>
<path d="M3981.15 191.406C3857.72 446.958 3766.24 676.373 3558.59 879.653C3385.79 1049.54 3178.13 1183.12 2958.86 1286.21C2486.93 1506.92 2020.8 1528.7 1514.01 1565C1493.68 1566.45 1498.03 1595.49 1515.46 1598.39C2020.8 1692.77 2633.59 1525.79 3080.84 1292.02C3481.63 1082.93 3955.02 679.277 4010.2 197.214C4010.2 179.79 3986.96 176.886 3981.15 191.406Z" fill="#D4D4D4"/>
<path d="M3350.93 56.3705C3202.82 269.814 3390.14 802.697 3682.02 796.889C3705.25 796.889 3713.96 766.397 3690.73 756.233C3440.97 645.881 3273.97 339.51 3372.72 67.9865C3379.98 54.9186 3359.65 43.3026 3350.93 56.3705Z" fill="#D4D4D4"/>
<path d="M2213.93 984.196C1949.64 1071.32 1698.43 1196.19 1447.21 1312.35C1255.53 1400.92 1004.31 1473.52 838.773 1605.65C825.704 1617.27 835.869 1639.05 853.294 1636.14C1060.95 1598.39 1280.22 1447.38 1470.44 1358.81C1723.11 1242.65 1977.23 1130.85 2228.45 1013.24C2247.33 1004.52 2232.8 976.936 2213.93 984.196Z" fill="#D4D4D4"/>
<path d="M1312.16 1159.89C1299.09 1233.94 1326.68 1306.54 1358.63 1371.88C1392.03 1441.58 1437.04 1527.24 1499.49 1575.16C1511.1 1583.87 1527.08 1569.35 1521.27 1556.28C1487.87 1489.49 1434.14 1432.86 1399.29 1366.07C1365.89 1300.73 1342.66 1231.04 1338.3 1158.44C1338.3 1143.92 1315.07 1146.82 1312.16 1159.89Z" fill="#D4D4D4"/>
<path d="M2947.25 628.457C2890.61 246.582 2227 483.258 2393.99 852.065C2454.98 985.649 2608.9 1032.11 2742.5 990.005C2916.75 934.829 2998.07 754.781 2954.51 581.994C2948.7 560.214 2916.75 566.022 2919.66 587.801C2938.53 731.549 2910.94 876.749 2767.18 943.541C2661.18 992.909 2521.78 976.937 2449.17 878.201C2221.19 567.474 2826.72 266.91 2924.01 631.361C2928.37 647.333 2948.7 644.429 2947.25 628.457Z" fill="#D4D4D4"/>
<path d="M2771.54 542.79C2671.34 518.106 2550.82 558.762 2486.93 641.526C2424.48 722.837 2453.53 840.449 2542.11 891.269C2620.52 936.281 2719.26 901.433 2777.35 838.997C2852.86 757.685 2851.41 648.786 2787.51 560.214C2775.9 544.242 2752.66 564.57 2764.28 580.542C2815.1 651.689 2820.91 740.261 2762.83 809.957C2716.36 866.585 2632.14 902.885 2560.98 869.489C2475.31 827.381 2452.07 718.481 2513.06 647.334C2571.15 579.09 2675.7 544.242 2762.83 564.57C2777.35 566.022 2786.06 545.694 2771.54 542.79Z" fill="#D4D4D4"/>
<path d="M2714.91 590.705C2714.91 580.541 2714.91 571.829 2713.46 561.665C2714.91 571.829 2716.36 580.541 2719.26 590.705C2732.33 584.897 2743.95 580.541 2757.02 574.733C2775.9 567.473 2764.28 542.789 2746.85 544.241C2717.81 547.145 2688.77 550.049 2661.18 558.761C2642.3 564.569 2652.47 596.513 2671.34 592.157C2697.48 584.897 2729.43 592.157 2755.57 596.513C2757.02 584.897 2758.47 571.829 2758.47 560.213C2678.6 548.597 2598.74 563.117 2518.87 577.637C2495.64 581.993 2499.99 612.485 2520.32 615.389C2600.19 629.909 2678.61 656.045 2759.92 664.757C2786.06 667.661 2794.77 628.457 2770.09 619.745C2712 597.965 2646.66 612.485 2584.22 611.033C2558.08 611.033 2546.46 648.785 2574.05 657.497C2636.49 677.825 2703.29 674.921 2767.18 685.085C2768.64 669.113 2770.09 653.141 2771.54 637.169C2720.72 632.813 2674.25 613.937 2626.33 596.513C2621.97 612.485 2619.07 628.457 2614.71 644.429C2669.89 642.977 2722.17 616.841 2777.35 615.389C2771.54 602.321 2765.73 589.253 2758.47 576.185C2745.4 593.609 2674.25 590.705 2649.56 599.417C2627.78 606.677 2633.59 638.621 2651.01 647.333C2684.41 661.853 2738.14 703.961 2777.35 689.441C2788.97 685.085 2793.32 672.017 2791.87 661.853C2791.87 660.401 2791.87 660.401 2791.87 658.949C2790.42 648.785 2778.8 637.169 2768.64 637.169C2719.26 638.621 2672.8 656.045 2624.88 657.497C2597.29 657.497 2582.77 698.153 2613.26 709.769C2662.63 727.193 2710.55 733.001 2762.83 735.905C2759.92 718.481 2757.02 701.057 2754.12 683.633C2714.91 698.153 2674.25 701.057 2636.49 714.125C2645.21 715.577 2655.37 715.577 2664.08 717.029C2666.99 721.385 2668.44 725.741 2671.34 731.549C2665.54 741.713 2661.18 751.877 2655.37 762.041C2665.54 756.233 2685.87 756.233 2697.48 756.233C2703.29 756.233 2714.91 756.233 2720.72 754.781C2736.69 747.521 2727.98 767.849 2717.81 747.521C2720.72 735.905 2722.17 725.741 2725.07 714.125C2735.24 705.413 2720.72 711.221 2707.65 711.221C2700.39 711.221 2691.67 711.221 2682.96 712.673C2668.44 717.029 2656.82 728.645 2659.73 744.617C2666.99 779.465 2733.79 788.177 2761.38 798.341C2765.73 780.917 2770.09 762.041 2772.99 744.617C2706.2 737.357 2640.85 753.329 2575.5 746.069C2543.56 741.713 2531.94 791.081 2562.44 801.245C2597.29 812.861 2630.69 817.217 2662.63 837.545C2672.8 844.805 2687.32 843.353 2697.48 836.093L2698.93 834.641C2714.91 823.025 2709.1 801.245 2697.48 789.629C2671.34 764.945 2588.57 783.821 2559.53 793.985C2542.11 799.793 2539.2 825.929 2549.37 837.545C2565.34 857.873 2585.67 863.681 2610.36 854.969C2637.95 846.257 2627.78 802.697 2600.19 801.245C2590.03 801.245 2574.05 799.793 2566.79 791.081C2563.89 805.601 2560.98 820.121 2556.63 836.093C2568.24 830.285 2581.31 824.477 2592.93 820.121C2604.55 814.313 2610.36 801.245 2608.9 789.629C2607.45 770.753 2600.19 754.781 2584.22 743.165C2571.15 733.001 2542.11 731.549 2533.39 719.933C2531.94 733.001 2530.49 747.521 2530.49 760.589C2556.63 737.357 2594.38 744.617 2621.97 719.933C2637.95 705.413 2633.59 679.277 2613.26 670.565C2604.55 670.565 2597.29 664.757 2594.38 657.497C2584.22 670.565 2575.5 685.085 2565.34 698.153C2566.79 698.153 2566.79 698.153 2568.24 698.153C2562.44 690.893 2556.63 683.633 2549.37 676.373C2552.27 669.113 2556.63 660.401 2559.53 651.689C2545.01 664.757 2510.16 669.113 2489.83 674.921C2473.86 679.277 2463.69 692.345 2466.6 708.317C2476.76 792.533 2608.9 737.357 2546.46 650.237C2531.94 629.909 2497.09 642.977 2495.64 666.209C2492.73 705.413 2485.47 743.165 2482.57 782.369C2481.12 798.341 2492.73 811.409 2508.71 814.313C2585.67 825.929 2666.99 830.285 2739.59 802.697C2730.88 785.273 2722.17 767.849 2714.91 748.973C2681.51 763.493 2649.56 776.561 2611.81 778.013C2581.31 779.465 2563.89 823.025 2598.74 834.641C2655.37 853.517 2693.13 844.805 2748.31 820.121C2738.14 804.149 2727.98 788.177 2716.36 770.753C2681.51 801.245 2645.21 823.025 2603.09 843.353C2568.24 859.325 2592.93 910.144 2627.78 895.624C2671.34 878.2 2719.26 872.392 2764.28 856.42C2755.57 838.997 2746.85 821.573 2739.59 804.149C2709.1 818.669 2678.6 831.737 2649.56 849.161C2620.52 865.132 2640.85 905.788 2671.34 895.624C2703.29 884.008 2733.79 870.941 2764.28 857.873C2799.13 841.901 2774.44 791.081 2739.59 805.601C2694.58 823.025 2648.11 827.381 2603.09 844.805C2611.81 862.229 2620.52 879.652 2627.78 897.076C2674.25 875.297 2714.91 850.613 2754.12 817.217C2778.8 795.437 2752.66 754.781 2722.17 767.849C2684.41 785.273 2659.73 793.985 2619.07 779.465C2614.71 798.341 2610.36 817.217 2606 836.093C2655.37 834.641 2694.58 821.573 2739.59 802.697C2774.44 786.725 2749.76 735.905 2714.91 748.973C2652.47 773.657 2579.86 766.397 2514.52 756.233C2523.23 766.397 2531.94 778.013 2540.65 788.177C2543.56 748.973 2550.82 711.221 2553.72 672.017C2536.3 677.825 2518.87 682.181 2502.9 687.989C2510.16 692.345 2517.42 695.249 2524.68 699.605C2517.42 711.221 2508.71 721.385 2501.45 733.001C2533.39 724.289 2611.81 714.125 2607.45 667.661C2606 657.497 2597.29 648.785 2588.57 645.881C2582.77 642.977 2576.96 642.977 2571.15 642.977C2549.37 641.525 2533.39 664.757 2542.11 683.633C2553.72 708.317 2568.24 717.029 2592.93 727.193C2590.03 711.221 2587.12 693.797 2584.22 677.825C2558.08 701.057 2520.32 693.797 2492.73 719.933C2481.12 730.097 2479.66 747.521 2489.83 760.589C2502.9 776.561 2550.82 782.369 2553.72 804.149C2559.53 793.985 2563.89 783.821 2569.7 773.657C2558.08 779.465 2545.01 785.273 2533.39 789.629C2515.97 796.889 2513.06 820.121 2523.23 834.641C2540.65 856.42 2568.24 863.681 2595.83 865.133C2592.93 847.709 2590.03 828.833 2585.67 811.409C2588.57 809.957 2590.03 809.957 2592.93 808.505C2590.03 823.025 2587.12 837.545 2582.77 852.065C2597.29 847.709 2616.16 847.709 2630.69 846.257C2639.4 846.257 2648.11 846.257 2656.82 844.805C2669.89 841.901 2674.25 850.613 2664.08 841.901C2664.08 827.381 2662.63 811.409 2662.63 796.889L2661.18 798.341C2672.8 798.341 2684.41 796.889 2696.03 796.889C2661.18 772.205 2623.42 766.397 2582.77 753.329C2578.41 772.205 2574.05 789.629 2569.7 808.505C2636.49 815.765 2701.84 799.793 2767.18 807.053C2799.13 811.409 2809.3 763.493 2778.8 753.329C2751.21 743.165 2722.17 734.453 2696.03 721.385C2701.84 728.645 2707.65 735.905 2713.46 743.165C2706.2 753.329 2697.48 763.493 2690.22 773.657C2712 766.397 2738.14 779.465 2757.02 762.041C2765.73 754.781 2770.09 740.261 2764.28 728.645C2745.4 690.893 2658.28 699.605 2627.78 718.481C2616.16 725.741 2611.81 734.453 2611.81 748.973C2613.26 766.397 2629.23 773.657 2643.75 775.109C2662.63 778.013 2687.32 763.493 2706.2 759.137C2729.43 753.329 2749.76 748.973 2771.54 741.713C2796.23 733.001 2788.97 690.893 2762.83 689.441C2714.91 687.989 2671.34 683.633 2626.33 667.661C2621.97 685.085 2619.07 702.509 2614.71 719.933C2664.08 718.481 2710.55 699.605 2759.92 698.153C2752.66 690.893 2743.95 683.633 2736.69 676.373C2736.69 677.825 2736.69 677.825 2736.69 679.277C2741.05 670.565 2746.85 660.401 2751.21 651.689C2759.92 648.785 2720.72 634.265 2713.46 629.909C2697.48 622.649 2681.51 613.937 2664.08 608.129C2664.08 624.101 2665.54 640.073 2665.54 656.045C2706.2 641.525 2765.73 656.045 2793.32 615.389C2803.49 600.869 2794.77 574.733 2774.44 576.185C2719.26 577.637 2666.99 603.773 2611.81 606.677C2585.67 608.129 2572.6 644.429 2600.19 654.593C2651.01 673.469 2703.29 692.345 2757.02 698.153C2788.97 701.057 2791.87 654.593 2761.38 650.237C2701.84 641.525 2637.95 645.881 2579.86 627.005C2576.96 642.977 2572.6 657.497 2569.7 673.469C2626.33 674.921 2690.22 658.949 2742.5 679.277C2745.4 664.757 2749.76 648.785 2752.66 634.265C2669.89 632.813 2592.93 608.129 2511.61 593.609C2511.61 606.677 2513.06 619.745 2513.06 631.361C2588.57 616.841 2665.54 602.321 2742.5 612.485C2765.73 615.389 2768.64 579.089 2745.4 576.185C2714.91 571.829 2681.51 566.021 2651.01 573.281C2653.92 584.897 2658.28 595.061 2661.18 606.677C2685.87 597.965 2712 595.061 2738.14 592.157C2735.24 581.993 2730.88 571.829 2727.98 561.665C2716.36 567.473 2703.29 573.281 2691.67 579.089C2677.15 586.349 2682.96 605.225 2697.48 608.129C2710.55 611.033 2722.17 611.033 2732.33 600.869C2736.69 596.513 2739.59 589.253 2736.69 583.445C2736.69 581.993 2735.24 581.993 2735.24 580.541C2730.88 574.733 2726.52 571.829 2719.26 573.281C2707.65 573.281 2706.2 576.185 2694.58 580.541C2693.13 570.377 2700.39 595.061 2714.91 590.705Z" fill="#D4D4D4"/>
<path d="M3175.23 191.406C3175.23 189.954 3173.78 188.502 3173.78 187.05C3173.78 191.406 3173.78 197.214 3173.78 201.57C3173.78 200.118 3175.23 198.666 3175.23 198.666C3188.3 165.27 3134.57 144.942 3122.95 179.79C3117.14 195.762 3120.05 211.734 3133.12 221.898C3130.21 216.09 3125.86 211.734 3122.95 205.926C3124.4 216.09 3128.76 227.706 3136.02 236.418C3143.28 243.678 3156.35 245.13 3162.16 234.966C3167.97 224.802 3169.42 214.638 3172.32 204.474C3169.42 210.282 3166.52 214.638 3163.61 220.446C3167.97 217.542 3170.87 213.186 3173.78 207.378C3179.58 189.954 3170.87 210.282 3165.06 213.186C3157.8 211.734 3150.54 210.282 3141.83 208.83C3143.28 210.282 3143.28 211.734 3144.73 213.186C3157.8 230.61 3181.04 210.282 3175.23 191.406Z" fill="#D4D4D4"/>
<path d="M3210.08 417.918C3199.91 422.274 3189.75 428.082 3178.13 432.438C3188.3 448.41 3217.34 442.602 3211.53 422.274C3210.08 415.014 3207.17 407.754 3205.72 401.946C3195.56 367.098 3149.09 396.138 3169.42 419.37C3172.32 423.726 3175.23 429.534 3178.13 433.89C3191.2 452.766 3217.34 439.698 3210.08 417.918Z" fill="#D4D4D4"/>
<path d="M3285.59 631.362C3285.59 627.006 3284.14 621.198 3284.14 616.842C3279.78 581.994 3220.24 602.322 3243.48 635.718C3246.38 640.074 3249.29 642.978 3252.19 647.334C3263.81 663.306 3291.4 650.237 3287.04 631.362C3285.59 627.006 3285.59 621.198 3284.14 616.842C3275.42 577.638 3218.79 608.13 3243.48 635.718C3246.38 638.622 3249.29 642.977 3253.64 645.881C3266.71 660.401 3288.49 650.237 3285.59 631.362Z" fill="#D4D4D4"/>
<path d="M3334.96 804.149C3336.41 807.053 3342.22 825.929 3339.32 815.765C3348.03 863.681 3422.09 831.737 3391.59 791.081C3397.4 799.793 3387.24 783.821 3385.79 779.465C3368.36 746.069 3321.89 769.301 3334.96 804.149Z" fill="#D4D4D4"/>
<path d="M1445.76 971.129C1451.57 1080.03 1471.9 1178.76 1532.88 1270.24C1544.5 1287.66 1570.64 1265.88 1557.57 1248.46C1499.49 1165.7 1476.25 1065.51 1470.44 966.772C1470.44 950.801 1445.76 955.157 1445.76 971.129Z" fill="#D4D4D4"/>
<path d="M1437.05 1033.56C1428.33 1046.63 1406.55 1045.18 1393.48 1050.99C1387.67 1053.89 1383.32 1059.7 1384.77 1066.96C1393.48 1097.45 1441.4 1103.26 1466.09 1110.52C1468.99 1100.36 1470.44 1090.19 1473.35 1078.58C1437.05 1078.58 1400.74 1080.03 1365.89 1081.48C1347.01 1081.48 1338.3 1107.62 1358.63 1116.33C1393.48 1129.4 1429.78 1142.46 1464.64 1156.98C1467.54 1145.37 1470.44 1132.3 1473.35 1120.68C1425.43 1119.23 1381.86 1113.42 1335.4 1097.45C1312.16 1088.74 1299.09 1125.04 1322.33 1133.75C1374.6 1154.08 1429.78 1172.96 1480.61 1194.74C1480.61 1181.67 1479.16 1168.6 1479.16 1156.98C1448.66 1168.6 1418.17 1170.05 1387.67 1161.34C1361.54 1154.08 1347.01 1191.83 1373.15 1200.54C1405.1 1210.71 1474.8 1210.71 1493.68 1239.75C1502.39 1229.58 1511.1 1219.42 1521.27 1210.71C1473.35 1193.28 1423.98 1187.48 1373.15 1186.02C1345.56 1184.57 1341.21 1226.68 1368.8 1229.58C1419.62 1233.94 1466.09 1252.82 1514.01 1270.24C1516.91 1255.72 1521.27 1241.2 1524.17 1226.68C1479.16 1225.23 1434.14 1222.32 1389.13 1220.87C1370.25 1219.42 1355.73 1242.65 1368.8 1258.62C1394.93 1287.66 1441.4 1277.5 1476.25 1287.66C1477.7 1273.14 1479.16 1257.17 1480.61 1242.65C1444.31 1251.36 1409.45 1231.04 1383.32 1267.34C1377.51 1276.05 1377.51 1287.66 1384.77 1296.38C1410.91 1325.42 1457.37 1315.25 1492.23 1325.42C1492.23 1310.9 1490.77 1296.38 1490.77 1281.86C1467.54 1290.57 1439.95 1292.02 1415.26 1294.92C1419.62 1309.44 1425.43 1325.42 1429.78 1339.94C1467.54 1322.51 1503.84 1306.54 1541.6 1289.12C1534.34 1274.6 1527.08 1260.08 1521.27 1245.56C1490.77 1260.08 1458.83 1273.14 1428.33 1287.66C1438.5 1292.02 1450.11 1294.92 1460.28 1299.28C1444.31 1255.72 1460.28 1210.71 1425.43 1175.86C1412.36 1161.34 1393.48 1167.15 1384.77 1183.12C1349.92 1249.91 1393.48 1289.12 1434.14 1338.48C1444.31 1351.55 1468.99 1341.39 1464.64 1323.96C1451.57 1280.4 1406.55 1245.56 1431.24 1199.09C1418.17 1202 1403.65 1203.45 1390.58 1206.35C1413.81 1229.58 1406.55 1286.21 1418.17 1319.61C1422.52 1332.68 1439.95 1335.58 1450.11 1331.22C1480.61 1316.7 1512.56 1303.64 1543.05 1289.12C1570.64 1276.05 1550.31 1232.49 1522.72 1245.56C1484.97 1262.98 1448.66 1278.95 1410.91 1296.38C1384.77 1307.99 1399.29 1344.29 1425.43 1341.39C1454.47 1338.48 1484.97 1334.13 1512.56 1323.96C1531.43 1316.7 1529.98 1284.76 1511.1 1280.4C1490.77 1274.6 1435.59 1280.4 1422.52 1265.88C1422.52 1276.05 1423.98 1284.76 1423.98 1294.92C1432.69 1283.31 1476.25 1293.47 1490.77 1289.12C1511.1 1284.76 1518.36 1251.36 1495.13 1244.1C1474.8 1238.3 1419.62 1244.1 1406.55 1229.58C1399.29 1242.65 1393.48 1254.27 1386.22 1267.34C1431.24 1268.79 1476.25 1270.24 1521.27 1271.69C1545.95 1273.14 1556.12 1236.84 1531.43 1228.13C1480.61 1209.26 1429.78 1190.38 1374.6 1186.02C1373.15 1200.54 1371.7 1215.06 1370.25 1229.58C1418.17 1231.04 1461.73 1235.39 1508.2 1251.36C1529.98 1258.62 1543.05 1233.94 1531.43 1216.52C1502.39 1171.5 1435.59 1175.86 1389.13 1159.89C1384.77 1172.96 1378.96 1186.02 1374.6 1199.09C1416.72 1212.16 1457.37 1209.26 1499.49 1193.28C1516.91 1187.48 1514.01 1159.89 1498.03 1155.53C1444.31 1138.11 1390.58 1116.33 1338.3 1097.45C1333.94 1109.07 1329.59 1122.14 1325.23 1133.75C1373.15 1149.72 1422.52 1155.53 1473.35 1158.44C1493.68 1159.89 1502.39 1129.4 1482.06 1122.14C1445.76 1110.52 1410.91 1096 1376.06 1082.93C1374.6 1094.55 1374.6 1106.16 1373.15 1116.33C1409.46 1114.88 1444.31 1113.42 1480.61 1110.52C1496.58 1109.07 1499.49 1082.93 1483.51 1080.03C1473.35 1077.12 1422.52 1069.86 1418.17 1058.25C1415.26 1064.06 1413.81 1071.32 1410.91 1077.12C1429.78 1065.51 1450.11 1068.41 1463.18 1048.08C1466.09 1033.56 1445.76 1019.04 1437.05 1033.56Z" fill="#D4D4D4"/>
<path d="M1529.98 1258.62C1529.98 1370.43 1592.42 1464.81 1672.29 1540.31C1692.62 1559.19 1726.02 1531.6 1705.69 1512.72C1631.63 1438.67 1577.9 1363.17 1561.93 1258.62C1559.02 1239.75 1529.98 1239.75 1529.98 1258.62Z" fill="#D4D4D4"/>
<path d="M1423.98 1319.61C1466.09 1370.43 1492.23 1431.41 1518.36 1492.4C1529.98 1485.14 1541.6 1477.88 1553.21 1470.62C1516.91 1437.22 1492.23 1395.11 1460.28 1357.36C1442.85 1337.03 1409.45 1358.81 1421.07 1383.5C1437.04 1419.8 1453.02 1456.1 1470.44 1493.85C1484.96 1486.59 1499.49 1479.33 1514.01 1473.52C1498.03 1437.22 1482.06 1400.92 1464.64 1363.17C1450.11 1371.88 1437.04 1380.59 1422.52 1390.76C1467.54 1447.38 1522.72 1466.26 1585.16 1501.11C1611.3 1515.63 1635.98 1488.04 1620.01 1463.36C1601.13 1434.32 1564.83 1386.4 1554.67 1366.07C1538.69 1373.33 1524.17 1380.59 1508.2 1387.85C1522.72 1416.89 1545.95 1492.4 1583.71 1495.3C1667.93 1504.01 1561.93 1379.14 1554.67 1366.07C1538.69 1337.03 1492.23 1358.81 1506.75 1387.85C1528.53 1429.96 1561.93 1464.81 1582.26 1506.92C1593.87 1495.3 1604.04 1482.23 1615.66 1470.62C1575 1459 1534.34 1457.55 1492.23 1456.1C1463.18 1454.64 1451.57 1496.75 1480.61 1506.92C1541.6 1530.15 1598.23 1544.67 1663.58 1541.76C1694.07 1540.31 1691.17 1490.94 1662.12 1489.49C1617.11 1488.04 1572.09 1486.59 1527.08 1483.68C1502.39 1482.23 1486.42 1517.08 1509.65 1531.6C1551.76 1557.73 1593.87 1554.83 1640.34 1566.45C1644.7 1549.02 1647.6 1531.6 1651.96 1515.63C1606.94 1514.18 1561.93 1512.72 1516.91 1509.82C1524.17 1517.08 1532.88 1524.34 1540.15 1531.6C1506.75 1408.18 1468.99 1274.6 1361.53 1194.74C1344.11 1181.67 1315.07 1199.09 1320.88 1220.87C1348.47 1328.32 1413.81 1429.96 1514.01 1482.23C1532.88 1492.4 1559.02 1470.62 1541.6 1451.74C1466.09 1379.14 1399.29 1316.7 1373.15 1210.71C1360.08 1219.42 1347.01 1228.13 1332.49 1236.84C1426.88 1307.99 1458.83 1431.41 1487.87 1540.31C1490.77 1550.48 1499.49 1562.09 1511.1 1562.09C1556.12 1563.54 1601.13 1564.99 1646.15 1567.9C1675.19 1569.35 1688.26 1524.34 1657.77 1517.08C1618.56 1506.92 1575 1511.27 1538.69 1488.04C1532.88 1504.01 1527.08 1519.98 1521.27 1535.95C1566.28 1537.41 1611.3 1538.86 1656.31 1541.76C1656.31 1524.34 1654.86 1506.92 1654.86 1489.49C1599.68 1492.4 1550.31 1476.42 1499.49 1457.55C1495.13 1474.97 1492.23 1492.4 1487.87 1508.37C1524.17 1509.82 1561.93 1509.82 1596.78 1519.98C1617.11 1525.79 1640.34 1505.46 1630.18 1483.68C1608.39 1441.58 1576.45 1406.73 1553.21 1364.62C1537.24 1371.88 1521.27 1379.14 1505.29 1386.4C1515.46 1403.82 1527.08 1418.34 1538.69 1432.86C1553.21 1451.74 1550.31 1457.55 1576.45 1450.29C1611.3 1438.67 1590.97 1447.38 1585.16 1428.51C1579.35 1406.73 1560.47 1383.5 1550.31 1361.72C1535.79 1331.22 1489.32 1353 1503.84 1383.5C1521.27 1421.25 1553.21 1457.55 1576.45 1492.4C1588.07 1479.33 1599.68 1467.71 1611.3 1454.64C1554.67 1424.15 1500.94 1405.28 1458.83 1354.46C1439.95 1332.68 1405.1 1355.91 1416.72 1382.04C1434.14 1418.34 1450.11 1454.64 1467.54 1490.94C1480.61 1519.98 1524.17 1498.2 1511.1 1470.62C1493.68 1434.32 1477.7 1398.02 1460.28 1361.72C1447.21 1370.43 1434.14 1379.14 1421.07 1387.85C1455.92 1424.15 1483.51 1467.71 1521.27 1501.11C1537.24 1515.63 1560.47 1492.4 1551.76 1474.97C1521.27 1412.54 1492.23 1351.55 1444.31 1299.28C1435.59 1284.76 1410.91 1303.64 1423.98 1319.61Z" fill="#D4D4D4"/>
<path d="M1529.98 881.105C1493.68 1127.94 1637.44 1360.26 1813.14 1522.89C1842.19 1549.02 1878.49 1509.82 1849.45 1483.68C1682.45 1331.22 1551.76 1119.23 1575 886.913C1576.45 856.421 1534.34 852.065 1529.98 881.105Z" fill="#D4D4D4"/>
<path d="M1811.69 1498.2C1833.47 1519.98 1839.28 1549.02 1863.97 1569.35C1881.39 1583.87 1904.63 1560.64 1895.91 1541.76C1855.25 1445.93 1678.1 1428.51 1585.16 1421.25C1563.38 1419.8 1554.67 1453.19 1576.45 1460.45C1625.82 1476.42 1676.64 1488.04 1726.02 1505.46C1750.7 1514.18 1768.13 1480.78 1747.8 1464.81C1702.78 1428.51 1656.31 1395.11 1614.2 1354.46C1602.59 1366.07 1592.42 1379.14 1580.8 1390.76C1617.11 1412.54 1651.96 1422.7 1692.62 1434.32C1715.85 1441.58 1737.63 1413.99 1720.21 1393.66C1630.18 1286.21 1528.53 1188.93 1499.49 1046.63C1482.06 1052.44 1464.64 1058.25 1447.21 1062.6C1477.7 1129.4 1506.75 1197.64 1537.24 1264.43C1550.31 1293.47 1596.78 1278.95 1590.97 1247.01C1577.9 1168.6 1564.83 1096 1534.34 1021.95C1519.82 987.101 1467.54 1011.78 1482.06 1046.63C1500.94 1094.55 1514.01 1143.92 1527.08 1193.28C1545.95 1187.48 1563.38 1181.67 1582.26 1175.86C1550.31 1103.26 1521.27 1033.56 1503.84 955.157C1495.13 917.405 1439.95 927.569 1445.76 965.321C1454.47 1020.5 1471.9 1072.77 1474.8 1127.94C1495.13 1125.04 1514.01 1120.68 1534.34 1117.78C1524.17 1084.38 1521.27 1050.99 1511.1 1017.59C1502.39 987.101 1451.57 982.745 1450.11 1020.5C1442.85 1203.45 1548.86 1345.74 1689.71 1453.19C1701.33 1435.77 1712.95 1419.8 1724.56 1402.37C1692.62 1379.14 1660.67 1358.81 1628.72 1335.58C1599.68 1315.25 1566.28 1353 1588.07 1380.59C1647.6 1457.55 1720.21 1518.53 1813.14 1550.48C1836.38 1557.74 1850.9 1528.7 1832.02 1512.72C1762.32 1454.64 1691.17 1413.99 1634.53 1339.94C1621.46 1354.46 1606.94 1370.43 1593.87 1384.95C1625.82 1408.18 1657.77 1428.51 1689.71 1451.74C1721.66 1474.97 1756.51 1425.6 1724.56 1400.92C1604.04 1307.99 1503.84 1184.57 1511.1 1024.85C1490.77 1026.3 1470.44 1026.3 1450.11 1027.76C1460.28 1061.15 1463.18 1094.55 1473.35 1127.94C1483.51 1165.7 1535.79 1156.98 1532.88 1117.78C1528.53 1062.6 1511.1 1008.88 1502.39 955.157C1483.51 958.061 1463.18 962.417 1444.31 965.321C1463.18 1048.08 1493.68 1123.59 1528.53 1200.54C1541.6 1229.58 1592.42 1215.06 1583.71 1183.12C1569.19 1127.94 1554.67 1074.22 1532.88 1020.5C1515.46 1029.21 1498.03 1036.47 1480.61 1045.18C1508.2 1113.42 1519.82 1183.12 1532.88 1255.72C1550.31 1249.91 1569.19 1244.1 1586.61 1238.3C1556.12 1171.5 1525.62 1104.71 1495.13 1037.92C1482.06 1010.33 1437.04 1023.4 1442.85 1055.34C1474.8 1207.8 1579.35 1313.8 1679.55 1425.6C1688.26 1412.54 1698.43 1399.47 1707.14 1384.95C1670.84 1374.78 1640.34 1368.98 1606.94 1348.65C1585.16 1335.58 1553.21 1364.62 1573.54 1384.95C1618.56 1428.51 1667.93 1464.81 1718.76 1501.11C1726.02 1488.04 1733.28 1473.52 1740.54 1460.45C1689.71 1445.93 1638.89 1435.77 1588.07 1421.25C1585.16 1434.32 1582.26 1447.38 1579.35 1460.45C1660.67 1467.71 1816.05 1480.78 1853.8 1559.19C1863.97 1550.48 1875.58 1540.31 1885.75 1531.6C1862.52 1512.72 1856.71 1486.59 1832.02 1470.62C1818.95 1460.45 1797.17 1482.23 1811.69 1498.2Z" fill="#D4D4D4"/>
<path d="M1519.82 934.829C1525.62 1135.2 1627.27 1382.04 1778.29 1517.08C1791.36 1528.7 1811.69 1509.82 1802.98 1495.3C1749.25 1408.18 1686.81 1331.22 1641.79 1238.3C1595.33 1141.01 1566.28 1039.37 1543.05 933.377C1541.6 921.761 1519.82 920.309 1519.82 934.829Z" fill="#D4D4D4"/>
<path d="M1779.74 1514.18C1723.11 1508.37 1670.84 1492.4 1614.2 1495.3C1595.33 1496.75 1595.33 1524.34 1611.3 1530.15C1638.89 1540.31 1667.93 1544.67 1696.97 1550.47C1715.85 1554.83 1747.8 1567.9 1766.68 1562.09C1782.65 1556.28 1791.36 1540.31 1779.74 1524.34C1768.13 1508.37 1731.82 1509.82 1715.85 1506.92C1691.17 1502.56 1654.86 1490.94 1630.18 1501.11C1615.66 1506.92 1612.75 1525.79 1622.92 1537.41C1627.27 1541.76 1630.18 1543.21 1635.99 1546.12C1653.41 1553.38 1669.38 1535.95 1666.48 1519.98C1654.86 1435.77 1586.61 1368.98 1534.34 1306.54C1527.08 1297.83 1511.1 1307.99 1516.91 1318.16C1556.12 1382.04 1609.85 1451.74 1621.46 1528.7C1631.63 1519.98 1641.79 1511.27 1651.96 1502.56C1653.41 1504.01 1656.31 1505.46 1657.77 1506.92C1654.86 1518.53 1651.96 1531.6 1650.51 1543.21C1640.34 1547.57 1663.58 1546.12 1669.38 1547.57C1682.45 1549.02 1695.52 1550.47 1708.59 1553.38C1718.76 1554.83 1730.37 1557.73 1740.54 1557.73C1757.96 1559.19 1757.96 1566.45 1746.35 1554.83C1749.25 1543.22 1752.15 1531.6 1753.61 1519.98C1762.32 1517.08 1741.99 1518.53 1737.63 1517.08C1723.11 1515.63 1710.04 1514.17 1695.52 1512.72C1672.29 1509.82 1646.15 1505.46 1624.37 1498.2C1622.92 1509.82 1622.92 1521.44 1621.46 1533.05C1675.19 1528.7 1724.56 1541.76 1778.29 1544.67C1795.72 1544.67 1798.62 1517.08 1779.74 1514.18Z" fill="#D4D4D4"/>
<path d="M1453.02 1159.89C1432.69 1142.46 1403.65 1130.85 1380.41 1149.72C1355.73 1168.6 1348.47 1207.8 1364.44 1232.49C1371.7 1244.1 1387.67 1244.1 1392.03 1231.04C1400.74 1209.26 1397.84 1167.15 1431.24 1190.38C1451.57 1203.45 1470.44 1175.86 1453.02 1159.89Z" fill="#D4D4D4"/>
<path d="M1299.09 1094.55C1055.14 1158.44 818.443 1247.01 615.147 1400.92C604.982 1408.18 610.791 1424.15 622.408 1425.6C661.615 1429.96 699.37 1435.77 738.577 1437.22C754.55 1438.67 757.455 1413.99 741.481 1412.54C674.684 1403.82 654.354 1418.34 703.726 1370.43C754.55 1321.06 848.938 1284.76 912.831 1254.27C1037.71 1196.19 1169.86 1154.08 1303.45 1116.33C1316.52 1113.42 1313.62 1091.64 1299.09 1094.55Z" fill="#D4D4D4"/>
<path d="M735.673 1415.44C442.345 1537.41 196.938 1759.56 3.80613 2007.85C-9.26292 2025.28 18.3273 2044.15 31.3963 2026.73C227.432 1774.08 464.127 1585.32 745.838 1435.77C758.907 1429.96 750.194 1409.63 735.673 1415.44Z" fill="#D4D4D4"/>
<path d="M70.6035 2003.5C243.405 2004.95 416.207 1959.94 580.296 1910.57C597.722 1904.76 593.365 1875.72 574.488 1881.53C408.947 1932.35 240.501 1968.65 69.1514 1983.17C58.9866 1983.17 58.9865 2003.5 70.6035 2003.5Z" fill="#D4D4D4"/>
<path d="M564.323 1894.6C558.515 1946.87 523.664 1987.53 500.43 2032.54C494.622 2042.7 510.595 2051.41 517.855 2044.15C557.063 2010.76 591.913 1948.32 593.366 1896.05C593.366 1878.63 567.227 1875.72 564.323 1894.6Z" fill="#D4D4D4"/>
<path d="M530.924 2039.8C870.72 1945.42 1232.3 1840.87 1522.72 1636.14C1534.34 1627.43 1521.27 1605.65 1508.2 1614.36C1193.09 1798.77 863.459 1893.15 523.664 2018.02C510.595 2022.37 517.855 2044.15 530.924 2039.8Z" fill="#D4D4D4"/>
<path d="M789.401 314.826C1190.19 169.626 1699.88 142.038 2061.45 404.85C2089.05 425.178 2119.54 381.618 2091.95 361.29C1740.54 107.19 1162.59 110.094 780.688 295.95C766.167 301.758 774.88 320.634 789.401 314.826Z" fill="#D4D4D4"/>
<path d="M770.524 316.278C824.252 378.714 889.597 441.15 952.038 494.874C969.464 509.394 995.602 481.806 979.628 464.382C922.996 403.398 859.103 340.962 793.757 290.142C777.784 278.526 757.455 301.758 770.524 316.278Z" fill="#D4D4D4"/>
<path d="M938.969 484.709C1046.43 521.009 1153.88 557.309 1255.53 608.129C1380.41 669.113 1464.64 741.713 1559.02 840.449C1570.64 852.065 1593.87 843.353 1589.52 825.929C1567.74 722.837 1429.78 648.785 1345.56 603.773C1222.13 536.981 1082.73 477.449 944.778 454.217C927.352 452.765 921.544 478.901 938.969 484.709Z" fill="#D4D4D4"/>
<path d="M1823.31 2504.44C2221.19 2334.55 2608.9 1898.95 2652.47 1459C2655.37 1424.15 2603.09 1419.8 2598.74 1454.64C2555.17 1906.21 2193.6 2276.47 1813.14 2485.56C1801.53 2489.92 1810.24 2508.79 1823.31 2504.44Z" fill="#D4D4D4"/>
<path d="M1836.38 2495.73C1839.28 2411.51 1834.92 2321.49 1827.66 2237.27C1826.21 2214.04 1787 2215.49 1787 2238.72C1787 2324.39 1789.91 2412.96 1801.53 2497.18C1804.43 2516.05 1834.92 2514.6 1836.38 2495.73Z" fill="#D4D4D4"/>
<path d="M1811.69 2269.21C1907.53 2112.4 2052.74 1782.79 1936.57 1605.65C1926.41 1589.68 1903.17 1604.2 1906.08 1620.17C1940.93 1852.49 1875.58 2041.25 1785.55 2254.69C1778.29 2270.67 1802.98 2285.19 1811.69 2269.21Z" fill="#D4D4D4"/>
<path d="M1338.3 1186.02C1421.07 1125.04 1489.32 1042.28 1545.95 956.609C1534.34 949.349 1524.17 940.637 1512.56 933.377C1482.06 982.745 1419.62 1008.88 1384.77 1059.7C1352.82 1107.62 1332.49 1156.98 1323.78 1213.61C1341.21 1210.71 1358.63 1207.8 1374.6 1204.9C1364.44 1180.22 1355.73 1155.53 1345.56 1130.85C1335.4 1106.16 1294.74 1113.42 1293.29 1139.56C1290.38 1210.71 1315.07 1290.57 1389.13 1318.16C1400.74 1322.51 1418.17 1307.99 1409.46 1294.92C1377.51 1244.1 1345.56 1207.8 1348.47 1143.92C1331.04 1146.82 1313.62 1149.72 1296.19 1152.63C1306.35 1177.31 1316.52 1202 1325.23 1226.68C1335.4 1252.82 1373.15 1242.65 1376.06 1217.97C1384.77 1148.27 1406.55 1085.84 1457.37 1036.47C1486.42 1008.88 1524.17 991.457 1543.05 955.157C1556.12 931.925 1522.72 908.693 1509.65 931.925C1455.92 1020.5 1392.03 1091.64 1319.42 1165.7C1310.71 1178.76 1325.23 1196.19 1338.3 1186.02Z" fill="#D4D4D4"/>
<path d="M1502.39 1361.72C1505.29 1351.55 1509.65 1342.84 1518.36 1337.03C1506.75 1328.32 1495.13 1321.06 1483.51 1312.35C1483.51 1328.32 1479.16 1338.48 1468.99 1351.55C1450.11 1371.88 1480.61 1395.11 1500.94 1387.85C1531.43 1377.69 1554.67 1351.55 1563.38 1321.06C1570.64 1296.38 1541.6 1268.79 1519.82 1290.57C1484.97 1325.42 1463.18 1367.52 1455.92 1415.44C1473.35 1409.63 1489.32 1405.28 1506.75 1399.47C1492.23 1380.59 1476.25 1361.72 1461.73 1342.84C1445.76 1322.51 1413.81 1335.58 1410.91 1358.81C1408 1383.5 1410.91 1406.73 1421.07 1429.96C1437.05 1464.81 1483.51 1438.67 1473.35 1405.28C1471.9 1400.92 1473.35 1393.66 1477.7 1392.21C1490.77 1384.95 1489.32 1363.17 1471.9 1361.72C1431.24 1357.36 1409.46 1395.11 1421.07 1429.96C1438.5 1421.25 1455.92 1413.99 1473.35 1405.28C1467.54 1392.21 1466.09 1379.14 1467.54 1364.62C1450.11 1370.43 1434.14 1374.78 1416.72 1380.59C1431.24 1399.47 1447.21 1418.34 1461.73 1437.22C1477.7 1457.55 1508.2 1444.48 1512.56 1421.25C1516.91 1387.85 1531.43 1357.36 1556.12 1332.68C1541.6 1325.42 1525.62 1316.7 1511.1 1309.44C1508.2 1326.87 1495.13 1337.03 1480.61 1344.29C1490.77 1355.91 1500.94 1368.98 1512.56 1380.59C1529.98 1360.26 1535.79 1337.03 1534.34 1310.9C1532.89 1293.47 1506.75 1283.31 1495.13 1296.38C1479.16 1313.8 1468.99 1334.13 1466.09 1357.36C1460.28 1383.5 1496.58 1386.4 1502.39 1361.72Z" fill="#D4D4D4"/>
<path d="M1522.72 894.173C1486.42 931.925 1470.44 1004.52 1482.06 1055.34C1486.42 1075.67 1511.1 1080.03 1524.17 1064.06C1545.95 1036.47 1553.21 1008.88 1547.41 975.485C1543.05 946.445 1500.94 949.349 1498.03 976.937C1489.32 1037.92 1487.87 1123.59 1532.88 1170.05C1543.05 1180.22 1561.93 1175.86 1563.38 1161.34C1564.83 1133.75 1556.12 1110.52 1551.76 1084.38C1545.95 1049.54 1545.95 1016.14 1548.86 981.293C1532.88 981.293 1515.46 982.745 1499.49 982.745C1505.29 1003.07 1502.39 1020.5 1487.87 1036.47C1502.39 1039.37 1515.46 1042.28 1529.98 1045.18C1518.36 994.361 1554.67 950.801 1548.86 901.433C1545.95 892.721 1531.43 885.461 1522.72 894.173Z" fill="#D4D4D4"/>
<path d="M1699.88 1501.11C1714.4 1509.82 1728.92 1519.98 1739.09 1533.05C1749.25 1544.67 1757.96 1559.19 1769.58 1569.35C1778.29 1576.61 1792.81 1569.35 1792.81 1557.74C1791.36 1518.53 1753.61 1486.59 1721.66 1469.16C1699.88 1457.55 1676.64 1489.49 1699.88 1501.11Z" fill="#D4D4D4"/>
<path d="M1945.29 1660.83C2026.6 1662.28 2113.73 1668.09 2193.6 1652.11C2203.76 1650.66 2203.76 1633.24 2192.15 1631.79C2110.83 1627.43 2028.06 1637.59 1946.74 1640.5C1935.12 1641.95 1932.22 1660.83 1945.29 1660.83Z" fill="#D4D4D4"/>
<path d="M2250.23 1641.95C2375.11 1628.88 2498.54 1604.2 2614.71 1556.28C2629.23 1550.47 2621.97 1525.79 2606 1530.15C2486.92 1566.45 2369.3 1601.29 2245.87 1621.62C2232.8 1623.07 2237.16 1643.4 2250.23 1641.95Z" fill="#D4D4D4"/>
<path d="M1945.29 1718.91C2083.24 1729.07 2231.35 1720.36 2366.4 1692.77C2379.47 1689.87 2376.56 1670.99 2362.04 1672.44C2222.64 1684.06 2086.14 1692.77 1946.74 1698.58C1935.12 1697.13 1932.22 1717.45 1945.29 1718.91Z" fill="#D4D4D4"/>
<path d="M2425.94 1676.8C2481.12 1672.44 2536.3 1663.73 2588.57 1646.31C2603.09 1641.95 2594.38 1618.72 2579.86 1621.62C2526.13 1633.24 2473.86 1646.31 2420.13 1656.47C2408.51 1657.92 2411.42 1678.25 2425.94 1676.8Z" fill="#D4D4D4"/>
<path d="M1958.36 1787.15C1990.3 1798.77 2020.8 1800.22 2052.74 1790.05C2062.91 1787.15 2058.55 1771.18 2049.84 1769.73C2020.8 1765.37 1993.21 1763.92 1964.16 1762.47C1949.64 1761.01 1945.29 1782.79 1958.36 1787.15Z" fill="#D4D4D4"/>
<path d="M2086.14 1784.25C2240.07 1791.51 2399.8 1776.99 2550.82 1739.23C2563.89 1736.33 2560.98 1714.55 2546.46 1717.45C2392.54 1749.4 2245.87 1765.37 2087.59 1761.01C2074.52 1762.47 2071.62 1782.79 2086.14 1784.25Z" fill="#D4D4D4"/>
<path d="M1980.14 1848.13C2019.34 1852.49 2062.91 1861.2 2103.57 1856.85C2112.28 1855.39 2115.18 1840.87 2105.02 1837.97C2065.81 1827.81 2022.25 1829.26 1981.59 1827.81C1968.52 1829.26 1967.07 1846.68 1980.14 1848.13Z" fill="#D4D4D4"/>
<path d="M2234.26 1851.04C2293.79 1848.13 2356.24 1848.13 2415.77 1840.87C2425.94 1839.42 2424.48 1823.45 2415.77 1823.45C2356.24 1822 2293.79 1829.26 2234.26 1833.61C2222.64 1833.61 2222.64 1851.04 2234.26 1851.04Z" fill="#D4D4D4"/>
<path d="M1939.48 1919.28C2012.08 1941.06 2100.66 1955.58 2176.17 1938.16C2186.34 1935.25 2187.79 1919.28 2174.72 1917.83C2094.85 1914.93 2022.25 1917.83 1943.83 1898.95C1933.67 1897.5 1929.31 1916.38 1939.48 1919.28Z" fill="#D4D4D4"/>
<path d="M1923.5 1975.91C1932.22 1993.33 1949.64 2002.05 1968.52 1996.24C1980.14 1993.33 1980.14 1977.36 1967.07 1974.46C1958.36 1973.01 1951.09 1967.2 1943.83 1961.39C1933.67 1952.68 1916.24 1961.39 1923.5 1975.91Z" fill="#D4D4D4"/>
<path d="M2029.51 2015.11C2057.1 2015.11 2084.69 2016.57 2112.28 2012.21C2123.9 2010.76 2122.44 1994.79 2110.83 1993.33C2084.69 1990.43 2057.1 1991.88 2030.96 1993.33C2017.89 1991.88 2014.99 2015.11 2029.51 2015.11Z" fill="#D4D4D4"/>
<path d="M1903.17 2052.87C1924.96 2060.13 1948.19 2071.74 1971.42 2070.29C1983.04 2070.29 1990.3 2055.77 1980.14 2048.51C1959.81 2035.44 1933.67 2031.09 1908.98 2026.73C1893.01 2023.83 1888.65 2047.06 1903.17 2052.87Z" fill="#D4D4D4"/>
<path d="M1561.93 798.341C1576.45 780.917 1598.23 769.301 1611.3 751.877C1618.56 743.165 1608.4 731.549 1599.68 733.001C1573.54 735.905 1551.76 760.589 1540.15 783.821C1532.88 798.341 1550.31 811.409 1561.93 798.341Z" fill="#D4D4D4"/>
<path d="M1647.6 711.221C1710.04 653.141 1775.39 600.869 1843.64 548.597C1910.43 496.325 1985.94 454.217 2046.93 397.589C2057.1 388.877 2046.93 372.905 2033.86 378.713C1884.3 449.861 1753.61 583.445 1633.08 695.249C1622.92 703.961 1637.44 719.933 1647.6 711.221Z" fill="#D4D4D4"/>
<path d="M1508.2 722.837C1537.24 696.701 1567.74 670.565 1598.23 645.881C1628.72 621.197 1663.58 600.869 1692.62 574.733C1701.33 566.021 1692.62 551.501 1681 557.309C1611.3 589.253 1545.95 651.689 1493.68 706.865C1486.42 717.029 1498.03 731.549 1508.2 722.837Z" fill="#D4D4D4"/>
<path d="M1741.99 525.366C1818.95 473.094 1906.08 416.466 1972.88 351.126C1980.14 343.866 1972.88 329.346 1962.71 335.154C1879.94 381.618 1801.53 448.41 1728.92 509.394C1717.3 518.106 1730.37 532.626 1741.99 525.366Z" fill="#D4D4D4"/>
<path d="M1451.57 682.181C1486.42 657.497 1524.17 628.457 1548.86 593.609C1554.67 584.897 1545.95 573.281 1535.79 577.637C1498.03 597.965 1464.64 631.361 1435.59 663.305C1425.43 674.921 1438.5 692.345 1451.57 682.181Z" fill="#D4D4D4"/>
<path d="M1579.35 567.473C1641.79 523.913 1711.49 480.353 1768.13 426.629C1775.39 419.369 1768.13 403.397 1757.96 409.205C1689.71 448.409 1627.27 502.133 1566.28 550.049C1553.21 558.761 1567.74 574.733 1579.35 567.473Z" fill="#D4D4D4"/>
<path d="M1397.84 622.649C1419.62 603.773 1439.95 584.897 1463.18 567.474C1484.96 550.05 1512.56 538.434 1532.88 519.558C1540.15 513.75 1534.34 499.23 1525.62 502.134C1471.9 516.654 1418.17 566.021 1384.77 608.129C1376.06 618.293 1389.13 629.909 1397.84 622.649Z" fill="#D4D4D4"/>
<path d="M3387.24 102.834C3377.07 348.222 3480.17 577.637 3677.66 724.289C3697.99 738.809 3719.77 706.865 3699.44 692.345C3507.76 551.501 3398.85 340.962 3401.76 102.834C3403.21 94.1224 3387.24 91.2184 3387.24 102.834Z" fill="#D4D4D4"/>
<path d="M3468.56 99.9298C3455.49 313.373 3590.53 532.625 3750.27 666.209C3767.69 680.729 3786.57 651.689 3769.14 638.621C3602.15 497.777 3513.57 314.825 3488.89 99.9298C3487.43 88.3138 3470.01 88.3138 3468.56 99.9298Z" fill="#D4D4D4"/>
<path d="M3548.42 104.286C3533.9 278.526 3650.07 478.902 3790.93 574.733C3803.99 583.445 3822.87 564.569 3811.26 552.953C3745.91 491.97 3686.37 432.438 3644.26 352.578C3602.15 272.718 3589.08 189.954 3568.75 102.834C3565.85 92.6704 3549.87 92.6704 3548.42 104.286Z" fill="#D4D4D4"/>
<path d="M3628.29 108.642C3625.38 266.91 3700.89 460.026 3853.37 529.721C3866.44 535.529 3872.24 518.105 3863.53 509.393C3738.65 397.59 3648.62 285.786 3645.71 108.642C3647.17 98.4783 3629.74 95.5743 3628.29 108.642Z" fill="#D4D4D4"/>
<path d="M3693.63 105.738C3700.89 237.87 3767.69 399.042 3885.31 470.189C3896.93 477.449 3910 462.929 3901.29 452.766C3856.27 400.494 3808.35 358.386 3774.95 295.95C3743.01 236.418 3724.13 171.078 3712.51 102.834C3711.06 89.7663 3692.18 92.6702 3693.63 105.738Z" fill="#D4D4D4"/>
<path d="M3789.47 146.394C3782.21 229.158 3837.39 336.605 3908.55 377.261C3921.62 384.521 3939.04 368.549 3927.42 356.933C3898.38 326.441 3869.34 300.305 3847.56 262.554C3827.23 224.802 3819.97 185.598 3808.35 144.942C3806.9 134.778 3790.93 134.778 3789.47 146.394Z" fill="#D4D4D4"/>
<path d="M3867.89 155.106C3853.37 208.83 3902.74 284.334 3947.75 310.47C3957.92 316.278 3972.44 304.662 3962.28 294.498C3943.4 274.17 3924.52 253.842 3910 229.158C3896.93 205.926 3896.93 178.338 3885.31 155.106C3882.41 147.846 3869.34 146.394 3867.89 155.106Z" fill="#D4D4D4"/>
<path d="M3928.88 165.27C3930.33 195.762 3947.75 233.514 3981.15 240.774C3989.87 242.226 3994.22 230.61 3989.87 224.802C3982.61 216.09 3973.89 208.83 3966.63 198.666C3959.37 188.502 3955.02 176.886 3952.11 163.818C3949.21 153.654 3928.88 152.202 3928.88 165.27Z" fill="#D4D4D4"/>
<path d="M3986.96 195.762C4024.72 173.982 4062.47 152.202 4103.13 134.778C4129.27 123.162 4110.39 82.5058 4084.25 94.1218C4042.14 111.546 4000.03 131.874 3963.73 159.462C3944.85 173.982 3965.18 207.378 3986.96 195.762Z" fill="#D4D4D4"/>
<path d="M4235.27 108.642C4222.2 153.654 4175.74 179.79 4130.72 166.722C4085.71 153.654 4059.57 107.19 4072.64 62.1781C4085.71 17.1662 4132.17 -8.96971 4177.19 4.09826C4222.2 17.1662 4248.34 63.6301 4235.27 108.642Z" fill="#D4D4D4"/>
</svg>
