<svg width="3239" height="4015" viewBox="0 0 3239 4015" fill="none" xmlns="http://www.w3.org/2000/svg">
<path d="M1164.78 2417.86C1172.35 2390.61 1181.43 2363.36 1193.54 2337.63C1205.66 2314.92 1223.82 2293.72 1229.88 2267.99C1232.91 2255.87 1216.25 2245.28 1207.17 2251.33C1184.46 2264.96 1172.35 2290.69 1160.24 2314.92C1145.1 2343.68 1134.5 2372.45 1126.93 2404.24C1120.87 2428.46 1158.72 2442.09 1164.78 2417.86Z" fill="#D5D5D5"/>
<path d="M1275.3 2475.39C1273.79 2478.42 1273.79 2481.45 1272.27 2482.96C1266.22 2499.62 1290.44 2513.24 1299.52 2496.59C1323.75 2455.71 1344.94 2411.81 1369.17 2370.93C1382.79 2348.22 1349.49 2325.51 1335.86 2348.22C1310.12 2390.61 1284.38 2434.52 1272.27 2482.96C1282.87 2485.99 1291.95 2487.5 1302.55 2490.53C1302.55 2487.5 1302.55 2484.48 1304.07 2481.45C1305.58 2466.31 1281.36 2460.25 1275.3 2475.39Z" fill="#D5D5D5"/>
<path d="M1105.73 2187.75C1385.82 2351.25 1635.63 2560.17 1909.66 2729.73C1933.88 2744.87 1955.08 2713.08 1933.88 2694.91C1697.7 2487.5 1396.42 2307.35 1117.85 2163.53C1104.22 2157.47 1092.11 2180.18 1105.73 2187.75Z" fill="#D5D5D5"/>
<path d="M604.605 1868.31C471.374 1671.5 784.769 1202.19 1007.33 1191.59C1027.01 1190.07 1030.04 1158.28 1010.35 1152.23C857.441 1109.84 709.07 1332.38 642.455 1439.87C586.437 1529.19 518.308 1632.14 521.336 1741.14C522.85 1801.7 528.906 1868.31 584.923 1897.07C603.091 1906.16 613.689 1880.42 604.605 1868.31Z" fill="#D5D5D5"/>
<path d="M574.325 1871.34C728.751 1841.06 845.328 1695.72 925.57 1570.07C989.157 1470.15 1090.59 1309.67 1052.74 1184.02C1045.17 1158.28 1002.78 1165.85 1010.35 1191.59C1043.66 1303.62 946.766 1458.04 890.748 1545.85C816.563 1662.42 710.584 1803.21 566.755 1833.49C542.531 1838.03 550.101 1875.88 574.325 1871.34Z" fill="#D5D5D5"/>
<path d="M1941.46 2722.16C2194.29 2572.28 2363.86 2331.57 2416.85 2042.41C2421.39 2015.16 2379 2012.13 2374.46 2037.87C2324.49 2310.38 2164.01 2545.03 1924.8 2687.34C1905.12 2700.97 1920.26 2735.79 1941.46 2722.16Z" fill="#D5D5D5"/>
<path d="M967.962 2098.43C1229.88 1981.86 1391.88 1691.18 1443.35 1418.68C1447.9 1391.43 1405.5 1388.4 1400.96 1414.14C1354.03 1671.5 1198.09 1950.06 951.308 2063.61C930.113 2074.2 945.252 2109.02 967.962 2098.43Z" fill="#D5D5D5"/>
<path d="M1098.17 2178.66C1351 2028.79 1520.57 1788.07 1573.56 1498.91C1578.1 1471.66 1535.71 1468.64 1531.17 1494.37C1481.2 1766.88 1320.72 2001.54 1081.51 2143.84C1060.32 2157.47 1076.97 2192.29 1098.17 2178.66Z" fill="#D5D5D5"/>
<path d="M1031.55 1188.56C1152.67 1271.83 1275.3 1361.15 1405.5 1430.79C1423.67 1441.39 1441.84 1417.16 1425.19 1403.54C1307.1 1315.73 1175.38 1241.55 1048.2 1165.85C1033.06 1158.28 1017.92 1179.48 1031.55 1188.56Z" fill="#D5D5D5"/>
<path d="M1061.83 2019.7C1096.65 2042.41 1129.96 2066.63 1164.78 2087.83C1182.95 2098.43 1201.11 2072.69 1182.95 2060.58C1149.64 2036.36 1113.3 2015.16 1078.48 1992.45C1063.34 1983.37 1045.17 2009.11 1061.83 2019.7Z" fill="#D5D5D5"/>
<path d="M580.381 1897.07C643.969 1936.44 707.556 1977.31 769.63 2018.19C819.591 2049.98 872.581 2098.43 931.626 2107.51C948.28 2110.54 954.336 2090.86 946.766 2078.75C911.944 2030.3 839.273 2000.02 789.312 1968.23C728.752 1930.38 669.707 1892.53 609.147 1856.2C581.895 1839.55 553.13 1880.42 580.381 1897.07Z" fill="#D5D5D5"/>
<path d="M1387.34 1539.79C1413.07 1577.64 1453.95 1629.11 1502.4 1633.65C1517.54 1635.17 1523.59 1618.51 1516.02 1607.92C1502.4 1589.75 1481.2 1579.15 1463.04 1565.53C1444.87 1550.39 1423.67 1535.25 1407.02 1520.11C1393.39 1506.48 1379.77 1527.68 1387.34 1539.79Z" fill="#D5D5D5"/>
<path d="M1558.42 1527.68C1826.39 1716.92 2098.91 1904.64 2377.48 2078.75C2403.22 2095.4 2428.96 2057.55 2404.73 2040.9C2138.27 1850.14 1859.7 1669.99 1582.64 1494.37C1559.93 1479.23 1537.22 1512.54 1558.42 1527.68Z" fill="#D5D5D5"/>
<path d="M2023.21 2647.98C2027.75 2702.48 2062.57 2756.98 2094.37 2800.89C2124.65 2841.76 2171.58 2896.26 2221.54 2911.4C2236.68 2915.94 2251.82 2897.78 2239.71 2884.15C2206.4 2846.3 2162.5 2820.57 2129.19 2779.69C2094.37 2735.79 2077.71 2685.83 2050.46 2637.38C2042.89 2622.24 2020.18 2629.81 2023.21 2647.98Z" fill="#D5D5D5"/>
<path d="M2218.51 2900.8C2283.62 2887.18 2341.15 2847.82 2383.54 2796.34C2421.39 2752.44 2468.32 2676.74 2456.21 2616.19C2453.18 2599.53 2431.99 2599.53 2424.42 2613.16C2412.3 2635.87 2410.79 2661.6 2401.71 2685.83C2391.11 2714.59 2374.45 2743.36 2354.77 2767.58C2315.41 2816.02 2265.45 2846.3 2207.92 2870.53C2192.78 2876.58 2201.86 2903.83 2218.51 2900.8Z" fill="#D5D5D5"/>
<path d="M2194.29 2519.3C2277.56 2557.14 2351.75 2594.99 2427.44 2646.47C2448.64 2660.09 2468.32 2631.33 2450.15 2614.67C2383.54 2557.14 2292.7 2505.67 2206.4 2485.99C2185.21 2481.45 2174.61 2510.21 2194.29 2519.3Z" fill="#D5D5D5"/>
<path d="M2301.78 2352.77C2336.61 2425.43 2412.31 2489.02 2488 2513.24C2512.23 2520.81 2525.85 2484.48 2501.63 2475.39C2424.42 2445.11 2375.97 2402.72 2329.04 2334.6C2318.44 2319.46 2294.21 2336.11 2301.78 2352.77Z" fill="#D5D5D5"/>
<path d="M2386.57 2154.44C2439.56 2155.95 2486.49 2160.5 2534.94 2184.72C2575.81 2204.4 2601.55 2246.79 2640.92 2263.44C2654.54 2269.5 2666.65 2255.87 2665.14 2243.76C2659.08 2195.32 2595.5 2157.47 2554.62 2139.3C2503.14 2115.08 2439.56 2104.48 2385.05 2121.13C2368.4 2125.68 2366.88 2154.44 2386.57 2154.44Z" fill="#D5D5D5"/>
<path d="M2527.37 2519.3C2615.18 2461.77 2671.2 2345.2 2689.36 2245.28C2693.91 2218.03 2653.03 2215 2646.97 2240.74C2634.86 2292.21 2618.21 2342.17 2590.96 2387.59C2566.73 2426.95 2534.94 2457.23 2506.17 2493.56C2497.09 2505.67 2513.74 2528.38 2527.37 2519.3Z" fill="#D5D5D5"/>
<path d="M2379 2931.08C2395.65 2944.71 2410.79 2955.3 2430.47 2962.87C2444.1 2968.93 2457.72 2949.25 2447.12 2938.65C2431.99 2923.51 2418.36 2912.92 2398.68 2902.32C2380.51 2890.21 2362.34 2915.94 2379 2931.08Z" fill="#D5D5D5"/>
<path d="M2518.28 3027.97C2601.55 3093.07 2684.82 3164.23 2778.69 3212.67C2790.8 3218.73 2802.91 3200.56 2793.83 3191.48C2718.13 3117.29 2624.26 3061.28 2536.45 3002.24C2519.8 2990.13 2501.63 3014.35 2518.28 3027.97Z" fill="#D5D5D5"/>
<path d="M2442.58 2849.33C2484.98 2884.15 2530.39 2917.46 2574.3 2952.28C2618.21 2985.58 2660.6 3023.43 2709.05 3049.17C2721.16 3055.22 2739.32 3041.6 2727.21 3029.49C2690.88 2990.13 2645.46 2959.85 2603.07 2928.06C2556.13 2891.72 2509.2 2855.39 2462.27 2822.08C2442.58 2808.46 2424.42 2835.71 2442.58 2849.33Z" fill="#D5D5D5"/>
<path d="M2789.29 3111.24C2810.48 3123.35 2830.16 3135.46 2851.36 3146.06C2864.99 3152.12 2875.58 3130.92 2863.47 3123.35C2843.79 3111.24 2824.11 3100.64 2804.43 3090.04C2789.29 3079.45 2774.15 3102.16 2789.29 3111.24Z" fill="#D5D5D5"/>
<path d="M2545.53 2816.02C2571.27 2835.71 2595.5 2855.39 2621.23 2876.58C2645.46 2896.26 2669.68 2918.97 2698.45 2934.11C2712.07 2941.68 2730.24 2926.54 2718.13 2912.92C2696.93 2890.21 2669.68 2872.04 2645.46 2852.36C2618.21 2831.16 2592.47 2809.97 2565.22 2788.77C2548.56 2776.66 2528.88 2802.4 2545.53 2816.02Z" fill="#D5D5D5"/>
<path d="M2598.52 2525.35C2633.35 2546.55 2659.08 2575.31 2692.39 2599.53C2702.99 2608.62 2721.16 2593.48 2713.59 2581.37C2692.39 2545.03 2650 2519.3 2612.15 2501.13C2597.01 2495.07 2586.41 2517.78 2598.52 2525.35Z" fill="#D5D5D5"/>
<path d="M2786.26 2652.52C2848.33 2691.88 2910.41 2735.79 2975.51 2770.61C2989.13 2776.66 2998.22 2756.98 2987.62 2747.9C2928.57 2705.51 2861.96 2669.17 2799.89 2631.33C2786.26 2623.76 2772.63 2644.95 2786.26 2652.52Z" fill="#D5D5D5"/>
<path d="M2663.63 2449.66C2795.34 2542.01 2930.09 2634.35 3067.86 2719.13C3084.51 2729.73 3101.17 2705.51 3086.03 2694.91C2958.85 2596.51 2818.05 2510.21 2680.28 2429.98C2665.14 2419.38 2650 2439.06 2663.63 2449.66Z" fill="#D5D5D5"/>
<path d="M2707.53 2386.07C2759.01 2431.49 2825.62 2467.82 2887.69 2499.62C2901.32 2507.19 2910.4 2484.48 2899.81 2475.39C2846.82 2431.49 2784.74 2386.07 2722.67 2358.82C2704.5 2351.25 2695.42 2375.47 2707.53 2386.07Z" fill="#D5D5D5"/>
<path d="M2990.65 2561.69C3011.84 2579.85 3036.07 2596.51 3060.29 2610.13C3075.43 2619.21 3089.06 2599.53 3075.43 2587.42C3054.24 2569.26 3030.01 2554.12 3005.79 2538.98C2990.65 2532.92 2977.02 2551.09 2990.65 2561.69Z" fill="#D5D5D5"/>
<path d="M29.2902 3582.07C315.434 3167.25 583.409 2740.33 858.955 2317.94C872.58 2296.75 840.787 2274.04 825.647 2295.24C550.101 2717.62 266.986 3135.46 3.55239 3563.9C-7.04551 3582.07 17.1783 3598.72 29.2902 3582.07Z" fill="#D5D5D5"/>
<path d="M765.087 3984.77C1051.23 3569.96 1319.21 3143.03 1594.75 2720.65C1608.38 2699.45 1576.58 2676.74 1561.44 2697.94C1285.9 3120.32 1002.78 3538.16 739.349 3966.6C728.751 3983.26 752.975 4001.42 765.087 3984.77Z" fill="#D5D5D5"/>
<path d="M12.6363 3591.15C233.678 3759.2 477.43 3893.94 727.238 4012.02C752.975 4024.13 766.601 3983.26 742.378 3971.15C495.598 3851.55 265.472 3706.21 36.8601 3556.33C14.1503 3542.71 -7.0455 3574.5 12.6363 3591.15Z" fill="#D5D5D5"/>
<path d="M848.357 2302.81C1090.59 2433 1325.26 2569.26 1550.85 2726.7C1573.56 2743.36 1597.78 2707.02 1575.07 2691.88C1352.51 2531.41 1114.82 2386.07 865.011 2271.01C846.843 2260.42 830.189 2292.21 848.357 2302.81Z" fill="#D5D5D5"/>
<path d="M189.772 3663.82C477.43 3245.98 765.087 2828.14 1051.23 2408.78C1066.37 2387.59 1033.06 2363.36 1017.92 2384.56C731.779 2803.91 447.15 3223.27 162.521 3644.14C150.409 3662.31 177.66 3681.99 189.772 3663.82Z" fill="#D5D5D5"/>
<path d="M389.619 3771.31C653.053 3339.84 933.14 2923.51 1237.45 2520.81C1254.11 2498.1 1219.28 2473.88 1201.12 2495.07C896.805 2897.78 615.203 3315.62 360.853 3751.63C351.77 3771.31 379.021 3789.48 389.619 3771.31Z" fill="#D5D5D5"/>
<path d="M554.643 3896.96C851.384 3482.15 1139.04 3056.74 1417.62 2628.3C1429.73 2610.13 1402.48 2590.45 1388.85 2608.62C1093.62 3024.95 804.451 3448.84 527.391 3877.28C516.793 3896.96 542.531 3915.13 554.643 3896.96Z" fill="#D5D5D5"/>
<path d="M462.29 2917.46C681.818 3073.39 924.056 3192.99 1139.04 3356.49C1160.24 3371.63 1182.95 3339.84 1161.75 3323.19C948.28 3162.71 712.098 3024.95 477.43 2894.75C463.804 2885.66 447.15 2906.86 462.29 2917.46Z" fill="#D5D5D5"/>
<path d="M674.249 2584.39C874.095 2758.5 1131.47 2873.55 1349.49 3024.95C1367.65 3038.57 1388.85 3008.29 1369.17 2996.18C1148.13 2849.33 922.543 2687.34 687.875 2564.71C674.249 2557.14 662.137 2573.8 674.249 2584.39Z" fill="#D5D5D5"/>
<path d="M224.594 3288.37C266.986 3309.56 309.378 3330.76 348.741 3354.98C382.049 3376.17 412.329 3401.91 447.15 3418.56C462.29 3426.13 474.402 3404.94 465.318 3392.83C407.787 3330.76 313.92 3286.85 236.706 3253.55C215.511 3245.98 204.913 3277.77 224.594 3288.37Z" fill="#D5D5D5"/>
<path d="M516.793 3459.44C642.454 3557.85 772.657 3669.88 916.486 3741.03C933.14 3748.6 942.223 3724.38 930.112 3715.29C807.479 3613.86 662.136 3532.11 531.933 3436.73C518.307 3426.13 503.168 3448.84 516.793 3459.44Z" fill="#D5D5D5"/>
<path d="M3210.18 452.796C2911.92 858.526 2633.35 1279.4 2347.2 1694.21C2332.06 1715.4 2365.37 1738.11 2380.51 1716.92C2666.65 1302.1 2961.88 893.346 3235.91 470.963C3246.51 454.31 3222.29 437.656 3210.18 452.796Z" fill="#D5D5D5"/>
<path d="M2486.49 31.9259C2188.23 437.656 1909.66 858.526 1623.52 1273.34C1608.38 1294.54 1641.69 1317.24 1656.83 1296.05C1942.97 881.235 2238.2 472.477 2512.23 50.0929C2521.31 31.9259 2497.09 15.2727 2486.49 31.9259Z" fill="#D5D5D5"/>
<path d="M3226.83 443.712C3011.84 269.611 2769.6 128.817 2522.82 3.16131C2498.6 -8.95005 2483.46 30.4119 2507.68 44.0372C2751.44 171.206 2977.02 322.598 3202.6 477.018C3225.31 493.671 3246.51 460.365 3226.83 443.712Z" fill="#D5D5D5"/>
<path d="M2356.29 1709.35C2117.08 1573.1 1886.95 1430.79 1665.91 1267.29C1643.2 1250.63 1618.98 1285.45 1641.69 1302.11C1859.7 1468.64 2094.37 1620.03 2339.63 1741.14C2357.8 1751.74 2374.46 1719.95 2356.29 1709.35Z" fill="#D5D5D5"/>
<path d="M3051.21 366.502C2751.44 776.775 2453.18 1187.05 2156.44 1598.83C2141.3 1620.03 2174.61 1644.25 2189.75 1623.06C2486.49 1211.27 2783.23 799.483 3078.46 386.183C3090.57 368.016 3064.83 349.849 3051.21 366.502Z" fill="#D5D5D5"/>
<path d="M2854.39 254.472C2580.36 678.369 2288.16 1087.13 1971.73 1482.26C1953.57 1504.97 1989.9 1529.19 2008.07 1508C2322.98 1114.38 2615.18 702.592 2881.64 274.153C2893.75 255.986 2866.5 236.305 2854.39 254.472Z" fill="#D5D5D5"/>
<path d="M2692.39 124.275C2385.05 531.52 2085.28 949.362 1796.11 1368.72C1784 1386.88 1811.25 1406.57 1824.88 1388.4C2130.7 981.154 2431.99 563.312 2719.64 142.442C2731.76 125.789 2706.02 107.622 2692.39 124.275Z" fill="#D5D5D5"/>
<path d="M2759.01 1105.3C2544.02 943.306 2304.81 817.65 2094.37 648.091C2074.69 631.438 2050.46 664.744 2071.66 681.398C2280.59 847.929 2513.74 993.265 2743.87 1128C2759.01 1137.09 2774.15 1115.89 2759.01 1105.3Z" fill="#D5D5D5"/>
<path d="M2540.99 1435.33C2345.69 1255.17 2089.82 1132.55 1874.84 975.098C1856.67 961.472 1836.99 990.237 1855.16 1003.86C2071.66 1156.77 2292.7 1326.33 2524.34 1453.5C2536.45 1458.04 2553.1 1444.41 2540.99 1435.33Z" fill="#D5D5D5"/>
<path d="M3007.3 741.954C2966.42 720.759 2925.55 698.05 2886.18 672.314C2852.87 651.119 2822.6 623.868 2787.77 605.701C2772.63 598.132 2760.52 619.327 2769.61 631.438C2796.86 664.744 2840.76 688.967 2877.1 711.676C2914.95 735.898 2954.31 757.093 2995.19 775.26C3016.39 784.344 3026.98 751.038 3007.3 741.954Z" fill="#D5D5D5"/>
<path d="M2718.13 561.798C2595.5 460.365 2466.81 343.793 2326.01 269.611C2309.35 260.528 2300.27 286.264 2312.38 295.348C2431.99 401.322 2575.81 486.102 2702.99 582.993C2716.62 595.104 2733.27 572.395 2718.13 561.798Z" fill="#D5D5D5"/>
<path d="M1747.66 1615.49C1768.86 1548.87 1803.68 1492.86 1861.21 1451.98C1885.44 1435.33 1855.16 1397.48 1830.93 1415.65C1770.37 1462.58 1724.95 1530.71 1718.9 1607.92C1717.38 1626.08 1743.12 1632.14 1747.66 1615.49Z" fill="#D5D5D5"/>
<path d="M1909.66 1738.11C1921.77 1698.75 1935.4 1662.42 1958.11 1629.11C1977.79 1600.35 2006.56 1577.64 2021.7 1545.85C2029.26 1532.22 2011.1 1520.11 1998.99 1526.16C1964.16 1541.3 1936.91 1585.21 1918.74 1617C1899.06 1653.33 1885.44 1691.18 1879.38 1732.06C1876.35 1748.71 1903.6 1754.77 1909.66 1738.11Z" fill="#D5D5D5"/>
<path d="M722.696 1762.34C678.79 1666.96 651.538 1565.53 728.752 1477.72C798.395 1399 880.15 1405.05 974.017 1409.59C992.185 1411.11 1004.3 1385.37 986.129 1374.77C893.776 1318.76 757.517 1370.23 692.416 1448.95C621.259 1536.76 607.633 1695.72 696.958 1777.48C709.07 1788.07 730.266 1778.99 722.696 1762.34Z" fill="#D5D5D5"/>
<path d="M1596.27 2463.28C1859.7 2358.82 2041.38 2124.16 2086.8 1847.12C2091.34 1815.32 2042.89 1810.78 2038.35 1842.57C1995.96 2107.51 1824.88 2324 1582.64 2433C1561.44 2442.09 1575.07 2470.85 1596.27 2463.28Z" fill="#D5D5D5"/>
<path d="M1678.02 2431.49C1717.39 2473.88 1771.89 2502.64 1818.82 2535.95C1873.33 2572.28 1927.83 2607.1 1982.33 2641.92C2003.53 2655.55 2026.24 2622.24 2005.04 2610.13C1949.03 2578.34 1894.52 2542.01 1840.02 2507.19C1791.57 2475.39 1744.64 2436.03 1693.16 2413.32C1681.05 2408.78 1670.45 2423.92 1678.02 2431.49Z" fill="#D5D5D5"/>
<path d="M1846.07 2313.4C1888.46 2352.77 1938.43 2384.56 1983.85 2417.86C2035.32 2454.2 2085.28 2498.1 2141.3 2528.38C2153.41 2535.95 2173.09 2519.3 2159.47 2507.19C2117.08 2467.82 2067.12 2436.03 2021.7 2402.72C1970.22 2364.88 1920.26 2322.49 1864.24 2292.21C1852.13 2284.64 1832.45 2301.29 1846.07 2313.4Z" fill="#D5D5D5"/>
<path d="M1962.65 2121.14C2002.01 2162.01 2051.98 2192.29 2098.91 2225.6C2150.38 2261.93 2201.86 2296.75 2251.82 2333.08C2273.02 2348.22 2297.24 2314.92 2276.05 2299.78C2224.57 2263.44 2173.09 2228.62 2121.62 2192.29C2074.69 2160.5 2029.27 2122.65 1977.79 2099.94C1965.68 2093.89 1953.57 2112.05 1962.65 2121.14Z" fill="#D5D5D5"/>
<path d="M2045.92 1957.63C2136.76 2042.41 2247.28 2119.62 2350.23 2189.26C2371.43 2202.89 2391.11 2172.61 2372.94 2157.47C2277.56 2080.26 2171.58 1996.99 2065.6 1936.44C2051.97 1928.87 2033.81 1945.52 2045.92 1957.63Z" fill="#D5D5D5"/>
<path d="M1117.85 2136.28C1116.33 2116.59 1128.44 2093.89 1143.58 2081.77C1167.81 2065.12 1137.53 2028.79 1114.82 2046.95C1099.68 2059.07 1087.57 2074.2 1081.51 2092.37C1075.45 2113.57 1080 2125.68 1087.57 2145.36C1093.62 2165.04 1119.36 2154.44 1117.85 2136.28Z" fill="#D5D5D5"/>
<path d="M1134.5 2056.04C1129.96 2062.09 1126.93 2068.15 1125.42 2075.72C1122.39 2084.8 1123.9 2093.88 1129.96 2101.45C1131.47 2102.97 1132.99 2104.48 1132.99 2106C1140.56 2115.08 1151.15 2115.08 1160.24 2107.51C1161.75 2106 1163.27 2104.48 1164.78 2104.48C1172.35 2098.43 1173.86 2089.34 1173.86 2080.26C1172.35 2072.69 1170.84 2066.63 1169.32 2059.06C1163.27 2045.44 1142.07 2045.44 1134.5 2056.04Z" fill="#D5D5D5"/>
<path d="M1493.32 1583.69C1499.37 1565.53 1506.94 1547.36 1522.08 1533.73C1534.19 1523.14 1549.33 1517.08 1559.93 1504.97C1569.01 1494.37 1558.42 1479.23 1547.82 1477.72C1499.37 1467.12 1455.47 1533.73 1453.95 1574.61C1450.92 1597.32 1484.23 1606.4 1493.32 1583.69Z" fill="#D5D5D5"/>
<path d="M1528.14 1580.67C1541.76 1560.98 1553.87 1544.33 1556.9 1521.62C1559.93 1504.97 1540.25 1498.91 1528.14 1506.48C1509.97 1518.6 1500.89 1535.25 1490.29 1553.42C1475.15 1580.67 1511.48 1606.4 1528.14 1580.67Z" fill="#D5D5D5"/>
<path d="M1113.3 2145.36C1111.79 2122.65 1125.42 2102.97 1139.04 2086.32C1146.61 2075.72 1136.01 2057.55 1122.39 2060.58C1081.51 2069.66 1063.34 2113.57 1072.43 2152.93C1076.97 2178.66 1114.82 2171.1 1113.3 2145.36Z" fill="#D5D5D5"/>
<path d="M1139.04 2122.65C1152.67 2121.14 1163.27 2116.59 1173.86 2107.51C1184.46 2098.43 1179.92 2077.23 1164.78 2077.23C1151.15 2077.23 1140.56 2078.75 1128.44 2086.32C1108.76 2096.91 1116.33 2125.68 1139.04 2122.65Z" fill="#D5D5D5"/>
</svg>
