<svg xmlns="http://www.w3.org/2000/svg" xmlns:xlink="http://www.w3.org/1999/xlink" viewBox="0 0 223.43 185.57"><defs><style>.cls-1{isolation:isolate;}.cls-2{fill:url(#Degradado_sin_nombre_4);}.cls-10,.cls-13,.cls-20,.cls-25,.cls-3,.cls-30,.cls-34,.cls-37,.cls-44,.cls-45,.cls-46,.cls-7{opacity:0.5;}.cls-10,.cls-13,.cls-20,.cls-25,.cls-3,.cls-30,.cls-34,.cls-37,.cls-40,.cls-41,.cls-44,.cls-45,.cls-46,.cls-7{mix-blend-mode:multiply;}.cls-3{fill:url(#Degradado_sin_nombre_4-2);}.cls-4{fill:url(#Degradado_sin_nombre_4-3);}.cls-5{fill:#939ebc;}.cls-6{fill:url(#Degradado_sin_nombre_4-4);}.cls-40,.cls-41,.cls-7{fill:#777676;}.cls-8{fill:url(#Degradado_sin_nombre_4-5);}.cls-9{fill:url(#Degradado_sin_nombre_6);}.cls-10{fill:url(#Degradado_sin_nombre_5);}.cls-11{fill:#f7f7f6;}.cls-12{fill:url(#Degradado_sin_nombre_2);}.cls-13{fill:#210f0c;}.cls-14{fill:url(#Degradado_sin_nombre_6-2);}.cls-15{opacity:0.54;}.cls-16{fill:#fff;}.cls-17{opacity:0.19;}.cls-18{fill:url(#Degradado_sin_nombre_4-6);}.cls-19,.cls-22,.cls-23,.cls-27,.cls-28,.cls-33,.cls-43{mix-blend-mode:screen;}.cls-19{fill:url(#Degradado_sin_nombre_4-7);}.cls-20{fill:url(#Degradado_sin_nombre_4-8);}.cls-21{fill:url(#Degradado_sin_nombre_4-9);}.cls-22,.cls-23{opacity:0.79;}.cls-22{fill:url(#linear-gradient);}.cls-23{fill:url(#linear-gradient-2);}.cls-24{fill:url(#Degradado_sin_nombre_4-10);}.cls-25,.cls-31{fill:#2c1c43;}.cls-26{fill:url(#Degradado_sin_nombre_4-11);}.cls-27{fill:url(#Degradado_sin_nombre_4-12);}.cls-28{fill:url(#Degradado_sin_nombre_4-13);}.cls-29{fill:#574f50;}.cls-32{fill:url(#Degradado_sin_nombre_4-14);}.cls-33{fill:url(#Degradado_sin_nombre_4-15);}.cls-34{fill:url(#Degradado_sin_nombre_4-16);}.cls-35{fill:url(#Degradado_sin_nombre_4-17);}.cls-36{fill:url(#Degradado_sin_nombre_4-18);}.cls-37{fill:url(#Degradado_sin_nombre_4-19);}.cls-38{fill:url(#Degradado_sin_nombre_4-20);}.cls-39{fill:url(#Degradado_sin_nombre_6-3);}.cls-40{opacity:0.2;}.cls-41{opacity:0.4;}.cls-42{fill:url(#Degradado_sin_nombre_6-4);}.cls-43{fill:#646363;opacity:0.3;}.cls-44{fill:url(#Degradado_sin_nombre_5-2);}.cls-45{fill:url(#Degradado_sin_nombre_5-3);}.cls-46{fill:url(#Degradado_sin_nombre_5-4);}.cls-47{fill:url(#Degradado_sin_nombre_6-5);}</style><linearGradient id="Degradado_sin_nombre_4" x1="17.62" y1="151.6" x2="27.75" y2="151.6" gradientUnits="userSpaceOnUse"><stop offset="0" stop-color="#36204c"/><stop offset="1" stop-color="#583681"/></linearGradient><linearGradient id="Degradado_sin_nombre_4-2" x1="22.39" y1="151.28" x2="27.75" y2="151.28" xlink:href="#Degradado_sin_nombre_4"/><linearGradient id="Degradado_sin_nombre_4-3" x1="17.62" y1="151.87" x2="23.95" y2="151.87" xlink:href="#Degradado_sin_nombre_4"/><linearGradient id="Degradado_sin_nombre_4-4" x1="100.28" y1="125.78" x2="111.66" y2="125.78" xlink:href="#Degradado_sin_nombre_4"/><linearGradient id="Degradado_sin_nombre_4-5" x1="100.28" y1="123.59" x2="111.67" y2="123.59" xlink:href="#Degradado_sin_nombre_4"/><linearGradient id="Degradado_sin_nombre_6" x1="11.05" y1="134.63" x2="108.16" y2="134.63" gradientUnits="userSpaceOnUse"><stop offset="0" stop-color="#e4dae5"/><stop offset="1" stop-color="#f7f3f8"/></linearGradient><linearGradient id="Degradado_sin_nombre_5" x1="51.23" y1="165.4" x2="58.01" y2="165.4" gradientUnits="userSpaceOnUse"><stop offset="0" stop-color="#cdb8d4" stop-opacity="0.9"/><stop offset="1" stop-color="#cdb8d4" stop-opacity="0.3"/></linearGradient><linearGradient id="Degradado_sin_nombre_2" x1="9.28" y1="53.39" x2="95.03" y2="53.39" gradientUnits="userSpaceOnUse"><stop offset="0" stop-color="#2d2969"/><stop offset="1" stop-color="#1c1e40"/></linearGradient><linearGradient id="Degradado_sin_nombre_6-2" x1="9.28" y1="41" x2="95.03" y2="41" xlink:href="#Degradado_sin_nombre_6"/><linearGradient id="Degradado_sin_nombre_4-6" x1="19.02" y1="94.95" x2="85.29" y2="94.95" xlink:href="#Degradado_sin_nombre_4"/><linearGradient id="Degradado_sin_nombre_4-7" x1="19.03" y1="93.25" x2="85.29" y2="93.25" xlink:href="#Degradado_sin_nombre_4"/><linearGradient id="Degradado_sin_nombre_4-8" x1="19.03" y1="96.34" x2="85.29" y2="96.34" xlink:href="#Degradado_sin_nombre_4"/><linearGradient id="Degradado_sin_nombre_4-9" x1="41.92" y1="179.92" x2="53.59" y2="179.92" xlink:href="#Degradado_sin_nombre_4"/><linearGradient id="linear-gradient" x1="59.52" y1="7.15" x2="104.27" y2="52.28" gradientUnits="userSpaceOnUse"><stop offset="0" stop-color="#fff"/><stop offset="1" stop-color="#fff" stop-opacity="0"/></linearGradient><linearGradient id="linear-gradient-2" x1="9.77" y1="38.03" x2="40.38" y2="87.45" xlink:href="#linear-gradient"/><linearGradient id="Degradado_sin_nombre_4-10" x1="74.04" y1="131.96" x2="85.96" y2="131.96" xlink:href="#Degradado_sin_nombre_4"/><linearGradient id="Degradado_sin_nombre_4-11" x1="75.05" y1="104.57" x2="84.84" y2="104.57" xlink:href="#Degradado_sin_nombre_4"/><linearGradient id="Degradado_sin_nombre_4-12" x1="79.9" y1="98.09" x2="84.84" y2="98.09" xlink:href="#Degradado_sin_nombre_4"/><linearGradient id="Degradado_sin_nombre_4-13" x1="82.65" y1="135.86" x2="85.96" y2="135.86" xlink:href="#Degradado_sin_nombre_4"/><linearGradient id="Degradado_sin_nombre_4-14" x1="23.36" y1="104.57" x2="33.16" y2="104.57" xlink:href="#Degradado_sin_nombre_4"/><linearGradient id="Degradado_sin_nombre_4-15" x1="23.36" y1="98.09" x2="28.31" y2="98.09" xlink:href="#Degradado_sin_nombre_4"/><linearGradient id="Degradado_sin_nombre_4-16" x1="49.1" y1="179.8" x2="53.59" y2="179.8" xlink:href="#Degradado_sin_nombre_4"/><linearGradient id="Degradado_sin_nombre_4-17" x1="41.92" y1="180.16" x2="46.68" y2="180.16" xlink:href="#Degradado_sin_nombre_4"/><linearGradient id="Degradado_sin_nombre_4-18" x1="55.97" y1="179.92" x2="67.64" y2="179.92" xlink:href="#Degradado_sin_nombre_4"/><linearGradient id="Degradado_sin_nombre_4-19" x1="55.97" y1="179.79" x2="59.72" y2="179.79" xlink:href="#Degradado_sin_nombre_4"/><linearGradient id="Degradado_sin_nombre_4-20" x1="62.72" y1="180.16" x2="67.64" y2="180.16" xlink:href="#Degradado_sin_nombre_4"/><linearGradient id="Degradado_sin_nombre_6-3" x1="27.74" y1="118.04" x2="77.4" y2="118.04" xlink:href="#Degradado_sin_nombre_6"/><linearGradient id="Degradado_sin_nombre_6-4" x1="27.74" y1="97.91" x2="77.4" y2="97.91" xlink:href="#Degradado_sin_nombre_6"/><linearGradient id="Degradado_sin_nombre_5-2" x1="33.67" y1="125.8" x2="70" y2="125.8" xlink:href="#Degradado_sin_nombre_5"/><linearGradient id="Degradado_sin_nombre_5-3" x1="20.43" y1="134.44" x2="24.03" y2="134.44" xlink:href="#Degradado_sin_nombre_5"/><linearGradient id="Degradado_sin_nombre_5-4" x1="86.84" y1="123.35" x2="100.65" y2="123.35" xlink:href="#Degradado_sin_nombre_5"/><linearGradient id="Degradado_sin_nombre_6-5" x1="99.66" y1="148.13" x2="202.31" y2="148.13" gradientTransform="translate(15.21 -101.73) rotate(-2.72)" xlink:href="#Degradado_sin_nombre_6"/></defs><g class="cls-1"><g id="Layer_2" data-name="Layer 2"><g id="Layer_1-2" data-name="Layer 1"><path class="cls-2" d="M17.62,148.25c.54,2.53,2.15,7.29,5.62,7.38a4.55,4.55,0,0,0,4.51-2.4l-2.92-5.66Z"/><path class="cls-3" d="M26,155a4.14,4.14,0,0,0,1.71-1.75l-2.92-5.66-2.44.23A23.09,23.09,0,0,0,26,155Z"/><path class="cls-4" d="M19.2,148.1l-1.58.15c.54,2.53,2.15,7.29,5.62,7.38a5.39,5.39,0,0,0,.71,0C20.78,153.4,19.93,150.12,19.2,148.1Z"/><rect class="cls-5" x="54.11" y="133.42" width="104.38" height="2.16" transform="translate(-48.87 207.4) rotate(-76.85)"/><path class="cls-6" d="M100.28,125.8s4.81,6.2,7.88,5.91c4.48-.42,4.13-8.79,1.9-9.33a35.77,35.77,0,0,1-6-2.54Z"/><path class="cls-7" d="M101.14,124.46l-.86,1.34s4.81,6.2,7.88,5.91a3.22,3.22,0,0,0,1.73-.72C108.86,127,104.73,125.86,101.14,124.46Z"/><path class="cls-8" d="M111.61,127.33c-.17-1.52-.75-2.77-1.56-3a35.69,35.69,0,0,1-6-2.54L101,126.67c-.44-.52-.71-.86-.71-.86l3.78-6a35.69,35.69,0,0,0,6,2.54C111.21,122.66,111.87,125,111.61,127.33Z"/><path class="cls-9" d="M108.16,120.37l-7.51,6.81-1.17,1.06c-4.13-4.6-8.37-8.38-12.64-9.52,0,0-1,37-21.53,59.3l-9.15-.54-2.4-20.77-.35,20.77-9.16.54S31.75,169.46,24,149.63l-7.31,1.44s-12.11-21.42-.92-41.24c5.85-10.38,16.06-17.11,34-18.4C72.87,89.75,92.71,99.29,108.16,120.37Z"/><path class="cls-10" d="M53.41,153.21c-1.72.47-2.36,20.95-2.14,24.39l2.14-.12.35-20.77,2.4,20.77,1.73.1C58.77,171.13,54.34,153,53.41,153.21Z"/><path class="cls-11" d="M46.49,177.89l-2.24.13s-11.87-8.14-19.62-26.9C37.11,170.21,44.72,175.64,46.49,177.89Zm17.42,0,1.4.09c19-20.58,21.27-53.73,21.51-58.65C85.53,131.06,77.4,162.45,63.91,177.93ZM17.62,110.81c7.74-17.87,43.94-14.56,51.9-13.68,17.21,1.9,33,17.34,37.72,24.08l.92-.83c-15.46-21.09-35.29-30.63-58.33-29-18,1.31-28.17,8-34,18.41-11.19,19.82.91,41.23.91,41.23l1.29-.25C15,142.92,8.41,132.06,17.62,110.81Z"/><path class="cls-12" d="M52.16,16.28c-9.34,0-16.41-3.42-16.81-5.45a.47.47,0,0,0-.68-.28c-2.66,1.24-1.87,5-.49,6.85a8.41,8.41,0,0,0,2,1.83c-1.1.42-7.61-3.58-6.53-9.6a.51.51,0,0,0-.93-.39c-2,2.61-3.31,5.35-2.1,8.61a9,9,0,0,0,3.53,4.22l-.32.18a27.66,27.66,0,0,1-3.36-1.34c-1.5-.74-4.31-2-4.09-4,.05-.41-.52-.46-.71-.19-1.49,2.1.13,4.28,1.74,5.71.94.85,1.18,3.39.28,4.16A39.78,39.78,0,0,0,9.28,57c0,22.51,19.2,40.75,42.88,40.75S95,79.53,95,57,75.84,16.34,52.16,16.28Z"/><path class="cls-13" d="M95,57c0,22.5-19.19,40.74-42.88,40.74S9.29,79.53,9.29,57a38.12,38.12,0,0,1,.31-4.92c5.49,16.51,21.72,28.46,40.9,28.46,21.93,0,40-15.62,42.55-35.81A38.75,38.75,0,0,1,95,57Z"/><path class="cls-14" d="M11.15,50.77C17.3,26.49,52.82,12.55,74,26.09c15.59,10,22.24,29.78,17.63,46.9A38.88,38.88,0,0,0,95,57c0-22.5-19.19-40.68-42.87-40.74-9.34,0-16.41-3.42-16.81-5.45a.47.47,0,0,0-.68-.28c-2.66,1.24-1.87,5-.49,6.85a8.41,8.41,0,0,0,2,1.83c-1.1.42-7.61-3.58-6.53-9.6a.51.51,0,0,0-.93-.39c-2,2.61-3.31,5.35-2.1,8.61a9,9,0,0,0,3.53,4.22l-.32.18a27.66,27.66,0,0,1-3.36-1.34c-1.5-.74-4.31-2-4.09-4,.05-.41-.52-.46-.71-.19-1.49,2.1.13,4.28,1.74,5.71.94.85,1.18,3.39.28,4.16A39.78,39.78,0,0,0,9.28,57,39.15,39.15,0,0,0,10,64.41,42.53,42.53,0,0,1,11.15,50.77Z"/><g class="cls-15"><path class="cls-16" d="M52.16,3A49.16,49.16,0,1,1,3,52.16,49.21,49.21,0,0,1,52.16,3m0-3a52.16,52.16,0,1,0,52.15,52.16A52.16,52.16,0,0,0,52.16,0Z"/></g><g class="cls-17"><circle class="cls-16" cx="52.16" cy="52.16" r="52.16" transform="translate(-7.24 95.89) rotate(-81.36)"/></g><path class="cls-18" d="M81.21,99H23.11A4.09,4.09,0,0,1,19,95h0a4.09,4.09,0,0,1,4.09-4.09h58.1A4.09,4.09,0,0,1,85.29,95h0A4.08,4.08,0,0,1,81.21,99Z"/><path class="cls-19" d="M85.29,95a3.26,3.26,0,0,1-.07.7,4.06,4.06,0,0,0-4-3.39H23.11a4,4,0,0,0-2.88,1.2,3.91,3.91,0,0,0-1.14,2.19,4.08,4.08,0,0,1,4-4.79h58.1A4.09,4.09,0,0,1,85.29,95Z"/><path class="cls-20" d="M85.29,95A4.1,4.1,0,0,1,81.21,99H23.11A4.08,4.08,0,0,1,19,95a4,4,0,0,1,.21-1.3,4.07,4.07,0,0,0,3.87,2.79h58.1a4,4,0,0,0,2.88-1.2,3.91,3.91,0,0,0,1-1.59A4,4,0,0,1,85.29,95Z"/><polygon class="cls-21" points="44.25 178.02 44.97 180.3 41.92 182.37 53.59 181.99 53.4 177.47 44.25 178.02"/><path class="cls-22" d="M55,10.35c2.61-5.5,21.81-3.44,33.53,12.46C98.52,36.44,100.32,57,95,57,93.6,57,89.7,37.29,76.26,28.41,61.87,18.9,50.66,19.4,55,10.35Z"/><path class="cls-23" d="M52.84,88.18c-2.37,5.61-21.64,4.37-34-11C8.19,64,5.49,43.5,10.78,43.28c1.43-.06,6.18,19.48,20,27.78C45.55,79.93,56.73,79,52.84,88.18Z"/><path class="cls-24" d="M76.91,124.94c.49,8.38,4.94,11.5,8.26,8.29.83-.81,1.76,2.46-1.53,4.84-3.13,2.26-10,1.69-9.57-13C74.07,125.09,76.9,124.72,76.91,124.94Z"/><path class="cls-25" d="M79.37,138.89a5.6,5.6,0,0,0,1-.86,5.12,5.12,0,0,0,1.26-3.68c-2.33-.61-4.41-3.84-4.74-9.41,0-.22-2.84.15-2.84.15C73.76,134.55,76.52,138.14,79.37,138.89Z"/><path class="cls-26" d="M81.64,96.84c-3,.29-7.9,7.7-6.26,14.9.24,1.05,1.87.46,1.93-.52.32-5.6,3.87-11.21,6.88-12.19C86.38,98.32,82.47,96.76,81.64,96.84Z"/><path class="cls-25" d="M77.31,100.67a15.56,15.56,0,0,0-1.93,11.07c.24,1.05,1.87.46,1.93-.52a18,18,0,0,1,2.28-7.56A13.37,13.37,0,0,0,77.31,100.67Z"/><path class="cls-27" d="M81.07,98.06a11.76,11.76,0,0,1,2.41,1.28,4.37,4.37,0,0,1,.71-.31c2.19-.71-1.72-2.27-2.55-2.19a3.53,3.53,0,0,0-1.74.79C80.3,97.76,80.69,97.91,81.07,98.06Z"/><path class="cls-28" d="M85.17,133.23a4.87,4.87,0,0,1-1.37.94,7.47,7.47,0,0,1-1.15,4.46,5.91,5.91,0,0,0,1-.56C86.93,135.69,86,132.42,85.17,133.23Z"/><path class="cls-29" d="M34.14,125.09c.48,14.67-6.44,15.24-9.57,13a10.55,10.55,0,0,1-1.66-1.3c-.15-1.25-.13-2.33-.21-3.73,3.32,3.21,8.11.28,8.6-8.1C31.31,124.72,34.14,125.09,34.14,125.09Z"/><g class="cls-30"><path class="cls-31" d="M34.14,125.09c.48,14.67-6.44,15.24-9.57,13a10.55,10.55,0,0,1-1.66-1.3c-.15-1.25-.13-2.33-.21-3.73,3.32,3.21,8.11.28,8.6-8.1C31.31,124.72,34.14,125.09,34.14,125.09Z"/></g><path class="cls-32" d="M24,99c3,1,6.56,6.59,6.88,12.19.06,1,1.69,1.57,1.93.52,1.64-7.2-3.21-14.61-6.26-14.9C25.74,96.76,21.83,98.32,24,99Z"/><path class="cls-25" d="M30.9,100.67a15.56,15.56,0,0,1,1.93,11.07c-.24,1.05-1.87.46-1.93-.52a18,18,0,0,0-2.28-7.56A13.37,13.37,0,0,1,30.9,100.67Z"/><path class="cls-33" d="M27.13,98.06a12,12,0,0,0-2.4,1.28A4.79,4.79,0,0,0,24,99c-2.19-.71,1.72-2.27,2.55-2.19a3.57,3.57,0,0,1,1.74.79C27.91,97.76,27.52,97.91,27.13,98.06Z"/><path class="cls-34" d="M49.1,182.14l4.49-.15-.19-4.52-2.54.15A7,7,0,0,1,49.1,182.14Z"/><path class="cls-35" d="M43.93,182.31c.59-.4,1.18-.82,1.76-1.23s1.3-.73.8-1.62c-.3-.52-.78-1-1.12-1.48a0,0,0,0,1,0,0l-1.11.07L45,180.3l-3,2.07Z"/><polygon class="cls-36" points="65.31 178.02 64.59 180.3 67.64 182.37 55.97 181.99 56.16 177.47 65.31 178.02"/><path class="cls-37" d="M58.62,177.62l-2.46-.15L56,182l3.75.12A10.5,10.5,0,0,1,58.62,177.62Z"/><path class="cls-38" d="M64.15,178c-.45.75-.93,1.48-1.43,2.2a23.11,23.11,0,0,1,2.64,2.15l2.28.07-3-2.07.72-2.28Z"/><path class="cls-39" d="M30.49,89.28c2.8-4,39.65-3.63,43.64,0s4.28,54.8,1.15,58.22S32,149.92,30,147.17C26.27,142,27.69,93.31,30.49,89.28Z"/><path class="cls-40" d="M75.29,147.5c-3.13,3.42-43.31,2.41-45.3-.33-1.73-2.39-2.34-14.21-2.24-26.57.08,10.39.75,19.45,2.24,21.5,2,2.75,42.17,3.76,45.3.34,1.31-1.44,2-11.34,2.1-22.6C77.51,133,76.8,145.85,75.29,147.5Z"/><path class="cls-41" d="M75.29,111c-3.13,1.39-43.31,1-45.3-.13s-2.46-6.81-2.17-12.37c.2,3.52.87,6.43,2.17,7.15,2,1.12,42.17,1.53,45.3.13,1.15-.52,1.84-3.69,2-7.57C77.63,104.09,76.94,110.26,75.29,111Z"/><path class="cls-42" d="M30.49,86.19c2.8-1.64,39.65-1.48,43.64,0s4.28,22.34,1.15,23.73-43.3,1-45.29-.13C26.27,107.69,27.69,87.84,30.49,86.19Z"/><path class="cls-43" d="M77.38,101.14C77.23,95.47,76.15,89.7,74.13,89c-4-1.48-40.85-1.65-43.64,0-1.47.86-2.56,6.75-2.72,12.45-.19-6.4,1-14.2,2.72-15.22,2.79-1.64,39.66-1.48,43.64,0C76.49,87.07,77.56,94.73,77.38,101.14Z"/><path class="cls-40" d="M75.29,109.92c-3.13,1.39-43.31,1-45.3-.13S27.53,103,27.82,97.42c.2,3.52.87,6.43,2.17,7.15,2,1.12,42.17,1.53,45.3.13,1.15-.52,1.84-3.69,2-7.57C77.63,103,76.94,109.18,75.29,109.92Z"/><path class="cls-44" d="M35.8,115.09c-2.57,3-3.09,20.5,0,22.15s31.82,1.86,32.87,0,2.37-19.68,0-22.15S38.38,112.14,35.8,115.09Z"/><path class="cls-45" d="M22.27,119.4c0-.07-.2-1.32-.71,1-2.41,10.7-.44,25,1.13,29.53.46-.13.86-.17,1.34-.26C23.06,143.29,22.18,124.46,22.27,119.4Z"/><path class="cls-46" d="M100.65,127.18l-1.17,1.06c-4.13-4.6-8.37-8.38-12.64-9.52,0,0,2.43-1.51,8.76,2.91A20.81,20.81,0,0,1,100.65,127.18Z"/><polygon class="cls-16" points="95.52 184.54 94.11 184.21 133.15 17.16 134.64 17.5 95.52 184.54"/><path class="cls-47" d="M223.43,17.84S202.66-3.73,173.6,3.93s-38.35-1.79-38.35-1.79l-12.61,57s16,7.49,48.07-2.29c26-7.92,38.08,19.22,38.08,19.22C216.75,63.37,218.38,38.77,223.43,17.84Z"/><path class="cls-16" d="M179.19,6.91C189.74,5.27,209.41,8,222.1,23.81c.42-2,.86-4,1.33-6,0,0-20.77-21.57-49.83-13.91s-38.35-1.79-38.35-1.79S137.66,13.34,179.19,6.91Z"/><path d="M148.34,19.88l-1.27,8-1.79-.29,1.27-7.95a1.47,1.47,0,0,0-1.23-1.69l.29-1.79A3.28,3.28,0,0,1,148.34,19.88Z"/><path d="M161.74,22l-.75,4.7a3.28,3.28,0,0,1-3.77,2.73l-4.7-.75a3.29,3.29,0,0,1-2.63-2.25l7.62,1.21a1.46,1.46,0,0,0,1.68-1.22l.75-4.71A1.47,1.47,0,0,0,158.72,20L154,19.29a1.46,1.46,0,0,0-1.68,1.22l-.75,4.71a1.37,1.37,0,0,0,0,.57l-1.86-.29a3.64,3.64,0,0,1,0-.57l.75-4.7a3.3,3.3,0,0,1,3.77-2.74l4.7.75A3.3,3.3,0,0,1,161.74,22Z"/><path d="M170.32,20l1,5.22,3.8.6,2.58-4.64,1.91.3L176.57,27a1.41,1.41,0,0,1-1.36.7L170.69,27a1.39,1.39,0,0,1-1.08-1.09l-1.19-6.16Zm3.38,8.35L173.13,32l-1.79-.28.57-3.59Z"/><path d="M189,23a3.29,3.29,0,1,1-1,6.5h0l2.11,5.16L188,34.34l-2.12-5.16-3.17-.51.28-1.79,5.27.84a1.47,1.47,0,0,0,.46-2.91l-6.16-1-1.5,9.41L179.29,33l1.78-11.2Z"/><path d="M203.27,33.89a3.27,3.27,0,0,1-3.66,2.29l-7.13-1.13.28-1.79,7.13,1.13a1.48,1.48,0,0,0,1.55-.79Zm-8.56-6.18a1.49,1.49,0,0,0,1.23,1.23l4.7.75A3.27,3.27,0,0,1,203.41,33l-1.83-.29a1.45,1.45,0,0,0-1.22-1.23l-4.71-.75a3.27,3.27,0,0,1-2.77-3.31Zm9.11-2.34-.29,1.79L196.4,26a1.49,1.49,0,0,0-1.55.79L193,26.52a3.29,3.29,0,0,1,3.66-2.29Z"/><path d="M148.92,33.51a2.34,2.34,0,0,1,1.87,1.61l-5.45-.87a1.05,1.05,0,0,0-1.21.88l-.54,3.37a1.05,1.05,0,0,0,.88,1.21l3.37.54a1.05,1.05,0,0,0,1.21-.88l.54-3.37a1.19,1.19,0,0,0,0-.42l1.33.22a2.69,2.69,0,0,1,0,.4l-.53,3.37a2.35,2.35,0,0,1-2.7,2L144.27,41a2.35,2.35,0,0,1-2-2.69l.54-3.37a2.34,2.34,0,0,1,2.69-2Z"/><path d="M159.13,35.13l-.2,1.28-4.05-.64a1.05,1.05,0,0,0-1.21.88l-.9,5.7-1.29-.21.91-5.7a2.34,2.34,0,0,1,2.7-1.95ZM156.7,38.2l-.21,1.28-2.54-.4.2-1.29Z"/><path d="M164.91,36.05l-1.28,8-1.28-.2,1.27-8Zm2.65.42a2.36,2.36,0,0,1,1.57,1,2.31,2.31,0,0,1,1.8-.45l1.6.25a2.36,2.36,0,0,1,2,2.7l-.91,5.7-1.28-.21.91-5.7a1.07,1.07,0,0,0-.88-1.21l-1.61-.25a1.05,1.05,0,0,0-1.21.88l-.9,5.69-1.29-.2.91-5.7a1.05,1.05,0,0,0-.88-1.21l-1.6-.25.2-1.29Z"/><path d="M183.1,45.11a2.36,2.36,0,0,1-2.63,1.64l-5.11-.81.21-1.29,5.11.82a1.07,1.07,0,0,0,1.11-.57ZM177,40.68a1,1,0,0,0,.87.88l3.37.54a2.34,2.34,0,0,1,2,2.37l-1.31-.21a1.05,1.05,0,0,0-.88-.88l-3.37-.54a2.35,2.35,0,0,1-2-2.37ZM183.49,39l-.21,1.29-5.1-.82a1.06,1.06,0,0,0-1.11.57l-1.31-.21a2.34,2.34,0,0,1,2.62-1.64Z"/><path d="M190.89,40.18a2.34,2.34,0,0,1,2,2.7l-1.28-.21a1.05,1.05,0,0,0-.88-1.21l-3.37-.53a1.05,1.05,0,0,0-1.21.87l-.53,3.37a1.05,1.05,0,0,0,.87,1.21l3.38.54A1.05,1.05,0,0,0,191,46l1.29.21a2.35,2.35,0,0,1-2.7,2l-3.37-.53a2.36,2.36,0,0,1-2-2.7l.54-3.37a2.36,2.36,0,0,1,2.7-2Z"/><path d="M200.13,41.65a2.35,2.35,0,0,1,2,2.7l-1.28-.21a1.05,1.05,0,0,0-.88-1.21l-3.37-.53a1.05,1.05,0,0,0-1.21.87l-.54,3.38a1.05,1.05,0,0,0,.88,1.2l3.37.54a1.05,1.05,0,0,0,1.21-.88l1.29.21a2.35,2.35,0,0,1-2.7,2l-3.37-.53a2.36,2.36,0,0,1-2-2.7l.54-3.37a2.35,2.35,0,0,1,2.69-2Z"/></g></g></g></svg>