<svg width="8082" height="6569" viewBox="0 0 8082 6569" fill="none" xmlns="http://www.w3.org/2000/svg">
<path d="M8081.46 778.285C7784.38 910.338 7464.66 999.413 7129.19 1039.27C7471.71 834.223 7734.34 509.421 7858.2 121.955C7537.82 312.079 7183.16 450.038 6805.38 524.513C6503.05 202.335 6072.11 0.892578 5595.24 0.892578C4679.73 0.892578 3937.44 743.18 3937.44 1658.86C3937.44 1788.62 3952.04 1915.09 3980.42 2036.65C2602.47 1967.42 1380.69 1307.48 562.945 304.369C420.229 549.119 338.537 833.895 338.537 1138.03C338.537 1713.16 631.187 2220.7 1076.07 2517.94C804.414 2509.25 548.674 2434.61 325.085 2310.43C324.921 2317.32 324.921 2324.38 324.921 2331.43C324.921 3134.58 896.441 3804.52 1654.97 3957.08C1515.86 3994.81 1369.37 4015.15 1218.13 4015.15C1111.17 4015.15 1007.33 4004.82 906.12 3985.3C1117.24 4643.92 1729.44 5123.41 2454.84 5136.7C1887.42 5581.42 1172.69 5846.51 395.787 5846.51C262.093 5846.51 130.04 5838.63 0.283203 5823.21C734.204 6293.85 1605.59 6568.13 2541.78 6568.13C5591.47 6568.13 7258.95 4041.89 7258.95 1850.95C7258.95 1779.1 7257.47 1707.42 7254.36 1636.22C7578.18 1402.95 7859.34 1110.8 8081.46 778.285Z" fill="black"/>
</svg>
