<svg width="3877" height="4403" viewBox="0 0 3877 4403" fill="none" xmlns="http://www.w3.org/2000/svg">
<path d="M1277.75 3771.99C1268.38 3820.41 1224.64 3867.27 1182.47 3890.7C1134.05 3917.25 1094.99 3903.19 1043.45 3901.63C1027.83 3901.63 1020.02 3917.25 1029.39 3929.74C1070 3987.53 1159.04 3968.79 1210.59 3937.55C1269.94 3901.63 1304.31 3845.4 1304.31 3775.12C1305.87 3756.37 1280.88 3754.81 1277.75 3771.99Z" fill="#D4D4D4"/>
<path d="M1068.44 3907.88C1004.4 3923.5 943.476 3953.17 879.432 3960.98C771.651 3973.48 768.527 3895.38 715.417 3829.78C706.045 3818.85 687.301 3825.1 685.739 3839.15C676.366 3918.81 748.22 4001.59 827.885 4010.96C913.797 4020.33 1002.83 3973.48 1079.37 3939.11C1094.99 3932.87 1087.18 3903.19 1068.44 3907.88Z" fill="#D4D4D4"/>
<path d="M738.848 3864.14C691.987 3821.97 632.629 3796.98 585.767 3754.81C556.089 3728.26 529.534 3697.02 523.286 3656.41C515.475 3611.12 540.468 3573.63 546.716 3529.9C548.278 3511.15 526.41 3498.66 512.351 3511.15C445.183 3570.51 454.556 3681.4 504.541 3748.56C554.527 3814.16 642.001 3864.14 720.104 3890.7C734.162 3895.38 751.344 3875.08 738.848 3864.14Z" fill="#D4D4D4"/>
<path d="M535.782 3550.2C570.147 3492.41 576.395 3434.62 588.892 3369.02C607.636 3273.75 659.184 3240.95 752.907 3226.89C788.834 3220.64 777.899 3167.54 743.534 3172.22C662.308 3181.59 584.205 3212.83 552.965 3294.05C523.286 3370.58 529.534 3458.05 506.103 3536.14C501.417 3551.76 526.41 3567.38 535.782 3550.2Z" fill="#D4D4D4"/>
<path d="M748.22 3214.39C843.505 3220.64 868.498 3119.12 951.287 3094.13C1077.81 3056.64 1166.85 3186.28 1269.94 3234.7C1298.06 3247.19 1323.05 3200.34 1294.94 3186.28C1202.78 3137.86 1126.24 3041.02 1015.33 3036.34C971.593 3034.77 921.608 3041.02 884.118 3066.01C831.009 3101.94 812.264 3162.85 745.096 3181.59C731.038 3187.84 729.476 3212.83 748.22 3214.39Z" fill="#D4D4D4"/>
<path d="M1309 3792.3C1382.41 3776.68 1435.52 3722.01 1444.89 3647.04C1452.7 3583 1430.83 3472.11 1376.16 3433.06C1366.79 3426.81 1351.17 3433.06 1351.17 3443.99C1348.05 3495.54 1383.97 3545.52 1391.78 3597.06C1402.72 3678.28 1362.1 3717.33 1298.06 3757.93C1284 3770.43 1288.69 3796.98 1309 3792.3Z" fill="#D4D4D4"/>
<path d="M1391.78 3489.29C1430.83 3431.5 1452.7 3348.72 1423.02 3281.55C1399.59 3228.45 1329.3 3156.6 1268.38 3159.73C1257.45 3159.73 1251.2 3175.35 1255.89 3184.72C1282.44 3230.01 1341.8 3242.51 1369.92 3290.93C1404.28 3351.84 1377.73 3411.19 1360.54 3472.11C1354.29 3492.41 1379.29 3508.03 1391.78 3489.29Z" fill="#D4D4D4"/>
<path d="M1101.24 3250.32C1073.13 3226.89 1040.32 3205.02 1002.83 3203.46C960.659 3201.9 926.294 3228.45 896.615 3256.56C888.805 3264.37 885.681 3279.99 893.491 3289.36C937.228 3336.22 984.09 3337.78 1043.45 3319.04C1065.32 3312.79 1066.88 3281.55 1041.89 3278.43C1021.58 3275.31 1004.4 3281.55 984.09 3283.12C959.097 3286.24 946.6 3276.87 927.856 3259.69C926.294 3270.62 926.294 3281.55 924.732 3292.49C946.6 3270.62 973.155 3244.07 1007.52 3248.75C1034.08 3251.88 1059.07 3270.62 1084.06 3281.55C1104.37 3287.8 1115.3 3261.25 1101.24 3250.32Z" fill="#D4D4D4"/>
<path d="M766.965 3394.01C735.724 3400.26 704.483 3409.63 682.614 3434.62C657.622 3462.73 651.373 3500.22 649.811 3537.71C649.811 3550.2 660.746 3564.26 674.804 3561.13C701.359 3553.32 738.848 3542.39 751.344 3512.72C754.469 3504.91 748.22 3492.41 738.848 3492.41C712.293 3492.41 687.301 3512.72 663.87 3520.52C673.242 3528.33 684.176 3534.58 693.549 3542.39C693.549 3514.28 696.673 3483.04 715.417 3461.17C731.038 3443.99 756.031 3434.62 777.899 3426.81C793.52 3417.44 784.147 3389.33 766.965 3394.01Z" fill="#D4D4D4"/>
<path d="M1121.55 3795.42C1188.72 3736.07 1277.75 3692.33 1313.68 3603.31C1318.37 3590.81 1309 3578.32 1296.5 3575.19C1243.39 3567.38 1219.96 3590.81 1187.16 3628.3C1177.78 3639.23 1191.84 3651.73 1202.78 3647.04C1237.14 3632.98 1249.64 3609.55 1291.81 3614.24C1285.56 3604.87 1280.88 3595.5 1274.63 3586.13C1241.83 3668.91 1149.67 3703.27 1098.12 3771.99C1090.31 3789.17 1109.05 3806.35 1121.55 3795.42Z" fill="#D4D4D4"/>
<path d="M1141.86 3659.53C1098.12 3684.53 1085.62 3732.94 1077.81 3779.8C1073.13 3806.35 1112.18 3807.92 1118.43 3782.93C1126.24 3747 1130.92 3711.08 1157.48 3682.96C1168.41 3673.59 1157.48 3651.73 1141.86 3659.53Z" fill="#D4D4D4"/>
<path d="M877.87 3767.31C860.688 3767.31 841.943 3764.18 837.257 3747C832.571 3728.26 843.505 3711.08 832.571 3692.33C827.885 3682.96 816.95 3679.84 807.578 3687.65C785.71 3706.39 788.834 3750.12 801.33 3773.55C816.95 3803.23 848.191 3803.23 879.432 3801.67C898.177 3800.11 896.615 3767.31 877.87 3767.31Z" fill="#D4D4D4"/>
<path d="M1073.13 3617.36C1080.94 3589.25 1088.75 3545.52 1055.94 3528.34C1034.07 3517.4 991.9 3528.34 990.338 3554.89C990.338 3562.7 993.462 3568.94 1001.27 3572.07C1016.89 3578.32 1023.14 3564.26 1037.2 3565.82C1041.89 3565.82 1038.76 3601.74 1038.76 3609.55C1037.2 3628.3 1066.88 3637.67 1073.13 3617.36Z" fill="#D4D4D4"/>
<path d="M534.22 3965.67C635.753 4132.79 996.586 4287.42 1130.92 4076.56C1138.73 4064.07 1126.24 4045.32 1112.18 4053.13C1004.4 4112.49 913.797 4140.6 791.958 4096.87C702.921 4065.63 626.381 4009.4 556.089 3946.92C545.154 3937.55 527.972 3953.17 534.22 3965.67Z" fill="#D4D4D4"/>
<path d="M1113.74 4082.81C1276.19 4135.92 1383.97 4045.32 1502.69 3943.8C1582.35 3875.08 1660.46 3842.28 1751.05 3796.98C1810.41 3767.31 1841.65 3725.13 1860.4 3661.1C1865.08 3643.92 1843.22 3636.11 1835.4 3651.73C1774.49 3775.12 1618.28 3790.73 1518.31 3873.52C1393.35 3976.6 1301.18 4084.37 1123.11 4050.01C1101.24 4046.89 1094.99 4076.56 1113.74 4082.81Z" fill="#D4D4D4"/>
<path d="M1838.53 3629.86C1768.24 3706.39 1680.76 3672.03 1591.73 3668.91C1579.23 3668.91 1571.42 3684.52 1582.35 3692.33C1662.02 3745.44 1821.35 3751.69 1863.52 3647.04C1869.77 3634.54 1849.46 3618.93 1838.53 3629.86Z" fill="#D4D4D4"/>
<path d="M1629.21 3690.77C1801.04 3592.37 1738.56 3376.83 1869.77 3251.88C1975.99 3151.92 2127.51 3145.67 2124.38 2969.17C2124.38 2947.31 2096.27 2945.75 2091.58 2966.05C2054.09 3134.74 1893.2 3133.17 1801.04 3256.56C1705.76 3384.64 1747.93 3559.57 1607.35 3661.1C1591.73 3670.47 1610.47 3700.14 1629.21 3690.77Z" fill="#D4D4D4"/>
<path d="M2116.57 2931.69C2005.67 3108.18 1730.75 2920.76 1594.85 3083.19C1577.67 3103.5 1607.35 3123.8 1626.09 3111.31C1737 3036.34 1843.22 3066.01 1968.18 3058.2C2049.41 3053.52 2113.45 3026.96 2144.69 2945.75C2149.38 2930.13 2125.95 2916.07 2116.57 2931.69Z" fill="#D4D4D4"/>
<path d="M1663.58 3058.2C1677.64 2923.88 1765.11 2866.09 1872.89 2803.61C1943.19 2764.57 2030.66 2714.58 2052.53 2631.8C2057.22 2616.18 2038.47 2608.38 2029.1 2619.31C1951 2705.21 1863.52 2750.51 1768.24 2814.55C1682.32 2873.9 1633.9 2948.87 1633.9 3055.08C1633.9 3075.38 1662.02 3078.51 1663.58 3058.2Z" fill="#D4D4D4"/>
<path d="M2033.78 2616.18C1883.83 2683.35 1699.51 2636.49 1540.18 2689.59C1412.09 2733.33 1294.94 2820.79 1202.78 2917.63C1185.59 2934.81 1207.46 2958.24 1226.21 2945.75C1373.04 2848.91 1482.38 2741.14 1663.58 2708.34C1788.54 2686.47 1944.75 2727.08 2049.41 2638.05C2060.34 2628.68 2047.84 2609.94 2033.78 2616.18Z" fill="#D4D4D4"/>
<path d="M1262.13 2909.82C1271.51 2859.84 1282.44 2814.55 1309 2770.81C1330.86 2734.89 1360.54 2706.78 1388.66 2677.1C1398.03 2667.73 1388.66 2650.55 1376.16 2656.79C1288.69 2698.97 1227.77 2814.55 1232.45 2911.38C1234.02 2928.57 1259.01 2923.88 1262.13 2909.82Z" fill="#D4D4D4"/>
<path d="M1360.54 2639.61C1238.7 2756.76 1055.94 2739.57 909.111 2803.61C857.564 2825.48 809.14 2856.72 773.213 2900.45C712.293 2972.3 715.417 3069.14 612.322 3105.06C599.826 3109.75 606.074 3128.49 620.133 3126.93C674.804 3119.12 710.731 3106.62 741.972 3059.76C766.965 3023.84 774.775 2980.11 801.33 2944.18C845.067 2883.27 913.797 2852.03 982.527 2830.17C1124.67 2783.31 1285.56 2787.99 1382.41 2659.92C1391.78 2645.86 1373.04 2628.68 1360.54 2639.61Z" fill="#D4D4D4"/>
<path d="M659.184 3087.88C671.68 3083.19 679.49 3084.75 688.863 3073.82C698.235 3062.89 702.921 3045.71 707.607 3031.65C716.979 2997.29 726.352 2951.99 709.169 2917.63C704.483 2908.26 691.987 2909.82 687.301 2919.19C674.804 2945.75 676.366 2976.98 671.68 3005.1C670.118 3017.59 666.994 3030.09 662.308 3041.02C660.746 3044.15 652.936 3066.01 649.811 3067.57C635.753 3073.82 645.125 3092.56 659.184 3087.88Z" fill="#D4D4D4"/>
<path d="M695.111 2930.13C540.468 3119.12 323.344 3290.93 328.03 3556.45C331.154 3706.39 388.95 3935.99 554.527 3978.16C571.709 3982.85 588.892 3957.86 570.147 3946.92C399.884 3848.52 332.716 3600.18 388.95 3415.88C445.183 3231.57 613.884 3103.5 721.666 2948.87C735.724 2931.69 709.169 2914.51 695.111 2930.13Z" fill="#D4D4D4"/>
<path d="M1504.25 3929.74C1752.62 3862.58 1991.61 3801.67 2147.81 3583C2250.91 3437.74 2316.52 3306.54 2455.54 3189.4C2546.14 3112.87 2608.62 3066.01 2632.05 2945.75C2635.17 2930.13 2610.18 2925.44 2603.93 2939.5C2543.01 3086.32 2425.86 3137.86 2324.33 3247.19C2254.03 3323.73 2204.05 3415.88 2147.81 3504.91C1983.8 3762.62 1758.86 3800.11 1496.44 3906.31C1482.38 3911 1490.19 3934.43 1504.25 3929.74Z" fill="#D4D4D4"/>
<path d="M2622.68 2923.88C2583.63 2970.74 2527.39 3001.97 2469.6 3020.72C2421.17 3036.34 2366.5 3033.21 2321.2 3055.08C2311.83 3059.76 2311.83 3075.38 2322.76 3078.51C2379 3094.13 2449.29 3072.26 2502.4 3051.95C2561.76 3028.53 2610.18 2994.16 2644.55 2939.5C2652.36 2925.44 2633.61 2912.95 2622.68 2923.88Z" fill="#D4D4D4"/>
<path d="M2352.44 3064.45C2427.42 3000.41 2482.09 2920.76 2546.14 2848.91C2619.55 2767.69 2710.15 2705.21 2785.13 2625.56C2886.66 2519.35 2950.71 2386.59 2955.39 2238.2C2955.39 2222.59 2931.96 2214.78 2927.28 2231.96C2874.17 2422.51 2816.37 2549.02 2664.85 2681.78C2538.33 2792.68 2438.35 2917.63 2332.14 3048.83C2324.33 3059.76 2341.51 3073.82 2352.44 3064.45Z" fill="#D4D4D4"/>
<path d="M2928.84 2231.96C2883.54 2335.04 2789.82 2391.27 2688.28 2431.88C2625.8 2456.87 2528.95 2464.68 2477.41 2509.98C2469.6 2517.79 2472.72 2534.97 2485.22 2534.97C2566.44 2536.53 2682.03 2481.86 2753.89 2445.94C2844.49 2402.2 2917.9 2338.17 2950.71 2239.77C2958.52 2224.15 2936.65 2216.34 2928.84 2231.96Z" fill="#D4D4D4"/>
<path d="M2533.64 2492.79C2605.49 2433.44 2644.55 2381.9 2671.1 2291.31C2721.09 2125.75 2725.77 2021.1 2847.61 1891.46C2891.35 1844.61 2933.52 1802.43 2952.27 1738.4C2983.51 1630.63 2914.78 1547.84 2941.33 1440.07C2944.46 1426.02 2925.71 1411.96 2916.34 1427.58C2874.17 1505.67 2897.6 1499.43 2903.84 1590.02C2917.9 1807.12 2856.98 1799.31 2755.45 1919.58C2614.87 2083.58 2663.29 2308.49 2514.9 2475.61C2503.96 2486.55 2522.71 2502.17 2533.64 2492.79Z" fill="#D4D4D4"/>
<path d="M2921.03 1424.45C2871.04 1479.12 2849.17 1535.35 2814.81 1599.39C2761.7 1697.79 2694.53 1714.97 2602.37 1771.2C2413.36 1885.21 2286.84 2063.27 2086.89 2164.8C2065.03 2175.73 2080.65 2203.84 2102.51 2197.59C2335.26 2121.06 2469.6 1896.15 2680.47 1777.44C2833.55 1691.54 2847.61 1593.14 2941.33 1443.2C2949.14 1430.7 2931.96 1411.96 2921.03 1424.45Z" fill="#D4D4D4"/>
<path d="M2133.76 2181.98C2199.36 2121.06 2191.55 2027.35 2222.79 1950.81C2264.97 1850.85 2382.12 1805.56 2443.04 1719.65C2452.41 1707.16 2435.23 1693.1 2424.3 1702.47C2350.88 1760.26 2252.47 1816.49 2200.92 1896.15C2150.94 1975.81 2154.06 2082.01 2111.89 2166.36C2107.2 2178.85 2124.38 2189.79 2133.76 2181.98Z" fill="#D4D4D4"/>
<path d="M2413.36 1697.79C2250.91 1797.75 2054.09 1796.19 1916.63 1938.32C1769.8 2091.39 1724.5 2261.63 1507.38 2338.17C1490.19 2344.41 1499.56 2370.97 1516.75 2367.84C1687.01 2336.6 1761.99 2217.9 1855.71 2085.14C1947.87 1950.82 2041.6 1877.41 2196.24 1828.99C2282.15 1802.43 2358.69 1780.57 2427.42 1719.65C2438.35 1710.28 2427.42 1688.42 2413.36 1697.79Z" fill="#D4D4D4"/>
<path d="M1558.92 2341.29C1602.66 2306.93 1621.4 2253.82 1637.03 2202.28C1657.33 2135.12 1674.51 2071.08 1707.32 2008.61C1713.57 1997.67 1701.07 1983.61 1690.13 1992.99C1597.97 2075.77 1621.4 2225.71 1537.05 2316.3C1524.56 2331.92 1541.74 2355.35 1558.92 2341.29Z" fill="#D4D4D4"/>
<path d="M1696.38 1991.42C1558.92 2028.91 1463.64 2160.11 1373.04 2261.63C1301.18 2344.41 1235.58 2411.58 1135.61 2459.99C1080.94 2486.55 1057.51 2499.04 1032.51 2555.27C1027.83 2567.77 1045.01 2580.26 1054.38 2570.89C1102.8 2517.78 1152.79 2505.29 1210.59 2472.49C1263.7 2442.81 1307.43 2394.39 1348.05 2350.66C1457.39 2231.96 1554.24 2088.26 1701.07 2013.29C1715.13 2007.04 1710.44 1986.74 1696.38 1991.42Z" fill="#D4D4D4"/>
<path d="M1080.94 2516.22C1168.41 2447.5 1223.08 2319.42 1227.77 2208.53C1227.77 2197.59 1213.71 2191.35 1207.46 2200.72C1148.1 2295.99 1148.1 2410.01 1063.75 2494.36C1051.26 2506.85 1066.88 2527.16 1080.94 2516.22Z" fill="#D4D4D4"/>
<path d="M1202.78 2213.21C985.652 2481.86 590.454 2745.82 557.651 3119.12C556.089 3134.74 579.519 3140.98 584.206 3125.36C660.746 2917.63 754.469 2759.88 907.549 2597.44C1018.45 2478.74 1138.73 2367.84 1224.64 2228.83C1235.58 2214.78 1213.71 2199.16 1202.78 2213.21Z" fill="#D4D4D4"/>
<path d="M2621.11 2995.73C2757.01 2825.48 2946.02 2698.97 3072.55 2522.47C3194.39 2350.66 3136.59 2153.86 3185.01 1960.19C3188.14 1946.13 3169.39 1933.63 3161.58 1947.69C3055.36 2136.68 3158.46 2330.36 3013.19 2522.47C2888.22 2688.03 2711.71 2803.61 2596.12 2978.55C2583.63 2994.16 2608.62 3011.35 2621.11 2995.73Z" fill="#D4D4D4"/>
<path d="M3200.63 1966.43C3258.43 1860.22 3361.52 1786.81 3414.63 1677.48C3484.93 1532.22 3399.01 1388.53 3438.06 1237.03C3441.19 1224.53 3424.01 1212.03 3414.63 1224.53C3339.66 1351.04 3422.44 1472.87 3386.52 1605.63C3349.03 1738.4 3225.63 1824.3 3169.39 1949.25C3161.58 1968 3191.26 1985.18 3200.63 1966.43Z" fill="#D4D4D4"/>
<path d="M3416.2 1221.41C3380.27 1254.21 3349.03 1288.57 3316.23 1324.49C3283.42 1361.98 3242.81 1397.9 3222.5 1443.2C3214.69 1458.82 3238.12 1472.87 3250.62 1461.94C3286.55 1430.7 3314.66 1388.53 3345.9 1352.61C3378.71 1316.68 3411.51 1280.76 3439.63 1241.71C3449 1227.65 3428.69 1208.91 3416.2 1221.41Z" fill="#D4D4D4"/>
<path d="M3259.99 1421.33C3305.29 1180.8 3464.62 988.683 3513.04 751.274C3550.53 570.094 3495.86 387.351 3456.81 210.856C3452.12 188.99 3420.88 195.237 3422.44 217.104C3441.19 477.942 3511.48 682.551 3399.01 938.702C3328.72 1098.02 3244.37 1240.15 3225.63 1416.64C3222.5 1441.63 3255.31 1443.2 3259.99 1421.33Z" fill="#D4D4D4"/>
<path d="M3425.57 213.98C3405.26 387.351 3388.08 570.094 3244.37 685.674C3177.2 740.341 3099.1 774.703 3042.87 843.426C3016.31 876.226 3006.94 901.217 2986.63 938.702C2914.78 1074.59 2892.91 1098.02 2780.44 1193.29C2685.16 1274.51 2614.87 1408.83 2510.21 1472.87C2489.9 1485.37 2503.96 1518.17 2525.83 1507.23C2658.6 1446.32 2738.27 1296.38 2849.17 1204.23C2964.76 1108.95 3000.69 993.369 3091.29 879.35C3169.39 779.388 3291.23 732.531 3361.52 629.446C3438.07 513.865 3453.69 349.865 3452.12 217.104C3453.69 198.361 3427.13 195.237 3425.57 213.98Z" fill="#D4D4D4"/>
<path d="M2557.07 1461.94C2600.81 1408.83 2621.11 1341.67 2639.86 1276.07C2661.73 1201.1 2691.41 1130.82 2716.4 1057.41C2719.52 1046.47 2707.03 1035.54 2697.65 1043.35C2593 1141.75 2599.25 1318.24 2525.83 1440.07C2513.33 1461.94 2541.45 1480.68 2557.07 1461.94Z" fill="#D4D4D4"/>
<path d="M2680.47 1079.27C2549.26 1115.2 2455.54 1213.6 2371.19 1315.12C2316.52 1380.72 2266.53 1451.01 2205.61 1513.48C2141.57 1579.08 2068.15 1611.88 1991.61 1660.3C1975.99 1669.67 1983.8 1691.54 2000.98 1689.98C2127.51 1683.73 2232.16 1563.46 2307.14 1472.87C2425.86 1330.74 2521.14 1194.85 2689.84 1105.83C2703.9 1099.58 2697.65 1074.59 2680.47 1079.27Z" fill="#D4D4D4"/>
<path d="M2052.53 1689.98C2113.45 1602.51 2122.82 1354.17 2191.55 1304.19C2213.42 1288.57 2186.87 1257.33 2165 1272.95C1965.05 1410.4 1829.16 1644.68 1643.27 1802.43C1466.76 1952.38 1312.12 2108.57 1146.54 2272.57C1134.05 2285.06 1146.54 2311.61 1165.29 2300.68C1229.33 2263.19 1274.63 2214.78 1326.18 2160.11C1430.83 2047.65 1532.37 1957.06 1651.08 1861.79C1849.46 1700.91 1983.8 1447.88 2193.11 1305.75C2211.86 1293.25 2189.99 1258.89 2171.25 1271.39C2069.71 1336.99 2082.21 1575.96 2029.1 1674.36C2018.16 1689.98 2041.6 1707.16 2052.53 1689.98Z" fill="#D4D4D4"/>
</svg>
