<svg width="1294" height="1010" viewBox="0 0 1294 1010" fill="none" xmlns="http://www.w3.org/2000/svg">
<path d="M1090.64 743.858C1043.14 830.452 970.784 901.128 882.729 946.935C794.675 992.743 694.885 1011.62 595.997 1001.18C497.109 990.741 403.571 951.451 327.228 888.286C250.886 825.122 195.173 740.924 167.146 646.356C139.118 551.788 140.036 451.105 169.783 357.054C199.531 263.004 256.77 179.818 334.252 118.031C411.733 56.2445 505.972 18.6362 605.034 9.96864C704.097 1.30106 803.526 21.9639 890.731 69.3412C948.554 100.612 999.593 142.866 1040.94 193.691C1082.28 244.516 1113.11 302.916 1131.67 365.554C1150.24 428.192 1156.17 493.842 1149.13 558.752C1142.09 623.663 1122.22 686.562 1090.64 743.858Z" fill="#27ACE3"/>
<path d="M1091.13 744.339L1086.77 752.015C1083.87 756.812 1079.51 764.488 1073.22 774.083C1055.73 802.335 1035.11 828.564 1011.74 852.281C975.625 889.488 934.005 921.032 888.312 945.83C828.537 978.528 762.649 998.772 694.693 1005.32C655.929 1009.6 616.803 1009.6 578.038 1005.32C536.752 999.456 496.403 988.33 457.995 972.216C374.305 938.031 301.536 881.991 247.435 810.063C188.99 732.545 153.959 640.171 146.418 543.691C138.877 447.21 159.136 350.591 204.839 265.077C216.859 243.604 230.279 222.931 245.015 203.19C259.545 183.177 275.736 164.402 293.419 147.061C328.608 112.704 368.536 83.4683 412.01 60.2276C497.996 15.5246 595.005 -4.1044 691.789 3.61767C737.825 7.25845 783.12 17.2701 826.354 33.3614C837.003 37.6791 847.653 41.5172 857.818 46.3147L872.823 53.5112L887.828 60.707C897.993 65.9842 906.705 71.7409 915.902 77.0181C925.099 82.2952 934.78 88.5317 943.493 94.7683C977.743 118.797 1008.81 147.004 1035.95 178.723C1060.97 208.207 1082.57 240.393 1100.32 274.671C1130.94 334.425 1149.06 399.699 1153.57 466.568C1156.89 518.125 1152.32 569.885 1140.02 620.086C1132.27 652.204 1121.08 683.406 1106.62 713.156C1103.23 721.216 1099.35 729.066 1095 736.663L1091.13 744.339ZM1091.13 744.339L1095.48 736.183C1097.9 730.906 1102.26 723.231 1106.62 713.156C1120.77 682.427 1131.49 650.252 1138.56 617.208C1144.13 594.367 1147.69 571.093 1149.21 547.645C1151.6 520.19 1151.6 492.583 1149.21 465.129C1142.37 399.448 1122.64 335.728 1091.13 277.55C1053.95 208.834 1001.07 149.689 936.717 104.843C928.005 98.6065 919.291 93.3294 910.578 87.5725L896.541 79.8964L889.28 75.5789L882.504 72.2211L867.982 64.5451L853.461 58.3082C843.78 53.5108 833.615 49.6731 823.45 45.8352C802.702 38.3708 781.529 32.1234 760.04 27.1253L726.641 20.8884C715.508 20.8884 704.374 17.5304 693.241 16.5709C599.511 8.36102 505.353 26.6587 421.691 69.342C335.433 113.677 263.98 181.829 215.972 265.557C204.277 286.806 193.931 308.756 184.993 331.281C158.844 398.947 148.581 471.625 154.982 543.807C163.177 637.599 198.844 726.975 257.6 800.948C264.376 810.063 272.121 818.219 279.382 826.854C286.642 835.49 294.871 843.166 303.1 850.842C319 866.249 335.985 880.517 353.925 893.539C363.122 899.775 371.835 906.492 381.032 911.769L394.585 920.404L409.106 928.559C417.819 933.837 427.984 938.154 437.181 942.952C446.378 947.749 456.543 952.067 466.223 955.425C539.212 984.795 618.09 996.949 696.63 990.926C763.113 986.098 827.952 968.157 887.344 938.154C912.359 925.79 936.178 911.177 958.499 894.498C977.551 879.989 995.361 863.943 1011.74 846.524C1035.12 823.095 1056.04 797.377 1074.19 769.765C1080.48 760.65 1084.84 752.494 1087.74 747.697L1091.13 744.339Z" fill="#2B62AC"/>
<path style="mix-blend-mode:multiply" d="M1092.1 740.98C1044.73 827.617 972.493 898.38 884.531 944.31C796.569 990.239 696.835 1009.27 597.954 998.998C499.073 988.724 405.49 949.605 329.051 886.594C252.612 823.583 196.753 739.513 168.545 645.023C140.337 550.533 141.048 449.874 170.588 355.785C200.128 261.696 257.17 178.408 334.492 116.464C411.813 54.5198 505.939 16.7046 604.956 7.80399C703.972 -1.09658 803.427 19.3177 890.732 66.4636C948.677 97.6115 999.857 139.776 1041.34 190.547C1082.83 241.317 1113.81 299.696 1132.52 362.344C1151.22 424.992 1157.28 490.68 1150.34 555.65C1143.4 620.621 1123.61 683.598 1092.1 740.98Z" fill="url(#paint0_radial_120_162)"/>
<g style="mix-blend-mode:multiply">
<path d="M317.138 864.753C320.526 870.03 323.431 875.787 327.303 881.065L330.691 886.341L337.952 892.098L358.282 877.706C358.514 873.712 358.514 869.707 358.282 865.712C358.63 857.627 359.765 849.594 361.671 841.725C363.493 835.037 366.663 828.784 370.989 823.343C375.315 817.901 380.706 813.384 386.841 810.062C402.814 802.866 426.532 798.069 438.149 783.676C440.435 779.824 443.582 776.542 447.346 774.082C467.676 764.007 490.427 760.649 511.241 752.014C535.924 739.621 558.47 723.428 578.039 704.04C597.401 686.769 631.284 679.573 642.901 656.066C658.391 622.963 623.539 601.854 606.113 578.347C584.837 555.03 571.024 525.978 566.422 494.872C566.422 466.568 578.039 427.229 563.518 398.924C556.741 386.451 548.996 391.728 541.251 384.532C533.507 377.336 531.086 372.538 525.278 367.261C507.368 350.47 479.778 358.626 459.932 364.383C451.703 366.781 423.628 375.417 421.692 360.065C417.82 334.159 437.181 282.346 470.097 309.212C488.49 324.564 526.73 318.807 528.666 290.502C528.666 278.988 522.374 273.711 515.597 266.515C508.41 260.564 503.323 252.498 501.075 243.488C501.075 232.933 517.533 231.494 523.826 232.454C539.799 232.454 569.81 240.609 575.619 258.359C581.428 276.11 580.943 296.259 594.012 301.056C622.087 311.131 628.864 292.421 645.806 280.428C662.747 268.434 686.465 280.428 703.891 289.543C731.872 299.85 757.893 314.772 780.854 333.679C797.796 352.389 813.769 337.517 829.259 325.524C844.748 313.53 849.105 309.692 858.786 301.537C870.384 293.753 881.096 284.745 890.733 274.67C894.798 268.952 897.553 262.422 898.803 255.537C900.053 248.652 899.768 241.579 897.97 234.814C896.171 228.05 892.902 221.757 888.391 216.377C883.88 210.997 878.236 206.659 871.855 203.669C839.76 189.897 808.702 173.865 778.918 155.695C768.822 149.429 761.41 139.693 758.104 128.35C754.716 111.079 758.104 91.8895 742.13 80.3757C741.531 79.9818 741.04 79.4472 740.7 78.8194C740.36 78.1916 740.183 77.4895 740.183 76.777C740.183 76.0645 740.36 75.3632 740.7 74.7354C741.04 74.1076 741.531 73.573 742.13 73.1791C766.333 57.8274 784.727 73.179 809.897 76.0574C819.147 76.0869 828.288 74.0794 836.659 70.18C845.03 66.2805 852.422 60.5872 858.302 53.5102C778.877 17.0521 691.215 1.81185 604.012 9.30164C516.81 16.7914 433.098 46.7509 361.186 96.2072C371.835 102.924 388.293 112.518 389.261 123.552C389.632 130.742 387.954 137.891 384.42 144.181C380.959 149.897 379.643 156.639 380.706 163.221C381.768 169.803 385.141 175.803 390.229 180.162C421.208 216.143 368.447 271.313 377.644 311.131C381.032 327.442 391.197 372.058 358.282 364.383C345.934 360.257 333.952 355.122 322.462 349.031C279.866 330.321 298.26 388.85 305.037 408.039C319.558 448.338 293.42 456.013 260.021 472.324C241.627 481.919 260.021 515.501 255.664 534.211C249.059 561.284 238.973 587.404 225.653 611.929C215.488 636.876 230.977 640.714 239.206 659.904C244.089 670.563 247.978 681.643 250.824 693.005C259.439 719.478 265.913 746.59 270.185 774.082C276.847 798.631 288.365 821.625 304.069 841.725C304.069 841.725 309.877 852.759 317.138 864.753Z" fill="#85D0F4"/>
</g>
<g style="mix-blend-mode:multiply">
<path d="M1094.51 275.151C1069.83 282.827 1049.01 295.3 1055.79 323.125C1059.66 338.477 1070.8 360.545 1055.79 371.099C1051.65 373.129 1047.1 374.185 1042.48 374.185C1037.86 374.185 1033.31 373.129 1029.17 371.099C1002.06 361.984 987.539 397.005 977.859 419.073C970.903 434.19 962.301 448.507 952.204 461.77C928.97 491.514 971.567 501.109 995.285 497.751C997.705 497.751 1001.58 497.75 1001.58 501.109C1000.94 510.201 998.294 519.044 993.833 527.015C982.7 550.043 1005.45 552.441 1021.91 555.799C1038.36 559.157 1049.98 562.516 1053.85 579.307C1057.73 596.098 1035.94 603.294 1053.85 619.605C1057.2 622.202 1059.96 625.464 1061.97 629.182C1063.97 632.9 1065.16 636.992 1065.47 641.194C1068.86 660.384 1041.75 673.816 1031.1 683.891C1030.51 684.595 1029.77 685.162 1028.94 685.551C1028.1 685.94 1027.19 686.142 1026.26 686.142C1025.34 686.142 1024.43 685.94 1023.59 685.551C1022.75 685.162 1022.01 684.595 1021.42 683.891C1009.81 665.181 993.832 624.882 967.209 643.592C964.04 646.786 959.868 648.813 955.379 649.336C950.89 649.86 946.355 648.848 942.524 646.47C927.035 635.436 909.125 591.78 885.406 612.889C876.209 622.357 865.793 630.584 854.427 637.356C839.249 644.476 821.842 645.338 806.023 639.754C757.618 628.24 772.623 669.498 765.847 693.965C761.816 704.677 758.897 715.769 757.134 727.067C757.134 743.858 774.56 742.419 783.272 746.257C787.953 747.521 792.231 749.947 795.703 753.305C799.175 756.662 801.727 760.841 803.119 765.447C809.411 787.035 818.124 819.178 793.438 832.131C784.725 836.449 775.528 838.847 767.299 843.165C746.485 854.678 751.81 868.111 754.714 884.902C756.105 890.929 755.948 897.206 754.257 903.157C752.565 909.108 749.394 914.543 745.033 918.964C738.516 924.428 730.938 928.51 722.767 930.957C708.959 936.961 696.587 945.789 686.463 956.863C677.676 968.199 665.972 976.982 652.58 982.289C625.474 989.486 599.819 976.053 573.197 987.567L563.031 992.364C655.513 1009.47 750.989 1000.35 838.468 966.043C925.948 931.738 1001.88 873.646 1057.51 798.455C1113.14 723.265 1146.23 634.031 1152.94 541.028C1159.66 448.024 1139.74 355.03 1095.48 272.752L1094.51 275.151ZM1094.51 464.649C1080.78 476.347 1064.01 483.993 1046.11 486.717C1043.2 486.717 1038.85 486.716 1039.82 482.399C1041.06 476.046 1043.59 470.009 1047.25 464.65C1050.91 459.291 1055.63 454.721 1061.11 451.216C1066.63 448.97 1072.63 448.145 1078.55 448.816C1084.48 449.487 1090.14 451.633 1095 455.054C1098.39 455.054 1097.42 459.372 1095 461.77C1092.58 464.169 1093.06 463.689 1092.09 464.649H1094.51Z" fill="#85D0F4"/>
</g>
<g style="mix-blend-mode:multiply" opacity="0.3">
<path d="M493.814 243.489C464.771 208.468 482.197 166.731 479.776 126.912C478.55 98.0737 466.257 70.7877 445.41 50.6328C422.651 60.2312 400.784 71.7894 380.063 85.1743C392.47 89.5124 403.766 96.4931 413.158 105.624C422.55 114.755 429.808 125.815 434.422 138.026C439.037 150.237 440.894 163.301 439.866 176.3C438.837 189.299 434.946 201.917 428.468 213.265C407.937 252.455 376.086 284.691 336.983 305.856C291.967 333.201 229.041 361.026 201.934 408.52C188.865 432.028 173.376 504.469 222.264 502.07C243.778 499.322 265 494.666 285.674 488.158C304.068 484.32 351.504 477.603 354.409 506.868C358.765 549.565 309.876 577.869 321.009 625.364C341.823 711.238 425.563 642.634 466.223 615.289C477.718 605.034 491.364 597.435 506.18 593.038C520.995 588.641 536.61 587.557 551.9 589.863C565.505 593.327 578.103 599.899 588.687 609.052C617.246 632.08 652.581 599.937 663.714 575.47C674.847 551.003 699.534 452.656 745.518 463.69C778.917 471.366 781.338 503.509 793.923 529.895C794.963 534.655 797.064 539.125 800.075 542.975C803.085 546.825 806.927 549.959 811.318 552.145C815.71 554.331 820.54 555.515 825.453 555.61C830.367 555.704 835.24 554.707 839.714 552.692C844.187 550.676 848.149 547.693 851.308 543.962C854.467 540.23 856.742 535.845 857.968 531.128C859.194 526.412 859.338 521.483 858.39 516.704C857.443 511.924 855.428 507.416 852.493 503.509C840.382 484.73 823.748 469.232 804.088 458.413C766.817 436.345 679.688 397.966 711.151 340.877C728.576 308.254 761.976 287.626 779.886 255.003C814.737 191.677 737.773 209.428 700.018 216.624C673.395 221.901 643.385 220.462 632.252 191.197C630.057 178.014 630.057 164.563 632.252 151.379C633.504 142.481 632.506 133.414 629.347 124.993C612.89 99.5666 591.107 137.466 587.235 146.102C577.815 177.864 563.444 207.972 544.639 235.334C529.15 245.888 503.495 257.402 493.814 243.489Z" fill="#2CB2E8"/>
</g>
<g style="mix-blend-mode:multiply" opacity="0.3">
<path d="M295.356 263.158C327.303 247.327 363.607 225.738 369.899 186.879C376.192 148.02 348.601 120.675 311.813 138.905C250.319 194.332 203.738 264.079 176.281 341.836C210.526 308.298 250.949 281.589 295.356 263.158Z" fill="#2CB2E8"/>
</g>
<g style="mix-blend-mode:multiply" opacity="0.3">
<path d="M890.732 69.342C829.347 35.9369 761.572 15.6714 691.789 9.85449C680.656 57.8287 684.044 108.201 743.582 131.709C791.987 151.378 848.62 143.702 888.796 183.521C898.844 194.889 904.852 209.21 905.901 224.287C906.95 239.365 902.982 254.368 894.604 266.996C883.061 283.967 868.056 298.348 850.556 309.213C834.582 321.206 805.056 339.437 812.317 364.863C815.118 376.119 821.203 386.308 829.811 394.157C838.42 402.007 849.171 407.169 860.721 408.999C918.807 415.236 909.126 336.558 942.041 313.051C953.747 304.768 966.992 298.866 981.012 295.683C995.032 292.501 1009.55 292.103 1023.73 294.511C1037.9 296.92 1051.46 302.088 1063.61 309.716C1075.76 317.345 1086.26 327.283 1094.52 338.957C1126.95 393.648 1082.9 442.581 1028.69 456.494C988.026 466.568 886.86 480.001 928.972 544.287C949.302 574.99 981.732 592.261 1005.45 617.687C1014.83 626.248 1021.62 637.225 1025.06 649.39C1028.5 661.556 1028.47 674.431 1024.95 686.577C1021.44 698.722 1014.58 709.66 1005.15 718.166C995.725 726.672 984.098 732.412 971.568 734.744C939.518 746.292 904.388 746.292 872.338 734.744C826.838 718.913 803.603 662.303 752.778 656.546C623.054 641.194 689.853 909.85 529.149 872.43C474.452 859.477 504.463 794.232 507.367 759.211C511.724 701.162 458.962 721.311 431.372 745.778C403.781 770.245 388.292 787.515 365.058 806.225C316.653 844.125 272.605 810.063 265.344 758.251C259.536 716.034 271.153 654.627 223.232 633.519C200.641 625.645 178.778 615.854 157.886 604.254C173.426 686.705 209.768 763.916 263.526 828.698C317.285 893.479 386.711 943.722 465.338 974.748C543.966 1005.77 629.236 1016.57 713.209 1006.14C797.181 995.706 877.124 964.379 945.59 915.077C1014.06 865.775 1068.82 800.101 1104.78 724.172C1140.74 648.243 1156.73 564.53 1151.25 480.829C1145.78 397.127 1119.02 316.16 1073.46 245.47C1027.91 174.78 965.049 116.665 890.732 76.5385V69.342Z" fill="#2CB2E8"/>
</g>
<path d="M588.686 229.095C598.851 238.21 595.463 254.522 595.947 266.515C595.947 302.975 616.278 275.63 629.347 266.515C642.416 257.4 643.868 250.684 660.326 252.123C676.961 253.477 693.287 257.36 708.73 263.637C729.238 269.923 748.781 278.962 766.816 290.502C795.374 310.172 815.22 323.605 846.683 295.3C862.657 281.387 895.088 253.083 869.918 229.576C853.159 215.236 833.009 205.333 811.348 200.791C790.369 195.033 771.106 184.335 755.198 169.608C742.613 157.614 741.161 137.465 728.576 121.634C717.447 112.127 708.529 100.343 702.437 87.0922C694.693 58.3077 730.512 50.1519 750.842 48.7127C759.295 49.2479 767.54 51.536 775.044 55.4291C785.396 59.7677 796.69 61.4273 807.867 60.2524C819.043 59.0776 829.735 55.1068 838.938 48.7127L847.168 44.3952C771.159 12.0502 688.268 -1.19572 605.854 5.83421C523.44 12.8641 444.053 39.9523 374.738 84.6933C375.29 86.2997 376.179 87.7718 377.347 89.0123C378.516 90.2528 379.936 91.2331 381.515 91.8892L388.776 96.2074C392.648 100.045 398.94 105.802 398.94 112.038C398.94 131.228 382.967 160.013 405.233 172.966C411.307 176.361 416.329 181.338 419.755 187.358C429.92 208.467 406.685 229.575 403.297 249.244C395.495 286.965 391.763 325.4 392.164 363.903C391.922 366.405 390.746 368.727 388.865 370.414C386.984 372.1 384.535 373.029 381.999 373.018C363.656 369.752 345.666 364.773 328.27 358.146C289.546 348.071 328.27 410.438 328.27 420.992C337.951 468.966 300.195 468.966 267.764 478.561C275.51 500.62 275.51 524.626 267.764 546.685C248.58 580.995 241.751 620.755 248.402 659.424C260.987 695.884 276.477 728.986 285.674 766.886C298.28 806.014 318.691 842.232 345.696 873.389C349.084 851.8 336.499 822.536 353.924 806.705C371.35 790.873 404.749 787.994 424.111 764.967C434.068 756.363 446.727 751.447 459.931 751.054C481.765 750.469 502.821 742.895 519.952 729.466C548.873 702.545 581.46 679.776 616.761 661.822C687.916 625.362 544.154 554.361 551.899 501.589C557.708 459.372 551.899 400.843 507.851 378.775C484.132 366.782 456.542 378.775 430.888 375.417C428.454 377.763 425.575 379.606 422.418 380.842C419.261 382.077 415.887 382.679 412.494 382.612C400.876 382.612 401.36 365.342 400.392 355.747C398.06 346.937 397.718 337.725 399.392 328.769C401.065 319.813 404.713 311.333 410.074 303.935C424.111 289.063 442.021 279.948 456.058 265.556C451.702 256.441 440.084 242.049 442.02 235.332C447.148 221.896 453.979 209.16 462.35 197.433C463.597 195.567 465.346 194.083 467.399 193.151C469.452 192.218 471.727 191.873 473.968 192.156C514.869 193.991 554.507 206.754 588.686 229.095Z" fill="#73B635"/>
<path d="M588.685 229.096C591.504 232.185 593.613 235.843 594.867 239.819C596.121 243.795 596.489 247.993 595.946 252.124C594.97 260.572 594.97 269.102 595.946 277.55V280.428C596.81 280.986 597.819 281.283 598.85 281.283C599.881 281.283 600.89 280.986 601.754 280.428C605.655 279.005 609.264 276.891 612.403 274.191L622.084 266.036C625.818 263.917 629.379 261.511 632.733 258.84C637.66 256.15 643.102 254.516 648.707 254.042C652.846 253.081 657.153 253.081 661.292 254.042H673.878L686.463 256.921C703.011 261.269 719.195 266.883 734.867 273.712C750.623 280.316 765.565 288.685 779.399 298.658C786.175 303.615 793.687 307.5 801.666 310.172C809.642 313.03 818.376 313.03 826.352 310.172C834.104 307.076 841.174 302.513 847.166 296.739C853.648 291.361 859.79 285.593 865.56 279.469C871.211 273.392 875.501 266.198 878.145 258.36C879.409 254.511 879.627 250.401 878.777 246.442C877.927 242.484 876.039 238.817 873.304 235.812C861.502 223.798 846.861 214.894 830.708 209.906C814.148 205.395 797.965 199.621 782.304 192.635C774.661 188.679 767.514 183.849 761.006 178.243C754.115 173.023 748.765 166.064 745.516 158.094C741.644 150.418 738.74 142.742 734.383 135.546C729.709 128.652 724.179 122.366 717.925 116.836C711.688 110.851 706.748 103.668 703.404 95.7275C702.987 93.6691 702.987 91.5496 703.404 89.4913C703.144 87.2599 703.144 85.0056 703.404 82.7742C703.597 78.2842 705.112 73.9486 707.761 70.3012C713.611 63.7879 721.141 58.9783 729.543 56.389C737.908 54.0215 746.512 52.573 755.197 52.0708H761.974H768.266L780.368 56.389C787.981 59.7842 796.222 61.5809 804.57 61.6662C812.861 61.5067 821.057 59.8818 828.772 56.8685C836.425 53.6677 843.862 49.9822 851.038 45.8347V49.1925L822.479 38.1586L793.437 28.5639L763.426 21.3674L733.415 15.6107L697.112 14.1715H666.133H635.638H605.143L574.648 18.0096L544.153 23.2867L514.626 30.4826L485.099 39.5978L456.541 50.1522L428.466 62.6252L401.359 77.0176L375.221 92.8491V89.4913C375.082 90.4458 375.082 91.4151 375.221 92.3696L382.481 96.6871C387.422 100.612 391.257 105.735 393.614 111.559C394.1 113.122 394.1 114.794 393.614 116.357C393.849 117.787 393.849 119.244 393.614 120.674C393.876 123.547 393.876 126.437 393.614 129.309C390.697 139.436 389.874 150.043 391.194 160.493C392.782 165.155 395.836 169.189 399.907 172.006C404.871 175.296 409.421 179.161 413.46 183.52V187.838C413.966 190.855 413.966 193.935 413.46 196.953C413.621 203.092 412.293 209.179 409.588 214.703C405.232 225.257 398.939 234.373 395.551 244.448C394.307 249.671 393.338 254.956 392.647 260.279L389.742 277.07C389.742 288.104 386.838 298.658 385.87 309.693C384.902 320.727 385.87 331.761 385.87 342.795V363.903C386.029 365.017 386.029 366.148 385.87 367.261V369.66C384.769 371.253 383.334 372.592 381.663 373.585C379.992 374.579 378.125 375.203 376.189 375.417H366.508H358.279C352.481 374.176 346.809 372.409 341.337 370.14L325.848 365.343C321.333 363.176 316.335 362.185 311.327 362.464C310.542 362.554 309.788 362.816 309.118 363.231C308.448 363.646 307.88 364.203 307.454 364.863C307.175 366.932 307.175 369.03 307.454 371.099C308.067 376.315 309.202 381.458 310.843 386.451C314.715 397.005 319.071 406.6 323.428 417.634C323.768 419.216 323.768 420.85 323.428 422.431V426.269C323.681 429.303 323.681 432.351 323.428 435.385C323.955 441.497 322.784 447.636 320.04 453.135C317.193 458.816 312.843 463.625 307.454 467.048C302.432 470.183 297.075 472.758 291.481 474.724C280.347 478.562 269.215 480.48 258.566 483.838V479.041C261.628 487.418 263.738 496.107 264.859 504.947C266.311 514.166 266.311 523.553 264.859 532.772C263.179 541.595 260.75 550.261 257.597 558.679L247.917 583.145C241.357 599.191 237.593 616.224 236.784 633.518C236.65 641.99 237.959 650.424 240.656 658.464C240.656 666.62 246.464 674.776 249.369 683.411L258.566 707.878C261.954 716.034 264.858 724.669 267.763 732.824C270.667 740.98 272.603 750.095 275.507 758.731L282.768 783.677L287.608 795.67L293.417 807.664C297.467 815.446 301.993 822.976 306.97 830.212C311.327 837.408 316.651 844.605 321.976 851.801L337.466 873.389H332.625C332.625 858.037 329.236 841.726 332.625 825.415C333.416 821.058 334.885 816.85 336.981 812.941L341.337 807.664H343.758L349.082 803.827L354.407 800.947C358.279 798.549 362.152 797.11 366.024 795.191C381.487 790.272 395.689 782.088 407.652 771.204L412.008 766.886C413.397 765.351 415.033 764.054 416.849 763.048C420.481 760.496 424.598 758.701 428.95 757.771C437.081 755.711 445.323 754.109 453.636 752.973C461.788 752.044 469.872 750.602 477.839 748.656C485.523 746.283 492.85 742.895 499.621 738.582C512.206 728.987 523.823 716.993 537.376 707.398C550.929 697.803 550.445 697.323 557.706 693.006L578.52 679.573L600.302 667.579L610.951 661.823C614.046 659.477 616.813 656.734 619.18 653.667C621.454 650.584 622.797 646.924 623.053 643.113C623.747 639.467 623.747 635.725 623.053 632.079C620.338 624.475 616.416 617.349 611.435 610.97C601.27 598.017 589.653 586.503 578.52 574.509C567.037 562.454 556.819 549.274 548.025 535.171C543.727 527.997 541.082 519.969 540.28 511.663C540.015 507.51 540.015 503.344 540.28 499.19C540.028 495.196 540.028 491.191 540.28 487.197C541.045 471.057 539.415 454.893 535.44 439.223C531.927 423.377 523.856 408.881 512.206 397.485C506.476 391.618 499.544 387.038 491.876 384.053H486.067H480.259C476.241 383.551 472.176 383.551 468.158 384.053C452.076 385.893 435.835 385.893 419.753 384.053L411.04 389.809C407.429 391.016 403.518 391.016 399.907 389.809C396.38 388.73 393.424 386.317 391.678 383.093C390.267 379.876 389.29 376.488 388.774 373.018C388.774 369.18 388.774 365.822 388.774 362.464C388.514 358.95 388.514 355.423 388.774 351.909C388.532 348.555 388.532 345.189 388.774 341.835C388.271 338.335 388.271 334.781 388.774 331.281C389.518 327.863 390.488 324.497 391.678 321.206V316.409L395.066 312.091C397.238 309.458 399.671 307.047 402.328 304.895C404.787 302.522 407.373 300.28 410.072 298.178L427.014 285.225C432.574 281.03 437.906 276.546 442.987 271.793C439.115 264.117 433.791 257.4 430.402 249.245C429.909 247.195 429.909 245.059 430.402 243.008C430.912 240.828 431.726 238.728 432.822 236.772C434.303 232.652 436.082 228.643 438.147 224.778C438.147 220.94 442.987 217.582 444.923 213.744L452.184 202.71C453.511 200.975 455.306 199.65 457.363 198.886C459.419 198.121 461.651 197.95 463.801 198.392H476.87L503.009 202.23L515.594 204.629C520.041 205.129 524.422 206.093 528.664 207.507L541.249 210.866L553.35 215.663L564.967 221.9L588.685 229.096ZM588.685 229.096L578.036 221.42L566.419 215.183C562.466 213.533 558.426 212.091 554.318 210.866C549.962 210.866 545.605 210.866 541.732 207.028L528.664 204.15H515.594L489.94 200.312H476.87C474.792 199.907 472.642 200.099 470.67 200.863C468.698 201.628 466.987 202.934 465.738 204.629C463.198 208.13 460.932 211.819 458.961 215.663C456.541 219.501 454.12 222.859 452.184 226.697C449.864 230.332 447.919 234.19 446.376 238.211C446.229 240.287 446.229 242.371 446.376 244.448C446.152 246.521 446.152 248.611 446.376 250.684C450.248 258.36 455.572 265.076 459.445 273.232C454.12 277.549 449.28 282.347 443.471 286.664L427.014 299.138L419.269 306.334C416.612 308.486 414.18 310.897 412.008 313.531L409.104 317.848V322.166C407.85 325.436 406.879 328.807 406.2 332.24C405.723 335.582 405.723 338.973 406.2 342.315V349.991C406.438 353.505 406.438 357.031 406.2 360.545V370.619C405.49 373.779 405.49 377.055 406.2 380.215C406.912 381.78 407.983 383.158 409.328 384.241C410.672 385.323 412.253 386.08 413.944 386.451C416.9 387.601 420.185 387.601 423.141 386.451L431.854 380.694C447.936 382.534 464.178 382.534 480.259 380.694C484.44 380.214 488.663 380.214 492.844 380.694H499.137H504.945C512.759 383.672 519.852 388.249 525.76 394.127C537.666 406.124 546.18 421.015 550.446 437.304C554.217 453.005 555.684 469.162 554.802 485.278C554.802 489.116 554.802 493.433 554.802 497.751C554.565 501.746 554.565 505.75 554.802 509.745C555.523 517.547 558.005 525.088 562.063 531.812C570.709 545.722 580.941 558.6 592.557 570.192C603.69 582.185 615.308 594.179 625.473 607.132C630.76 613.646 635.004 620.928 638.058 628.72C639.232 632.96 639.232 637.434 638.058 641.674C637.857 646.015 636.339 650.195 633.702 653.667C631.268 657.273 628.143 660.371 624.505 662.782C620.961 665.143 617.24 667.227 613.372 669.019L592.074 681.012L571.259 694.445C564.483 698.762 558.191 704.04 551.414 708.837C544.637 713.635 526.728 729.946 513.658 740.5C506.5 745.169 498.665 748.728 490.424 751.055C482.456 753.114 474.375 754.716 466.221 755.852C450.045 755.598 434.41 761.623 422.657 772.643C410.29 784.065 395.602 792.734 379.577 798.069C375.889 799.538 372.327 801.303 368.928 803.346L363.604 806.225L358.763 809.583H356.343L352.955 813.901C350.953 817.121 349.636 820.713 349.082 824.455C349.082 839.807 351.986 856.118 349.082 872.429C349.089 872.789 349.015 873.146 348.864 873.473C348.714 873.8 348.491 874.09 348.212 874.321C347.933 874.551 347.605 874.716 347.253 874.804C346.901 874.892 346.534 874.9 346.178 874.828L330.204 853.24C325.364 846.044 320.04 838.847 315.199 831.171C310.066 823.943 305.378 816.413 301.162 808.623C301.162 804.306 296.805 800.468 294.869 796.15L290.028 783.677C287.124 775.521 284.704 766.406 282.284 758.25C280.146 749.806 277.562 741.479 274.539 733.304L265.826 708.358L256.145 683.411C253.241 675.255 249.853 667.099 246.948 658.464C244.049 649.799 242.578 640.728 242.592 631.599C243.695 613.52 247.614 595.719 254.209 578.828L263.89 554.36C266.823 546.239 269.089 537.897 270.667 529.414C271.634 520.966 271.634 512.436 270.667 503.988C269.199 495.529 267.096 487.19 264.374 479.041C263.895 478.331 263.64 477.496 263.64 476.642C263.64 475.788 263.895 474.954 264.374 474.244C275.023 471.365 286.156 468.966 296.321 465.128C304.019 464.173 311.075 460.391 316.094 454.528C321.113 448.665 323.73 441.149 323.428 433.466C323.635 430.911 323.635 428.344 323.428 425.79V421.472C323.428 421.472 323.428 421.472 323.428 418.593C319.071 408.519 314.231 397.965 310.358 387.41C308.557 381.778 307.261 375.998 306.486 370.14C305.781 366.818 305.781 363.387 306.486 360.066C307.315 358.217 308.586 356.595 310.188 355.342C311.791 354.088 313.676 353.239 315.683 352.869C321.963 352.204 328.309 353.197 334.077 355.747L350.534 361.024L366.024 365.822H374.253H381.513C382.91 366.382 384.473 366.382 385.87 365.822V349.991C385.87 338.477 385.87 327.443 385.87 316.409C385.87 305.375 389.258 293.861 390.226 282.827L393.131 266.515C393.131 260.758 393.13 255.482 396.518 249.725C399.907 243.968 406.684 229.096 411.04 219.021C413.081 214.312 414.23 209.271 414.429 204.15C414.464 199.325 412.937 194.616 410.072 190.716C406.475 186.875 402.41 183.491 397.971 180.642C392.674 176.861 388.765 171.471 386.838 165.29C384.155 153.929 384.155 142.109 386.838 130.748V123.073C387.073 121.643 387.073 120.185 386.838 118.755V115.877C384.861 111.163 381.694 107.032 377.641 103.883L370.864 100.045C369.107 98.9432 367.619 97.4687 366.508 95.7275C366.508 95.7275 366.508 95.7276 366.508 92.8491C366.168 92.2657 365.989 91.6042 365.989 90.9305C365.989 90.2568 366.168 89.5945 366.508 89.0111L393.131 73.1795L420.721 58.7871L448.796 46.3141L477.839 35.7598L507.849 26.6445L537.861 19.4487L568.355 14.1715C578.52 14.1715 588.685 11.2927 599.334 10.813H630.313H661.292H692.271C702.436 10.813 712.601 10.8135 722.766 15.1312C732.931 19.4489 743.096 18.4892 753.261 20.8879L783.272 28.5639L812.799 38.1586L841.842 49.6727C834.387 53.9234 826.62 57.6116 818.607 60.7065C810.669 64.1517 802.103 65.9478 793.437 65.9837C784.614 65.5476 775.935 63.6 767.783 60.227L756.165 55.9088H750.357H744.064C735.824 56.1384 727.666 57.5945 719.862 60.227C711.778 62.1236 704.497 66.486 699.047 72.7001C697.141 76.1573 696.142 80.0341 696.142 83.974C696.142 87.914 697.141 91.7907 699.047 95.248C702.716 102.58 707.628 109.233 713.569 114.918C719.686 120.929 725.198 127.516 730.026 134.586C733.974 142.075 737.529 149.762 740.675 157.615C744.288 165.102 749.588 171.667 756.165 176.804C762.596 182.147 769.571 186.809 776.979 190.716C792.71 197.664 808.879 203.593 825.384 208.467C841.89 213.541 856.863 222.609 868.948 234.853C871.814 238.157 873.809 242.112 874.757 246.366C875.733 250.63 875.733 255.056 874.757 259.32C872.064 267.495 867.414 274.902 861.203 280.908C855.682 287.415 849.52 293.361 842.809 298.658C836.515 304.281 829.317 308.822 821.512 312.091C813.202 314.943 804.166 314.943 795.857 312.091C787.901 309.154 780.405 305.116 773.591 300.098C759.974 290.057 745.184 281.681 729.543 275.151C713.733 268.535 697.575 262.77 681.138 257.88L668.553 255.002H655.967C651.996 254.007 647.837 254.007 643.866 255.002C639.927 256.778 636.324 259.212 633.217 262.198L623.053 269.394L612.887 277.07C609.932 280.122 606.28 282.426 602.238 283.786C601.341 284.249 600.345 284.49 599.334 284.49C598.323 284.49 597.327 284.249 596.43 283.786V280.908V278.029C595.454 269.582 595.454 261.051 596.43 252.603C596.982 248.361 596.574 244.049 595.234 239.983C593.894 235.917 591.657 232.197 588.685 229.096Z" fill="#078037"/>
<path d="M1078.06 737.623C1068.86 727.069 1059.66 701.163 1040.79 707.879C1037.88 707.879 1031.59 707.879 1029.65 707.879H1024.33C1023.47 708.735 1022.46 709.414 1021.33 709.878C1020.21 710.342 1019.01 710.58 1017.79 710.58C1016.58 710.58 1015.38 710.342 1014.26 709.878C1013.13 709.414 1012.11 708.735 1011.26 707.879C1004.48 694.447 1000.13 681.494 994.802 668.061C989.478 654.628 961.887 668.061 951.238 668.061C950.061 668.735 948.726 669.089 947.367 669.089C946.007 669.089 944.671 668.735 943.493 668.061C928.488 652.709 900.897 616.248 880.083 642.154C873.544 651.38 863.658 657.742 852.493 659.905C836.556 663.028 820.332 664.475 804.089 664.223C784.243 664.223 768.753 720.352 792.955 724.67C804.254 725.971 814.973 730.331 823.938 737.27C832.903 744.209 839.768 753.46 843.78 764.009C850.073 785.118 863.626 821.098 853.461 842.207C852.086 845.305 850.091 848.094 847.594 850.403C845.098 852.712 842.152 854.494 838.939 855.639C816.189 862.356 797.311 870.992 790.535 895.938C789.85 908.122 786.297 919.978 780.162 930.557C774.026 941.137 765.477 950.146 755.199 956.865C734.953 974.382 710.115 985.859 683.561 989.967C665.35 992.019 647.366 995.713 629.832 1001C722.524 1004.7 814.43 982.789 895.288 937.722C976.147 892.654 1042.78 826.2 1087.74 745.779C1083.86 743.925 1080.53 741.118 1078.06 737.623Z" fill="#73B635"/>
<path d="M1078.06 737.624C1072.32 728.911 1066.01 720.578 1059.18 712.677C1057.23 710.804 1054.93 709.336 1052.4 708.36H1048.53H1044.66C1042.24 708.36 1039.82 708.36 1036.91 708.36C1035.55 708.762 1034.09 708.696 1032.78 708.174C1031.46 707.651 1030.36 706.703 1029.65 705.481C1029.65 705.481 1026.26 705.481 1024.33 705.481C1022.96 707.143 1021.12 708.355 1019.05 708.955C1016.97 709.555 1014.76 709.514 1012.71 708.839C1010.79 707.73 1009.26 706.053 1008.35 704.042L1005.93 698.765L1000.61 687.251L996.253 675.737C994.847 671.816 993.231 667.973 991.412 664.224C990.267 662.635 988.733 661.362 986.955 660.522C985.177 659.683 983.213 659.306 981.247 659.426C972.99 659.85 964.913 661.974 957.53 665.663H951.721C949.655 666.171 947.495 666.171 945.428 665.663C943.164 665.229 941.116 664.044 939.62 662.304L935.747 657.987C930.143 651.869 924.162 646.101 917.838 640.716C911.938 635.11 904.551 631.283 896.539 629.682C894.632 629.215 892.638 629.215 890.731 629.682C888.765 629.973 886.921 630.805 885.406 632.081H882.986L878.63 636.398L874.757 641.196L869.433 645.033C865.959 647.55 862.008 649.345 857.816 650.311L852.007 652.709H845.715H833.129H808.443C804.59 652.428 800.775 653.631 797.794 656.068C794.866 658.487 792.406 661.412 790.533 664.703C786.251 671.5 783.755 679.252 783.273 687.251C782.337 690.818 782.382 694.568 783.403 698.111C784.425 701.655 786.385 704.862 789.081 707.4C792.54 709.217 796.32 710.358 800.215 710.759C804.392 711.768 808.448 713.215 812.316 715.076C820.447 718.214 827.855 722.946 834.098 728.988C839.992 735.519 844.444 743.199 847.167 751.536L854.911 775.044C860.398 791.431 861.565 808.936 858.3 825.896C857.923 828.115 857.1 830.236 855.88 832.133C854.933 834.259 853.623 836.206 852.007 837.89C848.989 841.64 844.962 844.467 840.391 846.045C832.707 848.413 825.254 851.464 818.124 855.16C811.125 858.36 805.232 863.532 801.182 870.032L798.763 875.31C798.49 877.058 798.49 878.838 798.763 880.587C797.51 884.349 796.539 888.197 795.858 892.101C794.336 900.492 791.902 908.696 788.597 916.567C784.794 924.48 779.351 931.509 772.624 937.197C769.63 940.323 766.394 943.21 762.943 945.832L752.778 953.028C749.592 955.696 746.192 958.102 742.613 960.224L731.48 966.461C727.802 968.612 723.908 970.381 719.863 971.738L707.762 976.056C699.476 978.272 691.073 980.034 682.591 981.333C666.204 983.365 650.014 986.734 634.186 991.407V984.211H668.554L702.921 981.812L736.805 977.974L770.688 971.258L803.603 962.623C814.736 958.785 825.385 955.426 836.034 951.109C846.683 946.791 857.332 942.953 867.981 938.156L898.476 922.804C908.641 917.047 918.805 911.291 928.002 905.054C937.199 898.817 947.364 892.58 956.561 885.864C965.758 879.148 974.955 871.952 983.184 864.276C991.413 856.6 1000.61 849.404 1008.35 841.248C1016.1 833.093 1024.81 824.937 1032.07 816.302C1039.33 807.666 1047.08 798.551 1053.85 789.436C1060.63 780.321 1067.41 771.206 1073.7 761.611L1091.61 732.347L1086.29 729.468L1078.06 737.624ZM1078.06 737.624L1082.41 741.462L1087.74 744.34L1069.83 773.605L1050.47 801.909C1043.69 811.024 1035.95 819.659 1028.68 828.775C1021.42 837.89 1013.19 845.566 1005.45 853.721L980.28 877.229L953.656 899.297L925.582 918.966C915.901 925.683 906.22 930.96 896.055 937.197C885.89 943.433 875.725 947.751 865.56 953.028C855.395 958.305 844.263 962.623 834.098 966.94L801.182 978.934L767.784 988.529L733.9 995.725L699.533 1000.52L664.681 1002.92H629.83C628.931 1002.92 628.069 1002.57 627.434 1001.94C626.799 1001.31 626.441 1000.45 626.441 999.562C626.41 998.816 626.632 998.08 627.07 997.472C627.508 996.863 628.139 996.418 628.862 996.205C644.678 991.488 660.872 988.118 677.266 986.13L700.985 980.853L712.602 976.535L723.251 971.738L733.9 965.981L743.581 958.785L753.746 951.588L762.943 943.433C768.694 938.246 773.45 932.07 776.98 925.203C780.033 917.944 782.304 910.386 783.756 902.655C785.728 893.839 789.163 885.409 793.922 877.708C798.938 870.243 805.761 864.14 813.768 859.958C821.324 856.092 829.275 853.037 837.486 850.843C840.663 849.621 843.489 847.644 845.715 845.086L849.103 840.289C849.103 840.289 849.103 836.93 849.103 835.011C852.303 819.006 851.134 802.444 845.715 787.037C845.715 779.361 840.874 771.685 838.454 763.53C836.444 756.019 832.624 749.104 827.321 743.381C821.942 737.546 815.331 732.96 807.959 729.948C804.189 728.383 800.306 727.1 796.342 726.11H790.533C788.191 725.356 785.923 724.392 783.756 723.232C779.863 720.314 777.261 716.016 776.496 711.238C775.774 706.95 775.774 702.573 776.496 698.285C777.469 689.796 780.276 681.615 784.725 674.298C786.945 670.413 789.904 666.992 793.438 664.224C795.28 662.791 797.435 661.805 799.73 661.345H830.709H843.295H849.103H854.911C862.741 658.952 869.659 654.27 874.757 647.912L879.114 643.594V641.196H881.534C883.627 641 885.734 641 887.827 641.196C889.918 640.958 892.029 640.958 894.12 641.196C902.571 642.64 910.356 646.665 916.385 652.709C922.678 658.466 928.486 664.223 934.295 670.46L938.168 675.257C939.475 676.651 941.152 677.648 943.007 678.136C946.88 678.136 950.753 678.136 954.625 674.778C962.162 671.038 970.408 668.913 978.828 668.541C981.052 668.279 983.304 668.688 985.291 669.715C987.277 670.742 988.904 672.339 989.96 674.298C991.621 677.891 993.077 681.576 994.318 685.332C995.637 689.441 997.253 693.449 999.157 697.326L1004 708.36L1006.42 714.116C1007.17 715.953 1008.54 717.478 1010.29 718.434C1012.23 719.061 1014.31 719.123 1016.28 718.613C1018.26 718.103 1020.04 717.042 1021.42 715.556H1027.23C1027.23 717.954 1031.59 718.434 1034.01 717.954H1041.75H1045.63H1049.5C1052.03 718.931 1054.33 720.399 1056.28 722.272C1063.81 727.001 1071.08 732.126 1078.06 737.624Z" fill="#078037"/>
<path d="M1100.81 288.104H1091.13C1054.82 300.097 1075.15 342.794 1077.57 368.7C1077.57 383.092 1075.15 416.674 1086.77 429.147C1098.39 441.62 1123.56 456.973 1106.62 473.284C1089.67 489.595 1053.86 499.669 1030.62 518.379L1020.94 527.494C1016.58 532.292 1011.74 536.609 1020.94 540.927C1027.76 544.02 1035.22 545.499 1042.72 545.245C1054.34 545.245 1065.96 545.245 1077.57 545.245C1078.58 545.225 1079.59 545.43 1080.51 545.845C1081.43 546.26 1082.25 546.875 1082.9 547.643C1086.77 547.643 1089.19 547.643 1088.22 553.88C1082.41 574.029 1113.39 580.266 1104.68 601.854C1101.85 607.359 1098.61 612.651 1095 617.686C1093.72 623.368 1092.91 629.144 1092.58 634.957C1093.84 637.285 1095.47 639.393 1097.42 641.193C1110 644.072 1123.07 649.828 1124.04 663.261C1124.54 665.311 1124.54 667.448 1124.04 669.498C1145.91 607.58 1155.11 541.967 1151.12 476.485C1147.14 411.003 1130.03 346.964 1100.81 288.104Z" fill="#73B635"/>
<path d="M1100.81 288.104C1092.51 289.421 1084.78 293.085 1078.54 298.657C1075.84 301.642 1073.76 305.131 1072.43 308.92C1071.1 312.709 1070.55 316.722 1070.8 320.726C1072.65 336.855 1075.4 352.87 1079.03 368.7C1079.5 377.009 1079.5 385.338 1079.03 393.647C1079.22 401.874 1080.19 410.066 1081.93 418.113C1083.01 421.645 1084.82 424.914 1087.26 427.708L1096.94 435.863C1103.92 441.502 1109.4 448.749 1112.91 456.972C1113.98 459.138 1114.53 461.517 1114.53 463.928C1114.53 466.34 1113.98 468.719 1112.91 470.885C1111.57 473.011 1109.94 474.948 1108.07 476.642L1103.23 480.959C1096.63 486.308 1089.49 490.97 1081.93 494.872L1059.18 506.385C1051.73 509.728 1044.6 513.743 1037.88 518.379L1033.04 522.217L1028.69 526.055C1025.54 528.689 1022.63 531.577 1019.97 534.691H1025.78H1031.59C1039.65 535.17 1047.73 535.17 1055.79 534.691H1077.09H1079.51L1083.87 537.089H1080.96C1082.4 537.086 1083.81 537.435 1085.08 538.105C1086.35 538.774 1087.43 539.744 1088.22 540.927C1088.9 542.094 1089.26 543.417 1089.26 544.765C1089.26 546.112 1088.9 547.436 1088.22 548.603C1088.22 548.603 1088.22 551.961 1088.22 552.92C1088 553.452 1087.88 554.023 1087.88 554.6C1087.88 555.176 1088 555.748 1088.22 556.279C1091.15 561.897 1095.09 566.937 1099.84 571.151C1102.16 574.276 1104.11 577.657 1105.65 581.226C1106.13 583.278 1106.13 585.41 1105.65 587.462C1105.92 589.532 1105.92 591.628 1105.65 593.699V596.098L1103.23 600.415L1097.42 609.05V625.362V628.24L1099.84 631.118L1110.97 634.476L1116.3 637.355L1121.14 640.713C1122.72 642.19 1124.18 643.795 1125.5 645.511C1125.5 645.511 1125.5 645.511 1125.5 648.389C1125.5 651.268 1125.5 648.389 1125.5 651.268V654.626V659.903H1118.23L1125.5 636.396L1132.27 612.888L1137.6 589.381C1137.6 581.226 1140.02 573.07 1141.47 565.394L1144.37 540.927C1144.37 532.771 1144.37 524.616 1144.37 516.94C1144.37 509.264 1144.37 500.629 1144.37 492.473C1144.37 484.318 1144.37 476.162 1144.37 468.007C1144.37 459.851 1144.37 451.695 1144.37 443.539L1141.47 419.073L1137.11 395.086L1131.79 371.099L1125.5 347.591L1117.75 324.084L1109.04 301.536L1100.81 288.104ZM1100.81 288.104L1111.94 310.171L1121.14 332.719L1129.85 355.747L1137.11 379.734L1143.4 403.241L1147.76 427.708C1147.76 435.863 1150.67 444.019 1151.63 452.175C1152.6 460.331 1151.63 468.486 1151.63 476.642V501.588C1151.63 509.744 1151.63 517.899 1151.63 526.055C1151.63 534.211 1151.63 542.366 1151.63 551.002L1148.73 575.468C1148.73 583.624 1146.31 591.78 1144.86 599.936L1139.53 623.923L1132.76 647.91L1125.5 671.417C1125.08 672.299 1124.38 673.016 1123.5 673.452C1122.62 673.887 1121.62 674.015 1120.65 673.815C1119.8 673.598 1119.05 673.099 1118.52 672.402C1117.99 671.704 1117.72 670.849 1117.75 669.977V663.741V660.383L1114.85 657.504L1110.97 654.626L1106.62 652.227L1096.45 649.349L1093.55 645.99C1092.42 644.667 1091.44 643.218 1090.64 641.673V624.402L1096.45 615.766L1098.87 611.449C1098.87 611.449 1098.87 609.05 1098.87 607.611C1099.11 606.504 1099.11 605.36 1098.87 604.253C1097.78 601.656 1096.31 599.231 1094.52 597.056C1089.19 592.199 1084.91 586.324 1081.93 579.786C1081.49 577.73 1081.49 575.605 1081.93 573.55C1081.93 570.671 1081.93 569.231 1081.93 567.792H1079.51H1046.6H1033.04H1026.26L1020.46 565.394H1016.58C1015.88 563.539 1015.88 561.492 1016.58 559.637C1017.17 558.231 1017.98 556.933 1019 555.799C1021.82 552.525 1024.9 549.477 1028.2 546.684C1029.88 545.129 1031.66 543.686 1033.53 542.366L1038.37 538.528C1045.68 533.905 1053.28 529.74 1061.12 526.055L1083.38 515.021C1090.83 511.558 1097.82 507.208 1104.2 502.068L1109.04 498.23C1109.04 498.23 1111.94 495.352 1112.42 493.912C1113.15 492.416 1113.53 490.776 1113.53 489.115C1113.53 487.453 1113.15 485.814 1112.42 484.318C1109.23 476.98 1104.24 470.548 1097.9 465.608L1088.71 457.452C1085.58 453.891 1083.41 449.598 1082.41 444.978C1080.63 436.623 1079.81 428.092 1079.99 419.552C1079.99 411.397 1079.99 403.241 1079.99 395.086C1076.8 379.238 1074.54 363.22 1073.22 347.112C1073.11 342.858 1073.87 338.626 1075.45 334.669C1077.03 330.713 1079.4 327.113 1082.41 324.084C1082.66 317.123 1084.43 310.298 1087.61 304.084C1090.79 297.871 1095.29 292.418 1100.81 288.104Z" fill="#078037"/>
<path d="M1039.82 452.176C1042.5 442.664 1043.49 432.76 1042.72 422.911C1042.72 422.911 1042.72 420.032 1042.72 418.593C1044.9 411.609 1045.89 404.312 1045.63 397.005C1045.63 385.491 1029.65 383.093 1021.91 389.33C1007.64 398.996 995.458 411.392 986.088 425.79C982.165 430.548 979.421 436.15 978.076 442.148C976.731 448.147 976.823 454.374 978.343 460.331C983.668 471.365 1001.58 473.284 1012.23 473.764C1018.43 473.175 1024.34 470.824 1029.23 466.996C1034.12 463.167 1037.8 458.022 1039.82 452.176Z" fill="#73B635"/>
<path d="M1039.82 452.175C1039.82 447.378 1039.82 442.58 1042.24 437.783V422.911C1042.24 418.114 1042.24 413.796 1042.24 409.478C1042.96 405.19 1042.96 400.813 1042.24 396.525C1042.24 396.525 1042.24 394.126 1042.24 393.167H1039.82H1036.91C1033.03 392.484 1029.03 393.346 1025.78 395.565L1020.94 399.403L1015.61 403.721L1005.93 412.836L997.221 422.911C994.527 426.236 992.098 429.765 989.96 433.465C987.491 437.093 985.385 440.948 983.668 444.979C981.74 448.687 980.742 452.801 980.763 456.972C980.568 458.907 980.815 460.86 981.485 462.687C982.155 464.514 983.233 466.168 984.636 467.527C987.631 470.42 991.283 472.559 995.285 473.764C999.679 475.226 1004.23 476.192 1008.84 476.642C1013.11 477.83 1017.63 477.83 1021.91 476.642C1026 474.872 1029.76 472.441 1033.04 469.446C1035.34 467.207 1037.13 464.51 1038.3 461.532C1039.47 458.555 1039.99 455.366 1039.82 452.175ZM1039.82 452.175C1038.63 456.542 1036.29 460.516 1033.04 463.689C1029.79 466.972 1026.03 469.724 1021.91 471.844C1017.59 474.05 1012.69 474.888 1007.87 474.243H993.833C988.917 473.291 984.38 470.96 980.763 467.527C978.711 465.915 977.042 463.876 975.872 461.556C974.701 459.235 974.057 456.688 973.987 454.094C972.814 449.205 972.814 444.111 973.987 439.222C975.629 434.936 977.569 430.768 979.795 426.749L988.024 414.756C990.929 411.397 994.317 408.039 997.221 404.201L1008.35 395.086C1012.06 392.143 1015.94 389.42 1019.97 386.93C1024.95 385.004 1030.48 385.004 1035.46 386.93H1038.85C1040.16 387.447 1041.32 388.27 1042.24 389.329C1043.15 390.539 1043.96 391.822 1044.66 393.167C1044.89 394.274 1044.89 395.418 1044.66 396.525C1045.42 401.132 1045.42 405.83 1044.66 410.437C1044.66 415.235 1041.75 419.552 1041.27 423.87V438.743L1039.82 452.175Z" fill="#078037"/>
<path d="M518.016 291.463C517.601 288.469 516.527 285.602 514.87 283.065C513.213 280.527 511.014 278.382 508.428 276.78C505.842 275.178 502.932 274.159 499.905 273.795C496.878 273.431 493.807 273.73 490.91 274.672C490.382 274.417 489.802 274.285 489.215 274.285C488.628 274.285 488.049 274.417 487.521 274.672C485.224 276.542 483.54 279.047 482.681 281.868C480.419 284.937 478.894 288.477 478.223 292.219C477.552 295.96 477.752 299.804 478.809 303.457C482.197 313.531 498.654 316.89 507.851 314.011C511.773 311.843 514.882 308.475 516.714 304.411C518.546 300.347 519.003 295.805 518.016 291.463Z" fill="#73B635"/>
<path d="M518.015 291.463V287.145C517.498 285.707 516.672 284.398 515.595 283.307L512.69 279.949L509.302 277.07H504.945H496.717H492.844C492.705 278.025 492.705 278.994 492.844 279.949V283.307C491.065 286.118 489.757 289.197 488.972 292.422C488.482 295.119 488.482 297.881 488.972 300.578C488.972 300.578 488.972 300.578 488.972 302.977H491.876H496.233C499.583 303.69 503.047 303.69 506.398 302.977H509.302L513.174 300.578V298.179C513.367 296.586 513.367 294.976 513.174 293.382C514.866 292.956 516.494 292.311 518.015 291.463ZM518.015 291.463C518.288 293.211 518.288 294.991 518.015 296.74C518.015 296.74 518.015 300.098 518.015 302.017C518.233 303.77 518.233 305.542 518.015 307.294C517.404 308.983 516.591 310.594 515.595 312.092C514.267 313.649 512.81 315.094 511.238 316.409H508.334C504.498 317.147 500.553 317.147 496.717 316.409H490.908C488.799 315.842 486.823 314.863 485.099 313.531C485.099 313.531 481.227 310.652 479.775 309.213C478.576 304.977 478.576 300.496 479.775 296.26C481.257 292.605 483.038 289.075 485.099 285.706V280.908L488.972 277.551C490.217 277.069 491.599 277.069 492.844 277.551H497.685H502.525H507.366L511.238 279.949C512.6 280.811 513.756 281.957 514.626 283.307L517.53 286.665V290.983L518.015 291.463Z" fill="#078037"/>
<g style="mix-blend-mode:screen" opacity="0.4">
<path d="M476.388 195.994C516.098 197.1 554.82 208.514 588.686 229.097C598.851 238.212 595.463 254.523 595.947 266.516C595.947 302.977 616.277 275.631 629.346 266.516C642.416 257.401 643.868 250.685 660.325 252.125C676.961 253.478 693.287 257.361 708.73 263.638C729.238 269.925 748.781 278.964 766.815 290.503C795.374 310.173 815.22 323.606 846.683 295.301C862.656 281.389 895.088 253.084 869.917 229.577C853.158 215.237 833.009 205.334 811.348 200.792C790.369 195.035 771.105 184.337 755.198 169.609C742.613 157.616 741.16 137.466 728.575 121.635C717.446 112.129 708.529 100.344 702.437 87.0935C694.692 58.309 730.512 50.1532 750.842 48.714C759.295 49.2492 767.54 51.5373 775.044 55.4303C785.396 59.7689 796.69 61.4285 807.867 60.2537C819.043 59.0788 829.735 55.1081 838.938 48.714L847.167 44.3965C823.779 34.4613 799.67 26.2822 775.044 19.9292C766.416 28.774 755.271 34.7992 743.097 37.1999C718.41 40.0784 630.798 31.9227 655.485 76.0589C680.171 120.195 673.878 124.033 629.83 134.587C603.686 144.933 576.835 153.43 549.478 160.014C540.486 159.667 531.77 156.843 524.308 151.858C514.678 144.41 503.613 138.993 491.792 135.94C479.972 132.888 467.646 132.264 455.573 134.108C446.376 134.108 432.823 134.108 427.498 125.952C414.429 103.405 416.85 77.9779 399.424 69.3425L374.738 84.6946C375.289 86.3009 376.179 87.7731 377.347 89.0136C378.515 90.2541 379.935 91.2343 381.514 91.8904L388.775 96.2087C392.648 100.047 398.94 105.803 398.94 112.04C398.94 131.229 382.967 160.014 405.233 172.967C411.307 176.362 416.328 181.339 419.754 187.359C429.919 208.468 406.684 229.576 403.296 249.246C395.494 286.966 391.763 325.401 392.163 363.904C391.922 366.406 390.745 368.729 388.865 370.415C386.984 372.102 384.535 373.03 381.999 373.019H377.642C383.681 379.545 391.281 384.459 399.74 387.31C408.199 390.16 417.245 390.855 426.046 389.331C442.255 387.617 458.641 388.754 474.451 392.689C506.882 404.682 507.367 444.98 508.335 474.245C509.303 503.509 480.744 510.705 459.93 515.023C423.143 523.658 450.733 598.018 436.695 625.364C434.912 628.937 432.399 632.103 429.316 634.663C426.233 637.223 422.647 639.121 418.786 640.236C388.775 645.033 382.966 661.824 370.381 683.892C366.187 689.627 360.316 693.946 353.562 696.263C346.808 698.58 339.5 698.783 332.626 696.845C319.072 691.568 324.397 663.743 325.365 653.668C328.097 639.769 328.91 625.567 327.785 611.451C323.429 586.504 290.998 609.052 276.961 614.329C273.572 614.329 267.763 614.33 265.827 611.931C262.736 604.849 258.663 598.228 253.726 592.261C245.03 613.827 244.006 637.685 250.822 659.905C263.407 696.365 278.897 729.467 288.094 767.367C300.7 806.494 321.111 842.712 348.115 873.869C351.503 852.281 338.919 823.017 356.344 807.185C373.77 791.354 407.169 788.476 426.531 765.448C436.488 756.845 449.146 751.928 462.35 751.535C484.184 750.95 505.241 743.376 522.372 729.947C551.293 703.026 583.88 680.256 619.181 662.303C690.336 625.843 546.574 554.841 554.319 502.07C560.128 459.852 554.319 401.324 510.271 379.256C486.552 367.262 458.962 379.256 433.307 375.897C430.874 378.243 427.995 380.088 424.838 381.323C421.681 382.558 418.307 383.16 414.913 383.094C403.296 383.094 403.78 365.823 402.812 356.229C400.479 347.418 400.137 338.207 401.811 329.25C403.484 320.294 407.132 311.814 412.493 304.416C426.53 289.544 444.441 280.429 458.478 266.037C454.122 256.922 442.504 242.529 444.44 235.813C449.568 222.376 456.399 209.641 464.77 197.914C466.381 196.64 468.294 195.795 470.327 195.459C472.36 195.123 474.447 195.307 476.388 195.994ZM718.411 170.089H723.735C739.225 174.886 748.422 192.157 756.166 204.63C759.071 208.948 756.166 212.785 751.326 214.704C732.112 222.836 711.078 225.814 690.336 223.34C676.299 223.34 647.74 223.34 641.931 206.069C627.894 176.805 697.113 147.541 716.959 170.089H718.411Z" fill="#B6CD2E"/>
<path d="M1078.06 737.623C1068.86 727.069 1059.66 701.163 1040.79 707.879C1037.88 707.879 1031.59 707.879 1029.65 707.879H1024.33C1023.47 708.735 1022.45 709.414 1021.33 709.878C1020.21 710.341 1019.01 710.58 1017.79 710.58C1016.58 710.58 1015.38 710.341 1014.25 709.878C1013.13 709.414 1012.11 708.735 1011.26 707.879C1004.48 694.446 1000.13 681.493 994.801 668.061C993.88 665.66 992.176 663.634 989.96 662.303C989.96 669.02 985.12 675.256 982.7 681.973C970.598 711.237 988.024 716.035 1004.97 734.745C1021.91 753.455 1004.97 762.57 996.253 772.164C967.694 807.186 939.135 836.45 891.699 820.139C890.329 819.335 889.319 818.046 888.87 816.533C888.421 815.019 888.567 813.394 889.279 811.983C898.476 791.354 918.322 776.002 927.035 755.373C941.072 721.312 896.056 737.623 883.471 735.224C876.762 734.119 870.363 731.626 864.692 727.906C859.021 724.186 854.204 719.324 850.555 713.636C830.225 687.73 805.055 696.365 780.852 710.758C780.511 714.528 781.544 718.294 783.764 721.375C785.984 724.455 789.244 726.646 792.953 727.548C804.252 728.849 814.972 733.209 823.937 740.148C832.902 747.087 839.767 756.338 843.778 766.887C850.071 787.996 863.624 823.977 853.459 845.085C852.085 848.184 850.089 850.972 847.593 853.281C845.096 855.59 842.151 857.372 838.938 858.518C816.188 865.234 797.31 873.87 790.533 898.816C789.848 911 786.296 922.856 780.16 933.435C774.025 944.015 765.476 953.025 755.198 959.744C734.951 977.261 710.114 988.737 683.559 992.845C665.348 994.897 647.364 998.591 629.83 1003.88C722.523 1007.58 814.428 985.667 895.287 940.6C976.145 895.532 1042.78 829.078 1087.74 748.657C1083.47 746.02 1080.1 742.177 1078.06 737.623Z" fill="#B6CD2E"/>
<path d="M1120.17 332.722C1116.78 341.357 1112.42 350.472 1108.07 359.587C1087.74 399.406 1140.02 407.561 1138.56 442.582C1137.19 473.456 1124.85 502.855 1103.71 525.578C1095.12 532.829 1083.99 536.446 1072.73 535.652C1057.79 534.852 1042.95 538.53 1030.14 546.207C1034 546.669 1037.9 546.669 1041.75 546.207C1053.37 546.207 1064.99 546.207 1076.61 546.207C1077.62 546.187 1078.62 546.392 1079.54 546.808C1080.46 547.223 1081.28 547.837 1081.93 548.605C1085.8 548.605 1088.22 548.606 1087.25 554.842C1081.45 574.991 1112.43 581.228 1103.71 602.816C1100.88 608.321 1097.65 613.613 1094.03 618.648C1092.75 624.33 1091.94 630.106 1091.61 635.919C1092.87 638.248 1094.5 640.354 1096.45 642.155C1109.04 645.033 1122.11 650.791 1123.07 664.223C1123.57 666.273 1123.57 668.409 1123.07 670.459C1162.2 561.043 1161.17 441.461 1120.17 332.722Z" fill="#B6CD2E"/>
<path d="M1039.82 452.177C1042.5 442.666 1043.49 432.761 1042.72 422.913C1042.72 422.913 1042.72 420.034 1042.72 418.595C1044.9 411.611 1045.89 404.313 1045.63 397.006C1045.63 385.493 1029.65 383.095 1021.91 389.331C1007.64 398.998 995.458 411.394 986.088 425.791C982.165 430.549 979.421 436.152 978.076 442.15C976.731 448.148 976.823 454.376 978.343 460.333C983.668 471.367 1001.58 473.286 1012.23 473.765C1018.43 473.176 1024.34 470.826 1029.23 466.997C1034.12 463.168 1037.8 458.023 1039.82 452.177Z" fill="#B6CD2E"/>
<path d="M518.016 291.464C517.601 288.47 516.527 285.602 514.87 283.065C513.213 280.528 511.014 278.382 508.428 276.781C505.842 275.179 502.932 274.16 499.905 273.795C496.878 273.431 493.807 273.731 490.91 274.672C490.382 274.418 489.802 274.286 489.215 274.286C488.628 274.286 488.049 274.418 487.521 274.672C485.224 276.543 483.54 279.048 482.681 281.869C480.419 284.937 478.894 288.478 478.223 292.219C477.552 295.961 477.752 299.804 478.809 303.457C482.197 313.532 498.654 316.89 507.851 314.012C511.773 311.843 514.882 308.476 516.714 304.412C518.546 300.348 519.003 295.806 518.016 291.464Z" fill="#B6CD2E"/>
</g>
<path style="mix-blend-mode:screen" d="M1052.89 272.274C1038.24 204.497 997.636 144.993 939.621 106.283C851.777 40.2654 743.827 5.94425 633.627 8.99752C523.427 12.0508 417.581 52.2958 333.595 123.075C300.161 150.712 270.972 183.035 246.95 219.023C204.139 290.151 176.311 369.138 165.146 451.218C154.247 505.303 164.268 561.472 193.221 608.573C201.45 621.046 223.717 611.451 226.137 599.458C239.206 533.733 295.355 495.833 343.76 455.535C376.858 434.587 402.043 403.385 415.398 366.783C425.079 325.046 372.802 301.058 366.994 264.598C361.185 228.138 415.399 206.07 438.633 196.475C458.012 186.366 480.358 183.326 501.769 187.886C523.18 192.446 542.293 204.315 555.772 221.422C619.182 286.667 696.629 178.245 761.976 212.306C782.79 223.341 788.114 252.125 799.731 269.875C809.265 285.243 823.515 297.179 840.392 303.937C857.974 308.736 876.539 308.736 894.121 303.937C925.198 297.874 956.842 295.139 988.509 295.781C1009.81 294.822 1064.99 305.376 1052.89 272.274Z" fill="url(#paint1_radial_120_162)"/>
<g style="mix-blend-mode:overlay">
<path d="M562.064 18.9678C562.064 18.9678 159.337 98.1251 163.693 498.709C164.661 496.79 193.705 129.788 562.064 18.9678Z" fill="white"/>
</g>
<g style="mix-blend-mode:multiply" opacity="0.7">
<path d="M1142.44 512.625C1142.44 512.625 1071.28 873.87 781.337 969.818C781.337 969.818 1093.06 925.682 1142.44 512.625Z" fill="#22623D"/>
</g>
<g style="mix-blend-mode:multiply">
<path d="M1092.58 740.98L1087.74 749.136C1084.83 753.934 1080.96 761.609 1074.19 771.204C1056.54 799.204 1035.93 825.257 1012.71 848.922C928.747 934.75 816.698 988.15 696.629 999.561C658.079 1002.89 619.274 1001.93 580.942 996.682C539.853 990.882 499.677 979.92 461.382 964.06C420.839 947.356 382.613 925.592 347.631 899.295C329.673 885.774 312.69 871.026 296.806 855.159C288.407 847.317 280.487 838.987 273.088 830.212C265.828 821.576 258.082 812.942 251.306 803.827C193.196 727.792 158.109 636.944 150.14 541.887C141.537 444.184 162.151 346.133 209.409 259.966C256.666 173.799 328.477 103.329 415.882 57.3481C501.164 13.1735 597.337 -6.12257 693.24 1.69862C716.387 3.49914 739.363 7.02731 761.975 12.253C784.025 17.1231 805.7 23.5354 826.837 31.4424C907.253 61.4399 978.81 110.919 1034.98 175.365C1059.7 205.074 1081.27 237.226 1099.35 271.313C1130.09 331.081 1148.52 396.313 1153.57 463.21C1157.65 514.72 1153.4 566.546 1140.98 616.727C1133.49 648.789 1122.62 679.983 1108.55 709.797C1103.71 720.351 1099.35 728.027 1096.45 733.305L1092.58 740.98ZM1092.58 740.98L1096.94 732.824C1099.36 727.547 1103.71 719.872 1108.55 709.318C1122.2 679.386 1132.9 648.218 1140.5 616.248C1152.17 566.273 1155.76 514.78 1151.15 463.689C1142.64 369.821 1107.48 280.261 1049.75 205.377C992.008 130.492 914.052 73.3471 824.901 40.5576C804.135 32.6564 782.771 26.4002 761.007 21.8477C749.874 18.9692 738.741 17.53 727.608 15.1313C716.475 12.7326 704.857 11.773 693.724 11.2933C597.605 2.49688 500.989 21.763 415.782 66.718C330.575 111.673 260.499 180.353 214.19 264.294C167.881 348.235 147.362 443.769 155.161 539.126C162.96 634.483 198.736 725.495 258.082 800.948C264.859 810.063 272.604 818.698 279.865 827.334C287.126 835.969 294.87 844.124 303.099 851.321C318.212 866.948 334.385 881.534 351.503 894.977C427.697 951.534 518.447 985.634 613.322 993.357C708.196 1001.08 803.344 982.112 887.827 938.634C963.624 899.681 1027.86 841.806 1074.19 770.724C1080.48 761.13 1084.35 753.453 1087.74 748.656L1092.58 740.98Z" fill="#114B9B"/>
</g>
<path d="M280.833 311.133C262.923 291.464 240.657 308.255 218.391 302.978C205.322 299.619 183.54 299.619 174.827 288.585C166.115 277.551 164.178 271.794 154.497 269.396C145.383 266.505 135.533 266.892 126.679 270.49C117.825 274.088 110.535 280.665 106.092 289.065C78.6422 286.595 50.9728 289.696 24.7727 298.18C16.7593 301.474 10.1783 307.47 6.19257 315.107C2.20685 322.744 1.07301 331.531 2.99076 339.917C6.86313 369.181 43.1666 375.419 51.3954 402.764C64.9487 445.941 118.194 447.379 153.529 430.588C170.955 422.433 184.024 404.203 201.934 399.405C211.131 399.405 231.461 409.48 240.658 411.878C249.516 413.177 258.564 412.015 266.796 408.521C289.546 399.405 290.03 380.216 319.073 387.412C325.424 389.159 332.16 388.948 338.387 386.805C344.613 384.662 350.033 380.69 353.924 375.418C387.808 337.039 290.998 322.167 280.833 311.133Z" fill="white"/>
<path d="M280.349 311.612C277.412 308.641 273.971 306.206 270.184 304.416C266.346 303.69 262.405 303.69 258.567 304.416C250.28 305.063 242.037 306.184 233.88 307.774H220.811H208.226C199.499 307.296 190.874 305.683 182.571 302.977C180.136 302.249 177.844 301.113 175.795 299.618L169.986 294.821L162.242 285.226C159.935 282.968 157.329 281.032 154.497 279.469H149.657H143.848H134.167C132.399 279.253 130.61 279.253 128.842 279.469H124.486L120.13 281.868C120.13 281.868 117.225 281.868 116.257 285.226C113.779 287.812 111.662 290.717 109.964 293.862L107.06 297.7H102.704H82.3742H62.0443L41.7145 300.578H31.5492H26.2247C20.2599 302.993 15.2202 307.219 11.8287 312.648C8.4372 318.078 6.86832 324.433 7.34688 330.802C7.23732 337.297 8.73276 343.721 11.7031 349.512C15.2925 355.229 19.8821 360.265 25.2564 364.384C37.7057 372.161 48.017 382.874 55.2677 395.567L59.624 405.161C60.9624 408.031 62.5833 410.764 64.464 413.317C68.3489 418.332 73.3089 422.428 78.9855 425.311C90.7671 430.745 103.818 432.901 116.741 431.547C129.752 430.212 142.395 426.47 154.013 420.513C165.146 414.277 174.343 404.202 187.412 395.567L198.545 390.289H201.934H213.067H219.359H225.168L234.849 394.607L244.046 397.965H259.051H263.407H265.827C271.368 395.267 276.434 391.703 280.833 387.411C283.659 384.524 286.927 382.096 290.514 380.215C294.592 377.73 299.28 376.402 304.068 376.377C308.23 375.641 312.49 375.641 316.652 376.377H321.977H326.333C331.723 376.874 337.135 375.701 341.823 373.019C344.554 371.521 347.009 369.574 349.083 367.262L352.472 363.903C353.541 362.994 354.371 361.842 354.892 360.546C356.433 358.367 357.26 355.771 357.26 353.11C357.26 350.449 356.433 347.853 354.892 345.674C350.659 340.495 345.384 336.246 339.403 333.2C333.523 329.686 327.373 326.639 321.009 324.086L301.163 315.929C294.393 313.978 288.008 310.896 282.285 306.815L280.349 311.612ZM280.349 311.612C286.275 315.099 292.616 317.838 299.227 319.767L319.557 326.484L339.403 334.16C346.307 337.069 352.56 341.308 357.797 346.633C360.844 349.813 362.866 353.822 363.605 358.147C365.043 362.347 365.043 366.9 363.605 371.1C362.825 372.955 361.852 374.723 360.701 376.377C359.791 378.118 358.652 379.731 357.312 381.174C354.76 384.24 351.834 386.98 348.6 389.33C341.583 394.417 333.09 397.11 324.397 397.006C322.474 397.319 320.512 397.319 318.588 397.006H313.265H305.035C299.759 397.939 294.971 400.651 291.482 404.682C285.853 410.144 279.502 414.824 272.604 418.594C264.87 422.141 256.439 423.944 247.918 423.871C246.013 424.359 244.015 424.359 242.11 423.871H235.333L224.684 419.554L215.002 415.716H210.646H207.258C207.258 415.716 207.258 415.716 204.838 415.716H202.417C199.593 416.628 196.843 417.751 194.189 419.074L178.215 430.587L169.503 437.305L164.178 440.662L159.821 443.541C152.835 446.808 145.538 449.379 138.039 451.217C130.778 453.146 123.291 454.114 115.774 454.095C108.236 455.264 100.561 455.264 93.0233 454.095C85.532 452.515 78.3425 449.762 71.7251 445.94C65.2376 441.754 59.7792 436.18 55.7515 429.629C53.329 426.648 51.52 423.225 50.427 419.554L47.039 409.479C40.4529 397.616 31.1722 387.432 19.9318 379.735C14.121 375.229 9.1988 369.699 5.41101 363.424C1.73995 356.996 -0.100433 349.7 0.0864756 342.315C-0.390458 334.865 1.11144 327.422 4.44272 320.727C5.96215 317.074 8.27598 313.798 11.2193 311.132L16.0594 307.294C17.6622 307.035 19.2973 307.035 20.9001 307.294C21.8595 307.113 22.8448 307.113 23.8043 307.294H26.2247H31.5492L41.7145 303.936C48.4911 303.936 55.7512 301.057 63.0119 299.618L84.7946 296.74H106.577L99.3154 300.578C101.824 296.461 104.743 292.604 108.029 289.064C109.562 287.22 111.356 285.605 113.353 284.267C115.22 282.649 117.347 281.352 119.646 280.429L126.423 277.07H133.683H140.943H148.688H154.981H158.369H162.726C167.053 279.491 170.84 282.754 173.859 286.665L181.119 297.219L184.023 301.057L188.864 303.456C196.119 306.776 203.761 309.193 211.614 310.652C215.711 311.329 219.755 312.292 223.716 313.531C227.735 314.004 231.797 314.004 235.817 313.531C244.046 313.531 252.275 313.531 260.987 313.531C265.351 313.508 269.66 314.494 273.572 316.409C277.432 318.075 280.896 320.527 283.738 323.605L280.349 311.612Z" fill="#205B8C"/>
<path d="M587.719 582.186C588.226 579.654 588.154 577.042 587.508 574.542C586.862 572.042 585.659 569.717 583.988 567.738C582.316 565.759 580.219 564.176 577.849 563.107C575.479 562.037 572.897 561.508 570.294 561.557C561.299 560.352 552.182 560.352 543.187 561.557C523.341 561.557 511.24 542.847 494.782 537.09C478.325 531.333 449.766 527.975 426.532 517.9C408.572 509.296 387.991 507.754 368.93 513.583C356.078 518.194 343.615 523.809 331.658 530.374C316.127 535.783 299.702 538.226 283.254 537.57C278.697 538.355 274.376 540.141 270.607 542.797C266.837 545.454 263.716 548.913 261.472 552.921C245.014 552.921 224.684 570.193 242.594 584.105C266.007 599.748 292.93 609.466 321.009 612.41C335.01 613.834 349.121 613.834 363.122 612.41C390.53 610.783 417.853 616.764 442.021 629.68C474.9 637.525 509.278 636.698 541.734 627.282C553.047 625.131 563.459 619.695 571.647 611.665C579.835 603.635 585.43 593.374 587.719 582.186Z" fill="white"/>
<path d="M586.751 582.187C587.47 580.519 587.84 578.724 587.84 576.91C587.84 575.096 587.47 573.301 586.751 571.633C584.91 568.672 582.211 566.331 579.006 564.916C575.522 563.955 571.84 563.955 568.357 564.916H557.224H546.091H533.505C525.766 562.607 518.538 558.863 512.207 553.883C506.679 549.541 500.464 546.137 493.814 543.808C487.521 543.808 479.293 539.97 472.032 539.011L450.249 533.733C442.47 531.993 434.857 529.585 427.499 526.537H424.595H419.27L409.589 523.659C402.841 521.684 395.801 520.874 388.776 521.26H378.127H373.286H367.961C360.677 523.478 353.56 526.203 346.663 529.416L336.983 533.733C333.484 535.662 329.74 537.114 325.85 538.051C318.231 539.777 310.43 540.583 302.616 540.45H290.998C287.629 539.95 284.203 539.95 280.833 540.45C277.544 541.565 274.518 543.33 271.939 545.639C269.359 547.948 267.28 550.753 265.828 553.883C262.022 553.899 258.275 554.823 254.905 556.576C251.535 558.33 248.641 560.862 246.466 563.957C242.594 570.194 246.466 574.991 253.243 578.829L258.567 582.667L264.376 585.065L275.993 590.343C284.042 593.31 292.291 595.715 300.679 597.539C309.136 599.483 317.703 600.924 326.333 601.857C330.524 602.116 334.728 602.116 338.919 601.857H351.02H364.089H378.127C387.912 601.759 397.669 602.888 407.169 605.215L420.722 609.053L433.792 613.85L445.893 619.127H449.282H451.701H457.994H463.802H469.611H481.713H503.495L530.117 616.729H543.187H549.479H555.288C563.463 613.985 570.681 608.993 576.102 602.336C581.721 595.587 585.844 587.741 588.203 579.309L586.751 582.187ZM586.751 582.187C583.965 590.657 580.059 598.723 575.133 606.174C569.622 613.559 562.51 619.626 554.32 623.925L547.543 626.803H541.25L528.181 630.161L503.495 637.837H489.941H476.388H461.867H454.122H446.861H440.568H436.696H433.792L421.207 633.04C413.31 629.979 405.227 627.415 397.005 625.364C389.044 623.668 380.942 622.704 372.802 622.485H358.281H344.727H330.206C325.538 622.947 320.836 622.947 316.169 622.485C306.998 621.258 297.936 619.333 289.062 616.729C280.134 614.336 271.397 611.289 262.923 607.613C259.051 605.215 254.695 603.775 250.822 600.897L244.53 597.059L239.205 593.222H236.301L233.397 590.343C231.252 588.34 229.597 585.879 228.557 583.147C227.535 580.338 227.265 577.315 227.774 574.372C228.283 571.429 229.554 568.667 231.461 566.356C234.597 562.286 238.739 559.088 243.488 557.071C248.237 555.054 253.431 554.287 258.567 554.842H255.179C259.687 547.886 266.292 542.514 274.056 539.49C281.773 538.566 289.574 538.566 297.291 539.49C304.635 539.302 311.937 538.338 319.073 536.612C326.078 533.911 332.872 530.705 339.403 527.017C345.823 522.995 352.634 519.619 359.733 516.942H365.057H370.866L382.967 514.543C390.969 513.104 399.167 513.104 407.169 514.543C411.266 515.221 415.31 516.183 419.27 517.422H424.595H427.499H430.404C437.141 520.232 444.103 522.479 451.217 524.139L472.999 529.416L495.266 536.612C502.505 540.502 509.18 545.343 515.112 551.004C519.954 556.23 525.906 560.326 532.538 562.998H536.894H554.32H565.452C569.531 562.749 573.589 563.754 577.07 565.876C580.592 567.694 583.464 570.541 585.298 574.032C586.52 577.774 586.52 581.803 585.298 585.546L586.751 582.187Z" fill="#205B8C"/>
<path d="M351.988 344.235C346.18 360.546 329.722 366.302 308.908 363.904C293.094 359.65 276.867 357.077 260.503 356.228C247.434 356.228 235.817 369.661 222.264 367.262C193.56 357.239 163.049 353.316 132.715 355.748C111.29 363.218 88.601 366.478 65.9174 365.343C41.0651 357.514 19.4769 341.846 4.44326 320.727C3.23766 327.068 3.23766 333.576 4.44326 339.916C8.31563 369.181 44.6191 375.418 52.8479 402.763C66.4012 445.94 119.646 447.379 154.982 430.588C172.407 422.432 185.477 404.202 203.386 399.405C212.583 399.405 232.913 409.479 242.11 411.878C250.969 413.176 260.017 412.014 268.248 408.52C290.999 399.405 291.483 380.215 320.525 387.411C326.876 389.159 333.614 388.947 339.84 386.804C346.066 384.662 351.485 380.69 355.377 375.418C357.705 373.387 359.508 370.832 360.632 367.967C361.756 365.102 362.17 362.012 361.838 358.956C361.506 355.899 360.437 352.967 358.723 350.405C357.009 347.843 354.7 345.727 351.988 344.235Z" fill="#DAEFFA"/>
<path d="M1292.01 582.668C1278.45 549.565 1235.37 568.755 1212.14 557.721C1188.9 546.687 1170.99 530.855 1148.24 532.295C1141.09 527.691 1132.43 525.975 1124.04 527.497C1109.52 529.896 1102.26 544.767 1089.19 547.646C1070.21 548.984 1051.96 555.455 1036.43 566.356C999.159 595.14 948.817 566.356 904.285 566.356C874.758 566.356 837.487 575.471 831.194 607.614C830.614 610.572 830.897 613.634 832.012 616.439C833.127 619.243 835.026 621.674 837.486 623.445C846.285 629.806 857.149 632.712 867.981 631.601C891.59 632.222 914.489 639.732 933.813 653.19C948.687 661.605 965.177 666.835 982.217 668.541C1006.42 668.541 1026.75 696.846 1048.53 705.961C1062.97 709.142 1078.08 707.1 1091.13 700.204C1115.46 690.302 1140.35 681.812 1165.67 674.778C1199.22 671.488 1231.95 662.565 1262.48 648.392C1274.02 642.196 1283.18 632.392 1288.52 620.505C1293.86 608.619 1295.08 595.316 1292.01 582.668Z" fill="white"/>
<path d="M1291.04 583.147C1289.73 580.111 1288.11 577.217 1286.2 574.511L1282.81 571.633C1281.86 570.288 1280.5 569.28 1278.94 568.755C1276.27 566.992 1273.33 565.694 1270.22 564.917H1260.54H1241.18C1234.42 565.624 1227.61 565.624 1220.85 564.917H1215.53H1210.2L1201.49 560.599L1183.58 551.964L1174.87 548.126L1166.15 545.248C1163.25 545.018 1160.34 545.018 1157.44 545.248H1146.31C1142.93 543.849 1139.31 543.129 1135.66 543.129C1132 543.129 1128.38 543.849 1125.01 545.248C1118.23 545.248 1112.91 553.403 1104.2 559.64C1101.6 561.203 1098.84 562.49 1095.97 563.478H1091.61H1088.22L1074.67 566.356C1066.06 567.533 1057.72 570.128 1049.98 574.032L1044.66 577.39L1038.36 581.228C1034.1 583.942 1029.56 586.194 1024.81 587.945C1015.11 590.946 1004.93 592.085 994.8 591.303C975.952 588.786 957.337 584.775 939.135 579.309C921.313 574.531 902.671 573.55 884.438 576.431C875.465 577.613 866.777 580.375 858.784 584.586C850.976 588.737 844.578 595.078 840.39 602.817L837.97 608.573C837.908 609.692 837.908 610.813 837.97 611.932V615.29C837.97 615.29 837.97 615.29 837.97 617.689H840.874H846.199H858.3H879.598C882.174 617.461 884.766 617.461 887.342 617.689C897.116 619.286 906.585 622.36 915.418 626.804L928.486 633.52L934.779 636.878L940.588 639.756L946.88 642.635H952.689L965.274 645.993H978.343H987.54H994.8L1002.55 649.352L1009.32 653.19C1013.76 655.515 1017.98 658.245 1021.91 661.345C1029.65 666.622 1036.91 672.379 1044.17 676.697L1049.98 679.575H1052.4H1065.47C1083.2 675.511 1100.54 669.893 1117.26 662.784C1125.49 659.426 1134.69 656.548 1143.89 653.669C1153.08 650.903 1162.46 648.818 1171.96 647.432C1190.84 644.074 1209.72 643.115 1227.63 638.797C1236.47 636.861 1245.08 633.964 1253.28 630.162C1261.91 626.983 1269.69 621.897 1276.03 615.29C1282.4 608.857 1287.35 601.177 1290.55 592.742C1293.69 584.057 1293.69 574.561 1290.55 565.876L1291.04 583.147ZM1291.04 583.147C1294.17 592.162 1294.17 601.957 1291.04 610.972C1288.01 620.099 1283.24 628.567 1277 635.919L1266.83 645.993C1262.99 648.828 1258.94 651.393 1254.73 653.669C1246.34 658.192 1237.6 662.042 1228.6 665.183C1210.48 670.728 1192.06 675.213 1173.41 678.616L1160.34 682.453L1147.27 686.291L1121.62 696.366C1112.91 700.204 1104.2 703.082 1095.48 706.44C1086.16 710.291 1076.41 713.029 1066.44 714.597H1058.21H1044.66H1041.27L1034.01 710.759C1025.9 705.667 1018.14 700.058 1010.77 693.967C1004.29 688.729 997.127 684.372 989.477 681.014H983.184H980.28H976.406L961.886 678.616L947.365 674.298L940.103 671.419L933.812 668.062L927.034 664.703L921.226 660.865L909.609 654.149C901.719 650.276 893.446 647.221 884.922 645.033H878.63H871.853H857.816C852.474 644.613 847.239 643.316 842.326 641.196L835.066 637.358L832.645 634.959L829.257 632.081C825.841 627.771 823.985 622.449 823.985 616.969C823.985 611.489 825.841 606.167 829.257 601.857C834.526 593.417 842.07 586.604 851.039 582.187C859.747 577.955 869.048 575.045 878.63 573.552C888.125 572.597 897.693 572.597 907.188 573.552C916.869 573.552 926.066 575.951 935.747 577.87C953.713 582.035 972.018 584.604 990.444 585.546C999.044 585.827 1007.61 584.358 1015.61 581.228C1019.52 579.518 1023.25 577.429 1026.75 574.992L1032.07 570.674L1038.36 566.356C1047.06 561.313 1056.55 557.746 1066.44 555.801L1084.35 541.889H1087.74H1090.16C1090.16 541.889 1093.06 541.889 1094.51 541.889C1098.32 539.513 1101.88 536.782 1105.16 533.734L1111.94 529.416L1120.17 526.058C1125.61 524.791 1131.25 524.648 1136.75 525.638C1142.24 526.629 1147.48 528.731 1152.12 531.814H1148.73H1159.86L1170.03 535.173L1179.71 539.011L1188.42 544.288L1205.36 554.362L1214.07 559.64H1217.95H1222.3C1235.29 561.534 1248.39 562.656 1261.51 562.998H1271.19C1274.45 563.776 1277.55 565.073 1280.39 566.836L1284.75 570.194C1285.99 571.189 1287.13 572.315 1288.13 573.552C1290.11 576.215 1291.74 579.117 1292.97 582.187L1291.04 583.147Z" fill="#205B8C"/>
<path d="M1292.01 582.667C1289.97 577.193 1286.24 572.494 1281.36 569.234C1279.29 580.41 1273.3 590.498 1264.43 597.702C1255.57 604.906 1244.41 608.758 1232.95 608.572C1199.07 608.572 1155.99 565.395 1139.05 619.606C1136.84 629.57 1132 638.775 1125.03 646.277C1118.05 653.779 1109.19 659.31 1099.35 662.303C1080.48 668.54 1063.54 643.594 1046.11 641.195C1019 637.837 990.444 648.871 964.306 641.195C953.106 638.163 942.704 632.762 933.812 625.364C926.238 616.619 916.209 610.307 905.002 607.231C893.796 604.156 881.919 604.455 870.885 608.093C858.784 611.451 846.199 614.809 838.454 604.734H829.741C829.333 607.476 829.706 610.277 830.818 612.82C831.929 615.363 833.736 617.547 836.034 619.127C844.832 625.488 855.696 628.393 866.529 627.282C890.137 627.904 913.035 635.413 932.358 648.87C947.233 657.286 963.722 662.516 980.763 664.223C1004.97 664.223 1025.3 692.527 1047.08 701.642C1061.52 704.823 1076.62 702.782 1089.67 695.886C1114 685.984 1138.89 677.493 1164.22 670.459C1197.76 667.168 1230.5 658.246 1261.03 644.073C1272.01 638.32 1280.9 629.306 1286.45 618.294C1292.01 607.283 1293.95 594.826 1292.01 582.667Z" fill="#DAEFFA"/>
<path d="M586.266 570.672C582.81 574.895 579.091 578.901 575.133 582.665C563.984 592.362 550.29 598.726 535.639 601.019C520.988 603.312 505.981 601.439 492.361 595.618C476.372 587.258 461.96 576.222 449.765 562.996C425.078 542.847 401.36 568.273 374.254 573.07C358.484 575.196 342.452 571.985 328.753 563.956C314.716 554.361 297.29 573.071 280.349 570.672C269.527 568.496 259.69 562.949 252.274 554.84C237.752 558.199 225.168 573.55 240.657 585.064C264.07 600.706 290.993 610.425 319.072 613.369C333.073 614.793 347.184 614.793 361.184 613.369C388.593 611.742 415.916 617.723 440.084 630.64C472.963 638.484 507.341 637.657 539.797 628.241C551.421 626.595 562.269 621.496 570.91 613.617C579.551 605.738 585.58 595.448 588.202 584.105C589.111 581.897 589.412 579.488 589.071 577.128C588.731 574.767 587.763 572.539 586.266 570.672Z" fill="#DAEFFA"/>
<defs>
<radialGradient id="paint0_radial_120_162" cx="0" cy="0" r="1" gradientUnits="userSpaceOnUse" gradientTransform="translate(398.65 124.489) rotate(28.3958) scale(715.678 705.968)">
<stop stop-color="white"/>
<stop offset="0.39" stop-color="#FDFDFD"/>
<stop offset="0.53" stop-color="#F6F6F6"/>
<stop offset="0.63" stop-color="#EBEBEB"/>
<stop offset="0.71" stop-color="#DADADA"/>
<stop offset="0.77" stop-color="#C4C4C4"/>
<stop offset="0.84" stop-color="#A8A8A8"/>
<stop offset="0.89" stop-color="#888888"/>
<stop offset="0.94" stop-color="#626262"/>
<stop offset="0.99" stop-color="#393939"/>
<stop offset="1" stop-color="#2B2B2B"/>
</radialGradient>
<radialGradient id="paint1_radial_120_162" cx="0" cy="0" r="1" gradientUnits="userSpaceOnUse" gradientTransform="translate(1330.21 480.098) rotate(-11.9658) scale(1137.07 1127.83)">
<stop stop-color="#2B2B2B"/>
<stop offset="0.39" stop-color="#2D2D2D"/>
<stop offset="0.53" stop-color="#343434"/>
<stop offset="0.63" stop-color="#3F3F3F"/>
<stop offset="0.71" stop-color="#505050"/>
<stop offset="0.77" stop-color="#666666"/>
<stop offset="0.84" stop-color="#828282"/>
<stop offset="0.89" stop-color="#A2A2A2"/>
<stop offset="0.94" stop-color="#C8C8C8"/>
<stop offset="0.99" stop-color="#F1F1F1"/>
<stop offset="1" stop-color="white"/>
</radialGradient>
</defs>
</svg>
