<svg xmlns="http://www.w3.org/2000/svg" viewBox="0 0 261.12 100.93"><defs><style>.cls-1{fill:#fdce00;}</style></defs><g id="Layer_2" data-name="Layer 2"><g id="Layer_1-2" data-name="Layer 1"><path class="cls-1" d="M0,0H19.07l3.74,3.39V19.57l-3.7,3.13H0ZM18.27,5.45l-.95-.87H4.54V18.16H17.47l.8-.69Z"/><path class="cls-1" d="M32.24,18.16H48.3V22.7H27.7V0H48.18V4.58H32.24v4.5H42.31v4.54H32.24Z"/><path class="cls-1" d="M75.77,0h5.11L69.13,22.7H61.88L50.13,0h5.12l9.42,18.16h1.68Z"/><path class="cls-1" d="M88.36,18.16h16.06V22.7H83.82V0h20.49V4.58h-16v4.5H98.43v4.54H88.36Z"/><path class="cls-1" d="M113,18.16H129V22.7h-20.6V0H113Z"/><path class="cls-1" d="M151.12,0l3.78,3.39V19.57l-3.7,3.13H135.75l-3.7-3.13V3.43L135.82,0Zm-.76,5.41-1-.87H137.58l-1,.87v12l.8.69h12.09l.84-.69Z"/><path class="cls-1" d="M178.82,0l3.74,3.39V13.2l-3.7,3.13H164.29V22.7h-4.54V0ZM178,5.45l-1-.87H164.29v7.21h12.93l.8-.69Z"/><path class="cls-1" d="M191.3,18.16h16.06V22.7h-20.6V0h20.48V4.58H191.3v4.5h10.07v4.54H191.3Z"/><path class="cls-1" d="M229,16.33l5.65,6.37h-6.07l-5.6-6.37h-7V22.7h-4.54V0h19.07l3.74,3.39V13.2l-3.7,3.13Zm-.11-4.54.8-.69V5.45l-.95-.87H215.91v7.21Z"/><path class="cls-1" d="M242,0h19.08V4.58H243.8l-1,.87V8.24l.88.91,13.62-.07,3.78,3.47v7l-3.7,3.13H238.3V18.16h17.44l.84-.69V14.53l-1-.87-13.73,0-3.55-3.58V3.43Z"/><path class="cls-1" d="M20.41,39.15l3.78,3.4v4.23H19.61V44.57l-1-.88H6.87l-1,.88v12l.83.68h12.1l.8-.68V54.26h4.58v4.43l-3.7,3.12H5l-3.7-3.12V42.55l3.77-3.4Z"/><path class="cls-1" d="M47.42,39.15l3.78,3.4V58.69l-3.7,3.12H32.05l-3.7-3.12V42.55l3.77-3.4Zm-.76,5.42-1-.88H33.88l-1,.88v12l.8.68H45.82l.84-.68Z"/><path class="cls-1" d="M78.82,39.12l.12,22.69H74.4L60.59,46V61.81H56.05V39.15h4.58L74.36,54.87l-.08-15.72Z"/><path class="cls-1" d="M84,39.15H104.5v4.54h-16v4.5H98.62v4.54H88.55v9.08H84Z"/><path class="cls-1" d="M112.36,57.27h16.06v4.54h-20.6V39.15h20.49v4.54h-16v4.5h10.07v4.54H112.36Z"/><path class="cls-1" d="M150,55.44l5.64,6.37H149.6L144,55.44h-7v6.37h-4.54V39.15H151.5l3.74,3.4v9.76l-3.7,3.13Zm-.12-4.54.8-.68V44.57l-.95-.88H137V50.9Z"/><path class="cls-1" d="M164.44,57.27H180.5v4.54H159.9V39.15h20.49v4.54H164.44v4.5h10.07v4.54H164.44Z"/><path class="cls-1" d="M207.28,39.12l.12,22.69h-4.54L189.05,46V61.81h-4.54V39.15h4.58l13.73,15.72-.08-15.72Z"/><path class="cls-1" d="M231.28,39.15l3.78,3.4v4.23h-4.58V44.57l-.95-.88H217.74l-1,.88v12l.84.68h12.09l.8-.68V54.26h4.58v4.43l-3.7,3.12H215.91l-3.7-3.12V42.55l3.77-3.4Z"/><path class="cls-1" d="M244,57.27h16.06v4.54h-20.6V39.15H260v4.54H244v4.5H254.1v4.54H244Z"/><path class="cls-1" d="M97.13,78.27l3.7,3.13v7L97.1,91.85l-13.62,0-.92.88v3.7h18.27v4.54H78V90.86l3.55-3.63,13.77.08,1-.88V83.5l-.8-.69H78V78.27Z"/><path class="cls-1" d="M124.45,78.27l3.74,3.4V97.8l-3.7,3.13H109.08l-3.7-3.13V81.67l3.74-3.4Zm-.8,5.42-1-.88H110.87l-1,.88v12l.8.69h12.09l.84-.69Z"/><path class="cls-1" d="M151.85,78.27l3.7,3.13v7l-3.74,3.43-13.62,0-.91.88v3.7h18.27v4.54H132.74V90.86l3.54-3.63,13.78.08.95-.88V83.5l-.8-.69H132.74V78.27Z"/><path class="cls-1" d="M178.79,78.27l3.66,3.13v7l-1.15,1.07,1.15,1V97.5l-3.74,3.43-19.07-.08,0-4.54,17.28.08,1-.92V92.58l-.8-.73h-11V87.31h0v-.08l10.83.08,1-.88V83.5l-.8-.69H159.64V78.27Z"/></g></g></svg>