<svg width="1058" height="591" viewBox="0 0 1058 591" fill="none" xmlns="http://www.w3.org/2000/svg">
<path d="M771.843 476.249C736.013 521.781 687.359 555.755 632.04 573.872C576.721 591.988 517.222 593.433 461.074 578.023C404.926 562.612 354.652 531.04 316.615 487.302C278.578 443.563 254.488 389.624 247.393 332.31C240.298 274.997 250.517 216.886 276.757 165.331C302.998 113.777 344.079 71.0954 394.803 42.6895C445.527 14.2835 503.613 1.42956 561.711 5.75447C619.808 10.0794 675.306 31.3885 721.179 66.9853C782.594 114.642 822.421 184.502 831.92 261.231C841.419 337.961 819.812 415.291 771.843 476.249Z" fill="#27ACE3"/>
<path d="M772.796 476.564L769.461 480.656C767.078 483.332 764.061 487.425 759.455 492.305C746.47 506.823 731.992 519.959 716.256 531.499C691.802 549.67 664.705 564.053 635.892 574.157C598.201 587.258 558.212 592.614 518.364 589.898C495.526 588.205 472.944 584.036 451.024 577.463C427.679 570.053 405.332 559.851 384.478 547.083C339.497 519.263 302.904 479.951 278.544 433.276C252.65 383.684 241.211 327.923 245.509 272.247C247.785 243.981 254.205 216.195 264.568 189.765C269.712 176.339 275.816 163.293 282.832 150.727C289.989 138.185 298.002 126.141 306.814 114.68C315.719 103.302 325.375 92.5224 335.72 82.4116C346.225 72.4144 357.423 63.157 369.231 54.7075C404.26 30.1205 444.243 13.3381 486.435 5.51284C528.627 -2.31246 572.027 -0.994957 613.657 9.37408C639.999 15.8469 665.289 25.9677 688.78 39.4388C694.497 42.7444 700.215 46.0503 705.615 49.6707L713.714 55.1797L721.497 61.0042C727.055 64.9394 731.502 69.0317 736.426 72.967C741.349 76.9022 746.114 81.4672 750.561 85.8746C768.062 102.956 783.323 122.153 795.984 143.014C807.692 162.511 817.123 183.265 824.095 204.876C836.082 242.591 840.189 282.333 836.166 321.673C833.128 351.77 825.469 381.231 813.454 409.035C805.864 426.942 796.445 444.031 785.343 460.036C781.69 465.702 778.355 469.638 776.29 472.471L772.796 476.564ZM772.002 476.564L775.178 472.471C777.084 469.638 780.419 465.545 783.913 459.878C794.858 443.94 804.068 426.897 811.389 409.035C816.707 396.339 820.957 383.23 824.095 369.841C827.901 354.332 830.397 338.537 831.56 322.618C834.308 280.467 827.84 238.224 812.6 198.778C797.36 159.332 773.706 123.612 743.255 94.0597C738.967 89.8097 734.361 85.8745 729.755 81.7818L722.45 75.8007L718.797 72.8099L715.144 70.1337L707.52 64.6243L699.738 59.2725C694.497 55.6521 688.938 52.6612 683.856 49.3556C672.607 43.0098 660.933 37.435 648.915 32.6703C642.88 29.9943 636.686 28.1054 630.492 25.7443C624.298 23.3831 617.786 21.8089 611.433 20.2349C557.065 6.42979 499.837 8.42492 446.582 25.9816C393.327 43.5382 346.295 75.9146 311.102 119.245C302.005 129.737 293.571 140.777 285.85 152.301C278.746 164.567 272.485 177.294 267.109 190.394C256.77 216.668 250.349 244.295 248.05 272.404C243.885 327.397 255.912 382.407 282.673 430.758C285.691 436.582 289.502 442.248 292.838 447.758C296.173 453.267 300.144 458.776 304.114 463.499C311.941 473.839 320.429 483.671 329.525 492.934C334.131 497.342 338.578 502.064 343.343 505.999L350.49 512.295L357.954 518.277C362.719 522.212 367.96 525.675 372.884 529.453C377.807 533.231 383.207 536.379 388.766 539.37C425.172 561.43 465.925 575.5 508.28 580.632C550.635 585.763 593.608 581.838 634.304 569.12C649.93 564.306 665.081 558.089 679.568 550.546C691.953 544.337 703.799 537.125 714.985 528.981C730.759 517.664 745.291 504.738 758.343 490.416C762.949 485.694 766.125 481.443 768.508 478.925L772.002 476.564Z" fill="#2B62AC"/>
<path d="M771.843 476.249C736.013 521.781 687.359 555.755 632.04 573.872C576.721 591.988 517.222 593.433 461.074 578.023C404.926 562.612 354.652 531.04 316.615 487.302C278.578 443.563 254.488 389.624 247.393 332.31C240.298 274.997 250.517 216.886 276.757 165.331C302.998 113.777 344.079 71.0954 394.803 42.6895C445.527 14.2835 503.613 1.42956 561.711 5.75447C619.808 10.0794 675.306 31.3885 721.179 66.9853C782.594 114.642 822.421 184.502 831.92 261.231C841.419 337.961 819.812 415.291 771.843 476.249Z" fill="#77674D"/>
<path d="M772.796 476.564L769.461 480.656C767.078 483.332 764.061 487.425 759.455 492.305C746.47 506.823 731.992 519.959 716.256 531.499C691.802 549.67 664.705 564.053 635.892 574.157C598.201 587.258 558.212 592.614 518.364 589.898C495.526 588.205 472.944 584.036 451.024 577.463C427.679 570.053 405.332 559.851 384.478 547.083C339.497 519.263 302.904 479.951 278.544 433.276C252.65 383.684 241.211 327.923 245.509 272.247C247.785 243.981 254.205 216.195 264.568 189.765C269.712 176.339 275.816 163.293 282.832 150.727C289.989 138.185 298.002 126.141 306.814 114.68C315.719 103.302 325.375 92.5224 335.72 82.4116C346.225 72.4144 357.423 63.157 369.231 54.7075C404.26 30.1205 444.243 13.3381 486.435 5.51284C528.627 -2.31246 572.027 -0.994957 613.657 9.37408C639.999 15.8469 665.289 25.9677 688.78 39.4388C694.497 42.7444 700.215 46.0503 705.615 49.6707L713.714 55.1797L721.497 61.0042C727.055 64.9394 731.502 69.0317 736.426 72.967C741.349 76.9022 746.114 81.4672 750.561 85.8746C768.062 102.956 783.323 122.153 795.984 143.014C807.692 162.511 817.123 183.265 824.095 204.876C836.082 242.591 840.189 282.333 836.166 321.673C833.128 351.77 825.469 381.231 813.454 409.035C805.864 426.942 796.445 444.031 785.343 460.036C781.69 465.702 778.355 469.638 776.29 472.471L772.796 476.564ZM772.002 476.564L775.178 472.471C777.084 469.638 780.419 465.545 783.913 459.878C794.858 443.94 804.068 426.897 811.389 409.035C816.707 396.339 820.957 383.23 824.095 369.841C827.901 354.332 830.397 338.537 831.56 322.618C834.308 280.467 827.84 238.224 812.6 198.778C797.36 159.332 773.706 123.612 743.255 94.0597C738.967 89.8097 734.361 85.8745 729.755 81.7818L722.45 75.8007L718.797 72.8099L715.144 70.1337L707.52 64.6243L699.738 59.2725C694.497 55.6521 688.938 52.6612 683.856 49.3556C672.607 43.0098 660.933 37.435 648.915 32.6703C642.88 29.9943 636.686 28.1054 630.492 25.7443C624.298 23.3831 617.786 21.8089 611.433 20.2349C557.065 6.42979 499.837 8.42492 446.582 25.9816C393.327 43.5382 346.295 75.9146 311.102 119.245C302.005 129.737 293.571 140.777 285.85 152.301C278.746 164.567 272.485 177.294 267.109 190.394C256.77 216.668 250.349 244.295 248.05 272.404C243.885 327.397 255.912 382.407 282.673 430.758C285.691 436.582 289.502 442.248 292.838 447.758C296.173 453.267 300.144 458.776 304.114 463.499C311.941 473.839 320.429 483.671 329.525 492.934C334.131 497.342 338.578 502.064 343.343 505.999L350.49 512.295L357.954 518.277C362.719 522.212 367.96 525.675 372.884 529.453C377.807 533.231 383.207 536.379 388.766 539.37C425.172 561.43 465.925 575.5 508.28 580.632C550.635 585.763 593.608 581.838 634.304 569.12C649.93 564.306 665.081 558.089 679.568 550.546C691.953 544.337 703.799 537.125 714.985 528.981C730.759 517.664 745.291 504.738 758.343 490.416C762.949 485.694 766.125 481.443 768.508 478.925L772.002 476.564Z" fill="#77674D"/>
<path d="M594.916 438.786C661.938 424.013 726.235 399.001 785.502 364.646C799.796 356.146 815.201 347.173 830.448 337.571C832.348 324.697 833.303 311.703 833.307 298.691C752.784 361.655 645.262 387.155 543.934 398.174C474.101 405.724 403.647 405.724 333.814 398.174C309.832 395.498 285.214 392.822 260.756 388.887C265.21 401.555 270.516 413.913 276.638 425.878C379.593 458.671 489.602 463.132 594.916 438.786Z" fill="#957C56"/>
<path d="M638.274 532.916C575.999 551.956 511.108 561.25 445.942 560.463L414.177 559.361C474.407 587.672 542.554 594.868 607.45 579.767C672.345 564.667 730.142 528.167 771.367 476.249C772.796 474.675 773.908 472.943 775.337 471.212C732.966 498.36 686.78 519.153 638.274 532.916Z" fill="#D9B352"/>
<path d="M357.478 341.978C324.761 338.673 291.885 335.682 259.168 331.59L248.05 330.016C248.05 335.053 249.321 339.932 250.274 344.812C268.538 347.331 286.644 348.747 303.638 350.006C352.638 353.395 401.842 352.605 450.706 347.645C419.577 347.226 388.501 345.336 357.478 341.978Z" fill="#B49C6D"/>
<path d="M429.424 48.8835C447.111 45.4638 464.563 40.9427 481.676 35.3466C492.913 31.8453 503.603 26.8123 513.441 20.3926C519.272 16.5994 524.606 12.1052 529.323 7.0127C476.545 8.29052 425.087 23.6233 380.348 51.4021C396.689 54.25 413.468 53.3889 429.424 48.8835Z" fill="#AD9C94"/>
<path d="M382.095 87.1344C408.337 85.0198 434.395 81.0748 460.077 75.3287C486.881 70.1739 513.389 63.6059 539.487 55.6526C567.256 48.5406 593.115 35.4844 615.245 17.4023C589.374 10.3783 562.658 6.88303 535.834 7.01328C523.679 20.0143 508.761 30.1762 492.159 36.7638C467.63 45.7339 442.248 52.2209 416.401 56.1253C402.392 59.0898 387.883 58.8202 373.995 55.3379C360.192 64.4291 347.177 74.6436 335.084 85.8753C350.615 88.5045 366.444 88.9283 382.095 87.1344Z" fill="#B49C6D"/>
<path d="M468.177 106.81C507.177 98.8927 545.048 86.2581 580.94 69.1893C596.822 61.4762 611.275 52.5038 626.045 43.5315C633.862 38.8712 641.297 33.608 648.28 27.7906C639.704 24.3276 630.969 21.3371 622.233 18.6611C601.552 36.8674 577.024 50.259 550.446 57.8558C519.22 67.764 487.392 75.703 455.153 81.6247C423.427 89.213 390.909 93.0696 358.272 93.1153C349.038 93.1377 339.828 92.1881 330.796 90.282C321.764 99.0038 313.328 108.311 305.544 118.143V119.245C360.07 122.154 414.746 117.973 468.177 106.81Z" fill="#957C56"/>
<path d="M307.132 176.384C355.029 174.127 402.613 167.488 449.277 156.55C500.564 144.065 549.886 124.682 595.869 98.9387C618.152 86.4697 639.396 72.258 659.398 56.4386L677.503 42.1143L675.915 41.1699C660.986 51.2441 645.421 60.3738 630.492 69.6609C590.55 96.2895 547.173 117.468 501.529 132.625C455.046 146.231 407.025 154.005 358.59 155.764C335.402 156.708 310.943 158.125 288.232 157.495H281.561C277.477 164.647 273.766 172.003 270.444 179.533L307.132 176.384Z" fill="#B49C6D"/>
<path d="M719.908 69.1893L711.967 63.3652L703.391 70.4483C684.332 84.7726 664.162 97.9949 643.992 110.745C593.289 143.655 538.095 169.204 480.088 186.616C421.776 202.773 361.283 209.836 300.779 207.552C287.597 207.552 273.779 206.293 259.803 204.561L278.544 206.292C307.132 208.811 335.561 211.487 364.307 211.487C419.433 212.299 474.367 204.869 527.258 189.449C583.028 173.066 635.56 147.353 682.585 113.421C697.197 102.56 714.35 90.4395 730.232 76.5875L719.908 69.1893Z" fill="#D9B352"/>
<path d="M309.673 202.358C364.697 203.607 419.634 197.357 472.941 183.784C526.631 168.407 577.933 145.791 625.41 116.57C646.533 103.663 667.18 90.2826 687.35 75.9584C694.296 71.0651 700.976 65.8108 707.362 60.2175C699.103 54.5507 690.685 49.3038 682.109 44.4766L671.944 52.9768C652.217 69.161 631.36 83.9419 609.528 97.2087C561.797 125.351 510.236 146.556 456.424 160.172C405.638 172.111 353.86 179.435 301.732 182.052C290.614 182.839 279.02 183.784 267.426 184.413C265.362 189.45 263.456 194.488 261.55 200.154C277.53 201.868 293.601 202.604 309.673 202.358Z" fill="#AD9C94"/>
<path d="M523.764 219.673C574.353 208.737 622.275 188.038 664.797 158.756C684.563 143.759 703.098 127.231 720.226 109.329C727.056 102.403 734.361 95.1624 740.873 87.2919L733.408 80.5234C720.145 92.3219 706.255 103.409 691.797 113.736C642.592 150.075 587.329 177.567 528.529 194.96C469.255 212.059 407.562 219.45 345.884 216.84C317.455 216.053 289.026 213.692 260.756 210.543H258.056C256.626 214.793 255.356 219.043 254.244 223.451C343.19 242.672 435.402 241.38 523.764 219.673Z" fill="#957C56"/>
<path d="M754.69 101.143C751.514 97.6804 748.338 94.5322 745.002 91.2266C741.826 95.0044 738.491 98.7824 734.997 102.245C716.41 122.745 696.057 141.6 674.168 158.598C631.331 189.359 582.738 211.353 531.229 223.293C440.314 246.09 345.327 247.868 253.609 228.487C251.703 236.043 250.115 244.228 248.844 251.469L257.421 253.043C350.724 271.783 447.327 266.361 537.899 237.302C612.545 215.265 713.714 174.339 754.69 101.143Z" fill="#B49C6D"/>
<path d="M335.561 394.553C402.813 401.716 470.647 401.716 537.899 394.553C641.292 383.377 751.673 358.821 832.83 292.71C832.83 284.21 832.83 275.709 831.242 267.209C816.789 274.292 802.337 280.431 789.155 285.941C721.046 312.915 649.828 331.42 577.128 341.034C548.591 345.015 519.853 347.433 491.047 348.275C428.038 358.171 364.09 360.864 300.461 356.303C284.579 355.201 267.426 353.627 250.115 351.423C252.284 362.54 255.094 373.524 258.532 384.321C284.261 388.414 310.149 392.035 335.561 394.553Z" fill="#957C56"/>
<path d="M398.137 553.38C419.526 556.002 441.067 557.211 462.618 557C521.244 555.94 579.442 546.882 635.574 530.083C688.19 515.148 738.017 491.865 783.119 461.138C795.194 443.399 805.261 424.395 813.137 404.471C753.181 447.405 686.626 480.466 616.039 502.379C550.43 523.87 481.486 533.624 412.43 531.185C394.642 530.398 375.901 529.139 357.002 526.778C369.952 536.751 383.71 545.648 398.137 553.38Z" fill="#B49C6D"/>
<path d="M425.136 525.833C489.262 526.719 553.086 516.983 613.975 497.027C686.711 474.326 755.062 439.629 816.154 394.396C821.802 378.589 826.001 362.31 828.701 345.757L796.937 364.646C735.855 401.456 669.2 428.296 599.522 444.137C493.425 469.328 382.473 466.068 278.068 434.693C295.692 467.446 319.527 496.521 348.267 520.323C373.718 524.035 399.411 525.877 425.136 525.833Z" fill="#D9B352"/>
<path d="M571.411 337.1C643.013 328.247 713.224 310.587 780.419 284.525C796.302 278.072 813.296 270.831 830.448 262.174C827.749 239.807 822.418 217.83 814.566 196.691C809.35 204.668 803.338 212.103 796.619 218.886C772.227 242.747 744.328 262.808 713.873 278.387C657.4 307.618 597.029 328.764 534.564 341.193C546.634 340.248 559.022 338.989 571.411 337.1Z" fill="#957C56"/>
<path d="M275.367 329.544C305.067 332.377 334.608 336.312 364.307 339.146C406.519 343.338 448.954 344.915 491.364 343.868L509.152 340.878C575.361 329.817 639.574 309.186 699.738 279.645C731.837 264.284 761.354 244.108 787.249 219.83C796.316 210.583 804.356 200.397 811.231 189.45C805.44 175.243 798.536 161.506 790.584 148.366C767.895 176.77 739.502 200.194 707.203 217.154C647.531 248.879 582.791 270.178 515.823 280.117C446.732 292.119 376.623 297.391 306.496 295.858C285.532 295.858 265.044 294.757 244.715 292.553C244.448 304.014 244.978 315.479 246.303 326.868C255.991 327.812 265.838 328.757 275.367 329.544Z" fill="#D9B352"/>
<path d="M331.273 290.349C394.665 290.534 457.955 285.267 520.429 274.608C580.773 265.289 639.187 246.31 693.385 218.413C723.879 201.728 765.014 176.227 786.772 143.014C778.473 129.869 769.069 117.442 758.661 105.865C715.462 178.746 614.451 219.829 538.376 242.181C444.271 272.341 343.82 277.444 247.097 256.978C245.699 266.946 244.851 276.983 244.556 287.043C273.378 289.734 302.328 290.837 331.273 290.349Z" fill="#957C56"/>
<path d="M313.326 151.357C334.29 151.357 355.413 151.357 376.854 149.31C420.611 146.767 463.878 138.835 505.658 125.699C548.466 110.272 589.256 89.8206 627.157 64.7816C641.292 55.9667 656.062 47.3094 670.197 37.8648L654.315 30.7812C637.529 44.5535 619.068 56.1875 599.363 65.4114C561.993 85.3668 522.014 100.093 480.565 109.171C421.996 122.002 361.955 126.979 302.049 123.968C295.379 133.097 289.185 142.384 283.626 151.829C293.632 152.301 303.638 152.301 313.326 151.357Z" fill="#D9B352"/>
<g style="mix-blend-mode:multiply">
<path d="M772.796 472.786C736.966 518.318 688.312 552.292 632.993 570.409C577.673 588.525 518.175 589.97 462.027 574.56C405.879 559.15 355.605 527.577 317.568 483.839C279.531 440.1 255.441 386.161 248.346 328.847C241.251 271.534 251.47 213.423 277.71 161.868C303.951 110.314 345.032 67.6325 395.756 39.2266C446.48 10.8206 504.566 -2.03334 562.664 2.29157C620.761 6.61648 676.258 27.9256 722.132 63.5225C783.547 111.179 823.374 181.039 832.873 257.768C842.371 334.498 820.765 411.828 772.796 472.786Z" fill="#4A9196"/>
</g>
<path style="mix-blend-mode:screen" d="M777.878 154.19C764.696 117.199 761.996 99.412 712.444 59.7449C660.899 21.1128 597.623 1.01691 533.024 2.76201C468.424 4.50712 406.347 27.9895 357.002 69.3471C337.47 85.6818 320.408 104.713 306.337 125.857C281.382 167.55 265.176 213.808 258.691 261.858C254.359 285.288 256.275 309.434 264.25 331.905C275.295 334.39 286.488 336.178 297.761 337.257C309.037 305.775 337.943 285.627 363.513 264.219C380.825 249.58 400.042 235.571 405.442 212.274C410.842 188.978 380.507 173.867 376.378 152.301C372.248 130.736 404.171 118.144 418.148 112.477C429.56 106.582 442.689 104.819 455.272 107.492C467.856 110.164 479.103 117.104 487.076 127.116C524.241 165.366 569.505 101.931 607.939 121.922C620.01 128.218 623.822 145.061 630.016 155.607C635.567 164.612 643.931 171.575 653.839 175.441C664.219 178.38 675.223 178.38 685.603 175.441C703.803 171.911 722.332 170.328 740.873 170.719C750.393 171.291 759.94 171.291 769.461 170.719C772.801 165.493 775.621 159.958 777.878 154.19Z" fill="url(#paint0_radial_115_156)"/>
<path d="M1052.48 235.728C1034.37 184.57 954.17 175.913 908.588 170.718C875.351 166.6 841.866 164.759 808.372 165.209C812.196 172.076 815.03 179.441 816.79 187.088C818.378 192.913 819.807 198.894 821.078 204.876C851.571 208.339 882.065 211.959 912.082 218.098C929.076 224.709 947.182 236.357 930.188 253.515C910.068 271.961 886.918 286.867 861.736 297.59C803.925 324.822 737.379 337.414 674.644 348.433C609.06 359.421 542.63 364.688 476.118 364.174C385.484 366.48 294.985 355.878 207.392 332.692C193.416 328.599 143.863 315.534 151.169 294.127C159.428 268.312 193.892 252.098 216.604 242.182C228.992 236.62 241.38 231.373 253.768 226.441C255.927 215.119 259.391 204.081 264.091 193.542C239.585 195.546 215.2 198.803 191.033 203.302C150.231 209.106 110.007 218.374 70.8056 231.006C43.6883 240.446 20.7992 259.063 6.16527 283.58C2.19247 296.69 2.63842 310.726 7.43575 323.562C28.8766 382.276 108.923 402.267 163.24 416.591C299.667 454.369 447.847 451.064 587.293 436.267C695.159 426.182 801.362 402.973 903.506 367.164C948.929 350.951 1076.46 304.043 1052.48 235.728Z" fill="#AD9C94"/>
<path d="M107.97 272.718C142.91 231.005 201.198 218.098 257.421 211.329C257.421 209.755 258.532 208.023 259.168 206.292C247.574 208.338 236.139 211.014 224.862 212.903C196.395 217.425 168.387 224.431 141.163 233.838C115.434 243.283 77.6349 255.561 61.7527 281.061C56.6758 290.064 55.0217 300.571 57.0904 310.678C59.1592 320.786 64.8138 329.824 73.029 336.154C95.0984 353.803 120.465 366.962 147.675 374.877C176.624 385.249 206.366 393.303 236.615 398.961C297.256 409.919 358.733 415.712 420.371 416.275C599.84 419.423 788.361 409.192 946.864 318.524C969.893 305.302 1014.68 282.32 1017.54 252.098C1021.19 214.477 958.141 208.81 932.094 205.977L908.271 202.986C921.737 206.408 934.826 211.154 947.341 217.153C979.105 232.894 982.758 262.015 956.711 284.367C922.723 313.488 876.348 329.386 834.26 343.395C795.545 356.57 756.156 367.709 716.256 376.766C633.101 393.698 548.28 401.249 463.412 399.275C371.137 398.488 271.715 391.562 184.204 360.081C155.934 349.219 72.2349 315.534 107.97 272.718Z" fill="#957C56"/>
<path d="M151.169 293.969C159.428 268.154 193.892 251.941 216.604 242.025C228.992 236.463 241.38 231.216 253.768 226.284C254.287 223.153 254.976 220.053 255.832 216.996C211.362 222.348 166.892 231.95 132.269 258.08C113.687 272.09 96.3757 292.08 116.387 313.488C131.329 328.403 149.379 339.9 169.275 347.174C230.792 370.334 295.461 384.235 361.131 388.415C435.943 395.105 511.21 395.105 586.022 388.415C695.132 378.813 808.372 356.933 906.682 308.608C931.459 296.645 995.146 263.274 957.188 229.904C924.471 201.728 869.201 200.311 828.225 193.07L818.06 191.339C819.172 195.589 820.125 199.839 821.078 204.089C851.571 207.552 882.065 211.172 912.083 217.311C929.076 223.922 947.182 235.571 930.188 252.728C910.068 271.174 886.918 286.08 861.736 296.803C803.925 324.034 737.379 336.627 674.644 347.646C609.06 358.634 542.63 363.901 476.118 363.387C385.484 365.693 294.985 355.091 207.392 331.905C193.416 328.757 144.34 315.692 151.169 293.969Z" fill="#D9B352"/>
<g style="mix-blend-mode:screen" opacity="0.6">
<path d="M993.875 195.903C993.875 195.903 1082.18 221.719 1025.64 294.441C1025.64 294.441 995.464 335.053 834.101 383.85C834.101 383.85 988.634 336.627 1020.87 289.404C1053.12 242.182 1020.56 212.274 993.875 195.903Z" fill="white"/>
</g>
<path d="M264.568 193.385L229.468 197.32C223.592 198.107 217.715 199.209 211.998 200.154L194.527 202.987L177.216 206.293L159.745 209.599C148.31 211.802 136.716 214.006 125.122 216.682C119.405 217.941 113.687 219.2 107.97 220.774C102.252 222.349 96.6933 223.923 91.1346 225.654C85.5758 227.386 80.0171 229.274 75.2524 231.321C72.4875 232.259 69.7825 233.363 67.1525 234.627C64.4209 235.642 61.7669 236.852 59.2114 238.247C53.7216 240.765 48.4148 243.658 43.3293 246.904L36.3411 251.941L29.6706 257.608C25.4657 261.589 21.5391 265.849 17.9179 270.358C14.2978 274.876 10.9564 279.607 7.91206 284.525C3.59209 298.867 4.78024 314.287 11.2474 327.812C17.3068 341.561 26.5579 353.696 38.247 363.229C50.0025 372.755 62.98 380.695 76.8406 386.841C90.6815 392.967 104.898 398.225 119.405 402.582C134.016 407.146 148.787 411.082 163.557 415.017L208.027 425.563C215.464 427.373 222.992 428.792 230.58 429.814L252.973 433.591C268.856 436.425 283.308 437.527 298.396 439.258L321.108 441.619L343.978 442.721C359.86 443.508 374.472 444.61 389.719 444.452C404.966 444.295 420.213 444.452 435.459 444.452L481.2 442.878L526.94 439.887C542.823 438.786 557.275 437.054 572.522 435.795C602.857 432.962 633.192 429.184 663.368 424.776C678.297 422.573 693.385 419.897 708.473 417.536C723.561 415.175 738.332 411.869 753.261 408.563C783.119 402.109 812.66 394.869 841.883 386.054L863.801 379.6L885.4 372.202C899.853 367.48 914.147 362.442 928.282 356.461C956.8 346.015 984.027 332.391 1009.44 315.85C1022.07 307.544 1033.28 297.287 1042.63 285.469C1047.1 279.518 1050.54 272.867 1052.8 265.793C1054.83 258.73 1055.21 251.301 1053.91 244.071C1053.66 242.251 1053.23 240.46 1052.64 238.719L1051.85 236.043L1050.73 233.525C1049.43 230.038 1047.72 226.711 1045.65 223.608L1042.47 218.886L1038.82 214.793C1036.31 211.983 1033.54 209.402 1030.56 207.08C1018.53 197.903 1004.92 190.969 990.381 186.617C961.059 178.103 930.94 172.565 900.488 170.089C870.13 166.52 839.577 164.837 809.007 165.052C839.611 164.443 870.223 165.811 900.647 169.144C931.234 171.318 961.515 176.592 991.017 184.885C1005.87 189.168 1019.81 196.102 1032.15 205.348C1035.18 207.724 1038 210.357 1040.57 213.219L1044.54 217.626L1047.72 222.506C1049.95 225.62 1051.76 229.006 1053.12 232.58L1054.39 235.256L1055.18 238.09C1055.75 239.942 1056.18 241.837 1056.45 243.756C1057.91 251.397 1057.53 259.27 1055.34 266.738C1053.11 274.126 1049.56 281.057 1044.86 287.201C1035.46 299.465 1024.09 310.103 1011.19 318.683C985.611 335.443 958.23 349.329 929.553 360.081C915.418 365.591 900.965 370.785 886.512 375.822L864.912 383.221L842.836 389.832C813.613 398.804 783.913 405.572 754.214 412.813C739.285 416.119 724.197 418.795 709.267 421.786C694.338 424.776 679.091 427.138 664.003 429.341C633.668 433.906 603.492 437.841 572.999 440.675C557.116 442.091 542.505 443.98 527.258 444.925L481.518 447.915L435.618 449.332C419.736 449.332 404.966 449.332 389.719 449.332C374.472 449.332 359.066 448.23 343.819 447.601L320.79 446.184L297.92 443.823C282.038 442.091 267.426 440.832 252.338 437.999L229.786 434.063C222.192 433.004 214.664 431.533 207.233 429.656L162.604 418.952C147.834 415.017 133.063 410.925 118.452 406.36C103.776 402.042 89.3989 396.784 75.4112 390.619C61.3647 384.284 48.227 376.133 36.3411 366.378C33.3835 363.918 30.5729 361.291 27.9236 358.507C22.5029 352.936 17.7589 346.755 13.7885 340.09C11.7477 336.86 10.0448 333.432 8.70621 329.859C5.42224 322.869 3.43179 315.351 2.82978 307.664C2.28972 299.904 3.20525 292.112 5.52983 284.682C9.02391 279.803 12.0414 274.766 15.8531 270.358C19.5857 265.797 23.618 261.485 27.9236 257.451L34.7529 251.626L42.0587 246.432C47.1478 243.192 52.4542 240.299 57.9408 237.774C60.6408 236.358 63.3408 235.256 66.0407 234.154C68.7407 233.052 71.4406 231.793 74.2994 230.848C79.8582 228.959 85.417 226.914 91.1346 225.339C96.8521 223.765 102.57 222.034 108.287 220.774C114.005 219.515 119.722 217.941 125.44 216.682C137.087 214.268 148.681 212.065 160.222 210.071L177.692 206.922C183.41 205.978 189.286 204.719 195.004 203.932L212.474 201.098L229.944 198.58L264.568 193.385Z" fill="#967A51"/>
<path d="M514.076 410.294C487.764 406.675 461.122 406.041 434.665 408.405C406.289 409.035 377.86 408.563 349.378 406.989C290.163 403.359 231.794 391.217 176.104 370.942C150.534 361.813 51.2704 329.071 79.0641 289.719C94.9463 268.154 129.569 256.034 152.916 245.959C178.645 235.098 204.533 225.181 230.897 215.894C235.027 214.32 232.168 209.598 228.515 210.227C168.957 219.672 85.5758 223.765 40.4705 270.358C-4.63474 316.951 53.8115 362.285 94.7874 383.692C156.887 416.119 226.927 425.563 295.538 432.804C332.483 436.387 369.591 438.068 406.713 437.841C442.29 440.26 478.034 437.502 512.805 429.655C521.858 426.665 526.94 412.97 514.076 410.294Z" fill="#B49C6D"/>
<g style="mix-blend-mode:multiply">
<path d="M807.737 417.378L812.66 406.202L816.948 394.711C828.701 391.405 840.295 388.1 851.889 384.479L869.042 378.97C874.918 377.081 880.636 375.35 886.353 373.146C897.63 369.211 909.065 365.118 920.341 360.868C931.617 356.618 942.735 351.895 953.852 346.858C975.979 337.276 996.966 325.293 1016.43 311.127C1026.01 303.968 1034.56 295.547 1041.84 286.099C1049.13 276.779 1053.35 265.455 1053.91 253.673C1053.82 241.886 1049.86 230.449 1042.63 221.089C1035.45 211.674 1026.22 203.981 1015.63 198.579C994.035 187.943 970.79 180.973 946.864 177.959C934.953 175.913 922.882 174.496 910.812 173.236L892.865 171.347C886.83 171.347 880.795 170.088 874.759 169.773C868.724 169.458 862.689 168.671 856.654 168.357L838.548 167.57C832.513 167.57 826.478 167.57 820.442 167.57C814.407 167.57 808.531 167.57 802.337 167.57C801.989 167.571 801.646 167.485 801.341 167.32C801.035 167.155 800.777 166.916 800.59 166.625L796.778 159.542C795.507 157.338 794.396 154.82 792.966 152.616C790.108 148.051 787.567 143.486 784.549 139.079C781.531 134.671 778.673 130.264 775.337 126.014C772.002 121.764 768.984 117.514 765.49 113.421L760.408 107.282L755.008 101.458C753.102 99.4116 751.514 97.3653 749.608 95.6338L743.891 89.9673C740.079 86.0321 735.95 82.7265 731.979 79.1061C728.008 75.4857 723.879 72.1802 719.75 68.8746L712.126 63.2076H714.032H711.65L697.832 53.6059C692.909 50.7725 688.303 47.6241 683.38 44.9481C673.578 39.1345 663.45 33.8791 653.045 29.2072C647.962 27.1609 642.721 24.8 637.163 23.0685C631.604 21.337 626.68 19.2904 621.28 17.8737L613.181 15.5127L604.922 13.4663C599.522 12.0496 593.963 10.9481 589.04 9.84621C577.962 7.74934 566.774 6.27784 555.528 5.43878H538.693C532.976 5.43878 527.258 5.43878 521.699 5.43878C499.137 6.64915 476.799 10.506 455.153 16.9293C444.316 20.1077 433.704 23.9994 423.389 28.5779L407.507 35.661L392.578 43.689L378.125 52.3463L364.307 61.9485C355.255 68.7171 346.678 75.8003 338.42 83.3559C322.517 98.8067 308.401 115.965 296.332 134.514C290.126 143.822 284.401 153.436 279.179 163.32C274.256 173.237 269.65 183.468 265.679 193.857C265.574 194.085 265.42 194.287 265.228 194.45C265.036 194.613 264.811 194.733 264.568 194.802C251.385 196.061 238.203 197.478 225.18 199.209C212.156 200.941 198.974 203.459 185.951 205.82L146.881 213.218C134.016 215.894 120.993 218.413 108.287 221.876C95.4931 225.054 82.9199 229.05 70.6467 233.839C58.5139 238.736 47.0005 245.023 36.3412 252.571C25.5522 259.631 16.6656 269.195 10.4533 280.432C5.73252 292.214 5.00785 305.197 8.38869 317.423C11.7852 329.781 17.9158 341.234 26.3355 350.951C35.0901 360.551 45.2647 368.778 56.5116 375.35C79.4573 388.255 103.949 398.25 129.411 405.1C142.116 408.878 154.981 412.341 167.687 415.804C180.392 419.267 193.416 422.257 206.28 425.091C232.168 430.443 258.374 434.536 284.579 437.684C285.332 437.799 286.013 438.193 286.485 438.786C292.565 449.045 299.192 458.975 306.338 468.536C313.609 478.076 321.459 487.17 329.843 495.768C334.131 500.018 338.261 504.267 342.867 508.203C347.472 512.138 351.919 516.231 356.525 519.851L360.178 522.842L363.672 525.518L370.978 530.87C375.901 534.175 380.825 537.638 385.907 540.786C390.989 543.935 396.231 546.926 401.789 549.916C407.348 552.907 412.271 555.425 417.671 557.944C428.622 563.051 439.864 567.519 451.342 571.324C462.816 574.941 474.48 577.936 486.282 580.296C492.317 581.398 498.194 582.5 504.229 583.129L513.282 584.231H522.176C534.236 584.939 546.327 584.939 558.387 584.231C570.469 583.499 582.503 582.132 594.44 580.139C600.316 578.879 606.351 577.935 612.069 576.361C617.786 574.787 623.98 573.37 629.539 571.481C641.148 568.003 652.504 563.743 663.527 558.731C674.436 553.791 685.042 548.22 695.291 542.046C705.603 535.718 715.521 528.779 724.991 521.268C734.386 513.745 743.347 505.704 751.832 497.184C760.172 488.493 768.02 479.349 775.337 469.795V470.582L783.914 458.619L790.425 448.545C792.649 445.239 794.555 441.776 796.619 438.313C798.684 434.85 800.59 431.387 802.337 427.767L807.737 417.378ZM807.737 417.378L802.496 428.239C800.749 431.859 798.684 435.323 796.778 438.786C794.872 442.249 792.966 445.711 790.743 449.174L784.39 459.249L775.655 471.212H776.449C769.187 480.86 761.337 490.059 752.943 498.758C736.112 516.166 717.175 531.446 696.562 544.249C686.336 550.604 675.728 556.334 664.797 561.407C653.791 566.547 642.434 570.913 630.81 574.472C624.933 576.518 619.057 577.935 613.181 579.509C607.304 581.083 601.428 582.185 595.393 583.445C571.385 588.01 546.89 589.544 522.494 588.009H513.282L504.229 587.065C498.194 587.065 492 585.333 486.123 584.389C474.111 582.099 462.234 579.157 450.547 575.574C438.85 571.866 427.394 567.45 416.242 562.351C410.683 559.99 405.283 557.157 400.36 554.324C395.436 551.49 389.56 548.499 384.478 545.194C379.396 541.888 374.313 538.583 368.596 535.12L361.29 529.768L357.478 526.934L353.984 524.101C349.219 520.323 344.455 516.388 340.008 512.295C335.561 508.203 331.114 503.795 326.826 499.545C318.334 490.79 310.379 481.538 303.002 471.841C295.659 462.132 288.923 451.987 282.832 441.461L284.579 442.721C258.215 439.573 231.85 435.323 205.168 429.813C192.145 426.98 179.122 423.989 166.416 420.526C153.71 417.063 140.846 413.6 127.981 409.822C102.113 402.841 77.2437 392.633 53.9704 379.442C42.1316 372.662 31.4178 364.114 22.2061 354.1C13.1743 343.926 6.55377 331.878 2.82985 318.84C-0.920597 305.624 -0.0815608 291.544 5.21219 278.858C11.6553 266.911 21.0551 256.783 32.5295 249.423C43.4932 241.734 55.3263 235.341 67.7879 230.376C80.251 225.709 92.9784 221.767 105.905 218.57C118.77 215.265 131.793 212.746 144.816 210.07L185.157 202.672C198.18 200.311 211.362 198.107 224.545 196.375C237.727 194.644 250.909 193.227 264.091 192.126L262.979 192.912C267.109 182.419 271.714 172.187 276.797 162.218C282.071 152.23 287.849 142.51 294.108 133.097C306.858 114.516 321.667 97.4092 338.261 82.0969C346.554 74.4461 355.305 67.2971 364.466 60.689C369.072 57.226 373.837 54.2355 378.442 51.0873L393.054 42.2724L407.983 34.402L423.865 27.1608C434.251 22.8007 444.852 18.9658 455.63 15.6703C477.349 9.02242 499.8 5.00534 522.494 3.70703H539.487H556.64C567.996 4.41584 579.294 5.83518 590.469 7.9569L607.145 11.4199L615.404 13.3092L623.663 15.6703C629.063 17.2444 634.463 19.1332 639.545 21.0221C644.627 22.911 650.186 24.9571 655.427 27.1608C665.934 31.5408 676.169 36.5343 686.08 42.1149C691.003 44.7908 695.768 47.9388 700.691 50.7722L714.826 60.3744H712.444C712.694 60.1829 713.001 60.0789 713.317 60.0789C713.634 60.0789 713.941 60.1829 714.191 60.3744L718.003 63.2076L719.909 64.6242L720.862 65.4116C724.991 68.8746 729.12 72.0228 733.25 75.8006C737.379 79.5784 741.508 82.7262 745.161 86.6614L751.037 92.3284C752.943 94.0599 754.69 96.2635 756.596 98.1524L762.155 104.134L767.237 110.273C770.89 114.365 774.067 118.616 777.402 122.866C780.737 127.116 783.596 131.681 786.613 136.088C789.631 140.495 792.331 145.218 795.19 149.783C798.049 154.347 797.89 154.505 799.16 156.866L803.131 163.949L801.225 162.848C807.26 162.848 813.454 162.848 819.49 162.848C825.525 162.848 831.719 162.848 837.754 162.848H856.019L874.124 164.107C886.353 164.894 898.265 166.311 910.335 167.57C922.406 168.829 934.476 170.561 946.547 172.607C970.833 175.917 994.394 183.205 1016.27 194.172C1027.2 199.95 1036.73 208.005 1044.22 217.783C1051.7 227.743 1055.71 239.841 1055.66 252.256C1055.08 264.6 1050.58 276.446 1042.79 286.099C1035.42 295.772 1026.64 304.311 1016.75 311.441C996.959 325.501 975.651 337.327 953.217 346.701C931.141 356.461 908.429 364.646 885.4 372.674C879.842 374.72 873.965 376.451 868.248 378.34L850.936 383.693C839.342 387.313 827.748 390.461 815.996 393.766C814.407 397.544 812.978 401.48 811.549 405.257L807.737 417.378Z" fill="#282151"/>
</g>
<g style="mix-blend-mode:multiply">
<path d="M820.443 204.876C823.46 213.061 826.001 221.719 828.225 230.219C830.448 238.719 832.513 247.534 833.943 256.191C833.943 258.395 833.943 260.599 834.895 262.802L835.848 269.414C835.848 273.821 836.642 278.386 836.801 282.794C836.96 287.201 836.801 287.201 836.801 289.562C836.957 291.763 836.957 293.972 836.801 296.173C836.801 298.535 836.801 300.738 836.801 302.942L836.325 309.71L833.784 307.349C853.796 300.671 873.191 292.297 891.754 282.321C900.946 277.341 909.663 271.546 917.8 265.006C921.79 261.788 925.411 258.146 928.6 254.145C931.853 250.347 934.092 245.801 935.112 240.923C935.133 238.674 934.538 236.462 933.392 234.522C932.245 232.581 930.589 230.985 928.6 229.904C924.363 226.987 919.775 224.608 914.941 222.821C904.814 219.571 894.464 217.046 883.971 215.265C873.648 213.219 863.007 211.487 852.207 209.913L820.443 204.876ZM820.443 204.876C841.723 206.033 862.929 208.292 883.971 211.644C894.756 213.342 905.38 215.922 915.735 219.358C920.995 221.031 925.973 223.471 930.506 226.598C932.984 228.19 935.095 230.281 936.7 232.737C937.537 234.037 938.129 235.478 938.447 236.988C938.614 237.766 938.614 238.57 938.447 239.349C938.605 240.128 938.605 240.93 938.447 241.71C937.38 247.451 934.928 252.851 931.3 257.451C927.942 261.747 924.106 265.655 919.865 269.099C911.612 275.968 902.672 281.98 893.183 287.043C883.654 292.081 873.965 296.645 864.119 300.738C854.272 304.831 844.266 308.609 834.101 311.914C833.554 312.065 832.969 312.002 832.467 311.738C831.965 311.475 831.584 311.031 831.401 310.497C831.401 310.497 831.401 310.497 831.401 309.553L832.354 303.099C832.511 300.951 832.511 298.794 832.354 296.646C832.51 294.445 832.51 292.235 832.354 290.034C832.354 287.831 832.354 285.784 832.354 283.58C832.354 281.377 832.354 274.766 832.354 270.358C832.354 265.951 832.354 265.951 832.354 263.747C832.354 261.543 832.354 259.497 831.56 257.293C829.077 239.588 825.362 222.074 820.443 204.876Z" fill="#282151"/>
</g>
<g style="mix-blend-mode:multiply">
<path d="M253.768 226.283C252.815 231.005 252.18 235.885 251.544 240.765C250.909 245.644 250.115 250.524 249.797 255.403V262.802C249.797 265.163 249.797 267.681 249.797 270.2C249.797 272.719 249.797 279.96 249.797 284.839V299.635C249.797 304.515 249.797 309.395 249.797 314.275V321.515C249.797 324.034 249.797 326.395 250.75 328.756L252.815 343.238C252.86 343.507 252.85 343.783 252.786 344.048C252.723 344.313 252.606 344.563 252.443 344.783C252.28 345.003 252.075 345.188 251.839 345.329C251.602 345.469 251.34 345.561 251.068 345.599C240.744 344.025 230.739 341.979 220.733 339.46C210.678 337.126 200.762 334.236 191.033 330.803C181.104 327.442 171.696 322.727 163.081 316.793C158.522 313.742 154.721 309.706 151.963 304.988C151.299 303.695 150.818 302.318 150.534 300.895C150.409 300.166 150.409 299.42 150.534 298.691V296.802C150.381 295.389 150.381 293.965 150.534 292.552C150.811 291.165 151.183 289.797 151.646 288.459C153.8 283.575 156.872 279.141 160.698 275.395C164.308 271.652 168.241 268.228 172.451 265.163C180.868 259.328 189.676 254.069 198.816 249.422C207.904 244.696 217.234 240.439 226.768 236.672C235.567 232.715 244.58 229.247 253.768 226.283ZM253.768 226.283C234.675 233.4 216.147 241.924 198.339 251.783C189.481 256.684 180.989 262.207 172.928 268.311C169.005 271.37 165.291 274.683 161.81 278.228C158.396 281.66 155.697 285.725 153.869 290.191C153.525 291.421 153.364 292.693 153.393 293.969C153.229 295.012 153.229 296.074 153.393 297.117V299.006V300.423C153.393 301.525 154.346 302.626 154.663 303.571C157.12 307.677 160.487 311.176 164.51 313.803C172.84 319.306 181.864 323.699 191.351 326.867C210.534 333.844 230.306 339.112 250.433 342.608L248.05 344.969L245.986 330.173C245.986 327.812 245.986 325.293 245.986 322.774V315.376C245.986 310.339 245.986 305.46 245.986 300.423V285.626C245.986 283.108 245.986 280.747 245.986 278.228V270.83C246.093 268.402 246.358 265.983 246.78 263.589L247.891 256.191C248.527 251.364 249.321 246.484 250.274 241.552C251.385 235.728 252.656 231.005 253.768 226.283Z" fill="#282151"/>
</g>
<g style="mix-blend-mode:multiply">
<path d="M249.797 343.711L256.309 344.813L274.891 347.804C282.832 349.22 292.52 350.479 303.796 351.896C315.073 353.313 327.62 354.887 341.437 355.989L362.878 358.035L385.907 359.766C393.848 359.766 401.789 360.711 410.366 361.026L435.936 362.285H462.3C471.194 362.285 480.088 362.285 489.3 362.285C507.405 362.285 525.829 362.285 544.252 360.554L571.887 359.137C581.099 359.137 590.151 357.563 599.204 356.776L626.204 354.257L652.251 350.637L677.503 347.016L701.485 342.609L724.197 338.359C731.502 336.942 738.491 335.053 745.161 333.479L781.849 324.507L809.643 316.007L834.101 308.608L809.96 316.951L782.325 326.238L745.796 335.998C739.126 337.729 732.138 339.933 724.832 341.35L702.121 346.072L678.138 350.951C669.88 352.368 661.462 353.47 652.886 354.729L626.68 358.507C617.786 359.609 608.733 360.396 599.681 361.183L572.363 363.859L544.57 365.433C526.146 366.535 507.564 366.535 489.3 366.692C480.088 366.692 471.035 366.692 462.141 366.692H435.777C418.307 365.748 401.63 365.119 385.748 363.544L362.56 361.498L341.119 359.137C327.302 357.72 314.596 355.516 303.479 353.942C292.361 352.368 282.673 350.637 274.732 349.063L256.309 345.442L249.797 343.711Z" fill="#282151"/>
</g>
<g style="mix-blend-mode:overlay">
<path d="M498.988 10.6328C498.988 10.6328 262.185 52.9756 260.756 286.885C260.915 287.515 282.038 72.4945 498.988 10.6328Z" fill="white"/>
</g>
<g style="mix-blend-mode:multiply" opacity="0.7">
<path d="M781.69 448.072C781.69 448.072 632.874 605.481 458.171 564.555C458.171 564.555 627.474 638.222 781.69 448.072Z" fill="#223A8E"/>
</g>
<defs>
<radialGradient id="paint0_radial_115_156" cx="0" cy="0" r="1" gradientUnits="userSpaceOnUse" gradientTransform="translate(180.862 550.162) rotate(28.6706) scale(643.634 640.557)">
<stop stop-color="#2B2B2B"/>
<stop offset="0.39" stop-color="#2D2D2D"/>
<stop offset="0.53" stop-color="#343434"/>
<stop offset="0.63" stop-color="#3F3F3F"/>
<stop offset="0.71" stop-color="#505050"/>
<stop offset="0.77" stop-color="#666666"/>
<stop offset="0.84" stop-color="#828282"/>
<stop offset="0.89" stop-color="#A2A2A2"/>
<stop offset="0.94" stop-color="#C8C8C8"/>
<stop offset="0.99" stop-color="#F1F1F1"/>
<stop offset="1" stop-color="white"/>
</radialGradient>
</defs>
</svg>
