<svg width="1045" height="1046" viewBox="0 0 1045 1046" fill="none" xmlns="http://www.w3.org/2000/svg">
<path d="M1044.01 521.172C1044.4 623.361 1014.19 723.366 957.189 808.522C900.191 893.678 818.977 960.154 723.832 999.529C628.687 1038.9 523.892 1049.41 422.719 1029.71C321.546 1010.01 228.547 961 155.501 888.879C82.455 816.758 32.648 724.774 12.3883 624.576C-7.87144 524.379 2.32761 420.476 41.6937 326.028C81.0597 231.58 147.822 150.835 233.524 94.0208C319.227 37.2064 420.014 6.87814 523.12 6.8774C591.394 6.74839 659.025 19.9487 722.152 45.7247C785.279 71.5006 842.666 109.347 891.035 157.104C939.404 204.861 977.809 261.592 1004.06 324.059C1030.3 386.526 1043.88 453.505 1044.01 521.172Z" fill="#E84A27"/>
<path d="M1045 521.171C1044.8 524.276 1044.8 527.391 1045 530.495C1045 536.875 1045 545.708 1045 557.486C1042.96 591.835 1037.32 625.88 1028.16 659.069C995.315 778.772 920.765 883.082 817.729 953.512C784.065 975.698 748.031 994.13 710.284 1008.48C646.232 1032.43 578.019 1043.56 509.599 1041.2C441.179 1038.84 373.912 1023.05 311.694 994.735C231.348 958.674 161.312 903.374 107.896 833.813C54.4789 764.252 19.3581 682.615 5.69587 596.254C-1.89862 545.824 -1.89862 494.556 5.69587 444.125C8.16426 419.274 12.6346 394.659 19.0646 370.514C33.791 321.747 55.4659 275.313 83.4332 232.617C139.001 149.491 217.322 83.7825 309.218 43.1914C352.851 23.7904 399.022 10.5744 446.372 3.93235C458.256 3.93235 469.644 0.497087 481.528 0.00634766H498.858H514.207C526.586 0.00634766 536.984 0.00634766 548.372 0.00634766C559.76 0.00634766 571.149 0.00641511 582.042 2.95085C625.295 7.55167 667.747 17.7816 708.303 33.3766C785.373 63.0577 854.285 110.349 909.436 171.405C964.586 232.46 1004.42 305.556 1025.69 384.746C1034.88 417.762 1040.52 451.647 1042.52 485.838C1042.52 497.616 1042.52 506.94 1042.52 512.829C1043.16 515.662 1043.99 518.449 1045 521.171ZM1045 521.171V511.847C1045 505.958 1045 496.634 1045 484.857C1042.19 451.619 1036.06 418.741 1026.68 386.709C1020.21 363.15 1011.76 340.169 1001.43 318.005C989.482 292.1 975.232 267.302 958.845 243.904C916.314 182.247 860.849 130.42 796.244 91.9681C731.639 53.5159 659.417 29.345 584.517 21.1081C574.119 21.1081 563.226 21.1081 552.333 21.1081H502.819H485.984C475.091 21.1081 463.703 21.108 452.81 25.034C430.074 28.3146 407.579 33.0687 385.47 39.2654L352.296 49.5709C341.403 53.9876 330.509 57.9135 319.616 62.8209C228.884 102.305 151.544 166.85 96.8412 248.741C42.1381 330.631 12.3861 426.403 11.1421 524.606C11.0647 549.717 12.7194 574.803 16.0938 599.69C19.4222 624.439 24.7202 648.888 31.9384 672.81C46.4339 720.57 67.778 766.019 95.3166 807.763C150.149 887.154 226.784 949.314 316.15 986.883C327.043 992.281 337.937 995.716 348.83 1000.13C359.723 1004.55 371.111 1007.49 382.499 1009.95C404.728 1016.22 427.405 1020.81 450.334 1023.69C461.722 1023.69 472.615 1026.63 484.003 1027.12H500.838H514.207C525.1 1027.12 536.488 1027.12 547.382 1027.12L580.061 1024.18C654.954 1015.51 727.108 991.06 791.673 952.462C856.239 913.864 911.72 862.016 954.389 800.402C970.633 776.83 984.718 751.867 996.476 725.81C1006.94 703.813 1015.55 680.998 1022.22 657.597C1031.23 625.501 1037.2 592.643 1040.05 559.449C1040.05 547.671 1040.05 538.347 1040.05 532.458L1045 521.171Z" fill="#671414"/>
<g style="mix-blend-mode:multiply">
<path d="M205.239 928.485C237.5 952.821 272.371 973.557 309.218 990.318C327.009 991.134 344.527 985.751 358.733 975.105C408.247 926.031 286.937 861.744 344.869 817.578C381.968 799.43 423.87 793.252 464.693 799.911C493.411 799.911 586.993 810.707 583.527 762.615C580.884 734.646 567.393 708.785 545.896 690.476C526.835 678.945 508.928 665.634 492.421 650.726C486.053 642.339 481.608 632.676 479.397 622.411C477.186 612.146 477.261 601.526 479.619 591.292C481.976 581.059 486.558 571.459 493.045 563.162C499.533 554.865 507.768 548.071 517.178 543.255C544.906 528.532 582.537 522.643 602.343 494.181C612.709 480.693 617.989 464.036 617.265 447.097C616.542 430.157 609.861 414.002 598.381 401.431C585.744 386.35 568.179 376.131 548.734 372.545C529.288 368.96 509.19 372.234 491.926 381.801C468.159 400.446 446.42 421.499 427.062 444.616C377.548 489.764 323.578 457.866 265.646 472.588C228.51 481.912 182.957 533.931 216.132 570.736C233.127 588.146 246.576 608.64 255.743 631.097C272.578 680.171 274.558 752.8 221.083 781.263C203.258 790.587 127.501 811.689 113.637 837.698C140.189 871.665 170.967 902.169 205.239 928.485Z" fill="#AF3718"/>
</g>
<g style="mix-blend-mode:multiply">
<path d="M882.594 147.228C878.139 148.93 874.108 151.565 870.775 154.953C867.443 158.341 864.887 162.401 863.283 166.858C840.506 226.237 895.962 273.839 919.729 321.931C935.574 354.32 925.671 411.737 882.594 420.079C856.351 424.986 828.623 410.264 803.37 417.625C786.343 422.639 771.429 433.016 760.886 447.184C750.343 461.352 744.747 478.54 744.944 496.144C744.944 534.421 769.206 643.365 828.623 609.504C862.293 590.365 886.554 556.014 923.69 542.273C942.137 534.698 962.388 532.521 982.045 536C1001.7 539.479 1019.94 548.468 1034.6 561.903L1041.53 569.755C1041.53 553.56 1041.53 536.875 1041.53 520.681C1042 450.999 1028.15 381.953 1000.83 317.748C973.504 253.543 933.275 195.525 882.594 147.228Z" fill="#AF3718"/>
</g>
<g style="mix-blend-mode:multiply">
<path d="M647.402 22.0898C647.198 34.2828 644.505 46.3085 639.484 57.4417C634.463 68.5748 627.219 78.5847 618.188 86.8674C582.043 117.784 526.092 144.284 504.306 188.45C493.908 208.571 504.305 250.774 533.024 246.848C553.324 244.395 568.674 225.746 582.538 213.478C609.771 189.923 644.926 168.821 681.566 190.904C708.304 207.589 722.663 243.413 741.479 267.459C749.401 277.765 766.731 305.246 782.575 304.265C798.42 303.283 799.41 238.506 796.439 225.256C782.575 173.728 743.955 132.015 734.052 78.0341C732.062 68.649 732.062 58.9562 734.052 49.5711C706.134 37.6515 677.115 28.448 647.402 22.0898Z" fill="#AF3718"/>
</g>
<g style="mix-blend-mode:multiply">
<path d="M231.977 113.858C254.82 113.945 277.461 118.101 298.821 126.127C302.287 126.127 302.287 131.034 298.821 133.978C295.355 136.923 274.559 163.423 291.889 165.876C304.884 166.813 317.924 164.799 330.015 159.987C360.235 150.855 389.435 138.687 417.16 123.673C435.866 115.804 452.508 103.797 465.81 88.571C479.113 73.3453 488.723 55.3048 493.907 35.8305C495.663 26.5877 495.663 17.1012 493.907 7.8584C390.939 13.8348 292.054 49.8612 209.695 111.404C217.063 112.686 224.505 113.506 231.977 113.858Z" fill="#AF3718"/>
</g>
<g style="mix-blend-mode:multiply">
<path d="M295.355 64.2937C303.277 68.7103 304.267 80.9788 306.743 87.8491C313.18 108.951 333.481 106.006 349.82 99.6267C375.073 89.3212 415.179 71.6547 421.616 42.2104C423.48 33.8266 424.476 25.2761 424.587 16.6919C377.982 25.3236 332.819 40.3541 290.403 61.3492L295.355 64.2937Z" fill="#AF3718"/>
</g>
<g style="mix-blend-mode:multiply">
<path d="M983.602 549.634C917.748 539.329 888.535 584.477 840.011 615.393C751.38 672.319 713.75 506.94 748.41 450.014C754.238 439.782 762.123 430.844 771.576 423.754C781.03 416.663 791.851 411.571 803.37 408.792C831.098 403.885 877.642 424.495 898.438 401.921C954.884 341.07 859.321 278.255 848.923 215.931C845.344 202.561 845.831 188.44 850.324 175.343C854.817 162.246 863.115 150.758 874.175 142.321C834.977 106.908 790.565 77.6184 742.468 55.4597C742.2 58.3982 742.2 61.3546 742.468 64.293C745.618 89.5373 754.232 113.809 767.72 135.45C796.662 176.363 810.318 225.991 806.341 275.802C802.875 295.922 790.496 327.82 764.749 309.663C737.349 285.658 714.393 257.092 696.915 225.255C666.711 182.07 625.614 188.941 587.983 221.329C570.158 237.033 538.469 270.403 510.246 252.246C503.657 247.365 498.258 241.081 494.446 233.856C490.634 226.631 488.508 218.651 488.222 210.503C487.937 202.355 489.501 194.248 492.799 186.779C496.096 179.31 501.043 172.67 507.275 167.348C538.469 131.034 581.546 108.95 615.711 75.58C630.063 60.4655 637.882 40.3875 637.497 19.6358C599.767 11.3818 561.262 7.10482 522.624 6.87646H504.304C507.758 21.0729 506.72 35.9786 501.333 49.5707C482.388 90.212 448.849 122.403 407.256 139.867C373.123 160.879 334.417 173.498 294.363 176.672C265.645 176.672 276.538 150.663 287.432 134.469C257.38 131.368 227.594 126.12 198.306 118.765C184.916 129.099 172.183 140.244 160.18 152.135C159.44 158.822 159.44 165.569 160.18 172.256C163.646 208.079 193.354 208.079 218.607 221.329C236.856 234.513 251.889 251.585 262.6 271.288C273.312 290.991 279.428 312.825 280.5 335.181C281.824 356.241 277.367 377.262 267.602 396.013C257.838 414.763 243.131 430.541 225.044 441.671C189.889 468.171 120.569 490.745 122.054 545.708C122.054 579.569 142.85 588.893 156.219 616.375C159.306 624.327 160.553 632.864 159.867 641.358C159.182 649.851 156.582 658.084 152.258 665.449C135.918 697.347 84.423 702.254 59.1708 726.791L49.2681 737.587C64.9876 772.464 84.7623 805.403 108.19 835.735C115.59 826.8 124.889 819.595 135.423 814.633C184.937 789.605 249.306 782.244 256.733 716.485C261.345 677.429 250.716 638.102 227.024 606.56C215.636 593.31 197.811 579.569 197.316 560.921C196.31 538.618 203.632 516.73 217.881 499.439C232.13 482.148 252.308 470.667 274.558 467.19C300.235 462.288 326.619 462.288 352.295 467.19C396.363 475.532 419.635 450.505 446.372 418.116C458.66 399.04 476.519 384.126 497.571 375.36C518.623 366.593 541.869 364.389 564.216 369.042C583.743 374.981 600.741 387.153 612.562 403.662C624.383 420.171 630.365 440.091 629.575 460.32C624.624 509.394 585.507 529.514 543.915 546.199C502.323 562.884 464.693 599.199 499.848 637.967C516.683 657.597 541.935 666.43 559.76 687.041C577.585 707.652 605.808 750.346 592.934 779.791C586.168 790.228 576.75 798.716 565.624 804.402C554.499 810.087 542.059 812.77 529.556 812.18C490.44 815.615 450.829 812.18 411.217 812.18C392.698 811.197 374.207 814.559 357.247 821.994C328.033 838.679 348.334 871.068 362.198 892.661C383.984 923.577 397.353 967.253 355.761 990.809C346.933 995.241 337.374 998.067 327.538 999.151C390.391 1024.59 457.706 1037.43 525.595 1036.94H547.877C521.728 1020.65 502.389 995.559 493.411 966.272C486.974 946.151 479.547 906.402 503.809 893.152C529.264 884.551 556.408 882.029 583.032 885.79C602.194 887.598 621.494 884.27 638.915 876.155C656.335 868.04 671.236 855.437 682.06 839.661C708.798 795.494 660.769 758.689 638.488 724.828C634.081 719.385 630.896 713.072 629.146 706.312C627.397 699.552 627.122 692.499 628.34 685.626C629.558 678.752 632.242 672.215 636.212 666.45C640.182 660.686 645.346 655.828 651.361 652.199C680.575 636.004 758.808 652.199 767.72 688.023C768.978 715.143 772.791 742.087 779.108 768.504C798.419 809.235 833.079 773.411 845.457 749.856C857.836 726.3 878.137 665.449 916.758 656.615C975.185 642.875 995.485 693.421 994.495 745.93C1019.45 696.924 1036.17 644.215 1044.01 589.875C1037.82 578.947 1029.14 569.612 1018.64 562.622C1008.15 555.633 996.148 551.184 983.602 549.634Z" fill="#DF091E"/>
</g>
<g style="mix-blend-mode:multiply">
<path d="M959.836 673.3C903.389 630.115 870.71 719.43 850.904 755.744C838.526 777.337 801.39 815.615 777.128 786.661C764.885 766.998 759.492 743.896 761.779 720.902C761.779 706.18 761.779 687.041 747.419 677.717C734.43 669.198 720.009 663.049 704.837 659.559C674.138 652.689 618.187 662.504 640.964 704.217C650.68 719.482 661.433 734.074 673.148 747.893C685.427 759.2 693.874 773.996 697.332 790.251C700.789 806.505 699.087 823.422 692.459 838.679C658.789 894.133 605.809 894.133 547.382 894.624C528.566 894.624 500.343 894.624 497.868 919.161C496.798 934.782 499.514 950.43 505.79 964.799C514.834 991.513 534.013 1013.69 559.266 1026.63C559.792 1027.09 560.214 1027.66 560.503 1028.29C560.792 1028.93 560.942 1029.62 560.942 1030.31C560.942 1031.01 560.792 1031.7 560.503 1032.33C560.214 1032.97 559.792 1033.53 559.266 1033.99C647.423 1028.18 732.636 1000.22 806.875 952.739C881.113 905.261 941.933 839.831 983.603 762.615C987.341 746.938 987.128 730.59 982.983 715.013C978.838 699.437 970.888 685.111 959.836 673.3Z" fill="#AF3718"/>
</g>
<g style="mix-blend-mode:multiply">
<path d="M92.8418 687.04C119.084 674.281 170.579 653.67 142.356 614.411C127.99 599.353 117.316 581.217 111.162 561.411C88.8808 449.523 281.491 449.523 267.627 336.653C264.584 299.54 248.251 264.728 221.579 238.505C202.763 226.236 179.492 224.273 162.162 209.551C155.974 203.706 151.336 196.438 148.659 188.391C145.981 180.345 145.347 171.769 146.813 163.422C75.3481 236.181 27.3095 328.345 8.79615 428.214C-9.71718 528.084 2.12984 631.153 42.8327 724.337C56.4041 708.276 73.5127 695.517 92.8418 687.04Z" fill="#AF3718"/>
</g>
<g style="mix-blend-mode:multiply">
<path d="M386.956 592.329C384.502 586.757 383.235 580.742 383.235 574.662C383.235 568.582 384.502 562.568 386.956 556.996C390.859 550.264 396.977 545.067 404.285 542.274C408.615 540.181 413.082 538.377 417.655 536.875C426.567 521.172 423.596 511.848 409.732 507.922C395.746 501.322 380.122 498.904 364.772 500.963C349.421 503.023 335.009 509.47 323.296 519.517C311.583 529.564 303.077 542.776 298.818 557.537C294.56 572.298 294.732 587.969 299.315 602.634L306.247 613.431C317.556 633.47 324.157 655.78 325.558 678.699C330.39 702.389 328.762 726.926 320.842 749.785C312.922 772.643 298.997 792.995 280.5 808.745C255.248 823.958 195.335 849.476 228.015 887.754C237.918 900.022 260.199 920.634 277.529 906.893C286.442 900.513 277.529 889.717 277.529 882.356C275.703 871.988 274.874 861.472 275.053 850.949C275.578 839.445 278.5 828.174 283.635 817.844C288.77 807.514 296.007 798.35 304.891 790.928C313.775 783.507 324.112 777.988 335.253 774.72C346.394 771.452 358.097 770.505 369.626 771.94C397.354 771.94 462.217 774.884 468.654 736.116C469.159 718.028 462.595 700.447 450.334 687.042C425.378 658.16 404.092 626.351 386.956 592.329Z" fill="#AF3718"/>
</g>
<g style="mix-blend-mode:multiply">
<path d="M552.333 412.718C551.502 412.599 550.743 412.185 550.196 411.554C549.65 410.922 549.354 410.115 549.362 409.283C535.802 403.992 520.786 403.654 506.998 408.329C493.21 413.004 481.549 422.388 474.101 434.801C463.207 458.357 474.1 503.014 508.265 502.033C547.877 501.542 609.769 434.801 552.333 412.718Z" fill="#AF3718"/>
</g>
<g style="mix-blend-mode:multiply">
<path d="M885.564 453.449C867.739 456.394 814.263 453.449 815.749 482.403C817.234 511.357 836.545 539.819 870.215 528.041C903.884 516.264 919.729 481.421 954.884 472.097C969.541 467.487 985.395 468.36 999.447 474.551C1011.33 479.458 1029.65 493.199 1043.02 492.218C1036.25 375.729 989.421 265.056 910.321 178.635C903.567 201.882 903.567 226.546 910.321 249.792C924.68 287.089 956.864 316.042 963.301 356.774C965.521 368.306 965.2 380.179 962.359 391.577C959.518 402.975 954.225 413.63 946.842 422.812C939.459 431.993 930.16 439.485 919.584 444.773C909.007 450.061 897.402 453.021 885.564 453.449Z" fill="#AF3718"/>
</g>
<g style="mix-blend-mode:multiply">
<path d="M638.984 103.062C621.654 115.821 535.995 152.136 559.266 180.598C582.538 209.061 636.013 142.321 648.887 124.654C669.212 97.7765 684.936 67.7677 695.43 35.8303L678.595 30.4321C677.314 44.5696 673.142 58.3003 666.331 70.7871C659.521 83.274 650.216 94.2553 638.984 103.062Z" fill="#AF3718"/>
</g>
<g style="mix-blend-mode:multiply">
<path d="M927.157 736.115C889.031 726.791 856.847 800.401 843.478 824.448C827.951 855.728 805.428 883.086 777.624 904.438C747.42 926.031 712.265 915.725 678.595 915.235C644.926 914.744 608.78 920.633 613.237 957.438C615.22 969.743 619.821 981.489 626.736 991.896C633.651 1002.3 642.721 1011.13 653.343 1017.8C761.59 990.223 858.074 928.995 928.643 843.096C939.536 805.309 951.419 743.476 927.157 736.115Z" fill="#AF3718"/>
</g>
<g style="mix-blend-mode:multiply">
<path d="M712.264 710.597C712.264 710.597 712.264 698.819 712.264 697.347C711.72 697.83 711.014 698.097 710.284 698.097C709.553 698.097 708.848 697.83 708.303 697.347C704.712 696.592 701.001 696.592 697.41 697.347C692.954 697.347 685.031 697.347 685.031 705.69C685.031 714.032 694.934 733.171 707.313 729.736C719.691 726.301 728.604 710.106 724.148 702.745C721.177 702.255 715.73 712.56 712.264 710.597Z" fill="#AF3718"/>
</g>
<g style="mix-blend-mode:multiply">
<path d="M172.064 401.431C181.875 390.727 187.034 376.621 186.423 362.172C186.423 343.033 163.151 359.228 156.714 362.172C146.689 369.536 134.533 373.495 122.054 373.459C107.2 370.024 91.3555 359.228 77.4915 373.459C67.9021 382.274 59.5727 392.345 52.7344 403.394C40.3557 424.98 24.652 444.518 6.19083 461.302C3.60657 481.485 2.28395 501.808 2.22998 522.153C2.32758 566.352 7.9826 610.368 19.0646 653.181C29.8045 651.189 39.9058 646.673 48.5212 640.013C57.1365 633.353 64.0148 624.742 68.5789 614.903C83.9283 574.171 42.8315 539.82 47.2878 499.579C55.21 427.931 132.947 444.616 172.064 401.431Z" fill="#AF3718"/>
</g>
<g style="mix-blend-mode:multiply">
<path d="M88.8794 301.811C105.219 307.7 114.627 324.876 132.452 305.737C150.277 286.598 162.16 263.042 145.82 245.376C129.481 227.709 130.471 238.996 115.122 234.58C111.813 233.773 108.723 232.256 106.071 230.136C103.419 228.016 101.269 225.345 99.7722 222.311C68.2173 265.474 43.8136 313.35 27.4814 364.135C47.7823 334.2 68.5785 294.45 88.8794 301.811Z" fill="#AF3718"/>
</g>
<g style="mix-blend-mode:multiply">
<path d="M867.739 771.94C851.894 766.051 835.059 778.81 826.642 791.078C821.961 796.591 818.73 803.166 817.235 810.217C817.235 810.217 817.235 813.652 817.235 815.615C816.323 819.688 816.433 823.921 817.556 827.942C818.678 831.963 820.778 835.65 823.671 838.68C827.207 841.831 831.791 843.578 836.545 843.587C840.304 844.602 844.257 844.685 848.056 843.829C851.855 842.973 855.384 841.205 858.331 838.68C867.413 831.146 874.259 821.308 878.137 810.217C883.088 795.495 885.069 777.828 867.739 771.94Z" fill="#AF3718"/>
</g>
<g style="mix-blend-mode:multiply">
<path d="M906.856 741.513C905.565 740.207 904.024 739.17 902.324 738.462C900.623 737.754 898.797 737.389 896.953 737.389C895.108 737.389 893.282 737.754 891.582 738.462C889.881 739.17 888.341 740.207 887.05 741.513C883.285 743.48 880.442 746.825 879.128 750.837C879.359 751.805 879.359 752.813 879.128 753.781C879.128 757.707 879.128 753.781 879.128 753.781C878.033 755.525 877.397 757.513 877.279 759.563C877.161 761.613 877.563 763.66 878.45 765.515C879.337 767.371 880.68 768.977 882.355 770.185C884.031 771.393 885.986 772.165 888.04 772.43C901.904 773.902 916.758 754.763 906.856 741.513Z" fill="#AF3718"/>
</g>
<g style="mix-blend-mode:multiply">
<path d="M750.39 869.105C746.961 866.137 742.563 864.501 738.011 864.501C733.459 864.501 729.061 866.137 725.633 869.105C721.86 871.654 718.794 875.102 716.718 879.133C714.641 883.163 713.62 887.646 713.749 892.17C713.611 895.474 714.773 898.702 716.99 901.174C719.207 903.646 722.305 905.168 725.633 905.42C729.953 905.394 734.192 904.248 737.927 902.096C741.662 899.943 744.764 896.86 746.924 893.151C749.337 890.699 751.343 887.883 752.866 884.809C754.306 882.3 754.846 879.38 754.396 876.528C753.947 873.676 752.534 871.059 750.39 869.105Z" fill="#AF3718"/>
</g>
<g style="mix-blend-mode:multiply">
<path d="M842.982 659.56C840.319 651.827 834.848 645.355 827.633 641.403C823.126 639.876 818.298 639.525 813.615 640.385C808.932 641.244 804.551 643.285 800.895 646.31C794.073 651.414 788.8 658.281 785.656 666.158C782.512 674.036 781.617 682.619 783.07 690.967C784.352 697.905 787.818 704.261 792.972 709.125H796.934C799.734 711.887 803.402 713.619 807.332 714.032C821.196 714.032 832.584 703.236 838.526 692.439C843.817 682.325 845.393 670.7 842.982 659.56Z" fill="#AF3718"/>
</g>
<g style="mix-blend-mode:multiply">
<path d="M933.098 473.57C931.761 472.145 930.045 471.124 928.147 470.626C928.189 469.469 927.956 468.319 927.466 467.269C926.976 466.218 926.243 465.297 925.327 464.58C924.41 463.863 923.336 463.37 922.192 463.142C921.047 462.913 919.864 462.955 918.739 463.264C916.208 463.912 913.962 465.369 912.351 467.41C910.74 469.45 909.852 471.96 909.826 474.551C908.333 481.176 908.333 488.047 909.826 494.672C909.826 502.033 920.72 502.033 926.166 498.107L932.108 493.69C933.636 492.519 934.889 491.033 935.782 489.336C936.675 487.638 937.186 485.768 937.28 483.856C937.374 481.944 937.049 480.035 936.327 478.259C935.605 476.483 934.504 474.883 933.098 473.57Z" fill="#AF3718"/>
</g>
<g style="mix-blend-mode:multiply">
<path d="M1006.38 420.57C1004.34 415.218 1000.71 410.6 995.982 407.32C992.447 404.804 988.204 403.45 983.851 403.45C979.498 403.45 975.255 404.804 971.72 407.32C961.282 417.565 954.931 431.204 953.839 445.723C952.748 460.243 956.988 474.664 965.778 486.329C966.831 490.493 969.508 494.072 973.221 496.281C976.935 498.489 981.382 499.146 985.584 498.107C995.747 498.508 1005.66 494.919 1013.17 488.119C1020.68 481.32 1025.18 471.86 1025.69 461.792C1025.56 453.965 1023.78 446.251 1020.45 439.15C1017.12 432.049 1012.33 425.72 1006.38 420.57Z" fill="#AF3718"/>
</g>
<g style="mix-blend-mode:multiply">
<path d="M968.749 314.569C956.865 314.569 946.467 325.366 946.467 336.162C946.524 338.177 947.044 340.153 947.988 341.939C948.932 343.725 950.274 345.274 951.914 346.467C954.972 348.429 958.668 349.166 962.253 348.528C965.839 347.89 969.046 345.926 971.224 343.032C974.131 338.366 976.145 333.209 977.166 327.819C977.291 325.024 976.552 322.258 975.048 319.89C973.544 317.522 971.346 315.666 968.749 314.569Z" fill="#AF3718"/>
</g>
<g style="mix-blend-mode:multiply">
<path d="M892.002 277.764C889.569 273.854 885.991 270.772 881.744 268.93C877.497 267.089 872.784 266.576 868.235 267.459C866.155 266.608 863.845 266.485 861.685 267.109C859.525 267.734 857.644 269.069 856.352 270.894C842.488 290.033 852.391 341.07 883.585 328.31C887.585 325.619 890.992 322.15 893.598 318.113C896.203 314.076 897.952 309.556 898.74 304.828C899.527 300.1 899.336 295.262 898.178 290.61C897.019 285.957 894.918 281.587 892.002 277.764Z" fill="#AF3718"/>
</g>
<g style="mix-blend-mode:multiply">
<path d="M722.168 553.07C717.711 535.894 692.954 545.709 690.974 559.449C690.974 561.903 690.974 564.357 690.974 566.32V570.736C690.159 573.342 690.37 576.157 691.564 578.616C692.758 581.074 694.847 582.993 697.411 583.986C701.183 585.304 705.281 585.396 709.109 584.248C712.938 583.101 716.298 580.775 718.702 577.607C720.597 575.483 722.018 572.986 722.871 570.279C723.724 567.573 723.991 564.719 723.653 561.903C723.772 558.889 723.266 555.883 722.168 553.07Z" fill="#AF3718"/>
</g>
<g style="mix-blend-mode:multiply">
<path d="M613.237 818.069C611.63 812.671 608.3 807.936 603.746 804.574C599.193 801.211 593.662 799.403 587.984 799.421C582.187 799.544 576.536 801.242 571.645 804.328C560.091 810.925 550.651 820.621 544.412 832.3C534.509 848.986 526.587 872.541 544.412 887.754C562.237 902.967 585.014 884.319 596.402 872.541C603.553 865.562 608.836 856.927 611.775 847.417C614.715 837.906 615.217 827.82 613.237 818.069Z" fill="#AF3718"/>
</g>
<g style="mix-blend-mode:multiply">
<path d="M440.432 895.605C439.953 892.081 438.622 888.723 436.553 885.819C434.484 882.914 431.738 880.547 428.548 878.919C423.304 877.42 417.755 877.311 412.455 878.603C407.155 879.895 402.29 882.542 398.345 886.281C393.212 889.809 388.915 894.402 385.751 899.74C382.588 905.079 380.634 911.035 380.024 917.197C379.709 921.096 380.639 924.995 382.683 928.342C384.727 931.689 387.781 934.313 391.413 935.845C396.623 937.058 402.046 937.058 407.257 935.845C413.703 934.277 419.765 931.44 425.082 927.503C427.79 925.711 430.106 923.397 431.893 920.699C433.679 918.001 434.899 914.974 435.481 911.799C438.84 907.067 440.576 901.389 440.432 895.605Z" fill="#AF3718"/>
</g>
<g style="mix-blend-mode:multiply">
<path d="M567.682 953.021C566.817 951.202 565.645 949.542 564.216 948.114C561.1 946.202 557.364 945.544 553.774 946.274C550.184 947.004 547.011 949.067 544.906 952.04C543.804 953.156 542.959 954.495 542.43 955.966C540.853 958.194 540.008 960.85 540.008 963.572C540.008 966.294 540.853 968.95 542.43 971.179C543.838 973.697 546.128 975.618 548.867 976.577C560.75 980.993 570.158 969.706 570.653 958.91C570.466 956.641 569.401 954.531 567.682 953.021Z" fill="#AF3718"/>
</g>
<g style="mix-blend-mode:multiply">
<path d="M999.942 613.921C1002.52 608.395 1003.7 602.334 1003.41 596.254C1003.41 582.023 993.01 568.773 977.165 572.208C970.199 574.413 963.933 578.378 958.984 583.713C954.035 589.048 950.574 595.569 948.942 602.634C947.985 606.834 947.985 611.193 948.942 615.393C948.241 619.806 948.906 624.327 950.851 628.357C952.796 632.387 955.929 635.738 959.835 637.967C965.814 639.735 972.215 639.49 978.038 637.271C983.861 635.051 988.778 630.982 992.02 625.699C995.435 622.343 998.13 618.336 999.942 613.921Z" fill="#AF3718"/>
</g>
<g style="mix-blend-mode:multiply">
<path d="M266.637 877.939C265.067 871.454 261.321 865.688 256.014 861.587C250.707 857.486 244.153 855.293 237.423 855.365L229.006 850.949C221.509 846.163 212.647 843.924 203.754 844.569C197.637 846.075 192.19 849.534 188.253 854.411C184.316 859.289 182.107 865.315 181.967 871.56C183.265 881.831 188.604 891.179 196.821 897.569C207.799 908.652 222.332 915.594 237.918 917.198C242.621 917.002 247.217 915.754 251.364 913.548C255.511 911.341 259.1 908.233 261.862 904.456C264.625 900.68 266.49 896.332 267.317 891.74C268.143 887.148 267.911 882.43 266.637 877.939Z" fill="#AF3718"/>
</g>
<g style="mix-blend-mode:multiply">
<path d="M325.063 915.236C324.182 913.713 323.003 912.378 321.597 911.31C318.872 909.317 315.575 908.242 312.189 908.242C308.803 908.242 305.506 909.317 302.782 911.31C296.84 915.727 291.393 927.013 297.335 933.884L300.801 937.81C303.135 939.145 305.781 939.848 308.476 939.848C311.17 939.848 313.817 939.145 316.15 937.81C319.979 935.475 323.202 932.281 325.558 928.486C327.539 926.523 329.024 919.162 325.063 915.236Z" fill="#AF3718"/>
</g>
<g style="mix-blend-mode:multiply">
<path d="M156.219 736.116C154.911 733.946 153.004 732.193 150.723 731.062C148.442 729.932 145.882 729.472 143.346 729.736C136.798 723.532 128.516 719.427 119.579 717.959C115.861 717.952 112.194 718.81 108.871 720.463C105.549 722.117 102.664 724.519 100.449 727.479C98.2334 730.438 96.7497 733.871 96.1164 737.501C95.4831 741.132 95.7181 744.86 96.8024 748.384C100.064 756.982 105.948 764.358 113.637 769.486C117.798 772.195 122.551 773.877 127.501 774.393C132.206 776.375 137.483 776.57 142.324 774.941C147.164 773.312 151.23 769.972 153.744 765.56C155.616 762.617 156.643 759.224 156.715 755.745C158.094 752.639 158.766 749.269 158.68 745.876C158.595 742.483 157.754 739.15 156.219 736.116Z" fill="#AF3718"/>
</g>
<g style="mix-blend-mode:multiply">
<path d="M263.665 758.198C261.378 757.735 259.02 757.735 256.733 758.198C254.34 758.95 252.133 760.194 250.258 761.849C248.384 763.504 246.883 765.534 245.854 767.804C244.826 770.074 244.293 772.534 244.291 775.023C244.288 777.511 244.816 779.972 245.84 782.244C253.267 793.531 271.587 784.698 273.073 773.411C273.073 773.411 273.073 769.485 273.073 767.522C272.764 765.156 271.674 762.958 269.972 761.271C268.27 759.584 266.052 758.504 263.665 758.198Z" fill="#AF3718"/>
</g>
<g style="mix-blend-mode:multiply">
<path d="M613.236 637.967C609.266 638.838 605.749 641.105 603.333 644.347C598.382 649.745 599.867 660.05 608.285 660.541C610.461 660.493 612.601 659.987 614.565 659.056C616.528 658.125 618.269 656.791 619.673 655.143C621.283 653.404 622.168 651.124 622.149 648.763C623.634 640.911 621.158 634.532 613.236 637.967Z" fill="#AF3718"/>
</g>
<g style="mix-blend-mode:multiply">
<path d="M825.157 357.755C825.157 347.45 820.205 329.783 806.837 329.783C799.988 330.548 793.534 333.348 788.32 337.814C783.106 342.281 779.377 348.206 777.623 354.811C774.676 360.153 773.131 366.144 773.131 372.232C773.131 378.32 774.676 384.311 777.623 389.653V392.107C778.981 394.69 780.946 396.912 783.353 398.584C785.759 400.256 788.536 401.33 791.449 401.715C794.362 402.1 797.326 401.785 800.09 400.796C802.854 399.807 805.338 398.173 807.331 396.033C811.225 393.086 814.293 389.2 816.244 384.746C817.734 382.901 819.06 380.93 820.205 378.857C820.674 375.438 820.674 371.971 820.205 368.551C822.146 365.091 823.802 361.48 825.157 357.755Z" fill="#AF3718"/>
</g>
<g style="mix-blend-mode:multiply">
<path d="M385.471 532.458C382.948 532.304 380.429 532.813 378.169 533.933C375.909 535.054 373.987 536.745 372.597 538.837C370.851 541.367 369.917 544.36 369.917 547.425C369.917 550.49 370.851 553.484 372.597 556.013C373.886 557.739 375.566 559.14 377.5 560.106C379.435 561.072 381.571 561.575 383.738 561.575C385.904 561.575 388.04 561.072 389.975 560.106C391.91 559.14 393.589 557.739 394.878 556.013C398.039 552.336 399.637 547.585 399.335 542.763C399.322 541.101 398.922 539.464 398.167 537.98C397.411 536.496 396.319 535.205 394.978 534.208C393.636 533.21 392.08 532.533 390.431 532.23C388.782 531.926 387.084 532.004 385.471 532.458Z" fill="#AF3718"/>
</g>
<path style="mix-blend-mode:multiply" d="M523.12 1045.28C810.799 1045.28 1044.01 815.024 1044.01 530.987C1044.01 246.949 810.799 16.6919 523.12 16.6919C235.44 16.6919 2.22998 246.949 2.22998 530.987C2.22998 815.024 235.44 1045.28 523.12 1045.28Z" fill="url(#paint0_radial_120_158)"/>
<path d="M199.296 136.432C199.296 136.432 -127.003 406.83 77.491 767.032C77.491 767.032 -79.9644 419.098 199.296 136.432Z" fill="white"/>
<g style="mix-blend-mode:multiply" opacity="0.7">
<path d="M975.185 298.375C975.185 298.375 1091.54 662.013 876.157 892.17C876.157 892.17 1137.59 698.328 975.185 298.375Z" fill="#250C0D"/>
</g>
<g style="mix-blend-mode:screen">
<path d="M291.889 511.357C290.174 508.866 287.89 506.812 285.223 505.363C282.555 503.913 279.58 503.108 276.539 503.014C269.197 503.049 262.068 505.462 256.238 509.884C251.72 512.726 247.905 516.54 245.076 521.042C242.248 525.545 240.478 530.621 239.898 535.894C238.766 540.405 238.766 545.123 239.898 549.634C242.099 553.223 245.403 556.017 249.324 557.607C253.245 559.197 257.578 559.498 261.685 558.468C270.516 556.063 278.33 550.9 283.966 543.746C288.554 539.857 291.788 534.635 293.21 528.821C294.633 523.006 294.17 516.896 291.889 511.357Z" fill="#E53323"/>
</g>
<g style="mix-blend-mode:screen">
<path d="M380.023 255.19C375.072 247.339 366.159 248.811 359.722 255.19C356.952 257.237 354.74 259.936 353.286 263.042C353.045 264.505 353.045 265.996 353.286 267.459C352.857 269.728 353.211 272.074 354.288 274.12C355.365 276.167 357.105 277.796 359.228 278.746C361.927 279.415 364.74 279.499 367.474 278.991C370.209 278.482 372.801 277.394 375.072 275.801C378.178 273.465 380.369 270.134 381.272 266.375C382.175 262.616 381.734 258.663 380.023 255.19Z" fill="#E53323"/>
</g>
<g style="mix-blend-mode:screen">
<path d="M331.994 346.468C331.994 338.125 322.091 336.162 314.664 336.653C307.544 338.163 301.214 342.171 296.839 347.94C290.655 353.567 286.777 361.253 285.946 369.533C286.009 372.21 286.611 374.848 287.716 377.292C288.822 379.735 290.408 381.936 292.383 383.764C294.561 385.538 297.134 386.774 299.888 387.371C302.642 387.968 305.5 387.909 308.227 387.199C313.359 386.005 318.041 383.385 321.724 379.648C325.407 375.911 327.939 371.21 329.023 366.097C329.238 365.127 329.238 364.123 329.023 363.153C331.981 358.117 333.034 352.203 331.994 346.468Z" fill="#E53323"/>
</g>
<g style="mix-blend-mode:screen">
<path d="M210.684 327.329C195.335 327.329 186.422 354.32 204.247 354.32C222.072 354.32 228.014 327.329 210.684 327.329Z" fill="#E53323"/>
</g>
<g style="mix-blend-mode:screen">
<path d="M672.159 310.153C670.053 308.611 667.63 307.548 665.063 307.039C662.496 306.531 659.847 306.588 657.305 307.209C648.044 309.579 639.746 314.72 633.538 321.931C629.076 325.725 625.747 330.659 623.914 336.196C622.081 341.733 621.813 347.661 623.14 353.338C624.358 356.971 626.674 360.144 629.775 362.426C632.875 364.709 636.609 365.991 640.47 366.098C645.889 366.187 651.215 364.702 655.791 361.823C660.367 358.945 663.992 354.801 666.217 349.903C671.59 344.804 675.077 338.064 676.12 330.764C677.437 327.3 677.764 323.543 677.065 319.907C676.366 316.27 674.669 312.895 672.159 310.153Z" fill="#E53323"/>
</g>
<g style="mix-blend-mode:screen">
<path d="M514.208 259.608C500.839 259.608 493.412 283.163 508.762 283.163C524.111 283.163 531.043 259.608 514.208 259.608Z" fill="#E53323"/>
</g>
<g style="mix-blend-mode:screen">
<path d="M651.857 212.987C649.159 211.303 646.147 210.175 642.999 209.669C639.852 209.163 636.634 209.29 633.537 210.042C622.779 212.592 613.191 218.639 606.304 227.218C603.65 230.188 601.731 233.73 600.699 237.564C599.668 241.397 599.553 245.416 600.362 249.302V252.246C600.435 255.443 601.462 258.548 603.312 261.168C605.163 263.788 607.754 265.806 610.76 266.968C616.18 267.942 621.758 267.603 627.017 265.98C632.276 264.356 637.061 261.496 640.964 257.644C649.512 251.563 655.643 242.709 658.294 232.616C659.166 229.075 659.026 225.362 657.889 221.895C656.752 218.428 654.664 215.344 651.857 212.987Z" fill="#E53323"/>
</g>
<g style="mix-blend-mode:screen">
<path d="M160.18 249.792C155.166 249.813 150.263 251.257 146.051 253.953C141.839 256.649 138.495 260.484 136.414 265.005C134.409 269.298 133.556 274.031 133.938 278.746C132.791 280.863 132.183 283.227 132.17 285.63C132.156 288.033 132.736 290.403 133.859 292.533C134.983 294.663 136.615 296.488 138.614 297.848C140.613 299.209 142.917 300.064 145.326 300.339C153.243 301.32 161.235 299.208 167.608 294.45V291.505L172.064 285.126C174.038 280.637 175.05 275.791 175.035 270.894C175.612 268.53 175.676 266.071 175.222 263.68C174.769 261.29 173.808 259.022 172.404 257.027C170.999 255.032 169.183 253.356 167.076 252.108C164.969 250.861 162.619 250.072 160.18 249.792Z" fill="#E53323"/>
</g>
<g style="mix-blend-mode:screen">
<path d="M135.424 319.477C122.55 319.477 115.123 342.542 129.977 342.542C144.832 342.542 150.278 319.477 135.424 319.477Z" fill="#E53323"/>
</g>
<path style="mix-blend-mode:screen" d="M150.772 774.884C168.326 768.251 183.155 756.02 192.926 740.117C202.697 724.214 206.854 705.543 204.743 687.041C198.801 629.625 160.18 579.079 165.131 520.19C166.665 502.424 173.052 485.408 183.608 470.97C194.163 456.531 208.488 445.215 225.044 438.237C263.378 426.273 303.207 419.666 343.383 418.607C359.906 418.633 376.174 414.56 390.703 406.76C405.232 398.96 417.561 387.681 426.567 373.95C434.396 355.063 444.363 337.118 456.275 320.459C472.329 302.88 494.26 291.655 518.016 288.859C541.772 286.062 565.746 291.884 585.507 305.246C607.294 318.496 630.07 351.376 655.818 354.32C705.332 360.7 705.332 317.515 716.225 286.598C716.225 286.598 720.681 281.2 723.157 282.672C751.38 295.431 767.72 331.746 796.438 339.598C835.059 352.357 841.496 272.367 836.545 251.265C831.593 230.163 819.214 202.191 810.797 177.654C802.38 153.117 788.516 123.673 801.885 100.608C703.007 34.5711 583.811 5.18305 465.24 17.6073C346.669 30.0315 236.308 83.4732 153.55 168.543C70.7909 253.612 20.9281 364.866 12.7231 482.758C4.518 600.649 38.4953 717.636 108.685 813.161C117.304 795.571 132.35 781.887 150.772 774.884Z" fill="url(#paint1_radial_120_158)"/>
<defs>
<radialGradient id="paint0_radial_120_158" cx="0" cy="0" r="1" gradientUnits="userSpaceOnUse" gradientTransform="translate(284.956 346.14) scale(741.723 727.776)">
<stop stop-color="white"/>
<stop offset="0.38" stop-color="#FEFDFD"/>
<stop offset="0.51" stop-color="#F9F6F6"/>
<stop offset="0.61" stop-color="#F1EBEB"/>
<stop offset="0.69" stop-color="#E5DADA"/>
<stop offset="0.76" stop-color="#D6C4C4"/>
<stop offset="0.81" stop-color="#C3A9A8"/>
<stop offset="0.87" stop-color="#AD8988"/>
<stop offset="0.92" stop-color="#936462"/>
<stop offset="0.96" stop-color="#773C39"/>
<stop offset="1" stop-color="#5A120F"/>
</radialGradient>
<radialGradient id="paint1_radial_120_158" cx="0" cy="0" r="1" gradientUnits="userSpaceOnUse" gradientTransform="translate(700.38 707.113) scale(751.132 737.007)">
<stop stop-color="#2B2B2B"/>
<stop offset="0.24" stop-color="#2E2D2C"/>
<stop offset="0.38" stop-color="#36322F"/>
<stop offset="0.51" stop-color="#443A35"/>
<stop offset="0.61" stop-color="#59473D"/>
<stop offset="0.71" stop-color="#735747"/>
<stop offset="0.8" stop-color="#946A54"/>
<stop offset="0.89" stop-color="#BB8264"/>
<stop offset="0.97" stop-color="#E69C75"/>
<stop offset="0.99" stop-color="#F4A47A"/>
</radialGradient>
</defs>
</svg>
