<svg width="702" height="697" viewBox="0 0 702 697" fill="none" xmlns="http://www.w3.org/2000/svg">
<path d="M330.809 581.893C367.826 581.893 348.146 531.272 318.626 531.272C281.609 531.272 301.289 581.893 330.809 581.893Z" fill="#A4B6C5"/>
<path d="M165.405 266.564C200.079 266.564 185.084 220.124 157.907 220.124C123.233 220.124 138.228 266.564 165.405 266.564Z" fill="#A4B6C5"/>
<path d="M699.103 347.833C699.382 416.431 679.106 483.567 640.845 540.732C602.585 597.898 548.062 642.519 484.188 668.941C420.313 695.362 349.962 702.394 282.051 689.147C214.139 675.899 151.724 642.969 102.717 594.527C53.709 546.086 20.3145 484.315 6.76564 417.043C-6.78324 349.771 0.123719 280.027 26.6106 216.65C53.0974 153.272 97.9719 99.1149 155.547 61.0412C213.122 22.9676 280.806 2.69211 350.02 2.78351C442.441 2.78318 531.09 39.1066 596.528 103.789C661.967 168.472 698.855 256.235 699.103 347.833Z" fill="#5B5A5A"/>
<path d="M350.02 695.671C280.647 695.487 212.886 674.931 155.295 636.599C97.7036 598.267 52.8664 543.878 26.447 480.303C0.0274792 416.729 -6.78905 346.82 6.85836 279.408C20.5058 211.995 54.0047 150.104 103.124 101.551C152.243 52.9984 214.78 19.9624 282.833 6.61618C350.886 -6.73004 421.404 0.211977 485.478 26.5659C549.553 52.9199 604.31 97.5032 642.832 154.684C681.354 211.865 701.914 279.079 701.914 347.835C701.666 440.172 664.482 528.643 598.516 593.849C532.55 659.054 443.186 695.671 350.02 695.671ZM350.02 5.57168C281.76 5.75527 215.085 25.9842 158.419 63.704C101.752 101.424 57.6355 154.942 31.6416 217.498C5.64772 280.055 -1.05747 348.844 12.373 415.175C25.8034 481.506 58.767 542.405 107.1 590.178C155.433 637.952 216.967 670.456 283.93 683.588C350.892 696.719 420.28 689.887 483.327 663.955C546.374 638.022 600.252 594.154 638.157 537.889C676.061 481.625 696.291 415.488 696.292 347.835C695.92 257.013 659.289 170.03 594.404 105.897C529.519 41.7627 441.657 5.69367 350.02 5.57168Z" fill="#2B2C2C"/>
<g style="mix-blend-mode:multiply" opacity="0.6">
<g style="mix-blend-mode:overlay">
<path d="M573.996 376.162C554.316 385.45 534.167 393.81 514.019 402.169C506.053 405.42 496.682 407.742 488.248 410.528C493.402 403.562 498.088 396.131 500.899 391.952C519.642 365.945 550.099 345.512 562.281 314.397C565.093 307.431 556.19 304.645 552.91 311.147C536.428 336.084 515.463 357.806 491.059 375.233C486.448 379.652 482.069 384.302 477.939 389.166C478.558 361.571 470.893 334.417 455.917 311.147C455.917 308.36 450.294 311.146 451.231 314.397C457.88 335.406 459.642 357.634 456.385 379.414C456.385 385.915 456.385 392.881 456.385 399.382C452.637 392.881 450.294 384.986 446.545 378.949C434.363 361.302 416.557 347.834 403.906 330.187C400.157 325.078 392.66 330.187 395.471 337.153C407.242 356.686 417.276 377.197 425.46 398.453C425.46 401.704 425.46 405.884 429.208 410.063L415.62 404.027L393.129 391.952C383.664 388.892 374.554 384.845 365.952 379.878C362.203 377.091 357.518 383.128 360.798 386.379C372.512 397.525 387.974 404.955 400.626 415.172L404.843 418.423C377.937 417.593 351.347 412.417 326.124 403.098C322.844 403.098 320.032 406.813 323.312 408.67C354.355 423.962 387.516 434.604 421.711 440.25C413.856 442.546 405.878 444.407 397.814 445.823C361.735 453.253 327.998 469.507 291.918 475.544C289.107 475.544 288.638 481.117 291.918 480.653C331.278 476.009 367.826 463.005 407.654 458.826H417.963C379.919 484.446 345.147 514.543 314.409 548.455C313.888 549.124 313.612 549.95 313.628 550.795C313.643 551.641 313.95 552.456 314.496 553.105C315.042 553.755 315.795 554.2 316.632 554.368C317.468 554.536 318.337 554.416 319.095 554.028C342.805 530.613 368.691 509.466 396.409 490.869C411.542 483.917 427.211 478.172 443.266 473.687C433.656 509.318 421.119 544.109 405.78 577.712C405.78 582.356 405.78 586.071 412.34 582.821C441.683 556.911 461.606 522.151 469.037 483.904C479.681 508.181 488.605 533.165 495.745 558.672C495.745 564.709 505.585 558.672 504.648 554.492C500.431 526.628 498.088 498.764 491.528 471.829C491.729 469.977 491.729 468.108 491.528 466.256L500.899 471.829C513.55 477.402 524.327 489.941 538.853 489.476C544.944 489.476 552.441 477.866 544.007 475.544C535.573 473.222 523.39 459.29 513.082 452.788C507.67 448.241 502.797 443.101 498.557 437.464C503.962 434.977 509.136 432.025 514.019 428.64L582.898 382.2C583.706 381.03 584.012 379.59 583.748 378.196C583.485 376.803 582.673 375.57 581.493 374.769C580.312 373.969 578.859 373.665 577.453 373.927C576.047 374.188 574.803 374.992 573.996 376.162Z" fill="#96D5F6"/>
</g>
<g style="mix-blend-mode:overlay">
<path d="M608.2 184.829C599.881 185.026 591.603 183.606 583.835 180.65H578.212C583.835 173.684 588.52 166.253 593.206 159.287C597.892 152.321 593.206 146.748 585.709 151.392L569.309 162.537L562.28 168.111H559.469C555.638 152.871 553.13 137.334 551.972 121.67C551.972 115.633 543.069 118.42 543.069 121.67C543.069 137.924 543.069 154.179 543.069 168.111C536.415 150.523 525.844 134.649 512.144 121.67C508.395 118.884 502.772 125.385 506.521 128.636C517.138 140.829 525.113 155.056 529.949 170.433L522.921 166.717C512.397 161.431 501.421 157.079 490.121 153.714C485.904 153.714 481.687 158.822 486.373 161.144C497.324 165.819 507.326 172.429 515.892 180.65V182.971C493.439 181.244 470.859 183.766 449.356 190.402C449.356 190.402 446.076 196.903 449.356 196.903C470.245 194.984 491.311 196.554 511.675 201.547C500.964 204.904 489.994 207.388 478.875 208.977C475.127 208.977 473.721 215.944 478.875 215.944C489.953 216.65 501.066 216.65 512.144 215.944C506.521 223.374 499.492 233.591 491.058 235.913C482.624 238.235 485.904 242.414 491.058 242.414C496.212 242.414 510.738 234.984 519.172 228.947C527.606 222.91 534.166 220.123 541.195 214.551H546.349C546.349 217.801 549.629 221.516 551.503 225.232C553.378 228.947 551.503 244.272 558.063 253.096C564.623 261.92 569.309 253.095 567.903 248.916C564.155 235.913 564.155 223.374 559.938 211.299L564.623 214.551C568.372 217.337 572.12 219.195 575.869 222.445C579.644 225.355 583.73 227.847 588.052 229.876C592.269 229.876 596.955 224.768 593.206 221.981C590.165 219.432 587.344 216.635 584.772 213.622C581.96 209.906 578.212 207.585 575.401 204.334L573.058 201.547H581.492C591.453 202.249 601.434 200.494 610.543 196.439C612.417 191.331 613.354 183.9 608.2 184.829Z" fill="#96D5F6"/>
</g>
<g style="mix-blend-mode:overlay">
<path d="M631.16 423.994C630.75 422.313 629.795 420.812 628.44 419.721C627.086 418.631 625.408 418.01 623.663 417.957C610.543 417.957 604.92 431.425 604.452 442.106C604.308 444.302 604.997 446.472 606.384 448.19C607.771 449.909 609.756 451.051 611.949 451.394C626.943 452.787 635.377 435.604 631.16 423.994Z" fill="white"/>
</g>
<g style="mix-blend-mode:overlay">
<path d="M647.092 293.498C644.366 290.542 640.749 288.538 636.781 287.785C632.812 287.031 628.704 287.57 625.069 289.319C619.696 291.954 615.277 296.171 612.418 301.393C604.921 312.074 595.081 330.65 603.515 342.725C606.741 346.3 611.109 348.666 615.887 349.427C620.665 350.188 625.561 349.297 629.755 346.904C636.354 343.685 641.938 338.739 645.903 332.599C649.868 326.459 652.061 319.361 652.246 312.074C652.748 308.793 652.549 305.443 651.661 302.243C650.773 299.043 649.216 296.064 647.092 293.498Z" fill="white"/>
</g>
<g style="mix-blend-mode:overlay">
<path d="M573.527 509.443C571.445 508.955 569.264 509.092 567.262 509.836C565.259 510.581 563.525 511.899 562.281 513.623C559.516 515.295 557.504 517.954 556.658 521.053C556.658 525.233 556.658 531.27 563.218 531.27C566.204 531.184 569.106 530.267 571.591 528.625C574.077 526.982 576.046 524.681 577.275 521.982C578.444 519.824 578.707 517.297 578.005 514.948C577.303 512.6 575.693 510.621 573.527 509.443Z" fill="white"/>
</g>
<g style="mix-blend-mode:overlay">
<path d="M488.717 606.041C487.897 603.821 486.625 601.792 484.978 600.082C483.332 598.372 481.347 597.017 479.148 596.102C476.95 595.186 474.583 594.73 472.199 594.762C469.814 594.795 467.461 595.314 465.288 596.289C458.966 599.681 453.625 604.619 449.77 610.634C445.916 616.649 443.677 623.54 443.266 630.654C443.053 632.556 443.266 634.481 443.891 636.292C444.515 638.102 445.535 639.754 446.878 641.129C448.221 642.504 449.853 643.569 451.658 644.247C453.464 644.924 455.398 645.199 457.323 645.051C461.405 645.018 465.435 644.131 469.148 642.451C472.862 640.771 476.177 638.334 478.877 635.298C482.868 631.635 485.862 627.034 487.582 621.92C489.302 616.806 489.692 611.344 488.717 606.041Z" fill="white"/>
</g>
<g style="mix-blend-mode:overlay">
<path d="M169.622 178.792C169.583 176.788 169.108 174.817 168.23 173.012C167.353 171.207 166.093 169.611 164.536 168.333C162.979 167.055 161.163 166.124 159.21 165.605C157.258 165.086 155.215 164.99 153.222 165.324C148.297 166.131 143.751 168.446 140.221 171.944C136.692 175.442 134.356 179.948 133.542 184.829C132.382 188.929 132.382 193.267 133.542 197.367C133.957 199.838 135.2 202.099 137.07 203.785C138.94 205.47 141.329 206.481 143.85 206.656C147.163 206.783 150.459 206.135 153.471 204.763C156.484 203.391 159.127 201.335 161.187 198.761C164.009 196.268 166.231 193.18 167.69 189.725C169.15 186.269 169.81 182.533 169.622 178.792Z" fill="white"/>
</g>
<g style="mix-blend-mode:overlay">
<path d="M186.49 310.217C173.258 317.787 158.848 323.123 143.85 326.006L129.793 332.508C134.479 326.935 138.227 320.898 141.976 316.254C150.427 306.573 157.233 295.593 162.124 283.745C162.124 278.637 156.501 278.173 154.627 283.745C149.196 293.975 141.886 303.11 133.073 310.681C128.387 315.325 122.296 319.969 117.61 325.077V314.861C117.61 302.322 117.61 288.854 113.862 275.851C113.862 273.064 108.707 275.851 109.176 275.851C109.159 290.6 108.22 305.335 106.365 319.969C102.637 311.154 96.2549 303.694 88.0906 298.607C88.0906 298.607 82.4678 301.393 84.8106 303.251C91.7083 309.525 96.7331 317.558 99.3361 326.471L94.6505 324.149C79.9991 316.762 64.1283 312.043 47.7937 310.217C44.5138 310.217 42.6395 315.79 47.7937 316.254C62.3655 319.799 76.3914 325.266 89.4962 332.508L99.3361 337.616L81.5307 341.796C71.3457 344.936 61.4658 348.977 52.0107 353.87C49.1993 353.87 52.0107 360.372 52.0107 358.979C63.2868 354.238 75.0798 350.809 87.1533 348.762C74.2622 357.6 62.8742 368.417 53.4167 380.806C53.4167 384.057 53.4165 387.771 57.6336 385.449C67.9421 377.09 78.7193 368.267 88.5593 359.443C77.3513 374.462 71.5738 392.784 72.1591 411.456C72.1591 414.242 76.8449 411.456 77.782 411.456C84.6179 395.43 92.6041 379.91 101.679 365.016L104.49 361.765C104.49 365.945 104.49 370.125 104.49 374.304C104.49 378.484 104.49 391.022 107.302 399.381C109.293 409.171 110.391 419.118 110.582 429.103C110.582 435.605 117.142 434.211 118.548 429.103C122.05 413.883 123.156 398.218 121.828 382.663C122.295 376.945 122.295 371.199 121.828 365.48V368.731C128.387 378.948 132.604 397.524 142.913 404.026C153.221 410.527 154.158 401.239 150.878 396.595C145.108 385.823 140.551 374.454 137.29 362.694L134.01 356.193C142.796 358.96 151.037 363.201 158.376 368.731C163.061 371.982 169.153 364.551 164.936 360.836C158.885 353.457 151.184 347.575 142.444 343.654H134.947C151.499 336.94 167.22 328.37 181.804 318.111C195.861 313.003 193.05 307.43 186.49 310.217Z" fill="#96D5F6"/>
</g>
<g style="mix-blend-mode:overlay">
<path d="M132.604 511.766L127.45 516.411C127.273 517.798 127.273 519.202 127.45 520.59C124.268 525.782 122.493 531.701 122.295 537.773C122.295 542.881 127.918 545.203 132.135 543.346C136.942 540.876 140.97 537.143 143.78 532.556C146.59 527.97 148.073 522.706 148.067 517.34C148.812 515.307 148.713 513.065 147.79 511.105C146.868 509.146 145.197 507.629 143.147 506.89C141.096 506.151 138.833 506.25 136.856 507.164C134.879 508.079 133.35 509.734 132.604 511.766Z" fill="white"/>
</g>
<g style="mix-blend-mode:overlay">
<path d="M227.255 466.256C227.211 463.159 226.423 460.117 224.957 457.382C223.491 454.647 221.388 452.298 218.824 450.528C216.26 448.758 213.307 447.618 210.21 447.204C207.113 446.789 203.961 447.112 201.015 448.145C195.25 451.449 190.263 455.934 186.385 461.299C182.506 466.664 179.827 472.787 178.524 479.259C177.571 483.542 177.571 487.98 178.524 492.263C178.621 496.531 179.954 500.683 182.363 504.223C184.772 507.763 188.156 510.543 192.112 512.232C211.324 519.663 225.381 499.228 229.598 483.439C230.68 477.61 229.86 471.591 227.255 466.256Z" fill="white"/>
</g>
<g style="mix-blend-mode:overlay">
<path d="M414.683 86.3765C411.438 85.7 408.087 85.7 404.843 86.3765C401.413 87.4734 398.259 89.2842 395.593 91.6869C392.926 94.0896 390.808 97.029 389.38 100.309L386.568 104.024C383.375 107.978 381.635 112.891 381.635 117.956C381.635 123.021 383.375 127.935 386.568 131.888C388.658 133.529 391.076 134.708 393.661 135.348C396.247 135.989 398.941 136.077 401.563 135.604C403.413 136.022 405.335 136.022 407.186 135.604L413.277 132.817C417.829 129.868 421.606 125.887 424.295 121.203C426.984 116.519 428.508 111.267 428.74 105.882C429.141 103.683 429.094 101.426 428.601 99.2458C428.107 97.0653 427.178 95.0054 425.867 93.1871C424.557 91.3687 422.892 89.8294 420.971 88.6597C419.05 87.49 416.912 86.7132 414.683 86.3765Z" fill="white"/>
</g>
<g style="mix-blend-mode:overlay">
<path d="M276.924 97.5224C274.936 96.6349 272.707 96.4271 270.586 96.9315C268.466 97.4358 266.575 98.6236 265.21 100.309C263.842 102.029 263.098 104.156 263.098 106.346C263.098 108.537 263.842 110.663 265.21 112.384C268.021 117.492 275.05 115.17 278.33 112.384C279.521 111.474 280.461 110.281 281.061 108.914C281.661 107.548 281.902 106.053 281.762 104.569C281.621 103.085 281.104 101.661 280.258 100.428C279.412 99.1964 278.265 98.1964 276.924 97.5224Z" fill="white"/>
</g>
<g style="mix-blend-mode:overlay">
<path d="M178.056 125.385C175.918 124.739 173.634 124.739 171.496 125.385C170.189 126.001 169.043 126.908 168.149 128.036C167.254 129.164 166.636 130.482 166.342 131.887C165.868 133.429 165.989 135.09 166.682 136.549C167.374 138.008 168.589 139.16 170.091 139.781H176.182C178.597 139.734 180.926 138.885 182.795 137.369C184.664 135.853 185.966 133.758 186.49 131.422C186.381 130.457 186.069 129.526 185.575 128.687C185.081 127.849 184.415 127.122 183.621 126.554C182.827 125.985 181.922 125.588 180.963 125.386C180.005 125.185 179.015 125.185 178.056 125.385Z" fill="white"/>
</g>
</g>
<g opacity="0.6">
<g style="mix-blend-mode:overlay">
<path d="M149.004 482.511C107.321 419.337 81.4575 347.213 73.565 272.137C73.3618 273.055 73.3618 274.006 73.565 274.924C75.924 338.899 93.0794 401.481 123.707 457.845C154.335 514.208 197.618 562.845 250.215 600.004C210.664 566.151 176.536 526.534 149.004 482.511Z" fill="white"/>
</g>
<g style="mix-blend-mode:overlay">
<path d="M132.136 534.988C86.8767 468.515 59.757 391.558 53.4167 311.612V294.429C53.7968 274.021 55.8337 253.677 59.508 233.593C23.4283 340.405 72.6278 447.681 132.604 535.453C130.262 539.168 133.073 536.846 132.136 534.988Z" fill="white"/>
</g>
<g style="mix-blend-mode:overlay">
<path d="M323.311 286.997L271.769 260.526C233.398 239.448 192.231 223.816 149.473 214.086H144.318C134.491 213.393 124.626 213.393 114.799 214.086C168.325 223.383 219.741 242.1 266.615 269.35C308.317 291.177 350.02 315.79 390.785 339.01L384.694 332.044C365.014 317.648 344.397 302.322 323.311 286.997Z" fill="white"/>
</g>
<g style="mix-blend-mode:overlay">
<path d="M217.415 200.62C183.167 193.34 148.378 188.836 113.393 187.152C149.004 187.152 182.273 196.904 217.415 200.62C218.352 200.62 217.884 200.62 217.415 200.62Z" fill="white"/>
</g>
<g style="mix-blend-mode:overlay">
<path d="M439.048 118.884C381.183 101.837 320.282 97.401 260.524 105.881C238.614 109.165 216.994 114.133 195.862 120.741C173.912 128.76 153.24 139.865 134.479 153.714C124.391 158.714 115.08 165.126 106.834 172.754C156.295 141.836 211.632 121.309 269.421 112.442C327.209 103.576 386.218 106.558 442.797 121.205L439.048 118.884Z" fill="white"/>
</g>
<g style="mix-blend-mode:overlay">
<path d="M370.168 61.2984C329.171 60.938 288.324 66.2523 248.81 77.0879L213.198 94.2712L188.364 108.667C253.097 78.5344 323.968 63.5963 395.471 65.0137C386.969 64.2828 378.519 63.0421 370.168 61.2984Z" fill="white"/>
</g>
<g style="mix-blend-mode:overlay">
<path d="M280.203 28.7914C219.98 41.4016 163.816 68.5157 116.673 107.739C107.012 120.323 98.6899 133.862 91.8389 148.142C114.549 117.811 143.244 92.3732 176.181 73.3735C209.04 55.7044 243.98 42.1338 280.203 32.9709C280.203 32.9709 283.951 28.327 280.203 28.7914Z" fill="white"/>
</g>
</g>
<g style="mix-blend-mode:screen" opacity="0.6">
<g style="mix-blend-mode:overlay">
<path d="M578.212 371.518C558.532 380.806 538.384 389.165 518.236 397.525C509.668 400.708 500.903 403.345 491.996 405.419C497.618 398.453 502.304 391.487 505.116 387.308C523.859 361.301 551.972 340.868 566.498 309.753C569.309 302.787 560.407 300 557.127 306.502C540.645 331.439 519.679 353.162 495.276 370.589C490.59 374.769 486.373 379.878 481.687 384.522C482.54 356.818 475.035 329.492 460.133 306.038C460.133 303.251 454.042 306.038 455.447 309.753C462.073 330.606 463.835 352.678 460.602 374.305C460.602 381.271 460.602 388.236 460.602 394.738C456.853 388.236 454.51 380.342 450.762 374.305C438.579 356.657 420.774 343.19 408.122 325.542C404.374 320.434 396.877 325.542 399.688 332.508C411.64 351.944 421.682 372.472 429.676 393.809C429.676 397.06 429.676 401.24 433.425 405.419L419.837 399.382L397.345 387.308C387.88 384.248 378.77 380.2 370.168 375.233C366.42 372.447 361.266 378.484 364.546 381.735C376.728 392.88 392.191 400.311 404.842 410.528L409.059 413.778C382.148 412.99 355.552 407.812 330.34 398.453C327.06 398.453 324.249 402.169 327.529 404.026C358.657 419.111 391.786 429.743 425.928 435.605L402.031 441.178C365.951 448.608 331.745 464.398 296.134 470.9C293.323 470.9 292.854 476.472 296.134 476.008C335.494 471.364 372.042 458.361 411.871 454.182H420.773C382.634 479.68 347.848 509.788 317.22 543.811C313.94 547.061 317.22 552.17 321.437 548.919C345.298 525.621 371.343 504.628 399.219 486.225C413.435 479.385 428.16 473.641 443.265 469.042C434.027 504.726 421.64 539.535 406.248 573.068C403.905 577.712 406.248 581.427 412.339 578.177C441.302 552.173 460.747 517.385 467.63 479.259C478.069 503.616 486.988 528.586 494.339 554.028C494.339 560.065 504.179 554.028 503.242 549.848C500.158 522.079 495.623 494.488 489.653 467.185V461.612C492.627 463.572 495.762 465.28 499.024 466.72C511.207 472.757 522.453 485.296 536.978 484.832C543.07 484.832 550.567 473.222 542.132 470.9C533.698 468.578 521.516 454.646 511.207 448.144C505.796 443.597 500.923 438.456 496.682 432.819C501.937 430.33 506.955 427.377 511.676 423.995L581.024 377.555C583.835 375.233 581.961 369.66 578.212 371.518Z" fill="white"/>
</g>
<g style="mix-blend-mode:overlay">
<path d="M611.949 180.186C603.63 180.383 595.352 178.964 587.584 176.007H581.961C587.377 169.345 592.384 162.366 596.955 155.109C601.172 149.536 596.955 142.57 589.458 146.749L573.058 158.36L566.03 163.933H563.218C559.363 148.698 556.854 133.159 555.721 117.493C555.721 111.456 546.819 114.242 546.819 117.493C546.819 133.747 546.819 149.536 546.819 163.933C540.483 145.513 529.893 128.815 515.893 115.171C512.144 112.384 506.522 118.886 510.27 122.136C520.888 134.33 528.862 148.557 533.699 163.933L526.67 160.218C516.067 154.975 505.107 150.475 493.87 146.749C489.653 146.749 485.436 152.322 490.122 154.644C501.073 159.319 511.075 165.928 519.642 174.149C497.164 172.798 474.625 175.473 453.105 182.044C453.105 182.044 449.356 188.546 453.105 188.546C474.104 189.133 494.854 193.214 514.487 200.62C503.889 203.806 493.088 206.288 482.156 208.051C478.407 208.051 477.002 215.016 482.156 215.016C493.226 215.938 504.354 215.938 515.424 215.016C509.333 222.911 502.773 233.128 494.339 234.986C485.905 236.844 489.185 241.487 494.339 241.952C505.067 241.059 515.082 236.262 522.453 228.484C529.013 223.376 537.916 219.66 544.944 214.087H550.098C551.94 217.521 553.507 221.093 554.784 224.769C558.533 233.593 557.596 243.809 561.813 252.633C566.03 261.456 573.058 252.633 571.653 247.989C570.247 243.345 567.904 222.912 563.687 210.373L568.373 213.623C571.653 216.41 575.87 218.267 579.618 221.518C583.321 224.53 587.42 227.029 591.801 228.949C596.018 228.949 600.704 223.84 596.955 221.054C593.914 218.505 591.093 215.708 588.521 212.694C585.472 209.366 582.184 206.262 578.681 203.406V200.62H587.115C597.076 201.322 607.057 199.567 616.166 195.512C616.635 186.224 617.572 179.258 611.949 180.186Z" fill="white"/>
</g>
<g style="mix-blend-mode:overlay">
<path d="M635.378 419.35C634.968 417.669 634.013 416.167 632.658 415.076C631.304 413.986 629.625 413.366 627.881 413.312C614.761 413.312 609.138 426.78 608.67 437.462C608.526 439.657 609.215 441.827 610.602 443.546C611.988 445.264 613.973 446.407 616.167 446.749C631.161 448.143 639.595 432.818 635.378 419.35Z" fill="white"/>
</g>
<g style="mix-blend-mode:overlay">
<path d="M650.841 287.926C648.237 284.941 644.699 282.907 640.791 282.15C636.884 281.392 632.834 281.954 629.287 283.746C623.914 286.38 619.495 290.598 616.636 295.82C608.67 306.502 599.298 325.078 607.733 337.152C610.958 340.727 615.327 343.094 620.105 343.855C624.882 344.616 629.779 343.725 633.973 341.332C640.508 338.033 646.038 333.067 649.991 326.944C653.945 320.822 656.179 313.765 656.464 306.501C656.999 303.185 656.771 299.792 655.797 296.576C654.824 293.359 653.13 290.402 650.841 287.926Z" fill="white"/>
</g>
<g style="mix-blend-mode:overlay">
<path d="M577.744 504.802C575.663 504.315 573.482 504.451 571.48 505.196C569.477 505.94 567.743 507.258 566.499 508.982C563.734 510.654 561.721 513.314 560.876 516.412C560.876 520.592 560.876 526.629 567.436 526.164C570.464 526.262 573.446 525.42 575.967 523.754C578.488 522.089 580.42 519.684 581.493 516.877C582.062 515.843 582.416 514.707 582.536 513.536C582.655 512.365 582.536 511.181 582.187 510.056C581.837 508.931 581.264 507.887 580.501 506.984C579.739 506.082 578.801 505.34 577.744 504.802Z" fill="white"/>
</g>
<g style="mix-blend-mode:overlay">
<path d="M492.933 601.397C492.114 599.177 490.841 597.148 489.195 595.438C487.549 593.728 485.564 592.372 483.365 591.457C481.166 590.542 478.8 590.086 476.415 590.118C474.03 590.15 471.678 590.67 469.505 591.644C463.183 595.037 457.841 599.975 453.986 605.99C450.132 612.005 447.893 618.896 447.482 626.01C447.27 627.912 447.483 629.836 448.107 631.647C448.732 633.458 449.752 635.11 451.094 636.485C452.437 637.86 454.069 638.924 455.875 639.602C457.68 640.28 459.614 640.555 461.539 640.406C465.622 640.373 469.651 639.488 473.365 637.807C477.079 636.127 480.394 633.689 483.093 630.654C487.084 626.991 490.078 622.39 491.798 617.276C493.518 612.162 493.909 606.7 492.933 601.397Z" fill="white"/>
</g>
<g style="mix-blend-mode:overlay">
<path d="M173.839 174.148C173.8 172.145 173.326 170.173 172.448 168.368C171.57 166.564 170.31 164.968 168.753 163.689C167.197 162.411 165.38 161.481 163.428 160.961C161.475 160.442 159.433 160.346 157.439 160.681C152.515 161.487 147.968 163.802 144.439 167.301C140.909 170.799 138.574 175.304 137.76 180.185C136.854 184.16 136.854 188.286 137.76 192.26C138.38 194.761 139.735 197.022 141.654 198.758C143.572 200.495 145.968 201.627 148.537 202.012C151.834 202.036 155.096 201.341 158.092 199.977C161.088 198.613 163.744 196.613 165.873 194.118C168.61 191.581 170.744 188.474 172.122 185.021C173.5 181.568 174.086 177.853 173.839 174.148Z" fill="white"/>
</g>
<g style="mix-blend-mode:overlay">
<path d="M192.581 305.571C179.256 312.941 164.879 318.266 149.942 321.362L135.885 327.863L148.068 311.609C156.519 301.928 163.324 290.949 168.216 279.101C168.216 273.992 162.593 273.528 160.719 279.101C155.136 289.232 147.846 298.341 139.165 306.036C134.479 310.68 128.388 315.324 123.702 320.433V310.216C123.702 297.212 123.702 283.745 119.954 271.206C119.954 268.42 114.799 271.206 115.268 271.206C115.345 286.73 114.406 302.243 112.456 317.646C108.556 307.784 101.684 299.351 92.7766 293.497C89.9652 293.497 87.1538 296.748 89.4967 298.606C96.5781 304.727 101.639 312.817 104.022 321.826L99.3365 319.504C84.6851 312.117 68.8143 307.398 52.4798 305.571C49.1998 305.571 47.3255 311.144 52.4798 311.609C67.1153 314.952 81.1692 320.43 94.1823 327.863L104.022 332.972L86.2167 337.151C75.9307 340.008 66.022 344.06 56.6971 349.225C53.4171 349.225 56.6971 355.727 56.6971 354.334C67.9732 349.593 79.7662 346.164 91.8396 344.117C79.0898 352.963 67.8568 363.782 58.571 376.16C58.571 379.411 58.5712 383.127 62.7883 380.805C67.0054 378.483 83.8737 363.622 93.7136 354.334C82.5036 369.528 76.732 387.997 77.3138 406.811C77.3138 409.597 81.9996 406.811 82.9367 406.811C89.676 390.741 97.6658 375.214 106.834 360.371V357.12C107.056 361.297 107.056 365.482 106.834 369.659C106.834 378.018 109.177 386.377 109.645 394.736C111.718 404.505 112.661 414.478 112.456 424.459C112.456 430.496 119.016 429.567 120.891 424.459C124.134 409.202 125.237 393.574 124.171 378.018V360.835V364.086C130.731 374.303 134.948 392.879 145.256 399.38C155.565 405.882 156.502 396.13 153.222 391.95C147.372 381.052 142.812 369.521 139.633 357.585L136.353 351.547C145.219 354.121 153.494 358.38 160.719 364.086C165.404 367.337 171.496 359.907 167.279 356.192C161.228 348.813 153.528 342.93 144.788 339.008H137.29C153.851 332.123 169.57 323.398 184.147 313.002C200.078 308.358 197.267 302.785 192.581 305.571Z" fill="white"/>
</g>
<g style="mix-blend-mode:overlay">
<path d="M136.354 507.124L131.668 511.767C131.492 513.155 131.492 514.559 131.668 515.947C128.486 521.139 126.711 527.058 126.514 533.13C126.514 538.238 132.136 540.56 136.354 538.703C141.16 536.232 145.189 532.5 147.998 527.913C150.808 523.326 152.291 518.062 152.285 512.696C150.879 505.266 139.634 502.944 136.354 507.124Z" fill="white"/>
</g>
<g style="mix-blend-mode:overlay">
<path d="M233.347 461.611C233.302 458.514 232.514 455.473 231.048 452.738C229.582 450.003 227.48 447.653 224.916 445.883C222.351 444.113 219.398 442.974 216.302 442.559C213.205 442.145 210.053 442.467 207.107 443.5C201.342 446.804 196.355 451.288 192.476 456.654C188.598 462.019 185.918 468.142 184.616 474.614C183.686 478.743 183.686 483.024 184.616 487.153C184.654 491.436 185.963 495.613 188.379 499.164C190.795 502.715 194.212 505.483 198.204 507.123C217.415 515.018 231.472 494.584 235.69 478.794C236.806 472.967 235.984 466.936 233.347 461.611Z" fill="white"/>
</g>
<g style="mix-blend-mode:overlay">
<path d="M420.774 81.7322C417.556 80.8406 414.153 80.8406 410.934 81.7322C407.476 82.7724 404.294 84.5621 401.619 86.9718C398.945 89.3814 396.845 92.3509 395.472 95.6644L392.66 99.3797C389.384 103.296 387.59 108.223 387.59 113.311C387.59 118.399 389.384 123.327 392.66 127.243C394.749 128.884 397.167 130.064 399.753 130.704C402.338 131.345 405.032 131.432 407.654 130.959H412.809L419.369 127.707C423.939 124.891 427.741 121.004 430.438 116.387C433.134 111.771 434.643 106.568 434.831 101.237C435.233 99.0381 435.185 96.7819 434.692 94.6015C434.199 92.421 433.269 90.3604 431.959 88.5421C430.648 86.7237 428.984 85.1844 427.062 84.0147C425.141 82.845 423.003 82.0689 420.774 81.7322Z" fill="white"/>
</g>
<g style="mix-blend-mode:overlay">
<path d="M280.204 92.8785C278.254 91.8038 275.969 91.4944 273.799 92.0104C271.63 92.5264 269.735 93.8308 268.49 95.6655C267.122 97.3857 266.378 99.5118 266.378 101.702C266.378 103.893 267.122 106.019 268.49 107.74C271.301 112.848 278.33 110.526 281.141 107.74C282.479 106.955 283.572 105.819 284.299 104.458C285.026 103.097 285.36 101.562 285.263 100.025C285.166 98.4875 284.642 97.0066 283.749 95.7456C282.857 94.4845 281.63 93.492 280.204 92.8785Z" fill="white"/>
</g>
<g style="mix-blend-mode:overlay">
<path d="M182.273 120.742C180.281 120.186 178.173 120.186 176.181 120.742C174.827 121.29 173.64 122.177 172.737 123.317C171.833 124.457 171.244 125.81 171.027 127.243C170.727 127.942 170.574 128.695 170.578 129.454C170.581 130.214 170.742 130.964 171.049 131.66C171.356 132.356 171.804 132.982 172.364 133.5C172.924 134.019 173.585 134.418 174.307 134.674H180.867C183.261 134.83 185.63 134.113 187.528 132.659C189.427 131.205 190.724 129.114 191.175 126.779C191.077 125.764 190.755 124.783 190.232 123.905C189.709 123.027 188.997 122.273 188.148 121.698C187.299 121.122 186.333 120.738 185.318 120.572C184.302 120.407 183.263 120.465 182.273 120.742Z" fill="white"/>
</g>
</g>
<path style="mix-blend-mode:multiply" d="M699.104 348.299C699.475 416.917 679.278 484.099 641.075 541.325C602.871 598.551 548.382 643.244 484.516 669.737C420.65 696.23 350.284 703.329 282.342 690.134C214.399 676.94 151.941 644.046 102.886 595.623C53.8316 547.2 20.3905 485.43 6.80336 418.146C-6.78381 350.862 0.0951347 281.094 26.5678 217.689C53.0405 154.285 97.9143 100.1 155.499 62.0059C213.084 23.9114 280.787 3.62319 350.021 3.71418C442.398 3.59079 531.048 39.8113 596.5 104.42C661.953 169.029 698.856 256.744 699.104 348.299Z" fill="url(#paint0_radial_120_160)"/>
<g style="mix-blend-mode:multiply">
<path d="M655.057 192.261C655.057 192.261 732.84 436.535 588.521 591.181C586.647 591.181 761.891 461.149 655.057 192.261Z" fill="#94703E"/>
</g>
<path style="mix-blend-mode:screen" d="M99.8048 512.232C111.654 507.699 121.661 499.415 128.27 488.665C134.88 477.915 137.721 465.303 136.353 452.788C132.136 414.242 106.365 380.342 109.176 340.868C110.306 328.988 114.645 317.629 121.736 307.986C128.827 298.343 138.408 290.772 149.473 286.068C175.305 278.098 202.092 273.569 229.13 272.601C240.191 272.669 251.093 269.983 260.835 264.79C270.578 259.597 278.848 252.064 284.889 242.879C290.295 230.279 297.05 218.291 305.037 207.12C315.923 195.515 330.612 188.117 346.488 186.246C362.364 184.375 378.394 188.152 391.722 196.903C406.248 205.727 421.242 228.018 438.579 230.34C470.442 234.52 470.91 205.727 478.876 183.9C479.265 183.008 479.926 182.26 480.767 181.76C481.607 181.26 482.585 181.034 483.562 181.114C502.304 189.937 513.55 213.622 532.761 219.659C551.973 225.696 562.75 173.219 559.47 160.216C556.19 147.213 547.755 127.243 542.132 110.989C536.51 94.7355 527.607 74.7657 536.51 58.9761C485.018 25.7838 425.458 6.9463 364.084 4.44222C302.711 1.93815 241.79 15.8604 187.72 44.7456C133.649 73.6309 88.4241 116.414 56.7946 168.601C25.1651 220.788 8.29829 280.454 7.9656 341.332C7.81514 411.685 30.1207 480.282 71.6908 537.309C77.828 525.959 87.7717 517.089 99.8048 512.232Z" fill="url(#paint1_radial_120_160)"/>
<defs>
<radialGradient id="paint0_radial_120_160" cx="0" cy="0" r="1" gradientUnits="userSpaceOnUse" gradientTransform="translate(149.474 158.796) scale(566.03 555.386)">
<stop stop-color="white"/>
<stop offset="0.38" stop-color="#FDFDFD"/>
<stop offset="0.51" stop-color="#F6F6F6"/>
<stop offset="0.61" stop-color="#EBEBEB"/>
<stop offset="0.69" stop-color="#DADADA"/>
<stop offset="0.75" stop-color="#C4C4C4"/>
<stop offset="0.81" stop-color="#A9A8A8"/>
<stop offset="0.87" stop-color="#888888"/>
<stop offset="0.91" stop-color="#636262"/>
<stop offset="0.96" stop-color="#3A3939"/>
<stop offset="0.98" stop-color="#1F1E1E"/>
</radialGradient>
<radialGradient id="paint1_radial_120_160" cx="0" cy="0" r="1" gradientUnits="userSpaceOnUse" gradientTransform="translate(450.762 432.809) scale(503.71 494.239)">
<stop offset="0.35" stop-color="#2B2B2B"/>
<stop offset="0.44" stop-color="#2E2F2F"/>
<stop offset="0.53" stop-color="#37393B"/>
<stop offset="0.62" stop-color="#464C4F"/>
<stop offset="0.71" stop-color="#5B656B"/>
<stop offset="0.8" stop-color="#75868F"/>
<stop offset="0.89" stop-color="#96AEBB"/>
<stop offset="0.98" stop-color="#BCDDEF"/>
<stop offset="0.99" stop-color="#C4E6F9"/>
</radialGradient>
</defs>
</svg>
