<svg width="5110" height="5109" viewBox="0 0 5110 5109" fill="none" xmlns="http://www.w3.org/2000/svg">
<path d="M389.642 3212.97C388.829 3212.98 388.035 3212.73 387.372 3212.27C386.709 3211.8 386.211 3211.14 385.951 3210.38C199.991 2670.68 231.5 2080.65 473.905 1563.42C474.342 1562.47 475.134 1561.74 476.111 1561.37C477.088 1561 478.173 1561.02 479.133 1561.43C480.057 1561.89 480.765 1562.69 481.109 1563.66C481.453 1564.62 481.406 1565.68 480.978 1566.62C239.268 2081.99 207.866 2670 393.332 3207.79C393.636 3208.78 393.552 3209.85 393.096 3210.78C392.64 3211.71 391.846 3212.44 390.872 3212.82L389.642 3212.97Z" fill="white" stroke="white" stroke-width="7"/>
<path d="M207.583 2498.68C206.563 2498.68 205.586 2498.28 204.865 2497.56C204.144 2496.85 203.739 2495.88 203.739 2494.87C203.633 2323.38 223.655 2152.46 263.4 1985.56C263.509 1985.07 263.715 1984.6 264.006 1984.19C264.297 1983.78 264.668 1983.43 265.097 1983.16C265.526 1982.89 266.005 1982.71 266.505 1982.62C267.005 1982.54 267.518 1982.55 268.013 1982.66C269.026 1982.91 269.899 1983.55 270.445 1984.43C270.991 1985.32 271.167 1986.38 270.934 1987.39C231.435 2153.71 211.518 2324 211.581 2494.87C211.541 2495.89 211.102 2496.86 210.357 2497.57C209.611 2498.28 208.617 2498.68 207.583 2498.68Z" fill="white" stroke="white" stroke-width="7"/>
<path d="M1294.4 4353.05C1293.69 4353.21 1292.95 4353.21 1292.24 4353.05C926.849 4121.47 637.665 3789.15 460.22 3396.91C459.803 3395.96 459.779 3394.89 460.152 3393.92C460.526 3392.95 461.268 3392.16 462.219 3391.73C463.179 3391.32 464.264 3391.29 465.241 3391.66C466.219 3392.03 467.011 3392.77 467.447 3393.71C644.276 3784.41 932.456 4115.37 1296.55 4345.89C1296.98 4346.17 1297.34 4346.53 1297.63 4346.95C1297.92 4347.37 1298.12 4347.84 1298.22 4348.34C1298.32 4348.83 1298.32 4349.34 1298.21 4349.84C1298.11 4350.34 1297.91 4350.81 1297.63 4351.23C1297.29 4351.78 1296.81 4352.23 1296.25 4352.55C1295.68 4352.87 1295.05 4353.05 1294.4 4353.05Z" fill="white" stroke="white" stroke-width="7"/>
<g opacity="0.5">
<path d="M4935.09 2149.38L4941.86 2170.11H4963.85L4946.01 2182L4952.93 2202.42L4935.09 2189.31L4917.25 2202.11L4924.02 2182.15L4906.18 2170.11H4928.17L4935.09 2149.38Z" fill="white"/>
</g>
<path d="M4979.53 3118.79C4995.36 3119.95 5010.91 3123.5 5025.66 3129.3C5037.81 3136.77 5041.96 3188.74 5041.96 3188.74C5041.96 3188.74 5044.73 3144.39 5059.18 3132.81C5073.64 3121.22 5109 3121.38 5109 3121.38C5109 3121.38 5071.33 3116.65 5058.72 3101.26C5049.95 3086.6 5045.04 3069.99 5044.42 3052.95C5044.42 3052.95 5043.5 3089.68 5029.04 3103.39C5014.59 3117.11 4979.53 3118.79 4979.53 3118.79Z" fill="white"/>
<path d="M0 1896.56C17.9863 1897.75 35.6759 1901.71 52.4339 1908.29C66.4265 1916.83 71.0395 1975.96 71.0395 1975.96C71.0395 1975.96 74.2686 1925.51 90.7214 1912.41C107.174 1899.3 147.461 1899.3 147.461 1899.3C147.461 1899.3 104.56 1893.97 90.1064 1876.44C80.0823 1859.76 74.4757 1840.83 73.8073 1821.43C73.8073 1821.43 72.8847 1863.18 56.5856 1878.73C40.2865 1894.27 0 1896.56 0 1896.56Z" fill="white"/>
<path d="M4489.94 2455.55C4497.76 2456.07 4505.44 2457.82 4512.7 2460.73C4518.7 2464.39 4520.69 2489.99 4520.69 2489.99C4520.69 2489.99 4522.23 2468.05 4529.31 2462.41C4536.91 2458.55 4545.36 2456.61 4553.91 2456.77C4544.82 2455.88 4536.19 2452.44 4529 2446.87C4524.66 2439.6 4522.23 2431.37 4521.92 2422.94C4522 2431.76 4519.43 2440.41 4514.54 2447.78C4507.22 2452.57 4498.71 2455.25 4489.94 2455.55Z" fill="#FBC155"/>
<path d="M601.836 1054.71C617.976 1055.87 633.843 1059.47 648.888 1065.38C661.343 1073 665.495 1126.34 665.495 1126.34C665.495 1126.34 668.416 1080.62 683.178 1069.5C697.939 1058.37 733.766 1057.76 733.766 1057.76C733.766 1057.76 695.479 1052.88 682.563 1037.19C673.331 1022.38 668.041 1005.5 667.186 988.115C667.186 988.115 666.264 1025.45 651.81 1039.32C637.356 1053.19 601.836 1054.71 601.836 1054.71Z" fill="#FBC155"/>
<path d="M4640.48 754.794C4656.3 755.947 4671.86 759.493 4686.61 765.309C4699.06 773.082 4703.37 826.268 4703.37 826.268C4703.37 826.268 4706.13 780.549 4720.9 769.272C4735.66 757.994 4771.64 757.537 4771.64 757.537C4771.64 757.537 4733.35 752.813 4720.28 737.116C4711.39 722.155 4706.37 705.243 4705.67 687.891C4705.67 687.891 4704.9 725.381 4690.3 739.249C4675.69 753.118 4640.48 754.794 4640.48 754.794Z" fill="#FBC155"/>
<path d="M32.293 3119.55C48.3852 3120.7 64.2031 3124.3 79.1913 3130.22C91.8001 3137.84 95.9517 3191.18 95.9517 3191.18C95.9517 3191.18 98.7195 3145.46 113.481 3134.33C128.242 3123.21 164.223 3122.44 164.223 3122.44C164.223 3122.44 125.936 3117.72 112.866 3102.02C103.988 3087.06 99.0203 3070.14 98.412 3052.8C98.412 3052.8 97.4894 3090.29 83.0355 3104.16C68.5815 3118.02 32.293 3119.55 32.293 3119.55Z" fill="#FBC155"/>
<path d="M417.473 1530.8C432.614 1538.37 446.467 1548.25 458.528 1560.06C467.6 1572.56 449.763 1625.59 449.763 1625.59C449.763 1625.59 471.29 1582.92 490.357 1577.44C509.424 1571.95 544.329 1586.58 544.329 1586.58C544.329 1586.58 509.117 1566.46 502.966 1546.04C500.443 1527.93 502.559 1509.49 509.117 1492.4C509.117 1492.4 493.74 1528.36 473.136 1535.98C452.531 1543.6 417.473 1530.8 417.473 1530.8Z" fill="white"/>
<path d="M4714.13 1109.88C4714.16 1118.15 4711.72 1126.23 4707.1 1133.12C4702.49 1140.01 4695.92 1145.38 4688.23 1148.57C4680.53 1151.75 4672.06 1152.6 4663.87 1151.01C4655.69 1149.41 4648.17 1145.45 4642.26 1139.61C4636.35 1133.78 4632.33 1126.34 4630.69 1118.24C4629.05 1110.13 4629.88 1101.73 4633.06 1094.09C4636.24 1086.45 4641.64 1079.92 4648.58 1075.32C4655.51 1070.73 4663.66 1068.28 4672 1068.28C4677.52 1068.26 4683 1069.32 4688.11 1071.4C4693.22 1073.48 4697.87 1076.54 4701.78 1080.41C4705.69 1084.27 4708.8 1088.87 4710.92 1093.92C4713.04 1098.98 4714.13 1104.4 4714.13 1109.88Z" fill="#EA5848"/>
<path d="M803.884 3890.53C803.884 3898.79 801.413 3906.86 796.784 3913.73C792.154 3920.59 785.574 3925.95 777.876 3929.11C770.177 3932.27 761.706 3933.09 753.533 3931.48C745.36 3929.87 737.853 3925.89 731.961 3920.06C726.069 3914.22 722.056 3906.77 720.431 3898.67C718.805 3890.57 719.639 3882.18 722.828 3874.55C726.017 3866.92 731.417 3860.4 738.346 3855.81C745.274 3851.22 753.42 3848.77 761.753 3848.77C772.927 3848.77 783.643 3853.17 791.544 3861C799.446 3868.83 803.884 3879.45 803.884 3890.53Z" fill="#EA5848"/>
<path d="M283.542 2817.34C326.088 2817.34 360.579 2783.16 360.579 2740.99C360.579 2698.83 326.088 2664.64 283.542 2664.64C240.996 2664.64 206.506 2698.83 206.506 2740.99C206.506 2783.16 240.996 2817.34 283.542 2817.34Z" fill="#FCCC74"/>
<path d="M462.987 924.565C485.067 924.565 502.966 906.825 502.966 884.941C502.966 863.058 485.067 845.318 462.987 845.318C440.907 845.318 423.008 863.058 423.008 884.941C423.008 906.825 440.907 924.565 462.987 924.565Z" fill="#0EB2C2"/>
<path d="M4757.49 3192.4C4779.57 3192.4 4797.47 3174.66 4797.47 3152.77C4797.47 3130.89 4779.57 3113.15 4757.49 3113.15C4735.41 3113.15 4717.52 3130.89 4717.52 3152.77C4717.52 3174.66 4735.41 3192.4 4757.49 3192.4Z" fill="#0EB2C2"/>
<path d="M4801.31 1690.21C4823.39 1690.21 4841.29 1672.47 4841.29 1650.59C4841.29 1628.7 4823.39 1610.96 4801.31 1610.96C4779.24 1610.96 4761.34 1628.7 4761.34 1650.59C4761.34 1672.47 4779.24 1690.21 4801.31 1690.21Z" fill="#0EB2C2"/>
<path d="M893.527 1017.53C893.527 1017.53 1488.14 311.164 2504.52 311.164C3520.91 311.164 4132.13 961.293 4132.13 961.293" stroke="white" stroke-width="7" stroke-miterlimit="10"/>
<path d="M4484.56 1436.62C4484.56 1436.62 5109.77 2644.68 4336.79 3771.96C3563.82 4899.25 2152.71 4715 2152.71 4715" stroke="white" stroke-width="7" stroke-miterlimit="10"/>
<path d="M2886.94 4751.58C2899.69 4758.93 2914.09 4763 2928.84 4763.43C2943.58 4763.86 2958.2 4760.62 2971.36 4754.01C2959.6 4751.43 2947.58 4750.15 2935.53 4750.2C2919.33 4749.16 2903.06 4749.62 2886.94 4751.58Z" fill="#3F82C3"/>
<path d="M2991.19 4610.91C2978.6 4599.51 2962.96 4591.95 2946.14 4589.12C2941.6 4591.32 2936.86 4593.1 2931.99 4594.45C2918.85 4597.11 2905.39 4597.93 2892.01 4596.89C2874.43 4605.59 2860.21 4619.78 2851.57 4637.28C2877.29 4622.81 2906.01 4614.42 2935.53 4612.74C2953.98 4611.83 2972.59 4610.76 2991.19 4610.91Z" fill="#2F6AB1"/>
<path d="M2932 4594.45C2936.87 4593.1 2941.6 4591.32 2946.14 4589.12C2941.06 4588.3 2935.92 4587.89 2930.77 4587.9C2917.12 4587.86 2903.65 4590.93 2891.4 4596.89C2904.98 4597.99 2918.65 4597.17 2932 4594.45Z" fill="#3F82C3"/>
<path d="M2920.61 4730.85C2908.3 4730.75 2896.01 4731.72 2883.86 4733.75C2878.66 4734.74 2873.52 4736.06 2868.49 4737.71C2873.92 4743.13 2880.08 4747.8 2886.79 4751.58C2902.9 4749.62 2919.17 4749.16 2935.38 4750.2C2947.42 4750.15 2959.44 4751.43 2971.2 4754.01C2978.71 4750.28 2985.6 4745.46 2991.65 4739.69C2984.43 4736.41 2976.98 4733.66 2969.36 4731.46C2953.19 4729.44 2936.83 4729.23 2920.61 4730.85Z" fill="#2F6AB1"/>
<path d="M2960.13 4634.23C2917.08 4637.43 2879.41 4664.71 2843.27 4685.43C2844.62 4697.24 2848.38 4708.65 2854.34 4718.96C2876.95 4703.72 2918.77 4703.72 2943.22 4703.72C2965.59 4704.25 2987.59 4709.44 3007.8 4718.96C3015.11 4706.6 3019.26 4692.65 3019.87 4678.33C3020.49 4664.01 3017.56 4649.76 3011.34 4636.82C2994.47 4633.62 2977.24 4632.74 2960.13 4634.23ZM2979.66 4653.13C2993.04 4655.87 3001.65 4674.92 2985.97 4680.86C2980.6 4683.23 2974.71 4684.21 2968.85 4683.74C2963 4683.26 2957.35 4681.33 2952.45 4678.12L2951.06 4677.05C2945.37 4672.33 2948.76 4661.81 2953.52 4657.85C2957.25 4655.18 2961.53 4653.36 2966.05 4652.55C2970.58 4651.73 2975.23 4651.93 2979.66 4653.13Z" fill="#2F6AB1"/>
<path d="M2854.34 4718.96C2858.21 4725.83 2863.03 4732.14 2868.64 4737.71C2873.67 4736.06 2878.81 4734.74 2884.02 4733.74C2896.16 4731.72 2908.45 4730.75 2920.77 4730.85C2937.01 4729.02 2953.42 4729.02 2969.66 4730.85C2977.29 4733.05 2984.74 4735.8 2991.96 4739.08C2998.06 4733.33 3003.24 4726.71 3007.34 4719.42C2987.13 4709.9 2965.12 4704.71 2942.75 4704.18C2918.77 4703.87 2876.94 4703.42 2854.34 4718.96Z" fill="#3F82C3"/>
<path d="M2991.19 4610.91C2972.59 4610.91 2953.98 4611.83 2935.53 4612.74C2906.01 4614.42 2877.28 4622.81 2851.57 4637.28C2845.75 4649.25 2842.75 4662.39 2842.81 4675.68C2842.81 4679.03 2842.81 4682.23 2842.81 4685.43C2878.94 4664.71 2916.62 4637.43 2959.67 4634.23C2976.83 4633.1 2994.06 4634.33 3010.87 4637.89C3006.07 4627.75 2999.4 4618.6 2991.19 4610.91Z" fill="#3F82C3"/>
<path d="M2951.06 4677.05L2952.44 4678.12C2957.35 4681.32 2962.99 4683.26 2968.85 4683.74C2974.71 4684.21 2980.59 4683.23 2985.97 4680.86C3001.34 4674.92 2993.04 4655.87 2979.66 4653.13C2975.22 4651.93 2970.57 4651.73 2966.05 4652.55C2961.53 4653.36 2957.24 4655.18 2953.52 4657.85C2948.75 4661.81 2945.37 4672.33 2951.06 4677.05Z" fill="#3F82C3"/>
<g style="mix-blend-mode:color-burn" opacity="0.2">
<path d="M2989.38 4733.23C3021.45 4701.45 3021.45 4649.92 2989.38 4618.14C2957.31 4586.36 2905.32 4586.36 2873.26 4618.14C2841.19 4649.92 2841.19 4701.45 2873.26 4733.23C2905.32 4765.01 2957.31 4765.01 2989.38 4733.23Z" fill="#20284F"/>
</g>
<g style="mix-blend-mode:overlay" opacity="0.7">
<path d="M3010.81 4743.11C3048.6 4699.61 3043.66 4633.98 2999.77 4596.53C2955.88 4559.07 2889.67 4563.97 2851.88 4607.47C2814.09 4650.97 2819.03 4716.6 2862.92 4754.05C2906.81 4791.51 2973.02 4786.61 3010.81 4743.11Z" fill="#6BC2C3"/>
</g>
<path d="M4728.28 2587.68C4761.65 2587.68 4788.71 2560.87 4788.71 2527.79C4788.71 2494.71 4761.65 2467.9 4728.28 2467.9C4694.9 2467.9 4667.85 2494.71 4667.85 2527.79C4667.85 2560.87 4694.9 2587.68 4728.28 2587.68Z" fill="#EA5848"/>
<path d="M4387.07 3741.18C4407.79 3741.18 4424.59 3724.53 4424.59 3703.99C4424.59 3683.46 4407.79 3666.81 4387.07 3666.81C4366.35 3666.81 4349.55 3683.46 4349.55 3703.99C4349.55 3724.53 4366.35 3741.18 4387.07 3741.18Z" fill="#0EB2C2"/>
<path d="M2735.33 355.055C2754.01 355.055 2769.16 340.044 2769.16 321.527C2769.16 303.011 2754.01 288 2735.33 288C2716.65 288 2701.5 303.011 2701.5 321.527C2701.5 340.044 2716.65 355.055 2735.33 355.055Z" fill="#FCCC74"/>
</svg>
