<svg width="4220" height="4253" viewBox="0 0 4220 4253" fill="none" xmlns="http://www.w3.org/2000/svg">
<path d="M4155.42 2022.9C4154.18 2022.76 4153.02 2022.21 4152.14 2021.33C4151.26 2020.45 4150.7 2019.31 4150.56 2018.08C4095.19 1539.8 3882.41 1092.91 3545.12 746.487C3207.82 400.065 2764.79 173.397 2284.5 101.518C2283.05 101.25 2281.76 100.441 2280.89 99.2576C2280.03 98.0744 2279.66 96.6075 2279.85 95.1595C2279.93 94.4222 2280.16 93.7092 2280.53 93.0671C2280.91 92.4251 2281.41 91.8684 2282.02 91.4337C2282.62 90.999 2283.32 90.696 2284.05 90.5446C2284.78 90.3932 2285.54 90.3967 2286.27 90.555C2768.97 162.831 3214.23 390.649 3553.23 738.806C3892.24 1086.96 4106.12 1536.08 4161.84 2016.76C4161.96 2018.24 4161.5 2019.71 4160.55 2020.85C4159.6 2022 4158.24 2022.73 4156.75 2022.9H4155.42Z" fill="white"/>
<path d="M2300.65 0C2295.37 23.6641 2286.41 46.3721 2274.1 67.313C2259.94 84.1961 2178.97 78.4953 2178.97 78.4953C2178.97 78.4953 2246.67 92.7472 2261.05 117.304C2275.43 141.862 2267.46 195.142 2267.46 195.142C2267.46 195.142 2283.17 139.45 2309.72 123.663C2334.3 113.734 2360.99 110.042 2387.37 112.919C2387.37 112.919 2331.18 103.491 2313.26 78.7146C2295.34 53.9381 2300.65 0 2300.65 0Z" fill="white"/>
<path d="M81.5069 2461.42C80.0133 2461.61 78.5047 2461.21 77.3052 2460.31C76.1057 2459.41 75.3109 2458.07 75.0913 2456.6C62.256 2353.25 56.6382 2249.14 58.2779 2145.03C67.4386 1666.38 233.193 1203.62 530.6 826.394C531.096 825.869 531.696 825.451 532.362 825.166C533.028 824.88 533.746 824.732 534.471 824.732C535.197 824.732 535.915 824.88 536.581 825.166C537.247 825.451 537.846 825.869 538.343 826.394C539.37 827.455 539.944 828.869 539.944 830.34C539.944 831.811 539.37 833.225 538.343 834.287C242.238 1209.48 77.1719 1669.88 68.012 2146.12C66.4844 2250.03 72.2502 2353.92 85.2678 2457.04C85.1127 2458.04 84.6788 2458.98 84.0147 2459.76C83.3506 2460.53 82.4824 2461.11 81.5069 2461.42Z" fill="white"/>
<path d="M439.455 786.925C458.939 801.561 476.027 819.089 490.116 838.89C499.408 859.062 460.25 929.445 460.25 929.445C460.25 929.445 501.841 874.63 530.38 871.779C558.918 868.929 604.491 898.749 604.491 898.749C604.491 898.749 560.246 861.255 556.706 830.558C557.715 804.411 565.321 778.931 578.829 756.448C578.829 756.448 546.308 802.932 516.442 808.632C486.577 814.333 439.455 786.925 439.455 786.925Z" fill="white"/>
<path d="M409.145 3372.67C431.922 3374.43 454.299 3379.61 475.513 3388.02C493.432 3398.98 499.406 3475.72 499.406 3475.72C499.406 3475.72 503.609 3409.94 524.847 3393.94C546.085 3377.93 597.852 3376.83 597.852 3376.83C597.852 3376.83 542.545 3370.04 523.962 3347.45C511.164 3325.93 503.943 3301.6 502.945 3276.63C502.945 3276.63 501.839 3330.57 480.822 3350.52C459.806 3370.47 409.145 3372.67 409.145 3372.67Z" fill="#FBC155"/>
<path d="M1085 317.052C1111.88 317.052 1133.67 295.455 1133.67 268.815C1133.67 242.174 1111.88 220.577 1085 220.577C1058.12 220.577 1036.33 242.174 1036.33 268.815C1036.33 295.455 1058.12 317.052 1085 317.052Z" fill="#FCCC74"/>
<mask id="mask0_120_326" style="mask-type:luminance" maskUnits="userSpaceOnUse" x="2086" y="3971" width="377" height="258">
<path d="M2086.94 4078.47C2102.61 4123.53 2131.41 4162.97 2169.68 4191.83C2205.49 4216.33 2248.06 4229.27 2291.58 4228.88C2285.59 4228.04 2279.91 4225.73 2275.04 4222.17C2270.18 4218.61 2266.28 4213.91 2263.7 4208.49C2330.03 4225.1 2400.04 4219.47 2462.81 4192.48C2462.81 4192.48 2413.03 4082.85 2356.84 4060.93C2366.61 4057.92 2377.19 4058.86 2386.26 4063.56C2372.99 4041.41 2355.16 4022.29 2333.93 4007.44C2312.69 3992.6 2288.54 3982.35 2263.04 3977.39C2177.87 3962.26 2152.43 3983.53 2152.43 3983.53L2086.94 4078.47Z" fill="white"/>
</mask>
<g mask="url(#mask0_120_326)">
<path d="M2086.94 4078.47C2102.61 4123.53 2131.41 4162.97 2169.68 4191.83C2205.49 4216.33 2248.06 4229.27 2291.58 4228.88C2285.59 4228.04 2279.91 4225.73 2275.04 4222.17C2270.18 4218.61 2266.28 4213.91 2263.7 4208.49C2330.03 4225.1 2400.04 4219.47 2462.81 4192.48C2462.81 4192.48 2413.03 4082.85 2356.84 4060.93C2366.61 4057.92 2377.19 4058.86 2386.26 4063.56C2372.99 4041.41 2355.16 4022.29 2333.93 4007.44C2312.69 3992.6 2288.54 3982.35 2263.04 3977.39C2177.87 3962.26 2152.42 3983.53 2152.42 3983.53L2086.94 4078.47Z" fill="#EA5848"/>
<g opacity="0.15">
<path d="M2076.1 3993.18C2076.1 3993.18 2100.21 4114.65 2268.35 4147.97C2436.48 4181.3 2521.43 4145.78 2521.43 4145.78C2521.43 4145.78 2462.36 4272.73 2242.02 4242.26C2021.68 4211.78 2076.1 3993.18 2076.1 3993.18Z" fill="black"/>
</g>
</g>
<path d="M1893.14 4018.17C1893.14 4018.17 1952.43 4101.71 1953.32 4156.31C1953.32 4156.31 2076.1 4209.37 2111.72 4253C2113.31 4192.26 2099.95 4132.06 2072.78 4077.59L1893.14 4018.17Z" fill="#DAB266"/>
<path d="M1974.11 3842.76C1974.11 3842.76 2084.73 3839.25 2131.63 3808.34C2131.63 3808.34 2206.85 3875.21 2262.15 3889.9C2220.51 3926.06 2171.78 3953.31 2119.02 3969.93L1974.11 3842.76Z" fill="#FCCC74"/>
<mask id="mask1_120_326" style="mask-type:luminance" maskUnits="userSpaceOnUse" x="1464" y="3641" width="698" height="458">
<path d="M1464.63 3703.31C1470.84 3756.75 1488.33 3808.3 1515.95 3854.6C1558.76 3916.15 1621.03 3961.82 1692.93 3984.4C1773.02 4010.72 1873.68 4033.08 1962.17 4054.57C2008.44 4064.44 2053.52 4079.14 2096.67 4098.42C2118.64 4080.19 2136.76 4057.83 2149.99 4032.64C2158.41 4016.55 2162.53 3998.58 2161.94 3980.46C2082.78 3931.92 2010.03 3873.81 1945.35 3807.46C1834.08 3694.54 1719.04 3561.45 1464.63 3703.31Z" fill="white"/>
</mask>
<g mask="url(#mask1_120_326)">
<path d="M1464.63 3703.31C1470.84 3756.75 1488.33 3808.3 1515.95 3854.6C1558.76 3916.15 1621.03 3961.82 1692.93 3984.4C1773.02 4010.72 1873.68 4033.08 1962.17 4054.57C2008.44 4064.44 2053.52 4079.14 2096.67 4098.42C2118.64 4080.19 2136.76 4057.83 2149.99 4032.64C2158.41 4016.55 2162.53 3998.58 2161.94 3980.46C2082.78 3931.92 2010.03 3873.81 1945.35 3807.46C1834.08 3694.54 1719.04 3561.45 1464.63 3703.31Z" fill="#E8E8E8"/>
<path d="M1554.44 3914.46C1592.67 3883.51 1624.96 3846.01 1649.79 3803.73C1679.53 3751.66 1694.37 3692.52 1692.71 3632.71L1730.1 3644.33C1735.19 3695.23 1728.14 3746.6 1709.53 3794.3C1685.61 3854.07 1645.77 3906.28 1594.27 3945.37L1554.44 3914.46Z" fill="#EA5848"/>
<path d="M1811.73 4032.42C1850.95 4008.37 1885.37 3977.38 1913.28 3940.99C1942.57 3899.62 1956.7 3849.56 1953.32 3799.13L1972.34 3815.35C1973.5 3857.63 1961.78 3899.27 1938.72 3934.85C1911.06 3976.88 1874.34 4012.3 1831.2 4038.56L1811.73 4032.42Z" fill="#EA5848"/>
<g opacity="0.15">
<path d="M1435.2 3656.17L1464.62 3703.31C1492.24 3762.24 1532.63 3814.41 1582.91 3856.1C1633.19 3897.79 1692.14 3927.97 1755.54 3944.5C1976.77 4005.01 2160.17 4032.2 2232.73 4076.05L2120.12 4189.41C2029.84 4117.46 1922.02 4070.34 1807.53 4052.81C1619.71 4024.31 1417.95 3923.67 1435.2 3656.17Z" fill="black"/>
</g>
</g>
<path d="M1705.1 3873.46C1705.1 3873.46 1754.66 3803.73 1757.31 3777.42L1917.92 3883.98C1910.19 3907.88 1898.12 3930.17 1882.31 3949.76L1705.1 3873.46Z" fill="#0EB2C2"/>
<mask id="mask2_120_326" style="mask-type:luminance" maskUnits="userSpaceOnUse" x="1722" y="3795" width="182" height="141">
<path d="M1722.13 3868.86C1740.58 3847.58 1754.17 3822.59 1761.96 3795.62L1903.32 3884.42C1900.79 3904 1891.67 3922.15 1877.44 3935.95L1722.13 3868.86Z" fill="white"/>
</mask>
<g mask="url(#mask2_120_326)">
<path d="M1722.13 3868.86C1740.58 3847.58 1754.17 3822.59 1761.96 3795.62L1903.32 3884.42C1900.79 3904 1891.67 3922.15 1877.44 3935.95L1722.13 3868.86Z" fill="#FCCC74"/>
<g opacity="0.5">
<path d="M1717.49 3892.54L1838.06 3803.08L1851.11 3810.97L1728.77 3900.21L1717.49 3892.54Z" fill="white"/>
</g>
<g opacity="0.5">
<path d="M1740.28 3902.84L1860.84 3813.38L1873.9 3821.28L1751.56 3910.52L1740.28 3902.84Z" fill="white"/>
</g>
<g opacity="0.5">
<path d="M1802 3942.97L1922.57 3853.51L1935.62 3861.18L1813.28 3950.42L1802 3942.97Z" fill="white"/>
</g>
<g opacity="0.15">
<path d="M1712.84 3842.76C1726.92 3856.98 1745.69 3865.7 1765.72 3867.32C1800.23 3870.61 1806.42 3883.77 1828.55 3898.68C1850.67 3913.59 1917.04 3917.53 1917.04 3917.53L1879.87 3957.66L1688.51 3881.57L1712.84 3842.76Z" fill="black"/>
</g>
</g>
<mask id="mask3_120_326" style="mask-type:luminance" maskUnits="userSpaceOnUse" x="1948" y="3930" width="364" height="183">
<path d="M1948.89 3947.57C1962.37 3963.32 1970.15 3983.07 1971.02 4003.7L2311.71 4112.23L2010.84 3930.47C1992.59 3942.64 1970.86 3948.64 1948.89 3947.57Z" fill="white"/>
</mask>
<g mask="url(#mask3_120_326)">
<path d="M1948.89 3947.57C1962.37 3963.32 1970.15 3983.07 1971.02 4003.7L2311.71 4112.23L2010.84 3930.47C1992.59 3942.64 1970.86 3948.64 1948.89 3947.57Z" fill="#FCCC74"/>
<g opacity="0.15">
<path d="M1941.37 3942.09L2328.96 4120.79L1946.68 4013.35L1941.37 3942.09Z" fill="black"/>
</g>
</g>
<g opacity="0.5">
<path d="M1518.38 3696.08C1518.38 3696.08 1682.09 3633.59 1832.97 3728.09C1832.31 3728.09 1713.73 3592.59 1518.38 3696.08Z" fill="white"/>
</g>
<path d="M2035.62 3851.1C2069.79 3847.02 2103.05 3837.39 2134.06 3822.59C2136.27 3822.59 2134.06 3818.42 2132.29 3819.3C2101.53 3833.86 2068.58 3843.34 2034.73 3847.37C2032.3 3847.37 2033.18 3851.31 2034.73 3851.1H2035.62Z" fill="#161B32"/>
<path d="M1965.27 3957.22C1995.35 3968.4 2022.56 3986.16 2053.76 3996.68C2053.99 3996.76 2054.23 3996.78 2054.48 3996.76C2054.72 3996.74 2054.95 3996.67 2055.17 3996.56C2055.39 3996.45 2055.58 3996.29 2055.73 3996.11C2055.89 3995.92 2056.01 3995.71 2056.08 3995.48C2056.15 3995.25 2056.18 3995.01 2056.16 3994.77C2056.13 3994.52 2056.07 3994.29 2055.95 3994.08C2055.84 3993.86 2055.69 3993.67 2055.5 3993.52C2055.31 3993.36 2055.1 3993.25 2054.86 3993.18C2024.33 3982.65 1997.12 3964.89 1966.37 3953.71C1964.16 3953.71 1963.05 3956.34 1966.37 3957.22H1965.27Z" fill="#161B32"/>
<path d="M2064.6 4000.85C2076.74 4008.03 2089.47 4014.2 2102.65 4019.27C2104.86 4019.27 2106.85 4017.07 2104.64 4016.2C2091.45 4011.05 2078.72 4004.82 2066.59 3997.56C2064.6 3996.25 2062.61 3999.53 2064.6 4000.85Z" fill="#161B32"/>
<path d="M1976.77 3857.01C1990.11 3871.84 2004.37 3885.83 2019.46 3898.89C2021.46 3900.43 2024.11 3897.8 2022.34 3896.26C2007.12 3883.26 1992.78 3869.27 1979.42 3854.38C1977.87 3852.63 1975 3854.38 1976.77 3857.01Z" fill="#161B32"/>
<path d="M2027.21 3906.13C2030.53 3909.61 2034.24 3912.7 2038.27 3915.34C2040.26 3916.65 2042.25 3913.36 2040.26 3912.05C2036.46 3909.63 2032.96 3906.76 2029.86 3903.5C2028.32 3901.74 2025.44 3903.5 2027.21 3906.13Z" fill="#161B32"/>
<path d="M1744.7 3672.62C1764.93 3677.3 1783.64 3686.95 1799.12 3700.68C1800.67 3702.44 1803.55 3700.68 1801.78 3698.05C1785.92 3683.82 1766.65 3673.86 1745.81 3669.11C1743.37 3669.11 1742.49 3672.18 1744.7 3672.62Z" fill="#161B32"/>
<path d="M1813.28 3711.21L1821.02 3718.88C1822.79 3720.64 1825.45 3718.88 1823.9 3716.47L1815.94 3708.58C1814.39 3706.82 1811.51 3708.58 1813.28 3711.21Z" fill="#161B32"/>
<path d="M94.3379 2629.16C94.3379 2629.16 235.26 3278.61 906.909 3711.21" stroke="white" stroke-width="5" stroke-miterlimit="10"/>
</svg>
