<svg width="1769" height="1740" viewBox="0 0 1769 1740" fill="none" xmlns="http://www.w3.org/2000/svg">
<mask id="path-1-inside-1_107_632" fill="white">
<path d="M71.5654 1124.93C71.2556 1124.93 70.9526 1124.84 70.6998 1124.66C70.447 1124.48 70.2574 1124.23 70.1583 1123.93C-0.746342 916.367 11.2679 689.445 103.694 490.52C103.86 490.157 104.162 489.874 104.535 489.732C104.908 489.589 105.321 489.599 105.687 489.758C106.04 489.935 106.31 490.241 106.441 490.612C106.572 490.984 106.554 491.392 106.391 491.751C14.2298 689.961 2.25635 916.109 72.9725 1122.94C73.0884 1123.32 73.0563 1123.73 72.8824 1124.09C72.7085 1124.45 72.4057 1124.73 72.0344 1124.87L71.5654 1124.93Z"/>
</mask>
<path d="M71.5654 1124.93C71.2556 1124.93 70.9526 1124.84 70.6998 1124.66C70.447 1124.48 70.2574 1124.23 70.1583 1123.93C-0.746342 916.367 11.2679 689.445 103.694 490.52C103.86 490.157 104.162 489.874 104.535 489.732C104.908 489.589 105.321 489.599 105.687 489.758C106.04 489.935 106.31 490.241 106.441 490.612C106.572 490.984 106.554 491.392 106.391 491.751C14.2298 689.961 2.25635 916.109 72.9725 1122.94C73.0884 1123.32 73.0563 1123.73 72.8824 1124.09C72.7085 1124.45 72.4057 1124.73 72.0344 1124.87L71.5654 1124.93Z" fill="white"/>
<path d="M71.5654 1124.93L71.6156 1128.93L71.8392 1128.93L72.0611 1128.9L71.5654 1124.93ZM70.1583 1123.93L73.948 1122.65L73.9436 1122.64L70.1583 1123.93ZM103.694 490.52L107.322 492.205L107.325 492.197L107.329 492.188L103.694 490.52ZM105.687 489.758L107.482 486.183L107.383 486.133L107.282 486.089L105.687 489.758ZM106.391 491.751L110.018 493.437L110.025 493.422L110.032 493.407L106.391 491.751ZM72.9725 1122.94L76.7994 1121.77L76.7795 1121.71L76.7574 1121.64L72.9725 1122.94ZM72.0344 1124.87L72.5302 1128.84L73.0257 1128.78L73.4907 1128.6L72.0344 1124.87ZM71.5152 1120.93C72.0498 1120.92 72.5737 1121.09 73.0114 1121.4L68.3882 1127.93C69.3315 1128.59 70.4615 1128.94 71.6156 1128.93L71.5152 1120.93ZM73.0114 1121.4C73.4489 1121.71 73.7766 1122.15 73.948 1122.65L66.3687 1125.21C66.7382 1126.31 67.4451 1127.26 68.3882 1127.93L73.0114 1121.4ZM73.9436 1122.64C3.37232 916.05 15.33 690.195 107.322 492.205L100.066 488.834C7.20574 688.695 -4.865 916.684 66.3731 1125.23L73.9436 1122.64ZM107.329 492.188C107.059 492.777 106.568 493.237 105.963 493.468L103.107 485.995C101.756 486.512 100.662 487.537 100.059 488.851L107.329 492.188ZM105.963 493.468C105.358 493.699 104.687 493.684 104.093 493.426L107.282 486.089C105.956 485.513 104.457 485.479 103.107 485.995L105.963 493.468ZM103.893 493.333C103.321 493.046 102.882 492.548 102.669 491.944L110.213 489.281C109.737 487.934 108.758 486.824 107.482 486.183L103.893 493.333ZM102.669 491.944C102.456 491.34 102.485 490.677 102.75 490.094L110.032 493.407C110.623 492.107 110.688 490.628 110.213 489.281L102.669 491.944ZM102.764 490.064C10.1676 689.211 -1.86247 916.426 69.1876 1124.23L76.7574 1121.64C6.37517 915.792 18.2921 690.712 110.018 493.437L102.764 490.064ZM69.1456 1124.1C68.9684 1123.52 69.0176 1122.89 69.2833 1122.34L76.4814 1125.83C77.0949 1124.57 77.2085 1123.12 76.7994 1121.77L69.1456 1124.1ZM69.2833 1122.34C69.549 1121.8 70.0115 1121.37 70.5782 1121.15L73.4907 1128.6C74.7998 1128.09 75.8679 1127.1 76.4814 1125.83L69.2833 1122.34ZM71.5387 1120.9L71.0697 1120.96L72.0611 1128.9L72.5302 1128.84L71.5387 1120.9Z" fill="white" mask="url(#path-1-inside-1_107_632)"/>
<mask id="path-3-inside-2_107_632" fill="white">
<path d="M2.14898 850.218C1.76025 850.218 1.38744 850.064 1.11256 849.789C0.837685 849.514 0.683263 849.142 0.683263 848.753C0.643149 782.799 8.2771 717.064 23.4312 652.874C23.4728 652.685 23.5514 652.506 23.6625 652.347C23.7736 652.189 23.915 652.054 24.0785 651.95C24.242 651.847 24.4245 651.777 24.6153 651.744C24.806 651.711 25.0014 651.717 25.1901 651.76C25.5765 651.857 25.9094 652.102 26.1176 652.441C26.3258 652.781 26.3927 653.189 26.304 653.577C11.2435 717.543 3.64925 783.039 3.67333 848.753C3.65817 849.147 3.49089 849.52 3.20665 849.793C2.92241 850.066 2.54331 850.219 2.14898 850.218Z"/>
</mask>
<path d="M2.14898 850.218C1.76025 850.218 1.38744 850.064 1.11256 849.789C0.837685 849.514 0.683263 849.142 0.683263 848.753C0.643149 782.799 8.2771 717.064 23.4312 652.874C23.4728 652.685 23.5514 652.506 23.6625 652.347C23.7736 652.189 23.915 652.054 24.0785 651.95C24.242 651.847 24.4245 651.777 24.6153 651.744C24.806 651.711 25.0014 651.717 25.1901 651.76C25.5765 651.857 25.9094 652.102 26.1176 652.441C26.3258 652.781 26.3927 653.189 26.304 653.577C11.2435 717.543 3.64925 783.039 3.67333 848.753C3.65817 849.147 3.49089 849.52 3.20665 849.793C2.92241 850.066 2.54331 850.219 2.14898 850.218Z" fill="white"/>
<path d="M2.14898 850.218L2.15194 846.218H2.14898V850.218ZM0.683263 848.753L4.68326 848.753L4.68326 848.751L0.683263 848.753ZM23.4312 652.874L27.3242 653.793L27.3313 653.763L27.3379 653.733L23.4312 652.874ZM25.1901 651.76L26.1664 647.881L26.1249 647.87L26.0832 647.861L25.1901 651.76ZM26.304 653.577L30.1976 654.494L30.2007 654.481L30.2037 654.467L26.304 653.577ZM3.67333 848.753L7.67037 848.907L7.67336 848.829L7.67333 848.752L3.67333 848.753ZM2.14898 846.218C2.82088 846.218 3.46531 846.485 3.94057 846.96L-1.71545 852.618C-0.69044 853.643 0.699618 854.218 2.14898 854.218V846.218ZM3.94057 846.96C4.41593 847.436 4.68326 848.081 4.68326 848.753H-3.31674C-3.31674 850.203 -2.74056 851.593 -1.71545 852.618L3.94057 846.96ZM4.68326 848.751C4.64334 783.107 12.2414 717.681 27.3242 653.793L19.5382 651.954C4.31282 716.447 -3.35704 782.491 -3.31674 848.756L4.68326 848.751ZM27.3379 653.733C27.2659 654.06 27.13 654.369 26.9377 654.643L20.3873 650.051C19.9728 650.642 19.6796 651.309 19.5246 652.014L27.3379 653.733ZM26.9377 654.643C26.7453 654.918 26.5007 655.151 26.2183 655.33L21.9388 648.571C21.3293 648.957 20.8018 649.46 20.3873 650.051L26.9377 654.643ZM26.2183 655.33C25.9358 655.509 25.6205 655.63 25.2905 655.687L23.94 647.801C23.2284 647.923 22.5483 648.185 21.9388 648.571L26.2183 655.33ZM25.2905 655.687C24.9608 655.743 24.6232 655.734 24.297 655.659L26.0832 647.861C25.3797 647.7 24.6513 647.68 23.94 647.801L25.2905 655.687ZM24.2138 655.639C23.5864 655.481 23.0457 655.084 22.7075 654.532L29.5277 650.351C28.7731 649.12 27.5666 648.233 26.1664 647.881L24.2138 655.639ZM22.7075 654.532C22.3691 653.98 22.2603 653.318 22.4044 652.686L30.2037 654.467C30.5252 653.059 30.2824 651.582 29.5277 650.351L22.7075 654.532ZM22.4105 652.66C7.2791 716.927 -0.350862 782.731 -0.326668 848.755L7.67333 848.752C7.64936 783.347 15.2079 718.159 30.1976 654.494L22.4105 652.66ZM-0.323707 848.599C-0.299048 847.959 -0.0270697 847.353 0.43464 846.909L5.97866 852.677C7.00886 851.687 7.61538 850.335 7.67037 848.907L-0.323707 848.599ZM0.43464 846.909C0.896272 846.466 1.51179 846.218 2.15194 846.218L2.14602 854.218C3.57483 854.22 4.94854 853.667 5.97866 852.677L0.43464 846.909Z" fill="white" mask="url(#path-3-inside-2_107_632)"/>
<mask id="path-5-inside-3_107_632" fill="white">
<path d="M416.537 1563.4C416.267 1563.46 415.987 1563.46 415.716 1563.4C276.396 1474.34 166.134 1346.53 98.4761 1195.67C98.317 1195.31 98.3076 1194.9 98.4501 1194.52C98.5926 1194.15 98.8756 1193.85 99.2382 1193.68C99.6042 1193.52 100.018 1193.51 100.391 1193.66C100.763 1193.8 101.065 1194.08 101.232 1194.44C168.654 1344.7 278.534 1471.99 417.358 1560.65C417.521 1560.76 417.661 1560.89 417.771 1561.05C417.88 1561.22 417.956 1561.4 417.994 1561.59C418.032 1561.78 418.032 1561.98 417.993 1562.17C417.954 1562.36 417.878 1562.54 417.768 1562.7C417.639 1562.91 417.459 1563.09 417.244 1563.21C417.028 1563.33 416.785 1563.4 416.537 1563.4Z"/>
</mask>
<path d="M416.537 1563.4C416.267 1563.46 415.987 1563.46 415.716 1563.4C276.396 1474.34 166.134 1346.53 98.4761 1195.67C98.317 1195.31 98.3076 1194.9 98.4501 1194.52C98.5926 1194.15 98.8756 1193.85 99.2382 1193.68C99.6042 1193.52 100.018 1193.51 100.391 1193.66C100.763 1193.8 101.065 1194.08 101.232 1194.44C168.654 1344.7 278.534 1471.99 417.358 1560.65C417.521 1560.76 417.661 1560.89 417.771 1561.05C417.88 1561.22 417.956 1561.4 417.994 1561.59C418.032 1561.78 418.032 1561.98 417.993 1562.17C417.954 1562.36 417.878 1562.54 417.768 1562.7C417.639 1562.91 417.459 1563.09 417.244 1563.21C417.028 1563.33 416.785 1563.4 416.537 1563.4Z" fill="white"/>
<path d="M416.537 1563.4L416.48 1559.4L416.08 1559.41L415.689 1559.49L416.537 1563.4ZM415.716 1563.4L413.562 1566.77L414.167 1567.16L414.868 1567.31L415.716 1563.4ZM98.4761 1195.67L94.8081 1197.27L94.8171 1197.29L94.8263 1197.31L98.4761 1195.67ZM99.2382 1193.68L97.6434 1190.01L97.6068 1190.03L97.5705 1190.05L99.2382 1193.68ZM101.232 1194.44L104.881 1192.81L104.874 1192.79L104.867 1192.78L101.232 1194.44ZM417.358 1560.65L419.544 1557.3L419.528 1557.29L419.511 1557.28L417.358 1560.65ZM417.768 1562.7L414.462 1560.45L414.405 1560.53L414.352 1560.62L417.768 1562.7ZM415.689 1559.49C415.978 1559.43 416.276 1559.43 416.565 1559.49L414.868 1567.31C415.698 1567.49 416.556 1567.49 417.385 1567.31L415.689 1559.49ZM417.871 1560.03C279.207 1471.39 169.464 1344.18 102.126 1194.04L94.8263 1197.31C162.803 1348.88 273.585 1477.29 413.562 1566.77L417.871 1560.03ZM102.144 1194.08C102.403 1194.67 102.418 1195.35 102.186 1195.95L94.7141 1193.09C94.1974 1194.44 94.2312 1195.94 94.8081 1197.27L102.144 1194.08ZM102.186 1195.95C101.954 1196.56 101.495 1197.05 100.906 1197.32L97.5705 1190.05C96.2566 1190.65 95.2308 1191.74 94.7141 1193.09L102.186 1195.95ZM100.833 1197.35C100.239 1197.61 99.5675 1197.62 98.9624 1197.39L101.819 1189.92C100.468 1189.4 98.9693 1189.44 97.6434 1190.01L100.833 1197.35ZM98.9624 1197.39C98.3576 1197.16 97.8668 1196.7 97.5963 1196.11L104.867 1192.78C104.264 1191.46 103.169 1190.44 101.819 1189.92L98.9624 1197.39ZM97.5822 1196.08C165.324 1347.05 275.724 1474.94 415.205 1564.02L419.511 1557.28C281.344 1469.04 171.984 1342.36 104.881 1192.81L97.5822 1196.08ZM415.172 1564C414.889 1563.81 414.647 1563.58 414.458 1563.3L421.083 1558.81C420.676 1558.21 420.153 1557.7 419.544 1557.3L415.172 1564ZM414.458 1563.3C414.269 1563.02 414.138 1562.7 414.072 1562.37L421.916 1560.8C421.774 1560.09 421.49 1559.41 421.083 1558.81L414.458 1563.3ZM414.072 1562.37C414.006 1562.04 414.006 1561.7 414.073 1561.37L421.913 1562.96C422.058 1562.25 422.059 1561.52 421.916 1560.8L414.072 1562.37ZM414.073 1561.37C414.14 1561.04 414.272 1560.73 414.462 1560.45L421.075 1564.95C421.484 1564.35 421.769 1563.67 421.913 1562.96L414.073 1561.37ZM414.352 1560.62C414.575 1560.25 414.887 1559.95 415.259 1559.74L419.228 1566.68C420.031 1566.22 420.704 1565.57 421.185 1564.78L414.352 1560.62ZM415.259 1559.74C415.633 1559.52 416.053 1559.41 416.48 1559.4L416.594 1567.4C417.518 1567.39 418.424 1567.14 419.228 1566.68L415.259 1559.74Z" fill="white" mask="url(#path-5-inside-3_107_632)"/>
<path d="M152.473 294.874C158.627 295.321 164.677 296.705 170.414 298.977C175.162 301.908 176.745 322.422 176.745 322.422C176.745 322.422 177.859 304.838 183.488 300.56C189.116 296.281 202.777 296.047 202.777 296.047C202.777 296.047 188.178 294.171 183.253 288.134C179.733 282.44 177.716 275.947 177.39 269.261C177.39 269.261 177.039 283.621 171.527 288.955C166.016 294.288 152.473 294.874 152.473 294.874Z" fill="#FBC155"/>
<path d="M827.818 1579.76C833.853 1580.2 839.784 1581.56 845.407 1583.8C850.214 1586.73 851.797 1607.25 851.797 1607.25C851.797 1607.25 852.911 1589.66 858.481 1585.32C864.051 1580.99 877.828 1580.81 877.828 1580.81C877.828 1580.81 863.23 1578.99 858.246 1572.96C854.862 1567.2 852.967 1560.7 852.735 1554.03C852.735 1554.03 852.384 1568.39 846.872 1573.78C841.361 1579.17 827.818 1579.76 827.818 1579.76Z" fill="#FBC155"/>
<path d="M82.1772 477.977C87.9505 480.889 93.2324 484.686 97.8311 489.23C101.29 494.036 94.4893 514.433 94.4893 514.433C94.4893 514.433 102.697 498.022 109.967 495.912C117.237 493.802 130.546 499.429 130.546 499.429C130.546 499.429 117.12 491.692 114.775 483.838C113.813 476.873 114.619 469.778 117.12 463.207C117.12 463.207 111.257 477.039 103.401 479.97C95.5446 482.9 82.1772 477.977 82.1772 477.977Z" fill="white"/>
<path d="M229.511 1385.52C229.511 1388.69 228.569 1391.8 226.804 1394.44C225.039 1397.08 222.53 1399.14 219.595 1400.35C216.659 1401.57 213.429 1401.89 210.313 1401.27C207.197 1400.65 204.335 1399.12 202.088 1396.87C199.841 1394.63 198.311 1391.77 197.691 1388.65C197.072 1385.54 197.39 1382.31 198.606 1379.37C199.822 1376.44 201.881 1373.93 204.522 1372.16C207.164 1370.4 210.27 1369.46 213.447 1369.46C217.708 1369.46 221.794 1371.15 224.806 1374.16C227.819 1377.17 229.511 1381.26 229.511 1385.52Z" fill="#EA5848"/>
<path d="M31.1115 972.775C47.3338 972.775 60.4846 959.629 60.4846 943.411C60.4846 927.194 47.3338 914.047 31.1115 914.047C14.8893 914.047 1.73853 927.194 1.73853 943.411C1.73853 959.629 14.8893 972.775 31.1115 972.775Z" fill="#FCCC74"/>
<path d="M965.948 25.7891C973.071 25.7891 978.846 20.016 978.846 12.8945C978.846 5.77308 973.071 0 965.948 0C958.824 0 953.049 5.77308 953.049 12.8945C953.049 20.016 958.824 25.7891 965.948 25.7891Z" fill="#FCCC74"/>
<path d="M1595.74 1328.08C1603.64 1328.08 1610.04 1321.68 1610.04 1313.78C1610.04 1305.88 1603.64 1299.48 1595.74 1299.48C1587.84 1299.48 1581.43 1305.88 1581.43 1313.78C1581.43 1321.68 1587.84 1328.08 1595.74 1328.08Z" fill="#0EB2C2"/>
<path d="M1736.97 1117.02C1745.39 1117.02 1752.22 1110.2 1752.22 1101.78C1752.22 1093.36 1745.39 1086.54 1736.97 1086.54C1728.56 1086.54 1721.73 1093.36 1721.73 1101.78C1721.73 1110.2 1728.56 1117.02 1736.97 1117.02Z" fill="#0EB2C2"/>
<path d="M1753.68 539.285C1762.1 539.285 1768.93 532.462 1768.93 524.046C1768.93 515.629 1762.1 508.807 1753.68 508.807C1745.27 508.807 1738.44 515.629 1738.44 524.046C1738.44 532.462 1745.27 539.285 1753.68 539.285Z" fill="#0EB2C2"/>
<path d="M1574.69 435.425C1620.67 435.425 1657.94 398.293 1657.94 352.49C1657.94 306.686 1620.67 269.554 1574.69 269.554C1528.71 269.554 1491.44 306.686 1491.44 352.49C1491.44 398.293 1528.71 435.425 1574.69 435.425Z" fill="#9C2C19"/>
<path d="M1658.06 352.49V354.013C1658.06 354.951 1658.06 356.417 1658.06 358.351C1657.73 363.88 1656.82 369.36 1655.36 374.703C1653.1 382.995 1649.6 390.899 1644.99 398.148C1638.89 407.687 1630.91 415.883 1621.53 422.237C1616.17 425.829 1610.43 428.817 1604.41 431.146C1583.68 438.835 1560.75 438.013 1540.63 428.86C1526.16 422.26 1513.82 411.768 1504.98 398.558C1500.34 391.84 1496.73 384.473 1494.25 376.696C1493.05 372.86 1492.13 368.942 1491.5 364.974C1490.88 360.918 1490.53 356.826 1490.44 352.724C1490.43 348.609 1490.69 344.498 1491.2 340.416C1491.78 336.452 1492.65 332.535 1493.78 328.693C1498.3 313.227 1507.17 299.383 1519.33 288.806C1531.49 278.23 1546.43 271.365 1562.38 269.027C1564.2 269.027 1566.07 268.558 1567.95 268.441C1568.83 268.441 1569.77 268.441 1570.7 268.441H1573.46C1575.34 268.441 1577.09 268.441 1578.85 268.441C1580.61 268.441 1582.49 268.441 1584.31 268.91C1591.19 269.683 1597.94 271.318 1604.41 273.774C1610.46 276.131 1616.22 279.158 1621.59 282.8C1638.16 294.157 1650.08 311.091 1655.19 330.51C1656.65 335.833 1657.55 341.294 1657.88 346.804C1657.88 348.738 1657.88 350.204 1657.88 351.2L1658.06 352.49ZM1658.06 352.49C1658.06 352.49 1658.06 351.962 1658.06 351.024C1658.06 350.087 1658.06 348.563 1658.06 346.687C1657.68 341.189 1656.72 335.746 1655.19 330.452C1654.16 326.668 1652.81 322.981 1651.14 319.433C1649.2 315.343 1646.93 311.422 1644.34 307.71C1638.11 298.601 1630.14 290.812 1620.89 284.793C1609.94 277.717 1597.5 273.264 1584.54 271.782L1579.38 271.371H1571.41H1568.71C1566.95 271.371 1565.13 271.723 1563.37 271.957C1559.74 272.452 1556.15 273.236 1552.65 274.302C1550.83 274.712 1549.13 275.415 1547.31 275.943C1545.49 276.47 1543.79 277.232 1542.09 278.053C1523.74 286.028 1508.93 300.431 1500.46 318.553C1491.98 336.676 1490.42 357.269 1496.07 376.462C1498.41 384.143 1501.84 391.447 1506.27 398.148C1514.8 411.201 1526.91 421.518 1541.15 427.864C1542.85 428.626 1544.67 429.271 1546.43 429.915C1548.19 430.56 1549.95 431.146 1551.77 431.557C1555.32 432.557 1558.95 433.301 1562.61 433.784C1564.43 433.784 1566.19 434.194 1568.01 434.311H1570.64H1573.4C1575.16 434.311 1576.92 434.311 1578.68 434.311C1580.44 434.311 1582.14 434.311 1583.89 433.901C1596.86 432.351 1609.3 427.839 1620.24 420.713C1629.49 414.684 1637.46 406.897 1643.7 397.796C1646.32 393.984 1648.6 389.943 1650.5 385.722C1652.16 382.174 1653.52 378.487 1654.54 374.703C1656.1 369.435 1657.06 364.009 1657.42 358.527C1657.42 356.592 1657.42 355.127 1657.42 354.189C1657.42 353.252 1657.83 352.49 1657.83 352.49H1658.06Z" fill="#1A1818"/>
<path style="mix-blend-mode:multiply" opacity="0.24" d="M1518.58 380.975C1527.92 382.853 1537.55 382.613 1546.78 380.271C1554.77 378.641 1562.98 378.383 1571.06 379.51C1580.06 381.061 1589.18 381.826 1598.32 381.795C1606.96 380.291 1615.34 377.588 1623.23 373.766C1631.21 370.894 1639.59 370.308 1647.51 367.084C1650.73 365.736 1653.96 364.388 1657.24 363.274V361.867C1648.97 364.681 1640.71 369.194 1632.5 368.901C1623.29 368.549 1616.38 363.04 1608.11 360.109C1603.8 358.138 1599.12 357.118 1594.39 357.118C1589.65 357.118 1584.98 358.138 1580.67 360.109C1572.34 364.036 1565.19 370.014 1556.75 373.766C1541.3 379.953 1524.16 380.534 1508.32 375.407C1503.22 373.648 1498.24 371.48 1493.08 369.956C1493.08 370.542 1493.37 371.128 1493.49 371.714C1502.22 373.238 1510.84 378.865 1518.58 380.975Z" fill="url(#paint0_linear_107_632)"/>
<path d="M1649.85 376.872C1651.19 377.319 1652.6 377.537 1654.02 377.517C1654.31 376.696 1654.54 375.876 1654.78 374.996L1649.85 376.872Z" fill="#E8492F"/>
<path d="M1647.04 377.751C1646.39 377.751 1647.04 376.403 1647.39 376.227C1649.97 374.996 1652.67 374.117 1655.3 373.062C1656 370.437 1656.55 367.776 1656.95 365.091C1652.31 366.732 1647.74 368.901 1643.05 370.542C1635.55 373.062 1627.75 373.531 1620.42 376.403C1613.39 380.037 1605.77 382.36 1597.91 383.261C1589.84 383.279 1581.78 382.652 1573.81 381.385C1563.7 380.113 1553.45 380.429 1543.44 382.323C1536.49 383.699 1529.37 383.995 1522.33 383.202C1515.53 381.813 1508.91 379.609 1502.64 376.638C1499.9 375.511 1497.1 374.533 1494.25 373.707C1495.13 376.928 1496.19 380.098 1497.42 383.202C1503.93 385.312 1510.61 387.07 1517.29 388.594C1521.26 389.296 1525.18 390.255 1529.02 391.466C1532.12 392.971 1535.54 393.714 1538.99 393.635C1545.67 392.814 1552 389.063 1558.8 389.122C1565.55 389.274 1572.26 390.198 1578.79 391.877C1586.08 394.144 1593.63 395.463 1601.25 395.803C1609.29 395.505 1617.29 394.405 1625.11 392.521C1633.89 390.502 1642.54 387.977 1651.02 384.96C1651.85 383.026 1652.61 381.092 1653.25 379.099C1651.1 379.152 1648.97 378.689 1647.04 377.751Z" fill="url(#paint1_linear_107_632)"/>
<path d="M1521.34 416.142C1531.3 413.914 1541.04 409.284 1551.36 411.863C1566.07 415.438 1580.26 421.944 1595.8 420.772C1609.63 419.717 1622.71 413.739 1635.72 409.05C1639.06 405.408 1642.08 401.487 1644.75 397.327C1637.25 400.098 1629.52 402.197 1621.65 403.599C1608.23 406.295 1592.87 410.925 1579.15 407.995C1570.18 406.061 1562.2 401.372 1552.88 400.961C1544.5 401.165 1536.18 402.566 1528.2 405.123C1521.78 406.801 1514.99 406.2 1508.97 403.423C1512.62 408.097 1516.77 412.361 1521.34 416.142Z" fill="url(#paint2_linear_107_632)"/>
<path style="mix-blend-mode:multiply" opacity="0.24" d="M1545.61 419.424C1557.04 418.076 1567.24 421.651 1578.38 423.234C1591.65 425.422 1605.24 424.803 1618.25 421.417C1620.09 420.831 1621.91 420.186 1623.7 419.483C1627.05 417.066 1630.2 414.402 1633.14 411.511C1620.54 416.259 1607.29 422.355 1593.74 422.589C1587.05 422.61 1580.37 421.803 1573.87 420.186C1566.54 418.486 1559.56 415.732 1552.24 413.915C1542.03 411.394 1532.71 415.263 1522.92 417.548C1525.27 419.365 1527.73 421.065 1530.25 422.706C1535.29 421.257 1540.42 420.161 1545.61 419.424Z" fill="url(#paint3_linear_107_632)"/>
<path d="M1631.38 302.553C1624.41 305.249 1618.25 309.117 1611.51 312.282C1599.26 318.143 1586.47 313.923 1573.58 313.865C1566.25 313.865 1558.92 314.627 1551.59 314.392C1544.72 313.966 1537.93 312.707 1531.36 310.641C1523.33 308.637 1515.41 306.231 1507.62 303.432C1505.96 305.75 1504.44 308.157 1503.05 310.641C1504.99 313.465 1507.63 315.741 1510.71 317.25C1513.79 318.759 1517.21 319.45 1520.63 319.257C1537.75 319.257 1554.35 322.832 1571.35 324.239C1588.24 325.395 1605.21 324.49 1621.89 321.543C1630.27 320.195 1641.41 319.316 1648.21 313.513C1645.69 308.846 1642.72 304.43 1639.36 300.325C1636.66 300.911 1634 301.654 1631.38 302.553Z" fill="url(#paint4_linear_107_632)"/>
<path d="M1602.48 274.36C1601.67 275.846 1600.55 277.139 1599.19 278.151C1597.84 279.163 1596.28 279.869 1594.62 280.222C1587.84 281.063 1580.99 281.318 1574.16 280.984C1564.49 281.335 1553.99 281.277 1548.25 274.126C1543.12 275.853 1538.17 278.071 1533.47 280.749C1541.33 286.61 1554.29 285.262 1564.31 284.969C1574.34 284.676 1589.41 285.555 1599.49 284.266C1604.18 283.68 1604.18 283.387 1608.87 282.742C1611.56 282.459 1614.23 281.969 1616.84 281.277C1612.29 278.522 1607.48 276.207 1602.48 274.36Z" fill="url(#paint5_linear_107_632)"/>
<path style="mix-blend-mode:multiply" opacity="0.24" d="M1622.3 284.559C1614.5 284.031 1606.99 292.471 1600.43 295.871C1591.81 300.325 1581.61 297.629 1572.4 297.512C1561.6 298.098 1550.78 298.098 1539.98 297.512C1532.47 296.236 1525.09 294.274 1517.94 291.651C1516.3 293.233 1514.65 294.875 1513.07 296.574C1518.42 299.759 1524.45 301.627 1530.66 302.025C1542.79 303.345 1555.01 303.639 1567.19 302.904C1581.37 302.435 1595.39 304.018 1609.28 300.091C1615.97 297.691 1622.47 294.811 1628.75 291.475L1630.56 290.655C1627.95 288.439 1625.19 286.403 1622.3 284.559Z" fill="url(#paint6_linear_107_632)"/>
<path d="M1631.33 291.827C1627.28 293.468 1623.29 295.988 1620.48 297.336C1614.14 300.588 1607.34 302.842 1600.31 304.018C1592.35 304.901 1584.33 305.156 1576.33 304.78C1571.41 304.78 1566.48 305.073 1561.56 305.19C1549.19 306.025 1536.77 305.356 1524.56 303.197C1520.13 302.418 1515.9 300.743 1512.13 298.274C1511.08 299.446 1510.08 300.677 1509.08 301.967C1517.7 305.19 1526.67 307.183 1535.64 309.938C1550.12 314.334 1564.43 311.169 1579.2 312.399C1585.98 313.424 1592.82 313.894 1599.67 313.806C1606.86 312.72 1613.75 310.145 1619.89 306.245C1625.72 303.26 1631.8 300.807 1638.07 298.919C1635.98 296.411 1633.72 294.042 1631.33 291.827Z" fill="#C11727"/>
<path style="mix-blend-mode:multiply" opacity="0.24" d="M1622.82 334.906C1615.11 336.471 1607.23 337.022 1599.37 336.547C1591.58 336.02 1583.78 334.73 1575.92 334.672C1559.04 334.672 1543.27 343.639 1526.32 342.291C1514.6 341.354 1504.75 335.317 1494.19 331.39C1493.78 332.972 1493.37 334.496 1493.08 336.137C1498.94 338.657 1504.8 341.998 1509.67 344.636C1518.93 349.149 1530.72 354.482 1540.8 349.618C1547.84 346.16 1554.17 340.767 1562.38 340.24C1573.28 339.478 1583.89 342.643 1594.86 342.057C1605.72 341.453 1616.53 340.141 1627.22 338.13C1635.21 337.409 1642.9 334.797 1649.68 330.51C1651.23 329.259 1652.56 327.753 1653.6 326.056V325.704C1643.68 329.785 1633.36 332.868 1622.82 334.906Z" fill="url(#paint7_linear_107_632)"/>
<path d="M1654.25 328.224L1653.96 328.576C1649.92 333.063 1644.6 336.195 1638.71 337.544C1628.68 340.192 1618.44 341.996 1608.11 342.936C1597.97 344.4 1587.68 344.519 1577.5 343.288C1570.92 341.823 1564.1 341.823 1557.51 343.288C1552.73 345.243 1548.12 347.595 1543.73 350.321C1539.8 352.375 1535.44 353.487 1531.01 353.569C1526.57 353.65 1522.18 352.699 1518.17 350.79C1510.73 347.801 1503.75 343.991 1496.54 340.592L1492.67 338.833C1492.26 341.236 1491.96 343.581 1491.73 346.042C1495.39 347.474 1499.13 348.688 1502.93 349.676C1508.84 350.932 1514.41 353.429 1519.29 357.003C1519.39 357.091 1519.47 357.199 1519.52 357.32C1519.58 357.441 1519.6 357.573 1519.6 357.706C1519.6 357.839 1519.58 357.971 1519.52 358.092C1519.47 358.213 1519.39 358.321 1519.29 358.409C1511.84 364.271 1501.05 358.937 1493.08 357.12H1491.73C1491.73 358.82 1491.73 360.519 1492.14 362.219C1505.32 365.095 1518.82 366.297 1532.3 365.794C1541.26 364.516 1549.95 361.804 1558.04 357.765C1564.56 354.936 1571.42 352.966 1578.44 351.904C1586.53 350.674 1594.72 350.203 1602.89 350.497C1610.98 350.79 1619.01 352.314 1627.1 352.607C1637.89 353.017 1647.68 348.504 1657.77 345.163C1657.19 339.41 1656.01 333.733 1654.25 328.224Z" fill="url(#paint8_linear_107_632)"/>
<path d="M1507.21 400.434C1514.1 404.169 1522.18 405.073 1529.72 402.954C1536.75 400.46 1544.14 399.133 1551.59 399.027C1558.99 399.65 1566.25 401.41 1573.11 404.244C1588.41 409.695 1604.83 405.181 1620.01 402.075C1628.92 400.615 1637.64 398.218 1646.04 394.924C1647.51 392.463 1648.86 389.884 1650.09 387.246C1640.85 390.54 1631.38 393.164 1621.77 395.1C1614.38 396.915 1606.8 397.801 1599.2 397.738C1592.57 397.165 1586.02 395.968 1579.62 394.162C1571.35 391.339 1562.53 390.496 1553.88 391.701C1548.02 393.937 1541.85 395.243 1535.58 395.569C1532.61 394.931 1529.68 394.048 1526.85 392.932L1514.6 390.118C1513.36 390.118 1504.04 387.129 1498.12 385.371C1500.37 390.59 1503.16 395.56 1506.45 400.199L1507.21 400.434Z" fill="#FBD98A"/>
<path d="M1613.33 424.347C1602.04 426.349 1590.52 426.626 1579.15 425.168C1566.72 423.468 1554.93 419.307 1542.27 421.71C1538.99 422.355 1535.82 423.175 1532.59 423.996C1545.59 431.605 1560.41 435.553 1575.47 435.418C1590.53 435.284 1605.27 431.074 1618.13 423.234C1616.55 423.644 1614.91 424.054 1613.33 424.347Z" fill="#FBD98A"/>
<path d="M1627.75 322.012C1610.79 325.251 1593.53 326.626 1576.27 326.114C1567.01 325.587 1557.81 324.239 1548.6 323.008C1539.4 321.777 1529.66 321.191 1519.99 320.781C1516.87 320.954 1513.76 320.422 1510.87 319.225C1507.99 318.027 1505.42 316.195 1503.34 313.865C1502.87 313.337 1502.46 312.692 1501.99 312.106C1498.87 317.667 1496.39 323.566 1494.6 329.69C1505.16 333.734 1515.12 339.888 1526.67 340.416C1542.68 341.119 1557.1 333.089 1572.93 332.855C1581.32 332.855 1589.64 333.968 1597.97 334.613C1606.26 335.242 1614.6 334.749 1622.77 333.148C1633.07 331.04 1643.15 327.999 1652.9 324.063C1651.71 320.787 1650.3 317.595 1648.68 314.509C1642.47 318.781 1635.26 321.366 1627.75 322.012Z" fill="#FBD98A"/>
<path d="M1631.33 291.827C1627.28 293.468 1623.29 295.988 1620.48 297.336C1614.14 300.588 1607.34 302.842 1600.31 304.018C1592.35 304.901 1584.33 305.156 1576.33 304.78C1571.41 304.78 1566.48 305.073 1561.56 305.19C1549.19 306.025 1536.77 305.356 1524.56 303.197C1520.13 302.418 1515.9 300.743 1512.13 298.274C1511.08 299.446 1510.08 300.677 1509.08 301.967C1517.7 305.19 1526.67 307.183 1535.64 309.938C1550.12 314.334 1564.43 311.169 1579.2 312.399C1585.98 313.424 1592.82 313.894 1599.67 313.806C1606.86 312.72 1613.75 310.145 1619.89 306.245C1625.72 303.26 1631.8 300.807 1638.07 298.919C1635.98 296.411 1633.72 294.042 1631.33 291.827Z" fill="#FBD98A"/>
<path d="M1624.82 353.896C1608.31 351.552 1591.55 351.552 1575.04 353.896C1559.51 356.827 1546.26 366.205 1530.31 367.143C1517.52 367.223 1504.75 366.006 1492.2 363.509C1492.2 364.974 1492.61 366.439 1492.84 367.846C1497.89 369.253 1502.75 371.304 1507.68 373.062C1517.05 376.474 1527.07 377.736 1536.99 376.755C1547.44 375.907 1557.51 372.484 1566.31 366.791C1572.58 362.084 1579.59 358.459 1587.06 356.065C1595 354.421 1603.26 355.494 1610.51 359.113C1618.37 362.629 1626.28 368.139 1635.31 367.143C1642.94 365.491 1650.4 363.136 1657.59 360.109C1657.59 357.647 1657.94 355.127 1657.94 352.607C1657.94 350.087 1657.94 348.504 1657.94 346.746C1646.69 349.852 1636.43 354.951 1624.82 353.896Z" fill="#FBD98A"/>
<path d="M1658.06 352.49V354.013C1658.06 354.951 1658.06 356.417 1658.06 358.351C1657.73 363.88 1656.82 369.36 1655.36 374.703C1653.1 382.995 1649.6 390.899 1644.99 398.148C1638.89 407.687 1630.91 415.883 1621.53 422.237C1616.17 425.829 1610.43 428.817 1604.41 431.146C1583.68 438.835 1560.75 438.013 1540.63 428.86C1526.16 422.26 1513.82 411.768 1504.98 398.558C1500.34 391.84 1496.73 384.473 1494.25 376.696C1493.05 372.86 1492.13 368.942 1491.5 364.974C1490.88 360.918 1490.53 356.826 1490.44 352.724C1490.43 348.609 1490.69 344.498 1491.2 340.416C1491.78 336.452 1492.65 332.535 1493.78 328.693C1498.3 313.227 1507.17 299.383 1519.33 288.806C1531.49 278.23 1546.43 271.365 1562.38 269.027C1564.2 269.027 1566.07 268.558 1567.95 268.441C1568.83 268.441 1569.77 268.441 1570.7 268.441H1573.46C1575.34 268.441 1577.09 268.441 1578.85 268.441C1580.61 268.441 1582.49 268.441 1584.31 268.91C1591.19 269.683 1597.94 271.318 1604.41 273.774C1610.46 276.131 1616.22 279.158 1621.59 282.8C1638.16 294.157 1650.08 311.091 1655.19 330.51C1656.65 335.833 1657.55 341.294 1657.88 346.804C1657.88 348.738 1657.88 350.204 1657.88 351.2L1658.06 352.49ZM1658.06 352.49C1658.06 352.49 1658.06 351.962 1658.06 351.024C1658.06 350.087 1658.06 348.563 1658.06 346.687C1657.68 341.189 1656.72 335.746 1655.19 330.452C1654.16 326.668 1652.81 322.981 1651.14 319.433C1649.2 315.343 1646.93 311.422 1644.34 307.71C1638.11 298.601 1630.14 290.812 1620.89 284.793C1609.94 277.717 1597.5 273.264 1584.54 271.782L1579.38 271.371H1571.41H1568.71C1566.95 271.371 1565.13 271.723 1563.37 271.957C1559.74 272.452 1556.15 273.236 1552.65 274.302C1550.83 274.712 1549.13 275.415 1547.31 275.943C1545.49 276.47 1543.79 277.232 1542.09 278.053C1523.74 286.028 1508.93 300.431 1500.46 318.553C1491.98 336.676 1490.42 357.269 1496.07 376.462C1498.41 384.143 1501.84 391.447 1506.27 398.148C1514.8 411.201 1526.91 421.518 1541.15 427.864C1542.85 428.626 1544.67 429.271 1546.43 429.915C1548.19 430.56 1549.95 431.146 1551.77 431.557C1555.32 432.557 1558.95 433.301 1562.61 433.784C1564.43 433.784 1566.19 434.194 1568.01 434.311H1570.64H1573.4C1575.16 434.311 1576.92 434.311 1578.68 434.311C1580.44 434.311 1582.14 434.311 1583.89 433.901C1596.86 432.351 1609.3 427.839 1620.24 420.713C1629.49 414.684 1637.46 406.897 1643.7 397.796C1646.32 393.984 1648.6 389.943 1650.5 385.722C1652.16 382.174 1653.52 378.487 1654.54 374.703C1656.1 369.435 1657.06 364.009 1657.42 358.527C1657.42 356.592 1657.42 355.127 1657.42 354.189C1657.42 353.252 1657.83 352.49 1657.83 352.49H1658.06Z" fill="#6B1415"/>
<path d="M1575.69 278.932C1581.2 278.932 1586.83 278.932 1592.28 278.581C1594.02 278.525 1595.74 278.081 1597.29 277.28C1598.84 276.479 1600.19 275.341 1601.25 273.95C1584.73 268.342 1566.85 268.095 1550.18 273.247C1556.11 279.694 1566.54 279.225 1575.69 278.932Z" fill="#E05326"/>
<path d="M1609.87 284.149C1604.71 284.852 1599.55 285.907 1594.39 286.434C1583.31 287.548 1572.17 286.434 1561.09 286.434C1551.06 286.903 1539.1 287.431 1531.77 281.335C1527.47 283.91 1523.41 286.873 1519.64 290.186C1527.49 293.216 1535.71 295.187 1544.09 296.047C1555.81 296.691 1567.54 294.933 1579.26 296.047C1585.11 297.001 1591.1 296.762 1596.85 295.343C1601.44 293.5 1605.72 290.992 1609.57 287.9C1612.56 285.521 1616.02 283.803 1619.72 282.859L1618.49 282.097C1615.7 283.093 1612.81 283.78 1609.87 284.149Z" fill="#E05326"/>
<path d="M1517.23 357.53C1510.2 352.021 1499.65 351.669 1491.55 347.918C1491.55 349.5 1491.55 351.024 1491.55 352.607C1491.55 353.252 1491.55 353.896 1491.55 354.6H1492.2C1499.35 356.124 1510.14 361.692 1517.23 357.53Z" fill="#E05326"/>
<path d="M1615.14 370.659C1611.13 368.279 1607.31 365.595 1603.71 362.629C1599.31 360.911 1594.59 360.151 1589.88 360.402C1580.44 361.34 1571.17 368.549 1563.32 373.297C1562.26 373.942 1561.97 375.934 1563.67 375.758C1569.46 374.629 1575.41 374.471 1581.26 375.29C1586.18 376.082 1591.16 376.435 1596.15 376.345C1601.6 376.345 1612.62 376.345 1616.38 371.656L1615.14 370.659Z" fill="#E05326"/>
<path opacity="0.6" d="M1604.42 369.253C1602.67 367.315 1600.38 365.947 1597.85 365.326C1595.22 364.332 1592.45 363.758 1589.64 363.626C1583.78 362.981 1580.49 366.967 1575.86 369.487C1574.51 370.132 1574.46 372.3 1576.21 372.124C1581.24 371.811 1586.29 371.968 1591.28 372.593C1595.16 373.342 1599.14 373.342 1603.01 372.593C1603.95 371.949 1605.65 370.425 1604.42 369.253Z" fill="#81171B"/>
<path style="mix-blend-mode:multiply" d="M1574.75 435.249C1621.12 435.249 1658.71 397.829 1658.71 351.669C1658.71 305.509 1621.12 268.089 1574.75 268.089C1528.38 268.089 1490.79 305.509 1490.79 351.669C1490.79 397.829 1528.38 435.249 1574.75 435.249Z" fill="url(#paint9_radial_107_632)"/>
<g style="mix-blend-mode:multiply" opacity="0.7">
<path d="M1647.57 313.337C1647.57 313.337 1666.39 372.476 1631.68 409.929C1631.68 409.929 1673.77 378.396 1647.57 313.337Z" fill="#49190D"/>
</g>
<path style="mix-blend-mode:screen" d="M1508.26 394.514C1506.8 391.408 1505.21 385.312 1510.14 384.492C1515.06 383.671 1521.87 382.675 1520.17 375.583C1518.92 371.357 1516.94 367.388 1514.3 363.86C1509.44 356.534 1501.99 345.398 1509.67 337.251C1513.6 333.939 1518.11 331.394 1522.98 329.748C1525.84 328.368 1528.37 326.387 1530.39 323.938C1532.42 321.49 1533.89 318.634 1534.71 315.564C1535.06 314.509 1535.53 311.579 1536.76 311.051C1538.99 310.055 1537.81 308.941 1537.34 307.359C1537.29 304.568 1538.04 301.821 1539.51 299.446C1542.15 294.699 1550.3 294.523 1555.05 294.288C1561.73 293.937 1600.43 295.754 1594.33 282.566C1592.92 279.636 1588.94 275.591 1594.33 274.478C1597.19 274.125 1600.09 274.125 1602.95 274.478C1594.54 271.764 1585.76 270.38 1576.92 270.375C1560.38 270.296 1544.19 275.127 1530.4 284.255C1516.61 293.383 1505.84 306.398 1499.45 321.65C1493.07 336.903 1491.35 353.707 1494.53 369.933C1497.71 386.16 1505.63 401.079 1517.29 412.801C1518 407.643 1510.08 398.558 1508.26 394.514Z" fill="url(#paint10_radial_107_632)"/>
<g style="mix-blend-mode:overlay">
<path d="M1525.56 288.31C1525.56 288.31 1472.79 332.327 1505.98 390.88C1505.98 390.88 1480.59 334.086 1525.56 288.31Z" fill="white"/>
</g>
<g style="mix-blend-mode:overlay" opacity="0.5">
<path d="M1638.3 305.659C1633.01 305.27 1627.72 306.54 1623.18 309.293C1617.08 312.642 1610.42 314.865 1603.54 315.857C1595.63 317.272 1587.59 317.842 1579.56 317.557C1573.36 316.825 1567.11 316.825 1560.91 317.557C1560.33 317.557 1560.03 318.788 1560.91 318.729C1567.71 319.007 1574.45 320.15 1580.96 322.129C1585.74 322.891 1590.61 322.891 1595.39 322.129C1601.33 322.119 1607.25 321.311 1612.97 319.726C1620.69 318.277 1628.23 316.038 1635.49 313.044C1635.96 313.044 1636.02 311.813 1635.49 311.989C1631.02 313.036 1626.5 313.819 1621.95 314.334C1623.41 313.396 1624.82 312.517 1626.4 311.696C1630.21 310.233 1634.13 309.077 1638.13 308.238C1639.3 308.062 1640.06 305.952 1638.3 305.659Z" fill="#FDF8D3"/>
</g>
<g style="mix-blend-mode:overlay" opacity="0.5">
<path d="M1581.02 330.041C1569.43 327.384 1557.38 327.504 1545.84 330.393C1538.79 331.864 1531.55 332.201 1524.39 331.389C1517.09 329.863 1509.88 327.906 1502.81 325.528C1502.11 325.528 1501.46 326.407 1502.22 326.759C1514.54 332.327 1525.32 338.481 1539.28 337.309C1546.19 336.21 1552.97 334.403 1559.51 331.917C1566.89 329.631 1573.28 332.386 1580.49 331.507C1581.32 331.565 1581.78 330.334 1581.02 330.041Z" fill="#FDF8D3"/>
</g>
<g style="mix-blend-mode:overlay" opacity="0.5">
<path d="M1593.92 346.687C1583.13 345.984 1571.35 344.167 1560.79 347.097C1555.79 348.88 1550.92 350.995 1546.2 353.427C1538.43 356.587 1529.76 356.775 1521.87 353.955C1521.87 353.955 1521.51 353.955 1521.87 354.307C1526.17 357.362 1531.25 359.152 1536.53 359.473C1541.8 359.794 1547.06 358.634 1551.71 356.124C1554.4 354.834 1556.87 352.959 1559.39 351.435C1563.8 349.35 1568.63 348.289 1573.52 348.328C1580.38 347.918 1587.06 347.566 1593.92 347.391C1593.92 347.391 1594.21 346.746 1593.92 346.687Z" fill="#FDF8D3"/>
</g>
<g style="mix-blend-mode:overlay" opacity="0.5">
<path d="M1570.76 358.585C1561.79 359.933 1553.76 365.326 1545.02 367.787C1534 371.109 1522.34 371.733 1511.02 369.604C1510.73 369.604 1510.37 370.073 1510.73 370.19C1520.41 373.662 1530.75 374.923 1540.98 373.883C1545.48 373.095 1549.6 370.85 1552.7 367.494C1558.36 363.946 1564.53 361.296 1571 359.64C1571.47 359.464 1571.41 358.527 1570.76 358.585Z" fill="#FDF8D3"/>
</g>
<g style="mix-blend-mode:overlay" opacity="0.5">
<path d="M1558.74 394.631C1552.41 391.642 1546.02 394.631 1539.69 396.097C1529.31 398.617 1519.76 392.756 1509.73 391.759C1509.2 391.759 1508.73 392.638 1509.32 392.756C1516.73 395.528 1524.31 397.819 1532.01 399.613C1540.92 400.785 1549.3 395.628 1558.27 395.921C1558.74 395.921 1559.39 394.924 1558.74 394.631Z" fill="#FDF8D3"/>
</g>
<g style="mix-blend-mode:overlay" opacity="0.5">
<path d="M1647.33 371.656C1636.78 371.011 1625.81 376.872 1616.38 380.799C1609.35 384.249 1601.73 386.3 1593.92 386.836C1588.06 386.836 1581.55 385.898 1575.39 385.605C1581.26 386.719 1587.12 388.36 1593.33 389.356C1599.15 390.003 1605.03 389.465 1610.63 387.774C1616.3 386.135 1621.67 383.581 1626.52 380.213C1633 376.559 1640.09 374.116 1647.45 373.004C1647.86 373.004 1648.27 371.714 1647.33 371.656Z" fill="#FDF8D3"/>
</g>
<g style="mix-blend-mode:overlay" opacity="0.5">
<path d="M1626.93 395.569C1619.13 396.272 1612.21 399.203 1604.18 399.32C1595.89 400.016 1587.55 399.562 1579.38 397.972C1579.38 397.972 1578.79 398.383 1579.38 398.441C1595.12 402.84 1611.84 402.246 1627.22 396.741C1627.63 396.566 1627.81 395.511 1626.93 395.569Z" fill="#FDF8D3"/>
</g>
<g style="mix-blend-mode:overlay" opacity="0.5">
<path d="M1528.84 315.799C1526.05 315.212 1523.18 315.093 1520.34 315.447C1515.62 314.986 1511.07 313.398 1507.09 310.817C1506.62 310.524 1506.04 311.227 1506.45 311.579C1509.55 313.974 1513.12 315.7 1516.92 316.648C1520.72 317.596 1524.68 317.746 1528.55 317.088C1529.43 317.03 1529.43 316.033 1528.84 315.799Z" fill="#FDF8D3"/>
</g>
<g style="mix-blend-mode:overlay" opacity="0.5">
<path d="M1558.04 300.853C1545.55 299.505 1531.36 302.787 1519.87 296.281C1519.4 296.281 1518.76 296.926 1519.23 297.219C1529.78 304.077 1545.84 302.67 1557.81 301.908C1558.33 301.849 1558.74 300.912 1558.04 300.853Z" fill="#FDF8D3"/>
</g>
<g style="mix-blend-mode:overlay" opacity="0.5">
<path d="M1559.51 293.878C1554.64 293.468 1549.83 294.288 1544.97 294.288C1540.55 293.924 1536.26 292.646 1532.36 290.537C1532.07 290.537 1531.72 290.948 1532.01 291.123C1539.04 296.223 1551.06 296.399 1559.33 295.578C1560.15 295.519 1560.5 293.937 1559.51 293.878Z" fill="#FDF8D3"/>
</g>
<path d="M678.96 1697.27C665.733 1714.23 647.773 1726.88 627.351 1733.62C606.93 1740.37 584.966 1740.91 564.239 1735.17C543.512 1729.43 524.954 1717.67 510.913 1701.39C496.871 1685.1 487.978 1665.02 485.359 1643.68C482.74 1622.34 486.513 1600.7 496.199 1581.5C505.886 1562.31 521.051 1546.41 539.776 1535.84C558.5 1525.26 579.943 1520.47 601.39 1522.08C622.836 1523.69 643.323 1531.63 660.257 1544.88C682.928 1562.63 697.631 1588.64 701.137 1617.21C704.643 1645.78 696.667 1674.57 678.96 1697.27Z" fill="#27ACE3"/>
<path d="M679.311 1697.39L678.08 1698.91C677.201 1699.91 676.087 1701.43 674.387 1703.25C669.593 1708.66 664.249 1713.55 658.44 1717.84C649.413 1724.61 639.41 1729.97 628.773 1733.73C614.86 1738.61 600.098 1740.6 585.388 1739.59C576.957 1738.96 568.621 1737.41 560.529 1734.96C551.912 1732.2 543.663 1728.4 535.964 1723.65C519.359 1713.29 505.851 1698.65 496.859 1681.27C487.3 1662.81 483.077 1642.04 484.664 1621.31C485.504 1610.79 487.874 1600.44 491.699 1590.6C493.598 1585.6 495.852 1580.74 498.442 1576.06C501.084 1571.39 504.041 1566.91 507.295 1562.64C510.582 1558.4 514.146 1554.39 517.965 1550.63C521.843 1546.9 525.977 1543.46 530.336 1540.31C543.267 1531.16 558.026 1524.91 573.602 1521.99C589.177 1519.08 605.198 1519.57 620.565 1523.43C630.29 1525.84 639.625 1529.61 648.297 1534.63C650.407 1535.86 652.518 1537.09 654.511 1538.43L657.501 1540.49L660.374 1542.66C662.426 1544.12 664.068 1545.64 665.885 1547.11C667.703 1548.57 669.462 1550.27 671.103 1551.92C677.564 1558.28 683.198 1565.42 687.871 1573.19C692.193 1580.45 695.675 1588.18 698.248 1596.23C702.673 1610.27 704.19 1625.07 702.704 1639.72C701.583 1650.92 698.755 1661.89 694.32 1672.24C691.519 1678.91 688.041 1685.28 683.943 1691.24C682.595 1693.35 681.363 1694.81 680.601 1695.87L679.311 1697.39ZM679.018 1697.39L680.191 1695.87C680.894 1694.81 682.126 1693.29 683.415 1691.18C687.456 1685.24 690.856 1678.9 693.558 1672.24C695.521 1667.52 697.09 1662.64 698.248 1657.65C699.653 1651.88 700.575 1645.99 701.004 1640.07C702.018 1624.37 699.631 1608.64 694.005 1593.96C688.379 1579.27 679.647 1565.97 668.406 1554.96C666.823 1553.38 665.123 1551.92 663.423 1550.39L660.726 1548.16L659.378 1547.05L658.029 1546.05L655.215 1544L652.342 1542.01C650.407 1540.66 648.355 1539.55 646.479 1538.32C642.327 1535.95 638.017 1533.88 633.581 1532.1C631.353 1531.11 629.067 1530.41 626.78 1529.53C624.493 1528.65 622.09 1528.06 619.745 1527.47C599.675 1522.33 578.549 1523.08 558.89 1529.61C539.231 1536.15 521.869 1548.21 508.878 1564.34C505.519 1568.25 502.406 1572.36 499.556 1576.65C496.933 1581.22 494.622 1585.96 492.637 1590.83C488.821 1600.62 486.451 1610.9 485.602 1621.37C484.064 1641.85 488.504 1662.33 498.383 1680.33C499.497 1682.5 500.904 1684.61 502.135 1686.66C503.366 1688.71 504.832 1690.77 506.298 1692.52C509.187 1696.37 512.32 1700.04 515.678 1703.49C517.379 1705.13 519.02 1706.88 520.779 1708.35L523.417 1710.69L526.173 1712.92C527.932 1714.39 529.867 1715.68 531.684 1717.08C533.502 1718.49 535.495 1719.66 537.547 1720.78C550.986 1728.99 566.03 1734.23 581.666 1736.14C597.301 1738.05 613.164 1736.59 628.187 1731.85C633.956 1730.06 639.549 1727.75 644.896 1724.94C649.468 1722.62 653.841 1719.94 657.971 1716.91C663.793 1712.69 669.158 1707.88 673.976 1702.55C675.676 1700.79 676.849 1699.21 677.728 1698.27L679.018 1697.39Z" fill="#2B62AC"/>
<path d="M678.96 1697.27C665.733 1714.23 647.773 1726.88 627.351 1733.62C606.93 1740.37 584.966 1740.91 564.239 1735.17C543.512 1729.43 524.954 1717.67 510.913 1701.39C496.871 1685.1 487.978 1665.02 485.359 1643.68C482.74 1622.34 486.513 1600.7 496.199 1581.5C505.886 1562.31 521.051 1546.41 539.776 1535.84C558.5 1525.26 579.943 1520.47 601.39 1522.08C622.836 1523.69 643.323 1531.63 660.257 1544.88C682.928 1562.63 697.631 1588.64 701.137 1617.21C704.643 1645.78 696.667 1674.57 678.96 1697.27Z" fill="#77674D"/>
<path d="M679.311 1697.39L678.08 1698.91C677.201 1699.91 676.087 1701.43 674.387 1703.25C669.593 1708.66 664.249 1713.55 658.44 1717.84C649.413 1724.61 639.41 1729.97 628.773 1733.73C614.86 1738.61 600.098 1740.6 585.388 1739.59C576.957 1738.96 568.621 1737.41 560.529 1734.96C551.912 1732.2 543.663 1728.4 535.964 1723.65C519.359 1713.29 505.851 1698.65 496.859 1681.27C487.3 1662.81 483.077 1642.04 484.664 1621.31C485.504 1610.79 487.874 1600.44 491.699 1590.6C493.598 1585.6 495.852 1580.74 498.442 1576.06C501.084 1571.39 504.041 1566.91 507.295 1562.64C510.582 1558.4 514.146 1554.39 517.965 1550.63C521.843 1546.9 525.977 1543.46 530.336 1540.31C543.267 1531.16 558.026 1524.91 573.602 1521.99C589.177 1519.08 605.198 1519.57 620.565 1523.43C630.29 1525.84 639.625 1529.61 648.297 1534.63C650.407 1535.86 652.518 1537.09 654.511 1538.43L657.501 1540.49L660.374 1542.66C662.426 1544.12 664.068 1545.64 665.885 1547.11C667.703 1548.57 669.462 1550.27 671.103 1551.92C677.564 1558.28 683.198 1565.42 687.871 1573.19C692.193 1580.45 695.675 1588.18 698.248 1596.23C702.673 1610.27 704.19 1625.07 702.704 1639.72C701.583 1650.92 698.755 1661.89 694.32 1672.24C691.519 1678.91 688.041 1685.28 683.943 1691.24C682.595 1693.35 681.363 1694.81 680.601 1695.87L679.311 1697.39ZM679.018 1697.39L680.191 1695.87C680.894 1694.81 682.126 1693.29 683.415 1691.18C687.456 1685.24 690.856 1678.9 693.558 1672.24C695.521 1667.52 697.09 1662.64 698.248 1657.65C699.653 1651.88 700.575 1645.99 701.004 1640.07C702.018 1624.37 699.631 1608.64 694.005 1593.96C688.379 1579.27 679.647 1565.97 668.406 1554.96C666.823 1553.38 665.123 1551.92 663.423 1550.39L660.726 1548.16L659.378 1547.05L658.029 1546.05L655.215 1544L652.342 1542.01C650.407 1540.66 648.355 1539.55 646.479 1538.32C642.327 1535.95 638.017 1533.88 633.581 1532.1C631.353 1531.11 629.067 1530.41 626.78 1529.53C624.493 1528.65 622.09 1528.06 619.745 1527.47C599.675 1522.33 578.549 1523.08 558.89 1529.61C539.231 1536.15 521.869 1548.21 508.878 1564.34C505.519 1568.25 502.406 1572.36 499.556 1576.65C496.933 1581.22 494.622 1585.96 492.637 1590.83C488.821 1600.62 486.451 1610.9 485.602 1621.37C484.064 1641.85 488.504 1662.33 498.383 1680.33C499.497 1682.5 500.904 1684.61 502.135 1686.66C503.366 1688.71 504.832 1690.77 506.298 1692.52C509.187 1696.37 512.32 1700.04 515.678 1703.49C517.379 1705.13 519.02 1706.88 520.779 1708.35L523.417 1710.69L526.173 1712.92C527.932 1714.39 529.867 1715.68 531.684 1717.08C533.502 1718.49 535.495 1719.66 537.547 1720.78C550.986 1728.99 566.03 1734.23 581.666 1736.14C597.301 1738.05 613.164 1736.59 628.187 1731.85C633.956 1730.06 639.549 1727.75 644.896 1724.94C649.468 1722.62 653.841 1719.94 657.971 1716.91C663.793 1712.69 669.158 1707.88 673.976 1702.55C675.676 1700.79 676.849 1699.21 677.728 1698.27L679.018 1697.39Z" fill="#77674D"/>
<path d="M613.647 1683.32C638.388 1677.82 662.123 1668.51 684.002 1655.72C689.278 1652.55 694.965 1649.21 700.594 1645.64C701.295 1640.84 701.648 1636 701.649 1631.16C671.924 1654.6 632.232 1664.1 594.827 1668.2C569.048 1671.01 543.04 1671.01 517.261 1668.2C508.409 1667.2 499.321 1666.21 490.292 1664.74C491.936 1669.46 493.895 1674.06 496.155 1678.52C534.161 1690.73 574.771 1692.39 613.647 1683.32Z" fill="#957C56"/>
<path d="M629.653 1718.37C606.664 1725.46 582.71 1728.92 558.653 1728.63L546.928 1728.22C569.161 1738.76 594.318 1741.44 618.274 1735.82C642.23 1730.19 663.566 1716.6 678.784 1697.27C679.312 1696.69 679.722 1696.04 680.25 1695.4C664.608 1705.51 647.559 1713.25 629.653 1718.37Z" fill="#D9B352"/>
<path d="M525.997 1647.28C513.92 1646.05 501.784 1644.93 489.706 1643.41L485.602 1642.82C485.602 1644.7 486.071 1646.51 486.423 1648.33C493.165 1649.27 499.849 1649.8 506.122 1650.27C524.211 1651.53 542.374 1651.23 560.412 1649.39C548.921 1649.23 537.449 1648.53 525.997 1647.28Z" fill="#B49C6D"/>
<path d="M552.556 1538.14C559.085 1536.87 565.528 1535.19 571.845 1533.1C575.993 1531.8 579.939 1529.92 583.571 1527.53C585.723 1526.12 587.692 1524.45 589.433 1522.55C569.951 1523.03 550.955 1528.74 534.44 1539.08C540.472 1540.14 546.666 1539.82 552.556 1538.14Z" fill="#AD9C94"/>
<path d="M535.085 1552.38C544.772 1551.6 554.391 1550.13 563.871 1547.99C573.766 1546.07 583.551 1543.62 593.186 1540.66C603.436 1538.01 612.982 1533.15 621.152 1526.42C611.601 1523.8 601.739 1522.5 591.837 1522.55C587.35 1527.39 581.843 1531.18 575.714 1533.63C566.659 1536.97 557.29 1539.38 547.748 1540.84C542.577 1541.94 537.221 1541.84 532.095 1540.55C526.999 1543.93 522.195 1547.73 517.73 1551.92C523.464 1552.89 529.307 1553.05 535.085 1552.38Z" fill="#B49C6D"/>
<path d="M566.862 1559.71C581.258 1556.76 595.239 1552.06 608.488 1545.7C614.351 1542.83 619.686 1539.49 625.139 1536.15C628.024 1534.41 630.769 1532.45 633.347 1530.29C630.181 1529 626.956 1527.89 623.731 1526.89C616.097 1533.67 607.043 1538.65 597.231 1541.48C585.704 1545.17 573.955 1548.13 562.054 1550.33C550.342 1553.16 538.338 1554.59 526.29 1554.61C522.882 1554.62 519.482 1554.27 516.148 1553.56C512.814 1556.8 509.699 1560.27 506.826 1563.93V1564.34C526.954 1565.42 547.138 1563.87 566.862 1559.71Z" fill="#957C56"/>
<path d="M507.412 1585.62C525.093 1584.78 542.659 1582.3 559.885 1578.23C578.817 1573.58 597.024 1566.37 613.999 1556.78C622.225 1552.14 630.067 1546.85 637.451 1540.96L644.134 1535.62L643.548 1535.27C638.037 1539.02 632.291 1542.42 626.78 1545.88C612.036 1555.79 596.023 1563.68 579.173 1569.32C562.014 1574.39 544.287 1577.28 526.408 1577.94C517.848 1578.29 508.819 1578.82 500.435 1578.58H497.973C496.465 1581.25 495.095 1583.99 493.869 1586.79L507.412 1585.62Z" fill="#B49C6D"/>
<path d="M659.788 1545.7L656.857 1543.53L653.691 1546.17C646.655 1551.51 639.209 1556.43 631.763 1561.18C613.046 1573.43 592.672 1582.94 571.259 1589.43C549.733 1595.44 527.402 1598.07 505.067 1597.22C500.2 1597.22 495.1 1596.75 489.94 1596.11L496.859 1596.75C507.412 1597.69 517.906 1598.69 528.518 1598.69C548.868 1598.99 569.147 1596.22 588.671 1590.48C609.259 1584.38 628.651 1574.81 646.01 1562.17C651.404 1558.13 657.736 1553.62 663.599 1548.46L659.788 1545.7Z" fill="#D9B352"/>
<path d="M508.35 1595.29C528.662 1595.75 548.942 1593.43 568.62 1588.37C588.44 1582.65 607.378 1574.23 624.904 1563.35C632.702 1558.54 640.323 1553.56 647.769 1548.22C650.333 1546.4 652.799 1544.44 655.156 1542.36C652.108 1540.25 649 1538.3 645.834 1536.5L642.082 1539.67C634.8 1545.69 627.1 1551.2 619.041 1556.14C601.421 1566.61 582.388 1574.51 562.523 1579.58C543.776 1584.03 524.662 1586.75 505.419 1587.73C501.315 1588.02 497.035 1588.37 492.755 1588.61C491.993 1590.48 491.289 1592.36 490.585 1594.47C496.484 1595.11 502.417 1595.38 508.35 1595.29Z" fill="#AD9C94"/>
<path d="M587.381 1601.74C606.056 1597.66 623.747 1589.96 639.444 1579.05C646.74 1573.47 653.582 1567.31 659.905 1560.65C662.426 1558.07 665.123 1555.37 667.527 1552.44L664.771 1549.92C659.875 1554.32 654.748 1558.44 649.411 1562.29C631.247 1575.82 610.847 1586.06 589.14 1592.53C567.26 1598.9 544.485 1601.65 521.717 1600.68C511.223 1600.39 500.728 1599.51 490.292 1598.34H489.296C488.768 1599.92 488.299 1601.5 487.888 1603.14C520.723 1610.3 554.763 1609.82 587.381 1601.74Z" fill="#957C56"/>
<path d="M672.628 1557.6C671.455 1556.31 670.283 1555.14 669.051 1553.91C667.879 1555.31 666.648 1556.72 665.358 1558.01C658.497 1565.64 650.983 1572.66 642.903 1578.99C627.09 1590.45 609.152 1598.64 590.137 1603.08C556.576 1611.57 521.512 1612.23 487.654 1605.02C486.95 1607.83 486.364 1610.88 485.895 1613.57L489.061 1614.16C523.504 1621.14 559.165 1619.12 592.599 1608.3C620.155 1600.09 657.501 1584.86 672.628 1557.6Z" fill="#B49C6D"/>
<path d="M517.906 1666.85C542.733 1669.52 567.773 1669.52 592.599 1666.85C630.767 1662.69 671.514 1653.55 701.473 1628.93C701.473 1625.77 701.473 1622.6 700.887 1619.44C695.551 1622.07 690.216 1624.36 685.35 1626.41C660.208 1636.45 633.918 1643.35 607.081 1646.92C596.546 1648.41 585.938 1649.31 575.304 1649.62C552.044 1653.31 528.438 1654.31 504.949 1652.61C499.086 1652.2 492.755 1651.61 486.364 1650.79C487.165 1654.93 488.202 1659.02 489.471 1663.04C498.969 1664.57 508.526 1665.92 517.906 1666.85Z" fill="#957C56"/>
<path d="M541.006 1725.99C548.902 1726.97 556.854 1727.42 564.809 1727.34C586.451 1726.95 607.935 1723.57 628.656 1717.32C648.079 1711.76 666.473 1703.09 683.122 1691.65C687.58 1685.04 691.296 1677.96 694.203 1670.55C672.07 1686.53 647.502 1698.84 621.445 1707C597.225 1715 571.775 1718.64 546.283 1717.73C539.716 1717.43 532.798 1716.97 525.821 1716.09C530.602 1719.8 535.681 1723.11 541.006 1725.99Z" fill="#B49C6D"/>
<path d="M550.973 1715.73C574.645 1716.06 598.205 1712.44 620.683 1705.01C647.533 1696.56 672.765 1683.64 695.317 1666.79C697.402 1660.91 698.952 1654.85 699.949 1648.68L688.223 1655.72C665.674 1669.42 641.069 1679.42 615.347 1685.32C576.181 1694.7 535.224 1693.48 496.683 1681.8C503.189 1693.99 511.987 1704.82 522.597 1713.68C531.992 1715.07 541.476 1715.75 550.973 1715.73Z" fill="#D9B352"/>
<path d="M604.97 1645.46C631.402 1642.16 657.32 1635.59 682.126 1625.88C687.988 1623.48 694.262 1620.78 700.594 1617.56C699.597 1609.23 697.629 1601.05 694.731 1593.18C692.805 1596.15 690.586 1598.92 688.106 1601.44C679.101 1610.33 668.802 1617.8 657.56 1623.6C636.713 1634.48 614.427 1642.36 591.368 1646.98C595.824 1646.63 600.397 1646.16 604.97 1645.46Z" fill="#957C56"/>
<path d="M495.686 1642.65C506.65 1643.7 517.555 1645.17 528.518 1646.22C544.101 1647.78 559.766 1648.37 575.421 1647.98L581.988 1646.87C606.429 1642.75 630.133 1635.07 652.342 1624.07C664.192 1618.35 675.088 1610.83 684.647 1601.79C687.994 1598.35 690.962 1594.56 693.5 1590.48C691.362 1585.19 688.813 1580.08 685.878 1575.18C677.502 1585.76 667.021 1594.48 655.098 1600.8C633.07 1612.61 609.171 1620.54 584.45 1624.24C558.945 1628.71 533.064 1630.67 507.177 1630.1C499.438 1630.1 491.875 1629.69 484.371 1628.87C484.272 1633.14 484.468 1637.41 484.957 1641.65C488.533 1642 492.168 1642.35 495.686 1642.65Z" fill="#D9B352"/>
<path d="M516.323 1628.05C539.725 1628.12 563.088 1626.16 586.15 1622.19C608.426 1618.72 629.99 1611.65 649.997 1601.27C661.254 1595.05 676.439 1585.56 684.471 1573.19C681.407 1568.3 677.936 1563.67 674.093 1559.36C658.146 1586.5 620.858 1601.79 592.775 1610.12C558.037 1621.35 520.955 1623.25 485.25 1615.63C484.734 1619.34 484.421 1623.08 484.312 1626.82C494.951 1627.82 505.638 1628.23 516.323 1628.05Z" fill="#957C56"/>
<path d="M509.698 1576.3C517.437 1576.3 525.235 1576.3 533.15 1575.54C549.303 1574.59 565.275 1571.64 580.698 1566.74C596.5 1561 611.558 1553.39 625.549 1544.06C630.767 1540.78 636.219 1537.56 641.437 1534.04L635.574 1531.4C629.378 1536.53 622.563 1540.86 615.289 1544.3C601.494 1551.73 586.735 1557.21 571.435 1560.59C549.814 1565.37 527.65 1567.22 505.536 1566.1C503.073 1569.5 500.787 1572.96 498.735 1576.47C502.428 1576.65 506.122 1576.65 509.698 1576.3Z" fill="#D9B352"/>
<g style="mix-blend-mode:multiply">
<path d="M679.311 1695.98C666.085 1712.94 648.124 1725.59 627.703 1732.33C607.282 1739.08 585.318 1739.62 564.591 1733.88C543.864 1728.14 525.306 1716.38 511.264 1700.1C497.223 1683.81 488.33 1663.73 485.711 1642.39C483.092 1621.05 486.864 1599.41 496.551 1580.21C506.238 1561.02 521.403 1545.12 540.127 1534.55C558.852 1523.97 580.295 1519.18 601.741 1520.79C623.188 1522.4 643.675 1530.34 660.609 1543.59C683.28 1561.34 697.982 1587.35 701.489 1615.92C704.995 1644.49 697.019 1673.29 679.311 1695.98Z" fill="#4A9196"/>
</g>
<path style="mix-blend-mode:screen" d="M681.187 1577.35C676.321 1563.58 675.325 1556.96 657.032 1542.19C638.005 1527.8 614.646 1520.32 590.8 1520.97C566.953 1521.62 544.037 1530.36 525.821 1545.76C518.611 1551.84 512.313 1558.93 507.119 1566.8C497.906 1582.33 491.924 1599.55 489.53 1617.44C487.931 1626.17 488.638 1635.16 491.582 1643.53C495.659 1644.45 499.791 1645.12 503.953 1645.52C508.115 1633.8 518.786 1626.29 528.225 1618.32C534.615 1612.87 541.71 1607.66 543.703 1598.98C545.696 1590.31 534.498 1584.68 532.974 1576.65C531.45 1568.62 543.234 1563.93 548.393 1561.82C552.606 1559.63 557.453 1558.97 562.098 1559.97C566.743 1560.96 570.895 1563.54 573.838 1567.27C587.557 1581.51 604.266 1557.89 618.455 1565.34C622.91 1567.68 624.318 1573.95 626.604 1577.88C628.653 1581.23 631.741 1583.83 635.398 1585.27C639.23 1586.36 643.292 1586.36 647.124 1585.27C653.843 1583.95 660.683 1583.36 667.527 1583.51C671.041 1583.72 674.566 1583.72 678.08 1583.51C679.313 1581.56 680.354 1579.5 681.187 1577.35Z" fill="url(#paint11_radial_107_632)"/>
<path d="M782.557 1607.71C775.873 1588.66 746.265 1585.44 729.439 1583.51C717.169 1581.97 704.808 1581.29 692.444 1581.46C693.856 1584.01 694.902 1586.76 695.552 1589.6C696.138 1591.77 696.665 1594 697.134 1596.23C708.391 1597.52 719.648 1598.86 730.729 1601.15C737.002 1603.61 743.686 1607.95 737.413 1614.34C729.985 1621.21 721.439 1626.76 712.144 1630.75C690.803 1640.89 666.237 1645.58 643.079 1649.68C618.868 1653.77 594.346 1655.73 569.793 1655.54C536.335 1656.4 502.928 1652.45 470.593 1643.82C465.434 1642.29 447.141 1637.43 449.838 1629.46C452.887 1619.85 465.609 1613.81 473.993 1610.12C478.566 1608.05 483.139 1606.09 487.713 1604.26C488.51 1600.04 489.788 1595.93 491.523 1592.01C482.477 1592.75 473.475 1593.96 464.554 1595.64C449.492 1597.8 434.643 1601.25 420.172 1605.96C410.162 1609.47 401.712 1616.4 396.31 1625.53C394.844 1630.41 395.008 1635.64 396.779 1640.42C404.694 1662.28 434.243 1669.72 454.294 1675.06C504.656 1689.13 559.357 1687.89 610.833 1682.38C650.652 1678.63 689.857 1669.99 727.563 1656.65C744.331 1650.62 791.41 1633.15 782.557 1607.71Z" fill="#AD9C94"/>
<path d="M433.891 1621.49C446.79 1605.96 468.306 1601.15 489.061 1598.63C489.061 1598.04 489.471 1597.4 489.706 1596.75C485.426 1597.52 481.205 1598.51 477.042 1599.22C466.533 1600.9 456.194 1603.51 446.145 1607.01C436.647 1610.53 422.693 1615.1 416.83 1624.59C414.956 1627.95 414.346 1631.86 415.109 1635.62C415.873 1639.39 417.96 1642.75 420.993 1645.11C429.14 1651.68 438.504 1656.58 448.549 1659.53C459.235 1663.39 470.214 1666.39 481.381 1668.49C503.766 1672.57 526.46 1674.73 549.214 1674.94C615.465 1676.11 685.057 1672.3 743.569 1638.54C752.07 1633.62 768.603 1625.06 769.658 1613.81C771.007 1599.8 747.731 1597.69 738.116 1596.64L729.322 1595.52C734.293 1596.8 739.125 1598.56 743.744 1600.8C755.47 1606.66 756.819 1617.5 747.204 1625.82C734.657 1636.67 717.537 1642.59 702.001 1647.8C687.709 1652.71 673.169 1656.86 658.44 1660.23C627.743 1666.53 596.431 1669.35 565.103 1668.61C531.039 1668.32 494.338 1665.74 462.033 1654.02C451.597 1649.97 420.7 1637.43 433.891 1621.49Z" fill="#957C56"/>
<path d="M449.838 1629.4C452.887 1619.79 465.609 1613.75 473.993 1610.06C478.566 1607.99 483.139 1606.03 487.712 1604.2C487.904 1603.03 488.159 1601.88 488.475 1600.74C472.059 1602.73 455.643 1606.31 442.861 1616.04C436.002 1621.25 429.611 1628.7 436.999 1636.67C442.514 1642.22 449.177 1646.5 456.522 1649.21C479.231 1657.83 503.103 1663.01 527.346 1664.57C554.962 1667.06 582.747 1667.06 610.364 1664.57C650.642 1660.99 692.444 1652.84 728.735 1634.85C737.881 1630.4 761.392 1617.97 747.379 1605.55C735.302 1595.05 714.899 1594.53 699.773 1591.83L696.021 1591.19C696.431 1592.77 696.783 1594.35 697.134 1595.93C708.391 1597.22 719.648 1598.57 730.729 1600.86C737.002 1603.32 743.686 1607.66 737.412 1614.04C729.985 1620.91 721.439 1626.46 712.143 1630.46C690.803 1640.59 666.237 1645.28 643.079 1649.39C618.868 1653.48 594.346 1655.44 569.793 1655.25C536.335 1656.11 502.928 1652.16 470.593 1643.53C465.434 1642.35 447.317 1637.49 449.838 1629.4Z" fill="#D9B352"/>
<g style="mix-blend-mode:screen" opacity="0.6">
<path d="M760.923 1592.89C760.923 1592.89 793.52 1602.5 772.648 1629.58C772.648 1629.58 761.509 1644.7 701.942 1662.87C701.942 1662.87 758.988 1645.28 770.89 1627.7C782.791 1610.12 770.772 1598.98 760.923 1592.89Z" fill="white"/>
</g>
<path d="M491.699 1591.95L478.742 1593.41C476.573 1593.71 474.404 1594.12 472.293 1594.47L465.844 1595.52L459.453 1596.75L453.004 1597.98C448.783 1598.81 444.503 1599.63 440.223 1600.62C438.113 1601.09 436.002 1601.56 433.891 1602.15C431.781 1602.73 429.729 1603.32 427.677 1603.96C425.625 1604.61 423.573 1605.31 421.814 1606.07C420.793 1606.42 419.795 1606.83 418.824 1607.3C417.815 1607.68 416.836 1608.13 415.892 1608.65C413.866 1609.59 411.907 1610.67 410.029 1611.88L407.45 1613.75L404.987 1615.86C403.435 1617.34 401.986 1618.93 400.649 1620.61C399.312 1622.29 398.079 1624.05 396.955 1625.88C395.36 1631.22 395.799 1636.97 398.186 1642C400.423 1647.12 403.838 1651.64 408.153 1655.19C412.493 1658.74 417.283 1661.69 422.4 1663.98C427.509 1666.26 432.757 1668.22 438.113 1669.84C443.506 1671.54 448.959 1673.01 454.411 1674.47L470.827 1678.4C473.573 1679.07 476.352 1679.6 479.153 1679.98L487.419 1681.39C493.282 1682.44 498.617 1682.85 504.187 1683.5L512.571 1684.38L521.014 1684.79C526.877 1685.08 532.27 1685.49 537.899 1685.43C543.527 1685.37 549.156 1685.43 554.784 1685.43L571.669 1684.85L588.554 1683.73C594.417 1683.32 599.752 1682.68 605.38 1682.21C616.579 1681.15 627.777 1679.75 638.916 1678.11C644.427 1677.29 649.997 1676.29 655.567 1675.41C661.136 1674.53 666.589 1673.3 672.1 1672.07C683.122 1669.67 694.027 1666.97 704.815 1663.69L712.906 1661.29L720.879 1658.53C726.214 1656.77 731.491 1654.9 736.709 1652.67C747.236 1648.78 757.287 1643.71 766.668 1637.55C771.331 1634.45 775.467 1630.64 778.922 1626.24C780.572 1624.02 781.84 1621.54 782.674 1618.91C783.424 1616.28 783.564 1613.51 783.084 1610.82C782.991 1610.14 782.834 1609.48 782.615 1608.83L782.322 1607.83L781.912 1606.89C781.429 1605.6 780.8 1604.36 780.036 1603.2L778.863 1601.44L777.515 1599.92C776.586 1598.87 775.566 1597.91 774.466 1597.05C770.024 1593.63 764.998 1591.05 759.633 1589.43C748.809 1586.26 737.69 1584.2 726.449 1583.27C715.242 1581.94 703.964 1581.32 692.679 1581.4C703.976 1581.17 715.276 1581.68 726.508 1582.92C737.799 1583.73 748.977 1585.69 759.867 1588.78C765.351 1590.38 770.497 1592.96 775.052 1596.4C776.171 1597.29 777.211 1598.27 778.16 1599.33L779.625 1600.97L780.798 1602.79C781.621 1603.95 782.291 1605.21 782.791 1606.54L783.26 1607.54L783.553 1608.59C783.765 1609.28 783.922 1609.99 784.022 1610.7C784.561 1613.55 784.42 1616.48 783.612 1619.26C782.789 1622.01 781.478 1624.59 779.743 1626.88C776.275 1631.45 772.075 1635.41 767.313 1638.6C757.872 1644.84 747.764 1650.01 737.178 1654.02C731.96 1656.07 726.625 1658 721.29 1659.88L713.316 1662.63L705.167 1665.09C694.379 1668.44 683.415 1670.96 672.452 1673.65C666.941 1674.88 661.371 1675.88 655.86 1676.99C650.349 1678.11 644.72 1678.99 639.151 1679.81C627.953 1681.51 616.813 1682.97 605.556 1684.03C599.693 1684.55 594.3 1685.26 588.671 1685.61L571.786 1686.72L554.842 1687.25C548.98 1687.25 543.527 1687.25 537.899 1687.25C532.27 1687.25 526.583 1686.84 520.955 1686.61L512.454 1686.08L504.011 1685.2C498.148 1684.55 492.755 1684.08 487.185 1683.03L478.86 1681.56C476.057 1681.17 473.277 1680.62 470.534 1679.92L454.06 1675.94C448.607 1674.47 443.155 1672.95 437.761 1671.25C432.343 1669.64 427.036 1667.68 421.872 1665.39C416.687 1663.03 411.837 1659.99 407.45 1656.36C406.358 1655.45 405.32 1654.47 404.342 1653.43C402.341 1651.36 400.59 1649.06 399.124 1646.57C398.371 1645.37 397.742 1644.09 397.248 1642.76C396.036 1640.16 395.301 1637.36 395.079 1634.5C394.88 1631.61 395.218 1628.71 396.076 1625.94C397.366 1624.13 398.479 1622.25 399.887 1620.61C401.264 1618.91 402.753 1617.3 404.342 1615.8L406.863 1613.63L409.56 1611.7C411.439 1610.49 413.398 1609.42 415.423 1608.48C416.42 1607.95 417.417 1607.54 418.413 1607.13C419.41 1606.72 420.407 1606.25 421.462 1605.9C423.514 1605.19 425.566 1604.43 427.677 1603.85C429.787 1603.26 431.898 1602.61 434.009 1602.15C436.119 1601.68 438.23 1601.09 440.34 1600.62C444.64 1599.72 448.92 1598.9 453.18 1598.16L459.629 1596.99C461.74 1596.64 463.909 1596.17 466.02 1595.87L472.469 1594.82L478.918 1593.88L491.699 1591.95Z" fill="#967A51"/>
<path d="M583.805 1672.71C574.092 1671.37 564.257 1671.13 554.491 1672.01C544.016 1672.24 533.521 1672.07 523.007 1671.48C501.148 1670.13 479.601 1665.61 459.043 1658.06C449.604 1654.66 412.961 1642.47 423.221 1627.82C429.084 1619.79 441.865 1615.27 450.483 1611.52C459.981 1607.48 469.538 1603.79 479.27 1600.33C480.794 1599.74 479.739 1597.98 478.391 1598.22C456.405 1601.74 425.625 1603.26 408.974 1620.61C392.323 1637.96 413.899 1654.84 429.025 1662.81C451.949 1674.88 477.804 1678.4 503.132 1681.1C516.77 1682.43 530.469 1683.06 544.172 1682.97C557.305 1683.87 570.5 1682.84 583.336 1679.92C586.678 1678.81 588.554 1673.71 583.805 1672.71Z" fill="#B49C6D"/>
<g style="mix-blend-mode:multiply">
<path d="M692.21 1675.35L694.027 1671.19L695.61 1666.91C699.949 1665.68 704.229 1664.45 708.508 1663.1L714.84 1661.05C717.01 1660.35 719.12 1659.7 721.231 1658.88C725.394 1657.42 729.615 1655.89 733.777 1654.31C737.94 1652.73 742.044 1650.97 746.148 1649.09C754.316 1645.53 762.063 1641.06 769.248 1635.79C772.784 1633.12 775.94 1629.99 778.629 1626.47C781.322 1623 782.878 1618.78 783.084 1614.4C783.051 1610.01 781.589 1605.75 778.922 1602.26C776.27 1598.76 772.864 1595.89 768.955 1593.88C760.982 1589.92 752.401 1587.33 743.569 1586.2C739.171 1585.44 734.716 1584.91 730.26 1584.44L723.635 1583.74C721.407 1583.74 719.179 1583.27 716.951 1583.16C714.723 1583.04 712.495 1582.75 710.267 1582.63L703.584 1582.33C701.356 1582.33 699.128 1582.33 696.9 1582.33C694.672 1582.33 692.503 1582.33 690.216 1582.33C690.088 1582.34 689.961 1582.3 689.849 1582.24C689.736 1582.18 689.641 1582.09 689.571 1581.98L688.164 1579.35C687.695 1578.53 687.285 1577.59 686.757 1576.77C685.702 1575.07 684.764 1573.37 683.65 1571.73C682.536 1570.09 681.481 1568.44 680.249 1566.86C679.018 1565.28 677.904 1563.7 676.614 1562.17L674.738 1559.89L672.745 1557.72C672.041 1556.96 671.455 1556.19 670.752 1555.55L668.641 1553.44C667.234 1551.97 665.709 1550.74 664.244 1549.4C662.778 1548.05 661.254 1546.82 659.729 1545.59L656.915 1543.48H657.619H656.739L651.639 1539.9C649.821 1538.85 648.121 1537.67 646.303 1536.68C642.685 1534.51 638.946 1532.55 635.105 1530.82C633.229 1530.05 631.294 1529.17 629.242 1528.53C627.19 1527.88 625.373 1527.12 623.38 1526.6L620.389 1525.72L617.341 1524.95C615.347 1524.43 613.295 1524.02 611.478 1523.61C607.389 1522.83 603.259 1522.28 599.107 1521.97H592.893C590.782 1521.97 588.671 1521.97 586.619 1521.97C578.29 1522.42 570.044 1523.85 562.054 1526.24C558.053 1527.43 554.136 1528.88 550.328 1530.58L544.465 1533.22L538.954 1536.21L533.619 1539.43L528.518 1543.01C525.176 1545.53 522.01 1548.16 518.962 1550.98C513.091 1556.73 507.88 1563.12 503.425 1570.03C501.134 1573.49 499.021 1577.07 497.093 1580.75C495.276 1584.44 493.575 1588.25 492.11 1592.12C492.071 1592.21 492.014 1592.28 491.943 1592.34C491.872 1592.4 491.789 1592.45 491.699 1592.47C486.833 1592.94 481.967 1593.47 477.159 1594.12C472.352 1594.76 467.486 1595.7 462.678 1596.58L448.255 1599.33C443.506 1600.33 438.699 1601.27 434.009 1602.56C429.286 1603.74 424.644 1605.23 420.114 1607.01C415.635 1608.83 411.385 1611.17 407.45 1613.99C403.467 1616.61 400.186 1620.18 397.893 1624.36C396.151 1628.75 395.883 1633.58 397.131 1638.13C398.385 1642.73 400.648 1647 403.756 1650.62C406.988 1654.19 410.744 1657.26 414.896 1659.7C423.366 1664.51 432.407 1668.23 441.806 1670.78C446.496 1672.19 451.245 1673.48 455.936 1674.77C460.626 1676.05 465.434 1677.17 470.183 1678.22C479.739 1680.22 489.413 1681.74 499.086 1682.91C499.364 1682.96 499.616 1683.1 499.79 1683.32C502.034 1687.14 504.481 1690.84 507.119 1694.4C509.803 1697.95 512.701 1701.34 515.796 1704.54C517.379 1706.12 518.903 1707.7 520.603 1709.17C522.303 1710.64 523.945 1712.16 525.645 1713.51L526.994 1714.62L528.284 1715.62L530.981 1717.61C532.798 1718.84 534.616 1720.13 536.492 1721.3C538.368 1722.47 540.303 1723.59 542.355 1724.7C544.407 1725.82 546.224 1726.75 548.217 1727.69C552.26 1729.59 556.41 1731.26 560.647 1732.67C564.882 1734.02 569.188 1735.14 573.545 1736.01C575.773 1736.42 577.942 1736.83 580.17 1737.07L583.512 1737.48H586.795C591.247 1737.74 595.711 1737.74 600.163 1737.48C604.623 1737.21 609.065 1736.7 613.471 1735.96C615.64 1735.49 617.868 1735.14 619.979 1734.55C622.09 1733.96 624.376 1733.44 626.428 1732.73C630.714 1731.44 634.906 1729.85 638.975 1727.98C643.002 1726.15 646.917 1724.07 650.701 1721.77C654.507 1719.42 658.168 1716.83 661.664 1714.03C665.132 1711.23 668.44 1708.24 671.572 1705.07C674.651 1701.83 677.548 1698.43 680.249 1694.87V1695.16L683.415 1690.71L685.819 1686.96C686.64 1685.73 687.344 1684.44 688.106 1683.15C688.868 1681.86 689.571 1680.57 690.216 1679.22L692.21 1675.35ZM692.21 1675.35L690.275 1679.4C689.63 1680.74 688.868 1682.03 688.164 1683.32C687.461 1684.61 686.757 1685.9 685.936 1687.19L683.591 1690.94L680.367 1695.4H680.66C677.979 1698.99 675.081 1702.41 671.983 1705.65C665.77 1712.14 658.779 1717.82 651.17 1722.59C647.395 1724.96 643.479 1727.09 639.444 1728.98C635.381 1730.89 631.188 1732.52 626.897 1733.85C624.728 1734.61 622.559 1735.14 620.389 1735.72C618.22 1736.31 616.051 1736.72 613.823 1737.19C604.961 1738.89 595.918 1739.46 586.912 1738.89H583.512L580.17 1738.53C577.942 1738.53 575.656 1737.89 573.486 1737.54C569.052 1736.69 564.668 1735.59 560.354 1734.26C556.036 1732.88 551.806 1731.23 547.69 1729.33C545.638 1728.45 543.644 1727.4 541.827 1726.34C540.009 1725.29 537.84 1724.17 535.964 1722.94C534.088 1721.71 532.212 1720.48 530.101 1719.19L527.404 1717.2L525.997 1716.14L524.707 1715.09C522.948 1713.68 521.19 1712.22 519.548 1710.69C517.906 1709.17 516.265 1707.53 514.682 1705.95C511.547 1702.69 508.611 1699.24 505.887 1695.63C503.177 1692.02 500.69 1688.24 498.442 1684.32L499.086 1684.79C489.354 1683.62 479.622 1682.03 469.772 1679.98C464.965 1678.93 460.157 1677.81 455.467 1676.52C450.776 1675.23 446.027 1673.94 441.279 1672.54C431.729 1669.94 422.549 1666.14 413.957 1661.23C409.587 1658.7 405.632 1655.52 402.232 1651.79C398.898 1648 396.454 1643.52 395.079 1638.66C393.695 1633.74 394.004 1628.5 395.958 1623.77C398.337 1619.32 401.807 1615.55 406.043 1612.81C410.09 1609.95 414.458 1607.57 419.058 1605.72C423.659 1603.98 428.357 1602.52 433.129 1601.32C437.878 1600.09 442.686 1599.16 447.493 1598.16L462.385 1595.41C467.192 1594.53 472.059 1593.71 476.925 1593.06C481.791 1592.42 486.657 1591.89 491.523 1591.48L491.113 1591.77C492.637 1587.86 494.338 1584.05 496.214 1580.34C498.161 1576.62 500.294 1573 502.604 1569.5C507.311 1562.58 512.778 1556.21 518.903 1550.51C521.965 1547.66 525.195 1545 528.577 1542.54C530.277 1541.25 532.036 1540.13 533.736 1538.96L539.13 1535.68L544.641 1532.75L550.504 1530.05C554.338 1528.43 558.251 1527 562.23 1525.77C570.247 1523.3 578.535 1521.8 586.912 1521.32H593.186H599.518C603.709 1521.58 607.88 1522.11 612.006 1522.9L618.162 1524.19L621.21 1524.9L624.259 1525.77C626.252 1526.36 628.246 1527.06 630.122 1527.77C631.998 1528.47 634.05 1529.23 635.985 1530.05C639.863 1531.68 643.642 1533.54 647.3 1535.62C649.118 1536.62 650.876 1537.79 652.694 1538.85L657.912 1542.42H657.032C657.125 1542.35 657.238 1542.31 657.355 1542.31C657.472 1542.31 657.585 1542.35 657.677 1542.42L659.084 1543.48L659.788 1544L660.14 1544.3C661.664 1545.59 663.188 1546.76 664.713 1548.16C666.237 1549.57 667.762 1550.74 669.11 1552.21L671.279 1554.32C671.983 1554.96 672.628 1555.78 673.331 1556.49L675.383 1558.71L677.259 1561C678.608 1562.52 679.78 1564.11 681.012 1565.69C682.243 1567.27 683.298 1568.97 684.412 1570.61C685.526 1572.25 686.523 1574.01 687.578 1575.71C688.633 1577.41 688.575 1577.47 689.044 1578.35L690.509 1580.99L689.806 1580.58C692.034 1580.58 694.32 1580.58 696.548 1580.58C698.776 1580.58 701.063 1580.58 703.291 1580.58H710.033L716.717 1581.05C721.231 1581.34 725.628 1581.87 730.084 1582.33C734.54 1582.8 738.995 1583.45 743.451 1584.21C752.416 1585.44 761.114 1588.16 769.189 1592.24C773.224 1594.39 776.744 1597.39 779.508 1601.03C782.269 1604.74 783.75 1609.25 783.729 1613.87C783.516 1618.46 781.854 1622.88 778.98 1626.47C776.258 1630.07 773.018 1633.25 769.365 1635.91C762.061 1641.14 754.195 1645.54 745.914 1649.03C737.764 1652.67 729.38 1655.72 720.879 1658.71C718.827 1659.47 716.658 1660.11 714.547 1660.82L708.157 1662.81C703.877 1664.16 699.597 1665.33 695.258 1666.56C694.672 1667.97 694.144 1669.43 693.617 1670.84L692.21 1675.35Z" fill="#282151"/>
</g>
<g style="mix-blend-mode:multiply">
<path d="M696.9 1596.23C698.014 1599.27 698.952 1602.5 699.773 1605.66C700.594 1608.83 701.356 1612.11 701.884 1615.33C701.884 1616.15 701.884 1616.97 702.235 1617.8L702.587 1620.26C702.587 1621.9 702.88 1623.6 702.939 1625.24C702.998 1626.88 702.939 1626.88 702.939 1627.76C702.996 1628.58 702.996 1629.4 702.939 1630.22C702.939 1631.1 702.939 1631.92 702.939 1632.74L702.763 1635.26L701.825 1634.38C709.212 1631.9 716.372 1628.78 723.225 1625.06C726.618 1623.21 729.836 1621.05 732.84 1618.62C734.312 1617.42 735.649 1616.06 736.826 1614.57C738.027 1613.16 738.854 1611.46 739.23 1609.65C739.238 1608.81 739.019 1607.99 738.595 1607.26C738.172 1606.54 737.561 1605.95 736.826 1605.55C735.262 1604.46 733.569 1603.57 731.784 1602.91C728.046 1601.7 724.225 1600.76 720.352 1600.09C716.541 1599.33 712.613 1598.69 708.626 1598.1L696.9 1596.23ZM696.9 1596.23C704.756 1596.66 712.584 1597.5 720.352 1598.75C724.333 1599.38 728.255 1600.34 732.077 1601.62C734.019 1602.24 735.856 1603.15 737.53 1604.31C738.445 1604.91 739.224 1605.69 739.816 1606.6C740.125 1607.08 740.344 1607.62 740.461 1608.18C740.523 1608.47 740.523 1608.77 740.461 1609.06C740.52 1609.35 740.52 1609.65 740.461 1609.94C740.067 1612.08 739.162 1614.09 737.823 1615.8C736.584 1617.4 735.168 1618.86 733.602 1620.14C730.555 1622.7 727.255 1624.94 723.752 1626.82C720.234 1628.7 716.658 1630.4 713.023 1631.92C709.388 1633.44 705.694 1634.85 701.942 1636.08C701.74 1636.14 701.524 1636.11 701.339 1636.02C701.154 1635.92 701.013 1635.75 700.946 1635.55C700.946 1635.55 700.946 1635.55 700.946 1635.2L701.297 1632.8C701.355 1632 701.355 1631.2 701.297 1630.4C701.355 1629.58 701.355 1628.75 701.297 1627.93C701.297 1627.11 701.297 1626.35 701.297 1625.53C701.297 1624.71 701.297 1622.25 701.297 1620.61C701.297 1618.97 701.297 1618.97 701.297 1618.15C701.297 1617.33 701.297 1616.56 701.004 1615.74C700.087 1609.15 698.716 1602.63 696.9 1596.23Z" fill="#282151"/>
</g>
<g style="mix-blend-mode:multiply">
<path d="M487.712 1604.2C487.361 1605.96 487.126 1607.77 486.892 1609.59C486.657 1611.41 486.364 1613.22 486.247 1615.04V1617.8C486.247 1618.67 486.247 1619.61 486.247 1620.55C486.247 1621.49 486.247 1624.18 486.247 1626V1631.51C486.247 1633.33 486.247 1635.14 486.247 1636.96V1639.66C486.247 1640.59 486.247 1641.47 486.598 1642.35L487.361 1647.75C487.377 1647.85 487.374 1647.95 487.35 1648.05C487.327 1648.15 487.283 1648.24 487.223 1648.32C487.163 1648.4 487.087 1648.47 487 1648.52C486.913 1648.58 486.816 1648.61 486.716 1648.62C482.905 1648.04 479.211 1647.28 475.518 1646.34C471.806 1645.47 468.146 1644.39 464.554 1643.12C460.889 1641.86 457.416 1640.11 454.235 1637.9C452.552 1636.76 451.149 1635.26 450.131 1633.5C449.886 1633.02 449.709 1632.51 449.604 1631.98C449.558 1631.71 449.558 1631.43 449.604 1631.16V1630.46C449.547 1629.93 449.547 1629.4 449.604 1628.87C449.706 1628.36 449.843 1627.85 450.014 1627.35C450.809 1625.53 451.943 1623.88 453.356 1622.48C454.688 1621.09 456.14 1619.82 457.694 1618.67C460.801 1616.5 464.053 1614.54 467.427 1612.81C470.782 1611.05 474.226 1609.47 477.746 1608.07C480.993 1606.59 484.321 1605.3 487.712 1604.2ZM487.712 1604.2C480.664 1606.85 473.825 1610.02 467.251 1613.69C463.981 1615.52 460.846 1617.57 457.87 1619.85C456.422 1620.99 455.051 1622.22 453.766 1623.54C452.506 1624.82 451.51 1626.33 450.835 1627.99C450.708 1628.45 450.649 1628.93 450.659 1629.4C450.599 1629.79 450.599 1630.18 450.659 1630.57V1631.28V1631.8C450.659 1632.21 451.011 1632.62 451.128 1632.98C452.035 1634.5 453.278 1635.81 454.763 1636.79C457.838 1638.83 461.169 1640.47 464.671 1641.65C471.753 1644.25 479.051 1646.21 486.481 1647.51L485.602 1648.39L484.84 1642.88C484.84 1642 484.84 1641.06 484.84 1640.13V1637.37C484.84 1635.5 484.84 1633.68 484.84 1631.8V1626.29C484.84 1625.36 484.84 1624.48 484.84 1623.54V1620.78C484.879 1619.88 484.977 1618.98 485.133 1618.09L485.543 1615.33C485.778 1613.54 486.071 1611.72 486.423 1609.88C486.833 1607.71 487.302 1605.96 487.712 1604.2Z" fill="#282151"/>
</g>
<g style="mix-blend-mode:multiply">
<path d="M486.247 1647.92L488.651 1648.33L495.51 1649.45C498.442 1649.97 502.018 1650.44 506.181 1650.97C510.343 1651.5 514.975 1652.08 520.076 1652.49L527.991 1653.26L536.492 1653.9C539.423 1653.9 542.355 1654.25 545.521 1654.37L554.96 1654.84H564.692C567.975 1654.84 571.259 1654.84 574.659 1654.84C581.343 1654.84 588.144 1654.84 594.945 1654.19L605.146 1653.67C608.546 1653.67 611.888 1653.08 615.23 1652.79L625.197 1651.85L634.812 1650.5L644.134 1649.15L652.987 1647.51L661.371 1645.93C664.068 1645.4 666.648 1644.7 669.11 1644.11L682.653 1640.77L692.913 1637.61L701.942 1634.85L693.031 1637.96L682.829 1641.42L669.345 1645.05C666.882 1645.69 664.302 1646.51 661.606 1647.04L653.222 1648.8L644.369 1650.62C641.32 1651.15 638.213 1651.56 635.047 1652.02L625.373 1653.43C622.09 1653.84 618.748 1654.13 615.406 1654.43L605.322 1655.42L595.062 1656.01C588.261 1656.42 581.401 1656.42 574.659 1656.48C571.259 1656.48 567.917 1656.48 564.634 1656.48H554.901C548.452 1656.13 542.296 1655.89 536.433 1655.31L527.873 1654.54L519.958 1653.67C514.858 1653.14 510.167 1652.32 506.063 1651.73C501.959 1651.15 498.383 1650.5 495.452 1649.91L488.651 1648.57L486.247 1647.92Z" fill="#282151"/>
</g>
<g style="mix-blend-mode:overlay">
<path d="M578.235 1523.9C578.235 1523.9 490.82 1539.67 490.292 1626.76C490.351 1627 498.148 1546.93 578.235 1523.9Z" fill="white"/>
</g>
<g style="mix-blend-mode:multiply" opacity="0.7">
<path d="M682.595 1686.78C682.595 1686.78 627.66 1745.39 563.168 1730.15C563.168 1730.15 625.666 1757.58 682.595 1686.78Z" fill="#223A8E"/>
</g>
<path d="M263.692 280.573C263.692 280.573 490.409 8.90894 877.946 8.90894C1265.48 8.90894 1498.53 258.946 1498.53 258.946" stroke="white" stroke-width="4" stroke-miterlimit="10"/>
<path d="M1632.91 441.755C1632.91 441.755 1871.29 906.368 1576.57 1339.92C1281.84 1773.47 743.803 1702.61 743.803 1702.61" stroke="white" stroke-width="4" stroke-miterlimit="10"/>
<path d="M1023.76 1716.67C1028.62 1719.5 1034.11 1721.07 1039.73 1721.23C1045.35 1721.4 1050.93 1720.15 1055.94 1717.61C1051.46 1716.62 1046.88 1716.12 1042.28 1716.15C1036.1 1715.74 1029.9 1715.92 1023.76 1716.67Z" fill="#3F82C3"/>
<path d="M1063.51 1662.57C1058.7 1658.19 1052.74 1655.28 1046.33 1654.19C1044.6 1655.04 1042.79 1655.72 1040.93 1656.24C1035.92 1657.27 1030.79 1657.58 1025.69 1657.18C1018.98 1660.53 1013.57 1665.98 1010.27 1672.71C1020.07 1667.15 1031.03 1663.92 1042.28 1663.28C1049.32 1662.93 1056.41 1662.52 1063.51 1662.57Z" fill="#2F6AB1"/>
<path d="M1040.93 1656.24C1042.79 1655.72 1044.6 1655.04 1046.33 1654.19C1044.39 1653.88 1042.43 1653.72 1040.46 1653.72C1035.26 1653.71 1030.13 1654.89 1025.46 1657.18C1030.63 1657.6 1035.84 1657.29 1040.93 1656.24Z" fill="#3F82C3"/>
<path d="M1036.6 1708.7C1031.9 1708.66 1027.21 1709.03 1022.58 1709.82C1020.6 1710.2 1018.64 1710.71 1016.72 1711.34C1018.79 1713.43 1021.14 1715.22 1023.7 1716.67C1029.84 1715.92 1036.05 1715.74 1042.22 1716.15C1046.82 1716.12 1051.4 1716.62 1055.88 1717.61C1058.75 1716.18 1061.37 1714.32 1063.68 1712.1C1060.93 1710.84 1058.09 1709.78 1055.18 1708.94C1049.01 1708.16 1042.78 1708.08 1036.6 1708.7Z" fill="#2F6AB1"/>
<path d="M1051.66 1671.54C1035.25 1672.77 1020.88 1683.26 1007.1 1691.24C1007.62 1695.78 1009.05 1700.16 1011.33 1704.13C1019.94 1698.27 1035.89 1698.27 1045.21 1698.27C1053.74 1698.47 1062.13 1700.47 1069.84 1704.13C1072.63 1699.37 1074.21 1694.01 1074.44 1688.5C1074.68 1682.99 1073.56 1677.51 1071.19 1672.54C1064.76 1671.31 1058.19 1670.97 1051.66 1671.54ZM1059.11 1678.81C1064.21 1679.86 1067.49 1687.19 1061.51 1689.48C1059.46 1690.39 1057.22 1690.77 1054.99 1690.58C1052.75 1690.4 1050.6 1689.65 1048.73 1688.42L1048.2 1688.01C1046.03 1686.19 1047.32 1682.15 1049.14 1680.63C1050.56 1679.6 1052.19 1678.9 1053.92 1678.59C1055.64 1678.27 1057.42 1678.35 1059.11 1678.81Z" fill="#2F6AB1"/>
<path d="M1011.33 1704.13C1012.8 1706.77 1014.64 1709.2 1016.78 1711.34C1018.7 1710.71 1020.66 1710.2 1022.64 1709.82C1027.27 1709.03 1031.96 1708.66 1036.65 1708.7C1042.85 1708 1049.1 1708 1055.3 1708.7C1058.2 1709.55 1061.05 1710.61 1063.8 1711.87C1066.12 1709.66 1068.1 1707.11 1069.66 1704.31C1061.96 1700.64 1053.57 1698.65 1045.04 1698.44C1035.89 1698.33 1019.94 1698.15 1011.33 1704.13Z" fill="#3F82C3"/>
<path d="M1063.51 1662.57C1056.41 1662.57 1049.32 1662.93 1042.28 1663.28C1031.03 1663.92 1020.07 1667.15 1010.27 1672.71C1008.05 1677.32 1006.91 1682.37 1006.93 1687.48C1006.93 1688.77 1006.93 1690 1006.93 1691.24C1020.71 1683.26 1035.07 1672.77 1051.49 1671.54C1058.03 1671.11 1064.6 1671.58 1071.01 1672.95C1069.18 1669.05 1066.63 1665.53 1063.51 1662.57Z" fill="#3F82C3"/>
<path d="M1048.2 1688.01L1048.73 1688.42C1050.6 1689.65 1052.75 1690.4 1054.99 1690.58C1057.22 1690.77 1059.46 1690.39 1061.51 1689.48C1067.38 1687.19 1064.21 1679.86 1059.11 1678.81C1057.42 1678.35 1055.64 1678.27 1053.92 1678.59C1052.19 1678.9 1050.56 1679.6 1049.14 1680.63C1047.32 1682.15 1046.03 1686.19 1048.2 1688.01Z" fill="#3F82C3"/>
<g style="mix-blend-mode:color-burn" opacity="0.2">
<path d="M1062.81 1709.62C1075.04 1697.39 1075.04 1677.58 1062.81 1665.35C1050.59 1653.13 1030.76 1653.13 1018.54 1665.35C1006.31 1677.58 1006.31 1697.39 1018.54 1709.62C1030.76 1721.84 1050.59 1721.84 1062.81 1709.62Z" fill="#20284F"/>
</g>
<g style="mix-blend-mode:overlay" opacity="0.7">
<path d="M1070.99 1713.42C1085.4 1696.69 1083.51 1671.45 1066.78 1657.04C1050.04 1642.64 1024.8 1644.52 1010.39 1661.25C995.977 1677.98 997.862 1703.22 1014.6 1717.62C1031.33 1732.03 1056.58 1730.15 1070.99 1713.42Z" fill="#6BC2C3"/>
</g>
<path d="M1725.84 884.448C1738.56 884.448 1748.88 874.135 1748.88 861.413C1748.88 848.692 1738.56 838.379 1725.84 838.379C1713.11 838.379 1702.79 848.692 1702.79 861.413C1702.79 874.135 1713.11 884.448 1725.84 884.448Z" fill="#EA5848"/>
<defs>
<linearGradient id="paint0_linear_107_632" x1="1493.25" y1="369.604" x2="1657.42" y2="369.604" gradientUnits="userSpaceOnUse">
<stop stop-color="white" stop-opacity="0"/>
<stop offset="1" stop-color="#221F47"/>
</linearGradient>
<linearGradient id="paint1_linear_107_632" x1="1494.25" y1="380.564" x2="1656.95" y2="380.564" gradientUnits="userSpaceOnUse">
<stop offset="0.01" stop-color="#DF8922"/>
<stop offset="0.18" stop-color="#DD8C28"/>
<stop offset="0.4" stop-color="#D89337"/>
<stop offset="0.65" stop-color="#CFA052"/>
<stop offset="0.92" stop-color="#C3B176"/>
<stop offset="1" stop-color="#BEB783"/>
</linearGradient>
<linearGradient id="paint2_linear_107_632" x1="1508.97" y1="409.05" x2="1644.75" y2="409.05" gradientUnits="userSpaceOnUse">
<stop offset="0.01" stop-color="#DF8922"/>
<stop offset="0.18" stop-color="#DD8C28"/>
<stop offset="0.4" stop-color="#D89337"/>
<stop offset="0.65" stop-color="#CFA052"/>
<stop offset="0.92" stop-color="#C3B176"/>
<stop offset="1" stop-color="#BEB783"/>
</linearGradient>
<linearGradient id="paint3_linear_107_632" x1="1523.1" y1="417.959" x2="1633.14" y2="417.959" gradientUnits="userSpaceOnUse">
<stop stop-color="white" stop-opacity="0"/>
<stop offset="1" stop-color="#221F47"/>
</linearGradient>
<linearGradient id="paint4_linear_107_632" x1="1503.05" y1="312.224" x2="1647.98" y2="312.224" gradientUnits="userSpaceOnUse">
<stop offset="0.01" stop-color="#DF8922"/>
<stop offset="0.18" stop-color="#DD8C28"/>
<stop offset="0.4" stop-color="#D89337"/>
<stop offset="0.65" stop-color="#CFA052"/>
<stop offset="0.92" stop-color="#C3B176"/>
<stop offset="1" stop-color="#BEB783"/>
</linearGradient>
<linearGradient id="paint5_linear_107_632" x1="1533.47" y1="279.518" x2="1616.84" y2="279.518" gradientUnits="userSpaceOnUse">
<stop offset="0.01" stop-color="#DF8922"/>
<stop offset="0.18" stop-color="#DD8C28"/>
<stop offset="0.4" stop-color="#D89337"/>
<stop offset="0.65" stop-color="#CFA052"/>
<stop offset="0.92" stop-color="#C3B176"/>
<stop offset="1" stop-color="#BEB783"/>
</linearGradient>
<linearGradient id="paint6_linear_107_632" x1="1513.07" y1="293.995" x2="1630.33" y2="293.995" gradientUnits="userSpaceOnUse">
<stop stop-color="white" stop-opacity="0"/>
<stop offset="1" stop-color="#221F47"/>
</linearGradient>
<linearGradient id="paint7_linear_107_632" x1="1493.08" y1="338.599" x2="1653.6" y2="338.599" gradientUnits="userSpaceOnUse">
<stop stop-color="white" stop-opacity="0"/>
<stop offset="1" stop-color="#221F47"/>
</linearGradient>
<linearGradient id="paint8_linear_107_632" x1="1491.55" y1="346.746" x2="1657.59" y2="346.746" gradientUnits="userSpaceOnUse">
<stop offset="0.01" stop-color="#DF8922"/>
<stop offset="0.18" stop-color="#DD8C28"/>
<stop offset="0.4" stop-color="#D89337"/>
<stop offset="0.65" stop-color="#CFA052"/>
<stop offset="0.92" stop-color="#C3B176"/>
<stop offset="1" stop-color="#BEB783"/>
</linearGradient>
<radialGradient id="paint9_radial_107_632" cx="0" cy="0" r="1" gradientUnits="userSpaceOnUse" gradientTransform="translate(1498.65 304.336) scale(162.519 160.846)">
<stop offset="0.55" stop-color="white"/>
<stop offset="0.63" stop-color="#FDFCFC"/>
<stop offset="0.69" stop-color="#F7F2F2"/>
<stop offset="0.75" stop-color="#EDE2E2"/>
<stop offset="0.8" stop-color="#DFCCCB"/>
<stop offset="0.85" stop-color="#CCAEAE"/>
<stop offset="0.89" stop-color="#B58A89"/>
<stop offset="0.94" stop-color="#9A5F5E"/>
<stop offset="0.98" stop-color="#7C2E2E"/>
<stop offset="1" stop-color="#6B1413"/>
</radialGradient>
<radialGradient id="paint10_radial_107_632" cx="0" cy="0" r="1" gradientUnits="userSpaceOnUse" gradientTransform="translate(1600.78 373.328) scale(114.033 112.859)">
<stop stop-color="#2B2B2B"/>
<stop offset="0.25" stop-color="#2D2D2D"/>
<stop offset="0.4" stop-color="#363633"/>
<stop offset="0.52" stop-color="#44433C"/>
<stop offset="0.62" stop-color="#58574B"/>
<stop offset="0.72" stop-color="#72715D"/>
<stop offset="0.81" stop-color="#919073"/>
<stop offset="0.89" stop-color="#B7B58E"/>
<stop offset="0.97" stop-color="#E2DFAC"/>
<stop offset="1" stop-color="#F6F3BA"/>
</radialGradient>
<radialGradient id="paint11_radial_107_632" cx="0" cy="0" r="1" gradientUnits="userSpaceOnUse" gradientTransform="translate(460.799 1724.79) rotate(28.8794) scale(238.073 238.036)">
<stop stop-color="#2B2B2B"/>
<stop offset="0.39" stop-color="#2D2D2D"/>
<stop offset="0.53" stop-color="#343434"/>
<stop offset="0.63" stop-color="#3F3F3F"/>
<stop offset="0.71" stop-color="#505050"/>
<stop offset="0.77" stop-color="#666666"/>
<stop offset="0.84" stop-color="#828282"/>
<stop offset="0.89" stop-color="#A2A2A2"/>
<stop offset="0.94" stop-color="#C8C8C8"/>
<stop offset="0.99" stop-color="#F1F1F1"/>
<stop offset="1" stop-color="white"/>
</radialGradient>
</defs>
</svg>
