<svg xmlns="http://www.w3.org/2000/svg" xmlns:xlink="http://www.w3.org/1999/xlink" viewBox="0 0 185.52 193.93"><defs><style>.cls-1{mask:url(#mask);filter:url(#luminosity-noclip-4);}.cls-17,.cls-19,.cls-2,.cls-20,.cls-21,.cls-38,.cls-4,.cls-42,.cls-6{mix-blend-mode:multiply;}.cls-2{fill:url(#radial-gradient);}.cls-3,.cls-5{mask:url(#mask-2);}.cls-3{filter:url(#luminosity-noclip-5);}.cls-4{fill:url(#radial-gradient-2);}.cls-6{fill:url(#radial-gradient-3);}.cls-35,.cls-7{fill:none;}.cls-8{isolation:isolate;}.cls-18,.cls-9{fill:#fff;}.cls-10{fill:#fbc155;}.cls-11{fill:#fccc74;}.cls-12{fill:#27ace3;}.cls-13{fill:#2b62ac;}.cls-14,.cls-16,.cls-17{fill:#b85f17;}.cls-15{fill:#451f0f;}.cls-16,.cls-23,.cls-41,.cls-43,.cls-45{mix-blend-mode:screen;}.cls-17,.cls-32{opacity:0.5;}.cls-18,.cls-39{mix-blend-mode:overlay;}.cls-19{fill:#b6691f;opacity:0.7;}.cls-20{fill:url(#radial-gradient-4);}.cls-21{fill:#94703e;}.cls-22{mask:url(#mask-4);}.cls-23{fill:url(#radial-gradient-5);}.cls-24{clip-path:url(#clip-path);}.cls-25{fill:#ea5848;}.cls-26{opacity:0.15;}.cls-27{fill:#dab266;}.cls-28{clip-path:url(#clip-path-2);}.cls-29{fill:#e8e8e8;}.cls-30{fill:#0eb2c2;}.cls-31{clip-path:url(#clip-path-3);}.cls-33{clip-path:url(#clip-path-4);}.cls-34{fill:#161b32;}.cls-35{stroke:#fff;stroke-miterlimit:10;}.cls-36{fill:#5b5a5a;}.cls-37{fill:#2b2c2c;}.cls-38,.cls-40,.cls-41{opacity:0.6;}.cls-39{fill:#96d5f6;}.cls-42{fill:url(#radial-gradient-6);}.cls-43{fill:#79caf2;}.cls-44{mask:url(#mask-5);}.cls-45{fill:url(#radial-gradient-7);}.cls-46{filter:url(#luminosity-noclip-2);}.cls-47{filter:url(#luminosity-noclip);}</style><filter id="luminosity-noclip" x="112.8" y="-8355.67" width="16.99" height="32766" filterUnits="userSpaceOnUse" color-interpolation-filters="sRGB"><feFlood flood-color="#fff" result="bg"/><feBlend in="SourceGraphic" in2="bg"/></filter><mask id="mask" x="112.8" y="-8355.67" width="16.99" height="32766" maskUnits="userSpaceOnUse"><g class="cls-47"/></mask><radialGradient id="radial-gradient" cx="127.52" cy="17.51" r="15.49" gradientTransform="translate(-0.51 -1.39) scale(1 0.99)" gradientUnits="userSpaceOnUse"><stop offset="0"/><stop offset="0.22" stop-color="#030303"/><stop offset="0.36" stop-color="#0b0b0b"/><stop offset="0.47" stop-color="#191919"/><stop offset="0.57" stop-color="#2e2e2e"/><stop offset="0.66" stop-color="#484848"/><stop offset="0.74" stop-color="#696969"/><stop offset="0.82" stop-color="#909090"/><stop offset="0.9" stop-color="#bdbdbd"/><stop offset="0.97" stop-color="#eee"/><stop offset="0.99" stop-color="#fff"/></radialGradient><filter id="luminosity-noclip-2" x="1.23" y="-8355.67" width="11.79" height="32766" filterUnits="userSpaceOnUse" color-interpolation-filters="sRGB"><feFlood flood-color="#fff" result="bg"/><feBlend in="SourceGraphic" in2="bg"/></filter><mask id="mask-2" x="1.23" y="-8355.67" width="11.79" height="32766" maskUnits="userSpaceOnUse"><g class="cls-46"/></mask><radialGradient id="radial-gradient-2" cx="11.04" cy="141.29" r="10.75" gradientTransform="translate(-0.51 -1.39) scale(1 0.99)" gradientUnits="userSpaceOnUse"><stop offset="0.34"/><stop offset="0.43" stop-color="#040404"/><stop offset="0.51" stop-color="#101010"/><stop offset="0.59" stop-color="#242424"/><stop offset="0.67" stop-color="#404040"/><stop offset="0.75" stop-color="#646464"/><stop offset="0.83" stop-color="#909090"/><stop offset="0.91" stop-color="#c4c4c4"/><stop offset="0.99" stop-color="#fff"/></radialGradient><radialGradient id="radial-gradient-3" cx="11.04" cy="141.29" r="10.75" gradientTransform="translate(-0.51 -1.39) scale(1 0.99)" gradientUnits="userSpaceOnUse"><stop offset="0.35"/><stop offset="0.43" stop-color="#040404"/><stop offset="0.51" stop-color="#101010"/><stop offset="0.59" stop-color="#242424"/><stop offset="0.67" stop-color="#404040"/><stop offset="0.75" stop-color="#646464"/><stop offset="0.84" stop-color="#909090"/><stop offset="0.91" stop-color="#c4c4c4"/><stop offset="0.99" stop-color="#fff"/></radialGradient><radialGradient id="radial-gradient-4" cx="117.65" cy="8.81" r="17.4" gradientTransform="translate(-0.51 -1.39) scale(1 0.99)" gradientUnits="userSpaceOnUse"><stop offset="0" stop-color="#fff"/><stop offset="0.38" stop-color="#fdfdfd"/><stop offset="0.51" stop-color="#f8f7f6"/><stop offset="0.61" stop-color="#eeeceb"/><stop offset="0.69" stop-color="#e0dcda"/><stop offset="0.76" stop-color="#cec7c4"/><stop offset="0.82" stop-color="#b7aea8"/><stop offset="0.87" stop-color="#9c8f88"/><stop offset="0.92" stop-color="#7d6c62"/><stop offset="0.96" stop-color="#5b4639"/><stop offset="1" stop-color="#391f10"/></radialGradient><filter id="luminosity-noclip-4" x="112.8" y="1.44" width="16.99" height="16.55" filterUnits="userSpaceOnUse" color-interpolation-filters="sRGB"><feFlood flood-color="#fff" result="bg"/><feBlend in="SourceGraphic" in2="bg"/></filter><mask id="mask-4" x="112.8" y="1.44" width="16.99" height="16.55" maskUnits="userSpaceOnUse"><g class="cls-1"><path class="cls-2" d="M115.61,17.18a1.78,1.78,0,0,0,1.12-1.85c-.13-1.19-.92-2.24-.83-3.47a2.07,2.07,0,0,1,1.24-1.7,9.17,9.17,0,0,1,2.45-.41,2.05,2.05,0,0,0,1.71-.93,5.74,5.74,0,0,1,.62-1.11,2.08,2.08,0,0,1,2.66-.32c.46.27.92,1,1.46,1,1,.14,1-.76,1.24-1.41,0,0,.09-.11.15-.08.57.27.91,1,1.5,1.19.8.26.93-1.4.83-1.84s-.36-1-.53-1.54-.46-1.12-.18-1.6A10.47,10.47,0,0,0,114.76,18,1.62,1.62,0,0,1,115.61,17.18Z"/></g></mask><radialGradient id="radial-gradient-5" cx="127.52" cy="17.51" r="15.49" gradientTransform="translate(-0.51 -1.39) scale(1 0.99)" gradientUnits="userSpaceOnUse"><stop offset="0" stop-color="#2b2b2b"/><stop offset="0.24" stop-color="#2e2d2c"/><stop offset="0.38" stop-color="#363330"/><stop offset="0.5" stop-color="#443e38"/><stop offset="0.61" stop-color="#594e42"/><stop offset="0.71" stop-color="#73624f"/><stop offset="0.8" stop-color="#947b5f"/><stop offset="0.88" stop-color="#bb9873"/><stop offset="0.96" stop-color="#e6b988"/><stop offset="0.99" stop-color="#fac892"/></radialGradient><clipPath id="clip-path"><path class="cls-7" d="M91.73,186a10.92,10.92,0,0,0,3.74,5.17,9.6,9.6,0,0,0,5.51,1.7,1.68,1.68,0,0,1-1.26-.94,13.93,13.93,0,0,0,9-.73s-2.25-5-4.79-6a1.69,1.69,0,0,1,1.33.12,8.35,8.35,0,0,0-5.57-3.94c-3.85-.69-5,.28-5,.28Z"/></clipPath><clipPath id="clip-path-2"><path class="cls-7" d="M63.6,168.9a17.49,17.49,0,0,0,2.32,6.9,15.22,15.22,0,0,0,8,5.92c3.62,1.21,8.17,2.22,12.16,3.2a30.32,30.32,0,0,1,6.09,2,9.7,9.7,0,0,0,2.41-3,4.83,4.83,0,0,0,.54-2.38,49.88,49.88,0,0,1-9.79-7.89C80.3,168.5,75.09,162.43,63.6,168.9Z"/></clipPath><clipPath id="clip-path-3"><path class="cls-7" d="M75.24,176.45a8.78,8.78,0,0,0,1.8-3.34l6.39,4a4,4,0,0,1-1.17,2.35Z"/></clipPath><clipPath id="clip-path-4"><path class="cls-7" d="M85.49,180a4.29,4.29,0,0,1,1,2.56l15.4,5-13.57-8.31A4.61,4.61,0,0,1,85.49,180Z"/></clipPath><radialGradient id="radial-gradient-6" cx="4.61" cy="135.33" r="12.08" gradientTransform="translate(-0.51 -1.39) scale(1 0.99)" gradientUnits="userSpaceOnUse"><stop offset="0" stop-color="#fff"/><stop offset="0.38" stop-color="#fdfdfd"/><stop offset="0.51" stop-color="#f6f6f6"/><stop offset="0.61" stop-color="#ebebeb"/><stop offset="0.69" stop-color="#dadada"/><stop offset="0.75" stop-color="#c4c4c4"/><stop offset="0.81" stop-color="#a9a8a8"/><stop offset="0.87" stop-color="#888"/><stop offset="0.91" stop-color="#636262"/><stop offset="0.96" stop-color="#3a3939"/><stop offset="0.98" stop-color="#1f1e1e"/></radialGradient><filter id="luminosity-noclip-5" x="1.23" y="129.05" width="11.79" height="11.49" filterUnits="userSpaceOnUse" color-interpolation-filters="sRGB"><feFlood flood-color="#fff" result="bg"/><feBlend in="SourceGraphic" in2="bg"/></filter><mask id="mask-5" x="1.23" y="129.05" width="11.79" height="11.49" maskUnits="userSpaceOnUse"><g class="cls-3"><path class="cls-4" d="M3.18,140A1.22,1.22,0,0,0,4,138.69c-.09-.83-.63-1.55-.57-2.41a1.41,1.41,0,0,1,.86-1.17,6.12,6.12,0,0,1,1.7-.29,1.44,1.44,0,0,0,1.19-.65,3.88,3.88,0,0,1,.43-.77,1.46,1.46,0,0,1,1.85-.22c.31.19.63.67,1,.72.68.1.7-.52.87-1,0,0,.06-.08.1-.06.4.18.63.69,1,.82.56.19.65-1,.58-1.28s-.25-.7-.37-1.06-.32-.78-.12-1.11a7.29,7.29,0,0,0-11.28,6.07,7.16,7.16,0,0,0,1.36,4.22A1.15,1.15,0,0,1,3.18,140Z"/></g></mask><radialGradient id="radial-gradient-7" cx="11.04" cy="141.29" r="10.75" gradientTransform="translate(-0.51 -1.39) scale(1 0.99)" gradientUnits="userSpaceOnUse"><stop offset="0.35" stop-color="#2b2b2b"/><stop offset="0.44" stop-color="#2e2f2f"/><stop offset="0.53" stop-color="#37393b"/><stop offset="0.62" stop-color="#464c4f"/><stop offset="0.71" stop-color="#5b656b"/><stop offset="0.8" stop-color="#75868f"/><stop offset="0.89" stop-color="#96aebb"/><stop offset="0.98" stop-color="#bcddef"/><stop offset="0.99" stop-color="#c4e6f9"/></radialGradient></defs><g class="cls-8"><g id="Layer_2" data-name="Layer 2"><g id="Layer_1-2" data-name="Layer 1"><path class="cls-9" d="M185.22,92.23A.26.26,0,0,1,185,92,99.92,99.92,0,0,0,100.66,4.59a.25.25,0,1,1,.08-.5A100.43,100.43,0,0,1,185.51,92a.25.25,0,0,1-.22.28Z"/><path class="cls-9" d="M101.39,0a10.68,10.68,0,0,1-1.2,3.07c-.65.77-4.3.51-4.3.51s3,.66,3.71,1.77.29,3.56.29,3.56.71-2.55,1.91-3.27a7.16,7.16,0,0,1,3.51-.48S102.76,4.72,102,3.6,101.39,0,101.39,0Z"/><path class="cls-9" d="M1.08,112.3a.26.26,0,0,1-.29-.22A103.06,103.06,0,0,1,0,97.83,100.71,100.71,0,0,1,21.38,37.69a.25.25,0,0,1,.35,0,.26.26,0,0,1,0,.36A99.48,99.48,0,0,0,1.3,112,.26.26,0,0,1,1.08,112.3Z"/><path class="cls-9" d="M17.26,35.89a10.65,10.65,0,0,1,2.28,2.38c.43.91-1.34,4.12-1.34,4.12s1.88-2.5,3.17-2.62S24.71,41,24.71,41s-2-1.72-2.16-3.11a7.24,7.24,0,0,1,1-3.39s-1.47,2.13-2.83,2.38S17.26,35.89,17.26,35.89Z"/><path class="cls-10" d="M15.88,153.82a10.34,10.34,0,0,1,3.06.7c.81.5,1.08,4,1.08,4s.19-3,1.15-3.73,3.3-.77,3.3-.77-2.5-.32-3.34-1.35a6.75,6.75,0,0,1-.95-3.22s-.05,2.45-1,3.36S15.88,153.82,15.88,153.82Z"/><circle class="cls-11" cx="46.44" cy="12.27" r="2.2"/><path class="cls-12" d="M134,12.16A10.75,10.75,0,1,1,123.3,1.46,10.72,10.72,0,0,1,134,12.16Z"/><path class="cls-13" d="M134.06,12.16s0,.07,0,.2,0,.31,0,.56a10,10,0,0,1-.35,2.11,11.17,11.17,0,0,1-1.33,3,11,11,0,0,1-3,3.11,11.24,11.24,0,0,1-2.21,1.15,10.5,10.5,0,0,1-2.6.61A10.73,10.73,0,0,1,118.9,22a11,11,0,0,1-4.6-3.92A10.69,10.69,0,0,1,113,15.28a11.13,11.13,0,0,1-.36-1.54,11.88,11.88,0,0,1-.13-1.58,10.48,10.48,0,0,1,.1-1.58A10.3,10.3,0,0,1,112.89,9a10.66,10.66,0,0,1,1.33-2.86,10.89,10.89,0,0,1,4.65-3.95,10.35,10.35,0,0,1,2.84-.82l.71-.08.36,0h.36c.24,0,.46,0,.7,0s.47,0,.69.06a10.75,10.75,0,0,1,2.6.63,11.64,11.64,0,0,1,2.22,1.16,10.87,10.87,0,0,1,3,3.12,10.63,10.63,0,0,1,1.33,3,9.86,9.86,0,0,1,.35,2.11c0,.24,0,.43,0,.56S134.06,12.16,134.06,12.16Zm0,0V12c0-.13,0-.32,0-.56a10.05,10.05,0,0,0-.38-2.09,8,8,0,0,0-.52-1.42,11.19,11.19,0,0,0-.87-1.56,10.89,10.89,0,0,0-7.73-4.63c-.22,0-.44,0-.66-.05h-1l-.35,0c-.23,0-.46.05-.69.08a9.44,9.44,0,0,0-1.38.3c-.24.06-.46.14-.69.22s-.45.16-.67.27a10.64,10.64,0,0,0-6.37,9.62,11.53,11.53,0,0,0,.1,1.55,11.25,11.25,0,0,0,.33,1.53,10.69,10.69,0,0,0,1.31,2.8A10.49,10.49,0,0,0,119,21.86c.22.1.46.18.68.26s.46.16.69.22a12,12,0,0,0,1.4.28c.23,0,.47.06.7.07l.34,0h.35c.23,0,.46,0,.68,0l.68-.06A10.83,10.83,0,0,0,132.22,18a9.39,9.39,0,0,0,.87-1.55,9.33,9.33,0,0,0,.53-1.42,10.73,10.73,0,0,0,.37-2.09c0-.25,0-.44,0-.57Z"/><path class="cls-14" d="M134,12.1A10.75,10.75,0,1,1,123.3,1.39,10.72,10.72,0,0,1,134,12.1Z"/><path class="cls-15" d="M123.3,22.89A10.79,10.79,0,1,1,134.13,12.1,10.83,10.83,0,0,1,123.3,22.89Zm0-21.41A10.62,10.62,0,1,0,134,12.1,10.65,10.65,0,0,0,123.3,1.48Z"/><path class="cls-14" d="M134,12.1A10.75,10.75,0,1,1,123.3,1.39,10.72,10.72,0,0,1,134,12.1Z"/><path class="cls-15" d="M123.3,22.89A10.79,10.79,0,1,1,134.13,12.1,10.83,10.83,0,0,1,123.3,22.89Zm0-21.41A10.62,10.62,0,1,0,134,12.1,10.65,10.65,0,0,0,123.3,1.48Z"/><path class="cls-16" d="M133.74,9.6a3.94,3.94,0,0,1-1.83-.5,6.55,6.55,0,0,1-1.29-1.66c0,.82.46,1.93-.44,2.36-.23.11-.42-.08-.54-.26a1,1,0,0,0-.58-.55c-.28-.08-.55-.06-.61.27-.12.55.13,1.37-.26,1.84s-1.62.25-2.2.17c0,0-.06,0-.06-.08,0-.74.29-1.58-.5-2a5.21,5.21,0,0,1-.93-.69c-.23-.22-.32-.49-.62-.53.27.75,1.22,1.08,1.36,1.86s-.34,1.05-.88,1.4-.61.89-.77,1.53a1.15,1.15,0,0,1-.35.7c-.18.13-.57.37-.8.28s-.45-.45-.93-.16l-.53.33a.09.09,0,0,1-.13,0c-.15-.52-.72-1.11-1.19-.46a3.9,3.9,0,0,0-.38,1,1.13,1.13,0,0,1-.77.72c-.38.15-.4.7-.93.48A2.27,2.27,0,0,1,117,15c-.32-.35-.54-1-1.15-.53,0,0-.14.05-.16,0a6.31,6.31,0,0,0-.2-.86c0-.14-.11-.36-.26-.44-.47-.23-.55.4-.58.62,0,.4,0,.87-.42,1.08-.18.09-.39-.05-.56-.09-.51-.1-.48.63-.46.93a10.4,10.4,0,0,0,1.21,2.4A7,7,0,0,1,116.69,17c.57-.12,1.3,0,1,.78a.72.72,0,0,1-.65.42,6,6,0,0,1-.61,0c-.41,0-.49.36-.59.69a1.53,1.53,0,0,1-.35.58,10.8,10.8,0,0,0,1.06,1,.81.81,0,0,1,.78-.51c.61,0,1.07.78,1.71.58.38-.11.75-.25,1.12-.39l.64-.25c.36-.16-.07-.6-.24-.8a1.24,1.24,0,0,1-.33-1.17,2,2,0,0,1,2-1.51,1.77,1.77,0,0,1,.38-1.48,1.36,1.36,0,0,1,.7-.41c.25,0,.64.13.83-.09a1,1,0,0,1,.23-.22c.47-.25,1,.29,1.12.74a1.67,1.67,0,0,1,0,.83.91.91,0,0,0,.34,1c.24-.62-.38-1.58.26-2.06a.66.66,0,0,1,.77-.1c.44.17.62-.46.91-.67a.81.81,0,0,1,1.3.3,3.55,3.55,0,0,0,.53,1.11,7.69,7.69,0,0,0,1,.76c.1.07.71.73.72.73.63-.36.58-1,.51-1.58s-.31-1.59.34-2a.79.79,0,0,1,.38-.09c.5,0,.49-.79.4-1.09a1.42,1.42,0,0,1-.1-.76,1.2,1.2,0,0,1,.58-.67c.12-.06.25-.11.36-.18A8.74,8.74,0,0,0,133.74,9.6Z"/><path class="cls-14" d="M119.37,6.17c-.4-.63-1,.16-1.24.51a1.27,1.27,0,0,0-.35,1.1c.15.47.78.4,1.08.15s.21-.69-.16-.57a.62.62,0,0,1-.23,0h0a1.32,1.32,0,0,1,.21-.45l.18-.29.12-.14,0,0,.05,0C119.2,6.7,119.5,6.37,119.37,6.17Z"/><path class="cls-17" d="M119.81,2.46c-.3.16-.54.45-.88.54s-.58,0-.87.1a.6.6,0,0,0-.46.66,1.56,1.56,0,0,0-.28.16,2.49,2.49,0,0,0-.56.52.29.29,0,0,0,.11.48c-.14.65-.53.78-1.09,1.08A1.61,1.61,0,0,0,115,7.15c-.06.61-.4,1.33,0,1.89a.26.26,0,0,0,.27.1c.63-.09,1-.85,1.33-1.32.55-.76,1.46-.31,2.14-.79a1.72,1.72,0,0,0,.63-1.61c0-1,.87-1.23,1.44-1.83C121.57,2.74,120.83,1.9,119.81,2.46Z"/><path class="cls-17" d="M124.12,5.78a3,3,0,0,0-.28-1.3.74.74,0,0,0-.7-.38,3.65,3.65,0,0,0-1.41.34c-.24.19-.52.49-.39.84s-.24.74-.45,1.14a1.09,1.09,0,0,0-.45.89,1.16,1.16,0,0,1-.74,1.3,1,1,0,0,0-.52.57.6.6,0,0,0,.86.61c.74-.35.87-1.16,1.44-1.65a4.45,4.45,0,0,1,1.26-.48,2.06,2.06,0,0,0,1-.76A1.87,1.87,0,0,0,124.12,5.78Z"/><path class="cls-17" d="M117.71,8.57c-.3-.3-.71-.05-1,.23a.44.44,0,0,0-.43.33c0,.09,0,.33-.08.39s-.18.08-.22.11a.72.72,0,0,0-.48.61c0,.54.69.32,1,.25a1.36,1.36,0,0,1,.59-.08.63.63,0,0,0,.66-.19A1.34,1.34,0,0,0,117.71,8.57Z"/><path class="cls-17" d="M128.73,3.89a.25.25,0,0,0-.17,0,.59.59,0,0,0-.14-.06,1,1,0,0,0-1.2.14,1.88,1.88,0,0,0-.34,1.13.71.71,0,0,0,.54.84c.4.07.77-.33,1-.55a1.63,1.63,0,0,1,.36-.13.78.78,0,0,0,.47-.47A.69.69,0,0,0,128.73,3.89Z"/><path class="cls-17" d="M125.59,2.46l-.12,0a.42.42,0,0,0-.41.35A.52.52,0,0,0,125,3a.25.25,0,0,0,.07.26.43.43,0,0,0,.45,0,.63.63,0,0,0,.31-.52A.27.27,0,0,0,125.59,2.46Z"/><path class="cls-17" d="M126.87,19.48c-.38-.28-.88,0-1.28-.23a1.06,1.06,0,0,0-1-.13c-.37.16-.44.63-.48,1s-.34.52-.51.78h-.11c-.43,0-.62.85-.1.87a.7.7,0,0,0,.21,0c.47,0,.85,0,1.22-.33a3.37,3.37,0,0,0,.3-.36.92.92,0,0,0,.43-.19c.17,0,.37,0,.44,0C126.63,20.86,127.65,20.05,126.87,19.48Z"/><path class="cls-17" d="M130.35,17.09c-.12-.21-.38-.15-.54-.05l-.11.09a3.53,3.53,0,0,0-.24-.34.38.38,0,0,0-.54,0c-.53.35-.54,1-.82,1.54a1.06,1.06,0,0,0-.16.88.65.65,0,0,0,.66.41,1.05,1.05,0,0,0,.74-.36c.25-.27.38-.51.74-.66C130.71,18.32,130.6,17.55,130.35,17.09Z"/><path class="cls-17" d="M123,17.25c-.33-.06-.62.27-.78.56l-.13.11a1.87,1.87,0,0,0-.34.6,1.4,1.4,0,0,0-.32.22c-.11.09-.21.33,0,.43.36.24.71,0,1-.19a3.28,3.28,0,0,1,.54-.24,1.36,1.36,0,0,0,.49-.52A.62.62,0,0,0,123,17.25Z"/><path class="cls-17" d="M121.4,21.15h0a.14.14,0,0,0-.08-.17.14.14,0,0,0-.14,0h0l-.15.06-.1,0a.32.32,0,0,0-.22.49.22.22,0,0,0,.32,0h0l.08,0,.2-.11A.31.31,0,0,0,121.4,21.15Z"/><path class="cls-17" d="M122.29,9.29a.36.36,0,0,0-.24-.17.61.61,0,0,0-.55.23,1.36,1.36,0,0,0-.16.25.88.88,0,0,0-.34.69.2.2,0,0,0,.24.2,1.21,1.21,0,0,0,.3-.11.67.67,0,0,0,.56-.26,1.06,1.06,0,0,0,.33-.53A.25.25,0,0,0,122.29,9.29Z"/><path class="cls-17" d="M116.61,11.64a.55.55,0,0,0,0-.38.17.17,0,0,0-.12-.08.13.13,0,0,0-.21,0,.51.51,0,0,0-.34.64.29.29,0,0,0,0,.09c0,.14.12.2.24.19a.38.38,0,0,0,.21-.07A.5.5,0,0,0,116.61,11.64Z"/><path class="cls-17" d="M117.47,9h0a.12.12,0,0,0-.11-.1.56.56,0,0,0-.61.31.59.59,0,0,0-.07.2,1.14,1.14,0,0,0-.31.23c-.14.17-.2.53.1.59a1,1,0,0,0,.7-.17,1,1,0,0,0,.44-.7A.51.51,0,0,0,117.47,9Z"/><path class="cls-17" d="M123.09,5a.37.37,0,0,0-.51,0,.57.57,0,0,0-.44.25.86.86,0,0,0-.19.45c0,.12,0,.16,0,.23s-.17.12-.24.19c-.28.23-.53.67-.24,1s.67,0,.86-.23a1.64,1.64,0,0,1,.29-.4,3.55,3.55,0,0,0,.44-.35A.83.83,0,0,0,123.09,5Z"/><path class="cls-17" d="M118.29,5.26a.42.42,0,0,0-.52-.3.09.09,0,0,0-.14,0,.9.9,0,0,0-.2.23h0a.82.82,0,0,0-.11.17,1.55,1.55,0,0,1-.35.44,1.6,1.6,0,0,0-.3.13c-.38.09-.74.15-.94.53s-.24.67.08.82.6-.1.82-.35.61-.08.79-.12a1.1,1.1,0,0,0,.56-.39A1.22,1.22,0,0,0,118.29,5.26Z"/><path class="cls-17" d="M128.11,4.37c-.23-.15-.5.12-.44.37,0,0,0,0,0,0a.28.28,0,0,0,0,.09c.08.21.34.13.44,0S128.27,4.47,128.11,4.37Z"/><path class="cls-17" d="M126.78,6.71v0a.11.11,0,0,0-.13-.08c-.17,0-.39.19-.31.4s.43.08.47-.13A.2.2,0,0,0,126.78,6.71Z"/><path class="cls-17" d="M125.31,19.63a.41.41,0,0,0-.52-.06c-.29.18-.09.51-.31.72s-.55.42-.43.69.47.09.64-.08a1.25,1.25,0,0,1,.8-.39c.25,0,.64-.22.61-.54S125.67,19.54,125.31,19.63Z"/><path class="cls-17" d="M129.81,17.89a.49.49,0,0,0-.6-.43l-.08,0a.19.19,0,0,0-.12,0c-.2,0-.35.21-.4.38a1.14,1.14,0,0,0,0,.37.37.37,0,0,1-.15.25.63.63,0,0,0-.17.6c0,.16.2.18.34.13a1.14,1.14,0,0,0,.36-.26c.1-.1.14-.26.25-.36S129.86,18.26,129.81,17.89Z"/><path class="cls-17" d="M123.17,17.8a.31.31,0,0,0-.35-.05.19.19,0,0,0-.2.13c-.08.23-.32.38-.43.61a.2.2,0,0,0,0,.26.41.41,0,0,0,.52,0,1.71,1.71,0,0,0,.2-.18l.08-.09s.09-.11,0-.05C123.22,18.27,123.38,18,123.17,17.8Z"/><path class="cls-14" d="M125.15,17.42a.23.23,0,0,0-.15-.05.35.35,0,0,0-.22-.1.82.82,0,0,0-.74.8.22.22,0,0,0,0,.14.27.27,0,0,0,.25.2l0,0C124.72,18.62,125.57,17.76,125.15,17.42Z"/><path class="cls-18" d="M116.61,3.89S109.88,9.52,114.1,17C114.1,17,110.86,9.77,116.61,3.89Z"/><path class="cls-19" d="M132.62,7.26s2.4,7.56-2,12.36C130.58,19.62,136,15.58,132.62,7.26Z"/><path class="cls-20" d="M134,12.1A10.75,10.75,0,1,1,123.3,1.39,10.72,10.72,0,0,1,134,12.1Z"/><path class="cls-9" d="M116.61,3.89S109.88,9.52,114.1,17C114.1,17,110.86,9.77,116.61,3.89Z"/><path class="cls-21" d="M132.62,7.26s2.4,7.56-2,12.36C130.58,19.62,136,15.58,132.62,7.26Z"/><g class="cls-22"><path class="cls-23" d="M115.61,17.18a1.78,1.78,0,0,0,1.12-1.85c-.13-1.19-.92-2.24-.83-3.47a2.07,2.07,0,0,1,1.24-1.7,9.17,9.17,0,0,1,2.45-.41,2.05,2.05,0,0,0,1.71-.93,5.74,5.74,0,0,1,.62-1.11,2.08,2.08,0,0,1,2.66-.32c.46.27.92,1,1.46,1,1,.14,1-.76,1.24-1.41,0,0,.09-.11.15-.08.57.27.91,1,1.5,1.19.8.26.93-1.4.83-1.84s-.36-1-.53-1.54-.46-1.12-.18-1.6A10.47,10.47,0,0,0,114.76,18,1.62,1.62,0,0,1,115.61,17.18Z"/></g><g class="cls-24"><path class="cls-25" d="M91.73,186a10.92,10.92,0,0,0,3.74,5.17,9.6,9.6,0,0,0,5.51,1.7,1.68,1.68,0,0,1-1.26-.94,13.93,13.93,0,0,0,9-.73s-2.25-5-4.79-6a1.69,1.69,0,0,1,1.33.12,8.35,8.35,0,0,0-5.57-3.94c-3.85-.69-5,.28-5,.28Z"/><g class="cls-26"><path d="M91.24,182.12s1.09,5.54,8.69,7.06,11.44-.1,11.44-.1-2.67,5.79-12.63,4.4S91.24,182.12,91.24,182.12Z"/></g></g><path class="cls-27" d="M83,183.22s2.68,3.81,2.72,6.3c0,0,5.55,2.43,7.16,4.41a17.07,17.07,0,0,0-1.76-8.05Z"/><path class="cls-11" d="M86.63,175.27s5-.15,7.12-1.57c0,0,3.4,3.06,5.9,3.72a18.18,18.18,0,0,1-6.47,3.65Z"/><g class="cls-28"><path class="cls-29" d="M63.6,168.9a17.49,17.49,0,0,0,2.32,6.9,15.22,15.22,0,0,0,8,5.92c3.62,1.21,8.17,2.22,12.16,3.2a30.32,30.32,0,0,1,6.09,2,9.7,9.7,0,0,0,2.41-3,4.83,4.83,0,0,0,.54-2.38,49.88,49.88,0,0,1-9.79-7.89C80.3,168.5,75.09,162.43,63.6,168.9Z"/><path class="cls-25" d="M67.66,178.54A18.78,18.78,0,0,0,72,173.48a15,15,0,0,0,1.94-7.8l1.68.53a14.8,14.8,0,0,1-.92,6.84,16.13,16.13,0,0,1-5.21,6.89Z"/><path class="cls-25" d="M79.29,183.92a17.07,17.07,0,0,0,4.59-4.18,10.05,10.05,0,0,0,1.8-6.47l.86.75a9.61,9.61,0,0,1-1.47,5.44,15.33,15.33,0,0,1-4.86,4.73Z"/><g class="cls-26"><path d="M62.27,166.75l1.33,2.15a20.12,20.12,0,0,0,13.15,11c10,2.76,18.29,4,21.57,6L93.23,191a29.81,29.81,0,0,0-14.13-6.23C70.61,183.54,61.49,179,62.27,166.75Z"/></g></g><path class="cls-30" d="M74.47,176.67s2.24-3.19,2.36-4.39l7.25,4.86a9.31,9.31,0,0,1-1.6,3Z"/><g class="cls-31"><path class="cls-11" d="M75.24,176.45a8.78,8.78,0,0,0,1.8-3.34l6.39,4a4,4,0,0,1-1.17,2.35Z"/><g class="cls-32"><polygon class="cls-9" points="75.03 177.54 80.48 173.46 81.07 173.81 75.54 177.89 75.03 177.54"/></g><g class="cls-32"><polygon class="cls-9" points="76.05 178.01 81.5 173.93 82.1 174.28 76.57 178.35 76.05 178.01"/></g><g class="cls-32"><polygon class="cls-9" points="78.85 179.83 84.3 175.75 84.89 176.1 79.36 180.18 78.85 179.83"/></g><g class="cls-26"><path d="M74.81,175.29a3.82,3.82,0,0,0,2.4,1.12c1.56.15,1.84.75,2.83,1.43s4,.87,4,.87l-1.68,1.82-8.65-3.46Z"/></g></g><g class="cls-33"><path class="cls-11" d="M85.49,180a4.29,4.29,0,0,1,1,2.56l15.4,5-13.57-8.31A4.61,4.61,0,0,1,85.49,180Z"/><g class="cls-26"><polygon points="85.15 179.79 102.67 187.94 85.39 183.05 85.15 179.79"/></g></g><g class="cls-32"><path class="cls-9" d="M66,168.58s7.4-2.85,14.23,1.45C80.22,170,74.85,163.86,66,168.58Z"/></g><path class="cls-34" d="M89.41,175.64a14.15,14.15,0,0,0,4.45-1.3c.1,0,0-.19-.08-.14a14.21,14.21,0,0,1-4.41,1.27c-.11,0-.07.18,0,.17Z"/><path class="cls-34" d="M84.69,185.25A10.5,10.5,0,0,1,86,188.81c0,.11.18.07.16,0a10.73,10.73,0,0,0-1.3-3.6c0-.1-.2,0-.15.08Z"/><path class="cls-34" d="M86.22,180.48c1.37.51,2.6,1.32,4,1.8.1,0,.15-.13,0-.16-1.37-.48-2.6-1.29-4-1.8-.1,0-.15.13,0,.16Z"/><path class="cls-34" d="M90.72,182.47a10.53,10.53,0,0,0,1.72.84c.09.05.18-.1.08-.14a10.89,10.89,0,0,1-1.71-.85c-.1-.06-.18.09-.09.15Z"/><path class="cls-34" d="M92.92,186.91a10.87,10.87,0,0,0,2,2.87.08.08,0,0,0,.12-.12,10.41,10.41,0,0,1-2-2.83.09.09,0,0,0-.15.08Z"/><path class="cls-34" d="M95.43,190.18a3.1,3.1,0,0,0,.7.48c.1,0,.19-.1.09-.15a2.81,2.81,0,0,1-.67-.45c-.07-.07-.2,0-.12.12Z"/><path class="cls-34" d="M102.77,191.74a17.76,17.76,0,0,0,2.41-.26.08.08,0,0,0,0-.16,18.7,18.7,0,0,1-2.36.25c-.11,0-.12.17,0,.17Z"/><path class="cls-34" d="M105.75,191.42a1.85,1.85,0,0,0,.41-.07.08.08,0,1,0,0-.16,2.2,2.2,0,0,1-.37.06c-.1,0-.11.18,0,.17Z"/><path class="cls-34" d="M100,182a4.29,4.29,0,0,1,2,.7.09.09,0,0,0,.09-.15,4.63,4.63,0,0,0-2.09-.72.09.09,0,0,0,0,.17Z"/><path class="cls-34" d="M102.43,183.08a1.83,1.83,0,0,1,.36.26c.07.08.2,0,.12-.12a2.19,2.19,0,0,0-.39-.29.09.09,0,0,0-.09.15Z"/><path class="cls-34" d="M86.74,175.91a20.57,20.57,0,0,0,1.94,1.91c.08.07.21,0,.12-.12a20.46,20.46,0,0,1-1.93-1.91.09.09,0,0,0-.13.12Z"/><path class="cls-34" d="M89,178.15a2.86,2.86,0,0,0,.5.42.08.08,0,0,0,.09-.14,3,3,0,0,1-.47-.4c-.08-.07-.2,0-.12.12Z"/><path class="cls-34" d="M76.26,167.51a5.44,5.44,0,0,1,2.45,1.27c.08.08.21,0,.13-.11a5.68,5.68,0,0,0-2.53-1.33c-.11,0-.16.14,0,.17Z"/><path class="cls-34" d="M79.36,169.23l.35.36c.08.07.2,0,.12-.12l-.35-.36c-.07-.07-.2,0-.12.12Z"/><path class="cls-35" d="M1.66,119.91S8,149.53,38.39,169.27"/><path class="cls-36" d="M16,136.43A7.46,7.46,0,1,1,8.51,129,7.44,7.44,0,0,1,16,136.43Z"/><path class="cls-37" d="M8.51,143.92A7.49,7.49,0,1,1,16,136.43,7.51,7.51,0,0,1,8.51,143.92Zm0-14.85a7.37,7.37,0,1,0,7.4,7.36A7.39,7.39,0,0,0,8.51,129.07Z"/><g class="cls-38"><path class="cls-39" d="M13.3,137c-.42.21-.85.38-1.28.56-.17.07-.37.12-.56.18.12-.15.22-.31.28-.4.4-.56,1-1,1.31-1.66.06-.16-.13-.22-.2-.08A5.24,5.24,0,0,1,11.53,137a2.72,2.72,0,0,0-.29.3,2.9,2.9,0,0,0-.46-1.68c0-.06-.13,0-.1.08a3.09,3.09,0,0,1,.11,1.39c0,.15,0,.29,0,.43-.08-.13-.13-.31-.22-.43-.25-.39-.63-.68-.9-1.05-.08-.11-.24,0-.18.14a8.45,8.45,0,0,1,.64,1.32c0,.08.05.16.08.25l-.29-.13-.48-.25a3.47,3.47,0,0,1-.59-.27c-.07-.05-.18.07-.11.14a7.5,7.5,0,0,0,.86.62l.09.07A5,5,0,0,1,8,137.62c-.07,0-.13.09-.06.12a7.84,7.84,0,0,0,2.1.69l-.51.12c-.77.15-1.5.5-2.26.64-.06,0-.07.11,0,.1.84-.09,1.62-.38,2.47-.46h.22a11.48,11.48,0,0,0-2.22,1.93c-.06.07,0,.17.1.11a12,12,0,0,1,1.66-1.36,5.55,5.55,0,0,1,.94-.36,13.53,13.53,0,0,1-.79,2.24.09.09,0,0,0,.13.11A3.77,3.77,0,0,0,11,139.36a14.45,14.45,0,0,1,.57,1.6c0,.13.2,0,.19-.09-.09-.59-.14-1.19-.29-1.78l0-.12.2.12c.26.13.5.39.81.38.13,0,.28-.24.11-.29s-.44-.36-.66-.5a1.35,1.35,0,0,1-.31-.32l.32-.2c.5-.32,1-.66,1.48-1C13.42,137.12,13.38,137,13.3,137Z"/><path class="cls-39" d="M14,132.92a1.19,1.19,0,0,1-.52-.09l-.12,0c.12-.15.22-.31.32-.45s0-.28-.16-.18-.24.16-.35.25l-.15.11-.06,0,0,0a7.1,7.1,0,0,1-.15-1c0-.14-.19-.08-.19,0,0,.36,0,.7,0,1a2.7,2.7,0,0,0-.65-1c-.08-.06-.2.08-.12.15a2.62,2.62,0,0,1,.5.9l-.15-.07a3.56,3.56,0,0,0-.7-.29c-.09,0-.18.12-.08.17a1.79,1.79,0,0,1,.63.42l0,0a3.77,3.77,0,0,0-1.42.17c-.05,0-.08.14,0,.13a4,4,0,0,1,1.33.1h0a4.2,4.2,0,0,1-.7.17c-.07,0-.1.14,0,.14a3.39,3.39,0,0,0,.71,0c-.13.16-.27.38-.45.43s-.11.14,0,.15a1,1,0,0,0,.6-.3c.14-.1.33-.19.47-.3l.12,0a2.29,2.29,0,0,1,.1.23c.08.2.06.41.15.61s.24,0,.21-.1c-.08-.27-.08-.55-.17-.81v0l.1.07c.07.06.16.1.24.16a.87.87,0,0,0,.26.16c.09,0,.19-.1.11-.16a1.62,1.62,0,0,1-.18-.19c-.06-.07-.14-.13-.21-.2l0,0,.18,0a1.29,1.29,0,0,0,.62-.11C14.12,133.06,14.14,132.9,14,132.92Z"/><path class="cls-18" d="M14.52,138.07a.17.17,0,0,0-.16-.13c-.28,0-.4.29-.41.53a.18.18,0,0,0,.15.19h0C14.43,138.7,14.61,138.32,14.52,138.07Z"/><path class="cls-18" d="M14.85,135.24a.39.39,0,0,0-.46-.09.64.64,0,0,0-.27.27c-.17.23-.37.63-.19.89a.48.48,0,0,0,.56.09.88.88,0,0,0,.48-.76A.48.48,0,0,0,14.85,135.24Z"/><path class="cls-18" d="M13.29,139.92a.2.2,0,0,0-.24.09.22.22,0,0,0-.12.16c0,.09,0,.22.14.21a.34.34,0,0,0,.3-.2A.19.19,0,0,0,13.29,139.92Z"/><path class="cls-18" d="M11.48,142a.37.37,0,0,0-.5-.2.87.87,0,0,0-.47.73.29.29,0,0,0,.29.32.67.67,0,0,0,.47-.22A.68.68,0,0,0,11.48,142Z"/><path class="cls-18" d="M4.67,132.79a.3.3,0,0,0-.35-.29.56.56,0,0,0-.43.43.75.75,0,0,0,0,.26.29.29,0,0,0,.23.21.52.52,0,0,0,.37-.17A.56.56,0,0,0,4.67,132.79Z"/><path class="cls-39" d="M5.07,135.62a3.24,3.24,0,0,1-.91.35l-.3.13c.09-.11.18-.25.26-.35a2.28,2.28,0,0,0,.43-.7c0-.11-.12-.12-.16,0a2.18,2.18,0,0,1-.47.58c-.09.09-.22.19-.32.3l0-.21c0-.28,0-.57-.08-.84,0-.07-.11,0-.11,0a6.05,6.05,0,0,1,0,1,1.09,1.09,0,0,0-.39-.46c-.06,0-.12.07-.07.1a1.12,1.12,0,0,1,.31.51l-.1-.06a3.19,3.19,0,0,0-1-.3c-.07,0-.11.12,0,.13a4,4,0,0,1,.89.35l.21.12-.38.08a2.92,2.92,0,0,0-.63.27c-.07,0,0,.14,0,.11a3.83,3.83,0,0,1,.75-.23H3a3.1,3.1,0,0,0-.71.69c0,.06,0,.15.09.09s.45-.37.66-.56a1.81,1.81,0,0,0-.35,1.12c0,.06.1,0,.12,0a7.72,7.72,0,0,1,.51-1,.35.35,0,0,0,0-.08,2.56,2.56,0,0,1,.05.27c0,.18,0,.36.06.54a3.55,3.55,0,0,1,.06.64c0,.14.14.12.18,0a3.72,3.72,0,0,0,.07-1v-.37a.35.35,0,0,1,.05.08c.14.22.23.62.45.76s.24-.07.17-.16a3.16,3.16,0,0,1-.29-.74l-.07-.14a2.34,2.34,0,0,1,.52.27.11.11,0,0,0,.14-.17,1.58,1.58,0,0,0-.48-.37l-.16,0a5,5,0,0,0,1-.55C5.23,135.68,5.16,135.56,5.07,135.62Z"/><path class="cls-18" d="M3.87,140l-.1.1a.2.2,0,0,0,0,.08.76.76,0,0,0-.11.37c0,.12.12.16.21.12a.61.61,0,0,0,.34-.56C4.18,139.92,4,139.87,3.87,140Z"/><path class="cls-18" d="M5.89,139a.41.41,0,0,0-.55-.39,1,1,0,0,0-.48.67.54.54,0,0,0,0,.28.46.46,0,0,0,.29.43c.41.16.71-.28.8-.61A.56.56,0,0,0,5.89,139Z"/><path class="cls-18" d="M9.9,130.81a.5.5,0,0,0-.21,0h0a.55.55,0,0,0-.33.3l-.06.08a.47.47,0,0,0,.05.6.4.4,0,0,0,.32.08.2.2,0,0,0,.11,0,.59.59,0,0,0,.14-.06.72.72,0,0,0,.33-.58A.35.35,0,0,0,9.9,130.81Z"/><path class="cls-18" d="M7,131h0c-.08,0-.18,0-.26.07h0a.21.21,0,0,0,0,.26v0c.06.11.21.06.27,0A.19.19,0,0,0,7,131Z"/><path class="cls-18" d="M4.85,131.64h0a.29.29,0,0,0-.13.05.19.19,0,0,0-.11.14.13.13,0,0,0,.07.17l.14,0c.1,0,.2-.09.22-.18A.16.16,0,0,0,4.85,131.64Z"/></g><g class="cls-40"><path class="cls-18" d="M4.23,139.33a10.21,10.21,0,0,1-1.61-4.52.08.08,0,0,0,0,.05,9,9,0,0,0,3.77,7A10.73,10.73,0,0,1,4.23,139.33Z"/><path class="cls-18" d="M3.87,140.46a10,10,0,0,1-1.68-4.81,2.22,2.22,0,0,1,0-.37A7.36,7.36,0,0,1,2.29,134a.1.1,0,0,0,0,.05c-.77,2.3.28,4.6,1.56,6.49C3.83,140.55,3.89,140.5,3.87,140.46Z"/><path class="cls-18" d="M8,135.13l-1.1-.58a10.15,10.15,0,0,0-2.61-1H4.13a4.46,4.46,0,0,0-.63,0,9.44,9.44,0,0,1,3.23,1.18c.9.48,1.79,1,2.66,1.5l-.13-.15C8.83,135.78,8.39,135.45,8,135.13Z"/><path class="cls-18" d="M5.69,133.23a13.77,13.77,0,0,0-2.22-.29,0,0,0,0,0,0,0c.76,0,1.47.2,2.22.28C5.7,133.26,5.71,133.23,5.69,133.23Z"/><path class="cls-18" d="M10.42,131.5a9.08,9.08,0,0,0-3.81-.27,9.18,9.18,0,0,0-1.39.31s0,0,0,0a5.54,5.54,0,0,0-1.31.71,2.51,2.51,0,0,0-.59.41h0a9.11,9.11,0,0,1,7.17-1.1h0Z"/><path class="cls-18" d="M9,130.29h0a9.41,9.41,0,0,0-2.59.35,7.6,7.6,0,0,0-.76.37,5.54,5.54,0,0,0-.53.3,10.07,10.07,0,0,1,4.42-.94A4.51,4.51,0,0,1,9,130.29Z"/><path class="cls-18" d="M7.05,129.57a7.81,7.81,0,0,0-3.49,1.7,4.53,4.53,0,0,0-.53.86,6,6,0,0,1,1.8-1.6,8.84,8.84,0,0,1,2.22-.87S7.11,129.55,7.05,129.57Z"/></g><g class="cls-41"><path class="cls-18" d="M13.39,136.94c-.42.2-.85.38-1.28.56-.17.07-.37.12-.56.18.12-.15.22-.31.28-.4.4-.56,1.05-1,1.31-1.67.06-.15-.14-.21-.2-.07a5.24,5.24,0,0,1-1.32,1.38,2.72,2.72,0,0,0-.29.3,2.9,2.9,0,0,0-.46-1.68c0-.06-.13,0-.1.08a3,3,0,0,1,.1,1.39,3.11,3.11,0,0,1,0,.43c-.08-.13-.14-.31-.22-.43-.25-.39-.63-.68-.9-1-.08-.12-.24,0-.18.14a9.44,9.44,0,0,1,.64,1.32c0,.07.05.16.08.25l-.3-.13-.47-.25A4.47,4.47,0,0,1,8.9,137c-.07-.06-.18.07-.11.14.25.24.58.4.86.62l.09.07a5,5,0,0,1-1.68-.33c-.07,0-.13.09-.06.12a7.73,7.73,0,0,0,2.1.69l-.51.12c-.77.15-1.5.5-2.26.63-.06,0-.07.12,0,.11.84-.09,1.62-.38,2.46-.46H10a11.48,11.48,0,0,0-2.22,1.93c-.07.06,0,.17.1.11a12.55,12.55,0,0,1,1.65-1.36,6,6,0,0,1,.95-.36,13.75,13.75,0,0,1-.79,2.23c-.05.1,0,.18.13.11a3.75,3.75,0,0,0,1.22-2.12,13.76,13.76,0,0,1,.57,1.6c0,.13.2,0,.19-.09a17.84,17.84,0,0,0-.29-1.78l0-.12.2.12c.26.13.49.39.81.38.13,0,.28-.25.11-.29s-.44-.36-.66-.5a1.34,1.34,0,0,1-.31-.32l.32-.2c.5-.32,1-.66,1.48-1C13.51,137,13.47,136.9,13.39,136.94Z"/><path class="cls-18" d="M14.11,132.82a1.33,1.33,0,0,1-.52-.09l-.12,0c.12-.15.22-.31.32-.46s0-.27-.16-.17l-.36.24-.14.12-.06,0,0,0a7,7,0,0,1-.15-1c0-.13-.19-.07-.19,0,0,.36,0,.7,0,1a2.63,2.63,0,0,0-.65-1c-.08-.06-.2.08-.12.15a2.53,2.53,0,0,1,.5.9.53.53,0,0,1-.15-.08,4.65,4.65,0,0,0-.7-.28c-.1,0-.18.12-.08.16a2.24,2.24,0,0,1,.63.42l0,.05a3.77,3.77,0,0,0-1.42.17c-.05,0-.08.13,0,.13a4,4,0,0,1,1.33.1h0a3.38,3.38,0,0,1-.7.16c-.07,0-.1.15,0,.15a3.39,3.39,0,0,0,.71,0c-.13.16-.27.38-.45.43s-.11.14,0,.14a.93.93,0,0,0,.6-.29c.14-.1.32-.19.47-.3l.12,0a2.29,2.29,0,0,1,.1.23c.08.19.06.41.15.61s.24,0,.21-.1c-.08-.27-.08-.55-.17-.81v0l.09.06.25.17a.87.87,0,0,0,.26.16c.09,0,.19-.11.11-.17a1,1,0,0,1-.18-.18c-.06-.07-.14-.13-.21-.2l0-.05.18,0a1.32,1.32,0,0,0,.62-.11C14.21,133,14.23,132.8,14.11,132.82Z"/><path class="cls-18" d="M14.61,138a.17.17,0,0,0-.16-.13c-.28,0-.4.29-.42.53a.2.2,0,0,0,.16.19h0C14.51,138.59,14.69,138.22,14.61,138Z"/><path class="cls-18" d="M14.94,135.14a.38.38,0,0,0-.46-.09.57.57,0,0,0-.27.26c-.17.24-.38.64-.19.89a.45.45,0,0,0,.56.09.86.86,0,0,0,.48-.75A.52.52,0,0,0,14.94,135.14Z"/><path class="cls-18" d="M13.38,139.82a.19.19,0,0,0-.24.09.22.22,0,0,0-.12.16c0,.08,0,.21.14.21a.34.34,0,0,0,.3-.2C13.5,140,13.49,139.86,13.38,139.82Z"/><path class="cls-18" d="M11.57,141.89a.37.37,0,0,0-.5-.21.88.88,0,0,0-.47.74.29.29,0,0,0,.29.32.63.63,0,0,0,.46-.22A.69.69,0,0,0,11.57,141.89Z"/><path class="cls-18" d="M4.76,132.69a.31.31,0,0,0-.35-.29.53.53,0,0,0-.43.42.82.82,0,0,0,0,.27.29.29,0,0,0,.23.21.53.53,0,0,0,.37-.17A.58.58,0,0,0,4.76,132.69Z"/><path class="cls-18" d="M5.16,135.52a3.36,3.36,0,0,1-.91.35,2.11,2.11,0,0,0-.31.13c.1-.11.19-.25.27-.35a2.4,2.4,0,0,0,.43-.7c0-.11-.13-.12-.16,0a2.22,2.22,0,0,1-.47.59c-.09.09-.22.19-.33.3a1.8,1.8,0,0,0,0-.22c0-.27,0-.56-.08-.84,0-.06-.11,0-.11,0a5.06,5.06,0,0,1-.06.95,1,1,0,0,0-.39-.46s-.11.06-.06.1a1.14,1.14,0,0,1,.31.5l-.1-.05a3.19,3.19,0,0,0-.95-.3c-.07,0-.12.12,0,.13a4,4,0,0,1,.89.35.82.82,0,0,1,.2.12l-.37.08a3.48,3.48,0,0,0-.63.26c-.07,0,0,.15,0,.12a4,4,0,0,1,.74-.23H3.1a3,3,0,0,0-.71.7c0,.06,0,.15.08.09.23-.18.45-.37.67-.56a1.79,1.79,0,0,0-.35,1.12c0,.06.1,0,.12,0a7.84,7.84,0,0,1,.51-1l.05-.07a2.56,2.56,0,0,1,0,.27c0,.18,0,.36.06.54a3.55,3.55,0,0,1,.06.64c0,.14.14.12.18,0a3.62,3.62,0,0,0,.07-1v-.37l0,.07c.14.22.22.62.45.76s.24-.06.16-.16a3.56,3.56,0,0,1-.28-.73c0-.05,0-.09-.07-.14a2.34,2.34,0,0,1,.52.27c.1.07.22-.09.14-.17a1.58,1.58,0,0,0-.48-.37l-.16,0a5,5,0,0,0,1-.55C5.32,135.58,5.25,135.46,5.16,135.52Z"/><path class="cls-18" d="M4,139.86l-.1.11a.2.2,0,0,0,0,.08.76.76,0,0,0-.11.37c0,.12.12.16.21.12a.63.63,0,0,0,.34-.56C4.27,139.82,4.06,139.77,4,139.86Z"/><path class="cls-18" d="M6,138.88a.41.41,0,0,0-.55-.39,1,1,0,0,0-.48.67.54.54,0,0,0,0,.28.46.46,0,0,0,.29.43c.41.16.71-.28.8-.61A.56.56,0,0,0,6,138.88Z"/><path class="cls-18" d="M10,130.7a.51.51,0,0,0-.21,0h0a.59.59,0,0,0-.34.3l-.05.08a.47.47,0,0,0,.05.6.4.4,0,0,0,.32.08.2.2,0,0,0,.11,0,.59.59,0,0,0,.14-.06.73.73,0,0,0,.33-.58A.36.36,0,0,0,10,130.7Z"/><path class="cls-18" d="M7,130.94H7c-.08-.05-.18,0-.26.07h0a.21.21,0,0,0,0,.26v0c.06.11.21.06.27,0A.19.19,0,0,0,7,130.94Z"/><path class="cls-18" d="M4.94,131.54H4.89a.29.29,0,0,0-.13.05.21.21,0,0,0-.12.14c0,.06,0,.15.08.17l.14,0c.1,0,.2-.09.22-.18A.15.15,0,0,0,4.94,131.54Z"/></g><path class="cls-42" d="M16,136.45A7.46,7.46,0,1,1,8.51,129,7.45,7.45,0,0,1,16,136.45Z"/><path class="cls-43" d="M3.87,130.75s-4.67,3.91-1.74,9.11A8.53,8.53,0,0,1,3.87,130.75Z"/><path class="cls-21" d="M15,133.09s1.67,5.25-1.41,8.58C13.57,141.67,17.31,138.87,15,133.09Z"/><g class="cls-44"><g class="cls-44"><path class="cls-45" d="M3.18,140A1.22,1.22,0,0,0,4,138.69c-.09-.83-.63-1.55-.57-2.41a1.41,1.41,0,0,1,.86-1.17,6.12,6.12,0,0,1,1.7-.29,1.44,1.44,0,0,0,1.19-.65,3.88,3.88,0,0,1,.43-.77,1.46,1.46,0,0,1,1.85-.22c.31.19.63.67,1,.72.68.1.7-.52.87-1,0,0,.06-.08.1-.06.4.18.63.69,1,.82.56.19.65-1,.58-1.28s-.25-.7-.37-1.06-.32-.78-.12-1.11a7.29,7.29,0,0,0-11.28,6.07,7.16,7.16,0,0,0,1.36,4.22A1.15,1.15,0,0,1,3.18,140Z"/></g></g></g></g></g></svg>