<svg width="1983" height="1983" viewBox="0 0 1983 1983" fill="none" xmlns="http://www.w3.org/2000/svg">
<g clip-path="url(#clip0_111_152)">
<path d="M1869.03 945.427L1868.74 945.218L1868.38 945.164C1868.17 945.133 1867.97 945.032 1867.83 944.878C1867.68 944.723 1867.59 944.525 1867.56 944.313L1867.56 944.305L1867.56 944.298C1843.81 737.359 1752.54 543.999 1607.86 394.102C1463.17 244.207 1273.13 146.119 1067.09 114.997C1066.98 114.978 1066.87 114.937 1066.77 114.876C1066.67 114.814 1066.58 114.733 1066.51 114.637C1066.44 114.542 1066.39 114.433 1066.37 114.319C1066.34 114.204 1066.33 114.085 1066.35 113.969C1066.37 113.852 1066.41 113.741 1066.47 113.64C1066.54 113.54 1066.62 113.452 1066.71 113.383C1066.81 113.314 1066.92 113.264 1067.03 113.237C1067.15 113.21 1067.27 113.205 1067.38 113.224L1067.38 113.224L1067.4 113.226C1273.91 144.433 1464.38 242.786 1609.35 393.073C1754.33 543.361 1845.73 737.21 1869.42 944.639L1869.42 944.649L1869.42 944.659C1869.43 944.773 1869.42 944.889 1869.39 944.999C1869.36 945.111 1869.31 945.214 1869.24 945.304C1869.19 945.364 1869.14 945.417 1869.08 945.462L1869.03 945.427Z" fill="white" stroke="white" stroke-width="3"/>
<path d="M1073.78 73C1071.52 83.2233 1067.68 93.0337 1062.41 102.081C1056.25 109.374 1021.66 106.912 1021.66 106.912C1021.66 106.912 1050.09 113.163 1056.82 123.678C1063.54 134.192 1059.57 157.4 1059.57 157.4C1059.57 157.4 1066.29 133.245 1077.66 126.425C1088.2 122.148 1099.63 120.585 1110.93 121.878C1110.93 121.878 1086.76 117.71 1079.56 107.101C1072.36 96.4918 1073.78 73 1073.78 73Z" fill="white"/>
<path d="M317.833 432.39L317.781 432.443L317.735 432.502C240.564 530.796 183.686 643.429 150.4 763.868C117.114 884.306 108.083 1010.15 123.831 1134.11L123.834 1134.14L123.839 1134.16C123.86 1134.29 123.856 1134.42 123.826 1134.55C123.796 1134.67 123.742 1134.79 123.666 1134.89C123.59 1135 123.494 1135.08 123.384 1135.15C123.276 1135.21 123.158 1135.26 123.034 1135.27C122.787 1135.3 122.539 1135.23 122.341 1135.08C122.143 1134.93 122.011 1134.71 121.972 1134.47C116.37 1089.78 113.873 1044.75 114.5 999.719C118.451 793.259 189.417 593.676 316.704 431.04C316.859 430.912 317.054 430.841 317.257 430.841C317.477 430.841 317.688 430.925 317.849 431.074C318.011 431.251 318.101 431.483 318.101 431.723C318.101 431.972 318.005 432.21 317.833 432.39Z" fill="white" stroke="white" stroke-width="3"/>
<path d="M276.557 412.968C284.885 419.316 292.174 426.922 298.162 435.512C302.237 444.132 285.464 474.539 285.464 474.539C285.464 474.539 303.279 450.858 315.504 449.721C327.728 448.584 347.154 461.372 347.154 461.372C347.154 461.372 328.201 445.079 326.685 431.913C327.142 420.59 330.397 409.558 336.161 399.801C336.161 399.801 322.232 419.977 309.344 422.345C296.457 424.713 276.557 412.968 276.557 412.968Z" fill="white"/>
<path d="M263.48 1530.06C273.427 1530.78 283.205 1533.02 292.477 1536.69C300.152 1541.43 302.711 1574.58 302.711 1574.58C302.711 1574.58 304.511 1546.16 313.608 1539.25C322.705 1532.33 344.879 1531.95 344.879 1531.95C344.879 1531.95 321.189 1528.92 313.229 1519.17C307.707 1509.92 304.61 1499.43 304.227 1488.66C304.227 1488.66 303.753 1511.87 294.751 1520.49C285.749 1529.11 263.48 1530.06 263.48 1530.06Z" fill="#FBC155"/>
<path d="M553.069 210.067C564.582 210.067 573.916 200.737 573.916 189.227C573.916 177.718 564.582 168.388 553.069 168.388C541.555 168.388 532.221 177.718 532.221 189.227C532.221 200.737 541.555 210.067 553.069 210.067Z" fill="#FCCC74"/>
<path d="M1382.79 188.186C1382.89 208.366 1376.98 228.118 1365.82 244.936C1354.67 261.755 1338.76 274.88 1320.13 282.645C1301.49 290.411 1280.97 292.468 1261.17 288.554C1241.36 284.64 1223.17 274.932 1208.9 260.662C1194.62 246.393 1184.91 228.205 1180.99 208.408C1177.08 188.611 1179.13 168.098 1186.9 149.472C1194.67 130.845 1207.8 114.947 1224.63 103.794C1241.45 92.6408 1261.21 86.7363 1281.4 86.83C1308.28 86.88 1334.04 97.5746 1353.04 116.572C1372.04 135.569 1382.74 161.32 1382.79 188.186Z" fill="#27ACE3"/>
<path d="M1383.36 188.185C1383.36 188.185 1383.36 188.849 1383.36 190.08C1383.36 191.311 1383.36 193.016 1383.36 195.385C1382.97 202.146 1381.86 208.847 1380.04 215.371C1377.27 225.413 1373.02 234.988 1367.44 243.789C1360.01 255.391 1350.34 265.404 1339.01 273.248C1332.46 277.644 1325.43 281.298 1318.07 284.142C1310.14 287.108 1301.86 289.05 1293.43 289.92C1275.08 292.009 1256.51 289.062 1239.7 281.395C1221.99 273.328 1206.89 260.466 1196.11 244.263C1190.75 236.064 1186.6 227.13 1183.8 217.74C1182.31 212.964 1181.17 208.089 1180.38 203.152C1179.64 198.196 1179.23 193.196 1179.15 188.185C1179.09 183.18 1179.41 178.177 1180.1 173.219C1180.59 168.169 1181.48 163.165 1182.75 158.252C1185.59 148.647 1189.83 139.517 1195.36 131.161C1206.18 114.747 1221.47 101.765 1239.42 93.7447C1247.97 89.8818 1257.04 87.2659 1266.33 85.9773L1273.06 85.2195H1276.47H1279.88C1282.16 85.2195 1284.24 85.2195 1286.52 85.2195C1288.79 85.2195 1290.97 85.2195 1293.05 85.7878C1301.48 86.7438 1309.76 88.7485 1317.69 91.7555C1325.08 94.6511 1332.13 98.3352 1338.73 102.744C1350.09 110.59 1359.76 120.641 1367.16 132.298C1372.8 141.061 1377.06 150.648 1379.76 160.715C1381.59 167.238 1382.7 173.939 1383.08 180.702C1383.08 182.976 1383.08 184.775 1383.08 186.007C1383.08 187.238 1383.36 188.185 1383.36 188.185ZM1383.36 188.185V186.67C1383.36 185.438 1383.36 183.639 1383.36 181.365C1382.86 174.657 1381.66 168.021 1379.76 161.568C1378.55 156.939 1376.9 152.435 1374.83 148.117C1372.48 142.979 1369.73 138.038 1366.59 133.34C1358.22 121.228 1347.35 111.047 1334.71 103.483C1322.08 95.9179 1307.97 91.1441 1293.34 89.4821C1291.25 89.4821 1289.17 89.4821 1287.08 89.0085H1277.61H1274.29C1272.11 89.0085 1269.93 89.4821 1267.75 89.7663C1263.33 90.3858 1258.96 91.3357 1254.68 92.608C1252.4 93.1764 1250.32 93.9342 1248.14 94.692C1245.96 95.4498 1243.87 96.2076 1241.79 97.2495C1224.03 105.028 1208.88 117.761 1198.18 133.923C1187.47 150.086 1181.66 168.992 1181.43 188.375C1181.41 193.285 1181.73 198.19 1182.37 203.057C1183.08 207.955 1184.12 212.798 1185.5 217.55C1188.33 226.946 1192.51 235.88 1197.91 244.073C1208.42 259.91 1223.26 272.402 1240.65 280.069C1242.74 281.016 1245.01 281.774 1247.1 282.531C1249.18 283.289 1251.45 284.047 1253.63 284.615C1258 285.762 1262.43 286.648 1266.9 287.268C1269.08 287.268 1271.35 287.836 1273.53 287.931H1276.76H1280.07C1282.25 287.931 1284.43 287.931 1286.52 287.931L1292.96 287.362C1307.55 285.697 1321.62 280.921 1334.21 273.354C1346.79 265.788 1357.61 255.609 1365.93 243.505C1369.13 238.882 1371.89 233.966 1374.17 228.822C1376.21 224.482 1377.89 219.984 1379.19 215.371C1381.01 208.904 1382.19 202.273 1382.7 195.574C1382.7 193.206 1382.7 191.406 1382.7 190.175L1383.36 188.185Z" fill="#2B62AC"/>
<path d="M1382.79 187.617C1382.87 207.793 1376.95 227.537 1365.78 244.342C1354.61 261.148 1338.7 274.258 1320.06 282.01C1301.43 289.761 1280.91 291.804 1261.11 287.879C1241.31 283.954 1223.13 274.239 1208.86 259.966C1194.6 245.692 1184.89 227.504 1180.99 207.71C1177.08 187.916 1179.14 167.407 1186.91 148.786C1194.68 130.166 1207.81 114.273 1224.64 103.124C1241.46 91.9752 1261.22 86.0732 1281.4 86.1669C1308.29 86.217 1334.07 96.9246 1353.07 115.942C1372.08 134.96 1382.77 160.735 1382.79 187.617Z" fill="#B85F17"/>
<path d="M1281.4 289.825C1261.19 289.75 1241.46 283.692 1224.7 272.416C1207.93 261.14 1194.89 245.151 1187.21 226.469C1179.53 207.786 1177.55 187.248 1181.54 167.446C1185.53 147.645 1195.3 129.468 1209.61 115.212C1223.93 100.956 1242.15 91.2592 1261.97 87.3461C1281.79 83.433 1302.33 85.479 1320.99 93.2259C1339.65 100.973 1355.6 114.073 1366.82 130.873C1378.04 147.673 1384.02 167.418 1384.02 187.617C1383.92 214.759 1373.07 240.755 1353.83 259.912C1334.6 279.069 1308.55 289.826 1281.4 289.825ZM1281.4 87.0193C1261.53 87.169 1242.15 93.1959 1225.7 104.34C1209.25 115.485 1196.47 131.248 1188.97 149.642C1181.47 168.037 1179.58 188.239 1183.55 207.703C1187.52 227.167 1197.16 245.021 1211.26 259.014C1225.37 273.007 1243.3 282.513 1262.8 286.334C1282.3 290.154 1302.5 288.119 1320.84 280.483C1339.19 272.847 1354.86 259.953 1365.88 243.427C1376.91 226.9 1382.79 207.481 1382.79 187.617C1382.76 174.353 1380.1 161.227 1374.98 148.989C1369.87 136.751 1362.38 125.643 1352.97 116.299C1343.55 106.955 1332.38 99.5592 1320.1 94.5351C1307.82 89.511 1294.67 86.957 1281.4 87.0193Z" fill="#451F0F"/>
<path d="M1382.79 187.617C1382.87 207.793 1376.95 227.537 1365.78 244.342C1354.61 261.148 1338.7 274.258 1320.06 282.01C1301.43 289.761 1280.91 291.804 1261.11 287.879C1241.31 283.954 1223.13 274.239 1208.86 259.966C1194.6 245.692 1184.89 227.504 1180.99 207.71C1177.08 187.916 1179.14 167.407 1186.91 148.786C1194.68 130.166 1207.81 114.273 1224.64 103.124C1241.46 91.9752 1261.22 86.0732 1281.4 86.1669C1308.29 86.217 1334.07 96.9246 1353.07 115.942C1372.08 134.96 1382.77 160.735 1382.79 187.617Z" fill="#B85F17"/>
<path d="M1281.4 289.825C1261.19 289.75 1241.46 283.692 1224.7 272.416C1207.93 261.14 1194.89 245.151 1187.21 226.469C1179.53 207.786 1177.55 187.248 1181.54 167.446C1185.53 147.645 1195.3 129.468 1209.61 115.212C1223.93 100.956 1242.15 91.2592 1261.97 87.3461C1281.79 83.433 1302.33 85.479 1320.99 93.2259C1339.65 100.973 1355.6 114.073 1366.82 130.873C1378.04 147.673 1384.02 167.418 1384.02 187.617C1383.92 214.759 1373.07 240.755 1353.83 259.912C1334.6 279.069 1308.55 289.826 1281.4 289.825ZM1281.4 87.0193C1261.53 87.169 1242.15 93.1959 1225.7 104.34C1209.25 115.485 1196.47 131.248 1188.97 149.642C1181.47 168.037 1179.58 188.239 1183.55 207.703C1187.52 227.167 1197.16 245.021 1211.26 259.014C1225.37 273.007 1243.3 282.513 1262.8 286.334C1282.3 290.154 1302.5 288.119 1320.84 280.483C1339.19 272.847 1354.86 259.953 1365.88 243.427C1376.91 226.9 1382.79 207.481 1382.79 187.617C1382.76 174.353 1380.1 161.227 1374.98 148.989C1369.87 136.751 1362.38 125.643 1352.97 116.299C1343.55 106.955 1332.38 99.5592 1320.1 94.5351C1307.82 89.511 1294.67 86.957 1281.4 87.0193Z" fill="#451F0F"/>
<g style="mix-blend-mode:screen">
<path d="M1380.33 163.936C1374.25 163.793 1368.3 162.167 1362.99 159.2C1358.09 154.65 1353.97 149.341 1350.76 143.475C1350.76 151.243 1355.12 161.757 1346.59 165.83C1344.41 166.872 1342.61 165.073 1341.48 163.368C1340.97 162.168 1340.22 161.086 1339.27 160.19C1338.33 159.293 1337.21 158.602 1335.98 158.158C1333.33 157.4 1330.77 157.589 1330.2 160.715C1329.06 165.925 1331.43 173.693 1327.74 178.145C1324.04 182.597 1312.39 180.513 1306.89 179.755C1306.89 179.755 1306.32 179.755 1306.32 178.997C1306.32 171.988 1309.07 164.031 1301.58 160.052C1298.41 158.208 1295.46 156.015 1292.77 153.516C1290.59 151.432 1289.74 148.875 1286.9 148.496C1289.45 155.6 1298.46 158.726 1299.78 166.115C1301.11 173.503 1296.56 176.061 1291.44 179.376C1286.33 182.691 1285.66 187.807 1284.15 193.869C1283.85 196.399 1282.68 198.745 1280.83 200.5C1279.12 201.731 1275.43 204.005 1273.25 203.152C1271.07 202.3 1268.99 198.889 1264.44 201.636L1259.41 204.762C1259.34 204.845 1259.24 204.912 1259.13 204.957C1259.03 205.002 1258.91 205.025 1258.8 205.025C1258.68 205.025 1258.57 205.002 1258.46 204.957C1258.36 204.912 1258.26 204.845 1258.18 204.762C1256.76 199.837 1251.36 194.248 1246.91 200.405C1245.28 203.382 1244.06 206.57 1243.31 209.877C1242.74 211.522 1241.77 213.002 1240.5 214.19C1239.23 215.379 1237.69 216.239 1236.01 216.698C1232.41 218.119 1232.22 223.328 1227.2 221.244C1224.98 219.566 1223.12 217.475 1221.7 215.087C1218.67 211.772 1216.58 205.615 1210.8 210.067C1210.8 210.067 1209.48 210.541 1209.29 210.067C1208.85 207.311 1208.21 204.588 1207.39 201.921C1207.39 200.594 1206.35 198.511 1204.93 197.753C1200.47 195.574 1199.72 201.542 1199.43 203.626C1199.43 207.415 1199.43 211.867 1195.45 213.856C1193.75 214.708 1191.76 213.382 1190.14 213.003C1185.31 212.056 1185.6 218.971 1185.79 221.813C1188.61 229.855 1192.46 237.496 1197.25 244.547C1203.72 239.767 1211.01 236.204 1218.76 234.032C1224.16 232.896 1231.08 234.032 1228.24 241.421C1227.7 242.601 1226.83 243.603 1225.74 244.308C1224.65 245.012 1223.38 245.391 1222.08 245.399C1220.15 245.497 1218.22 245.497 1216.3 245.399C1212.41 245.399 1211.66 248.809 1210.71 251.935C1210.03 253.991 1208.89 255.869 1207.39 257.429C1210.52 260.809 1213.88 263.974 1217.44 266.902C1218.02 265.434 1219.04 264.182 1220.37 263.317C1221.69 262.453 1223.25 262.017 1224.83 262.071C1230.61 262.071 1234.97 269.459 1241.03 267.565C1244.63 266.523 1248.14 265.197 1251.64 263.871L1257.71 261.503C1261.12 259.987 1257.05 255.819 1255.43 253.925C1254.01 252.501 1252.97 250.734 1252.42 248.793C1251.87 246.851 1251.83 244.802 1252.31 242.842C1253.36 238.656 1255.82 234.956 1259.26 232.355C1262.71 229.754 1266.94 228.407 1271.26 228.538C1270.77 226.081 1270.85 223.546 1271.47 221.12C1272.09 218.694 1273.25 216.439 1274.86 214.519C1276.62 212.58 1278.94 211.225 1281.49 210.635C1283.86 210.635 1287.56 211.867 1289.36 209.783C1289.97 208.976 1290.71 208.273 1291.54 207.699C1295.99 205.331 1301.01 210.446 1302.15 214.708C1302.81 217.287 1302.81 219.992 1302.15 222.571C1301.64 224.288 1301.67 226.124 1302.25 227.822C1302.82 229.52 1303.92 230.995 1305.37 232.043C1307.65 226.17 1301.77 217.077 1307.84 212.53C1308.8 211.621 1310.02 211.04 1311.33 210.87C1312.64 210.7 1313.97 210.949 1315.13 211.583C1319.3 213.193 1321.01 207.225 1323.76 205.236C1324.67 204.397 1325.78 203.793 1326.99 203.477C1328.19 203.161 1329.45 203.142 1330.66 203.421C1331.88 203.701 1333 204.271 1333.94 205.082C1334.89 205.893 1335.62 206.921 1336.08 208.078C1337.13 211.848 1338.82 215.406 1341.1 218.592C1344.06 221.246 1347.22 223.654 1350.57 225.791C1351.52 226.454 1357.3 232.706 1357.4 232.706C1363.37 229.296 1362.89 223.234 1362.23 217.74C1361.57 212.246 1359.29 202.678 1365.45 198.795C1366.56 198.214 1367.8 197.921 1369.05 197.942C1373.79 197.942 1373.7 190.459 1372.84 187.617C1371.87 185.35 1371.55 182.859 1371.9 180.418C1372.85 177.679 1374.82 175.409 1377.39 174.071C1378.53 173.503 1379.76 173.03 1380.8 172.366C1380.79 169.55 1380.63 166.736 1380.33 163.936Z" fill="#B85F17"/>
</g>
<path d="M1244.16 131.445C1240.37 125.478 1234.68 132.961 1232.41 136.276C1231.07 137.628 1230.07 139.276 1229.5 141.088C1228.92 142.899 1228.78 144.821 1229.09 146.696C1230.51 151.148 1236.48 150.485 1239.33 148.117C1242.17 145.749 1241.32 141.581 1237.81 142.717C1237.09 142.853 1236.35 142.853 1235.63 142.717C1236.02 141.184 1236.69 139.737 1237.62 138.455L1239.33 135.708L1240.46 134.382H1240.94C1242.55 136.466 1245.39 133.34 1244.16 131.445Z" fill="#B85F17"/>
<g style="mix-blend-mode:multiply" opacity="0.5">
<path d="M1248.33 96.3024C1245.48 97.818 1243.21 100.565 1239.99 101.418C1236.77 102.27 1234.49 101.418 1231.74 102.365C1230.37 102.682 1229.17 103.497 1228.36 104.652C1227.56 105.807 1227.21 107.22 1227.39 108.617C1226.45 109.029 1225.56 109.537 1224.73 110.132C1222.72 111.491 1220.93 113.153 1219.43 115.058C1219.09 115.387 1218.85 115.795 1218.72 116.243C1218.59 116.692 1218.58 117.166 1218.68 117.621C1218.79 118.076 1219.01 118.497 1219.32 118.844C1219.63 119.191 1220.03 119.453 1220.47 119.605C1219.14 125.762 1215.45 126.993 1210.14 129.835C1208.17 130.984 1206.49 132.559 1205.21 134.444C1203.93 136.329 1203.09 138.476 1202.75 140.728C1202.18 146.507 1198.96 153.327 1202.75 158.631C1203.03 159.024 1203.43 159.323 1203.88 159.491C1204.34 159.66 1204.83 159.69 1205.31 159.579C1211.28 158.726 1214.78 151.527 1217.91 147.075C1223.12 139.876 1231.74 144.139 1238.19 139.592C1240.44 137.803 1242.18 135.449 1243.23 132.771C1244.28 130.092 1244.6 127.184 1244.16 124.341C1244.16 114.869 1252.4 112.69 1257.8 107.006C1265.01 98.9547 1257.99 90.9978 1248.33 96.3024Z" fill="#B85F17"/>
</g>
<g style="mix-blend-mode:multiply" opacity="0.5">
<path d="M1289.17 127.751C1289.22 123.5 1288.31 119.291 1286.52 115.437C1285.87 114.267 1284.9 113.307 1283.73 112.669C1282.55 112.031 1281.22 111.742 1279.88 111.837C1275.26 112.006 1270.71 113.102 1266.52 115.058C1264.25 116.858 1261.59 119.699 1262.83 123.015C1264.06 126.33 1260.55 130.024 1258.56 133.813C1257.23 134.778 1256.15 136.046 1255.41 137.513C1254.67 138.979 1254.29 140.601 1254.3 142.244C1254.77 144.794 1254.33 147.428 1253.04 149.682C1251.76 151.935 1249.72 153.663 1247.29 154.558C1246.15 155.087 1245.13 155.837 1244.28 156.764C1243.43 157.69 1242.78 158.776 1242.36 159.957C1242.24 160.973 1242.39 162.002 1242.81 162.937C1243.22 163.872 1243.88 164.677 1244.71 165.269C1245.55 165.86 1246.53 166.216 1247.55 166.298C1248.57 166.38 1249.59 166.186 1250.51 165.736C1257.52 162.42 1258.75 154.748 1264.15 150.106C1267.88 147.993 1271.9 146.46 1276.09 145.559C1279.92 144.204 1283.24 141.687 1285.57 138.36C1287.89 135.306 1289.15 131.584 1289.17 127.751Z" fill="#B85F17"/>
</g>
<g style="mix-blend-mode:multiply" opacity="0.5">
<path d="M1228.43 154.179C1225.58 151.337 1221.7 153.706 1218.95 156.358C1218.02 156.349 1217.11 156.653 1216.38 157.219C1215.64 157.786 1215.11 158.583 1214.88 159.484C1214.88 160.336 1214.88 162.61 1214.12 163.178C1213.36 163.746 1212.41 163.936 1212.03 164.22C1210.8 164.648 1209.72 165.42 1208.91 166.444C1208.11 167.468 1207.61 168.701 1207.49 169.998C1207.49 175.113 1214.02 173.029 1216.96 172.366C1218.75 171.704 1220.66 171.445 1222.55 171.609C1223.66 171.946 1224.84 171.955 1225.95 171.636C1227.06 171.316 1228.05 170.681 1228.81 169.809C1230.5 167.535 1231.38 164.761 1231.31 161.929C1231.24 159.096 1230.23 156.368 1228.43 154.179Z" fill="#B85F17"/>
</g>
<g style="mix-blend-mode:multiply" opacity="0.5">
<path d="M1332.85 109.848C1332.33 109.66 1331.76 109.66 1331.24 109.848C1330.83 109.602 1330.38 109.411 1329.92 109.28C1328.14 108.231 1326.06 107.793 1324.01 108.032C1321.95 108.272 1320.04 109.175 1318.55 110.606C1316.35 113.736 1315.22 117.489 1315.32 121.31C1314.96 123.042 1315.29 124.85 1316.25 126.339C1317.2 127.829 1318.71 128.881 1320.44 129.267C1324.23 129.93 1327.74 126.141 1329.92 124.057C1331 123.514 1332.15 123.1 1333.33 122.825C1334.35 122.457 1335.28 121.867 1336.05 121.097C1336.82 120.328 1337.41 119.397 1337.78 118.373C1338.08 117.491 1338.19 116.554 1338.1 115.625C1338.01 114.697 1337.72 113.799 1337.26 112.992C1336.79 112.184 1336.15 111.486 1335.4 110.943C1334.64 110.401 1333.77 110.028 1332.85 109.848Z" fill="#B85F17"/>
</g>
<g style="mix-blend-mode:multiply" opacity="0.5">
<path d="M1303.1 96.3022H1301.96C1301.03 96.3114 1300.13 96.6485 1299.42 97.2546C1298.71 97.8607 1298.23 98.6972 1298.08 99.6176C1297.77 100.175 1297.58 100.786 1297.51 101.417C1297.37 101.848 1297.36 102.309 1297.48 102.746C1297.6 103.182 1297.84 103.576 1298.17 103.88C1298.81 104.274 1299.55 104.482 1300.3 104.482C1301.06 104.482 1301.79 104.274 1302.44 103.88C1303.3 103.372 1304.02 102.654 1304.54 101.793C1305.05 100.932 1305.34 99.9561 1305.37 98.9545C1305.4 98.3066 1305.18 97.6722 1304.76 97.1798C1304.34 96.6874 1303.74 96.3737 1303.1 96.3022Z" fill="#B85F17"/>
</g>
<g style="mix-blend-mode:multiply" opacity="0.5">
<path d="M1315.23 257.524C1311.63 254.872 1306.89 257.524 1303.1 255.345C1301.75 254.37 1300.17 253.746 1298.52 253.531C1296.86 253.316 1295.18 253.516 1293.62 254.114C1290.12 255.63 1289.45 260.082 1289.07 263.586C1288.7 267.091 1285.85 268.512 1284.24 270.975H1283.2C1279.12 270.975 1277.32 279.027 1282.25 279.216C1282.91 279.316 1283.58 279.316 1284.24 279.216C1288.7 279.216 1292.3 279.216 1295.8 276.09C1296.83 275.021 1297.78 273.881 1298.65 272.68C1300.14 272.443 1301.54 271.823 1302.72 270.88C1304.33 270.88 1306.23 270.88 1306.89 270.88C1312.95 270.596 1322.62 262.923 1315.23 257.524Z" fill="#B85F17"/>
</g>
<g style="mix-blend-mode:multiply" opacity="0.5">
<path d="M1348.21 234.885C1347.07 232.896 1344.6 233.464 1343.09 234.411L1342.05 235.264C1341.35 234.147 1340.59 233.071 1339.77 232.043C1339.44 231.705 1339.04 231.437 1338.6 231.254C1338.16 231.071 1337.69 230.977 1337.21 230.977C1336.74 230.977 1336.27 231.071 1335.83 231.254C1335.39 231.437 1334.99 231.705 1334.65 232.043C1329.63 235.359 1329.54 241.516 1326.88 246.631C1326.04 247.826 1325.47 249.191 1325.2 250.631C1324.94 252.071 1325 253.551 1325.37 254.967C1325.85 256.201 1326.72 257.246 1327.85 257.945C1328.98 258.645 1330.3 258.963 1331.62 258.85C1332.96 258.783 1334.27 258.447 1335.48 257.861C1336.68 257.275 1337.76 256.451 1338.63 255.44C1341 252.883 1342.24 250.609 1345.65 249.188C1351.62 246.536 1350.57 239.242 1348.21 234.885Z" fill="#B85F17"/>
</g>
<g style="mix-blend-mode:multiply" opacity="0.5">
<path d="M1278.56 236.401C1275.43 235.832 1272.68 238.958 1271.16 241.705L1269.93 242.747C1268.52 244.426 1267.42 246.353 1266.71 248.431C1265.61 248.981 1264.59 249.682 1263.68 250.515C1262.64 251.367 1261.69 253.641 1263.68 254.588C1267.09 256.861 1270.41 254.588 1273.15 252.788C1274.79 251.878 1276.5 251.117 1278.27 250.515C1280.23 249.316 1281.83 247.615 1282.92 245.589C1283.5 244.741 1283.85 243.754 1283.94 242.726C1284.02 241.699 1283.83 240.669 1283.39 239.738C1282.95 238.807 1282.27 238.008 1281.42 237.422C1280.57 236.837 1279.58 236.484 1278.56 236.401Z" fill="#B85F17"/>
</g>
<g style="mix-blend-mode:multiply" opacity="0.5">
<path d="M1263.39 273.343C1263.49 273.029 1263.47 272.69 1263.33 272.392C1263.19 272.094 1262.94 271.86 1262.64 271.733C1262.43 271.616 1262.21 271.555 1261.97 271.555C1261.74 271.555 1261.51 271.616 1261.31 271.733L1259.89 272.301H1258.94C1258.44 272.378 1257.97 272.579 1257.57 272.885C1257.16 273.192 1256.84 273.594 1256.64 274.055C1256.43 274.517 1256.34 275.023 1256.38 275.527C1256.42 276.031 1256.58 276.518 1256.86 276.943C1257.05 277.149 1257.29 277.314 1257.55 277.426C1257.81 277.538 1258.09 277.596 1258.37 277.596C1258.66 277.596 1258.94 277.538 1259.2 277.426C1259.46 277.314 1259.69 277.149 1259.89 276.943H1260.65L1262.54 275.901C1262.88 275.574 1263.13 275.171 1263.28 274.726C1263.43 274.281 1263.47 273.807 1263.39 273.343Z" fill="#B85F17"/>
</g>
<g style="mix-blend-mode:multiply" opacity="0.5">
<path d="M1271.83 160.999C1271.58 160.586 1271.26 160.229 1270.86 159.952C1270.47 159.674 1270.03 159.482 1269.55 159.389C1268.57 159.276 1267.58 159.417 1266.66 159.799C1265.75 160.18 1264.95 160.789 1264.34 161.568C1263.75 162.3 1263.24 163.094 1262.83 163.936C1261.83 164.71 1261.02 165.701 1260.46 166.833C1259.9 167.966 1259.61 169.21 1259.6 170.472C1259.6 170.756 1259.66 171.038 1259.77 171.296C1259.89 171.555 1260.07 171.784 1260.29 171.966C1260.5 172.148 1260.76 172.278 1261.04 172.347C1261.31 172.417 1261.6 172.423 1261.88 172.366C1262.87 172.146 1263.82 171.796 1264.72 171.324C1265.74 171.369 1266.75 171.169 1267.68 170.74C1268.6 170.312 1269.41 169.667 1270.03 168.862C1271.55 167.54 1272.64 165.791 1273.15 163.841C1273.32 163.287 1273.27 162.693 1273.03 162.169C1272.79 161.646 1272.36 161.23 1271.83 160.999Z" fill="#B85F17"/>
</g>
<g style="mix-blend-mode:multiply" opacity="0.5">
<path d="M1218 183.26C1218.43 182.098 1218.43 180.822 1218 179.66C1217.88 179.458 1217.72 179.286 1217.52 179.155C1217.32 179.024 1217.1 178.938 1216.87 178.902C1216.75 178.746 1216.6 178.618 1216.43 178.531C1216.26 178.443 1216.07 178.397 1215.87 178.397C1215.68 178.397 1215.49 178.443 1215.31 178.531C1215.14 178.618 1214.99 178.746 1214.88 178.902C1214.27 179.086 1213.7 179.389 1213.2 179.794C1212.71 180.199 1212.3 180.698 1212 181.262C1211.7 181.826 1211.52 182.443 1211.46 183.079C1211.4 183.714 1211.47 184.355 1211.66 184.965C1211.61 185.247 1211.61 185.535 1211.66 185.817C1211.66 187.143 1212.79 187.712 1213.93 187.617C1214.64 187.598 1215.34 187.367 1215.92 186.954C1216.53 186.543 1217.04 185.994 1217.4 185.353C1217.76 184.712 1217.97 183.995 1218 183.26Z" fill="#B85F17"/>
</g>
<g style="mix-blend-mode:multiply" opacity="0.5">
<path d="M1226.15 158.252C1226.11 158 1225.99 157.77 1225.8 157.598C1225.61 157.426 1225.37 157.323 1225.11 157.305C1223.96 157.087 1222.77 157.257 1221.72 157.788C1220.67 158.32 1219.83 159.182 1219.33 160.242C1219 160.828 1218.77 161.47 1218.67 162.136C1217.57 162.69 1216.58 163.427 1215.73 164.315C1214.4 165.925 1213.83 169.335 1216.68 169.904C1219.01 170.209 1221.38 169.635 1223.31 168.293C1224.44 167.549 1225.39 166.572 1226.11 165.429C1226.83 164.285 1227.3 163.001 1227.48 161.663C1227.5 160.396 1227.03 159.171 1226.15 158.252Z" fill="#B85F17"/>
</g>
<g style="mix-blend-mode:multiply" opacity="0.5">
<path d="M1279.41 120.363C1278.76 119.743 1277.89 119.397 1276.99 119.397C1276.09 119.397 1275.23 119.743 1274.58 120.363C1273.75 120.41 1272.94 120.648 1272.21 121.059C1271.49 121.469 1270.87 122.042 1270.41 122.731C1269.41 123.948 1268.78 125.428 1268.61 126.993C1268.61 128.13 1268.61 128.509 1268.61 129.172C1268.61 129.835 1267 130.309 1266.33 130.972C1263.68 133.15 1261.31 137.318 1264.06 140.444C1266.81 143.57 1270.41 140.444 1272.21 138.266C1272.93 136.871 1273.85 135.594 1274.96 134.477C1276.43 133.483 1277.82 132.375 1279.12 131.161C1280.54 129.738 1281.36 127.826 1281.42 125.818C1281.47 123.81 1280.75 121.858 1279.41 120.363Z" fill="#B85F17"/>
</g>
<g style="mix-blend-mode:multiply" opacity="0.5">
<path d="M1233.92 122.825C1233.79 122.312 1233.56 121.831 1233.24 121.409C1232.92 120.987 1232.52 120.634 1232.06 120.369C1231.6 120.104 1231.09 119.934 1230.57 119.868C1230.04 119.801 1229.51 119.841 1229 119.984C1228.92 119.885 1228.82 119.805 1228.7 119.75C1228.59 119.695 1228.46 119.667 1228.33 119.667C1228.21 119.667 1228.08 119.695 1227.97 119.75C1227.85 119.805 1227.75 119.885 1227.67 119.984C1226.92 120.597 1226.28 121.334 1225.77 122.162C1225.36 122.654 1225.01 123.195 1224.73 123.773C1223.89 125.352 1222.77 126.765 1221.42 127.941C1220.43 128.253 1219.48 128.666 1218.57 129.172C1214.97 130.025 1211.56 130.593 1209.67 134.192C1207.77 137.792 1207.39 140.539 1210.42 141.96C1213.46 143.381 1216.11 141.013 1218.19 138.644C1220.28 136.276 1223.97 137.887 1225.68 137.508C1227.8 136.87 1229.65 135.576 1230.99 133.814C1232.38 132.391 1233.39 130.631 1233.9 128.706C1234.42 126.78 1234.42 124.755 1233.92 122.825Z" fill="#B85F17"/>
</g>
<g style="mix-blend-mode:multiply" opacity="0.5">
<path d="M1326.98 114.395C1324.8 112.974 1322.24 115.531 1322.81 117.9C1322.76 118.182 1322.76 118.47 1322.81 118.752C1323.57 120.741 1326.03 119.984 1326.98 118.752C1327.93 117.521 1328.5 115.342 1326.98 114.395Z" fill="#B85F17"/>
</g>
<g style="mix-blend-mode:multiply" opacity="0.5">
<path d="M1314.38 136.56C1314.31 136.299 1314.14 136.074 1313.91 135.933C1313.68 135.792 1313.41 135.745 1313.14 135.803C1311.53 135.803 1309.45 137.602 1310.21 139.592C1310.96 141.581 1314.28 140.349 1314.66 138.36C1314.77 138.06 1314.8 137.738 1314.75 137.424C1314.7 137.109 1314.57 136.812 1314.38 136.56Z" fill="#B85F17"/>
</g>
<g style="mix-blend-mode:multiply" opacity="0.5">
<path d="M1300.45 258.945C1299.82 258.291 1298.98 257.876 1298.08 257.772C1297.19 257.669 1296.28 257.882 1295.52 258.377C1292.77 260.082 1294.67 263.208 1292.58 265.197C1290.5 267.186 1287.37 269.175 1288.51 271.733C1289.64 274.29 1292.96 272.585 1294.57 270.975C1296.56 268.856 1299.26 267.541 1302.15 267.281C1304.52 267.281 1308.22 265.197 1307.93 262.166C1307.65 259.134 1303.86 258.092 1300.45 258.945Z" fill="#B85F17"/>
</g>
<g style="mix-blend-mode:multiply" opacity="0.5">
<path d="M1343.09 242.463C1343.02 241.803 1342.82 241.165 1342.49 240.591C1342.16 240.017 1341.71 239.521 1341.17 239.135C1340.63 238.749 1340.02 238.483 1339.37 238.354C1338.72 238.226 1338.05 238.238 1337.4 238.39H1336.64C1336.28 238.267 1335.88 238.267 1335.51 238.39C1333.61 238.39 1332.19 240.379 1331.72 241.989C1331.53 243.15 1331.53 244.333 1331.72 245.494C1331.65 245.964 1331.49 246.417 1331.25 246.824C1331.01 247.231 1330.68 247.584 1330.3 247.862C1329.56 248.588 1329.02 249.494 1328.74 250.491C1328.45 251.487 1328.44 252.54 1328.68 253.546C1328.68 255.061 1330.58 255.251 1331.91 254.777C1333.19 254.187 1334.35 253.351 1335.32 252.314C1336.27 251.367 1336.64 249.851 1337.69 248.904C1338.73 247.957 1343.56 245.968 1343.09 242.463Z" fill="#B85F17"/>
</g>
<g style="mix-blend-mode:multiply" opacity="0.5">
<path d="M1280.17 241.61C1279.73 241.203 1279.18 240.939 1278.58 240.854C1277.99 240.77 1277.39 240.868 1276.85 241.137C1276.44 241.095 1276.03 241.194 1275.69 241.418C1275.34 241.642 1275.08 241.977 1274.96 242.368C1274.2 244.547 1271.92 245.968 1270.88 248.146C1270.59 248.489 1270.43 248.926 1270.43 249.378C1270.43 249.829 1270.59 250.266 1270.88 250.609C1271.58 251.179 1272.45 251.49 1273.34 251.49C1274.24 251.49 1275.11 251.179 1275.81 250.609C1276.48 250.091 1277.12 249.521 1277.7 248.904L1278.46 248.052C1278.46 248.052 1279.31 247.01 1278.46 247.578C1280.64 246.062 1282.16 243.505 1280.17 241.61Z" fill="#B85F17"/>
</g>
<path d="M1298.93 238.011C1298.53 237.69 1298.02 237.522 1297.51 237.537C1296.95 236.984 1296.21 236.648 1295.42 236.59C1293.53 236.775 1291.77 237.649 1290.48 239.046C1289.18 240.443 1288.45 242.265 1288.41 244.168C1288.27 244.598 1288.27 245.064 1288.41 245.494C1288.55 246.021 1288.86 246.489 1289.28 246.83C1289.71 247.171 1290.23 247.367 1290.78 247.388C1294.86 249.378 1302.91 241.231 1298.93 238.011Z" fill="#B85F17"/>
<g style="mix-blend-mode:overlay">
<path d="M1218 109.848C1218 109.848 1154.23 163.178 1194.22 234.032C1194.22 234.032 1163.52 165.546 1218 109.848Z" fill="white"/>
</g>
<g style="mix-blend-mode:multiply" opacity="0.7">
<path d="M1369.72 141.77C1369.72 141.77 1392.46 213.382 1350.76 258.85C1350.38 258.85 1401.75 220.581 1369.72 141.77Z" fill="#B6691F"/>
</g>
<path style="mix-blend-mode:multiply" d="M1382.79 187.617C1382.87 207.793 1376.95 227.537 1365.78 244.342C1354.61 261.148 1338.7 274.258 1320.06 282.01C1301.43 289.761 1280.91 291.804 1261.11 287.879C1241.31 283.954 1223.13 274.239 1208.86 259.966C1194.6 245.692 1184.89 227.504 1180.99 207.71C1177.08 187.916 1179.14 167.407 1186.91 148.786C1194.68 130.166 1207.81 114.273 1224.64 103.124C1241.46 91.9752 1261.22 86.0732 1281.4 86.1669C1308.29 86.217 1334.07 96.9246 1353.07 115.942C1372.08 134.96 1382.77 160.735 1382.79 187.617Z" fill="url(#paint0_radial_111_152)"/>
<path d="M1218 109.848C1218 109.848 1154.23 163.178 1194.22 234.032C1194.22 234.032 1163.52 165.546 1218 109.848Z" fill="white"/>
<g style="mix-blend-mode:multiply">
<path d="M1369.72 141.77C1369.72 141.77 1392.46 213.382 1350.76 258.85C1350.38 258.85 1401.75 220.581 1369.72 141.77Z" fill="#94703E"/>
</g>
<path style="mix-blend-mode:screen" d="M1208.53 235.737C1211.98 234.386 1214.88 231.938 1216.8 228.771C1218.72 225.604 1219.54 221.894 1219.14 218.213C1217.91 206.941 1210.42 196.995 1211.28 185.344C1211.62 181.855 1212.89 178.521 1214.95 175.688C1217.02 172.856 1219.81 170.63 1223.03 169.241C1230.55 166.899 1238.36 165.593 1246.24 165.357C1249.46 165.346 1252.63 164.535 1255.46 162.997C1258.29 161.46 1260.69 159.243 1262.45 156.547C1264.01 152.836 1265.98 149.309 1268.32 146.033C1271.49 142.64 1275.76 140.475 1280.37 139.92C1284.98 139.366 1289.64 140.457 1293.53 143.002C1297.89 145.559 1302.25 152.474 1307.36 152.474C1316.84 153.8 1316.84 145.275 1319.11 139.118C1319.11 139.118 1319.97 138.076 1320.54 138.36C1325.94 140.918 1329.16 147.833 1334.75 149.632C1342.33 152.095 1343.56 136.371 1342.61 132.203C1341.67 128.035 1339.2 122.731 1337.59 117.615C1335.98 112.5 1333.23 107.006 1335.89 102.459C1316.5 89.3533 1293.11 83.5177 1269.84 85.9837C1246.57 88.4497 1224.92 99.0586 1208.72 115.936C1192.51 132.813 1182.8 154.872 1181.29 178.216C1179.78 201.559 1186.58 224.684 1200.47 243.505C1202.08 239.995 1204.96 237.221 1208.53 235.737Z" fill="url(#paint1_radial_111_152)"/>
<mask id="mask0_111_152" style="mask-type:luminance" maskUnits="userSpaceOnUse" x="982" y="1788" width="162" height="112">
<path d="M982.24 1834.88C988.913 1854.37 1001.25 1871.42 1017.68 1883.86C1033.02 1894.45 1051.25 1900.07 1069.89 1899.96C1067.33 1899.56 1064.9 1898.54 1062.82 1896.99C1060.74 1895.44 1059.07 1893.4 1057.95 1891.06C1086.36 1898.28 1116.37 1895.85 1143.24 1884.14C1143.24 1884.14 1121.92 1836.78 1097.85 1827.31C1099.92 1826.63 1102.1 1826.38 1104.27 1826.58C1106.43 1826.77 1108.54 1827.41 1110.45 1828.44C1104.78 1818.86 1097.14 1810.58 1088.05 1804.15C1078.95 1797.72 1068.6 1793.28 1057.67 1791.12C1021.19 1784.58 1010.29 1793.77 1010.29 1793.77L982.24 1834.88Z" fill="white"/>
</mask>
<g mask="url(#mask0_111_152)">
<path d="M982.24 1834.88C988.913 1854.37 1001.25 1871.42 1017.68 1883.86C1033.02 1894.45 1051.25 1900.07 1069.89 1899.96C1067.33 1899.56 1064.9 1898.54 1062.82 1896.99C1060.74 1895.44 1059.07 1893.4 1057.95 1891.06C1086.36 1898.28 1116.37 1895.85 1143.24 1884.14C1143.24 1884.14 1121.92 1836.78 1097.85 1827.31C1099.92 1826.63 1102.1 1826.38 1104.27 1826.58C1106.43 1826.77 1108.54 1827.41 1110.45 1828.44C1104.78 1818.86 1097.14 1810.58 1088.05 1804.15C1078.95 1797.72 1068.6 1793.28 1057.67 1791.12C1021.19 1784.58 1010.29 1793.77 1010.29 1793.77L982.24 1834.88Z" fill="#EA5848"/>
<g opacity="0.15">
<path d="M977.597 1798.13C977.597 1798.13 987.926 1850.61 1059.94 1865.01C1131.96 1879.4 1168.35 1864.06 1168.35 1864.06C1168.35 1864.06 1143.05 1918.9 1048.67 1905.74C954.286 1892.57 977.597 1798.13 977.597 1798.13Z" fill="black"/>
</g>
</g>
<path d="M899.514 1808.55C899.514 1808.55 924.91 1844.64 925.289 1868.23C925.289 1868.23 977.881 1891.24 993.138 1910C993.891 1883.6 988.165 1857.42 976.46 1833.75L899.514 1808.55Z" fill="#DAB266"/>
<path d="M933.912 1733.24C933.912 1733.24 981.293 1731.82 1001.38 1718.37C1001.38 1718.37 1033.6 1747.36 1057.29 1753.61C1039.45 1769.23 1018.58 1781 995.981 1788.18L933.912 1733.24Z" fill="#FCCC74"/>
<mask id="mask1_111_152" style="mask-type:luminance" maskUnits="userSpaceOnUse" x="715" y="1646" width="300" height="198">
<path d="M715.679 1672.9C718.34 1695.99 725.83 1718.26 737.663 1738.26C755.932 1764.92 782.63 1784.67 813.472 1794.34C847.775 1805.8 890.891 1815.37 928.701 1824.65C948.553 1828.91 967.897 1835.26 986.41 1843.6C995.844 1835.75 1003.61 1826.08 1009.25 1815.18C1012.86 1808.23 1014.62 1800.46 1014.36 1792.64C980.411 1771.73 949.24 1746.62 921.594 1717.9C873.929 1669.11 824.559 1611.62 715.679 1672.9Z" fill="white"/>
</mask>
<g mask="url(#mask1_111_152)">
<path d="M715.679 1672.9C718.34 1695.99 725.83 1718.26 737.663 1738.26C755.932 1764.92 782.63 1784.67 813.472 1794.34C847.775 1805.8 890.891 1815.37 928.701 1824.65C948.553 1828.91 967.897 1835.26 986.41 1843.6C995.844 1835.75 1003.61 1826.08 1009.25 1815.18C1012.86 1808.23 1014.62 1800.46 1014.36 1792.64C980.411 1771.73 949.24 1746.62 921.594 1717.9C873.929 1669.11 824.559 1611.62 715.679 1672.9Z" fill="#E8E8E8"/>
<path d="M754.151 1764.22C770.61 1750.82 784.538 1734.59 795.278 1716.29C808.015 1693.79 814.371 1668.24 813.661 1642.4L829.581 1647.42C831.824 1669.41 828.836 1691.61 820.863 1712.21C810.648 1738.05 793.579 1760.62 771.493 1777.48L754.151 1764.22Z" fill="#EA5848"/>
<path d="M864.358 1815.18C881.156 1804.75 895.898 1791.33 907.853 1775.59C920.401 1757.72 926.423 1736.08 924.91 1714.3L933.06 1721.4C933.672 1739.59 928.82 1757.53 919.13 1772.93C907.317 1791.12 891.581 1806.43 873.076 1817.74L864.358 1815.18Z" fill="#EA5848"/>
<g opacity="0.15">
<path d="M703.075 1652.54L715.679 1672.9C727.49 1698.37 744.784 1720.92 766.326 1738.93C787.867 1756.95 813.123 1769.98 840.289 1777.1C935.05 1803.25 1013.61 1814.99 1044.69 1833.94L996.455 1882.25C957.783 1851.16 911.601 1830.81 862.558 1823.23C782.106 1811.58 695.684 1768.58 703.075 1652.54Z" fill="black"/>
</g>
</g>
<path d="M818.684 1746.51C818.684 1746.51 839.91 1716.29 841.047 1704.92L909.749 1750.96C906.482 1761.28 901.343 1770.91 894.587 1779.37L818.684 1746.51Z" fill="#0EB2C2"/>
<mask id="mask2_111_152" style="mask-type:luminance" maskUnits="userSpaceOnUse" x="825" y="1712" width="79" height="61">
<path d="M825.98 1744.42C833.904 1735.24 839.726 1724.45 843.037 1712.78L903.589 1750.67C902.504 1759.13 898.598 1766.97 892.502 1772.93L825.98 1744.42Z" fill="white"/>
</mask>
<g mask="url(#mask2_111_152)">
<path d="M825.98 1744.42C833.904 1735.24 839.726 1724.45 843.037 1712.78L903.589 1750.67C902.504 1759.13 898.598 1766.97 892.502 1772.93L825.98 1744.42Z" fill="#FCCC74"/>
<g opacity="0.5">
<path d="M823.99 1754.75L875.635 1716.1L881.226 1719.41L828.823 1758.06L823.99 1754.75Z" fill="white"/>
</g>
<g opacity="0.5">
<path d="M833.656 1759.2L885.3 1720.55L890.986 1723.87L838.583 1762.42L833.656 1759.2Z" fill="white"/>
</g>
<g opacity="0.5">
<path d="M860.189 1776.44L911.833 1737.79L917.424 1741.11L865.021 1779.75L860.189 1776.44Z" fill="white"/>
</g>
<g opacity="0.15">
<path d="M821.905 1733.43C827.978 1739.57 836.044 1743.33 844.648 1744.04C859.431 1745.46 862.084 1751.15 871.465 1757.59C880.847 1764.03 909.369 1765.83 909.369 1765.83L893.45 1783.07L811.482 1750.29L821.905 1733.43Z" fill="black"/>
</g>
</g>
<mask id="mask3_111_152" style="mask-type:luminance" maskUnits="userSpaceOnUse" x="923" y="1770" width="156" height="80">
<path d="M923.11 1778.05C928.843 1784.87 932.173 1793.39 932.586 1802.3L1078.52 1849.66L949.927 1770.94C941.998 1776.16 932.584 1778.66 923.11 1778.05Z" fill="white"/>
</mask>
<g mask="url(#mask3_111_152)">
<path d="M923.11 1778.05C928.843 1784.87 932.173 1793.39 932.586 1802.3L1078.52 1849.66L949.927 1770.94C941.998 1776.16 932.584 1778.66 923.11 1778.05Z" fill="#FCCC74"/>
<g opacity="0.15">
<path d="M919.888 1776.06L1085.91 1853.26L922.162 1806.94L919.888 1776.06Z" fill="black"/>
</g>
</g>
<g opacity="0.5">
<path d="M738.421 1669.87C738.421 1669.87 808.544 1642.88 873.266 1683.61C873.171 1683.32 822.284 1625.16 738.421 1669.87Z" fill="white"/>
</g>
<path d="M960.256 1736.75C974.894 1734.99 989.141 1730.83 1002.42 1724.43C1003.37 1724.43 1002.42 1722.63 1001.67 1723.11C988.481 1729.35 974.367 1733.42 959.877 1735.14C958.834 1735.14 959.214 1736.84 959.877 1736.75H960.256Z" fill="#161B32"/>
<path d="M915.529 1827.78C921.681 1838.17 925.887 1849.6 927.942 1861.5C927.942 1862.54 929.648 1862.16 929.459 1861.5C927.43 1849.49 923.257 1837.94 917.14 1827.4C917.14 1826.45 915.245 1827.4 915.718 1828.16L915.529 1827.78Z" fill="#161B32"/>
<path d="M930.027 1782.6C943.009 1787.43 954.665 1795.1 967.932 1799.65C968.879 1799.65 969.353 1798.41 967.932 1798.13C954.949 1793.58 943.294 1785.91 930.027 1781.08C929.08 1781.08 928.606 1782.31 930.027 1782.6Z" fill="#161B32"/>
<path d="M972.67 1801.45C977.85 1804.59 983.305 1807.25 988.968 1809.4C989.821 1809.88 990.674 1808.45 989.726 1808.08C984.1 1805.87 978.677 1803.18 973.522 1800.02C972.575 1799.46 971.817 1800.88 972.67 1801.45Z" fill="#161B32"/>
<path d="M993.517 1843.5C998.324 1853.53 1004.72 1862.71 1012.47 1870.69C1012.62 1870.84 1012.82 1870.92 1013.04 1870.92C1013.25 1870.92 1013.46 1870.84 1013.61 1870.69C1013.76 1870.54 1013.84 1870.33 1013.84 1870.12C1013.84 1869.91 1013.76 1869.7 1013.61 1869.55C1005.83 1861.74 999.429 1852.68 994.654 1842.75C994.524 1842.63 994.36 1842.55 994.184 1842.53C994.008 1842.5 993.83 1842.54 993.674 1842.62C993.518 1842.7 993.391 1842.83 993.312 1842.99C993.233 1843.15 993.205 1843.33 993.233 1843.5H993.517Z" fill="#161B32"/>
<path d="M1017.3 1874.48C1019.29 1876.29 1021.53 1877.82 1023.94 1879.03C1024.88 1879.03 1025.74 1878.08 1024.79 1877.6C1022.48 1876.5 1020.34 1875.06 1018.44 1873.34C1017.78 1872.68 1016.54 1873.34 1017.3 1874.48Z" fill="#161B32"/>
<path d="M1086.86 1889.26C1094.52 1888.96 1102.15 1888.13 1109.69 1886.79C1109.89 1886.79 1110.09 1886.71 1110.23 1886.57C1110.37 1886.43 1110.45 1886.24 1110.45 1886.03C1110.45 1885.83 1110.37 1885.64 1110.23 1885.5C1110.09 1885.36 1109.89 1885.28 1109.69 1885.28C1102.3 1886.54 1094.83 1887.33 1087.33 1887.64C1086.29 1887.64 1086.19 1889.26 1087.33 1889.26H1086.86Z" fill="#161B32"/>
<path d="M1115.09 1886.22C1116.41 1886.15 1117.71 1885.93 1118.98 1885.56C1119.18 1885.56 1119.37 1885.48 1119.52 1885.34C1119.66 1885.2 1119.74 1885 1119.74 1884.8C1119.74 1884.6 1119.66 1884.41 1119.52 1884.27C1119.37 1884.13 1119.18 1884.05 1118.98 1884.05C1117.83 1884.33 1116.66 1884.52 1115.47 1884.61C1114.53 1884.61 1114.43 1886.32 1115.47 1886.22H1115.09Z" fill="#161B32"/>
<path d="M1060.61 1796.99C1067.38 1797.58 1073.9 1799.86 1079.56 1803.62C1079.74 1803.68 1079.94 1803.67 1080.12 1803.61C1080.3 1803.54 1080.45 1803.41 1080.54 1803.25C1080.64 1803.08 1080.68 1802.89 1080.66 1802.7C1080.64 1802.51 1080.55 1802.34 1080.41 1802.2C1074.46 1798.36 1067.66 1796.02 1060.61 1795.38C1060.44 1795.44 1060.3 1795.55 1060.19 1795.69C1060.09 1795.84 1060.03 1796.01 1060.03 1796.19C1060.03 1796.36 1060.09 1796.54 1060.19 1796.68C1060.3 1796.83 1060.44 1796.93 1060.61 1796.99Z" fill="#161B32"/>
<path d="M1083.63 1807.22C1084.87 1807.9 1086.01 1808.73 1087.05 1809.69C1087.71 1810.44 1088.94 1809.69 1088.18 1808.55C1087.06 1807.5 1085.82 1806.58 1084.49 1805.8C1084.3 1805.75 1084.11 1805.75 1083.93 1805.82C1083.75 1805.89 1083.6 1806.01 1083.5 1806.18C1083.4 1806.34 1083.36 1806.53 1083.39 1806.72C1083.41 1806.91 1083.5 1807.09 1083.63 1807.22Z" fill="#161B32"/>
<path d="M934.955 1739.31C940.676 1745.74 946.818 1751.78 953.338 1757.4C954.096 1758.06 955.328 1757.4 954.476 1756.26C947.985 1750.64 941.875 1744.6 936.187 1738.17C936.027 1738.05 935.831 1737.99 935.632 1738C935.434 1738.01 935.245 1738.09 935.099 1738.23C934.953 1738.36 934.858 1738.54 934.832 1738.74C934.806 1738.94 934.849 1739.14 934.955 1739.31Z" fill="#161B32"/>
<path d="M956.371 1760.52C957.793 1762.03 959.383 1763.36 961.109 1764.5C961.285 1764.62 961.498 1764.65 961.703 1764.61C961.907 1764.57 962.085 1764.44 962.198 1764.27C962.312 1764.09 962.35 1763.88 962.306 1763.67C962.261 1763.47 962.137 1763.29 961.962 1763.18C960.351 1762.07 958.858 1760.8 957.508 1759.39C956.75 1758.72 955.613 1759.39 956.371 1760.52Z" fill="#161B32"/>
<path d="M835.646 1659.74C844.29 1661.69 852.286 1665.83 858.862 1671.77C859.62 1672.52 860.852 1671.77 860.094 1670.72C853.307 1664.55 845.055 1660.21 836.119 1658.13C835.077 1658.13 834.603 1659.45 836.119 1659.74H835.646Z" fill="#161B32"/>
<path d="M865.021 1676.03L868.338 1679.44C869.096 1680.1 870.233 1679.44 869.475 1678.3L866.159 1674.89C865.495 1674.23 864.263 1674.89 865.021 1676.03Z" fill="#161B32"/>
<path d="M128.73 1208.85C128.73 1208.85 188.809 1489.42 476.786 1676.41" stroke="white" stroke-width="4" stroke-miterlimit="10"/>
<path d="M264.617 1365.33C264.673 1379.31 260.582 1392.99 252.861 1404.64C245.14 1416.29 234.136 1425.39 221.241 1430.79C208.345 1436.19 194.137 1437.65 180.414 1434.98C166.69 1432.31 154.067 1425.63 144.141 1415.78C134.215 1405.94 127.432 1393.38 124.649 1379.68C121.866 1365.98 123.209 1351.77 128.507 1338.84C133.806 1325.9 142.822 1314.83 154.416 1307.02C166.009 1299.21 179.66 1295.01 193.641 1294.95C202.932 1294.89 212.143 1296.66 220.745 1300.17C229.347 1303.68 237.171 1308.85 243.767 1315.39C250.362 1321.93 255.6 1329.71 259.178 1338.28C262.756 1346.85 264.605 1356.04 264.617 1365.33Z" fill="#5B5A5A"/>
<path d="M193.641 1436.28C179.604 1436.28 165.881 1432.12 154.209 1424.32C142.537 1416.53 133.44 1405.45 128.068 1392.48C122.696 1379.52 121.291 1365.25 124.029 1351.49C126.768 1337.73 133.528 1325.09 143.454 1315.16C153.38 1305.24 166.027 1298.48 179.795 1295.75C193.563 1293.01 207.833 1294.41 220.803 1299.78C233.772 1305.15 244.857 1314.25 252.656 1325.91C260.454 1337.58 264.617 1351.3 264.617 1365.33C264.567 1384.13 257.073 1402.15 243.774 1415.44C230.474 1428.74 212.45 1436.23 193.641 1436.28ZM193.641 1295.61C179.837 1295.67 166.359 1299.81 154.909 1307.52C143.46 1315.23 134.553 1326.16 129.313 1338.93C124.073 1351.7 122.736 1365.73 125.471 1379.25C128.205 1392.78 134.889 1405.19 144.676 1414.92C154.464 1424.66 166.917 1431.27 180.463 1433.93C194.009 1436.59 208.04 1435.18 220.783 1429.87C233.526 1424.56 244.41 1415.6 252.06 1404.11C259.71 1392.63 263.783 1379.13 263.764 1365.33C263.689 1346.8 256.265 1329.05 243.12 1315.98C229.975 1302.91 212.181 1295.59 193.641 1295.61Z" fill="#2B2C2C"/>
<g style="mix-blend-mode:multiply" opacity="0.6">
<g style="mix-blend-mode:overlay">
<path d="M239.032 1370.73C235.052 1372.72 230.977 1374.33 226.902 1376.04C225.291 1376.7 223.396 1377.17 221.596 1377.74C222.733 1376.32 223.68 1374.8 224.249 1373.95C228.039 1368.65 233.725 1364.48 236.663 1358.23C237.231 1356.71 235.431 1356.14 234.767 1357.47C231.453 1362.62 227.212 1367.12 222.259 1370.73C221.272 1371.61 220.353 1372.56 219.511 1373.57C219.724 1367.95 218.202 1362.39 215.152 1357.66C215.152 1357.09 213.92 1357.66 214.204 1358.42C215.551 1362.67 215.907 1367.17 215.247 1371.58C215.247 1373 215.247 1374.33 215.247 1375.66C214.489 1374.43 214.015 1372.72 213.162 1371.58C210.793 1367.89 207.192 1365.14 204.634 1361.64C203.875 1360.6 202.359 1361.64 202.928 1362.96C205.308 1366.95 207.337 1371.13 208.993 1375.47C208.993 1376.22 209.466 1376.98 209.751 1377.84L207.003 1376.6L202.454 1374.24C200.515 1373.56 198.643 1372.7 196.863 1371.68C196.2 1371.2 195.158 1372.34 195.821 1373C198.395 1375.15 201.119 1377.11 203.97 1378.88L204.823 1379.54C199.355 1379.49 193.937 1378.5 188.809 1376.6C188.145 1376.6 187.577 1377.46 188.24 1377.74C194.531 1380.85 201.231 1383.05 208.14 1384.28L203.307 1385.41C196.01 1386.83 189.093 1390.15 181.891 1391.48C181.322 1391.48 181.228 1392.52 181.891 1392.42C189.851 1391.57 197.242 1388.82 205.297 1388.07H207.382C199.614 1393.23 192.544 1399.38 186.345 1406.35C185.776 1407.01 186.345 1407.96 187.292 1407.39C192.14 1402.63 197.405 1398.32 203.023 1394.51C205.882 1393.1 208.864 1391.96 211.93 1391.1C210.062 1398.38 207.557 1405.48 204.444 1412.32C204.379 1412.48 204.368 1412.66 204.412 1412.83C204.455 1413.01 204.552 1413.16 204.688 1413.28C204.823 1413.39 204.992 1413.46 205.169 1413.47C205.346 1413.49 205.523 1413.45 205.676 1413.36C211.692 1408.08 215.763 1400.95 217.237 1393.09C219.333 1398.03 221.136 1403.09 222.638 1408.24C222.638 1409.47 224.533 1408.24 224.439 1407.39C223.586 1401.8 223.112 1396.12 221.691 1390.53V1389.39L223.586 1390.53C226.049 1391.76 228.324 1394.22 231.261 1394.13C232.493 1394.13 233.915 1391.85 232.304 1391.38C230.693 1390.91 228.134 1387.97 226.049 1386.64C224.909 1385.8 223.916 1384.78 223.112 1383.61L226.144 1381.72C230.882 1378.69 235.62 1375.47 240.169 1372.25C240.169 1371.87 239.79 1370.73 239.032 1370.73Z" fill="#96D5F6"/>
</g>
<g style="mix-blend-mode:overlay">
<path d="M245.665 1332.08C243.979 1332.17 242.295 1331.88 240.737 1331.23H239.6C240.737 1329.81 241.685 1328.29 242.633 1326.97C243.58 1325.64 242.633 1324.32 241.116 1325.26C239.6 1326.21 238.842 1326.78 237.8 1327.63L236.378 1328.67H235.81C235.111 1325.55 234.636 1322.39 234.388 1319.2C234.388 1317.87 232.588 1318.44 232.588 1319.2C232.588 1322.61 232.588 1325.83 232.588 1328.67C231.267 1325.1 229.162 1321.86 226.429 1319.2C225.67 1318.63 224.533 1319.96 225.291 1320.62C227.419 1323.12 229.03 1326.02 230.029 1329.15L228.608 1328.48C226.501 1327.33 224.277 1326.41 221.975 1325.74C221.122 1325.74 220.269 1326.87 221.217 1327.35C223.468 1328.23 225.503 1329.59 227.187 1331.33C222.64 1331 218.072 1331.55 213.731 1332.94C213.257 1332.94 212.973 1334.26 213.731 1334.17C217.955 1333.78 222.215 1334.1 226.334 1335.11C224.173 1335.84 221.954 1336.38 219.701 1336.72C219.037 1336.72 218.753 1338.05 219.701 1338.05C221.937 1338.29 224.192 1338.29 226.429 1338.05C225.197 1339.57 223.87 1341.65 222.164 1342.12C220.459 1342.6 221.122 1343.45 222.164 1343.55C224.33 1343.28 226.339 1342.28 227.85 1340.7C229.177 1339.76 230.977 1338.9 232.304 1337.86H233.441C233.796 1338.57 234.113 1339.3 234.388 1340.04C235.147 1341.93 234.957 1343.92 235.81 1345.82C236.663 1347.71 238.084 1345.82 237.8 1344.87C237.042 1342.31 237.042 1339.66 236.189 1337.2L237.136 1337.86C237.8 1338.43 238.653 1338.81 239.411 1339.38C240.136 1340.02 240.97 1340.54 241.875 1340.89C242.727 1340.89 243.675 1339.95 242.917 1339.38C242.301 1338.82 241.73 1338.22 241.211 1337.58C240.643 1336.91 239.885 1336.35 239.221 1335.68H240.927C242.941 1335.83 244.96 1335.47 246.802 1334.64C246.802 1333.41 246.992 1331.89 245.665 1332.08Z" fill="#96D5F6"/>
</g>
<g style="mix-blend-mode:overlay">
<path d="M250.593 1380.87C250.51 1380.52 250.316 1380.22 250.042 1380C249.769 1379.77 249.429 1379.65 249.076 1379.64C246.423 1379.64 245.286 1382.38 245.191 1384.66C245.162 1385.08 245.291 1385.5 245.554 1385.83C245.817 1386.16 246.194 1386.39 246.613 1386.46C249.74 1386.83 251.445 1383.23 250.593 1380.87Z" fill="white"/>
</g>
<g style="mix-blend-mode:overlay">
<path d="M253.72 1354.06C253.184 1353.46 252.469 1353.06 251.683 1352.91C250.896 1352.75 250.081 1352.86 249.361 1353.21C248.267 1353.78 247.375 1354.67 246.802 1355.76C245.191 1357.94 243.296 1361.73 245.002 1364.2C245.681 1364.88 246.561 1365.34 247.515 1365.49C248.47 1365.64 249.448 1365.49 250.308 1365.05C251.644 1364.37 252.771 1363.34 253.571 1362.07C254.372 1360.81 254.816 1359.35 254.857 1357.85C254.965 1357.17 254.919 1356.48 254.722 1355.82C254.525 1355.17 254.182 1354.56 253.72 1354.06Z" fill="white"/>
</g>
<g style="mix-blend-mode:overlay">
<path d="M238.937 1398.39C238.518 1398.24 238.061 1398.25 237.645 1398.4C237.23 1398.56 236.882 1398.86 236.663 1399.24C236.367 1399.39 236.11 1399.6 235.912 1399.86C235.714 1400.13 235.582 1400.43 235.526 1400.76C235.526 1401.61 235.526 1402.84 236.852 1402.75C237.456 1402.73 238.043 1402.54 238.546 1402.21C239.048 1401.87 239.447 1401.4 239.695 1400.85C239.81 1400.64 239.882 1400.41 239.906 1400.17C239.93 1399.93 239.906 1399.69 239.835 1399.46C239.765 1399.23 239.649 1399.02 239.494 1398.84C239.34 1398.65 239.151 1398.5 238.937 1398.39Z" fill="white"/>
</g>
<g style="mix-blend-mode:overlay">
<path d="M221.785 1418.09C221.61 1417.65 221.346 1417.25 221.009 1416.91C220.672 1416.57 220.269 1416.3 219.825 1416.12C219.382 1415.95 218.906 1415.86 218.429 1415.87C217.951 1415.89 217.481 1416 217.047 1416.2C215.764 1416.86 214.677 1417.85 213.896 1419.06C213.114 1420.28 212.665 1421.67 212.593 1423.11C212.554 1423.5 212.595 1423.89 212.715 1424.25C212.835 1424.62 213.031 1424.96 213.291 1425.24C213.55 1425.53 213.866 1425.76 214.22 1425.91C214.573 1426.07 214.955 1426.15 215.342 1426.15C216.185 1426.11 217.014 1425.91 217.778 1425.55C218.543 1425.19 219.229 1424.69 219.795 1424.06C220.61 1423.32 221.22 1422.38 221.569 1421.34C221.917 1420.29 221.992 1419.18 221.785 1418.09Z" fill="white"/>
</g>
<g style="mix-blend-mode:overlay">
<path d="M157.253 1330.85C157.245 1330.44 157.149 1330.04 156.972 1329.67C156.794 1329.3 156.54 1328.98 156.225 1328.72C155.91 1328.46 155.543 1328.27 155.148 1328.16C154.753 1328.06 154.34 1328.04 153.937 1328.1C152.937 1328.32 152.021 1328.82 151.298 1329.54C150.575 1330.26 150.076 1331.18 149.862 1332.18C149.718 1332.99 149.718 1333.83 149.862 1334.64C149.998 1335.15 150.276 1335.6 150.662 1335.95C151.048 1336.3 151.526 1336.54 152.041 1336.63C152.704 1336.61 153.356 1336.46 153.959 1336.18C154.561 1335.91 155.102 1335.51 155.548 1335.02C156.12 1334.49 156.57 1333.85 156.865 1333.13C157.16 1332.41 157.292 1331.63 157.253 1330.85Z" fill="white"/>
</g>
<g style="mix-blend-mode:overlay">
<path d="M161.044 1357.66C158.353 1359.19 155.446 1360.31 152.42 1360.97L149.578 1362.21C150.43 1361.16 151.283 1359.84 152.041 1358.89C153.79 1356.94 155.171 1354.7 156.116 1352.26C156.116 1351.22 154.979 1351.12 154.6 1352.26C153.442 1354.33 151.936 1356.19 150.146 1357.75C149.293 1358.61 148.061 1359.55 147.114 1360.6V1358.61C147.114 1355.95 147.114 1353.21 146.356 1350.65C146.356 1349.99 145.313 1350.65 145.313 1350.65C145.575 1353.8 145.575 1356.97 145.313 1360.12C144.516 1358.35 143.235 1356.84 141.618 1355.76C141.049 1355.76 140.481 1356.43 140.954 1356.71C142.353 1358.03 143.368 1359.7 143.892 1361.54L142.944 1360.97C139.963 1359.51 136.762 1358.55 133.468 1358.13C132.805 1358.13 132.426 1359.27 133.468 1359.36C136.402 1360.13 139.234 1361.24 141.902 1362.68L143.892 1363.82L140.291 1364.57C138.208 1365.19 136.204 1366.05 134.321 1367.13C133.658 1367.13 134.321 1368.46 134.321 1368.17C136.609 1367.21 138.991 1366.48 141.428 1365.99C138.85 1367.8 136.578 1370.01 134.7 1372.53C134.7 1373.1 134.7 1373.95 135.553 1373.38C136.406 1372.81 139.817 1369.88 141.807 1368.08C139.554 1371.15 138.387 1374.88 138.491 1378.69C138.491 1379.26 139.438 1378.69 139.628 1378.69C141.007 1375.42 142.622 1372.25 144.461 1369.22C144.49 1368.96 144.49 1368.71 144.461 1368.46C144.664 1369.3 144.822 1370.15 144.934 1371.01C144.934 1372.72 144.934 1374.43 145.503 1376.13C145.875 1378.13 146.066 1380.16 146.071 1382.19C146.071 1383.52 147.398 1383.33 147.777 1382.19C148.425 1379.08 148.648 1375.89 148.441 1372.72V1369.22C148.632 1369.45 148.791 1369.7 148.914 1369.97C150.241 1372.06 151.094 1375.85 153.179 1377.17C155.263 1378.5 155.453 1376.51 154.789 1375.66C153.582 1373.44 152.659 1371.09 152.041 1368.65L151.378 1367.32C153.121 1367.96 154.777 1368.82 156.306 1369.88C156.519 1370.05 156.794 1370.14 157.069 1370.11C157.345 1370.08 157.599 1369.95 157.774 1369.74C157.95 1369.52 158.034 1369.25 158.008 1368.97C157.981 1368.7 157.846 1368.44 157.632 1368.27C156.357 1366.82 154.812 1365.63 153.084 1364.76H151.568C154.915 1363.39 158.094 1361.65 161.044 1359.55C162.56 1358.23 161.897 1357.09 161.044 1357.66Z" fill="#96D5F6"/>
</g>
<g style="mix-blend-mode:overlay">
<path d="M149.672 1399.15L148.725 1400.1C148.674 1400.35 148.674 1400.6 148.725 1400.85C148.081 1401.91 147.722 1403.12 147.682 1404.36C147.682 1405.5 148.82 1405.87 149.672 1405.49C150.659 1405.01 151.485 1404.25 152.056 1403.31C152.627 1402.37 152.918 1401.29 152.894 1400.19C152.61 1398.39 150.904 1397.92 149.672 1399.15Z" fill="white"/>
</g>
<g style="mix-blend-mode:overlay">
<path d="M168.814 1389.68C168.821 1389.05 168.676 1388.43 168.391 1387.87C168.105 1387.31 167.689 1386.83 167.176 1386.46C166.664 1386.1 166.071 1385.87 165.449 1385.78C164.826 1385.7 164.193 1385.77 163.602 1385.98C162.436 1386.66 161.428 1387.57 160.643 1388.67C159.859 1389.76 159.317 1391.01 159.054 1392.33C158.82 1393.2 158.82 1394.11 159.054 1394.98C159.049 1395.86 159.308 1396.71 159.799 1397.44C160.289 1398.17 160.987 1398.73 161.802 1399.05C165.687 1400.57 168.53 1396.4 169.383 1393.28C169.624 1392.05 169.423 1390.77 168.814 1389.68Z" fill="white"/>
</g>
<g style="mix-blend-mode:overlay">
<path d="M206.813 1312.1C206.157 1311.96 205.479 1311.96 204.823 1312.1C204.132 1312.33 203.497 1312.7 202.958 1313.19C202.42 1313.68 201.99 1314.27 201.696 1314.94L201.127 1315.7C200.528 1316.55 200.248 1317.58 200.334 1318.62C200.421 1319.66 200.869 1320.64 201.601 1321.38C202.024 1321.71 202.513 1321.95 203.036 1322.09C203.559 1322.22 204.103 1322.23 204.634 1322.14C204.974 1322.23 205.335 1322.23 205.676 1322.14C206.141 1322.01 206.587 1321.81 207.003 1321.57C207.929 1320.97 208.697 1320.16 209.241 1319.21C209.786 1318.25 210.091 1317.17 210.13 1316.07C210.229 1315.59 210.218 1315.08 210.097 1314.6C209.975 1314.12 209.747 1313.67 209.428 1313.29C209.11 1312.91 208.709 1312.6 208.257 1312.39C207.804 1312.19 207.311 1312.09 206.813 1312.1Z" fill="white"/>
</g>
<g style="mix-blend-mode:overlay">
<path d="M179.332 1313.9C178.574 1313.9 177.627 1313.9 176.869 1314.56C176.592 1314.91 176.442 1315.34 176.442 1315.79C176.442 1316.24 176.592 1316.67 176.869 1317.02C177.437 1318.06 178.859 1317.59 179.427 1317.02C179.698 1316.86 179.921 1316.62 180.072 1316.34C180.223 1316.06 180.298 1315.75 180.288 1315.43C180.279 1315.11 180.185 1314.8 180.017 1314.54C179.85 1314.27 179.613 1314.04 179.332 1313.9Z" fill="white"/>
</g>
<g style="mix-blend-mode:overlay">
<path d="M158.959 1319.96C158.516 1320.01 158.093 1320.18 157.727 1320.43C157.458 1320.55 157.223 1320.73 157.041 1320.97C156.859 1321.2 156.737 1321.47 156.685 1321.76C156.559 1322.06 156.558 1322.4 156.683 1322.7C156.807 1323 157.046 1323.24 157.348 1323.37H158.675C159.622 1323.37 160.57 1322.52 160.759 1321.66C160.795 1321.42 160.771 1321.18 160.692 1320.95C160.612 1320.72 160.478 1320.51 160.302 1320.34C160.125 1320.18 159.911 1320.05 159.677 1319.99C159.444 1319.92 159.197 1319.91 158.959 1319.96Z" fill="white"/>
</g>
</g>
<g opacity="0.6">
<g style="mix-blend-mode:overlay">
<path d="M153.084 1392.8C144.668 1379.94 139.438 1365.27 137.827 1349.99C137.777 1350.14 137.777 1350.31 137.827 1350.46C138.304 1363.51 141.774 1376.27 147.968 1387.77C154.162 1399.27 162.915 1409.19 173.552 1416.77C165.524 1409.89 158.619 1401.81 153.084 1392.8Z" fill="white"/>
</g>
<g style="mix-blend-mode:overlay">
<path d="M149.672 1403.51C140.519 1389.95 135.035 1374.25 133.753 1357.94C133.655 1356.78 133.655 1355.6 133.753 1354.44C133.715 1350.38 134.032 1346.32 134.7 1342.31C134.66 1342.47 134.66 1342.63 134.7 1342.79C127.404 1364.57 137.353 1386.36 149.483 1404.26C149.293 1404.36 149.862 1403.88 149.672 1403.51Z" fill="white"/>
</g>
<g style="mix-blend-mode:overlay">
<path d="M188.809 1353.02L178.385 1347.52C170.617 1343.24 162.294 1340.05 153.652 1338.05H152.136C150.149 1337.91 148.154 1337.91 146.166 1338.05C156.967 1339.87 167.342 1343.66 176.774 1349.23C185.302 1353.78 193.736 1358.7 201.98 1363.44L200.748 1362.02C196.674 1359.17 192.504 1356.05 188.809 1353.02Z" fill="white"/>
</g>
<g style="mix-blend-mode:overlay">
<path d="M166.919 1335.02C159.993 1333.53 152.957 1332.62 145.882 1332.27C153.084 1332.27 159.812 1334.17 166.919 1334.93C167.014 1335.3 167.108 1335.02 166.919 1335.02Z" fill="white"/>
</g>
<g style="mix-blend-mode:overlay">
<path d="M211.741 1318.63C200.024 1315.23 187.717 1314.36 175.637 1316.07C171.177 1316.71 166.773 1317.69 162.465 1319.01C158.043 1320.68 153.867 1322.95 150.051 1325.74C148.011 1326.76 146.128 1328.06 144.461 1329.62C154.468 1323.32 165.663 1319.15 177.35 1317.36C189.038 1315.57 200.969 1316.19 212.404 1319.2L211.741 1318.63Z" fill="white"/>
</g>
<g style="mix-blend-mode:overlay">
<path d="M198.285 1307.17C189.989 1307.13 181.728 1308.25 173.742 1310.49C171.278 1311.52 168.873 1312.69 166.54 1313.99C164.815 1314.85 163.138 1315.79 161.517 1316.83C174.624 1310.73 188.946 1307.69 203.402 1307.93C201.682 1307.78 199.973 1307.53 198.285 1307.17Z" fill="white"/>
</g>
<g style="mix-blend-mode:overlay">
<path d="M179.806 1300.35C167.602 1302.85 156.227 1308.39 146.735 1316.45C144.762 1318.97 143.078 1321.71 141.712 1324.6C146.315 1318.45 152.117 1313.29 158.769 1309.44C165.377 1305.76 172.454 1302.99 179.806 1301.2C179.806 1301.2 180.375 1300.16 179.806 1300.35Z" fill="white"/>
</g>
</g>
<g style="mix-blend-mode:screen" opacity="0.6">
<g style="mix-blend-mode:overlay">
<path d="M239.885 1370.16C235.905 1372.06 231.83 1373.76 227.755 1375.47C226.144 1376.13 224.249 1376.6 222.449 1377.17C223.586 1375.75 224.533 1374.24 225.102 1373.38C228.892 1368.08 235.052 1363.91 237.516 1357.56C238.084 1356.14 236.189 1355.58 235.62 1356.9C232.287 1361.99 228.047 1366.42 223.112 1369.97C222.124 1370.85 221.206 1371.8 220.364 1372.82C220.576 1367.19 219.055 1361.63 216.005 1356.9C216.005 1356.33 214.773 1356.9 215.057 1357.66C216.403 1361.91 216.727 1366.42 216.005 1370.83C216.099 1372.18 216.099 1373.54 216.005 1374.9C215.247 1373.67 214.678 1371.96 213.92 1370.83C211.551 1367.13 207.95 1364.38 205.392 1361.35C204.634 1360.22 203.117 1361.35 203.686 1362.68C206.029 1366.68 208.057 1370.86 209.751 1375.18C209.751 1375.85 210.224 1376.7 210.509 1377.55L207.666 1376.32L203.212 1373.95C201.172 1373.04 199.207 1371.96 197.337 1370.73C196.674 1370.16 195.631 1371.39 196.295 1372.06C198.664 1374.33 201.791 1375.85 204.444 1377.93L205.297 1378.59C199.85 1378.47 194.464 1377.42 189.377 1375.47C188.714 1375.47 188.145 1376.32 188.809 1376.6C195.094 1379.72 201.796 1381.93 208.708 1383.14L203.876 1384.28C196.579 1385.7 189.661 1389.01 182.46 1390.24C181.891 1390.24 181.796 1391.38 182.46 1391.29C190.419 1390.43 197.811 1387.69 205.771 1386.93H207.761C199.993 1392.1 192.923 1398.24 186.724 1405.21C186.06 1405.78 186.724 1406.82 187.671 1406.25C192.507 1401.52 197.738 1397.21 203.307 1393.37C206.206 1391.98 209.217 1390.84 212.309 1389.96C210.426 1397.2 207.921 1404.27 204.823 1411.08C204.349 1412.03 204.823 1412.79 206.055 1412.13C212.046 1406.91 216.116 1399.84 217.616 1392.04C219.727 1396.98 221.531 1402.04 223.017 1407.2C223.017 1408.43 224.912 1407.2 224.818 1406.35C224.187 1400.68 223.269 1395.06 222.07 1389.49V1388.35L223.965 1389.49C226.429 1390.72 228.608 1393.18 231.64 1393.09C232.872 1393.09 234.294 1390.72 232.683 1390.34C231.072 1389.96 228.513 1386.93 226.429 1385.6C225.287 1384.76 224.294 1383.74 223.491 1382.57L226.523 1380.68C231.261 1377.65 235.999 1374.43 240.548 1371.2C241.022 1370.73 240.643 1369.78 239.885 1370.16Z" fill="white"/>
</g>
<g style="mix-blend-mode:overlay">
<path d="M246.707 1331.14C245.024 1331.18 243.349 1330.89 241.78 1330.28H240.643C241.78 1328.86 242.727 1327.35 243.675 1325.93C244.623 1324.51 243.675 1323.37 242.159 1324.32L238.747 1326.59L237.421 1327.73H236.852C236.151 1324.61 235.676 1321.44 235.431 1318.25C235.431 1317.02 233.63 1317.59 233.63 1318.25C233.63 1321.66 233.63 1324.88 233.63 1327.73C232.33 1324.14 230.223 1320.9 227.471 1318.25C226.713 1317.69 225.576 1319.01 226.334 1319.67C228.481 1322.16 230.094 1325.06 231.072 1328.2C230.56 1328.03 230.08 1327.77 229.65 1327.44C227.515 1326.38 225.296 1325.49 223.017 1324.79C222.07 1324.79 221.311 1325.93 222.259 1326.31C224.46 1327.28 226.479 1328.63 228.229 1330.28V1330.76C223.682 1330.43 219.114 1330.98 214.773 1332.37C214.299 1332.37 214.015 1333.6 214.773 1333.6C218.997 1333.21 223.258 1333.53 227.376 1334.55C225.225 1335.29 223.002 1335.79 220.743 1336.06C220.08 1336.06 219.795 1337.48 220.743 1337.48C222.979 1337.72 225.234 1337.72 227.471 1337.48C226.239 1339 224.912 1341.08 223.207 1341.56C221.501 1342.03 222.164 1342.88 223.207 1342.88C225.376 1342.7 227.402 1341.72 228.892 1340.14C230.219 1339.19 231.925 1338.34 233.346 1337.29H234.483C234.839 1338 235.155 1338.73 235.431 1339.47C236.189 1341.27 235.999 1343.36 236.852 1345.25C237.705 1347.14 239.126 1345.25 238.842 1344.3C238.084 1341.75 238.084 1339.09 237.231 1336.63L238.084 1337.2L240.453 1338.81C241.179 1339.46 242.013 1339.97 242.917 1340.32C243.77 1340.32 244.717 1339.28 243.959 1338.71C243.32 1338.22 242.747 1337.65 242.254 1337.01C241.685 1336.35 240.927 1335.78 240.264 1335.11V1334.64H241.969C243.983 1334.77 245.999 1334.41 247.844 1333.6C247.655 1332.84 247.844 1330.95 246.707 1331.14Z" fill="white"/>
</g>
<g style="mix-blend-mode:overlay">
<path d="M251.445 1380.2C251.362 1379.86 251.169 1379.55 250.895 1379.33C250.621 1379.11 250.282 1378.98 249.929 1378.97C247.276 1378.97 246.139 1381.72 245.949 1383.99C245.962 1384.42 246.119 1384.83 246.394 1385.16C246.669 1385.48 247.047 1385.71 247.465 1385.79C250.498 1385.79 252.203 1382.29 251.445 1380.2Z" fill="white"/>
</g>
<g style="mix-blend-mode:overlay">
<path d="M254.572 1353.11C254.046 1352.5 253.33 1352.09 252.54 1351.93C251.75 1351.78 250.931 1351.89 250.213 1352.26C249.107 1352.77 248.206 1353.64 247.655 1354.72C246.044 1357 244.054 1360.78 245.854 1363.15C246.507 1363.88 247.39 1364.37 248.356 1364.52C249.323 1364.68 250.313 1364.49 251.161 1364.01C252.496 1363.35 253.625 1362.34 254.427 1361.09C255.229 1359.84 255.672 1358.39 255.71 1356.9C255.792 1356.23 255.734 1355.54 255.538 1354.89C255.343 1354.24 255.014 1353.63 254.572 1353.11Z" fill="white"/>
</g>
<g style="mix-blend-mode:overlay">
<path d="M239.79 1397.44C239.373 1397.28 238.908 1397.27 238.487 1397.43C238.066 1397.59 237.72 1397.9 237.516 1398.3C237.22 1398.44 236.962 1398.65 236.765 1398.92C236.567 1399.18 236.435 1399.49 236.378 1399.81C236.378 1400.57 236.378 1401.8 237.705 1401.8C238.309 1401.78 238.896 1401.6 239.398 1401.26C239.901 1400.93 240.299 1400.46 240.548 1399.91C240.927 1399.15 240.832 1397.82 239.79 1397.44Z" fill="white"/>
</g>
<g style="mix-blend-mode:overlay">
<path d="M222.638 1417.05C222.472 1416.6 222.215 1416.19 221.882 1415.84C221.549 1415.49 221.148 1415.21 220.703 1415.02C220.258 1414.84 219.78 1414.74 219.298 1414.75C218.815 1414.76 218.34 1414.86 217.9 1415.06C216.61 1415.74 215.519 1416.74 214.738 1417.97C213.956 1419.2 213.511 1420.62 213.446 1422.07C213.406 1422.46 213.448 1422.84 213.568 1423.21C213.688 1423.58 213.884 1423.92 214.143 1424.2C214.403 1424.49 214.719 1424.72 215.073 1424.87C215.426 1425.03 215.808 1425.11 216.194 1425.1C217.026 1425.08 217.844 1424.88 218.594 1424.52C219.345 1424.16 220.012 1423.65 220.553 1423.02C221.377 1422.28 222.001 1421.35 222.365 1420.3C222.73 1419.26 222.824 1418.14 222.638 1417.05Z" fill="white"/>
</g>
<g style="mix-blend-mode:overlay">
<path d="M158.106 1329.91C158.083 1329.5 157.978 1329.11 157.796 1328.75C157.613 1328.39 157.359 1328.07 157.047 1327.81C156.736 1327.55 156.375 1327.36 155.986 1327.25C155.598 1327.14 155.19 1327.11 154.789 1327.16C153.787 1327.33 152.861 1327.8 152.133 1328.51C151.406 1329.22 150.911 1330.14 150.715 1331.14C150.573 1331.98 150.573 1332.85 150.715 1333.69C150.851 1334.2 151.129 1334.65 151.515 1335.01C151.901 1335.36 152.379 1335.59 152.894 1335.68C153.556 1335.66 154.206 1335.5 154.808 1335.23C155.41 1334.95 155.951 1334.56 156.4 1334.07C156.963 1333.54 157.406 1332.89 157.7 1332.17C157.994 1331.45 158.132 1330.68 158.106 1329.91Z" fill="white"/>
</g>
<g style="mix-blend-mode:overlay">
<path d="M161.897 1356.71C159.199 1358.23 156.294 1359.35 153.273 1360.03C152.263 1360.36 151.281 1360.77 150.336 1361.26C151.283 1360.22 152.136 1358.89 152.894 1357.94C154.624 1355.98 156.002 1353.74 156.969 1351.31C156.969 1350.27 155.737 1350.18 155.453 1351.31C154.298 1353.42 152.792 1355.31 150.999 1356.9C150.146 1357.75 148.914 1358.7 147.872 1359.74C147.914 1359.05 147.914 1358.35 147.872 1357.66C147.872 1355.1 147.872 1352.35 147.114 1349.7C147.114 1349.13 146.071 1349.7 146.071 1349.7C146.165 1352.71 145.975 1355.73 145.503 1358.7C144.749 1356.9 143.458 1355.38 141.807 1354.34C141.807 1354.34 140.765 1354.91 141.239 1355.29C142.616 1356.59 143.628 1358.22 144.176 1360.03L143.229 1359.55C140.395 1358.14 137.358 1357.18 134.226 1356.71C133.563 1356.71 133.089 1357.85 134.226 1357.94C137.16 1358.71 139.992 1359.82 142.66 1361.26C143.343 1361.55 143.981 1361.93 144.555 1362.4L141.049 1363.15C138.983 1363.78 136.984 1364.6 135.079 1365.62C134.416 1365.62 135.079 1367.04 135.079 1366.75C137.341 1365.8 139.689 1365.07 142.092 1364.57H142.376C139.779 1366.39 137.505 1368.63 135.648 1371.2C135.648 1371.77 135.648 1372.63 136.406 1372.06C138.585 1370.35 140.67 1368.55 142.755 1366.75C140.488 1369.82 139.32 1373.55 139.438 1377.36C139.438 1377.93 140.386 1377.36 140.575 1377.36C141.958 1374.09 143.573 1370.93 145.408 1367.89L145.882 1367.23C145.927 1368.08 145.927 1368.93 145.882 1369.78C145.882 1371.49 145.882 1373.19 146.451 1374.9C146.823 1376.9 147.013 1378.93 147.019 1380.96C147.019 1382.29 148.346 1382.1 148.725 1380.96C149.384 1377.85 149.608 1374.66 149.388 1371.49V1367.98V1368.65C150.715 1370.73 151.473 1374.52 153.652 1375.85C155.832 1377.17 155.927 1375.28 155.169 1374.33C154.033 1372.13 153.143 1369.81 152.515 1367.42C152.515 1366.94 152.515 1366.56 151.852 1366.09C153.595 1366.73 155.251 1367.59 156.779 1368.65C157.727 1369.31 158.864 1367.79 158.106 1367.04C156.83 1365.59 155.286 1364.4 153.558 1363.53H152.041C155.389 1362.16 158.568 1360.41 161.517 1358.32C163.413 1357.28 162.749 1356.14 161.897 1356.71Z" fill="white"/>
</g>
<g style="mix-blend-mode:overlay">
<path d="M150.904 1397.82L149.957 1398.86C149.906 1399.11 149.906 1399.37 149.957 1399.62C149.313 1400.68 148.954 1401.89 148.914 1403.13C148.914 1404.26 150.051 1404.64 150.904 1404.26C151.876 1403.76 152.691 1403 153.259 1402.06C153.827 1401.13 154.127 1400.05 154.126 1398.96C153.463 1397.44 151.473 1396.97 150.904 1397.82Z" fill="white"/>
</g>
<g style="mix-blend-mode:overlay">
<path d="M169.856 1388.54C169.864 1387.91 169.718 1387.29 169.433 1386.73C169.148 1386.17 168.731 1385.69 168.219 1385.33C167.706 1384.96 167.114 1384.73 166.491 1384.65C165.869 1384.56 165.235 1384.63 164.645 1384.85C163.479 1385.52 162.47 1386.43 161.686 1387.53C160.901 1388.62 160.36 1389.87 160.096 1391.19C159.863 1392.06 159.863 1392.98 160.096 1393.84C160.091 1394.72 160.351 1395.58 160.841 1396.3C161.331 1397.03 162.029 1397.59 162.844 1397.92C166.729 1399.43 169.572 1395.27 170.425 1392.14C170.667 1390.91 170.465 1389.63 169.856 1388.54Z" fill="white"/>
</g>
<g style="mix-blend-mode:overlay">
<path d="M207.761 1311.05C207.105 1310.92 206.427 1310.92 205.771 1311.05C205.073 1311.29 204.429 1311.67 203.876 1312.15C203.323 1312.64 202.872 1313.23 202.549 1313.9L202.075 1314.65C201.476 1315.51 201.195 1316.54 201.282 1317.58C201.369 1318.62 201.817 1319.6 202.549 1320.34C202.971 1320.67 203.46 1320.91 203.983 1321.04C204.506 1321.17 205.051 1321.19 205.581 1321.1C205.922 1321.19 206.283 1321.19 206.624 1321.1C207.088 1320.96 207.534 1320.77 207.95 1320.53C208.871 1319.93 209.635 1319.11 210.179 1318.16C210.722 1317.2 211.03 1316.13 211.077 1315.03C211.159 1314.55 211.135 1314.05 211.007 1313.58C210.879 1313.1 210.649 1312.66 210.334 1312.28C210.019 1311.9 209.626 1311.6 209.182 1311.39C208.738 1311.17 208.253 1311.06 207.761 1311.05Z" fill="white"/>
</g>
<g style="mix-blend-mode:overlay">
<path d="M179.332 1313.33C178.574 1312.85 177.627 1313.33 176.869 1313.99C176.592 1314.34 176.442 1314.78 176.442 1315.22C176.442 1315.67 176.592 1316.1 176.869 1316.45C177.437 1317.5 178.859 1317.02 179.427 1316.45C179.698 1316.29 179.921 1316.05 180.072 1315.77C180.223 1315.5 180.298 1315.18 180.288 1314.86C180.279 1314.55 180.185 1314.24 180.017 1313.97C179.85 1313.7 179.613 1313.48 179.332 1313.33Z" fill="white"/>
</g>
<g style="mix-blend-mode:overlay">
<path d="M159.812 1319.01H159.338C158.895 1319.07 158.472 1319.23 158.106 1319.48C157.828 1319.6 157.581 1319.79 157.384 1320.02C157.187 1320.25 157.045 1320.52 156.969 1320.81C156.969 1321.38 156.969 1322.23 157.727 1322.42H159.054C160.001 1322.42 160.949 1321.57 161.138 1320.72C161.18 1320.52 161.177 1320.31 161.13 1320.11C161.084 1319.91 160.994 1319.72 160.868 1319.56C160.742 1319.4 160.582 1319.26 160.4 1319.17C160.218 1319.07 160.017 1319.02 159.812 1319.01Z" fill="white"/>
</g>
</g>
<path style="mix-blend-mode:multiply" d="M264.617 1365.52C264.636 1379.49 260.513 1393.15 252.769 1404.78C245.025 1416.4 234.008 1425.48 221.109 1430.85C208.21 1436.22 194.008 1437.65 180.297 1434.95C166.586 1432.26 153.98 1425.57 144.073 1415.72C134.166 1405.87 127.402 1393.3 124.634 1379.61C121.867 1365.92 123.221 1351.71 128.525 1338.79C133.829 1325.87 142.845 1314.81 154.435 1307C166.025 1299.2 179.668 1295.01 193.641 1294.95C202.944 1294.9 212.165 1296.69 220.774 1300.21C229.383 1303.74 237.21 1308.93 243.806 1315.49C250.402 1322.04 255.636 1329.84 259.207 1338.43C262.779 1347.01 264.617 1356.22 264.617 1365.52Z" fill="url(#paint2_radial_111_152)"/>
<g style="mix-blend-mode:screen">
<path d="M149.672 1311.53C149.672 1311.53 105.419 1348.57 133.184 1397.82C127.312 1383.38 125.745 1367.55 128.67 1352.24C131.596 1336.93 138.89 1322.79 149.672 1311.53Z" fill="#79CAF2"/>
</g>
<g style="mix-blend-mode:multiply">
<path d="M255.141 1333.69C255.141 1333.69 270.966 1383.42 241.78 1414.97C241.59 1414.97 277.031 1388.44 255.141 1333.69Z" fill="#94703E"/>
</g>
<path style="mix-blend-mode:screen" d="M143.134 1399.15C145.663 1398.3 147.819 1396.59 149.235 1394.33C150.652 1392.07 151.241 1389.39 150.904 1386.74C150.051 1378.88 144.934 1372.06 145.503 1363.91C145.728 1361.5 146.605 1359.19 148.041 1357.24C149.476 1355.29 151.416 1353.76 153.652 1352.83C158.865 1351.16 164.289 1350.23 169.762 1350.08C172.003 1350.06 174.204 1349.49 176.17 1348.41C178.137 1347.34 179.809 1345.8 181.038 1343.92C182.115 1341.35 183.482 1338.9 185.113 1336.63C187.335 1334.3 190.302 1332.81 193.502 1332.43C196.703 1332.05 199.936 1332.8 202.644 1334.55C205.581 1336.35 208.614 1340.89 212.12 1341.37C218.563 1342.31 218.753 1336.44 220.364 1331.89C220.364 1331.89 220.932 1331.14 221.311 1331.33C225.102 1333.03 227.281 1337.86 230.788 1339.09C236.094 1340.89 236.947 1329.62 236.284 1326.97C235.62 1324.32 233.915 1320.34 232.777 1316.93C231.64 1313.52 229.745 1309.54 231.64 1306.41C221.24 1299.61 209.198 1295.75 196.782 1295.21C184.367 1294.68 172.038 1297.51 161.095 1303.4C150.152 1309.28 141 1318.01 134.604 1328.66C128.207 1339.31 124.803 1351.49 124.75 1363.91C124.707 1378.26 129.219 1392.26 137.638 1403.89C138.875 1401.73 140.814 1400.05 143.134 1399.15Z" fill="url(#paint3_radial_111_152)"/>
</g>
<defs>
<radialGradient id="paint0_radial_111_152" cx="0" cy="0" r="1" gradientUnits="userSpaceOnUse" gradientTransform="translate(1223.03 142.451) scale(164.884 163.173)">
<stop stop-color="white"/>
<stop offset="0.38" stop-color="#FDFDFD"/>
<stop offset="0.51" stop-color="#F8F7F6"/>
<stop offset="0.61" stop-color="#EEECEB"/>
<stop offset="0.69" stop-color="#E0DCDA"/>
<stop offset="0.76" stop-color="#CEC7C4"/>
<stop offset="0.82" stop-color="#B7AEA8"/>
<stop offset="0.87" stop-color="#9C8F88"/>
<stop offset="0.92" stop-color="#7D6C62"/>
<stop offset="0.96" stop-color="#5B4639"/>
<stop offset="1" stop-color="#391F10"/>
</radialGradient>
<radialGradient id="paint1_radial_111_152" cx="0" cy="0" r="1" gradientUnits="userSpaceOnUse" gradientTransform="translate(1316.56 224.038) scale(146.784 145.262)">
<stop stop-color="#2B2B2B"/>
<stop offset="0.24" stop-color="#2E2D2C"/>
<stop offset="0.38" stop-color="#363330"/>
<stop offset="0.5" stop-color="#443E38"/>
<stop offset="0.61" stop-color="#594E42"/>
<stop offset="0.71" stop-color="#73624F"/>
<stop offset="0.8" stop-color="#947B5F"/>
<stop offset="0.88" stop-color="#BB9873"/>
<stop offset="0.96" stop-color="#E6B988"/>
<stop offset="0.99" stop-color="#FAC892"/>
</radialGradient>
<radialGradient id="paint2_radial_111_152" cx="0" cy="0" r="1" gradientUnits="userSpaceOnUse" gradientTransform="translate(151.852 1328.93) scale(114.471 113.283)">
<stop stop-color="white"/>
<stop offset="0.38" stop-color="#FDFDFD"/>
<stop offset="0.51" stop-color="#F6F6F6"/>
<stop offset="0.61" stop-color="#EBEBEB"/>
<stop offset="0.69" stop-color="#DADADA"/>
<stop offset="0.75" stop-color="#C4C4C4"/>
<stop offset="0.81" stop-color="#A9A8A8"/>
<stop offset="0.87" stop-color="#888888"/>
<stop offset="0.91" stop-color="#636262"/>
<stop offset="0.96" stop-color="#3A3939"/>
<stop offset="0.98" stop-color="#1F1E1E"/>
</radialGradient>
<radialGradient id="paint3_radial_111_152" cx="0" cy="0" r="1" gradientUnits="userSpaceOnUse" gradientTransform="translate(212.783 1384.82) scale(101.868 100.811)">
<stop offset="0.35" stop-color="#2B2B2B"/>
<stop offset="0.44" stop-color="#2E2F2F"/>
<stop offset="0.53" stop-color="#37393B"/>
<stop offset="0.62" stop-color="#464C4F"/>
<stop offset="0.71" stop-color="#5B656B"/>
<stop offset="0.8" stop-color="#75868F"/>
<stop offset="0.89" stop-color="#96AEBB"/>
<stop offset="0.98" stop-color="#BCDDEF"/>
<stop offset="0.99" stop-color="#C4E6F9"/>
</radialGradient>
<clipPath id="clip0_111_152">
<rect width="1758" height="1837" fill="white" transform="translate(113 73)"/>
</clipPath>
</defs>
</svg>
