<svg width="5179" height="5179" viewBox="0 0 5179 5179" fill="none" xmlns="http://www.w3.org/2000/svg">
<path d="M392.489 2933.62C374.884 2821.22 366.082 2706.63 366.082 2589.82C366.082 2047.69 559.731 1551.83 881.012 1166.17" stroke="white" stroke-width="10" stroke-miterlimit="10"/>
<path d="M1257.3 4372.7C850.202 4066.37 550.926 3625.61 427.695 3114.33" stroke="white" stroke-width="10" stroke-miterlimit="10"/>
<path d="M2586.44 363.986C3814.35 363.986 4809 1360.1 4809 2589.82" stroke="white" stroke-width="10" stroke-miterlimit="10"/>
<g opacity="0.2">
<path d="M2106.72 4452.04H2104.51L1649 4233.86C1649 4233.86 1649 4233.86 1646.8 4233.86L1466.35 4068.57C1464.15 4066.37 1464.15 4066.37 1464.15 4064.17C1464.15 4061.96 1464.15 4059.76 1466.35 4059.76L1686.41 3879.05L1420.14 3570.52C1417.94 3568.31 1417.94 3563.9 1420.14 3561.7C1422.34 3559.5 1426.74 3559.5 1428.94 3561.7L1699.61 3874.64C1699.61 3876.84 1701.81 3876.84 1701.81 3879.05C1701.81 3881.25 1701.81 3881.25 1699.61 3883.46L1479.56 4064.17L1655.6 4222.84L2108.92 4438.81C2111.12 4441.02 2113.32 4443.22 2111.12 4447.63C2111.12 4449.83 2108.92 4452.04 2106.72 4452.04Z" fill="white"/>
<path d="M1660 4183.17C1684.21 4187.58 1699.61 4211.82 1695.21 4236.06C1690.81 4260.31 1666.61 4275.73 1642.4 4271.32C1618.19 4266.92 1602.79 4242.68 1607.19 4218.43C1611.59 4194.19 1635.8 4178.76 1660 4183.17Z" fill="white"/>
<path d="M1477.36 4031.11C1494.96 4035.52 1508.17 4053.15 1503.76 4070.78C1499.36 4088.41 1481.76 4101.63 1464.15 4097.22C1446.55 4092.82 1433.35 4075.19 1437.75 4057.56C1442.15 4037.72 1459.75 4026.7 1477.36 4031.11Z" fill="white"/>
<path d="M1710.62 3801.91C1752.43 3810.73 1778.83 3850.4 1770.03 3892.27C1761.23 3934.14 1721.62 3960.59 1679.81 3951.77C1638 3942.96 1611.59 3903.29 1620.39 3861.42C1629.2 3821.75 1668.81 3795.3 1710.62 3801.91Z" fill="white"/>
<path d="M1415.74 3506.61C1444.35 3513.22 1464.16 3541.87 1457.55 3570.52C1450.95 3599.16 1422.34 3619 1393.74 3612.39C1365.13 3605.78 1345.33 3577.13 1351.93 3548.48C1358.53 3519.83 1387.14 3502.2 1415.74 3506.61Z" fill="white"/>
</g>
<g opacity="0.2">
<path d="M1391.54 1959.54C1389.34 1959.54 1387.14 1957.33 1384.94 1955.13C1384.94 1952.93 1384.94 1948.52 1389.34 1948.52L1598.39 1878L1479.56 1675.25C1477.36 1673.04 1477.36 1670.84 1479.56 1668.64C1481.76 1666.43 1481.76 1666.43 1486.16 1666.43L1915.27 1695.08L1624.8 1287.38C1622.6 1285.17 1622.6 1280.77 1627 1278.56C1629.2 1276.36 1633.6 1276.36 1635.8 1280.77L1932.88 1699.49C1935.08 1701.69 1935.08 1703.9 1932.88 1706.1C1930.67 1708.3 1930.67 1708.3 1926.27 1708.3L1494.97 1679.66L1611.59 1880.2C1611.59 1882.4 1611.59 1884.61 1611.59 1884.61C1611.59 1886.81 1609.39 1886.81 1607.19 1889.02L1391.54 1959.54Z" fill="white"/>
<path d="M1959.28 1690.67C1965.89 1708.3 1954.88 1728.14 1937.28 1732.55C1919.67 1739.16 1899.87 1728.14 1895.47 1710.51C1888.87 1692.88 1899.87 1673.04 1917.47 1668.64C1935.08 1664.23 1954.88 1673.04 1959.28 1690.67Z" fill="white"/>
<path d="M1499.37 1666.43C1501.57 1673.04 1497.17 1681.86 1490.56 1684.06C1483.96 1686.27 1475.16 1681.86 1472.96 1675.25C1470.76 1668.64 1475.16 1659.82 1481.76 1657.62C1488.36 1655.41 1497.17 1657.62 1499.37 1666.43Z" fill="white"/>
<path d="M1624.8 1873.59C1629.2 1884.61 1622.6 1895.63 1611.59 1897.83C1600.59 1902.24 1589.59 1895.63 1587.39 1884.61C1582.99 1873.59 1589.59 1862.57 1600.59 1860.37C1611.59 1858.16 1622.6 1864.77 1624.8 1873.59Z" fill="white"/>
<path d="M1646.8 1276.36C1649 1285.17 1644.6 1293.99 1635.8 1298.4C1627 1300.6 1618.2 1296.19 1613.8 1287.38C1611.59 1278.56 1616 1269.75 1624.8 1265.34C1633.6 1263.14 1642.4 1267.54 1646.8 1276.36Z" fill="white"/>
<path d="M1712.82 1679.66C1715.02 1688.47 1710.62 1699.49 1701.82 1703.9C1693.02 1706.1 1682.01 1701.69 1677.61 1692.88C1675.41 1684.06 1679.81 1673.04 1688.61 1668.64C1697.42 1664.23 1708.42 1668.64 1712.82 1679.66Z" fill="white"/>
<path d="M1409.14 1946.32C1413.54 1957.33 1406.94 1968.35 1395.94 1970.56C1384.94 1974.96 1373.93 1968.35 1371.73 1957.33C1367.33 1946.32 1373.93 1935.3 1384.94 1933.09C1395.94 1930.89 1404.74 1937.5 1409.14 1946.32Z" fill="white"/>
</g>
<g opacity="0.2">
<path d="M3812.15 4211.82C3809.95 4211.82 3809.95 4211.82 3812.15 4211.82C3807.75 4209.62 3805.55 4207.41 3805.55 4203.01L3950.78 3709.36C3950.78 3707.15 3952.98 3704.95 3955.18 3704.95C3957.39 3704.95 3959.59 3704.95 3961.79 3707.15L4203.85 4064.17L4289.67 3850.4C4289.67 3848.19 4291.87 3848.19 4294.07 3845.99C4296.27 3845.99 4298.47 3845.99 4298.47 3845.99L4489.92 3971.61C4492.12 3973.81 4494.32 3978.22 4492.12 3980.42C4489.92 3982.63 4485.52 3984.83 4483.32 3982.63L4298.47 3861.42L4212.65 4079.59C4212.65 4081.8 4210.45 4084 4208.25 4084C4206.05 4084 4203.85 4084 4201.65 4081.8L3959.59 3724.78L3818.75 4205.21C3816.55 4209.62 3814.35 4211.82 3812.15 4211.82Z" fill="white"/>
<path d="M3928.78 3693.93C3939.78 3678.5 3959.58 3674.09 3974.99 3685.11C3990.39 3696.13 3994.79 3715.97 3983.79 3731.39C3972.79 3746.82 3952.98 3751.23 3937.58 3740.21C3922.17 3731.39 3917.77 3709.36 3928.78 3693.93Z" fill="white"/>
<path d="M4192.84 4072.98C4197.24 4066.37 4206.04 4064.17 4212.65 4068.57C4219.25 4072.98 4221.45 4081.8 4217.05 4088.41C4212.65 4095.02 4203.84 4097.22 4197.24 4092.82C4190.64 4088.41 4188.44 4079.59 4192.84 4072.98Z" fill="white"/>
<path d="M4278.66 3843.79C4285.26 3834.97 4296.27 3832.77 4305.07 3837.18C4313.87 3843.79 4316.07 3854.81 4311.67 3863.62C4305.07 3872.44 4294.07 3874.64 4285.26 3870.23C4274.26 3865.82 4272.06 3852.6 4278.66 3843.79Z" fill="white"/>
<path d="M3796.74 4196.4C3801.14 4187.58 3812.15 4185.38 3820.95 4191.99C3829.75 4196.4 3831.95 4207.41 3825.35 4216.23C3820.95 4225.04 3809.95 4227.25 3801.14 4220.64C3794.54 4214.03 3792.34 4205.21 3796.74 4196.4Z" fill="white"/>
<path d="M4071.81 3896.68C4078.41 3887.86 4089.42 3885.66 4098.22 3892.27C4107.02 3898.88 4109.22 3909.9 4102.62 3918.72C4096.02 3927.53 4085.02 3929.74 4076.21 3923.12C4069.61 3916.51 4067.41 3905.49 4071.81 3896.68Z" fill="white"/>
<path d="M4470.11 3969.4C4476.71 3960.59 4487.72 3958.38 4496.52 3962.79C4505.32 3969.4 4507.52 3980.42 4503.12 3989.24C4496.52 3998.05 4485.52 4000.26 4476.71 3995.85C4465.71 3991.44 4463.51 3978.22 4470.11 3969.4Z" fill="white"/>
</g>
<g opacity="0.2">
<path d="M1283.71 2990.92L1294.71 3023.97H1329.92L1301.31 3041.6L1312.32 3074.66L1283.71 3052.62L1257.3 3074.66L1268.31 3041.6L1239.7 3023.97H1274.91L1283.71 2990.92Z" fill="white"/>
</g>
<g opacity="0.5">
<path d="M4261.06 3361.15L4272.06 3394.21H4305.07L4278.66 3411.84L4289.67 3444.9L4261.06 3422.86L4232.45 3444.9L4243.45 3411.84L4217.05 3394.21H4250.06L4261.06 3361.15Z" fill="white"/>
</g>
<g opacity="0.5">
<path d="M2172.74 3757.84L2183.74 3790.9H2216.75L2190.34 3808.53L2199.14 3841.58L2172.74 3819.55L2144.13 3841.58L2155.13 3808.53L2126.52 3790.9H2161.73L2172.74 3757.84Z" fill="white"/>
</g>
<g opacity="0.5">
<path d="M4274.26 2223.99L4285.26 2257.05H4320.47L4291.87 2274.68L4302.87 2307.74L4274.26 2285.7L4247.85 2305.53L4258.86 2274.68L4230.25 2257.05H4265.46L4274.26 2223.99Z" fill="white"/>
</g>
<g opacity="0.5">
<path d="M3704.32 4414.57L3715.32 4447.63H3750.53L3721.93 4467.46L3732.93 4500.52L3704.32 4478.48L3675.71 4498.32L3686.72 4467.46L3658.11 4447.63H3693.32L3704.32 4414.57Z" fill="white"/>
</g>
<g opacity="0.5">
<path d="M2997.94 998.681L3011.15 1038.35H3052.96L3019.95 1060.39L3030.95 1097.85L2997.94 1073.61L2964.93 1097.85L2978.14 1060.39L2945.13 1038.35H2986.94L2997.94 998.681Z" fill="white"/>
</g>
<g opacity="0.5">
<path d="M91.0111 3154L115.217 3189.26L157.028 3178.24L130.621 3209.09L154.827 3244.35L113.017 3228.93L86.61 3264.19L88.8105 3222.32L47 3211.3L88.8105 3198.07L91.0111 3154Z" fill="white"/>
</g>
<path d="M2588.64 256C2588.64 256 2584.24 313.299 2573.24 333.133C2560.03 352.967 2474.21 361.782 2474.21 361.782C2474.21 361.782 2549.03 366.19 2568.83 390.432C2588.64 414.674 2588.64 474.176 2588.64 474.176C2588.64 474.176 2595.24 410.266 2621.65 390.432C2648.05 368.394 2703.07 366.19 2703.07 366.19C2703.07 366.19 2641.45 366.19 2617.25 341.948C2593.04 315.503 2588.64 256 2588.64 256Z" fill="white"/>
<path d="M777.582 1104.46C777.582 1104.46 821.593 1139.72 832.596 1161.76C843.599 1183.8 799.588 1260.93 799.588 1260.93C799.588 1260.93 843.599 1201.43 874.406 1197.02C905.214 1194.82 953.626 1225.67 953.626 1225.67C953.626 1225.67 905.214 1183.8 900.813 1150.74C896.412 1117.69 925.019 1069.2 925.019 1069.2C925.019 1069.2 889.81 1119.89 856.802 1126.5C823.794 1133.11 777.582 1104.46 777.582 1104.46Z" fill="white"/>
<path d="M2645.85 4410.16C2645.85 4410.16 2665.66 4412.37 2672.26 4416.78C2678.86 4421.18 2681.06 4452.04 2681.06 4452.04C2681.06 4452.04 2683.26 4425.59 2692.06 4418.98C2700.87 4412.37 2720.67 4412.37 2720.67 4412.37C2720.67 4412.37 2698.66 4410.16 2692.06 4401.35C2685.46 4392.53 2683.26 4372.7 2683.26 4372.7C2683.26 4372.7 2683.26 4394.74 2674.46 4401.35C2667.86 4410.16 2645.85 4410.16 2645.85 4410.16Z" fill="white"/>
<path d="M1004.24 1525.39C1004.24 1525.39 1024.05 1527.59 1030.65 1532C1037.25 1536.41 1039.45 1567.26 1039.45 1567.26C1039.45 1567.26 1041.65 1540.82 1050.45 1534.2C1059.26 1527.59 1079.06 1527.59 1079.06 1527.59C1079.06 1527.59 1057.06 1525.39 1050.45 1516.57C1043.85 1507.76 1041.65 1487.92 1041.65 1487.92C1041.65 1487.92 1041.65 1509.96 1032.85 1516.57C1024.05 1523.19 1004.24 1525.39 1004.24 1525.39Z" fill="white"/>
<path d="M143.824 2241.62C143.824 2241.62 163.629 2243.83 170.231 2248.24C176.833 2252.64 179.033 2283.5 179.033 2283.5C179.033 2283.5 181.234 2257.05 190.036 2250.44C198.838 2243.83 218.643 2243.83 218.643 2243.83C218.643 2243.83 196.637 2241.62 190.036 2232.81C183.434 2223.99 181.234 2204.16 181.234 2204.16C181.234 2204.16 181.234 2226.2 172.431 2232.81C163.629 2241.62 143.824 2241.62 143.824 2241.62Z" fill="white"/>
<path d="M2366.38 1708.3C2366.38 1708.3 2386.19 1710.51 2392.79 1714.92C2399.39 1719.32 2401.59 1750.18 2401.59 1750.18C2401.59 1750.18 2403.79 1723.73 2412.59 1717.12C2421.4 1710.51 2441.2 1710.51 2441.2 1710.51C2441.2 1710.51 2419.2 1708.3 2412.59 1699.49C2405.99 1690.67 2403.79 1670.84 2403.79 1670.84C2403.79 1670.84 2403.79 1692.88 2394.99 1699.49C2388.39 1706.1 2366.38 1708.3 2366.38 1708.3Z" fill="white"/>
<path d="M3400.64 1670.84C3400.64 1670.84 3427.05 1673.04 3435.85 1679.66C3444.66 1686.27 3449.06 1725.93 3449.06 1725.93C3449.06 1725.93 3451.26 1690.67 3462.26 1681.86C3473.26 1673.04 3499.67 1673.04 3499.67 1673.04C3499.67 1673.04 3471.06 1668.64 3460.06 1657.62C3451.26 1646.6 3449.06 1620.15 3449.06 1620.15C3449.06 1620.15 3449.06 1648.8 3438.05 1659.82C3427.05 1668.64 3400.64 1670.84 3400.64 1670.84Z" fill="#FBC155"/>
<path d="M724.77 3951.77C724.77 3951.77 777.583 3956.18 797.388 3969.4C817.193 3980.42 823.794 4064.17 823.794 4064.17C823.794 4064.17 828.196 3993.65 850.201 3973.81C872.207 3956.18 929.421 3956.18 929.421 3956.18C929.421 3956.18 870.006 3949.57 850.201 3923.12C830.396 3898.88 828.196 3845.99 828.196 3845.99C828.196 3845.99 825.995 3905.49 803.99 3927.53C779.783 3947.37 724.77 3951.77 724.77 3951.77Z" fill="#FBC155"/>
<path d="M1477.36 590.978C1506.53 590.978 1530.17 567.297 1530.17 538.086C1530.17 508.875 1506.53 485.195 1477.36 485.195C1448.19 485.195 1424.55 508.875 1424.55 538.086C1424.55 567.297 1448.19 590.978 1477.36 590.978Z" fill="#FCCC74"/>
<mask id="mask0_145_467" style="mask-type:luminance" maskUnits="userSpaceOnUse" x="2562" y="4584" width="408" height="285">
<path d="M2562.23 4705.47C2562.23 4705.47 2586.44 4784.81 2652.46 4828.89C2718.47 4872.96 2784.49 4868.55 2784.49 4868.55C2784.49 4868.55 2766.89 4868.55 2753.68 4846.52C2753.68 4846.52 2861.51 4879.57 2969.34 4828.89C2969.34 4828.89 2916.52 4707.68 2854.91 4683.44C2854.91 4683.44 2870.31 4676.82 2885.72 4685.64C2885.72 4685.64 2843.91 4608.51 2751.48 4590.88C2659.06 4573.25 2632.65 4597.49 2632.65 4597.49L2562.23 4705.47Z" fill="white"/>
</mask>
<g mask="url(#mask0_145_467)">
<path d="M2562.23 4705.47C2562.23 4705.47 2586.44 4784.81 2652.46 4828.89C2718.47 4872.96 2784.49 4868.55 2784.49 4868.55C2784.49 4868.55 2766.89 4868.55 2753.68 4846.52C2753.68 4846.52 2861.51 4879.57 2969.34 4828.89C2969.34 4828.89 2916.52 4707.68 2854.91 4683.44C2854.91 4683.44 2870.31 4676.82 2885.72 4685.64C2885.72 4685.64 2843.91 4608.51 2751.48 4590.88C2659.06 4573.25 2632.65 4597.49 2632.65 4597.49L2562.23 4705.47Z" fill="#EA5848"/>
</g>
<mask id="mask1_145_467" style="mask-type:luminance" maskUnits="userSpaceOnUse" x="2562" y="4584" width="408" height="285">
<path d="M2562.23 4705.47C2562.23 4705.47 2586.44 4784.81 2652.46 4828.89C2718.47 4872.96 2784.49 4868.55 2784.49 4868.55C2784.49 4868.55 2766.89 4868.55 2753.68 4846.52C2753.68 4846.52 2861.51 4879.57 2969.34 4828.89C2969.34 4828.89 2916.52 4707.68 2854.91 4683.44C2854.91 4683.44 2870.31 4676.82 2885.72 4685.64C2885.72 4685.64 2843.91 4608.51 2751.48 4590.88C2659.06 4573.25 2632.65 4597.49 2632.65 4597.49L2562.23 4705.47Z" fill="white"/>
</mask>
<g mask="url(#mask1_145_467)">
<g opacity="0.15">
<path d="M2551.23 4612.91C2551.23 4612.91 2577.64 4745.14 2760.28 4782.61C2942.93 4820.07 3035.35 4780.4 3035.35 4780.4C3035.35 4780.4 2971.54 4919.24 2731.68 4886.18C2491.82 4850.92 2551.23 4612.91 2551.23 4612.91Z" fill="black"/>
</g>
</g>
<path d="M2353.18 4639.36C2353.18 4639.36 2417 4729.71 2419.2 4791.42C2419.2 4791.42 2551.23 4848.72 2590.84 4897.2C2590.84 4897.2 2597.44 4791.42 2549.03 4703.27L2353.18 4639.36Z" fill="#DAB266"/>
<path d="M2441.2 4447.63C2441.2 4447.63 2562.23 4443.22 2612.85 4410.16C2612.85 4410.16 2694.27 4482.89 2753.68 4498.32C2753.68 4498.32 2685.46 4560.02 2599.64 4586.47L2441.2 4447.63Z" fill="#FCCC74"/>
<mask id="mask2_145_467" style="mask-type:luminance" maskUnits="userSpaceOnUse" x="1888" y="4227" width="754" height="501">
<path d="M1888.86 4295.57C1888.86 4295.57 1899.87 4396.94 1943.88 4460.85C1987.89 4524.76 2049.5 4573.24 2135.33 4601.89C2221.15 4630.54 2331.17 4654.79 2425.8 4679.03C2522.62 4703.27 2571.03 4727.51 2571.03 4727.51C2571.03 4727.51 2612.85 4692.25 2628.25 4654.79C2643.65 4617.32 2641.45 4597.49 2641.45 4597.49C2641.45 4597.49 2529.22 4533.58 2405.99 4407.96C2289.36 4286.75 2163.93 4139.1 1888.86 4295.57Z" fill="white"/>
</mask>
<g mask="url(#mask2_145_467)">
<path d="M1888.86 4295.57C1888.86 4295.57 1899.87 4396.94 1943.88 4460.85C1987.89 4524.76 2049.5 4573.24 2135.33 4601.89C2221.15 4630.54 2331.17 4654.79 2425.8 4679.03C2522.62 4703.27 2571.03 4727.51 2571.03 4727.51C2571.03 4727.51 2612.85 4692.25 2628.25 4654.79C2643.65 4617.32 2641.45 4597.49 2641.45 4597.49C2641.45 4597.49 2529.22 4533.58 2405.99 4407.96C2289.36 4286.75 2163.93 4139.1 1888.86 4295.57Z" fill="#E8E8E8"/>
</g>
<mask id="mask3_145_467" style="mask-type:luminance" maskUnits="userSpaceOnUse" x="1888" y="4227" width="754" height="501">
<path d="M1888.86 4295.57C1888.86 4295.57 1899.87 4396.94 1943.88 4460.85C1987.89 4524.76 2049.5 4573.24 2135.33 4601.89C2221.15 4630.54 2331.17 4654.79 2425.8 4679.03C2522.62 4703.27 2571.03 4727.51 2571.03 4727.51C2571.03 4727.51 2612.85 4692.25 2628.25 4654.79C2643.65 4617.32 2641.45 4597.49 2641.45 4597.49C2641.45 4597.49 2529.22 4533.58 2405.99 4407.96C2289.36 4286.75 2163.93 4139.1 1888.86 4295.57Z" fill="white"/>
</mask>
<g mask="url(#mask3_145_467)">
<path d="M1985.69 4526.97C1985.69 4526.97 2036.3 4489.5 2089.11 4405.76C2141.93 4322.01 2135.33 4218.43 2135.33 4218.43L2174.94 4231.66C2174.94 4231.66 2185.94 4319.81 2152.93 4394.74C2119.92 4469.67 2078.11 4524.76 2027.5 4560.02L1985.69 4526.97Z" fill="#EA5848"/>
<path d="M2265.16 4654.79C2265.16 4654.79 2322.37 4621.73 2375.19 4555.61C2428 4487.3 2419.2 4401.35 2419.2 4401.35L2439 4418.98C2439 4418.98 2445.61 4478.48 2403.79 4549C2361.98 4619.53 2287.17 4661.4 2287.17 4661.4L2265.16 4654.79Z" fill="#EA5848"/>
<g opacity="0.15">
<path d="M1855.86 4242.67L1886.66 4293.36C1886.66 4293.36 1963.68 4491.7 2201.34 4557.82C2439 4623.93 2639.25 4652.58 2718.47 4701.07L2597.44 4824.48C2597.44 4824.48 2463.21 4705.47 2258.56 4674.62C2056.11 4645.97 1838.25 4535.78 1855.86 4242.67Z" fill="black"/>
</g>
</g>
<path d="M2148.53 4480.69C2148.53 4480.69 2201.34 4403.55 2205.74 4374.9L2379.59 4491.7C2379.59 4491.7 2361.98 4542.39 2342.18 4564.43L2148.53 4480.69Z" fill="#0EB2C2"/>
<mask id="mask4_145_467" style="mask-type:luminance" maskUnits="userSpaceOnUse" x="2168" y="4396" width="199" height="156">
<path d="M2168.33 4476.28C2168.33 4476.28 2205.74 4432.2 2212.34 4396.94L2366.38 4493.91C2366.38 4493.91 2364.18 4524.76 2337.77 4551.21L2168.33 4476.28Z" fill="white"/>
</mask>
<g mask="url(#mask4_145_467)">
<path d="M2168.33 4476.28C2168.33 4476.28 2205.74 4432.2 2212.34 4396.94L2366.38 4493.91C2366.38 4493.91 2364.18 4524.76 2337.77 4551.21L2168.33 4476.28Z" fill="#FCCC74"/>
</g>
<mask id="mask5_145_467" style="mask-type:luminance" maskUnits="userSpaceOnUse" x="2168" y="4396" width="199" height="156">
<path d="M2168.33 4476.28C2168.33 4476.28 2205.74 4432.2 2212.34 4396.94L2366.38 4493.91C2366.38 4493.91 2364.18 4524.76 2337.77 4551.21L2168.33 4476.28Z" fill="white"/>
</mask>
<g mask="url(#mask5_145_467)">
<g opacity="0.5">
<path d="M2161.73 4502.72L2293.76 4405.76L2306.97 4412.37L2174.93 4511.54L2161.73 4502.72Z" fill="white"/>
</g>
<g opacity="0.5">
<path d="M2188.14 4513.74L2317.97 4416.78L2331.17 4423.39L2199.14 4522.56L2188.14 4513.74Z" fill="white"/>
</g>
<g opacity="0.5">
<path d="M2254.15 4557.82L2383.98 4458.65L2399.39 4467.46L2267.36 4566.63L2254.15 4557.82Z" fill="white"/>
</g>
</g>
<mask id="mask6_145_467" style="mask-type:luminance" maskUnits="userSpaceOnUse" x="2168" y="4396" width="199" height="156">
<path d="M2168.33 4476.28C2168.33 4476.28 2205.74 4432.2 2212.34 4396.94L2366.38 4493.91C2366.38 4493.91 2364.18 4524.76 2337.77 4551.21L2168.33 4476.28Z" fill="white"/>
</mask>
<g mask="url(#mask6_145_467)">
<g opacity="0.15">
<path d="M2157.33 4447.63C2157.33 4447.63 2177.13 4471.87 2214.54 4474.07C2251.95 4478.48 2258.55 4491.7 2282.76 4509.33C2306.97 4524.76 2377.38 4529.17 2377.38 4529.17L2337.77 4573.24L2130.92 4489.5L2157.33 4447.63Z" fill="black"/>
</g>
</g>
<mask id="mask7_145_467" style="mask-type:luminance" maskUnits="userSpaceOnUse" x="2412" y="4544" width="395" height="199">
<path d="M2412.59 4562.23C2412.59 4562.23 2436.8 4590.88 2436.8 4623.93L2806.49 4742.94L2480.81 4544.6C2480.81 4542.39 2447.8 4566.63 2412.59 4562.23Z" fill="white"/>
</mask>
<g mask="url(#mask7_145_467)">
<path d="M2412.59 4562.23C2412.59 4562.23 2436.8 4590.88 2436.8 4623.93L2806.49 4742.94L2480.81 4544.6C2480.81 4542.39 2447.8 4566.63 2412.59 4562.23Z" fill="#FCCC74"/>
</g>
<mask id="mask8_145_467" style="mask-type:luminance" maskUnits="userSpaceOnUse" x="2412" y="4544" width="395" height="199">
<path d="M2412.59 4562.23C2412.59 4562.23 2436.8 4590.88 2436.8 4623.93L2806.49 4742.94L2480.81 4544.6C2480.81 4542.39 2447.8 4566.63 2412.59 4562.23Z" fill="white"/>
</mask>
<g mask="url(#mask8_145_467)">
<g opacity="0.15">
<path d="M2403.79 4555.61L2824.1 4751.75L2410.39 4634.95L2403.79 4555.61Z" fill="black"/>
</g>
</g>
<g opacity="0.5">
<path d="M1946.08 4286.75C1946.08 4286.75 2124.32 4218.43 2287.16 4322.01C2287.16 4322.01 2157.33 4174.36 1946.08 4286.75Z" fill="white"/>
</g>
<path d="M2507.22 4456.44C2544.63 4452.04 2579.84 4441.02 2612.84 4425.59C2615.04 4423.39 2612.84 4421.18 2610.64 4421.18C2577.64 4436.61 2542.43 4447.63 2505.02 4452.04C2502.82 4454.24 2505.02 4456.44 2507.22 4456.44Z" fill="#161B32"/>
<path d="M2394.99 4687.84C2410.39 4714.29 2421.4 4742.94 2425.8 4773.79C2425.8 4775.99 2430.2 4775.99 2430.2 4773.79C2425.8 4742.94 2414.8 4714.29 2399.39 4687.84C2397.19 4683.44 2392.79 4685.64 2394.99 4687.84Z" fill="#161B32"/>
<path d="M2430.2 4573.24C2463.21 4586.47 2491.82 4604.1 2524.82 4617.32C2527.02 4617.32 2529.23 4615.12 2527.02 4612.91C2494.02 4601.89 2465.41 4582.06 2432.4 4568.84C2430.2 4568.84 2428 4573.24 2430.2 4573.24Z" fill="#161B32"/>
<path d="M2538.02 4621.73C2551.23 4630.54 2564.43 4634.95 2579.84 4641.56C2582.04 4641.56 2584.24 4639.36 2582.04 4637.16C2568.83 4630.54 2553.43 4626.14 2540.23 4617.32C2538.02 4615.12 2535.82 4619.53 2538.02 4621.73Z" fill="#161B32"/>
<path d="M2590.84 4727.51C2604.04 4753.96 2619.45 4775.99 2639.25 4795.83C2641.45 4798.03 2643.65 4795.83 2641.45 4793.63C2621.65 4773.79 2606.24 4751.75 2593.04 4725.31C2593.04 4723.1 2590.84 4725.31 2590.84 4727.51Z" fill="#161B32"/>
<path d="M2650.25 4806.85C2654.66 4811.26 2661.26 4815.66 2667.86 4817.87C2670.06 4820.07 2672.26 4815.66 2670.06 4813.46C2663.46 4811.26 2659.06 4806.85 2654.65 4802.44C2652.45 4800.24 2650.25 4804.64 2650.25 4806.85Z" fill="#161B32"/>
<path d="M2826.3 4842.11C2846.1 4842.11 2865.91 4839.9 2883.51 4835.5C2885.71 4835.5 2885.71 4831.09 2883.51 4831.09C2863.71 4833.29 2846.1 4835.5 2826.3 4837.7C2824.1 4839.9 2824.1 4844.31 2826.3 4842.11Z" fill="#161B32"/>
<path d="M2898.92 4835.5C2903.32 4835.5 2905.52 4835.5 2907.72 4833.29C2909.92 4833.29 2909.92 4828.89 2907.72 4828.89C2905.52 4828.89 2901.12 4831.09 2898.92 4831.09C2896.72 4831.09 2896.72 4835.5 2898.92 4835.5Z" fill="#161B32"/>
<path d="M2760.28 4610.71C2777.89 4610.71 2793.29 4619.52 2808.7 4628.34C2810.9 4630.54 2813.1 4626.14 2810.9 4623.93C2795.49 4615.12 2780.09 4608.51 2760.28 4606.3C2758.08 4606.3 2758.08 4610.71 2760.28 4610.71Z" fill="#161B32"/>
<path d="M2819.7 4634.95C2821.9 4637.16 2826.3 4639.36 2828.5 4641.56C2830.7 4643.77 2832.9 4641.56 2830.7 4639.36C2828.5 4637.16 2824.1 4634.95 2821.9 4632.75C2819.7 4630.54 2817.5 4634.95 2819.7 4634.95Z" fill="#161B32"/>
<path d="M2443.4 4463.05C2458.81 4478.48 2474.21 4493.91 2489.62 4509.33C2491.82 4511.54 2494.02 4507.13 2491.82 4507.13C2476.41 4493.91 2458.81 4478.48 2445.6 4460.85C2443.4 4458.65 2441.2 4460.85 2443.4 4463.05Z" fill="#161B32"/>
<path d="M2498.42 4518.15C2502.82 4522.56 2505.02 4524.76 2509.42 4529.17C2511.62 4531.37 2513.82 4526.97 2511.62 4524.76C2507.22 4522.56 2502.82 4518.15 2500.62 4515.95C2498.42 4511.54 2496.21 4515.95 2498.42 4518.15Z" fill="#161B32"/>
<path d="M2192.54 4262.51C2212.35 4266.92 2236.55 4277.94 2251.96 4293.36C2254.16 4295.57 2256.36 4293.36 2254.16 4291.16C2238.75 4275.73 2214.55 4264.71 2192.54 4260.31C2190.34 4258.1 2190.34 4260.31 2192.54 4262.51Z" fill="#161B32"/>
<path d="M2267.36 4302.18C2269.56 4304.38 2273.96 4308.79 2276.16 4310.99C2278.36 4313.2 2280.56 4310.99 2278.36 4308.79C2276.16 4306.59 2271.76 4302.18 2269.56 4299.97C2267.36 4297.77 2265.16 4302.18 2267.36 4302.18Z" fill="#161B32"/>
</svg>
