<svg width="3136" height="3136" viewBox="0 0 3136 3136" fill="none" xmlns="http://www.w3.org/2000/svg">
<g clip-path="url(#clip0_114_687)">
<path d="M146.188 867.712C156.545 872.998 166.02 879.891 174.269 888.142C180.474 896.867 168.38 933.895 168.38 933.895C168.38 933.895 182.998 904.102 196.04 900.271C209.081 896.441 233.06 906.656 233.06 906.656C233.06 906.656 208.871 892.61 204.769 878.352C202.974 865.613 204.385 852.621 208.871 840.58C208.871 840.58 197.828 865.691 184.261 871.011C170.693 876.331 146.188 867.712 146.188 867.712Z" fill="white"/>
<mask id="path-2-inside-1_114_687" fill="white">
<path d="M127.152 2042.18C126.6 2042.17 126.063 2042 125.613 2041.67C125.162 2041.35 124.819 2040.9 124.628 2040.37C-2.5648 1663.56 18.987 1251.61 184.786 890.482C185.084 889.824 185.626 889.311 186.294 889.052C186.963 888.793 187.705 888.81 188.362 889.099C188.684 889.247 188.974 889.46 189.213 889.724C189.452 889.988 189.636 890.298 189.754 890.636C189.872 890.974 189.921 891.332 189.899 891.69C189.876 892.048 189.783 892.397 189.624 892.717C24.4402 1252.58 2.96449 1663.07 129.676 2038.56C129.911 2039.26 129.866 2040.01 129.551 2040.67C129.235 2041.33 128.675 2041.83 127.993 2042.08L127.152 2042.18Z"/>
</mask>
<path d="M127.152 2042.18C126.6 2042.17 126.063 2042 125.613 2041.67C125.162 2041.35 124.819 2040.9 124.628 2040.37C-2.5648 1663.56 18.987 1251.61 184.786 890.482C185.084 889.824 185.626 889.311 186.294 889.052C186.963 888.793 187.705 888.81 188.362 889.099C188.684 889.247 188.974 889.46 189.213 889.724C189.452 889.988 189.636 890.298 189.754 890.636C189.872 890.974 189.921 891.332 189.899 891.69C189.876 892.048 189.783 892.397 189.624 892.717C24.4402 1252.58 2.96449 1663.07 129.676 2038.56C129.911 2039.26 129.866 2040.01 129.551 2040.67C129.235 2041.33 128.675 2041.83 127.993 2042.08L127.152 2042.18Z" fill="white"/>
<path d="M127.152 2042.18L127.029 2050.18L127.595 2050.19L128.156 2050.12L127.152 2042.18ZM124.628 2040.37L117.048 2042.93L117.079 2043.02L117.112 2043.11L124.628 2040.37ZM184.786 890.482L192.056 893.82L192.064 893.804L192.071 893.787L184.786 890.482ZM188.362 889.099L191.7 881.829L191.642 881.802L191.583 881.777L188.362 889.099ZM189.624 892.717L182.46 889.155L182.405 889.266L182.353 889.38L189.624 892.717ZM129.676 2038.56L122.096 2041.12L122.099 2041.13L122.102 2041.14L129.676 2038.56ZM127.993 2042.08L128.997 2050.01L129.851 2049.9L130.662 2049.62L127.993 2042.08ZM127.274 2034.18C128.358 2034.2 129.403 2034.55 130.273 2035.17L120.953 2048.18C122.723 2049.45 124.842 2050.15 127.029 2050.18L127.274 2034.18ZM130.273 2035.17C131.141 2035.79 131.787 2036.66 132.144 2037.63L117.112 2043.11C117.85 2045.14 119.184 2046.91 120.953 2048.18L130.273 2035.17ZM132.208 2037.82C5.66692 1662.93 27.1094 1253.09 192.056 893.82L177.515 887.144C10.8645 1250.13 -10.7965 1664.19 117.048 2042.93L132.208 2037.82ZM192.071 893.787C191.512 895.019 190.485 896.009 189.181 896.513L183.408 881.591C180.767 882.612 178.656 884.629 177.5 887.178L192.071 893.787ZM189.181 896.513C187.874 897.019 186.42 896.985 185.14 896.422L191.583 881.777C188.99 880.636 186.052 880.568 183.408 881.591L189.181 896.513ZM185.023 896.369C184.358 896.064 183.768 895.629 183.285 895.096L195.141 884.352C194.179 883.29 193.01 882.431 191.7 881.829L185.023 896.369ZM183.285 895.096C182.801 894.562 182.434 893.941 182.201 893.271L197.308 888.001C196.838 886.656 196.103 885.414 195.141 884.352L183.285 895.096ZM182.201 893.271C181.967 892.602 181.87 891.894 181.915 891.189L197.883 892.191C197.972 890.771 197.777 889.346 197.308 888.001L182.201 893.271ZM181.915 891.189C181.959 890.484 182.143 889.792 182.46 889.155L196.787 896.279C197.422 895.001 197.794 893.611 197.883 892.191L181.915 891.189ZM182.353 889.38C16.3179 1251.1 -5.26713 1663.7 122.096 2041.12L137.256 2036.01C11.1961 1662.44 32.5626 1254.06 196.894 896.054L182.353 889.38ZM122.102 2041.14C121.664 2039.85 121.747 2038.45 122.336 2037.21L136.765 2044.13C137.986 2041.58 138.158 2038.66 137.25 2035.99L122.102 2041.14ZM122.336 2037.21C122.928 2035.98 123.992 2035.01 125.324 2034.53L130.662 2049.62C133.358 2048.66 135.543 2046.68 136.765 2044.13L122.336 2037.21ZM126.989 2034.14L126.148 2034.25L128.156 2050.12L128.997 2050.01L126.989 2034.14Z" fill="white" mask="url(#path-2-inside-1_114_687)"/>
<path d="M40.8065 1185.22C13.6746 1301.76 -0.0188397 1421.08 1.94535e-05 1540.81C1.94535e-05 1541.52 0.277033 1542.2 0.770119 1542.69C1.26321 1543.19 1.93197 1543.47 2.6293 1543.47L43.9617 1183.2M40.8065 1185.22L42.0743 1185.54L42.064 1185.59C14.9784 1302.01 1.32056 1421.21 1.36376 1540.81C1.36376 1540.81 1.36376 1540.81 1.36376 1540.82L2.6293 1540.81H2.63129L2.67206 1540.81H2.69116L5.36336 1540.81L4.00001 1540.76C3.98512 1421.38 17.6379 1302.4 44.6853 1186.2C44.6885 1186.18 44.6918 1186.17 44.695 1186.16C44.6974 1186.14 44.6999 1186.13 44.7023 1186.12L43.7418 1185.9L43.4562 1185.83L43.458 1185.82L43.4657 1185.78L43.4752 1185.73L43.491 1185.65L43.9617 1183.2M40.8065 1185.22L42.0814 1185.51L42.0958 1185.46C42.091 1185.48 42.0866 1185.5 42.0826 1185.51L43.3264 1185.8L43.3515 1185.81L43.3748 1185.81L43.4044 1185.82L43.4067 1185.81L43.4104 1185.79L43.4108 1185.79L43.4152 1185.77L43.419 1185.75L43.9617 1183.2M40.8065 1185.22C40.9811 1184.54 41.404 1183.95 41.9898 1183.58C42.5756 1183.2 43.2804 1183.06 43.9617 1183.2M42.0683 1185.59C42.0707 1185.57 42.0734 1185.56 42.0764 1185.54L43.1728 1185.83L43.2797 1185.85L43.3372 1185.87L43.3917 1185.88L43.3887 1185.9L43.1314 1187.11C42.9426 1187.07 42.7669 1186.99 42.6145 1186.88C42.4622 1186.77 42.3363 1186.64 42.2425 1186.48C42.149 1186.33 42.089 1186.16 42.0643 1185.98C42.0457 1185.85 42.047 1185.72 42.0683 1185.59ZM43.4419 1185.91L43.4444 1185.9L43.4818 1185.9L43.9881 1186.04L44.6805 1186.21C44.6054 1186.51 44.4203 1186.77 44.1478 1186.94C43.874 1187.12 43.5375 1187.19 43.209 1187.12L43.4419 1185.91ZM3.61496 1539.88C3.85393 1540.12 3.98615 1540.44 3.99899 1540.76L2.77276 1540.72L2.63137 1540.71L2.6293 1540.71L2.58748 1540.71L1.36665 1540.66C1.37824 1540.36 1.50607 1540.06 1.73745 1539.83C1.96954 1539.61 2.28831 1539.47 2.6293 1539.47C2.6303 1539.47 2.6313 1539.47 2.6323 1539.47C3.00997 1539.47 3.36235 1539.63 3.61496 1539.88Z" fill="white" stroke="white" stroke-width="8"/>
<mask id="path-5-inside-2_114_687" fill="white">
<path d="M745.981 2838.18C745.495 2838.27 744.995 2838.27 744.509 2838.18C494.595 2676.51 296.829 2444.48 175.532 2170.61C175.239 2169.96 175.207 2169.22 175.442 2168.54C175.677 2167.87 176.162 2167.31 176.794 2166.99C177.45 2166.7 178.192 2166.69 178.861 2166.95C179.529 2167.2 180.071 2167.72 180.369 2168.38C301.315 2441.16 498.423 2672.23 747.453 2833.18C747.758 2833.36 748.021 2833.61 748.226 2833.9C748.431 2834.19 748.572 2834.52 748.642 2834.88C748.711 2835.23 748.707 2835.59 748.629 2835.94C748.551 2836.29 748.401 2836.62 748.19 2836.9C747.966 2837.29 747.644 2837.62 747.256 2837.84C746.868 2838.07 746.428 2838.18 745.981 2838.18Z"/>
</mask>
<path d="M745.981 2838.18C745.495 2838.27 744.995 2838.27 744.509 2838.18C494.595 2676.51 296.829 2444.48 175.532 2170.61C175.239 2169.96 175.207 2169.22 175.442 2168.54C175.677 2167.87 176.162 2167.31 176.794 2166.99C177.45 2166.7 178.192 2166.69 178.861 2166.95C179.529 2167.2 180.071 2167.72 180.369 2168.38C301.315 2441.16 498.423 2672.23 747.453 2833.18C747.758 2833.36 748.021 2833.61 748.226 2833.9C748.431 2834.19 748.572 2834.52 748.642 2834.88C748.711 2835.23 748.707 2835.59 748.629 2835.94C748.551 2836.29 748.401 2836.62 748.19 2836.9C747.966 2837.29 747.644 2837.62 747.256 2837.84C746.868 2838.07 746.428 2838.18 745.981 2838.18Z" fill="white"/>
<path d="M745.981 2838.18L746.054 2830.18L745.245 2830.17L744.45 2830.33L745.981 2838.18ZM744.509 2838.18L740.163 2844.9L741.461 2845.74L742.978 2846.03L744.509 2838.18ZM175.532 2170.61L182.846 2167.37L182.837 2167.35L182.828 2167.33L175.532 2170.61ZM176.794 2166.99L173.572 2159.67L173.368 2159.76L173.17 2159.86L176.794 2166.99ZM180.369 2168.38L187.683 2165.13L187.669 2165.1L187.655 2165.07L180.369 2168.38ZM747.453 2833.18L743.111 2839.9L743.224 2839.97L743.34 2840.04L747.453 2833.18ZM748.19 2836.9L741.751 2832.15L741.473 2832.53L741.241 2832.94L748.19 2836.9ZM744.45 2830.33C744.975 2830.23 745.515 2830.23 746.039 2830.33L742.978 2846.03C744.475 2846.32 746.014 2846.32 747.512 2846.03L744.45 2830.33ZM748.854 2831.46C500.256 2670.65 303.518 2439.83 182.846 2167.37L168.217 2173.85C290.141 2449.13 488.934 2682.38 740.163 2844.9L748.854 2831.46ZM182.828 2167.33C183.375 2168.55 183.434 2169.92 182.996 2171.18L167.888 2165.91C166.98 2168.51 167.103 2171.37 168.235 2173.89L182.828 2167.33ZM182.996 2171.18C182.556 2172.44 181.643 2173.5 180.417 2174.13L173.17 2159.86C170.681 2161.13 168.798 2163.3 167.888 2165.91L182.996 2171.18ZM180.015 2174.32C178.735 2174.88 177.281 2174.91 175.974 2174.41L181.747 2159.48C179.103 2158.46 176.165 2158.53 173.572 2159.67L180.015 2174.32ZM175.974 2174.41C174.671 2173.9 173.643 2172.91 173.084 2171.68L187.655 2165.07C186.499 2162.52 184.387 2160.51 181.747 2159.48L175.974 2174.41ZM173.056 2171.62C294.629 2445.81 492.764 2678.1 743.111 2839.9L751.796 2826.46C504.082 2666.36 308.002 2436.5 187.683 2165.13L173.056 2171.62ZM743.34 2840.04C742.676 2839.64 742.11 2839.11 741.674 2838.49L754.778 2829.31C753.932 2828.1 752.84 2827.08 751.567 2826.32L743.34 2840.04ZM741.674 2838.49C741.238 2837.87 740.939 2837.16 740.794 2836.43L756.49 2833.32C756.205 2831.88 755.624 2830.52 754.778 2829.31L741.674 2838.49ZM740.794 2836.43C740.648 2835.69 740.657 2834.93 740.821 2834.2L756.437 2837.68C756.757 2836.25 756.774 2834.76 756.49 2833.32L740.794 2836.43ZM740.821 2834.2C740.984 2833.46 741.3 2832.77 741.751 2832.15L754.628 2841.65C755.503 2840.47 756.118 2839.11 756.437 2837.68L740.821 2834.2ZM741.241 2832.94C741.716 2832.11 742.407 2831.41 743.252 2830.92L751.26 2844.77C752.881 2843.83 754.217 2842.48 755.138 2840.87L741.241 2832.94ZM743.252 2830.92C744.098 2830.43 745.065 2830.17 746.054 2830.18L745.909 2846.18C747.791 2846.2 749.638 2845.71 751.26 2844.77L743.252 2830.92Z" fill="white" mask="url(#path-5-inside-2_114_687)"/>
<path d="M272.289 535.311C283.501 536.034 294.535 538.511 304.997 542.653C313.516 547.973 316.356 585.214 316.356 585.214C316.356 585.214 318.354 553.293 328.451 545.525C338.547 537.758 363.157 537.332 363.157 537.332C363.157 537.332 336.864 533.928 328.03 522.968C321.901 512.581 318.464 500.796 318.039 488.707C318.039 488.707 317.513 514.775 307.521 524.458C297.53 534.14 272.289 535.311 272.289 535.311Z" fill="#FBC155"/>
<path d="M410.168 2515.25C410.168 2521.01 408.478 2526.65 405.312 2531.45C402.145 2536.24 397.645 2539.98 392.379 2542.18C387.113 2544.39 381.319 2544.97 375.729 2543.84C370.139 2542.72 365.005 2539.94 360.975 2535.86C356.944 2531.79 354.2 2526.59 353.088 2520.94C351.976 2515.28 352.547 2509.42 354.728 2504.09C356.909 2498.76 360.602 2494.21 365.341 2491.01C370.08 2487.8 375.652 2486.09 381.351 2486.09C388.994 2486.09 396.324 2489.17 401.728 2494.63C407.132 2500.1 410.168 2507.52 410.168 2515.25Z" fill="#EA5848"/>
<path d="M54.5844 1765.96C83.6848 1765.96 107.275 1742.1 107.275 1712.65C107.275 1683.21 83.6848 1659.35 54.5844 1659.35C25.4841 1659.35 1.89355 1683.21 1.89355 1712.65C1.89355 1742.1 25.4841 1765.96 54.5844 1765.96Z" fill="#FCCC74"/>
<path d="M1731.54 46.8171C1744.32 46.8171 1754.68 36.3367 1754.68 23.4085C1754.68 10.4804 1744.32 0 1731.54 0C1718.76 0 1708.4 10.4804 1708.4 23.4085C1708.4 36.3367 1718.76 46.8171 1731.54 46.8171Z" fill="#FCCC74"/>
<path d="M471.799 509.349C471.799 509.349 878.497 16.1733 1573.68 16.1733C2268.86 16.1733 2687.02 470.086 2687.02 470.086" stroke="white" stroke-width="8" stroke-miterlimit="10"/>
<path d="M2927.97 801.956C2927.97 801.956 3355.6 1645.41 2826.9 2432.47C2298.21 3219.53 1332.84 3090.89 1332.84 3090.89" stroke="white" stroke-width="8" stroke-miterlimit="10"/>
<path d="M1835.24 3116.42C1843.96 3121.56 1853.81 3124.4 1863.9 3124.7C1873.98 3125 1883.98 3122.74 1892.98 3118.12C1884.97 3116.32 1876.79 3115.43 1868.58 3115.46C1857.46 3114.73 1846.3 3115.05 1835.24 3116.42Z" fill="#3F82C3"/>
<path d="M1906.55 3018.21C1897.93 3010.25 1887.23 3004.97 1875.73 3003C1872.63 3004.55 1869.39 3005.8 1866.06 3006.72C1857.1 3008.57 1847.93 3009.15 1838.82 3008.42C1826.76 3014.46 1817.03 3024.38 1811.16 3036.62C1828.7 3026.52 1848.32 3020.66 1868.47 3019.49C1881.1 3018.85 1893.82 3018.11 1906.55 3018.21Z" fill="#2F6AB1"/>
<path d="M1866.06 3006.72C1869.39 3005.8 1872.63 3004.55 1875.73 3003C1872.26 3002.42 1868.74 3002.13 1865.21 3002.15C1855.92 3002.12 1846.74 3004.27 1838.4 3008.42C1847.65 3009.19 1856.96 3008.61 1866.06 3006.72Z" fill="#3F82C3"/>
<path d="M1858.27 3101.95C1849.85 3101.88 1841.44 3102.56 1833.14 3103.97C1829.58 3104.67 1826.06 3105.59 1822.62 3106.74C1826.36 3110.5 1830.57 3113.76 1835.14 3116.42C1846.19 3115.05 1857.36 3114.73 1868.47 3115.46C1876.68 3115.43 1884.87 3116.32 1892.87 3118.12C1898.02 3115.5 1902.77 3112.13 1906.97 3108.12C1901.99 3105.85 1896.86 3103.93 1891.61 3102.38C1880.55 3100.96 1869.37 3100.82 1858.27 3101.95Z" fill="#2F6AB1"/>
<path d="M1885.3 3034.49C1855.85 3036.73 1830.19 3055.77 1805.37 3070.24C1806.29 3078.49 1808.87 3086.45 1812.94 3093.65C1828.4 3083.01 1857.01 3083.01 1873.84 3083.01C1889.1 3083.39 1904.12 3087.02 1917.91 3093.65C1922.91 3085.02 1925.74 3075.28 1926.16 3065.28C1926.58 3055.28 1924.58 3045.33 1920.32 3036.3C1908.79 3034.06 1897 3033.46 1885.3 3034.49ZM1898.66 3047.69C1907.81 3049.6 1913.8 3062.9 1903.08 3067.05C1899.4 3068.7 1895.38 3069.39 1891.37 3069.06C1887.36 3068.72 1883.51 3067.37 1880.15 3065.14L1879.1 3064.39C1875.21 3061.09 1877.52 3053.75 1880.89 3050.98C1883.42 3049.13 1886.33 3047.88 1889.4 3047.31C1892.48 3046.74 1895.64 3046.87 1898.66 3047.69Z" fill="#2F6AB1"/>
<path d="M1812.94 3093.65C1815.63 3098.43 1818.92 3102.83 1822.73 3106.74C1826.17 3105.59 1829.68 3104.67 1833.24 3103.97C1841.55 3102.56 1849.96 3101.88 1858.38 3101.95C1869.49 3100.67 1880.71 3100.67 1891.82 3101.95C1897.07 3103.51 1902.2 3105.43 1907.18 3107.7C1911.33 3103.66 1914.87 3099.04 1917.69 3093.97C1903.91 3087.34 1888.89 3083.71 1873.63 3083.33C1857.01 3083.12 1828.4 3082.8 1812.94 3093.65Z" fill="#3F82C3"/>
<path d="M1906.55 3018.21C1893.82 3018.21 1881.1 3018.85 1868.47 3019.49C1848.32 3020.66 1828.7 3026.52 1811.16 3036.62C1807.14 3044.98 1805.05 3054.14 1805.06 3063.43C1805.06 3065.77 1805.06 3068.01 1805.06 3070.24C1829.88 3055.77 1855.54 3036.73 1884.99 3034.49C1896.72 3033.7 1908.51 3034.56 1920.01 3037.05C1916.73 3029.97 1912.16 3023.58 1906.55 3018.21Z" fill="#3F82C3"/>
<path d="M1879.1 3064.39L1880.15 3065.14C1883.5 3067.37 1887.36 3068.72 1891.37 3069.06C1895.38 3069.39 1899.4 3068.7 1903.08 3067.05C1913.59 3062.9 1907.81 3049.6 1898.66 3047.69C1895.64 3046.87 1892.48 3046.74 1889.4 3047.31C1886.33 3047.88 1883.42 3049.13 1880.88 3050.98C1877.52 3053.75 1875.21 3061.09 1879.1 3064.39Z" fill="#3F82C3"/>
<g style="mix-blend-mode:color-burn" opacity="0.2">
<path d="M1905.31 3103.61C1927.25 3081.42 1927.25 3045.44 1905.31 3023.25C1883.38 3001.06 1847.82 3001.06 1825.89 3023.25C1803.96 3045.44 1803.96 3081.42 1825.89 3103.61C1847.82 3125.79 1883.38 3125.79 1905.31 3103.61Z" fill="#20284F"/>
</g>
<g style="mix-blend-mode:overlay" opacity="0.7">
<path d="M1920.01 3110.62C1945.86 3080.25 1942.48 3034.43 1912.46 3008.28C1882.44 2982.13 1837.15 2985.55 1811.3 3015.92C1785.46 3046.3 1788.84 3092.11 1818.86 3118.26C1848.88 3144.41 1894.16 3140.99 1920.01 3110.62Z" fill="#6BC2C3"/>
</g>
<path d="M3094.67 1605.61C3117.5 1605.61 3136 1586.89 3136 1563.8C3136 1540.7 3117.5 1521.98 3094.67 1521.98C3071.84 1521.98 3053.34 1540.7 3053.34 1563.8C3053.34 1586.89 3071.84 1605.61 3094.67 1605.61Z" fill="#EA5848"/>
</g>
<defs>
<clipPath id="clip0_114_687">
<rect width="3136" height="3136" fill="white"/>
</clipPath>
</defs>
</svg>
