<svg width="5179" height="5179" viewBox="0 0 5179 5179" fill="none" xmlns="http://www.w3.org/2000/svg">
<path d="M2836.91 4760.81C2836.91 4760.81 2881.41 4755.67 2898.53 4762.53C2915.65 4769.38 2934.48 4834.49 2934.48 4834.49C2934.48 4834.49 2927.63 4776.23 2943.03 4759.1C2958.44 4740.25 3002.94 4731.69 3002.94 4731.69C3002.94 4731.69 2953.3 4735.11 2934.48 4717.98C2913.93 4700.85 2903.66 4659.73 2903.66 4659.73C2903.66 4659.73 2912.22 4707.7 2896.82 4728.26C2881.41 4748.82 2836.91 4760.81 2836.91 4760.81Z" fill="white"/>
<g opacity="0.2">
<path d="M1229.58 4296.5L1241.56 4334.19H1279.22L1248.41 4353.04L1260.39 4389.02L1229.58 4365.03L1197.06 4387.31L1209.04 4353.04L1178.23 4334.19H1217.6L1229.58 4296.5Z" fill="white"/>
</g>
<path d="M2407.26 4851.62C2407.26 4851.62 2448.34 4855.05 2463.75 4865.33C2479.15 4873.89 2484.29 4939 2484.29 4939C2484.29 4939 2487.71 4884.17 2504.83 4868.75C2521.94 4855.05 2566.45 4855.05 2566.45 4855.05C2566.45 4855.05 2520.23 4849.91 2504.83 4829.35C2489.42 4810.5 2487.71 4769.38 2487.71 4769.38C2487.71 4769.38 2486 4815.64 2468.88 4832.77C2451.76 4849.91 2407.26 4851.62 2407.26 4851.62Z" fill="#FBC155"/>
<path d="M731.465 3763.65C508.939 3419.27 380.559 3009.78 380.559 2569.45C380.559 1351.27 1366.52 366.1 2581.86 366.1C2583.57 366.1 2586.99 366.1 2588.7 366.1" stroke="white" stroke-width="10" stroke-miterlimit="10"/>
<path d="M4771.17 2800.75C4666.75 3797.92 3898.18 4598.05 2915.64 4747.11" stroke="white" stroke-width="10" stroke-miterlimit="10"/>
<g opacity="0.2">
<path d="M3896.47 486.034L3911.88 537.434H3966.65L3922.15 569.988L3939.26 621.388L3896.47 588.834L3851.97 619.674L3869.08 569.988L3824.58 537.434H3879.35L3896.47 486.034Z" fill="white"/>
</g>
<g opacity="0.5">
<path d="M746.869 945.208L755.428 972.622H784.527L760.563 989.755L770.834 1015.46L746.869 998.322L722.905 1015.46L731.464 989.755L709.211 972.622H738.31L746.869 945.208Z" fill="white"/>
</g>
<path d="M2581.86 289C2581.86 289 2578.43 333.547 2568.16 348.967C2557.89 364.387 2491.13 369.527 2491.13 369.527C2491.13 369.527 2549.33 372.954 2564.74 391.8C2580.14 410.647 2580.14 456.907 2580.14 456.907C2580.14 456.907 2586.99 407.22 2605.82 391.8C2626.36 374.667 2669.15 372.954 2669.15 372.954C2669.15 372.954 2621.23 371.24 2602.4 354.107C2583.57 335.26 2581.86 289 2581.86 289Z" fill="white"/>
<path d="M3242.59 623.101C3242.59 623.101 3257.99 624.814 3263.13 628.241C3268.26 631.668 3269.97 655.654 3269.97 655.654C3269.97 655.654 3271.69 635.094 3278.53 629.954C3285.38 624.814 3300.79 624.814 3300.79 624.814C3300.79 624.814 3283.67 623.101 3278.53 616.248C3273.4 609.394 3271.69 593.974 3271.69 593.974C3271.69 593.974 3271.69 611.108 3264.84 616.248C3259.7 621.388 3242.59 623.101 3242.59 623.101Z" fill="white"/>
<path d="M661.285 3809.91C661.285 3809.91 700.655 3789.35 719.484 3789.35C738.313 3789.35 779.395 3844.18 779.395 3844.18C779.395 3844.18 752.007 3792.78 758.854 3770.5C767.413 3748.23 805.071 3722.53 805.071 3722.53C805.071 3722.53 760.566 3743.09 734.89 3734.52C710.926 3725.96 685.25 3691.69 685.25 3691.69C685.25 3691.69 709.214 3732.81 704.079 3758.51C698.943 3782.5 661.285 3809.91 661.285 3809.91Z" fill="white"/>
<path d="M3920.44 4217.68C3720.16 4382.17 3489.08 4510.67 3237.45 4591.19" stroke="white" stroke-width="10" stroke-miterlimit="10"/>
<path d="M4401.43 3657.42C4372.33 3705.4 4341.52 3753.37 4310.71 3797.92" stroke="white" stroke-width="10" stroke-miterlimit="10"/>
</svg>
