<svg width="5277" height="4683" viewBox="0 0 5277 4683" fill="none" xmlns="http://www.w3.org/2000/svg">
<path d="M401.009 3017.67L401.006 3017.66C209.142 2460.83 241.651 1852.07 491.752 1318.42L491.757 1318.41C491.931 1318.03 492.25 1317.73 492.652 1317.58C493.034 1317.43 493.456 1317.43 493.835 1317.58C494.183 1317.77 494.444 1318.08 494.574 1318.44C494.71 1318.82 494.692 1319.24 494.525 1319.61C244.603 1852.5 212.128 2460.5 403.885 3016.56C404.001 3016.97 403.963 3017.41 403.776 3017.79C403.618 3018.11 403.362 3018.38 403.043 3018.56L402.317 3018.65C402.038 3018.63 401.771 3018.54 401.545 3018.38C401.292 3018.2 401.105 3017.95 401.009 3017.67Z" fill="white" stroke="white" stroke-width="5"/>
<path d="M214.41 2280.87H214.408C214.011 2280.87 213.635 2280.72 213.361 2280.45C213.087 2280.17 212.938 2279.81 212.938 2279.44L212.938 2279.44C212.829 2102.5 233.486 1926.16 274.493 1753.96L274.497 1753.94L274.501 1753.92C274.542 1753.74 274.619 1753.56 274.728 1753.41C274.838 1753.25 274.979 1753.12 275.143 1753.02C275.308 1752.91 275.493 1752.84 275.687 1752.81C275.872 1752.78 276.062 1752.78 276.246 1752.82C276.653 1752.93 276.997 1753.19 277.212 1753.53C277.429 1753.88 277.498 1754.3 277.408 1754.7C236.571 1926.66 215.977 2102.72 216.038 2279.38C216.013 2279.77 215.841 2280.14 215.549 2280.42C215.246 2280.71 214.839 2280.87 214.41 2280.87ZM214.408 2283.37C213.355 2283.37 212.345 2282.96 211.601 2282.22C210.856 2281.48 210.438 2280.48 210.438 2279.44L214.408 2283.37Z" fill="white" stroke="white" stroke-width="5"/>
<path d="M1336.92 4196.23L1336.68 4196.23L1336.43 4196.28C1336.17 4196.34 1335.9 4196.36 1335.63 4196.34C958.846 3957.41 660.645 3614.65 477.637 3210.13C477.475 3209.75 477.467 3209.33 477.615 3208.95C477.76 3208.57 478.05 3208.26 478.429 3208.08C478.819 3207.92 479.258 3207.91 479.653 3208.06C480.052 3208.21 480.37 3208.51 480.545 3208.88C663.388 3612.86 961.365 3955.07 1337.83 4193.43C1337.99 4193.54 1338.13 4193.67 1338.24 4193.83C1338.34 4193.99 1338.42 4194.16 1338.45 4194.35C1338.49 4194.53 1338.49 4194.72 1338.45 4194.9C1338.42 4195.09 1338.34 4195.26 1338.23 4195.42L1338.2 4195.47L1338.16 4195.53C1338.04 4195.74 1337.86 4195.91 1337.64 4196.03C1337.42 4196.16 1337.18 4196.22 1336.92 4196.23Z" fill="white" stroke="white" stroke-width="5"/>
<g opacity="0.5">
<path d="M5097.37 1922.59L5104.36 1944H5127.07L5108.65 1956.28L5115.8 1977.37L5097.37 1963.83L5078.95 1977.06L5085.94 1956.44L5067.51 1944H5090.23L5097.37 1922.59Z" fill="white"/>
</g>
<path d="M5143.27 2923.87C5159.62 2925.07 5175.69 2928.74 5190.92 2934.73C5203.47 2942.45 5207.75 2996.12 5207.75 2996.12C5207.75 2996.12 5210.61 2950.32 5225.54 2938.35C5240.47 2926.39 5277 2926.55 5277 2926.55C5277 2926.55 5238.09 2921.67 5225.06 2905.77C5216.01 2890.62 5210.93 2873.47 5210.29 2855.87C5210.29 2855.87 5209.34 2893.81 5194.41 2907.97C5179.48 2922.14 5143.27 2923.87 5143.27 2923.87Z" fill="white"/>
<path d="M0 1661.45C18.5778 1662.68 36.8491 1666.77 54.1581 1673.57C68.6108 1682.39 73.3755 1743.46 73.3755 1743.46C73.3755 1743.46 76.7107 1691.36 93.7046 1677.82C110.699 1664.29 152.31 1664.29 152.31 1664.29C152.31 1664.29 107.999 1658.78 93.0693 1640.67C82.7157 1623.44 76.9247 1603.89 76.2343 1583.85C76.2343 1583.85 75.2813 1626.98 58.4463 1643.04C41.6112 1659.09 0 1661.45 0 1661.45Z" fill="white"/>
<path d="M4637.58 2238.83C4645.66 2239.36 4653.59 2241.17 4661.09 2244.18C4667.28 2247.96 4669.35 2274.4 4669.35 2274.4C4669.35 2274.4 4670.94 2251.74 4678.24 2245.91C4686.1 2241.92 4694.83 2239.92 4703.65 2240.09C4694.27 2239.16 4685.35 2235.62 4677.93 2229.86C4673.45 2222.35 4670.94 2213.86 4670.62 2205.14C4670.7 2214.26 4668.05 2223.19 4663 2230.8C4655.43 2235.74 4646.64 2238.52 4637.58 2238.83Z" fill="#FBC155"/>
<path d="M621.627 791.924C638.298 793.125 654.687 796.84 670.226 802.943C683.091 810.814 687.379 865.907 687.379 865.907C687.379 865.907 690.397 818.684 705.643 807.193C720.89 795.702 757.896 795.073 757.896 795.073C757.896 795.073 718.349 790.036 705.008 773.822C695.473 758.531 690.009 741.091 689.126 723.137C689.126 723.137 688.173 761.702 673.244 776.026C658.315 790.35 621.627 791.924 621.627 791.924Z" fill="#FBC155"/>
<path d="M4793.07 482.144C4809.42 483.335 4825.49 486.997 4840.72 493.005C4853.58 501.033 4858.03 555.968 4858.03 555.968C4858.03 555.968 4860.89 508.746 4876.13 497.097C4891.38 485.449 4928.55 484.977 4928.55 484.977C4928.55 484.977 4889 480.097 4875.5 463.884C4866.31 448.431 4861.13 430.963 4860.41 413.041C4860.41 413.041 4859.62 451.764 4844.53 466.088C4829.44 480.412 4793.07 482.144 4793.07 482.144Z" fill="#FBC155"/>
<path d="M33.3525 2924.66C49.974 2925.85 66.3119 2929.56 81.7931 2935.68C94.8164 2943.55 99.1046 2998.64 99.1046 2998.64C99.1046 2998.64 101.963 2951.42 117.21 2939.93C132.457 2928.44 169.621 2927.65 169.621 2927.65C169.621 2927.65 130.075 2922.77 116.575 2906.56C107.406 2891.11 102.274 2873.63 101.646 2855.71C101.646 2855.71 100.693 2894.44 85.7636 2908.76C70.8344 2923.08 33.3525 2924.66 33.3525 2924.66Z" fill="#FBC155"/>
<path d="M431.2 1283.67C446.84 1291.49 461.148 1301.69 473.606 1313.89C482.976 1326.8 464.553 1381.58 464.553 1381.58C464.553 1381.58 486.788 1337.5 506.482 1331.84C526.175 1326.17 562.228 1341.28 562.228 1341.28C562.228 1341.28 525.858 1320.5 519.505 1299.41C516.899 1280.71 519.084 1261.65 525.858 1244C525.858 1244 509.976 1281.15 488.694 1289.02C467.411 1296.89 431.2 1283.67 431.2 1283.67Z" fill="white"/>
<path d="M4869.15 848.907C4869.18 857.443 4866.65 865.798 4861.89 872.911C4857.13 880.024 4850.34 885.577 4842.39 888.866C4834.44 892.154 4825.69 893.031 4817.24 891.384C4808.79 889.738 4801.02 885.643 4794.91 879.617C4788.81 873.592 4784.65 865.907 4782.96 857.536C4781.27 849.166 4782.12 840.485 4785.41 832.595C4788.7 824.705 4794.28 817.96 4801.44 813.214C4808.6 808.467 4817.02 805.934 4825.63 805.934C4831.34 805.913 4836.99 807.009 4842.27 809.16C4847.55 811.31 4852.35 814.472 4856.39 818.464C4860.43 822.457 4863.64 827.201 4865.83 832.425C4868.02 837.649 4869.15 843.25 4869.15 848.907Z" fill="#EA5848"/>
<path d="M830.318 3720.99C830.318 3729.52 827.766 3737.86 822.984 3744.95C818.203 3752.04 811.406 3757.57 803.455 3760.84C795.503 3764.1 786.753 3764.96 778.311 3763.29C769.87 3761.63 762.116 3757.52 756.03 3751.49C749.944 3745.46 745.799 3737.77 744.12 3729.4C742.441 3721.04 743.303 3712.37 746.597 3704.49C749.89 3696.6 755.468 3689.87 762.624 3685.13C769.781 3680.39 778.194 3677.86 786.801 3677.86C798.343 3677.86 809.411 3682.4 817.572 3690.49C825.734 3698.58 830.318 3709.55 830.318 3720.99Z" fill="#EA5848"/>
<path d="M292.866 2612.52C336.811 2612.52 372.436 2577.21 372.436 2533.66C372.436 2490.1 336.811 2454.79 292.866 2454.79C248.921 2454.79 213.297 2490.1 213.297 2533.66C213.297 2577.21 248.921 2612.52 292.866 2612.52Z" fill="#FCCC74"/>
<path d="M478.212 657.497C501.017 657.497 519.505 639.174 519.505 616.571C519.505 593.968 501.017 575.645 478.212 575.645C455.406 575.645 436.918 593.968 436.918 616.571C436.918 639.174 455.406 657.497 478.212 657.497Z" fill="#0EB2C2"/>
<path d="M4913.93 2999.9C4936.74 2999.9 4955.23 2981.58 4955.23 2958.97C4955.23 2936.37 4936.74 2918.05 4913.93 2918.05C4891.13 2918.05 4872.64 2936.37 4872.64 2958.97C4872.64 2981.58 4891.13 2999.9 4913.93 2999.9Z" fill="#0EB2C2"/>
<path d="M4959.2 1448.32C4982 1448.32 5000.49 1430 5000.49 1407.39C5000.49 1384.79 4982 1366.47 4959.2 1366.47C4936.39 1366.47 4917.9 1384.79 4917.9 1407.39C4917.9 1430 4936.39 1448.32 4959.2 1448.32Z" fill="#0EB2C2"/>
<path d="M922.911 753.517C922.911 753.517 1537.07 23.9263 2586.88 23.9263C3636.69 23.9263 4268.01 695.433 4268.01 695.433" stroke="white" stroke-width="5" stroke-miterlimit="10"/>
<path d="M4632.03 1186.39C4632.03 1186.39 5277.79 2434.17 4479.4 3598.53C3681 4762.88 2223.5 4572.57 2223.5 4572.57" stroke="white" stroke-width="5" stroke-miterlimit="10"/>
<path d="M2981.87 4610.35C2995.04 4617.95 3009.92 4622.15 3025.15 4622.59C3040.37 4623.03 3055.47 4619.69 3069.07 4612.87C3056.92 4610.2 3044.5 4608.88 3032.06 4608.93C3015.32 4607.85 2998.52 4608.33 2981.87 4610.35Z" fill="#3F82C3"/>
<path d="M3089.55 4465.06C3076.54 4453.29 3060.39 4445.48 3043.02 4442.55C3038.33 4444.82 3033.44 4446.67 3028.41 4448.06C3014.83 4450.81 3000.93 4451.66 2987.11 4450.58C2968.95 4459.56 2954.27 4474.22 2945.34 4492.3C2971.9 4477.36 3001.57 4468.68 3032.06 4466.95C3051.12 4466.01 3070.34 4464.91 3089.55 4465.06Z" fill="#2F6AB1"/>
<path d="M3028.41 4448.06C3033.44 4446.67 3038.33 4444.82 3043.02 4442.55C3037.77 4441.7 3032.46 4441.28 3027.14 4441.29C3013.04 4441.25 2999.13 4444.43 2986.48 4450.58C3000.5 4451.72 3014.62 4450.87 3028.41 4448.06Z" fill="#3F82C3"/>
<path d="M3016.65 4588.94C3003.94 4588.84 2991.24 4589.84 2978.7 4591.93C2973.32 4592.96 2968.01 4594.33 2962.81 4596.03C2968.43 4601.63 2974.79 4606.45 2981.71 4610.35C2998.36 4608.33 3015.16 4607.85 3031.9 4608.93C3044.35 4608.88 3056.76 4610.2 3068.91 4612.87C3076.66 4609.02 3083.78 4604.03 3090.03 4598.07C3082.57 4594.69 3074.87 4591.85 3067 4589.57C3050.3 4587.48 3033.41 4587.27 3016.65 4588.94Z" fill="#2F6AB1"/>
<path d="M3057.47 4489.15C3013 4492.45 2974.09 4520.63 2936.77 4542.04C2938.15 4554.23 2942.04 4566.02 2948.2 4576.67C2971.55 4560.92 3014.75 4560.92 3040 4560.92C3063.1 4561.47 3085.83 4566.83 3106.71 4576.67C3114.26 4563.89 3118.54 4549.48 3119.17 4534.69C3119.81 4519.9 3116.78 4505.18 3110.36 4491.82C3092.94 4488.51 3075.14 4487.61 3057.47 4489.15ZM3077.64 4508.66C3091.46 4511.5 3100.35 4531.17 3084.15 4537.31C3078.6 4539.76 3072.53 4540.78 3066.48 4540.28C3060.43 4539.79 3054.6 4537.79 3049.53 4534.48L3048.1 4533.38C3042.22 4528.5 3045.72 4517.64 3050.64 4513.54C3054.49 4510.78 3058.91 4508.91 3063.58 4508.07C3068.25 4507.22 3073.06 4507.43 3077.64 4508.66Z" fill="#2F6AB1"/>
<path d="M2948.2 4576.67C2952.2 4583.76 2957.17 4590.28 2962.97 4596.03C2968.17 4594.33 2973.48 4592.96 2978.85 4591.93C2991.39 4589.84 3004.1 4588.84 3016.81 4588.94C3033.59 4587.05 3050.54 4587.05 3067.32 4588.94C3075.19 4591.22 3082.89 4594.06 3090.35 4597.44C3096.65 4591.51 3102 4584.66 3106.23 4577.14C3085.36 4567.31 3062.63 4561.94 3039.52 4561.4C3014.75 4561.08 2971.55 4560.61 2948.2 4576.67Z" fill="#3F82C3"/>
<path d="M3089.55 4465.06C3070.34 4465.06 3051.12 4466.01 3032.06 4466.95C3001.57 4468.68 2971.9 4477.35 2945.34 4492.29C2939.33 4504.66 2936.23 4518.23 2936.29 4531.96C2936.29 4535.42 2936.29 4538.73 2936.29 4542.04C2973.61 4520.63 3012.52 4492.45 3056.99 4489.15C3074.71 4487.98 3092.51 4489.25 3109.88 4492.92C3104.92 4482.46 3098.03 4473.01 3089.55 4465.06Z" fill="#3F82C3"/>
<path d="M3048.1 4533.38L3049.53 4534.48C3054.6 4537.79 3060.43 4539.79 3066.48 4540.28C3072.53 4540.78 3078.6 4539.76 3084.15 4537.31C3100.03 4531.17 3091.46 4511.5 3077.64 4508.66C3073.06 4507.43 3068.25 4507.22 3063.58 4508.07C3058.91 4508.91 3054.49 4510.78 3050.64 4513.54C3045.72 4517.64 3042.22 4528.5 3048.1 4533.38Z" fill="#3F82C3"/>
<g style="mix-blend-mode:color-burn" opacity="0.2">
<path d="M3087.68 4591.4C3120.8 4558.58 3120.8 4505.36 3087.68 4472.53C3054.56 4439.7 3000.86 4439.7 2967.74 4472.53C2934.62 4505.36 2934.62 4558.58 2967.74 4591.4C3000.86 4624.23 3054.56 4624.23 3087.68 4591.4Z" fill="#20284F"/>
</g>
<g style="mix-blend-mode:overlay" opacity="0.7">
<path d="M3109.82 4601.6C3148.85 4556.67 3143.74 4488.89 3098.41 4450.21C3053.08 4411.52 2984.69 4416.58 2945.66 4461.51C2906.62 4506.44 2911.73 4574.22 2957.06 4612.91C3002.39 4651.59 3070.78 4646.53 3109.82 4601.6Z" fill="#6BC2C3"/>
</g>
<path d="M4883.76 2375.3C4918.23 2375.3 4946.17 2347.61 4946.17 2313.44C4946.17 2279.27 4918.23 2251.58 4883.76 2251.58C4849.29 2251.58 4821.34 2279.27 4821.34 2313.44C4821.34 2347.61 4849.29 2375.3 4883.76 2375.3Z" fill="#EA5848"/>
<path d="M4531.33 3566.73C4552.74 3566.73 4570.09 3549.53 4570.09 3528.32C4570.09 3507.11 4552.74 3489.91 4531.33 3489.91C4509.93 3489.91 4492.58 3507.11 4492.58 3528.32C4492.58 3549.53 4509.93 3566.73 4531.33 3566.73Z" fill="#0EB2C2"/>
<path d="M2825.27 69.2599C2844.57 69.2599 2860.21 53.7556 2860.21 34.63C2860.21 15.5044 2844.57 0 2825.27 0C2805.98 0 2790.33 15.5044 2790.33 34.63C2790.33 53.7556 2805.98 69.2599 2825.27 69.2599Z" fill="#FCCC74"/>
</svg>
