<svg width="5179" height="5179" viewBox="0 0 5179 5179" fill="none" xmlns="http://www.w3.org/2000/svg">
<path d="M471.402 3273.6C398.643 3055.28 359.232 2820.28 359.232 2576.18C359.232 2233.53 438.054 1907.56 577.508 1617.98" stroke="white" stroke-width="10" stroke-miterlimit="10"/>
<path d="M1361.18 4424.35C1000.42 4189.35 713.93 3852.77 541.129 3454.02" stroke="white" stroke-width="10" stroke-miterlimit="10"/>
<path d="M4492.82 1511.85C4667.13 1827.2 4765.66 2189.56 4765.66 2576.18C4765.66 3793.64 3778.88 4780.64 2561.69 4780.64C2444.97 4780.64 2331.29 4771.55 2219.12 4754.87" stroke="white" stroke-width="10" stroke-miterlimit="10"/>
<path d="M962.521 1061.55C1364.21 637.034 1932.63 373.226 2563.21 373.226C3192.26 373.226 3760.69 637.034 4162.37 1061.55" stroke="white" stroke-width="10" stroke-miterlimit="10"/>
<path d="M301.633 2561.02C300.118 2561.02 297.086 2559.5 297.086 2556.47C297.086 2385.14 316.791 2215.34 356.202 2050.08C356.202 2048.56 359.234 2047.04 360.749 2047.04C362.265 2047.04 363.781 2050.08 363.781 2051.59C324.37 2215.34 304.665 2385.14 304.665 2556.47C306.181 2559.5 303.149 2561.02 301.633 2561.02Z" fill="white"/>
<g opacity="0.5">
<path d="M4961.2 2213.82L4968.78 2235.05H4990L4973.32 2245.66L4979.39 2266.88L4961.2 2253.24L4944.52 2266.88L4950.59 2245.66L4933.91 2235.05H4955.14L4961.2 2213.82Z" fill="white"/>
</g>
<path d="M5005.16 3178.08C5005.16 3178.08 5038.5 3181.12 5050.63 3188.7C5062.76 3196.28 5067.3 3247.83 5067.3 3247.83C5067.3 3247.83 5070.34 3203.86 5083.98 3191.73C5097.62 3179.6 5132.48 3179.6 5132.48 3179.6C5132.48 3179.6 5096.1 3175.05 5082.46 3159.89C5070.34 3144.73 5068.82 3111.37 5068.82 3111.37C5068.82 3111.37 5067.3 3147.76 5053.66 3161.41C5040.02 3175.05 5005.16 3178.08 5005.16 3178.08Z" fill="white"/>
<path d="M97 1962.14C97 1962.14 134.895 1965.17 148.537 1974.27C162.179 1983.37 166.727 2040.98 166.727 2040.98C166.727 2040.98 169.758 1990.95 186.432 1977.3C203.106 1963.66 242.517 1963.66 242.517 1963.66C242.517 1963.66 200.074 1959.11 186.432 1940.91C172.79 1922.72 169.758 1886.33 169.758 1886.33C169.758 1886.33 168.243 1928.79 153.085 1943.95C136.411 1960.62 97 1962.14 97 1962.14Z" fill="white"/>
<path d="M4523.13 2518.56C4523.13 2518.56 4539.81 2520.08 4545.87 2523.11C4551.93 2526.14 4553.45 2551.92 4553.45 2551.92C4553.45 2551.92 4554.96 2530.69 4562.54 2524.63C4570.12 2518.56 4586.8 2518.56 4586.8 2518.56C4586.8 2518.56 4568.61 2515.53 4562.54 2507.95C4556.48 2500.37 4554.96 2483.69 4554.96 2483.69C4554.96 2483.69 4554.96 2501.89 4547.39 2507.95C4541.32 2517.05 4523.13 2518.56 4523.13 2518.56Z" fill="#FBC155"/>
<path d="M689.678 1125.23C689.678 1125.23 723.025 1128.26 736.668 1135.84C748.794 1143.43 753.341 1196.49 753.341 1196.49C753.341 1196.49 756.373 1151.01 770.015 1140.39C785.173 1128.26 820.036 1128.26 820.036 1128.26C820.036 1128.26 782.142 1123.72 770.015 1108.55C757.889 1093.39 756.373 1060.04 756.373 1060.04C756.373 1060.04 754.857 1097.94 741.215 1111.59C726.057 1122.2 689.678 1125.23 689.678 1125.23Z" fill="#FBC155"/>
<path d="M4671.68 826.552C4671.68 826.552 4705.03 829.584 4718.67 837.165C4730.8 844.745 4735.35 897.81 4735.35 897.81C4735.35 897.81 4738.38 852.326 4752.02 841.713C4767.18 829.584 4802.04 829.584 4802.04 829.584C4802.04 829.584 4764.15 825.036 4752.02 809.874C4739.89 794.713 4738.38 761.358 4738.38 761.358C4738.38 761.358 4736.86 799.261 4723.22 812.907C4706.55 825.036 4671.68 826.552 4671.68 826.552Z" fill="#FBC155"/>
<path d="M128.832 3179.6C128.832 3179.6 162.18 3182.63 175.822 3190.21C187.948 3197.79 192.496 3250.86 192.496 3250.86C192.496 3250.86 195.527 3205.38 209.169 3194.76C224.327 3182.63 259.191 3182.63 259.191 3182.63C259.191 3182.63 221.296 3178.08 209.169 3162.92C197.043 3147.76 195.527 3114.41 195.527 3114.41C195.527 3114.41 194.011 3152.31 180.369 3165.96C165.211 3176.57 128.832 3179.6 128.832 3179.6Z" fill="#FBC155"/>
<path d="M507.781 1598.27C507.781 1598.27 539.613 1614.94 548.708 1627.07C557.803 1639.2 539.613 1692.27 539.613 1692.27C539.613 1692.27 560.834 1649.82 579.024 1643.75C597.213 1637.69 632.077 1652.85 632.077 1652.85C632.077 1652.85 597.213 1633.14 591.15 1611.91C585.087 1592.2 597.213 1558.85 597.213 1558.85C597.213 1558.85 580.54 1595.23 562.35 1602.82C544.16 1610.4 507.781 1598.27 507.781 1598.27Z" fill="white"/>
<path d="M4744.44 1179.81C4744.44 1202.55 4726.25 1220.75 4703.51 1220.75C4680.78 1220.75 4662.59 1202.55 4662.59 1179.81C4662.59 1157.07 4680.78 1138.88 4703.51 1138.88C4726.25 1138.88 4744.44 1157.07 4744.44 1179.81Z" fill="#EA5848"/>
<path d="M889.763 3945.25C889.763 3967.99 871.574 3986.19 848.837 3986.19C826.1 3986.19 807.91 3967.99 807.91 3945.25C807.91 3922.51 826.1 3904.32 848.837 3904.32C871.574 3904.32 889.763 3922.51 889.763 3945.25Z" fill="#EA5848"/>
<path d="M372.79 2875.61C414.648 2875.61 448.58 2841.67 448.58 2799.81C448.58 2757.94 414.648 2724 372.79 2724C330.932 2724 297 2757.94 297 2799.81C297 2841.67 330.932 2875.61 372.79 2875.61Z" fill="#FCCC74"/>
<path d="M2789.06 418.71C2807.48 418.71 2822.41 403.777 2822.41 385.355C2822.41 366.934 2807.48 352 2789.06 352C2770.64 352 2755.71 366.934 2755.71 385.355C2755.71 403.777 2770.64 418.71 2789.06 418.71Z" fill="#FCCC74"/>
<path d="M553.256 994.843C575.022 994.843 592.667 977.195 592.667 955.424C592.667 933.653 575.022 916.004 553.256 916.004C531.491 916.004 513.846 933.653 513.846 955.424C513.846 977.195 531.491 994.843 553.256 994.843Z" fill="#0EB2C2"/>
<path d="M4421.57 3796.67C4441.67 3796.67 4457.95 3780.38 4457.95 3760.28C4457.95 3740.19 4441.67 3723.9 4421.57 3723.9C4401.48 3723.9 4385.2 3740.19 4385.2 3760.28C4385.2 3780.38 4401.48 3796.67 4421.57 3796.67Z" fill="#0EB2C2"/>
<path d="M4786.88 3250.86C4808.65 3250.86 4826.29 3233.21 4826.29 3211.44C4826.29 3189.67 4808.65 3172.02 4786.88 3172.02C4765.12 3172.02 4747.47 3189.67 4747.47 3211.44C4747.47 3233.21 4765.12 3250.86 4786.88 3250.86Z" fill="#0EB2C2"/>
<path d="M4829.32 1757.46C4851.09 1757.46 4868.74 1739.81 4868.74 1718.04C4868.74 1696.27 4851.09 1678.62 4829.32 1678.62C4807.56 1678.62 4789.91 1696.27 4789.91 1718.04C4789.91 1739.81 4807.56 1757.46 4829.32 1757.46Z" fill="#0EB2C2"/>
<path d="M2942.16 4801.87C2954.28 4809.45 2969.44 4814 2986.11 4814C2999.76 4814 3013.4 4810.97 3025.53 4804.9C3014.91 4801.87 3002.79 4800.35 2990.66 4800.35C2977.02 4801.87 2958.83 4798.84 2942.16 4801.87Z" fill="#3F82C3"/>
<path d="M3045.23 4662.39C3033.1 4651.77 3017.95 4644.19 3001.27 4641.16C2996.73 4642.68 2992.18 4645.71 2987.63 4647.22C2975.5 4650.26 2961.86 4650.26 2948.22 4650.26C2931.55 4659.35 2916.39 4673 2908.81 4689.68C2934.58 4676.03 2960.35 4666.93 2992.18 4665.42C3008.85 4663.9 3027.04 4662.39 3045.23 4662.39Z" fill="#2F6AB1"/>
<path d="M2987.63 4645.71C2992.18 4644.19 2996.72 4642.68 3001.27 4639.64C2996.72 4638.13 2992.18 4638.13 2986.11 4638.13C2972.47 4638.13 2958.83 4641.16 2946.7 4647.22C2960.35 4648.74 2975.5 4650.26 2987.63 4645.71Z" fill="#3F82C3"/>
<path d="M2975.5 4782.16C2963.38 4782.16 2951.25 4783.68 2939.12 4785.19C2934.58 4786.71 2928.51 4788.23 2923.96 4789.74C2930.03 4795.81 2936.09 4800.35 2942.15 4803.39C2957.31 4800.35 2975.5 4801.87 2990.66 4801.87C3004.3 4801.87 3014.91 4803.39 3025.52 4806.42C3033.1 4803.39 3039.17 4797.32 3045.23 4792.77C3037.65 4789.74 3030.07 4786.71 3022.49 4785.19C3010.37 4779.13 2990.66 4782.16 2975.5 4782.16Z" fill="#2F6AB1"/>
<path d="M3014.91 4685.13C2972.47 4688.16 2936.09 4715.45 2899.71 4736.68C2901.23 4748.81 2904.26 4759.42 2910.32 4770.03C2933.06 4754.87 2973.99 4754.87 2998.24 4754.87C3020.98 4754.87 3042.2 4760.94 3061.9 4770.03C3069.48 4756.39 3074.03 4742.74 3074.03 4726.06C3074.03 4712.42 3071 4700.29 3064.94 4688.16C3049.78 4686.64 3033.1 4685.13 3014.91 4685.13ZM3034.62 4704.84C3048.26 4707.87 3055.84 4726.06 3040.68 4732.13C3031.59 4735.16 3014.91 4736.68 3007.33 4729.1C3007.33 4729.1 3005.82 4729.1 3005.82 4727.58C2999.76 4723.03 3002.79 4712.42 3008.85 4707.87C3014.91 4703.32 3025.52 4703.32 3034.62 4704.84Z" fill="#2F6AB1"/>
<path d="M2910.32 4770.03C2914.87 4777.61 2919.42 4783.68 2923.97 4788.23C2928.51 4786.71 2934.58 4785.19 2939.12 4783.68C2951.25 4782.16 2963.38 4780.65 2975.5 4780.65C2990.66 4780.65 3008.85 4777.61 3024.01 4780.65C3031.59 4782.16 3039.17 4785.19 3046.75 4788.23C3052.81 4782.16 3058.87 4776.1 3061.9 4768.52C3042.2 4759.42 3020.98 4753.35 2998.24 4753.35C2973.99 4754.87 2933.06 4754.87 2910.32 4770.03Z" fill="#3F82C3"/>
<path d="M3045.23 4662.39C3027.04 4662.39 3008.85 4663.9 2990.66 4663.9C2958.83 4665.42 2934.58 4674.52 2907.29 4688.16C2901.23 4700.29 2898.2 4712.42 2898.2 4726.06C2898.2 4729.1 2898.2 4732.13 2898.2 4735.16C2934.58 4713.93 2970.96 4686.64 3013.4 4683.61C3031.59 4682.1 3048.26 4683.61 3063.42 4686.64C3060.39 4679.06 3054.32 4669.97 3045.23 4662.39Z" fill="#3F82C3"/>
<path d="M3005.82 4729.1C3014.91 4738.19 3031.59 4736.68 3040.68 4732.13C3055.84 4726.06 3048.26 4707.87 3034.62 4704.84C3027.04 4703.32 3014.91 4703.32 3008.85 4709.39C3004.3 4713.93 3001.27 4723.03 3005.82 4729.1Z" fill="#3F82C3"/>
<path d="M4765.66 2648.95C4798.31 2648.95 4824.78 2622.48 4824.78 2589.82C4824.78 2557.17 4798.31 2530.69 4765.66 2530.69C4733.01 2530.69 4706.54 2557.17 4706.54 2589.82C4706.54 2622.48 4733.01 2648.95 4765.66 2648.95Z" fill="#EA5848"/>
</svg>
