<svg width="4754" height="4754" viewBox="0 0 4754 4754" fill="none" xmlns="http://www.w3.org/2000/svg">
<path d="M2722.5 4499.35C2721.23 4499.35 2720.01 4498.85 2719.11 4497.95C2718.2 4497.06 2717.7 4495.85 2717.7 4494.59C2717.7 4493.31 2718.2 4492.07 2719.09 4491.15C2719.99 4490.23 2721.21 4489.68 2722.5 4489.64C3231.04 4489.08 3718.59 4288.62 4078.18 3932.22C4437.77 3575.83 4640.03 3092.62 4640.59 2588.61C4640.59 2587.34 4641.1 2586.13 4642 2585.24C4642.9 2584.35 4644.12 2583.84 4645.39 2583.84C4646.69 2583.84 4647.93 2584.34 4648.86 2585.23C4649.79 2586.12 4650.34 2587.33 4650.39 2588.61C4649.78 3095.18 4446.47 3580.83 4085.05 3939.04C3723.63 4297.24 3233.62 4498.74 2722.5 4499.35Z" fill="white"/>
<path d="M3049 4337.07C3047.73 4337.2 3046.46 4336.82 3045.47 4336.01C3044.48 4335.21 3043.85 4334.05 3043.72 4332.79C3043.59 4331.52 3043.98 4330.26 3044.79 4329.28C3045.6 4328.3 3046.77 4327.68 3048.04 4327.55C3298.33 4275.08 3535.34 4173.05 3744.87 4027.57C3745.38 4027.2 3745.97 4026.94 3746.58 4026.8C3747.2 4026.66 3747.84 4026.64 3748.47 4026.75C3749.09 4026.86 3749.69 4027.08 3750.23 4027.42C3750.76 4027.76 3751.23 4028.19 3751.59 4028.71C3752.3 4029.79 3752.57 4031.09 3752.36 4032.36C3752.15 4033.63 3751.46 4034.77 3750.44 4035.57C3539.78 4181.74 3301.54 4284.28 3049.97 4337.07H3049Z" fill="white"/>
<path d="M4184.37 3589.12C4183.43 3589.01 4182.56 3588.61 4181.87 3587.97C4181.35 3587.61 4180.91 3587.15 4180.57 3586.62C4180.23 3586.09 4180 3585.5 4179.89 3584.88C4179.78 3584.26 4179.8 3583.63 4179.94 3583.01C4180.09 3582.4 4180.35 3581.82 4180.72 3581.31C4206.28 3545.88 4230.68 3509.12 4253.55 3472.17C4254.19 3471.09 4255.24 3470.3 4256.46 3469.98C4257.69 3469.66 4258.99 3469.83 4260.08 3470.46C4261.19 3471.13 4261.99 3472.2 4262.31 3473.44C4262.63 3474.69 4262.45 3476.01 4261.81 3477.12C4238.75 3514.26 4214.35 3551.22 4188.79 3586.83C4188.32 3587.56 4187.66 3588.16 4186.89 3588.56C4186.11 3588.96 4185.24 3589.15 4184.37 3589.12Z" fill="white"/>
<path d="M2323.36 0C2321.91 20.9785 2317.18 41.606 2309.33 61.1392C2299.33 77.5191 2229 83.0426 2229 83.0426C2229 83.0426 2288.96 86.6615 2304.52 105.898C2320.09 125.135 2320.28 171.99 2320.28 171.99C2320.28 171.99 2326.62 121.897 2347.38 104.946C2367.21 93.2859 2389.67 86.7376 2412.72 85.8996C2412.72 85.8996 2362.94 84.9473 2344.5 66.8531C2326.05 48.7589 2323.36 0 2323.36 0Z" fill="white"/>
<path d="M2189.6 4664.67C2209.38 4666.11 2228.83 4670.55 2247.25 4677.81C2263.01 4687.34 2268.2 4754 2268.2 4754C2268.2 4754 2271.85 4696.86 2290.11 4682.77C2308.37 4668.67 2353.53 4668.1 2353.53 4668.1C2353.53 4668.1 2305.68 4662.2 2289.34 4642.58C2278.25 4623.88 2272.04 4602.74 2271.28 4581.06C2271.28 4581.06 2270.12 4627.72 2252.06 4645.24C2233.99 4662.77 2189.6 4664.67 2189.6 4664.67Z" fill="#FBC155"/>
<path d="M2614.31 4491.54C2635.51 4492.78 2656.38 4497.28 2676.19 4504.87C2692.91 4514.59 2699.25 4584.11 2699.25 4584.11C2699.25 4584.11 2702.32 4524.68 2721.35 4509.06C2740.37 4493.44 2788.03 4492.68 2788.03 4492.68C2788.03 4492.68 2737.49 4487.16 2720.19 4466.59C2708.41 4447.08 2701.8 4424.94 2700.98 4402.21C2700.98 4402.21 2700.98 4451.35 2681.76 4470.02C2662.54 4488.68 2614.31 4491.54 2614.31 4491.54Z" fill="white"/>
<path d="M422.564 3579.98C441.227 3570.06 461.321 3563.06 482.138 3559.21C501.356 3559.21 543.634 3614.83 543.634 3614.83C543.634 3614.83 514.808 3562.64 522.879 3538.64C530.95 3514.65 571.115 3490.27 571.115 3490.27C571.115 3490.27 524.993 3511.6 499.434 3503.22C478.906 3492.83 461.332 3477.5 448.316 3458.65C448.316 3458.65 473.875 3500.74 467.533 3526.26C461.191 3551.79 422.564 3579.98 422.564 3579.98Z" fill="white"/>
<path d="M489.249 3527.98C488.451 3528.01 487.66 3527.83 486.952 3527.46C486.245 3527.09 485.646 3526.55 485.214 3525.88C258.818 3193 128.083 2805.33 107.02 2404.42C85.9578 2003.52 175.361 1604.49 365.649 1250.1C555.937 895.707 839.937 599.315 1187.21 392.685C1534.49 186.055 1931.95 76.9758 2337 77.1379C2338.27 77.1379 2339.5 77.6395 2340.4 78.5325C2341.3 79.4255 2341.8 80.6366 2341.8 81.8995C2341.81 83.1805 2341.31 84.4121 2340.41 85.3355C2339.51 86.2589 2338.29 86.8023 2337 86.8516C1933.73 86.7327 1538.03 195.362 1192.3 401.099C846.564 606.837 563.824 901.929 374.374 1254.76C184.923 1607.59 95.9024 2004.85 116.85 2404C137.797 2803.14 267.923 3189.11 493.285 3520.55C493.653 3521.06 493.916 3521.64 494.058 3522.25C494.2 3522.87 494.217 3523.5 494.11 3524.12C494.003 3524.74 493.773 3525.33 493.433 3525.86C493.094 3526.4 492.651 3526.86 492.132 3527.22C491.263 3527.73 490.263 3528 489.249 3527.98Z" fill="white"/>
</svg>
