<svg width="4319" height="4319" viewBox="0 0 4319 4319" fill="none" xmlns="http://www.w3.org/2000/svg">
<path d="M2159.18 4318.35C3351.66 4318.35 4318.35 3351.65 4318.35 2159.18C4318.35 966.696 3351.66 0 2159.18 0C966.696 0 0 966.696 0 2159.18C0 3351.65 966.696 4318.35 2159.18 4318.35Z" fill="#3D2257"/>
<path d="M2158.83 3944C3144.57 3944 3943.67 3144.9 3943.67 2159.16C3943.67 1173.43 3144.57 374.329 2158.83 374.329C1173.1 374.329 374 1173.43 374 2159.16C374 3144.9 1173.1 3944 2158.83 3944Z" fill="#341D49"/>
<path d="M2159.23 3605.8C2957.96 3605.8 3605.46 2958.3 3605.46 2159.57C3605.46 1360.84 2957.96 713.344 2159.23 713.344C1360.5 713.344 713 1360.84 713 2159.57C713 2958.3 1360.5 3605.8 2159.23 3605.8Z" fill="#2E1A40"/>
</svg>
