<svg width="5179" height="5179" viewBox="0 0 5179 5179" fill="none" xmlns="http://www.w3.org/2000/svg">
<path d="M2589 4793C3806.24 4793 4793 3806.24 4793 2589C4793 1371.76 3806.24 385 2589 385C1371.77 385 385 1371.76 385 2589C385 3806.24 1371.77 4793 2589 4793Z" fill="#3D2257"/>
<path d="M2588.65 4410.87C3594.85 4410.87 4410.54 3595.19 4410.54 2588.99C4410.54 1582.79 3594.85 767.1 2588.65 767.1C1582.45 767.1 766.766 1582.79 766.766 2588.99C766.766 3595.19 1582.45 4410.87 2588.65 4410.87Z" fill="#341D49"/>
<path d="M2589.06 4065.65C3404.37 4065.65 4065.31 3404.71 4065.31 2589.4C4065.31 1774.09 3404.37 1113.15 2589.06 1113.15C1773.75 1113.15 1112.8 1774.09 1112.8 2589.4C1112.8 3404.71 1773.75 4065.65 2589.06 4065.65Z" fill="#2E1A40"/>
</svg>
