<svg width="456" height="453" viewBox="0 0 456 453" fill="none" xmlns="http://www.w3.org/2000/svg">
<path d="M228.317 450.391C352.871 450.391 453.843 350.67 453.843 227.657C453.843 104.645 352.871 4.92383 228.317 4.92383C103.762 4.92383 2.79004 104.645 2.79004 227.657C2.79004 350.67 103.762 450.391 228.317 450.391Z" fill="#9C2C19"/>
<path d="M454.161 227.658V231.75C454.161 234.269 454.161 238.204 454.161 243.398C453.256 258.248 450.808 272.965 446.855 287.316C440.73 309.584 431.253 330.811 418.743 350.279C402.22 375.897 380.604 397.909 355.215 414.974C340.694 424.621 325.141 432.645 308.839 438.9C252.682 459.55 190.563 457.343 136.041 432.761C96.8613 415.036 63.4274 386.859 39.4776 351.381C26.9174 333.34 17.1232 313.554 10.4135 292.667C7.16961 282.364 4.675 271.843 2.94891 261.186C1.28074 250.292 0.325933 239.303 0.0902437 228.287C0.0707968 217.236 0.760492 206.195 2.155 195.231C3.72708 184.586 6.06241 174.066 9.14318 163.75C21.3907 122.213 45.4109 85.0334 78.3503 56.6281C111.29 28.2229 151.764 9.78584 194.964 3.50723C199.887 3.50723 204.97 2.24792 210.052 1.93311C212.434 1.93311 214.976 1.93311 217.517 1.93311H224.981C230.064 1.93311 234.828 1.93311 239.593 1.93311C244.357 1.93311 249.44 1.93313 254.363 3.19241C273.002 5.27077 291.304 9.66004 308.839 16.2573C325.218 22.5852 340.827 30.7165 355.374 40.4983C400.243 70.9976 432.545 116.477 446.378 168.629C450.34 182.925 452.789 197.59 453.684 212.389C453.684 217.583 453.684 221.519 453.684 224.195L454.161 227.658ZM454.161 227.658C454.161 227.658 454.161 226.241 454.161 223.722C454.161 221.204 454.161 217.111 454.161 212.074C453.134 197.308 450.525 182.691 446.378 168.472C443.604 158.309 439.937 148.407 435.42 138.879C430.172 127.896 424.01 117.365 416.996 107.397C400.121 82.9314 378.531 62.0145 353.468 45.8502C323.796 26.8455 290.098 14.8867 254.998 10.9054L241.022 9.80355H219.423H212.117C207.352 9.80355 202.429 10.748 197.664 11.3777C187.822 12.7052 178.103 14.8107 168.6 17.674C163.676 18.7759 159.07 20.6648 154.147 22.0815C149.223 23.4982 144.618 25.5444 140.012 27.7482C90.2964 49.1663 50.1882 87.8471 27.2287 136.517C4.26922 185.188 0.0401664 240.494 15.337 292.038C21.6739 312.668 30.9813 332.284 42.9717 350.279C66.0724 385.334 98.8831 413.044 137.471 430.086C142.076 432.132 147 433.863 151.764 435.595C156.529 437.326 161.294 438.9 166.217 440.002C175.855 442.689 185.674 444.688 195.599 445.984C200.523 445.984 205.287 447.086 210.211 447.4H217.358H224.822C229.587 447.4 234.352 447.4 239.116 447.4C243.881 447.4 248.487 447.4 253.252 446.299C288.381 442.136 322.073 430.017 351.721 410.882C376.76 394.688 398.345 373.777 415.249 349.335C422.362 339.098 428.528 328.245 433.672 316.908C438.19 307.38 441.857 297.478 444.631 287.316C448.853 273.167 451.463 258.595 452.413 243.871C452.413 238.676 452.413 234.741 452.413 232.222C452.413 229.704 453.525 227.658 453.525 227.658H454.161Z" fill="#1A1818"/>
<path style="mix-blend-mode:multiply" opacity="0.24" d="M76.3242 304.158C101.61 309.203 127.716 308.558 152.717 302.269C174.358 297.89 196.594 297.198 218.47 300.223C242.861 304.389 267.571 306.443 292.321 306.362C315.724 302.322 338.443 295.064 359.821 284.797C381.42 277.084 404.132 275.51 425.573 266.853C434.308 263.232 443.043 259.612 451.937 256.621V252.843C429.543 260.399 407.149 272.519 384.914 271.732C359.979 270.788 341.239 255.991 318.845 248.121C307.183 242.828 294.507 240.088 281.68 240.088C268.854 240.088 256.178 242.828 244.516 248.121C221.963 258.667 202.587 274.723 179.717 284.797C137.851 301.415 91.4354 302.974 48.5305 289.205C34.713 284.482 21.2131 278.658 7.23682 274.566C7.23682 276.14 8.03104 277.714 8.34868 279.288C32.0131 283.38 55.3598 298.492 76.3242 304.158Z" fill="url(#paint0_linear_120_157)"/>
<path d="M431.925 293.14C435.559 294.34 439.371 294.925 443.201 294.871C443.996 292.667 444.631 290.464 445.266 288.103L431.925 293.14Z" fill="#E8492F"/>
<path d="M424.302 295.501C422.555 295.501 424.302 291.88 425.255 291.408C432.243 288.103 439.549 285.741 446.696 282.908C448.574 275.859 450.058 268.712 451.143 261.5C438.596 265.908 426.208 271.732 413.502 276.14C393.173 282.908 372.05 284.167 352.197 291.88C333.165 301.639 312.498 307.879 291.21 310.297C269.35 310.348 247.522 308.663 225.934 305.26C198.546 301.844 170.788 302.694 143.665 307.779C124.842 311.475 105.557 312.271 86.4892 310.14C68.0513 306.409 50.1339 300.49 33.1249 292.51C25.7022 289.485 18.1209 286.858 10.4136 284.64C12.7937 293.291 15.657 301.804 18.9901 310.14C36.6192 315.807 54.7246 320.529 72.8303 324.622C83.5764 326.505 94.1871 329.081 104.595 332.335C112.999 336.375 122.255 338.372 131.594 338.159C149.7 335.955 166.853 325.881 185.276 326.038C203.555 326.446 221.726 328.928 239.434 333.436C259.17 339.525 279.614 343.07 300.263 343.983C322.051 343.18 343.705 340.227 364.903 335.168C388.678 329.744 412.116 322.964 435.102 314.862C437.325 309.668 439.39 304.473 441.137 299.121C435.314 299.262 429.542 298.021 424.302 295.501Z" fill="url(#paint1_linear_120_157)"/>
<path d="M83.7889 398.603C110.789 392.622 137.153 380.187 165.105 387.113C204.97 396.715 243.405 414.187 285.492 411.039C322.974 408.205 358.391 392.15 393.65 379.557C402.699 369.778 410.882 359.245 418.108 348.075C397.795 355.517 376.854 361.153 355.533 364.918C319.162 372.159 277.551 384.594 240.387 376.724C216.087 371.529 194.488 358.936 169.235 357.835C146.523 358.381 124.007 362.145 102.371 369.011C84.9976 373.517 66.5843 371.903 50.2778 364.446C60.17 376.998 71.4058 388.451 83.7889 398.603Z" fill="url(#paint2_linear_120_157)"/>
<path style="mix-blend-mode:multiply" opacity="0.24" d="M149.541 407.419C180.512 403.798 208.146 413.4 238.323 417.65C274.27 423.528 311.062 421.865 346.321 412.771C351.297 411.197 356.221 409.465 361.091 407.576C370.145 401.087 378.693 393.931 386.662 386.168C352.515 398.919 316.621 415.289 279.934 415.919C261.787 415.975 243.703 413.808 226.093 409.465C206.24 404.9 187.341 397.502 167.488 392.622C139.853 385.854 114.601 396.243 88.0776 402.382C94.4305 407.261 101.101 411.826 107.93 416.234C121.578 412.343 135.482 409.397 149.541 407.419Z" fill="url(#paint3_linear_120_157)"/>
<path d="M381.897 93.545C362.997 100.786 346.321 111.175 328.056 119.675C294.863 135.416 260.24 124.082 225.299 123.925C205.446 123.925 185.594 125.971 165.741 125.342C147.132 124.197 128.732 120.814 110.947 115.267C89.1927 109.886 67.7249 103.424 46.6249 95.9061C42.1436 102.132 38.0082 108.595 34.2368 115.267C39.5086 122.852 46.6606 128.964 55.0051 133.016C63.3495 137.069 72.6056 138.925 81.8832 138.407C128.259 138.407 173.205 148.008 219.264 151.786C265.026 154.892 310.999 152.46 356.168 144.546C378.879 140.925 409.055 138.564 427.479 122.98C420.637 110.447 412.607 98.5879 403.497 87.5635C396.184 89.1354 388.972 91.1326 381.897 93.545Z" fill="url(#paint4_linear_120_157)"/>
<path d="M303.598 17.8313C301.406 21.8216 298.37 25.2946 294.696 28.0117C291.022 30.7288 286.799 32.6258 282.316 33.5722C263.933 35.8312 245.388 36.5158 226.887 35.6185C200.682 36.5629 172.252 36.4056 156.688 17.2017C142.8 21.8398 129.397 27.7965 116.665 34.9889C137.947 50.7298 173.047 47.1093 200.205 46.3223C227.364 45.5352 268.181 47.8964 295.498 44.4334C308.204 42.8593 308.203 42.0723 320.909 40.3408C328.2 39.58 335.422 38.2644 342.509 36.4056C330.16 29.009 317.131 22.7897 303.598 17.8313Z" fill="url(#paint5_linear_120_157)"/>
<path style="mix-blend-mode:multiply" opacity="0.24" d="M357.279 45.2207C336.156 43.804 315.827 66.4709 298.039 75.6007C274.692 87.5637 247.057 80.3229 222.122 80.0081C192.868 81.5823 163.549 81.5823 134.294 80.0081C113.945 76.5803 93.9561 71.3113 74.5775 64.2672C70.1305 68.5172 65.6832 72.9247 61.395 77.4895C75.8825 86.0419 92.2133 91.0595 109.041 92.1286C141.898 95.6719 174.997 96.4618 207.987 94.4897C246.422 93.2305 284.38 97.4805 322.021 86.9341C340.136 80.4877 357.758 72.7546 374.75 63.795L379.673 61.5913C372.589 55.6415 365.107 50.1722 357.279 45.2207Z" fill="url(#paint6_linear_120_157)"/>
<path d="M381.738 64.7393C370.779 69.1467 359.979 75.9153 352.356 79.5357C335.185 88.2697 316.756 94.3226 297.721 97.4803C276.156 99.8527 254.437 100.537 232.763 99.5266C219.422 99.5266 206.082 100.314 192.741 100.628C159.24 102.871 125.588 101.074 92.5243 95.2766C80.5108 93.183 69.0537 88.6839 58.8538 82.0542C55.995 85.2024 53.2952 88.508 50.5952 91.971C73.942 100.628 98.2416 105.98 122.541 113.379C161.77 125.184 200.522 116.684 240.545 119.99C258.887 122.741 277.425 124.004 295.974 123.768C315.465 120.851 334.127 113.935 350.768 103.462C366.546 95.4434 383.025 88.8578 400.002 83.7857C394.338 77.0501 388.237 70.6878 381.738 64.7393Z" fill="#C11727"/>
<path style="mix-blend-mode:multiply" opacity="0.24" d="M358.709 180.435C337.816 184.636 316.46 186.118 295.18 184.842C274.057 183.426 252.934 179.963 231.652 179.805C185.911 179.805 143.188 203.889 97.2888 200.268C65.5245 197.75 38.8423 181.537 10.2545 170.99C9.14271 175.24 8.03092 179.333 7.23682 183.74C23.119 190.509 39.0014 199.481 52.1835 206.565C77.2773 218.685 109.2 233.01 136.518 219.945C155.576 210.657 172.729 196.176 194.964 194.759C224.505 192.713 253.251 201.213 282.951 199.639C312.374 198.017 341.66 194.494 370.62 189.092C392.248 187.155 413.1 180.141 431.449 168.629C435.655 165.268 439.253 161.223 442.09 156.666V155.722C415.192 166.681 387.261 174.96 358.709 180.435Z" fill="url(#paint7_linear_120_157)"/>
<path d="M443.837 162.49L443.043 163.435C432.109 175.485 417.688 183.896 401.75 187.518C374.571 194.632 346.84 199.476 318.845 202C291.373 205.932 263.497 206.25 235.94 202.944C218.106 199.011 199.617 199.011 181.782 202.944C168.83 208.195 156.345 214.513 144.459 221.833C133.806 227.351 122.004 230.337 109.986 230.555C97.9678 230.774 86.0629 228.219 75.2126 223.093C55.0423 215.065 36.143 204.833 16.6079 195.704L6.12567 190.981C5.01392 197.435 4.21976 203.731 3.58447 210.343C13.4924 214.188 23.6219 217.447 33.9194 220.102C49.93 223.474 65.034 230.181 78.2302 239.778C78.5006 240.014 78.7173 240.305 78.8657 240.631C79.014 240.956 79.0906 241.31 79.0906 241.667C79.0906 242.024 79.014 242.377 78.8657 242.703C78.7173 243.029 78.5006 243.32 78.2302 243.556C58.0599 259.297 28.8368 244.973 7.23705 240.093H3.58447C3.58447 244.658 3.58459 249.223 4.69634 253.787C40.4085 261.512 76.9612 264.738 113.489 263.389C137.746 259.955 161.288 252.673 183.211 241.824C200.87 234.228 219.448 228.937 238.481 226.083C260.39 222.783 282.563 221.518 304.71 222.306C326.627 223.093 348.386 227.185 370.303 227.972C399.526 229.074 426.05 216.954 453.367 207.981C451.792 192.531 448.599 177.285 443.837 162.49Z" fill="url(#paint8_linear_120_157)"/>
<path d="M45.5131 356.418C64.1803 366.45 86.0569 368.878 106.5 363.187C125.533 356.487 145.546 352.925 165.741 352.64C185.781 354.313 205.441 359.039 224.029 366.65C265.481 381.289 309.951 369.168 351.086 360.825C375.208 356.905 398.845 350.468 421.603 341.621C425.573 335.01 429.226 328.084 432.561 321.001C407.534 329.846 381.898 336.895 355.85 342.094C335.845 346.967 315.304 349.346 294.704 349.177C276.756 347.64 258.995 344.425 241.658 339.575C219.259 331.993 195.378 329.729 171.935 332.964C156.067 338.971 139.346 342.476 122.383 343.353C114.312 341.638 106.398 339.269 98.7184 336.27L65.5248 328.714C62.1895 328.714 36.937 320.686 20.896 315.964C26.9934 329.981 34.5517 343.328 43.4484 355.788L45.5131 356.418Z" fill="#FBD98A"/>
<path d="M332.98 420.641C302.406 426.017 271.186 426.76 240.387 422.845C206.717 418.28 174.794 407.104 140.488 413.557C131.594 415.289 123.018 417.493 114.283 419.696C149.491 440.133 189.627 450.734 230.428 450.374C271.228 450.013 311.168 438.705 346.003 417.65C341.715 418.752 337.268 419.854 332.98 420.641Z" fill="#FBD98A"/>
<path d="M372.049 145.805C326.112 154.503 279.352 158.198 232.604 156.823C207.511 155.407 182.576 151.786 157.641 148.481C132.706 145.175 106.342 143.601 80.1361 142.499C71.6924 142.965 63.2515 141.536 55.442 138.32C47.6325 135.104 40.6552 130.184 35.0304 123.925C33.7599 122.508 32.6484 120.777 31.3779 119.203C22.9138 134.136 16.1995 149.98 11.3662 166.425C39.9541 177.287 66.9537 193.815 98.2415 195.231C141.6 197.12 180.67 175.555 223.552 174.925C246.263 174.925 268.816 177.916 291.368 179.648C313.839 181.335 336.437 180.012 358.55 175.712C386.452 170.051 413.776 161.884 440.184 151.314C436.959 142.516 433.139 133.944 428.749 125.656C411.929 137.127 392.391 144.07 372.049 145.805Z" fill="#FBD98A"/>
<path d="M381.738 64.7393C370.779 69.1467 359.979 75.9153 352.356 79.5357C335.185 88.2697 316.756 94.3226 297.721 97.4803C276.156 99.8527 254.437 100.537 232.763 99.5266C219.422 99.5266 206.082 100.314 192.741 100.628C159.24 102.871 125.588 101.074 92.5243 95.2766C80.5108 93.183 69.0537 88.6839 58.8538 82.0542C55.995 85.2024 53.2952 88.508 50.5952 91.971C73.942 100.628 98.2416 105.98 122.541 113.379C161.77 125.184 200.522 116.684 240.545 119.99C258.887 122.741 277.425 124.004 295.974 123.768C315.465 120.851 334.127 113.935 350.768 103.462C366.546 95.4434 383.025 88.8578 400.002 83.7857C394.338 77.0501 388.237 70.6878 381.738 64.7393Z" fill="#FBD98A"/>
<path d="M364.109 231.435C319.387 225.138 273.992 225.138 229.27 231.435C187.182 239.306 151.288 264.491 108.089 267.01C73.4331 267.226 38.8445 263.957 4.85498 257.25C4.85498 261.186 5.96698 265.121 6.60227 268.899C20.2609 272.676 33.4431 278.186 46.7841 282.908C72.17 292.07 99.3092 295.459 126.195 292.825C154.49 290.549 181.775 281.355 205.605 266.065C222.596 253.425 241.598 243.689 261.828 237.259C283.331 232.844 305.707 235.727 325.356 245.445C346.639 254.889 368.08 269.686 392.538 267.01C413.201 262.574 433.404 256.251 452.89 248.121C452.89 241.509 453.843 234.741 453.843 227.972C453.843 221.204 453.843 216.954 453.843 212.231C423.35 220.574 395.556 234.269 364.109 231.435Z" fill="#FBD98A"/>
<path d="M454.161 227.658V231.75C454.161 234.269 454.161 238.204 454.161 243.398C453.256 258.248 450.808 272.965 446.855 287.316C440.73 309.584 431.253 330.811 418.743 350.279C402.22 375.897 380.604 397.909 355.215 414.974C340.694 424.621 325.141 432.645 308.839 438.9C252.682 459.55 190.563 457.343 136.041 432.761C96.8613 415.036 63.4274 386.859 39.4776 351.381C26.9174 333.34 17.1232 313.554 10.4135 292.667C7.16961 282.364 4.675 271.843 2.94891 261.186C1.28074 250.292 0.325933 239.303 0.0902437 228.287C0.0707968 217.236 0.760492 206.195 2.155 195.231C3.72708 184.586 6.06241 174.066 9.14318 163.75C21.3907 122.213 45.4109 85.0334 78.3503 56.6281C111.29 28.2229 151.764 9.78584 194.964 3.50723C199.887 3.50723 204.97 2.24792 210.052 1.93311C212.434 1.93311 214.976 1.93311 217.517 1.93311H224.981C230.064 1.93311 234.828 1.93311 239.593 1.93311C244.357 1.93311 249.44 1.93313 254.363 3.19241C273.002 5.27077 291.304 9.66004 308.839 16.2573C325.218 22.5852 340.827 30.7165 355.374 40.4983C400.243 70.9976 432.545 116.477 446.378 168.629C450.34 182.925 452.789 197.59 453.684 212.389C453.684 217.583 453.684 221.519 453.684 224.195L454.161 227.658ZM454.161 227.658C454.161 227.658 454.161 226.241 454.161 223.722C454.161 221.204 454.161 217.111 454.161 212.074C453.134 197.308 450.525 182.691 446.378 168.472C443.604 158.309 439.937 148.407 435.42 138.879C430.172 127.896 424.01 117.365 416.996 107.397C400.121 82.9314 378.531 62.0145 353.468 45.8502C323.796 26.8455 290.098 14.8867 254.998 10.9054L241.022 9.80355H219.423H212.117C207.352 9.80355 202.429 10.748 197.664 11.3777C187.822 12.7052 178.103 14.8107 168.6 17.674C163.676 18.7759 159.07 20.6648 154.147 22.0815C149.223 23.4982 144.618 25.5444 140.012 27.7482C90.2964 49.1663 50.1882 87.8471 27.2287 136.517C4.26922 185.188 0.0401664 240.494 15.337 292.038C21.6739 312.668 30.9813 332.284 42.9717 350.279C66.0724 385.334 98.8831 413.044 137.471 430.086C142.076 432.132 147 433.863 151.764 435.595C156.529 437.326 161.294 438.9 166.217 440.002C175.855 442.689 185.674 444.688 195.599 445.984C200.523 445.984 205.287 447.086 210.211 447.4H217.358H224.822C229.587 447.4 234.352 447.4 239.116 447.4C243.881 447.4 248.487 447.4 253.252 446.299C288.381 442.136 322.073 430.017 351.721 410.882C376.76 394.688 398.345 373.777 415.249 349.335C422.362 339.098 428.528 328.245 433.672 316.908C438.19 307.38 441.857 297.478 444.631 287.316C448.853 273.167 451.463 258.595 452.413 243.871C452.413 238.676 452.413 234.741 452.413 232.222C452.413 229.704 453.525 227.658 453.525 227.658H454.161Z" fill="#6B1415"/>
<path d="M231.017 30.1094C245.946 30.1094 261.192 30.1094 275.963 29.1649C280.692 29.0167 285.328 27.8233 289.532 25.6718C293.736 23.5203 297.402 20.4652 300.262 16.7296C255.505 1.66664 207.089 1.00549 161.929 14.8407C177.97 32.1557 206.24 30.8964 231.017 30.1094Z" fill="#E05326"/>
<path d="M323.609 44.1186C309.633 46.0075 295.657 48.8409 281.68 50.2576C251.663 53.2483 221.487 50.2576 191.47 50.2576C164.311 51.5168 131.912 52.9335 112.059 36.563C100.394 43.4784 89.3896 51.4343 79.1831 60.3317C100.456 68.4695 122.728 73.763 145.412 76.0726C177.176 77.8041 208.94 73.0818 240.705 76.0726C256.553 78.6367 272.76 77.9941 288.351 74.1837C300.767 69.2336 312.38 62.4976 322.816 54.1928C330.904 47.8036 340.269 43.1894 350.291 40.6556L346.956 38.6093C339.4 41.2825 331.571 43.1299 323.609 44.1186Z" fill="#E05326"/>
<path d="M72.6718 241.195C53.6132 226.399 25.0253 225.454 3.10791 215.38C3.10791 219.63 3.10791 223.723 3.10791 227.973C3.10791 229.704 3.10791 231.436 3.10791 233.324H4.85471C24.2309 237.417 53.4544 252.371 72.6718 241.195Z" fill="#E05326"/>
<path d="M337.903 276.454C327.038 270.063 316.684 262.853 306.933 254.889C295.012 250.274 282.232 248.234 269.451 248.908C243.881 251.426 218.787 270.788 197.505 283.538C194.646 285.269 193.852 290.621 198.458 290.149C214.16 287.116 230.262 286.69 246.105 288.89C259.44 291.018 272.94 291.966 286.445 291.723C301.216 291.723 331.074 291.723 341.238 279.13L337.903 276.454Z" fill="#E05326"/>
<path opacity="0.6" d="M308.839 272.676C304.11 267.474 297.913 263.8 291.051 262.13C283.927 259.462 276.423 257.921 268.816 257.565C252.934 255.834 244.04 266.537 231.493 273.306C227.84 275.038 227.682 280.862 232.446 280.389C246.062 279.548 259.727 279.969 273.263 281.649C283.754 283.658 294.536 283.658 305.027 281.649C307.568 279.917 312.175 275.825 308.839 272.676Z" fill="#81171B"/>
<path style="mix-blend-mode:multiply" d="M228.476 449.919C354.083 449.919 455.908 349.423 455.908 225.454C455.908 101.485 354.083 0.98877 228.476 0.98877C102.868 0.98877 1.04346 101.485 1.04346 225.454C1.04346 349.423 102.868 449.919 228.476 449.919Z" fill="url(#paint9_radial_120_157)"/>
<g style="mix-blend-mode:multiply" opacity="0.7">
<path d="M425.731 122.508C425.731 122.508 476.713 281.334 382.691 381.918C382.691 381.918 496.725 297.232 425.731 122.508Z" fill="#49190D"/>
</g>
<path style="mix-blend-mode:screen" d="M48.3722 340.52C44.4017 332.177 40.1131 315.806 53.4541 313.603C66.7951 311.399 85.2187 308.723 80.6129 289.677C77.2521 278.329 71.8736 267.668 64.7308 258.195C51.5486 238.519 31.3781 208.611 52.1837 186.731C62.8228 177.838 75.052 171.003 88.236 166.583C95.9874 162.877 102.839 157.554 108.322 150.979C113.804 144.404 117.788 136.733 120 128.49C120.953 125.656 122.224 117.786 125.559 116.369C131.594 113.693 128.418 110.703 127.147 106.453C127.007 98.9568 129.047 91.5796 133.024 85.2024C140.171 72.4522 162.247 71.98 175.111 71.3504C193.217 70.4059 298.039 75.2856 281.522 39.8686C277.71 31.9981 266.91 21.1369 281.522 18.1462C289.275 17.1978 297.116 17.1978 304.869 18.1462C282.085 10.8578 258.293 7.14015 234.352 7.12753C189.549 6.91661 145.69 19.8902 108.333 44.4047C70.9757 68.9193 41.8003 103.872 24.5029 144.834C7.20557 185.797 2.56457 230.926 11.1678 274.505C19.7711 318.083 41.2315 358.151 72.8303 389.631C74.7362 375.779 53.2957 351.381 48.3722 340.52Z" fill="url(#paint10_radial_120_157)"/>
<g style="mix-blend-mode:overlay">
<path d="M95.2239 55.2949C95.2239 55.2949 -47.7153 173.509 42.1776 330.761C42.1776 330.761 -26.5921 178.231 95.2239 55.2949Z" fill="white"/>
</g>
<g style="mix-blend-mode:overlay" opacity="0.5">
<path d="M400.638 101.888C386.288 100.843 371.965 104.254 359.662 111.647C343.138 120.64 325.116 126.612 306.457 129.277C285.029 133.077 263.253 134.607 241.498 133.842C224.722 131.874 207.77 131.874 190.993 133.842C189.405 133.842 188.611 137.147 190.993 136.99C209.416 137.737 227.669 140.804 245.31 146.12C258.252 148.165 271.439 148.165 284.38 146.12C300.482 146.093 316.508 143.922 332.027 139.666C352.923 135.774 373.36 129.761 393.014 121.721C394.285 121.721 394.444 118.416 393.014 118.888C380.92 121.699 368.67 123.802 356.326 125.184C360.297 122.666 364.109 120.305 368.397 118.101C378.719 114.173 389.341 111.067 400.161 108.814C403.338 108.342 405.402 102.675 400.638 101.888Z" fill="#FDF8D3"/>
</g>
<g style="mix-blend-mode:overlay" opacity="0.5">
<path d="M245.469 167.37C214.074 160.233 181.421 160.557 150.176 168.314C131.067 172.266 111.445 173.169 92.0483 170.99C72.2699 166.891 52.7533 161.635 33.6016 155.25C31.6958 155.25 29.9486 157.611 32.0133 158.555C65.3658 173.509 94.5891 190.037 132.389 186.889C151.106 183.935 169.467 179.083 187.182 172.407C207.194 166.268 224.505 173.666 244.04 171.305C246.263 171.463 247.534 168.157 245.469 167.37Z" fill="#FDF8D3"/>
</g>
<g style="mix-blend-mode:overlay" opacity="0.5">
<path d="M280.41 212.074C251.186 210.185 219.263 205.305 190.676 213.176C177.126 217.964 163.915 223.643 151.129 230.176C130.081 238.661 106.617 239.166 85.218 231.593C85.218 231.593 84.265 231.593 85.218 232.537C96.8918 240.744 110.65 245.55 124.935 246.412C139.221 247.275 153.466 244.159 166.058 237.417C173.364 233.954 180.034 228.917 186.864 224.824C198.827 219.227 211.91 216.375 225.14 216.482C243.722 215.38 261.827 214.435 280.41 213.963C280.41 213.963 281.204 212.231 280.41 212.074Z" fill="#FDF8D3"/>
</g>
<g style="mix-blend-mode:overlay" opacity="0.5">
<path d="M217.675 244.028C193.376 247.648 171.617 262.13 147.953 268.741C118.086 277.663 86.4925 279.337 55.8363 273.621C55.0422 273.621 54.0895 274.88 55.0424 275.195C81.2713 284.518 109.273 287.906 136.994 285.112C149.193 282.995 160.352 276.967 168.759 267.954C184.075 258.424 200.791 251.308 218.311 246.861C219.581 246.389 219.422 243.871 217.675 244.028Z" fill="#FDF8D3"/>
</g>
<g style="mix-blend-mode:overlay" opacity="0.5">
<path d="M185.117 340.835C167.965 332.807 150.653 340.835 133.5 344.77C105.389 351.539 79.5013 335.798 52.3428 333.122C50.9135 333.122 49.6428 335.483 51.231 335.798C71.2969 343.243 91.8277 349.395 112.695 354.214C136.836 357.363 159.547 343.511 183.847 344.298C185.118 344.298 186.864 341.622 185.117 340.835Z" fill="#FDF8D3"/>
</g>
<g style="mix-blend-mode:overlay" opacity="0.5">
<path d="M425.096 279.13C396.508 277.399 366.808 293.14 341.238 303.686C322.216 312.952 301.556 318.459 280.41 319.899C264.528 319.899 246.898 317.381 230.222 316.593C246.104 319.584 261.986 323.992 278.821 326.668C294.568 328.404 310.507 326.958 325.674 322.418C341.041 318.016 355.579 311.158 368.714 302.112C386.271 292.299 405.485 285.738 425.414 282.751C426.526 282.751 427.637 279.288 425.096 279.13Z" fill="#FDF8D3"/>
</g>
<g style="mix-blend-mode:overlay" opacity="0.5">
<path d="M369.827 343.353C348.703 345.242 329.962 353.112 308.204 353.427C285.749 355.295 263.141 354.077 241.022 349.807C241.022 349.807 239.434 350.909 241.022 351.066C283.657 362.881 328.94 361.286 370.621 346.501C371.732 346.029 372.209 343.196 369.827 343.353Z" fill="#FDF8D3"/>
</g>
<g style="mix-blend-mode:overlay" opacity="0.5">
<path d="M104.118 129.119C96.5476 127.543 88.7657 127.224 81.0895 128.175C68.2935 126.935 55.9843 122.671 45.1957 115.74C43.9251 114.952 42.3366 116.841 43.4484 117.786C51.8558 124.218 61.5174 128.854 71.8228 131.4C82.1282 133.947 92.8542 134.349 103.324 132.582C105.707 132.425 105.706 129.749 104.118 129.119Z" fill="#FDF8D3"/>
</g>
<g style="mix-blend-mode:overlay" opacity="0.5">
<path d="M183.211 88.9801C149.382 85.3597 110.947 94.1745 79.8181 76.7021C78.5475 76.7021 76.8007 78.4336 78.0713 79.2207C106.659 97.6375 150.176 93.8597 182.576 91.8134C184.005 91.656 185.117 89.1375 183.211 88.9801Z" fill="#FDF8D3"/>
</g>
<g style="mix-blend-mode:overlay" opacity="0.5">
<path d="M187.182 70.2487C174 69.1468 160.976 71.3505 147.794 71.3505C135.831 70.371 124.204 66.9406 113.648 61.2764C112.854 61.2764 111.901 62.3782 112.695 62.8504C131.753 76.545 164.312 77.0173 186.706 74.8135C188.929 74.6561 189.882 70.4061 187.182 70.2487Z" fill="#FDF8D3"/>
</g>
<defs>
<linearGradient id="paint0_linear_120_157" x1="7.71328" y1="273.621" x2="452.413" y2="273.621" gradientUnits="userSpaceOnUse">
<stop stop-color="white" stop-opacity="0"/>
<stop offset="1" stop-color="#221F47"/>
</linearGradient>
<linearGradient id="paint1_linear_120_157" x1="10.4136" y1="303.056" x2="451.143" y2="303.056" gradientUnits="userSpaceOnUse">
<stop offset="0.01" stop-color="#DF8922"/>
<stop offset="0.18" stop-color="#DD8C28"/>
<stop offset="0.4" stop-color="#D89337"/>
<stop offset="0.65" stop-color="#CFA052"/>
<stop offset="0.92" stop-color="#C3B176"/>
<stop offset="1" stop-color="#BEB783"/>
</linearGradient>
<linearGradient id="paint2_linear_120_157" x1="50.2778" y1="379.557" x2="418.108" y2="379.557" gradientUnits="userSpaceOnUse">
<stop offset="0.01" stop-color="#DF8922"/>
<stop offset="0.18" stop-color="#DD8C28"/>
<stop offset="0.4" stop-color="#D89337"/>
<stop offset="0.65" stop-color="#CFA052"/>
<stop offset="0.92" stop-color="#C3B176"/>
<stop offset="1" stop-color="#BEB783"/>
</linearGradient>
<linearGradient id="paint3_linear_120_157" x1="88.5541" y1="403.483" x2="386.662" y2="403.483" gradientUnits="userSpaceOnUse">
<stop stop-color="white" stop-opacity="0"/>
<stop offset="1" stop-color="#221F47"/>
</linearGradient>
<linearGradient id="paint4_linear_120_157" x1="34.2368" y1="119.517" x2="426.843" y2="119.517" gradientUnits="userSpaceOnUse">
<stop offset="0.01" stop-color="#DF8922"/>
<stop offset="0.18" stop-color="#DD8C28"/>
<stop offset="0.4" stop-color="#D89337"/>
<stop offset="0.65" stop-color="#CFA052"/>
<stop offset="0.92" stop-color="#C3B176"/>
<stop offset="1" stop-color="#BEB783"/>
</linearGradient>
<linearGradient id="paint5_linear_120_157" x1="116.665" y1="31.6833" x2="342.509" y2="31.6833" gradientUnits="userSpaceOnUse">
<stop offset="0.01" stop-color="#DF8922"/>
<stop offset="0.18" stop-color="#DD8C28"/>
<stop offset="0.4" stop-color="#D89337"/>
<stop offset="0.65" stop-color="#CFA052"/>
<stop offset="0.92" stop-color="#C3B176"/>
<stop offset="1" stop-color="#BEB783"/>
</linearGradient>
<linearGradient id="paint6_linear_120_157" x1="61.395" y1="70.5636" x2="379.038" y2="70.5636" gradientUnits="userSpaceOnUse">
<stop stop-color="white" stop-opacity="0"/>
<stop offset="1" stop-color="#221F47"/>
</linearGradient>
<linearGradient id="paint7_linear_120_157" x1="7.23682" y1="190.352" x2="442.09" y2="190.352" gradientUnits="userSpaceOnUse">
<stop stop-color="white" stop-opacity="0"/>
<stop offset="1" stop-color="#221F47"/>
</linearGradient>
<linearGradient id="paint8_linear_120_157" x1="3.10801" y1="212.231" x2="452.89" y2="212.231" gradientUnits="userSpaceOnUse">
<stop offset="0.01" stop-color="#DF8922"/>
<stop offset="0.18" stop-color="#DD8C28"/>
<stop offset="0.4" stop-color="#D89337"/>
<stop offset="0.65" stop-color="#CFA052"/>
<stop offset="0.92" stop-color="#C3B176"/>
<stop offset="1" stop-color="#BEB783"/>
</linearGradient>
<radialGradient id="paint9_radial_120_157" cx="0" cy="0" r="1" gradientUnits="userSpaceOnUse" gradientTransform="translate(22.3255 98.3352) scale(440.253 431.974)">
<stop offset="0.55" stop-color="white"/>
<stop offset="0.63" stop-color="#FDFCFC"/>
<stop offset="0.69" stop-color="#F7F2F2"/>
<stop offset="0.75" stop-color="#EDE2E2"/>
<stop offset="0.8" stop-color="#DFCCCB"/>
<stop offset="0.85" stop-color="#CCAEAE"/>
<stop offset="0.89" stop-color="#B58A89"/>
<stop offset="0.94" stop-color="#9A5F5E"/>
<stop offset="0.98" stop-color="#7C2E2E"/>
<stop offset="1" stop-color="#6B1413"/>
</radialGradient>
<radialGradient id="paint10_radial_120_157" cx="0" cy="0" r="1" gradientUnits="userSpaceOnUse" gradientTransform="translate(298.992 283.623) scale(308.908 303.099)">
<stop stop-color="#2B2B2B"/>
<stop offset="0.25" stop-color="#2D2D2D"/>
<stop offset="0.4" stop-color="#363633"/>
<stop offset="0.52" stop-color="#44433C"/>
<stop offset="0.62" stop-color="#58574B"/>
<stop offset="0.72" stop-color="#72715D"/>
<stop offset="0.81" stop-color="#919073"/>
<stop offset="0.89" stop-color="#B7B58E"/>
<stop offset="0.97" stop-color="#E2DFAC"/>
<stop offset="1" stop-color="#F6F3BA"/>
</radialGradient>
</defs>
</svg>
