<svg xmlns="http://www.w3.org/2000/svg" viewBox="0 0 214.52 218.5"><defs><style>.cls-1{fill:#a4b6c5;}.cls-2{fill:#3a3a3a;}</style></defs><g id="Layer_2" data-name="Layer 2"><g id="Layer_1-2" data-name="Layer 1"><path class="cls-1" d="M99.84,204.53a1.35,1.35,0,1,1-1.35-1.35A1.35,1.35,0,0,1,99.84,204.53Z" transform="translate(0 -0.19)"/><path class="cls-2" d="M99.12,204.37c0,.07,0,.13,0,.19a.43.43,0,0,0,0,.11c0,.06,0,0,0,0a1,1,0,0,0-.06.16.93.93,0,0,1-.05.1c0,.05-.1.1,0,0l-.23.25,0,0a.47.47,0,0,0-.09.06l-.17.09c-.08,0,.16-.05,0,0l-.09,0-.09,0c-.13,0,.14,0,0,0h-.19c-.09,0,.19,0,.06,0l-.11,0c-.07,0-.14-.08,0,0l-.06,0c-.09,0-.21-.14,0,0l-.14-.11s-.11-.1,0,0,0,0,0,0l0-.06c-.09-.1.08.15,0,0l-.08-.16,0-.07c.08.13,0,.1,0,0l0-.2c0-.08,0,.17,0,0v-.08a1.1,1.1,0,0,1,0-.18v0c0-.06,0-.05,0,0s0,0,0-.07a.82.82,0,0,1,.09-.19s.08-.11,0,0,0,0,0,0a.69.69,0,0,1,.11-.13l.07-.06c.06-.06.07,0,0,0a1.74,1.74,0,0,0,.18-.11l.06,0c.12-.06-.15,0,0,0l.16,0c.08,0,.08,0,0,0h.19c.13,0-.17,0,0,0l.11,0c.07,0,.13.07-.06,0l.2.09c-.18-.08-.14-.09-.08-.05l.11.09,0,0c-.17-.13-.08-.08,0,0L99,204c.08.1-.08-.14,0,0s.07.13.09.19,0-.12,0,0l0,.13a.15.15,0,0,1,0,.07.17.17,0,0,1,0,.07v0a.79.79,0,0,0,.66.77.72.72,0,0,0,.52-.06.47.47,0,0,0,.26-.38,2,2,0,0,0-.4-1.24,2.17,2.17,0,0,0-3.29-.25,1.9,1.9,0,0,0-.2,2.18A2.28,2.28,0,0,0,99,206.48a1.88,1.88,0,0,0,1.57-1.78.78.78,0,0,0-.66-.77C99.6,203.87,99.12,204,99.12,204.37Z" transform="translate(0 -0.19)"/><path class="cls-1" d="M104.54,208.62a1,1,0,0,0,.41-.06,1,1,0,0,0,.37-.19.76.76,0,0,0,.24-.29.7.7,0,0,0,.12-.34v-.25a.79.79,0,0,0-.23-.43l-.2-.15a1.08,1.08,0,0,0-.5-.15.83.83,0,0,0-.41.07.93.93,0,0,0-.61.47.7.7,0,0,0-.12.35v.25a.83.83,0,0,0,.23.43l.2.15a1.07,1.07,0,0,0,.5.14Z" transform="translate(0 -0.19)"/><path class="cls-1" d="M111,205.32c.55,0,.29-.89-.15-.89s-.29.89.15.89Z" transform="translate(0 -0.19)"/><path class="cls-1" d="M113.81,212c.59,0,.26-.94-.22-.94s-.26.94.22.94Z" transform="translate(0 -0.19)"/><path class="cls-1" d="M99.86,217.18a1,1,0,0,0,.93-.94,1,1,0,0,0-1.07-.78,1,1,0,0,0-.92.94,1,1,0,0,0,1.06.78Z" transform="translate(0 -0.19)"/><path class="cls-1" d="M96.2,210.59c.64,0,.18-1-.35-1s-.18,1,.35,1Z" transform="translate(0 -0.19)"/><path class="cls-1" d="M87.46,211.66l.08,0h0l.1,0-.12,0a.49.49,0,0,0-.21,0,.31.31,0,0,0-.16.12l0,.09a.41.41,0,0,0,0,.22.72.72,0,0,0,.19.34.57.57,0,0,0,.21.13.5.5,0,0,0,.21,0l.1,0,.07-.06a.27.27,0,0,0,.05-.14.14.14,0,0,0,0-.11.39.39,0,0,0,0-.18l-.06-.11-.08-.1a.53.53,0,0,0-.15-.11.44.44,0,0,0-.15-.05Z" transform="translate(0 -0.19)"/><path class="cls-1" d="M83.67,205.78v0l-.2.17a.39.39,0,0,0,.18,0,.21.21,0,0,0,.11-.08.27.27,0,0,0,0-.14.25.25,0,0,0,0-.17l0-.12a.54.54,0,0,0-.1-.16.58.58,0,0,0-.14-.13.34.34,0,0,0-.15-.06.26.26,0,0,0-.15,0l-.09,0a.24.24,0,0,0-.09.11.24.24,0,0,0,0,.15v.11a.67.67,0,0,0,.1.23l.08.1.13.1-.18-.32v.05l0,.09a.31.31,0,0,0,.06.13l0,.06.1.07.07,0h.06a.12.12,0,0,0,.08-.06.21.21,0,0,0,.06-.1Z" transform="translate(0 -0.19)"/><path class="cls-1" d="M89.89,205.89a1,1,0,0,0,.91-1c0-.56-.61-.76-1.09-.76a1,1,0,0,0-.92,1c.06.57.62.77,1.1.77Z" transform="translate(0 -0.19)"/><path class="cls-1" d="M77.31,206.14c.78,0,.38-1.08-.23-1.08-.78,0-.39,1.08.23,1.08Z" transform="translate(0 -0.19)"/><path class="cls-1" d="M80.14,210.37a1,1,0,0,0,.18.48.28.28,0,0,0,.09.1.41.41,0,0,0,.11.07h.07a.24.24,0,0,0,.14-.05h0l.09-.1h0a.29.29,0,0,0,.07-.18.62.62,0,0,0,0-.23l-.05-.11a.73.73,0,0,0-.17-.18.34.34,0,0,0-.15-.06.17.17,0,0,0-.14,0,.26.26,0,0,0-.16.09.42.42,0,0,0-.06.19Z" transform="translate(0 -0.19)"/><path class="cls-1" d="M107.52,217.12c.66,0,.15-1-.39-1s-.15,1,.39,1Z" transform="translate(0 -0.19)"/><path class="cls-1" d="M90.49,218.26v.32l0-.05a.44.44,0,0,0,.07-.19.47.47,0,0,0,0-.17.56.56,0,0,0-.07-.18.77.77,0,0,0-.18-.18l-.15-.07a.14.14,0,0,0-.11,0,.12.12,0,0,0-.09,0s0,0,0,0l.07,0-.07,0-.06.07,0,.08,0,.1a.57.57,0,0,0,0,.18.21.21,0,0,0,0,.11.41.41,0,0,0,.07.11l.09.09a.38.38,0,0,0,.15.09l0,0-.19-.17,0,0a.25.25,0,0,0,.08.1l.1.07h.06a.12.12,0,0,0,.1,0s0,0,.06,0a.31.31,0,0,0,0-.1v-.08a.37.37,0,0,0,0-.18Z" transform="translate(0 -0.19)"/><path class="cls-1" d="M77.66,214.61l.3.79,0,0a.14.14,0,0,0,.08-.09.35.35,0,0,0,0-.14.45.45,0,0,0,0-.16l0-.1a.62.62,0,0,0-.14-.18l-.08,0a.25.25,0,0,0-.17,0c-.22.28-.25.5-.1.65h0l0,0-.06-.06a.7.7,0,0,0,.16.14.35.35,0,0,0,.17,0,.26.26,0,0,0,.15-.07.33.33,0,0,0,.07-.16.6.6,0,0,0-.11-.41.65.65,0,0,0-.16-.13.25.25,0,0,0-.17,0Z" transform="translate(0 -0.19)"/><path class="cls-1" d="M69.41,214.26l-.07,0h0l0,0h0a.12.12,0,0,0,0,.05.13.13,0,0,0,0,.09.43.43,0,0,1,0,0l0,0,0,0,0,0,.09.15a.09.09,0,0,0,.11.05s.06,0,.08-.08a282076055506.49,282076055506.49,0,0,0,0-.14.18.18,0,0,0-.08-.13Z" transform="translate(0 -0.19)"/><path class="cls-1" d="M69.18,208l.1,0h0l.06,0a.26.26,0,0,0,.07-.11l0-.05v-.21l0-.09a.54.54,0,0,0-.07-.13l-.06-.06a.15.15,0,0,0-.06,0s0,0-.07,0a.17.17,0,0,0-.1,0l0,0h0l0,0a.14.14,0,0,0-.07.08.16.16,0,0,0,0,.08l0,.07,0,.08v.08l0,.09a.23.23,0,0,0,.06.12.18.18,0,0,0,0,.07s0,0,.06.05l.06,0a.11.11,0,0,0,.1,0Z" transform="translate(0 -0.19)"/><path class="cls-1" d="M73.52,210v.12l0,.07a.36.36,0,0,0,0,.09s0,0,0,0a.13.13,0,0,0,.07,0h.1l.06-.06a.11.11,0,0,0,0-.08l0-.13a.43.43,0,0,0,0-.16.42.42,0,0,0-.06-.14l0,0a.24.24,0,0,0-.11-.06.12.12,0,0,0-.08,0s0,0-.06.05a.17.17,0,0,0,0,.12.38.38,0,0,0,0,.15Z" transform="translate(0 -0.19)"/><path class="cls-1" d="M74.27,201l0,0h0v0l0,0,0-.07a.63.63,0,0,0,0-.19.81.81,0,0,0-.07-.22l-.07-.1a.58.58,0,0,0-.17-.14.28.28,0,0,0-.13,0,.21.21,0,0,0-.13,0,.24.24,0,0,0-.11.13.41.41,0,0,0,0,.19s0,.19.09.28a.45.45,0,0,0,.11.17.38.38,0,0,0,.15.09.2.2,0,0,0,.15,0,.18.18,0,0,0,.11-.1Z" transform="translate(0 -0.19)"/><path class="cls-1" d="M80.5,201.37c.44,0,.16-.82-.24-.82s-.16.82.24.82Z" transform="translate(0 -0.19)"/><path class="cls-1" d="M69.2,195.58c.44,0,.16-.83-.24-.83s-.16.83.24.83Z" transform="translate(0 -0.19)"/><path class="cls-1" d="M63,195.36l.14.5.07.11a.52.52,0,0,0,.18.12.12.12,0,0,0,.08,0h.08a.14.14,0,0,0,.1-.05l0-.06,0-.08V196h0l0,0,.06-.07a.41.41,0,0,0,0-.21l0-.12a.66.66,0,0,0-.11-.24.49.49,0,0,0-.15-.14.56.56,0,0,0-.17-.09.29.29,0,0,0-.16,0,.22.22,0,0,0-.15.06.34.34,0,0,0-.11.17Z" transform="translate(0 -0.19)"/><path class="cls-1" d="M67.44,200.05c.42,0,.18-.79-.2-.79s-.18.79.2.79Z" transform="translate(0 -0.19)"/><path class="cls-1" d="M61.48,205.9a.24.24,0,0,0,.14,0,.24.24,0,0,0,.16-.21.33.33,0,0,0,0-.17l0-.11a.61.61,0,0,0-.13-.22l-.09-.08a.48.48,0,0,0-.2-.07.22.22,0,0,0-.14,0,.2.2,0,0,0-.12.08.24.24,0,0,0,0,.14.29.29,0,0,0,0,.16l0,.12a.6.6,0,0,0,.14.21l.09.08a.44.44,0,0,0,.2.08Z" transform="translate(0 -0.19)"/><path class="cls-1" d="M64.69,209.91c.43,0,.18-.8-.2-.8s-.18.8.2.8Z" transform="translate(0 -0.19)"/><path class="cls-1" d="M52.09,204c.57,0,.26-.92-.21-.92s-.26.92.21.92Z" transform="translate(0 -0.19)"/><path class="cls-1" d="M57.19,197.81a1.39,1.39,0,0,0-.7,1c0,.06,0,.12,0,.18a.8.8,0,0,0,0,.4l.13.23.19.19a1,1,0,0,0,.31.24h0l.15.07.08,0,.32,0,.33,0a1.05,1.05,0,0,0,.46-.23.69.69,0,0,0,.26-.25,1,1,0,0,0,.25-.45l0-.32a.93.93,0,0,0-.08-.49.64.64,0,0,0-.16-.29.84.84,0,0,0-.36-.34l-.31-.13-.32,0a1.34,1.34,0,0,0-.65.17Z" transform="translate(0 -0.19)"/><path class="cls-1" d="M50,196.19l-.14-.29a.55.55,0,0,0-.16-.18.37.37,0,0,0-.14-.07.38.38,0,0,0-.15,0,.31.31,0,0,0-.15.1s0,0,0,0l0,.05,0,.06a.54.54,0,0,0-.05.21.71.71,0,0,0,.06.25,1.18,1.18,0,0,0,.17.22.69.69,0,0,0,.17.1.42.42,0,0,0,.16,0,.29.29,0,0,0,.2-.07.28.28,0,0,0,.11-.17.45.45,0,0,0,0-.23Z" transform="translate(0 -0.19)"/><path class="cls-1" d="M53.25,190.06h.16l.12,0,.07,0a.21.21,0,0,0,.06-.1.19.19,0,0,0,0-.08.23.23,0,0,0,0-.14l0-.1,0-.09a.22.22,0,0,0-.09-.1.26.26,0,0,0-.11-.07l-.16,0h-.12a.22.22,0,0,0-.16,0l-.06.05a.31.31,0,0,0-.08.15.26.26,0,0,0,0,.15.42.42,0,0,0,0,.16.71.71,0,0,0,.1.14.31.31,0,0,0,.11.09.25.25,0,0,0,.17,0Z" transform="translate(0 -0.19)"/><path class="cls-1" d="M58,192.61l.12,0a.34.34,0,0,0,.24,0l.1-.06a.4.4,0,0,0,.08-.41.46.46,0,0,0-.08-.19.44.44,0,0,0-.16-.17.57.57,0,0,0-.18-.12.59.59,0,0,0-.26,0l-.07,0a.35.35,0,0,0-.28.17l0,.11a.37.37,0,0,0,0,.18.2.2,0,0,0,0,.13.42.42,0,0,0,.11.18l.11.1a.62.62,0,0,0,.25.11Z" transform="translate(0 -0.19)"/><path class="cls-1" d="M119.65,205.77a1.07,1.07,0,0,0,1.15-.81.91.91,0,0,0-.88-1,1.07,1.07,0,0,0-1.15.82.9.9,0,0,0,.88,1Z" transform="translate(0 -0.19)"/><path class="cls-1" d="M124.45,212.51c1.07,0,.92-1.37-.06-1.37s-.92,1.37.06,1.37Z" transform="translate(0 -0.19)"/><path class="cls-1" d="M119.45,216c.76,0,.4-1.06-.2-1.06-.76,0-.4,1.06.2,1.06Z" transform="translate(0 -0.19)"/><path class="cls-1" d="M131.54,208l.11.07a.64.64,0,0,0,.26.13.72.72,0,0,0,.29.06l.17,0a.51.51,0,0,0,.22-.11.34.34,0,0,0,.12-.12.35.35,0,0,0,.08-.22v-.16a.71.71,0,0,0-.16-.31l.08.11h0v0l0,0,0-.07a.87.87,0,0,0-.26-.28.93.93,0,0,0-.39-.15h-.19a.72.72,0,0,0-.35.11.42.42,0,0,0-.17.18.41.41,0,0,0-.08.24.73.73,0,0,0,.35.61Z" transform="translate(0 -0.19)"/><path class="cls-1" d="M136.13,202.28a.69.69,0,0,0,.32-.08.65.65,0,0,0,.26-.17.55.55,0,0,0,.14-.26.48.48,0,0,0,0-.29l-.06-.19a.74.74,0,0,0-.27-.31l-.2-.11a1,1,0,0,0-.46-.07.69.69,0,0,0-.32.08.78.78,0,0,0-.26.17.55.55,0,0,0-.14.26.48.48,0,0,0,0,.29l.06.19a.74.74,0,0,0,.27.31l.2.11a1,1,0,0,0,.46.07Z" transform="translate(0 -0.19)"/><path class="cls-1" d="M128.55,204l.18,0a.17.17,0,0,0,.12-.05.28.28,0,0,0,.08-.11l0-.1a.43.43,0,0,0,0-.16.36.36,0,0,0,0-.11.39.39,0,0,0-.1-.16l-.08-.07a.51.51,0,0,0-.18-.09l-.32,0a.25.25,0,0,0-.2.06l-.07.07a.38.38,0,0,0,0,.21.57.57,0,0,0,0,.18.54.54,0,0,0,.1.18l.14.14a.45.45,0,0,0,.17.08.38.38,0,0,0,.21,0Z" transform="translate(0 -0.19)"/><path class="cls-1" d="M132,214l1,.34,0,0a.26.26,0,0,0,.11-.14l0-.12a.44.44,0,0,0,0-.2.35.35,0,0,0-.06-.14.65.65,0,0,0-.15-.18l-.13-.1-.13-.06h0l-.16-.05-.15,0-.14,0a.34.34,0,0,0-.18.11.35.35,0,0,0-.12.23.33.33,0,0,0,0,.14.48.48,0,0,0,.07.21Z" transform="translate(0 -0.19)"/><path class="cls-1" d="M137.76,215.68l0,0h0a.31.31,0,0,0,.09-.11.28.28,0,0,0,0-.15.53.53,0,0,0,0-.13.8.8,0,0,0,0-.21.33.33,0,0,0-.07-.13.28.28,0,0,0-.1-.09.3.3,0,0,0-.15-.05c-.09,0-.1,0,0,0h-.15a.39.39,0,0,0-.17.11.34.34,0,0,0-.05.14.49.49,0,0,0,0,.17l0,.11a1,1,0,0,0,.1.17l.09.09a.38.38,0,0,0,.15.09l.1,0a.31.31,0,0,0,.19,0Z" transform="translate(0 -0.19)"/><path class="cls-1" d="M138.24,208.45h0l.24.26v-.05l-.13.42.06,0-.07,0h0a.16.16,0,0,0,.11-.05.18.18,0,0,0,.08-.09l0-.09v-.09a.41.41,0,0,0,0-.16,1.09,1.09,0,0,0-.08-.15l-.07-.08a.37.37,0,0,0-.12-.07l-.09,0a.17.17,0,0,0-.12,0l-.06,0a.27.27,0,0,0-.06.12.22.22,0,0,0,0,.14l0,.1,0,.11a1.09,1.09,0,0,0,.13.17.47.47,0,0,0,.12.09l.07,0h.07l.06,0h0a.13.13,0,0,0,.06-.07.42.42,0,0,0,0-.1v-.08a.51.51,0,0,0,0-.13.16.16,0,0,0,0-.07.22.22,0,0,0-.07-.09l0,0a.17.17,0,0,0-.12,0Z" transform="translate(0 -0.19)"/><path class="cls-1" d="M146.06,207.71c.3,0,.36-.37.28-.58a.71.71,0,0,0-.68-.45c-.3,0-.36.36-.28.57a.72.72,0,0,0,.68.46Z" transform="translate(0 -0.19)"/><path class="cls-1" d="M145.58,201c.62,0,.21-1-.3-1s-.21,1,.3,1Z" transform="translate(0 -0.19)"/><path class="cls-1" d="M143.58,210.34l-.42-.56-.09,0h-.21l-.06,0a.18.18,0,0,0-.08.07.14.14,0,0,0-.05.09.27.27,0,0,0,0,.12.55.55,0,0,0,0,.18l.06.13.08.12.1.1.12.07.12,0h.12a.24.24,0,0,0,.15,0,.22.22,0,0,0,.09-.07.19.19,0,0,0,.05-.1.32.32,0,0,0,0-.17Z" transform="translate(0 -0.19)"/><path class="cls-1" d="M150.66,202.2c.46.71.94.94,1.44.68a1,1,0,0,0,.31-.21.59.59,0,0,0,.18-.29.66.66,0,0,0,.06-.34l-.05-.22a.86.86,0,0,0-.29-.36l-.21-.12a1.14,1.14,0,0,0-.51-.08l.8,1.42h0v0l0,0,.06-.08,0,0a.22.22,0,0,0,.05-.11.66.66,0,0,0,.06-.34l-.05-.22-.12-.2a.67.67,0,0,0-.28-.22.55.55,0,0,0-.22-.1.58.58,0,0,0-.26,0,.87.87,0,0,0-.39,0l-.23.11-.19.15a.7.7,0,0,0-.19.29.66.66,0,0,0-.06.34Z" transform="translate(0 -0.19)"/><path class="cls-1" d="M155.52,196a.31.31,0,0,0,.19,0,.31.31,0,0,0,.16-.1.3.3,0,0,0,.08-.16.41.41,0,0,0,0-.19l0-.14a.79.79,0,0,0-.19-.25l-.13-.1a.62.62,0,0,0-.27-.09.4.4,0,0,0-.19,0,.29.29,0,0,0-.16.1.25.25,0,0,0-.08.16.34.34,0,0,0,0,.2l0,.13a.64.64,0,0,0,.18.25l.13.1a.71.71,0,0,0,.28.09Z" transform="translate(0 -0.19)"/><path class="cls-1" d="M158,200.73a.3.3,0,0,0,.16,0,.23.23,0,0,0,.12-.12.29.29,0,0,0,0-.16.41.41,0,0,0,0-.19l-.06-.12a.67.67,0,0,0-.19-.22l-.12-.08a.69.69,0,0,0-.24,0,.3.3,0,0,0-.16,0,.28.28,0,0,0-.12.12.32.32,0,0,0,0,.16.4.4,0,0,0,0,.19l.05.13a.79.79,0,0,0,.19.22l.12.07a.52.52,0,0,0,.24,0Z" transform="translate(0 -0.19)"/><path class="cls-1" d="M47.08,192.08l.15,0a.28.28,0,0,0,.18,0l.07-.06a.28.28,0,0,0,.06-.18.29.29,0,0,0,0-.16.44.44,0,0,0-.06-.16.53.53,0,0,0-.11-.14.71.71,0,0,0-.14-.1l-.18,0-.15.05h0l-.06.05a.24.24,0,0,0-.06.11.29.29,0,0,0,0,.09.76.76,0,0,0,0,.15l0,.1.06.1A.38.38,0,0,0,47,192a.23.23,0,0,0,.12.06Z" transform="translate(0 -0.19)"/><path class="cls-1" d="M42.85,196.6c.45,0,.14-.84-.27-.84s-.14.84.27.84Z" transform="translate(0 -0.19)"/><path class="cls-1" d="M42.27,191.45c1,0,.55-1.26-.27-1.26-1,0-.56,1.26.27,1.26Z" transform="translate(0 -0.19)"/><path class="cls-1" d="M46.18,186.45c.8,0,.36-1.11-.27-1.11-.8,0-.36,1.11.27,1.11Z" transform="translate(0 -0.19)"/><path class="cls-1" d="M40.91,183.89c.94,0,.62-1.21-.16-1.21-.94,0-.62,1.21.16,1.21Z" transform="translate(0 -0.19)"/><path class="cls-1" d="M35.72,192.34a.92.92,0,0,0,.37-.05.89.89,0,0,0,.31-.15.6.6,0,0,0,.2-.25.54.54,0,0,0,.1-.3l0-.22a.75.75,0,0,0-.22-.36l-.19-.13a1.06,1.06,0,0,0-.47-.13,1.14,1.14,0,0,0-.67.2.6.6,0,0,0-.2.25.54.54,0,0,0-.1.3l0,.22a.75.75,0,0,0,.22.36l.19.13a1.06,1.06,0,0,0,.46.13Z" transform="translate(0 -0.19)"/><path class="cls-1" d="M36.77,186.45c.81,0,.35-1.11-.29-1.11-.8,0-.35,1.11.29,1.11Z" transform="translate(0 -0.19)"/><path class="cls-1" d="M29.77,187c.41,0,.19-.78-.19-.78s-.19.78.19.78Z" transform="translate(0 -0.19)"/><path class="cls-1" d="M29.18,180.63c.4,0,.2-.77-.16-.77s-.2.77.16.77Z" transform="translate(0 -0.19)"/><path class="cls-1" d="M34.22,182.57c.26,0,.17-.59-.11-.59s-.17.59.11.59Z" transform="translate(0 -0.19)"/><path class="cls-1" d="M38.18,179.2c.43,0,.18-.81-.21-.81s-.17.81.21.81Z" transform="translate(0 -0.19)"/><path class="cls-1" d="M33.17,176l0-.07h0a.2.2,0,0,0,0-.08s0,0,0,0l0,0a.12.12,0,0,0-.08,0h0l0,0,0,0,0,0,0,0,0,.06,0,.06v.14l0,.06,0,.05.07,0,0,0h.05l0,0,0,0,0,0a.07.07,0,0,0,0-.05.2.2,0,0,0,0-.07.34.34,0,0,0,0-.1Z" transform="translate(0 -0.19)"/><path class="cls-1" d="M32.08,171.65c.42,0,.19-.78-.18-.78s-.19.78.18.78Z" transform="translate(0 -0.19)"/><path class="cls-1" d="M26.26,173.25a.48.48,0,0,0,.41-.65.83.83,0,0,0-.83-.52.47.47,0,0,0-.4.65.83.83,0,0,0,.82.52Z" transform="translate(0 -0.19)"/><path class="cls-1" d="M27.5,167.55a.81.81,0,0,0,.37-.12,1,1,0,0,0,.31-.21.67.67,0,0,0,.18-.3.7.7,0,0,0,.05-.35l-.06-.23a.92.92,0,0,0-.3-.35l-.22-.12a1.29,1.29,0,0,0-.52-.07.81.81,0,0,0-.37.12,1,1,0,0,0-.31.21.78.78,0,0,0-.18.3.7.7,0,0,0-.05.35l.06.23a.92.92,0,0,0,.3.35l.22.12a1.31,1.31,0,0,0,.52.07Z" transform="translate(0 -0.19)"/><path class="cls-1" d="M20.91,168.79a.94.94,0,0,0,0,.62.51.51,0,0,0,.09.16.49.49,0,0,0,.12.13l.09.05a.31.31,0,0,0,.19,0l-.17,0a.33.33,0,0,0,.19,0h.16l-.11,0,.23-.05a.39.39,0,0,0,.23-.14l.06-.12a.42.42,0,0,0,0-.27.67.67,0,0,0-.14-.28l-.13-.12a.69.69,0,0,0-.3-.14.48.48,0,0,0-.29,0,.4.4,0,0,0-.22.14Z" transform="translate(0 -0.19)"/><path class="cls-1" d="M23.22,176.32c.4,0,.22-.75-.13-.75s-.21.75.13.75Z" transform="translate(0 -0.19)"/><path class="cls-1" d="M14.41,169.46l-.19,0H14.1a1.2,1.2,0,0,0-.19,0,.38.38,0,0,0-.17.08.33.33,0,0,0-.11.15l0,.13a.35.35,0,0,0,0,.2.31.31,0,0,0,.06.13.58.58,0,0,0,.15.19l.14.1a.54.54,0,0,0,.28.08h.29l.08,0a.25.25,0,0,0,.16-.06.23.23,0,0,0,.12-.12l0-.11a.31.31,0,0,0,0-.19.28.28,0,0,0,0-.12.62.62,0,0,0-.12-.19l-.12-.1a.66.66,0,0,0-.24-.11Z" transform="translate(0 -0.19)"/><path class="cls-1" d="M13.68,163.58c.83,0,.3-1.15-.36-1.15-.83,0-.31,1.15.36,1.15Z" transform="translate(0 -0.19)"/><path class="cls-1" d="M18.62,163.75c1.28,0,1.56-1.87.19-1.87s-1.56,1.87-.19,1.87Z" transform="translate(0 -0.19)"/><path class="cls-1" d="M15.42,156.36c.64,0,.17-1-.36-1s-.18,1,.36,1Z" transform="translate(0 -0.19)"/><path class="cls-1" d="M23.87,159.69c.79,0,.36-1.1-.27-1.1-.79,0-.36,1.1.27,1.1Z" transform="translate(0 -0.19)"/><path class="cls-1" d="M24.25,154.09c.79,0,.37-1.1-.26-1.1-.79,0-.37,1.1.26,1.1Z" transform="translate(0 -0.19)"/><path class="cls-1" d="M19,153.75c.43,0,.17-.81-.22-.81s-.17.81.22.81Z" transform="translate(0 -0.19)"/><path class="cls-1" d="M20.73,147.3c.73,0,.42-1-.17-1s-.42,1,.17,1Z" transform="translate(0 -0.19)"/><path class="cls-1" d="M15.4,148.74a.78.78,0,0,0,.37-.06.75.75,0,0,0,.31-.15.57.57,0,0,0,.2-.26.53.53,0,0,0,.09-.3l0-.22a.88.88,0,0,0-.24-.36l-.18-.13a1,1,0,0,0-.48-.12.9.9,0,0,0-.36.05.77.77,0,0,0-.31.16.6.6,0,0,0-.2.25.56.56,0,0,0-.09.31l0,.21a.77.77,0,0,0,.24.37l.18.13a1.13,1.13,0,0,0,.47.12Z" transform="translate(0 -0.19)"/><path class="cls-1" d="M10.75,151.15h0l.06.08-.07-.09h0l0,0,0,0a.28.28,0,0,0-.11-.08.27.27,0,0,0-.12,0,.21.21,0,0,0-.11,0,.24.24,0,0,0-.08.09l0,.08a.41.41,0,0,0,0,.19l0,.1a.43.43,0,0,0,.12.17l-.11-.56h0a.27.27,0,0,0,0,.12.38.38,0,0,0,0,.15l0,.1a.43.43,0,0,0,.12.17.2.2,0,0,0,.07.06l.07.06h0a.22.22,0,0,0,.11.05.14.14,0,0,0,.11,0l.06,0a.15.15,0,0,0,.06-.09.24.24,0,0,0,0-.08.33.33,0,0,0,0-.14l0-.1a.59.59,0,0,0-.1-.17Z" transform="translate(0 -0.19)"/><path class="cls-1" d="M11,144.45l.35-.16a.22.22,0,0,0,.09-.1.23.23,0,0,0,0-.14.33.33,0,0,0,0-.17.58.58,0,0,0-.06-.17l-.08-.1a.59.59,0,0,0-.18-.13l-.1,0a.29.29,0,0,0-.18,0q.32,0,.09,0l-.09,0h0l0,0-.09,0-.16.09a.15.15,0,0,0-.09.1.21.21,0,0,0-.05.13.29.29,0,0,0,0,.16.49.49,0,0,0,.06.17l.07.1a.52.52,0,0,0,.17.13l.1,0a.25.25,0,0,0,.17,0Z" transform="translate(0 -0.19)"/><path class="cls-1" d="M18.2,142.91l0-.2v0a.66.66,0,0,0,0-.14v0a.77.77,0,0,0,0-.15l0-.1a.34.34,0,0,0-.09-.14l-.07-.07a.34.34,0,0,0-.12-.06h-.09l-.07,0a.24.24,0,0,0-.09.08.21.21,0,0,0-.05.12,1.09,1.09,0,0,0,0,.18,1.23,1.23,0,0,0,0,.19l0,.16,0,.1a.24.24,0,0,0,.07.13.32.32,0,0,0,.15.13h.14a.15.15,0,0,0,.09-.06.31.31,0,0,0,.05-.1Z" transform="translate(0 -0.19)"/><path class="cls-1" d="M13,139a1.1,1.1,0,0,0,.41-.05,1,1,0,0,0,.37-.17,1,1,0,0,0,.25-.28.78.78,0,0,0,.13-.34v-.24a.76.76,0,0,0-.21-.43l-.19-.16a1,1,0,0,0-.49-.15.82.82,0,0,0-.41,0,.8.8,0,0,0-.36.17.68.68,0,0,0-.25.28.59.59,0,0,0-.13.33v.25a.87.87,0,0,0,.21.43l.19.15A1.23,1.23,0,0,0,13,139Z" transform="translate(0 -0.19)"/><path class="cls-1" d="M6.23,136.47l-.29.18.1-.06a.28.28,0,0,0-.17.13.18.18,0,0,0,0,.07l0,.09a.33.33,0,0,0,0,.17.28.28,0,0,0,0,.13.42.42,0,0,0,.1.17l.09.11.11.07a.44.44,0,0,0,.16.06.29.29,0,0,0,.16,0c-.23,0-.26,0-.08,0l.11,0h.1l.11,0,.21-.09a.26.26,0,0,0,.13-.12.26.26,0,0,0,.07-.17.41.41,0,0,0,0-.19.4.4,0,0,0-.09-.2l-.09-.12a.71.71,0,0,0-.26-.16l-.13,0a.43.43,0,0,0-.25,0Z" transform="translate(0 -0.19)"/><path class="cls-1" d="M6.84,132h0L7,132a.24.24,0,0,0,.13-.11.28.28,0,0,0,.07-.17v-.09l-.13.26a1.73,1.73,0,0,0,.21-.17l0-.07a.28.28,0,0,0,0-.13.45.45,0,0,0,0-.25.66.66,0,0,0-.12-.17A.31.31,0,0,0,7,131l.16,0h0l0,0a.5.5,0,0,0-.21,0l-.24,0H6.8a.65.65,0,0,0-.31,0l-.12,0h0l-.07,0a.22.22,0,0,0-.13.1.33.33,0,0,0-.07.16.41.41,0,0,0,0,.19.73.73,0,0,0,.07.19.78.78,0,0,0,.33.29l.12,0a.49.49,0,0,0,.24,0Z" transform="translate(0 -0.19)"/><path class="cls-1" d="M13.64,132.53c.45,0,.13-.86-.29-.86s-.13.86.29.86Z" transform="translate(0 -0.19)"/><path class="cls-1" d="M14.34,128.22c.39,0,.21-.74-.14-.74s-.21.74.14.74Z" transform="translate(0 -0.19)"/><path class="cls-1" d="M9.69,128.09c.53,0,.31-.86-.11-.86s-.31.86.11.86Z" transform="translate(0 -0.19)"/><path class="cls-1" d="M10.35,122.58c-.08.32-.08.43,0,.34h0l0,0-.16.12.1,0-.12,0h0l.12,0a.22.22,0,0,0,.13-.12.14.14,0,0,0,0-.11.25.25,0,0,0,0-.12.3.3,0,0,0,0-.13.5.5,0,0,0,0-.13.62.62,0,0,0-.14-.19l-.12-.09-.13-.07-.13,0H9.82l-.12,0a.22.22,0,0,0-.13.12.19.19,0,0,0-.05.1l0,.06.31.6-.16-.22.09.15a.38.38,0,0,0,.11.14.58.58,0,0,0,.12.1l.1,0a.2.2,0,0,0,.13,0,.08.08,0,0,0,.07,0,.16.16,0,0,0,.08-.1l0-.1a.51.51,0,0,0,0-.21Z" transform="translate(0 -0.19)"/><path class="cls-1" d="M4.63,122a1.25,1.25,0,0,0-.16-.22l-.16-.13,0,0-.06,0a1.16,1.16,0,0,0-.24-.14l.07,0c-.07,0-.16-.11-.25-.09a.22.22,0,0,0-.14.17.48.48,0,0,0,0,.29q.09.09,0,.06l0,0,0-.09a.91.91,0,0,0,.16.31l0,0,0,.06.1.11a.54.54,0,0,0,.16.14l.09.06a.4.4,0,0,0,.26.1l.08,0a.18.18,0,0,0,.09-.08.13.13,0,0,0,0-.08.39.39,0,0,0,0-.15.61.61,0,0,0-.13-.31Z" transform="translate(0 -0.19)"/><path class="cls-1" d="M.91,117.29a.58.58,0,0,0,.58-.68.9.9,0,0,0-.9-.61.58.58,0,0,0-.58.69.9.9,0,0,0,.9.6Z" transform="translate(0 -0.19)"/><path class="cls-1" d="M7.72,118.44a.7.7,0,0,0,.32-.09.62.62,0,0,0,.26-.17.51.51,0,0,0,.14-.26.48.48,0,0,0,0-.29l-.06-.19a.84.84,0,0,0-.28-.31l-.2-.11a1,1,0,0,0-.46-.07.85.85,0,0,0-.32.09.65.65,0,0,0-.26.17.51.51,0,0,0-.14.26.48.48,0,0,0,0,.29l.06.19a.84.84,0,0,0,.28.31l.19.11a1.1,1.1,0,0,0,.47.07Z" transform="translate(0 -0.19)"/><path class="cls-1" d="M13.35,118.54c.36,0,.23-.7-.09-.7s-.23.7.09.7Z" transform="translate(0 -0.19)"/><path class="cls-1" d="M10.57,114.05c.63,0,.19-1-.33-1s-.19,1,.33,1Z" transform="translate(0 -0.19)"/><path class="cls-1" d="M3.77,113.2c.44,0,.16-.83-.25-.83s-.15.83.25.83Z" transform="translate(0 -0.19)"/><path class="cls-1" d="M5.09,106.86h0l-.11,0a2.74,2.74,0,0,0,.28.05l.16,0h.07a.2.2,0,0,0,.12-.08.25.25,0,0,0,.08-.12v-.11a.33.33,0,0,0,0-.17.61.61,0,0,0-.05-.12.44.44,0,0,0-.12-.15L5.47,106a.6.6,0,0,0-.21-.08H5.2l.11,0a1.37,1.37,0,0,0-.28,0l-.15,0H4.81a.2.2,0,0,0-.12.08.2.2,0,0,0-.08.12l0,.1a.57.57,0,0,0,0,.18.37.37,0,0,0,0,.11.64.64,0,0,0,.11.16l.1.08a.48.48,0,0,0,.21.07Z" transform="translate(0 -0.19)"/><path class="cls-1" d="M8.94,109.37c.56,0,.29-.9-.16-.9s-.28.9.16.9Z" transform="translate(0 -0.19)"/><path class="cls-1" d="M11.61,102.94h0l.09.06-.09-.08.08.08,0,0v0a.64.64,0,0,0-.19-.13l.09,0a.39.39,0,0,1-.1-.08l.07.07-.07-.08.06.08-.11-.14.06.07a1.4,1.4,0,0,1-.1-.16l0,.07a.42.42,0,0,0-.11-.15.14.14,0,0,0-.11,0c-.09,0-.15.09-.17.18a.75.75,0,0,0,0,.15.48.48,0,0,1,0-.19v0a.67.67,0,0,0,0,.28,1.11,1.11,0,0,0,.09.31l0,.08a.65.65,0,0,0,.16.21l.15.1a.67.67,0,0,0,.12.06.18.18,0,0,0,.14,0,.17.17,0,0,0,.12,0,.3.3,0,0,0,.14-.22.55.55,0,0,0-.07-.33l-.06-.09a.58.58,0,0,0-.17-.14Z" transform="translate(0 -0.19)"/><path class="cls-1" d="M6.87,97.67l0-.12a1.37,1.37,0,0,0-.19-.3l.07.1-.13-.19-.07-.08A.24.24,0,0,0,6.37,97a.11.11,0,0,0-.08,0,.19.19,0,0,0-.13,0l-.06,0,0,.07a.35.35,0,0,0,0,.14.44.44,0,0,0,0,.16l.06.19,0,0a1,1,0,0,0,.07.15l0,.08a.47.47,0,0,0,.11.13.33.33,0,0,0,.14.1l.09,0a.22.22,0,0,0,.14,0,.14.14,0,0,0,.08,0A.18.18,0,0,0,6.87,98l0-.09a.78.78,0,0,0,0-.22Z" transform="translate(0 -0.19)"/><path class="cls-1" d="M6.91,102.12c.14,0,.17-.31,0-.31s-.17.31,0,.31Z" transform="translate(0 -0.19)"/><path class="cls-1" d="M6.85,90.79c.44,0,.17-.82-.23-.82s-.16.82.23.82Z" transform="translate(0 -0.19)"/><path class="cls-1" d="M10.47,85.71h-.16c-.08,0-.11,0-.16.08l-.05.07,0,.09v.11a.32.32,0,0,0,0,.16.47.47,0,0,0,.05.1l.07.09a.24.24,0,0,0,.08.06.31.31,0,0,0,.13.06h0a.22.22,0,0,0,.11,0h.14a.23.23,0,0,0,.12-.06.27.27,0,0,0,.08-.1.39.39,0,0,0,0-.15.47.47,0,0,0,0-.16l0-.11a.55.55,0,0,0-.14-.17l-.09-.06a.29.29,0,0,0-.18,0Z" transform="translate(0 -0.19)"/><path class="cls-1" d="M12.86,93.12c.45,0,.14-.85-.27-.85s-.14.85.27.85Z" transform="translate(0 -0.19)"/><path class="cls-1" d="M3.76,85.25c.11.64.31.87.59.68a.2.2,0,0,0,.11-.11.37.37,0,0,0,0-.17.44.44,0,0,0,0-.19l-.05-.12a.82.82,0,0,0-.19-.22l-.12-.07A.53.53,0,0,0,3.88,85l.17,0,.26.36v0a.58.58,0,0,0,0-.14.36.36,0,0,0-.08-.12L4.12,85A.21.21,0,0,0,4,85a.09.09,0,0,0-.07,0,.13.13,0,0,0-.1,0l0,.06a.26.26,0,0,0,0,.15Z" transform="translate(0 -0.19)"/><path class="cls-1" d="M6.47,77.5c0-.06.07-.13.1-.2a.21.21,0,0,0,0-.11.28.28,0,0,0,0-.13l0-.09a.31.31,0,0,0-.06-.13l-.06-.06a.23.23,0,0,0-.1-.07l-.07,0a.18.18,0,0,0-.12,0c.05,0,0,0,0,0h0l-.07,0L6,76.86a.19.19,0,0,0-.11.12.31.31,0,0,0,0,.19l0,.1a.68.68,0,0,0,.1.21.63.63,0,0,0,.12.11.31.31,0,0,0,.13.06.29.29,0,0,0,.16,0,.25.25,0,0,0,.12-.13Z" transform="translate(0 -0.19)"/><path class="cls-1" d="M12.34,80.26c.66,0,.15-1-.39-1s-.15,1,.39,1Z" transform="translate(0 -0.19)"/><path class="cls-1" d="M7.62,82.47l.11-.3a.4.4,0,0,0,0-.19.29.29,0,0,0,0-.13.39.39,0,0,0-.08-.14l-.08-.11a.45.45,0,0,0-.14-.1l-.1,0a.26.26,0,0,0-.15,0l.06,0H7l-.05,0,0,0-.17.08a.35.35,0,0,0-.16.2l0,.13a.53.53,0,0,0,.07.28.48.48,0,0,0,.15.2.62.62,0,0,0,.2.15.46.46,0,0,0,.23.06.37.37,0,0,0,.21,0,.37.37,0,0,0,.22-.14Z" transform="translate(0 -0.19)"/><path class="cls-1" d="M12.43,76c.74,0,.41-1-.18-1-.74,0-.41,1,.18,1Z" transform="translate(0 -0.19)"/><path class="cls-1" d="M17.15,77c.1,0,.14-.25,0-.25s-.14.25,0,.25Z" transform="translate(0 -0.19)"/><path class="cls-1" d="M8.06,71.15a.87.87,0,0,0,.42-.07.87.87,0,0,0,.36-.18,1,1,0,0,0,.36-.64V70A.79.79,0,0,0,9,69.58l-.2-.15a1,1,0,0,0-.5-.14,1,1,0,0,0-.42.06.9.9,0,0,0-.36.19.67.67,0,0,0-.24.29.62.62,0,0,0-.12.35v.25a.83.83,0,0,0,.23.43l.2.15a1.07,1.07,0,0,0,.5.14Z" transform="translate(0 -0.19)"/><path class="cls-1" d="M14.06,68.93c.83,0,.31-1.15-.35-1.15-.84,0-.31,1.15.35,1.15Z" transform="translate(0 -0.19)"/><path class="cls-1" d="M11.19,64.91a1.13,1.13,0,0,0,1.09-1.07,1,1,0,0,0-1.11-.93A1.14,1.14,0,0,0,10.08,64a1,1,0,0,0,1.11.92Z" transform="translate(0 -0.19)"/><path class="cls-1" d="M19.29,60.24a.46.46,0,0,0,.42-.62.82.82,0,0,0-.8-.53.46.46,0,0,0-.42.62.83.83,0,0,0,.8.53Z" transform="translate(0 -0.19)"/><path class="cls-1" d="M21.81,63.65c.65,0,.15-1-.39-1s-.16,1,.39,1Z" transform="translate(0 -0.19)"/><path class="cls-1" d="M14,60.08c.45,0,.15-.83-.26-.83s-.14.83.26.83Z" transform="translate(0 -0.19)"/><path class="cls-1" d="M17.23,65.44c.39,0,.22-.74-.13-.74s-.21.74.13.74Z" transform="translate(0 -0.19)"/><path class="cls-1" d="M17.5,53.77c.6,0,.22-1-.27-1s-.23,1,.27,1Z" transform="translate(0 -0.19)"/><path class="cls-1" d="M23.46,53.57a1,1,0,0,0-.4-.54l0,0L23,53a.17.17,0,0,1-.1,0h-.18l-.1.07-.07.09a.34.34,0,0,0,0,.17.35.35,0,0,0,0,.2l.06.12a.65.65,0,0,0,.15.18.42.42,0,0,0,.18.11L23,54a.28.28,0,0,0,.18,0,.21.21,0,0,0,.15-.07l.07-.1a.37.37,0,0,0,0-.23Z" transform="translate(0 -0.19)"/><path class="cls-1" d="M20.14,47.71c.93,0,.63-1.2-.15-1.2s-.63,1.2.15,1.2Z" transform="translate(0 -0.19)"/><path class="cls-1" d="M25.58,44.19c1.3,0,1.55-1.89.17-1.89s-1.54,1.89-.17,1.89Z" transform="translate(0 -0.19)"/><path class="cls-1" d="M28.71,48.15l.44.62L29,48.68l.1.08.1.08a.34.34,0,0,0,.17,0,.14.14,0,0,0,.11,0,.25.25,0,0,0,.14-.06.78.78,0,0,0,.2-.16l0,0s0,0,0-.06a.32.32,0,0,0,0-.14.31.31,0,0,0,0-.21l-.06-.15-.1-.13a.65.65,0,0,0-.21-.16.37.37,0,0,0-.16-.07.5.5,0,0,0-.24,0l-.15,0-.12.07a.29.29,0,0,0-.13.16.35.35,0,0,0-.05.2Z" transform="translate(0 -0.19)"/><path class="cls-1" d="M27.75,53.53H27.7l.19.11a.63.63,0,0,0-.12-.11.41.41,0,0,0-.11-.07.42.42,0,0,0-.16,0h-.1l-.09,0a.27.27,0,0,0-.09.12.17.17,0,0,0,0,.1.33.33,0,0,0,0,.17l0,.12.06.11a.47.47,0,0,0,.14.14.21.21,0,0,0,.1.06.3.3,0,0,0,.16,0h.1l.09,0a.3.3,0,0,0,.13-.22l-.14.15h0a.16.16,0,0,0,.08-.06.41.41,0,0,0,.05-.09l0-.08a.34.34,0,0,0,0-.14.29.29,0,0,0,0-.09.41.41,0,0,0-.07-.11l-.06-.06a.19.19,0,0,0-.13,0Z" transform="translate(0 -0.19)"/><path class="cls-1" d="M34.86,44.89h0l-.1-.11.1.1-.09-.1.08.1-.08-.11a.45.45,0,0,0-.13-.11.21.21,0,0,0-.13,0h-.09a.24.24,0,0,0-.16.09s0,0,0,0l0,0-.06,0-.07.09,0,.11a.4.4,0,0,0,0,.19.28.28,0,0,0,0,.13.32.32,0,0,0,.08.12.27.27,0,0,0,.1.11.31.31,0,0,0,.11.09.44.44,0,0,0,.19.07h.12l.12,0,.09-.06L35,45.5l0-.11a.41.41,0,0,0,0-.19.31.31,0,0,0-.05-.12.44.44,0,0,0-.12-.19Z" transform="translate(0 -0.19)"/><path class="cls-1" d="M32,42.38c.62,0,.21-1-.3-1s-.21,1,.3,1Z" transform="translate(0 -0.19)"/><path class="cls-1" d="M32.42,35.28c0,.11-.05.14,0,.1v-.05l0-.06a.14.14,0,0,1,0-.06.56.56,0,0,0,0-.34q-.07-.15-.15-.27l-.07-.09-.07,0a.22.22,0,0,0-.11-.05h-.08a.14.14,0,0,0-.1,0l-.09.09,0,0,0,0,0,.09a.41.41,0,0,0,0,.22v0l.05.15.06.12.08.1.09.08a.34.34,0,0,0,.15.06.16.16,0,0,0,.1,0,.15.15,0,0,0,.09,0,.14.14,0,0,0,.08-.05.25.25,0,0,0,.08-.12Z" transform="translate(0 -0.19)"/><path class="cls-1" d="M42.13,34.47l.38-.09.07-.07,0-.09v-.11a.38.38,0,0,0,0-.18.37.37,0,0,0-.05-.11.31.31,0,0,0-.08-.11.28.28,0,0,0-.1-.09.38.38,0,0,0-.15-.09l.05,0h-.05l-.06,0-.12,0a.37.37,0,0,0-.18,0,.28.28,0,0,0-.15.08.24.24,0,0,0-.09.14.28.28,0,0,0,0,.18l0,.13a.77.77,0,0,0,.14.25l.12.1a.66.66,0,0,0,.24.11Z" transform="translate(0 -0.19)"/><path class="cls-1" d="M36.78,37.7l-.21,0a.42.42,0,0,0-.2,0,.31.31,0,0,0-.16.11.29.29,0,0,0-.08.18.37.37,0,0,0,0,.21l0,.14a.85.85,0,0,0,.21.25l.14.09a.61.61,0,0,0,.3.08l.27,0a.38.38,0,0,0,.17-.08.26.26,0,0,0,.11-.14l0-.13a.36.36,0,0,0,0-.2.69.69,0,0,0-.05-.13.9.9,0,0,0-.15-.19l-.13-.09a.66.66,0,0,0-.27-.09Z" transform="translate(0 -0.19)"/><path class="cls-1" d="M37.52,32.26a.84.84,0,0,0-.25-.89l-.08-.05a.37.37,0,0,0-.18-.08.22.22,0,0,0-.14,0,.41.41,0,0,0-.19.12h0l.07-.08-.12.14a.3.3,0,0,0-.08.17.44.44,0,0,0,0,.2.52.52,0,0,0,.09.2.49.49,0,0,0,.14.18l.14.1a.66.66,0,0,0,.28.09h.13a.39.39,0,0,0,.22-.11Z" transform="translate(0 -0.19)"/><path class="cls-1" d="M41.25,24.82a1.71,1.71,0,0,0,.11-.14l-.07.09,0,0,.06-.09a.3.3,0,0,0,0-.18.25.25,0,0,0,0-.12.29.29,0,0,0,0-.13.76.76,0,0,0-.12-.19l-.12-.1L41,23.87a.41.41,0,0,0-.19,0h-.12a.19.19,0,0,0-.1.05.23.23,0,0,0-.12.12l0,.11v.13l0,.13a.52.52,0,0,0,.11.19.81.81,0,0,0,.16.16l-.11-.1-.08-.12.09.16a.73.73,0,0,0,.17.18.39.39,0,0,0,.15.06.22.22,0,0,0,.14,0,.21.21,0,0,0,.16-.1Z" transform="translate(0 -0.19)"/><path class="cls-1" d="M50.11,23.88c.76,0,.4-1.06-.21-1.06s-.4,1.06.21,1.06Z" transform="translate(0 -0.19)"/><path class="cls-1" d="M45.58,17.5l0-.05.07.59a.34.34,0,0,0,.13-.16.32.32,0,0,0,0-.19.54.54,0,0,0,0-.22.53.53,0,0,0-.13-.2l-.13-.12a.72.72,0,0,0-.23-.12A.59.59,0,0,0,45,17a.37.37,0,0,0-.21.06.31.31,0,0,0-.16.12l-.06.12a.38.38,0,0,0,0,.21.57.57,0,0,0,.07.22l.1.13a.83.83,0,0,0,.28.21l.16.05a.57.57,0,0,0,.26,0L45.17,18l.06.06a.37.37,0,0,0,.14.07.27.27,0,0,0,.13,0l.08,0a.2.2,0,0,0,.09-.09.36.36,0,0,0,0-.24l0-.1a.55.55,0,0,0-.12-.21Z" transform="translate(0 -0.19)"/><path class="cls-1" d="M46,27.16c.74,0,.41-1.05-.18-1.05s-.41,1.05.18,1.05Z" transform="translate(0 -0.19)"/><path class="cls-1" d="M45.64,21.76a.29.29,0,0,0,0,.08v0l.11-.14-.05,0,.09,0h0a.22.22,0,0,0-.13.1.11.11,0,0,0,0,.09.25.25,0,0,0,0,.17l0,.12.05.13a.7.7,0,0,0,.13.17l.11.08a.38.38,0,0,0,.17.08l.12,0,.11,0a.26.26,0,0,0,.13-.1.13.13,0,0,0,.05-.09.25.25,0,0,0,0-.17l0-.12,0-.13a1,1,0,0,0-.18-.22l-.1-.07.1.08-.1-.07.19.18-.09-.11a.35.35,0,0,0-.13-.11.24.24,0,0,0-.14,0H45.8a.26.26,0,0,0-.16.09Z" transform="translate(0 -0.19)"/><path class="cls-1" d="M51.81,29.51c.38,0,.21-.73-.13-.73s-.22.73.13.73Z" transform="translate(0 -0.19)"/><path class="cls-1" d="M56.94,23.49a1,1,0,0,0,.16-.63c0-.06,0-.14-.05-.2V22.6a1.31,1.31,0,0,0-.08-.21v0a.86.86,0,0,0-.15-.22l-.09-.08a.35.35,0,0,0-.14-.06.26.26,0,0,0-.23,0l-.13.12,0,0,0,.07a1.59,1.59,0,0,0-.07.2.59.59,0,0,0,0,.17.6.6,0,0,0,0,.23v0a.83.83,0,0,0,0,.15l.09.21a.59.59,0,0,0,.37.34.3.3,0,0,0,.37-.11Z" transform="translate(0 -0.19)"/><path class="cls-1" d="M36.4,25.17c.58,0,.26-.94-.22-.94s-.25.94.22.94Z" transform="translate(0 -0.19)"/><path class="cls-1" d="M54.94,18.67c.77,0,.4-1.07-.21-1.07-.77,0-.4,1.07.21,1.07Z" transform="translate(0 -0.19)"/><path class="cls-1" d="M57.28,13.88c1.32,0,1.52-1.92.13-1.92s-1.52,1.92-.13,1.92Z" transform="translate(0 -0.19)"/><path class="cls-1" d="M50.69,16.09c.59,0,.26-.93-.21-.93s-.26.93.21.93Z" transform="translate(0 -0.19)"/><path class="cls-1" d="M62.15,18.7c.83,0,.32-1.13-.34-1.13-.82,0-.32,1.13.34,1.13Z" transform="translate(0 -0.19)"/><path class="cls-1" d="M72.71,18.79c.59,0,.26-.93-.21-.93s-.26.93.21.93Z" transform="translate(0 -0.19)"/><path class="cls-1" d="M76.38,11.33c.76,0,.4-1.07-.21-1.07-.76,0-.4,1.07.21,1.07Z" transform="translate(0 -0.19)"/><path class="cls-1" d="M86.56,10.86l0,0h.11l.13,0a.44.44,0,0,0,.23,0l.1-.07a.3.3,0,0,0,.1-.2.31.31,0,0,0,0-.19.44.44,0,0,0-.07-.19.5.5,0,0,0-.15-.17.44.44,0,0,0-.19-.12.53.53,0,0,0-.25,0l-.12,0,0,0-.09.05a.23.23,0,0,0-.1.12.3.3,0,0,0,0,.1.33.33,0,0,0,0,.17l0,.12.07.12a.62.62,0,0,0,.14.14.51.51,0,0,0,.16.09Z" transform="translate(0 -0.19)"/><path class="cls-1" d="M70.65,13.07l-.87,1.59.15-.05a1,1,0,0,0,.41-.23.85.85,0,0,0,.27-.35.8.8,0,0,0,.14-.4v-.29a1,1,0,0,0-.25-.51l-.22-.18a1.17,1.17,0,0,0-.55-.16l-1.23.88h0v0a.43.43,0,0,0,0,.05v.35a.3.3,0,0,0,0,.15.49.49,0,0,0,.12.25.51.51,0,0,0,.2.21.49.49,0,0,0,.24.15,1,1,0,0,0,.42.1l.3,0,.3-.1.26-.18.2-.22a1,1,0,0,0,.18-.39.69.69,0,0,0,0-.28.77.77,0,0,0-.1-.42Z" transform="translate(0 -0.19)"/><path class="cls-1" d="M63.23,9.39c.74,0,.41-1.05-.18-1.05s-.41,1.05.18,1.05Z" transform="translate(0 -0.19)"/><path class="cls-1" d="M72,7.89l0-.07V7.77a.78.78,0,0,0,0-.14l-.08-.13a.58.58,0,0,0-.18-.17.65.65,0,0,0-.22-.11l-.14,0a.34.34,0,0,0-.2,0,.33.33,0,0,0-.16.11.26.26,0,0,0-.07.17c0,.1,0,.09,0,0h0v0l0,.11a.62.62,0,0,0,0,.27.71.71,0,0,0,.16.28l.12.12a.73.73,0,0,0,.31.14.55.55,0,0,0,.22,0,.48.48,0,0,0,.2-.07A.37.37,0,0,0,72,8.17a.66.66,0,0,0,0-.28Z" transform="translate(0 -0.19)"/><path class="cls-1" d="M73.81,2.78l0-.1v.38a1.75,1.75,0,0,0,.12-.32v0a.61.61,0,0,0,0-.27l-.08-.13a.8.8,0,0,0-.23-.22A.49.49,0,0,0,73.34,2a.44.44,0,0,0-.2,0,.25.25,0,0,0-.16.08.21.21,0,0,0-.12.14.52.52,0,0,0,0,.25,1,1,0,0,0,.45.56.27.27,0,0,0,.14.07l-.1,0,.1.06L73.27,3l.07.12a.52.52,0,0,0,.1.11.24.24,0,0,0,.11.06h.08a.17.17,0,0,0,.1,0s0,0,.06,0a.37.37,0,0,0,0-.11.57.57,0,0,0,0-.29Z" transform="translate(0 -0.19)"/><path class="cls-1" d="M80.87,6.85l-.19.05,0,0s0,0,0,.06l0,0a.28.28,0,0,0,0,.09l0,.12a.15.15,0,0,0,.05.06.1.1,0,0,0,0,0l.2.05a.12.12,0,0,0,.1,0l0,0a.16.16,0,0,0,0-.11.21.21,0,0,0,0-.11.52.52,0,0,0,0-.11.41.41,0,0,0,0-.09A.17.17,0,0,0,81,6.87a.12.12,0,0,0-.1,0Z" transform="translate(0 -0.19)"/><path class="cls-1" d="M83.45,14.4c.34,0,.24-.65,0-.65s-.25.65,0,.65Z" transform="translate(0 -0.19)"/><path class="cls-1" d="M92.61,15h0l.2.07L92.63,15l-.13,0h-.12l-.12,0-.09.07-.07.09,0,.11v.13a.6.6,0,0,0,.06.19.57.57,0,0,0,.08.13.38.38,0,0,0,.11.11.36.36,0,0,0,.12.08.26.26,0,0,0,.12.05.2.2,0,0,0,.13,0,.17.17,0,0,0,.12,0,.18.18,0,0,0,.1,0,.22.22,0,0,0,.12-.13l0-.17-.22.3h0A.24.24,0,0,0,93,15.8a.19.19,0,0,0,.07-.12l0-.1a.32.32,0,0,0,0-.17.61.61,0,0,0,0-.12.57.57,0,0,0-.11-.16l-.1-.07a.36.36,0,0,0-.2-.08Z" transform="translate(0 -0.19)"/><path class="cls-1" d="M99.93,11.48v.35h0v0l0-.05,0-.09a.44.44,0,0,0,0-.2.83.83,0,0,0-.06-.21l-.09-.13a.75.75,0,0,0-.26-.21l-.11-.05.16.14h0l-.07-.08a.42.42,0,0,0-.12-.08l-.08,0a.16.16,0,0,0-.12,0c-.37.29-.45.58-.23.87a.5.5,0,0,0,.15.17.76.76,0,0,0,.19.12l.13,0a.28.28,0,0,0,.18,0,.21.21,0,0,0,.11,0,.28.28,0,0,0,.11-.13l0-.12a.52.52,0,0,0,0-.25Z" transform="translate(0 -0.19)"/><path class="cls-1" d="M109.1,7.67l.1,0,.19,0,.21,0h.33a.31.31,0,0,0,.27-.14.47.47,0,0,0,0-.33A.61.61,0,0,0,110,7a.58.58,0,0,0-.33-.14c.13,0,.15,0,0,0h-.3l-.21,0,0,0h0l0,0A.2.2,0,0,0,109,7l.06,0L109,7a.22.22,0,0,0-.12.13.34.34,0,0,0,0,.22.44.44,0,0,0,.07.19.35.35,0,0,0,.19.17Z" transform="translate(0 -0.19)"/><path class="cls-1" d="M95.78,7.51,94.69,6a.76.76,0,0,0-.1.39.68.68,0,0,0,0,.4l.85-1.49-.15.07a1,1,0,0,0-.4.28.9.9,0,0,0-.25.39.92.92,0,0,0-.1.44l0,.29a1.14,1.14,0,0,0,.32.51l.25.17a1.32,1.32,0,0,0,.59.11Z" transform="translate(0 -0.19)"/><path class="cls-1" d="M88,4.8a.37.37,0,0,0,.21-.06.34.34,0,0,0,.16-.13.31.31,0,0,0,.07-.2.38.38,0,0,0,0-.21l-.06-.15a.82.82,0,0,0-.24-.25L88,3.71a.72.72,0,0,0-.32,0c.11,0,.84.86.77.54l-.06-.15-.1-.13a.6.6,0,0,0-.22-.16.5.5,0,0,0-.24-.09h-.15a.36.36,0,0,0-.21,0,.2.2,0,0,0-.11.09.25.25,0,0,0-.11.17l0,.14a.43.43,0,0,0,.06.22.57.57,0,0,0,.13.21l.14.11.15.09A.91.91,0,0,0,88,4.8Z" transform="translate(0 -0.19)"/><path class="cls-1" d="M93,1.3l.11-.16a.36.36,0,0,0,.06-.2.46.46,0,0,0,0-.23A.45.45,0,0,0,93,.5a.7.7,0,0,0-.2-.18L92.63.24a.76.76,0,0,0-.33,0l-.15,0a.43.43,0,0,0-.22.18l.15.74a.72.72,0,0,0,.25.21.54.54,0,0,0,.21.08.5.5,0,0,0,.21,0A.38.38,0,0,0,93,1.3Z" transform="translate(0 -0.19)"/><path class="cls-1" d="M102.23,1.75,102,2l0,0a.21.21,0,0,0,.12-.11.29.29,0,0,0,0-.16.37.37,0,0,0,0-.18l0-.12a.65.65,0,0,0-.18-.22l-.12-.08a.37.37,0,0,0-.23-.05l.26.07h0l-.11,0h-.12a.19.19,0,0,0-.15,0,.16.16,0,0,0-.09.07.13.13,0,0,0,0,.09.15.15,0,0,0,0,.11.24.24,0,0,0,0,.12.6.6,0,0,0,.06.19l.08.12.11.1.11.07.12.05h.11a.24.24,0,0,0,.16,0,.16.16,0,0,0,.08-.06.28.28,0,0,0,.08-.15Z" transform="translate(0 -0.19)"/><path class="cls-1" d="M104.23,5.29c.62,0,.22-1-.28-1s-.22,1,.28,1Z" transform="translate(0 -0.19)"/><path class="cls-1" d="M114.06,5c1.45,0,1.7-2.24.15-2.24S112.51,5,114.06,5Z" transform="translate(0 -0.19)"/><path class="cls-1" d="M108.49,1.31l.31-.08-.12,0,.23-.06h0l.09,0a.29.29,0,0,0,.11-.16l0-.11a.59.59,0,0,0,0-.23.86.86,0,0,0-.15-.22.4.4,0,0,0-.15-.1.3.3,0,0,0-.16-.05h0l-.26-.07a.71.71,0,0,0-.29,0l-.12.06a.37.37,0,0,0-.16.21.34.34,0,0,0,0,.2.52.52,0,0,0,.07.21.58.58,0,0,0,.15.19.51.51,0,0,0,.21.15.68.68,0,0,0,.31.08Z" transform="translate(0 -0.19)"/><path class="cls-1" d="M116.53,9.11c.55,0,.29-.89-.15-.89s-.29.89.15.89Z" transform="translate(0 -0.19)"/><path class="cls-1" d="M122.55,8.82c.77,0,.39-1.07-.22-1.07-.77,0-.39,1.07.22,1.07Z" transform="translate(0 -0.19)"/><path class="cls-1" d="M128,7.91l.14.08-.12-.07a1.23,1.23,0,0,0,.25.14.76.76,0,0,0,.16.06h.09l.09,0a.18.18,0,0,0,.09-.1.21.21,0,0,0,0-.14v-.1a.49.49,0,0,0-.06-.17.11.11,0,0,1,0-.11h0v0l-.05-.09a.63.63,0,0,0-.21-.22.59.59,0,0,0-.26-.1h-.12a.35.35,0,0,0-.21.1.24.24,0,0,0-.09.15.37.37,0,0,0,0,.18.82.82,0,0,0,.1.26.73.73,0,0,0,.21.22Z" transform="translate(0 -0.19)"/><path class="cls-1" d="M135.47,15.3l.27-.11-.06.05.07-.06.05-.07a.28.28,0,0,0,0-.13.33.33,0,0,0,0-.1.38.38,0,0,0,0-.1.3.3,0,0,0,0-.1l-.07-.09s0-.05-.07-.06a.35.35,0,0,0-.12-.07l.16.1h0l0,0-.09,0-.09,0,0,0a.35.35,0,0,0-.2,0l-.09,0a.28.28,0,0,0-.12.16.43.43,0,0,0,0,.16.58.58,0,0,0,0,.18.57.57,0,0,0,.11.16.4.4,0,0,0,.13.13.44.44,0,0,0,.21.07Z" transform="translate(0 -0.19)"/><path class="cls-1" d="M144.12,17.12l-.14,0,.1,0h.18a.86.86,0,0,0,.36-.07l.13-.07a.38.38,0,0,0,.16-.23.45.45,0,0,0,0-.32.36.36,0,0,0-.08-.12.33.33,0,0,0-.14-.1.88.88,0,0,0-.32-.12l.12,0-.24-.08-.1,0a.64.64,0,0,0-.24,0H144l-.23,0a.3.3,0,0,0-.17.08.29.29,0,0,0-.12.15l0,.13a.48.48,0,0,0,0,.2.69.69,0,0,0,.21.32.73.73,0,0,0,.41.18Z" transform="translate(0 -0.19)"/><path class="cls-1" d="M139.79,12.06c.63,0,.2-1-.31-1s-.21,1,.31,1Z" transform="translate(0 -0.19)"/><path class="cls-1" d="M138.21,6.37l-.15,0a.13.13,0,0,0-.1,0,.18.18,0,0,0-.08.09.27.27,0,0,0,0,.12.38.38,0,0,0,0,.15l0,.1A.5.5,0,0,0,138,7l.08.06a.3.3,0,0,0,.15,0h.05l.13,0A.15.15,0,0,0,138.5,7a.37.37,0,0,0,.05-.11V6.84a.39.39,0,0,0,0-.15.36.36,0,0,0,0-.09.25.25,0,0,0-.08-.12l-.06-.06a.3.3,0,0,0-.15,0Z" transform="translate(0 -0.19)"/><path class="cls-1" d="M134,8.91l-.19,0a.12.12,0,0,0-.1,0,.18.18,0,0,0-.07.08.25.25,0,0,0,0,.12.29.29,0,0,0,0,.13l0,.1a.42.42,0,0,0,.09.16l.07.06a.24.24,0,0,0,.14,0l.2,0,.08-.05a.41.41,0,0,0,0-.09l0-.08a.53.53,0,0,0,0-.13.16.16,0,0,0,0-.09.34.34,0,0,0-.06-.12l-.06,0a.27.27,0,0,0-.12-.06Z" transform="translate(0 -0.19)"/><path class="cls-1" d="M126.2,2.79l-.35,0h0l-.13,0h0a.14.14,0,0,0-.08.07s0,0,0,0a.47.47,0,0,0,0,.17.71.71,0,0,0,0,.2.47.47,0,0,0,.26.26l-.08,0h0l.1,0,.13,0,.19,0,.27,0a.28.28,0,0,0,.15,0,.14.14,0,0,0,.11-.09.23.23,0,0,0,0-.15.33.33,0,0,0,0-.17.69.69,0,0,0-.2-.34l-.11-.08a.52.52,0,0,0-.21-.07Z" transform="translate(0 -0.19)"/><path class="cls-1" d="M133,5c.4,0,.19-.77-.17-.77s-.2.77.17.77Z" transform="translate(0 -0.19)"/><path class="cls-1" d="M120.66,4.07l.19.09.1,0,.07,0h0c.06,0,.1-.06.11-.11a.28.28,0,0,0,0-.09.21.21,0,0,0,0-.11l-.05,0a.15.15,0,0,0-.07-.05l-.1-.06-.2-.11a.1.1,0,0,0-.11,0,.24.24,0,0,0-.07.13.47.47,0,0,0,0,.17.22.22,0,0,0,.09.1Z" transform="translate(0 -0.19)"/><path class="cls-1" d="M143.32,7.71h.38l.1,0,.06,0a.18.18,0,0,0,0-.07.57.57,0,0,0,0-.18.4.4,0,0,0,0-.15.51.51,0,0,0-.07-.15A.57.57,0,0,0,143.7,7l.05,0h0l0,0a.34.34,0,0,0-.14,0l-.11,0a.66.66,0,0,0-.14,0h0l-.08,0a.21.21,0,0,0-.11,0,.16.16,0,0,0-.07.09l0,.09a.38.38,0,0,0,0,.15.19.19,0,0,0,0,.1.51.51,0,0,0,.07.15l.07.08a.42.42,0,0,0,.16.09Z" transform="translate(0 -0.19)"/><path class="cls-1" d="M149.1,7.09l.05.09,0-.09a2,2,0,0,0,.17.32c.05.08.12.16.18.24l.09.11,0,.06,0,0a.61.61,0,0,0,.15.13A.13.13,0,0,0,150,8,.32.32,0,0,0,150,7.7a.73.73,0,0,0-.05-.2l-.06-.1,0-.09a2,2,0,0,0-.14-.25l0-.08-.12-.17-.11-.12a.22.22,0,0,0-.34-.05.43.43,0,0,0,0,.45Z" transform="translate(0 -0.19)"/><path class="cls-1" d="M156.53,17.1l.36.23a.29.29,0,0,0,.16,0l.08,0a.28.28,0,0,0,.12-.12.23.23,0,0,0,0-.14.3.3,0,0,0,0-.16.51.51,0,0,0-.07-.15.64.64,0,0,0-.1-.13.56.56,0,0,0-.17-.09l.24.17-.07-.08a.33.33,0,0,0-.13-.07l-.06,0h0l-.07,0-.15-.05a.14.14,0,0,0-.11,0,.16.16,0,0,0-.09,0l0,.06a.21.21,0,0,0,0,.1.28.28,0,0,0,0,.09.68.68,0,0,0,0,.14.48.48,0,0,0,.15.22Z" transform="translate(0 -0.19)"/><path class="cls-1" d="M149,14.74c.71.4,1.26.38,1.65-.07a1,1,0,0,0,.15-.33v-.09a.64.64,0,0,0,0-.36.56.56,0,0,0-.17-.31.93.93,0,0,0-.41-.26l-.26-.06a1.23,1.23,0,0,0-.54.08,1.12,1.12,0,0,0-.41.3l-.14.2a.87.87,0,0,0-.07.48.84.84,0,0,0,.21.42Z" transform="translate(0 -0.19)"/><path class="cls-1" d="M152,23a1.47,1.47,0,0,0,.94-.45.52.52,0,0,0,.18-.23.62.62,0,0,0,.05-.4,1.52,1.52,0,0,0-.3-.56.6.6,0,0,1-.08-.08.91.91,0,0,0-.23-.15A1.22,1.22,0,0,0,152,21a1.19,1.19,0,0,0-.95.54.91.91,0,0,0-.15.5,1,1,0,0,0,.14.5,1.16,1.16,0,0,0,.4.33,1.09,1.09,0,0,0,.53.1Z" transform="translate(0 -0.19)"/><path class="cls-1" d="M160.08,22c.81,0,.32-1.13-.33-1.13-.82,0-.33,1.13.33,1.13Z" transform="translate(0 -0.19)"/><path class="cls-1" d="M159.78,13.59h0a.4.4,0,0,0-.24,0l-.09.06a.36.36,0,0,0-.11.21.41.41,0,0,0,0,.19.46.46,0,0,0,.08.19.61.61,0,0,0,.15.17.57.57,0,0,0,.18.12.53.53,0,0,0,.25,0h0a.25.25,0,0,0,.16-.06.23.23,0,0,0,.12-.12l0-.11a.28.28,0,0,0,0-.18.28.28,0,0,0,0-.13.57.57,0,0,0-.12-.18l-.11-.1a.47.47,0,0,0-.25-.11Z" transform="translate(0 -0.19)"/><path class="cls-1" d="M168.54,20.89c1,0,.57-1.26-.25-1.26-1,0-.57,1.26.25,1.26Z" transform="translate(0 -0.19)"/><path class="cls-1" d="M155.14,9.54c.25,0,.16-.58-.11-.58s-.17.58.11.58Z" transform="translate(0 -0.19)"/><path class="cls-1" d="M164.36,18.61l-.19,0s0,0,0,0,0,0,0,.05,0,0,0,.05,0,0,0,0l.19,0a.11.11,0,0,0,.06,0,.14.14,0,0,0,0-.09s0-.1-.06-.1Z" transform="translate(0 -0.19)"/><path class="cls-1" d="M166.49,26.8h0v0a.74.74,0,0,0,0,.14v0l.07.13,0,0h0l.05.06a.41.41,0,0,0,.14.12h0a.71.71,0,0,0,.15.08h0l.12,0h.15l.12,0-.08,0,.11,0a.7.7,0,0,0,.09-.06l0-.07a.35.35,0,0,0,0-.14.38.38,0,0,0,0-.1.47.47,0,0,0,0-.16,1.09,1.09,0,0,0-.13-.17.37.37,0,0,0-.12-.07.28.28,0,0,0-.13,0l-.08,0,.08,0h0l-.09,0,.1,0-.07,0,.09,0-.05,0,.09.08,0,0,.08.1h0a.86.86,0,0,0-.19-.19l.09.08,0,0,.08.1,0,0-.07-.1a.49.49,0,0,0-.14-.11l-.1,0a.22.22,0,0,0-.14,0l-.09,0-.06.07a.22.22,0,0,0-.06.13.42.42,0,0,0,0,.16Z" transform="translate(0 -0.19)"/><path class="cls-1" d="M171.93,29.37a.94.94,0,0,0,.29,0h.08a.88.88,0,0,0,.23-.07l.06,0a.21.21,0,0,0,.06-.1.3.3,0,0,0,0-.21.44.44,0,0,0-.07-.19.42.42,0,0,0-.18-.17l.07,0-.07,0h0l-.08,0-.14,0a1,1,0,0,0-.3,0h-.1a.29.29,0,0,0-.2.16.43.43,0,0,0,0,.25.62.62,0,0,0,.12.26.5.5,0,0,0,.26.17Z" transform="translate(0 -0.19)"/><path class="cls-1" d="M172.36,25.3l.16.18-.07-.08.06.08.07.06a.18.18,0,0,0,.1,0,.08.08,0,0,0,.07,0,.16.16,0,0,0,.09,0l-.07,0h0l.12,0,0,0a.08.08,0,0,0,0,0,.12.12,0,0,0,.06-.08.17.17,0,0,0,0-.1.29.29,0,0,0,0-.16l0-.12-.07-.12-.08-.1a.44.44,0,0,0-.15-.1.25.25,0,0,0-.11,0h-.1a.24.24,0,0,0-.14.05l-.07.07,0,.09,0,.11a.47.47,0,0,0,0,.17.48.48,0,0,0,.08.18Z" transform="translate(0 -0.19)"/><path class="cls-1" d="M175.24,35.58l.89-.49-.42.28a1.23,1.23,0,0,1,.26-.12.82.82,0,0,0,.35-.2.64.64,0,0,0,.14-.72.94.94,0,0,0-.68-.49l-.23,0,.41,0,0,0a.68.68,0,0,0-.26-.15,1.08,1.08,0,0,0-.56-.07,1.21,1.21,0,0,0-.94.63,1,1,0,0,0,.08,1,1,1,0,0,0,.43.32,1.19,1.19,0,0,0,.56.07Z" transform="translate(0 -0.19)"/><path class="cls-1" d="M184,33.19c.84,0,.31-1.14-.35-1.14-.83,0-.31,1.14.35,1.14Z" transform="translate(0 -0.19)"/><path class="cls-1" d="M177.66,29.58a1.21,1.21,0,0,0,1,.26l.22,0a.78.78,0,0,0,.35-.18.64.64,0,0,0,.2-.32l0-.37h0v-.07s0-.05,0-.08v0a.64.64,0,0,0-.16-.33.46.46,0,0,0-.17-.17.45.45,0,0,0-.22-.13.51.51,0,0,0-.24-.07.75.75,0,0,0-.42,0l-.26.08-.23.14-.18.18-.13.21a.68.68,0,0,0-.06.37.42.42,0,0,0,.05.24.6.6,0,0,0,.19.31Z" transform="translate(0 -0.19)"/><path class="cls-1" d="M180.57,38.15c.64,0,.17-1-.36-1s-.17,1,.36,1Z" transform="translate(0 -0.19)"/><path class="cls-1" d="M184,44.31c.61,0,.23-1-.27-1s-.23,1,.27,1Z" transform="translate(0 -0.19)"/><path class="cls-1" d="M191.66,41.49h.19a.2.2,0,0,0,.11,0,.24.24,0,0,0,.08-.09.27.27,0,0,0,0-.12.26.26,0,0,0,0-.15l0-.1a.45.45,0,0,0-.11-.17l-.07-.06a.29.29,0,0,0-.16,0h-.16a.17.17,0,0,0-.1,0,.2.2,0,0,0-.08.08.56.56,0,0,0,0,.12.34.34,0,0,0,0,.14l0,.1a.86.86,0,0,0,.1.16l.07.06a.25.25,0,0,0,.15.05Z" transform="translate(0 -0.19)"/><path class="cls-1" d="M184.68,40.43c.25,0,.18-.55-.08-.55s-.18.55.08.55Z" transform="translate(0 -0.19)"/><path class="cls-1" d="M186.79,37.32h.06l.12,0,0,0a.09.09,0,0,0,0-.06.08.08,0,0,0,0,0,.28.28,0,0,0,0-.09.43.43,0,0,0,0-.11.21.21,0,0,0,0-.06.1.1,0,0,0,0,0s.08.07,0,0h0l0,0h0l-.05,0-.11,0a.14.14,0,0,0-.09,0l0,0a.31.31,0,0,0-.05.1.31.31,0,0,0,0,.1.34.34,0,0,0,0,.1l0,.08.06.06a.16.16,0,0,0,.09,0Z" transform="translate(0 -0.19)"/><path class="cls-1" d="M190.12,44.64l0,.6,0-.07a.3.3,0,0,0,0,.08l0,.06a.13.13,0,0,0,.15.06l.13-.07a.24.24,0,0,0,.06-.09.27.27,0,0,0,0-.12V45a.39.39,0,0,0,0-.14.3.3,0,0,0,0-.08.38.38,0,0,0-.09-.09l-.07,0a.17.17,0,0,0-.14,0Z" transform="translate(0 -0.19)"/><path class="cls-1" d="M195.58,51.58c.45,0,.15-.83-.25-.83s-.15.83.25.83Z" transform="translate(0 -0.19)"/><path class="cls-1" d="M199.16,45.91h0l-.06,0,.2,0a.2.2,0,0,0,.15,0,.22.22,0,0,0,.11-.1l0-.09a.41.41,0,0,0,0-.19.47.47,0,0,0-.06-.15.34.34,0,0,0-.09-.12.29.29,0,0,0-.15-.09.2.2,0,0,0-.15,0l-.12,0-.08.05a.19.19,0,0,0-.05.1l0,.08a.57.57,0,0,0,0,.13l0,.09a.37.37,0,0,0,.07.12l.05.05a.38.38,0,0,0,.13.06Z" transform="translate(0 -0.19)"/><path class="cls-1" d="M189.94,48.86l0,.16V49l0,.09,0-.08a1.06,1.06,0,0,0,0,.19h0a.22.22,0,0,0,0,.08.33.33,0,0,0,0,.13l0-.06,0,0,0-.06,0,.06,0-.06,0,.05a.12.12,0,0,0,.06.08.11.11,0,0,0,.08,0c-.06,0-.08,0-.06,0h0l.07,0h.12l.06,0,.14,0a.2.2,0,0,0,.11-.11.33.33,0,0,0,0-.17.46.46,0,0,0-.05-.2.64.64,0,0,0-.08-.14.31.31,0,0,0-.11-.09.3.3,0,0,0-.16-.05.25.25,0,0,0-.14.06.35.35,0,0,0-.07.15Z" transform="translate(0 -0.19)"/><path class="cls-1" d="M194.13,56.44c.22,0,.18-.5,0-.5s-.18.5,0,.5Z" transform="translate(0 -0.19)"/><path class="cls-1" d="M195.43,46.85c.12,0,.15-.25,0-.25s-.15.25,0,.25Z" transform="translate(0 -0.19)"/><path class="cls-1" d="M199.82,54.54a.9.9,0,0,0,.09.32s0,.07.05.1h0a.18.18,0,0,0,0,.07.09.09,0,0,0,.06,0h0a.12.12,0,0,0,.08,0l.08-.08a.26.26,0,0,0,.08-.13.55.55,0,0,0,0-.18.4.4,0,0,0-.07-.18.44.44,0,0,0-.08-.11.21.21,0,0,0-.1-.06.23.23,0,0,0-.14,0,.24.24,0,0,0-.11.09.42.42,0,0,0,0,.16Z" transform="translate(0 -0.19)"/><path class="cls-1" d="M198.57,62.09c1.06,0,.93-1.37,0-1.37s-.93,1.37,0,1.37Z" transform="translate(0 -0.19)"/><path class="cls-1" d="M203.53,63.52l.13.29a.73.73,0,0,0,.17.18.27.27,0,0,0,.14.07.26.26,0,0,0,.15,0,.25.25,0,0,0,.15-.1v0h0l0,0,0-.07a.45.45,0,0,0,0-.45.6.6,0,0,0-.17-.22.44.44,0,0,0-.16-.1.47.47,0,0,0-.17,0,.31.31,0,0,0-.19.06.29.29,0,0,0-.11.18.45.45,0,0,0,0,.23Z" transform="translate(0 -0.19)"/><path class="cls-1" d="M203,69.08l-.12.22,0-.1c0,.06,0,.11-.08.16a.54.54,0,0,0-.05.11.5.5,0,0,0,.06.36.32.32,0,0,0,.25.19h.18l.26,0a.28.28,0,0,0,.2-.08.31.31,0,0,0,.11-.2v-.12a.58.58,0,0,0-.09-.25.39.39,0,0,0-.14-.17.46.46,0,0,0-.18-.13.47.47,0,0,0-.24,0,.32.32,0,0,0-.21.08Z" transform="translate(0 -0.19)"/><path class="cls-1" d="M200.42,73.48c.61,0,.23-1-.27-1s-.23,1,.27,1Z" transform="translate(0 -0.19)"/><path class="cls-1" d="M199.55,67.13v.06s0,.11,0,.16l0,.1a.5.5,0,0,0,.1.14.27.27,0,0,0,.08.07.27.27,0,0,0,.12.06H200l.08,0a.18.18,0,0,0,.09-.08.5.5,0,0,0,0-.13.13.13,0,0,1,0-.06v-.06a.78.78,0,0,0,0-.22l0-.11a.8.8,0,0,0-.15-.17.21.21,0,0,0-.13-.07.19.19,0,0,0-.13,0,.17.17,0,0,0-.12,0,.23.23,0,0,0-.08.11.4.4,0,0,0,0,.19Z" transform="translate(0 -0.19)"/><path class="cls-1" d="M204.06,77.26c.43,0,.17-.81-.22-.81s-.17.81.22.81Z" transform="translate(0 -0.19)"/><path class="cls-1" d="M206.44,72.59l.07.19h0l0,.06a.3.3,0,0,0,.06.11l.07.09a.24.24,0,0,0,.08.06.14.14,0,0,0,.08.05.21.21,0,0,0,.12,0l.08,0,.06,0,0-.07,0-.08v-.1c0,.14,0,.19,0,.14h0l0,.08s0-.08.07-.13a.36.36,0,0,0,.06-.2.53.53,0,0,0-.06-.24.82.82,0,0,0-.16-.22.4.4,0,0,0-.15-.1.33.33,0,0,0-.17,0,.26.26,0,0,0-.19,0,.32.32,0,0,0-.11.17.45.45,0,0,0,0,.23Z" transform="translate(0 -0.19)"/><path class="cls-1" d="M210,80.89c.38,0,.22-.73-.12-.73s-.22.73.12.73Z" transform="translate(0 -0.19)"/><path class="cls-1" d="M208.65,90.35l-.19.21a.33.33,0,0,0-.05.21.69.69,0,0,0,.05.24,1.18,1.18,0,0,0,.11.19.55.55,0,0,0,.17.13.45.45,0,0,0,.2,0h0a.24.24,0,0,0,.15,0l.05,0h0l.05,0,.09-.08a.22.22,0,0,0,.09-.13.25.25,0,0,0,0-.17.39.39,0,0,0,0-.18.4.4,0,0,0-.1-.18l-.09-.1a.51.51,0,0,0-.23-.12l-.11,0a.31.31,0,0,0-.2.07Z" transform="translate(0 -0.19)"/><path class="cls-1" d="M205.65,85.7c.34.63.76.87,1.25.72a.82.82,0,0,0,.36-.15.81.81,0,0,0,.26-.26.71.71,0,0,0,.14-.32v-.24a.88.88,0,0,0-.19-.43l-.18-.15a1.08,1.08,0,0,0-.48-.18c.1,1.34.32,1.8.64,1.39l0,0,0,0a.78.78,0,0,0,.14-.32.59.59,0,0,0,0-.35.74.74,0,0,0-.16-.32,1.09,1.09,0,0,0-.4-.27l-.26-.06a1.2,1.2,0,0,0-.53.07l-.23.12a1,1,0,0,0-.33.36.81.81,0,0,0-.08.46Z" transform="translate(0 -0.19)"/><path class="cls-1" d="M201.81,89.92l-.13.06-.07.06a.27.27,0,0,0-.06.12.38.38,0,0,0,0,.1.41.41,0,0,0,0,.16l.05.12.07.09a.45.45,0,0,0,.13.11.31.31,0,0,0,.13.06h0l.07,0a.38.38,0,0,0,.21,0,.28.28,0,0,0,.16-.12l0-.09a.45.45,0,0,0,0-.23.37.37,0,0,0-.08-.18.4.4,0,0,0-.13-.16.57.57,0,0,0-.21-.13.38.38,0,0,0-.21,0Z" transform="translate(0 -0.19)"/><path class="cls-1" d="M201.5,85c.53,0,.31-.86-.11-.86s-.31.86.11.86Z" transform="translate(0 -0.19)"/><path class="cls-1" d="M202.48,100.29a1.15,1.15,0,0,0,1-1.16c0-.65-.62-.89-1.18-.89a1.16,1.16,0,0,0-1.05,1.15c.05.65.62.9,1.19.9Z" transform="translate(0 -0.19)"/><path class="cls-1" d="M209.31,101.7l-.28.15h0l.05,0,.09,0a.37.37,0,0,0,.17-.18l0-.12a.47.47,0,0,0,0-.26.51.51,0,0,0-.12-.2.65.65,0,0,0-.18-.15.5.5,0,0,0-.2-.08.46.46,0,0,0-.2,0,.42.42,0,0,0-.22.11l.22-.11-.12,0a.37.37,0,0,0-.17.18.42.42,0,0,0,0,.25.48.48,0,0,0,.07.2.62.62,0,0,0,.14.18.77.77,0,0,0,.27.17.46.46,0,0,0,.26,0,.31.31,0,0,0,.22-.11Z" transform="translate(0 -0.19)"/><path class="cls-1" d="M206.43,95.25h0l.14.1a.34.34,0,0,0-.09-.08.31.31,0,0,0-.09-.07.43.43,0,0,0-.16,0h-.09l-.09,0a.17.17,0,0,0-.09.11.14.14,0,0,0,0,.09.25.25,0,0,0,0,.17l0,.11.06.12a.57.57,0,0,0,.13.14.21.21,0,0,0,.1.06.25.25,0,0,0,.15.05h.1l.08,0a.29.29,0,0,0,.13-.22l-.14.15h0a.11.11,0,0,0,.08,0,.24.24,0,0,0,.06-.09V95.7a.2.2,0,0,0,0-.13.29.29,0,0,0,0-.09.41.41,0,0,0-.07-.11l-.05-.06a.31.31,0,0,0-.13-.06Z" transform="translate(0 -0.19)"/><path class="cls-1" d="M213.51,98.88c.41,0,.19-.78-.18-.78s-.19.78.18.78Z" transform="translate(0 -0.19)"/><path class="cls-1" d="M213.94,106.54l-.06.15,0,.08,0,0a.32.32,0,0,0,0,.09V107a.83.83,0,0,0,0,.22.61.61,0,0,0,.05.12l.08.09a.2.2,0,0,0,.18,0,.39.39,0,0,0,.15-.06.21.21,0,0,0,.06-.1l0-.07.09-.16a.2.2,0,0,0,0-.13.76.76,0,0,0,0-.15.59.59,0,0,0-.15-.27.34.34,0,0,0-.23-.1l-.08,0a.21.21,0,0,0-.11.1Z" transform="translate(0 -0.19)"/><path class="cls-1" d="M210.24,112.78l0,.16h0v0l0,.08,0,.08.06,0a.13.13,0,0,0,.09.05h.06l.06,0,.05,0a.22.22,0,0,0,.05-.08l0-.16a.37.37,0,0,0,0-.18.62.62,0,0,0-.07-.19l-.06-.08a.34.34,0,0,0-.14-.09.14.14,0,0,0-.11,0,.15.15,0,0,0-.09,0,.29.29,0,0,0-.08.14.55.55,0,0,0,0,.18Z" transform="translate(0 -0.19)"/><path class="cls-1" d="M209.33,106.46h-.18a.12.12,0,0,0-.1,0,.12.12,0,0,0-.07.07.15.15,0,0,0,0,.11.28.28,0,0,0,0,.13l0,.09a.51.51,0,0,0,.09.16l.06.06a.21.21,0,0,0,.13,0h.23a.12.12,0,0,0,.07-.05.15.15,0,0,0,.06-.09v-.07a.28.28,0,0,0,0-.13.32.32,0,0,0,0-.09.34.34,0,0,0-.06-.12l0,0a.31.31,0,0,0-.13-.06Z" transform="translate(0 -0.19)"/><path class="cls-1" d="M204.18,110.46l.13.18a1.13,1.13,0,0,1,.1.13l0,0s0,.05.07.07h0a.09.09,0,0,0,.11,0,.26.26,0,0,0,0-.15s0-.08,0-.11l0-.1,0,0c0-.1-.06-.21-.1-.31a.22.22,0,0,0-.12-.15.17.17,0,0,0-.1,0l-.07,0a.2.2,0,0,0-.06.07.44.44,0,0,0,0,.1.48.48,0,0,0,0,.12.35.35,0,0,0,.06.14Z" transform="translate(0 -0.19)"/><path class="cls-1" d="M205,105.45a.61.61,0,0,1,0,.14.64.64,0,0,1,0,.07v0a.21.21,0,0,0,0,.06.05.05,0,0,0,0,0,.14.14,0,0,0,.1-.07s0-.07,0-.11v-.12a.24.24,0,0,0,0-.12l0,0a.18.18,0,0,0,0-.08l-.05,0s0,0-.06,0l0,0,0,.07a.36.36,0,0,0,0,.11Z" transform="translate(0 -0.19)"/><path class="cls-1" d="M207.45,110.7c.21,0,.18-.47,0-.47s-.19.47,0,.47Z" transform="translate(0 -0.19)"/><path class="cls-1" d="M210.79,117.94c1.12,0,.87-1.43-.15-1.43s-.87,1.43.15,1.43Z" transform="translate(0 -0.19)"/><path class="cls-1" d="M211,122.38c.74,0,.42-1-.16-1-.74,0-.42,1,.16,1Z" transform="translate(0 -0.19)"/><path class="cls-1" d="M205.48,121.85l.38-.7,0-.07-.06-.1a.76.76,0,0,0-.11-.14l-.1-.08-.1-.05a.26.26,0,0,0-.15,0,.58.58,0,0,0-.19,0,.4.4,0,0,0-.26.08l-.1.1-.06.13a.38.38,0,0,0,0,.21.28.28,0,0,0,0,.15.63.63,0,0,0,.13.2l.14.12.16.08a.56.56,0,0,0,.31.06Z" transform="translate(0 -0.19)"/><path class="cls-1" d="M206.94,116v.13h0a.11.11,0,0,0,0,0v0l0,.1a.39.39,0,0,0,.08.14s0,0,.07.06a.26.26,0,0,0,.11.07h.08l.08,0a.16.16,0,0,0,.09-.07.43.43,0,0,0,0-.12h0v-.09h0v-.12a.26.26,0,0,0,0-.15.35.35,0,0,0-.06-.14.52.52,0,0,0-.1-.11.24.24,0,0,0-.11-.06h-.08a.21.21,0,0,0-.13,0l-.05.07a.29.29,0,0,0,0,.16Z" transform="translate(0 -0.19)"/><path class="cls-1" d="M208,128.94c.65,0,.17-1-.37-1s-.16,1,.37,1Z" transform="translate(0 -0.19)"/><path class="cls-1" d="M161.22,194.64v.15a1,1,0,0,0,0,.17.67.67,0,0,0,0,.19.87.87,0,0,0,.11.18.58.58,0,0,0,.17.14.53.53,0,0,0,.17.08h.12a.39.39,0,0,0,.21-.08l.06-.08a.37.37,0,0,0,.05-.23.89.89,0,0,0,0-.15l0,.12a2,2,0,0,1,0-.26l-.05-.12a.52.52,0,0,0-.12-.17.28.28,0,0,0-.1-.09.38.38,0,0,0-.17-.08l-.11,0-.1,0a.2.2,0,0,0-.13.08.25.25,0,0,0-.08.14Z" transform="translate(0 -0.19)"/><path class="cls-1" d="M161.91,189.29l.26.19c.13.09.26.19.4.27a.43.43,0,0,0,.22.06.41.41,0,0,0,.22,0l.12-.05a.37.37,0,0,0,.13-.15.19.19,0,0,0,0-.12.38.38,0,0,0,0-.21l-.05-.14a1,1,0,0,0-.21-.25.67.67,0,0,0-.14-.09l-.12-.09-.26-.17a.48.48,0,0,0-.22-.12.42.42,0,0,0-.22,0,.28.28,0,0,0-.2,0,.25.25,0,0,0-.16.11l-.06.11a.5.5,0,0,0,0,.27l0,.14a.72.72,0,0,0,.21.25Z" transform="translate(0 -0.19)"/><path class="cls-1" d="M167,199.48l.53-.2a.54.54,0,0,0,.21-.28.56.56,0,0,0,0-.34c-.42-.61-.85-.8-1.29-.58a.65.65,0,0,0-.26.17.44.44,0,0,0-.15.25.48.48,0,0,0,0,.29l.06.19a.74.74,0,0,0,.27.31l.19.11a1.21,1.21,0,0,0,.46.08Z" transform="translate(0 -0.19)"/><path class="cls-1" d="M168.68,193.1l1.19.27.17-.08a.62.62,0,0,0,.21-.27.56.56,0,0,0,0-.34l-.07-.16a.75.75,0,0,0-.28-.28l-.06,0h0l-.08-.05-.21-.07a.77.77,0,0,0-.34,0,.49.49,0,0,0-.2,0,.55.55,0,0,0-.26.14l-.12.14-.07.18a.53.53,0,0,0,0,.28.62.62,0,0,0,.12.26Z" transform="translate(0 -0.19)"/><path class="cls-1" d="M167.44,189.24l-.48-.67.11.08-.1-.07.11.07-.1-.07.1.08-.07-.07-.08-.05-.09,0h-.08l-.08,0-.07,0,.06,0-.11,0-.06,0s0,0-.06,0a.18.18,0,0,0-.09.1.16.16,0,0,0,0,.12.2.2,0,0,0,0,.13.32.32,0,0,0,0,.14.54.54,0,0,0,.07.13.79.79,0,0,0,.23.24.37.37,0,0,0,.14.07.28.28,0,0,0,.15,0,.22.22,0,0,0,.14,0,.28.28,0,0,0,.13,0,.19.19,0,0,0,.11-.07.14.14,0,0,0,.08-.09.33.33,0,0,0,.06-.19Z" transform="translate(0 -0.19)"/><path class="cls-1" d="M170.91,184.08l.26.11.12,0,.06,0,.13,0h.1a.39.39,0,0,0,.14-.08.17.17,0,0,0,.07-.1.59.59,0,0,0,0-.13.53.53,0,0,0-.09-.3.75.75,0,0,0-.35-.29h0l-.06,0-.11,0-.22-.06a.26.26,0,0,0-.15,0,.23.23,0,0,0-.14,0,.33.33,0,0,0-.13.26.62.62,0,0,0,.38.57Z" transform="translate(0 -0.19)"/><path class="cls-1" d="M176,187.78l.07-.1-.07.09.16-.18v0h0a.54.54,0,0,0,.08-.19.41.41,0,0,0,0-.19.44.44,0,0,0-.08-.2.62.62,0,0,0-.14-.14.32.32,0,0,0-.16,0l.17,0,0,0-.05,0h-.29l-.34.08a.31.31,0,0,0-.17.15l0,.11a.57.57,0,0,0,0,.26.5.5,0,0,0,.1.19,1.21,1.21,0,0,0,.16.16.46.46,0,0,0,.19.08.31.31,0,0,0,.19,0,.4.4,0,0,0,.21-.09Z" transform="translate(0 -0.19)"/><path class="cls-1" d="M175.06,178.76a.57.57,0,0,1,0-.13v0a.46.46,0,0,0-.05-.21.42.42,0,0,0-.09-.14.31.31,0,0,0-.11-.09.37.37,0,0,0-.17,0h0l-.24.06a.31.31,0,0,0-.16.14.42.42,0,0,0-.05.22.68.68,0,0,0,.26.47.47.47,0,0,0,.45.11A.33.33,0,0,0,175,179a.54.54,0,0,0,.05-.22Z" transform="translate(0 -0.19)"/><path class="cls-1" d="M185.13,181.56l.17,0,.06,0a.24.24,0,0,0,.06-.11.11.11,0,0,0,0-.08.38.38,0,0,0,0-.15l0-.1,0-.09a.52.52,0,0,0-.1-.11.27.27,0,0,0-.12-.06l.14.08h-.05l-.08,0H185a.22.22,0,0,0-.16,0l-.06.05a.31.31,0,0,0-.08.15.37.37,0,0,0,0,.15.42.42,0,0,0,0,.16.71.71,0,0,0,.1.14.31.31,0,0,0,.11.09.25.25,0,0,0,.17,0Z" transform="translate(0 -0.19)"/><path class="cls-1" d="M179.16,182.8c.61,0,.24-1-.25-1s-.24,1,.25,1Z" transform="translate(0 -0.19)"/><path class="cls-1" d="M181.4,177c.24,0,.17-.56-.09-.56s-.17.56.09.56Z" transform="translate(0 -0.19)"/><path class="cls-1" d="M186.77,177.74s0,0,0,0a.42.42,0,0,0,0-.15.37.37,0,0,0,0-.18.48.48,0,0,0-.08-.16.27.27,0,0,0-.12-.09l-.17-.1h0l-.11,0h-.1l-.09,0-.07.07,0,.09,0,.11v.12a.87.87,0,0,0,.07.17.44.44,0,0,0,.08.11.26.26,0,0,0,.09.09.21.21,0,0,0,.1.06.25.25,0,0,0,.11,0h.1a.17.17,0,0,0,.1,0l.08,0a.24.24,0,0,0,.07-.13Z" transform="translate(0 -0.19)"/><path class="cls-1" d="M192.59,175.44c.23,0,.18-.53-.06-.53s-.18.53.06.53Z" transform="translate(0 -0.19)"/><path class="cls-1" d="M198.33,172.72l0-.17v-.13s0,0,0-.07a.49.49,0,0,0,0-.16,1,1,0,0,0-.13-.18l-.07,0a.15.15,0,0,0-.11,0h-.08a.14.14,0,0,0-.1.05h0l0,0,0,0,0,.08h0v.1l0,.24a.41.41,0,0,0,0,.22l.05.11a.55.55,0,0,0,.16.18.23.23,0,0,0,.14.07.22.22,0,0,0,.14,0,.17.17,0,0,0,.12-.06.21.21,0,0,0,.07-.11.35.35,0,0,0,0-.2Z" transform="translate(0 -0.19)"/><path class="cls-1" d="M190.53,169.5l.3.91,0,0a.27.27,0,0,0,.12-.09.3.3,0,0,0,0-.15.33.33,0,0,0,0-.17l0-.12a.54.54,0,0,0-.15-.22l-.1-.07a.44.44,0,0,0-.21-.07c-.31.34-.37.59-.16.74h0l0,0,0,0-.07-.06.13.1a.27.27,0,0,0,.12.06l.11,0a.17.17,0,0,0,.14,0,.12.12,0,0,0,.08-.06.2.2,0,0,0,.08-.13l0-.1a.39.39,0,0,0,0-.18.48.48,0,0,0-.08-.18l-.09-.1-.1-.07a.44.44,0,0,0-.21-.07Z" transform="translate(0 -0.19)"/><path class="cls-1" d="M187,173.1s.06-.1,0-.1-.06.1,0,.1Z" transform="translate(0 -0.19)"/><path class="cls-1" d="M192.37,163.42h.37a.1.1,0,0,0,0,0,.21.21,0,0,0,.07-.17.16.16,0,0,0-.07-.14.12.12,0,0,0-.08,0h-.35s-.08,0-.1.06a.24.24,0,0,0,0,.16.22.22,0,0,0,.05.16.13.13,0,0,0,.1.06Z" transform="translate(0 -0.19)"/><path class="cls-1" d="M196.69,167.76l.14,0a.08.08,0,0,0,.07,0,.12.12,0,0,0,.06-.06l0-.07a.2.2,0,0,0,0-.11.17.17,0,0,0,0-.07.3.3,0,0,0,0-.1l0-.06-.1-.05-.19,0a.14.14,0,0,0-.11,0l0,.05a.18.18,0,0,0,0,.12.24.24,0,0,0,0,.12.28.28,0,0,0,0,.13.24.24,0,0,0,.06.09.27.27,0,0,0,.08.07.23.23,0,0,0,.12,0Z" transform="translate(0 -0.19)"/><path class="cls-1" d="M201.61,164.41h.14a.23.23,0,0,0,.12-.06.18.18,0,0,0,.08-.11l0-.1a.43.43,0,0,0,0-.16.36.36,0,0,0,0-.11.86.86,0,0,0-.1-.16l-.09-.08a.41.41,0,0,0-.19-.08h-.17a.24.24,0,0,0-.18,0l-.07.06a.41.41,0,0,0,0,.35.51.51,0,0,0,.07.17.41.41,0,0,0,.12.14.42.42,0,0,0,.14.09.35.35,0,0,0,.2,0Z" transform="translate(0 -0.19)"/><path class="cls-1" d="M203.47,156.75l-.13-.06-.06,0h0a.41.41,0,0,0-.19,0h-.15a.24.24,0,0,0-.16.09.27.27,0,0,0-.06.17.56.56,0,0,0,0,.22.69.69,0,0,0,.1.19.43.43,0,0,0,.14.16l.11.08h0l.08,0,.16.08a.34.34,0,0,0,.17.05.32.32,0,0,0,.17,0,.22.22,0,0,0,.13-.1.25.25,0,0,0,.08-.14v-.12a.55.55,0,0,0-.07-.25l-.09-.12a.79.79,0,0,0-.22-.18Z" transform="translate(0 -0.19)"/><path class="cls-1" d="M197.54,159.64c.63,0,.21-1-.31-1s-.2,1,.31,1Z" transform="translate(0 -0.19)"/><path class="cls-1" d="M196.25,151.56v-.09h0s0,0,0-.05l0-.08,0-.05a.18.18,0,0,0,0-.07l-.06,0h0a.1.1,0,0,0-.08,0l0,0a.46.46,0,0,0-.07.16l0,.1a.43.43,0,0,0,0,.16.35.35,0,0,0,.07.15l.05.06a.16.16,0,0,0,.11,0,.1.1,0,0,0,.09,0,.13.13,0,0,0,.07-.06.29.29,0,0,0,0-.13.43.43,0,0,0,0-.16Z" transform="translate(0 -0.19)"/><path class="cls-1" d="M199.75,153.08c1.08,0,.91-1.39-.09-1.39s-.91,1.39.09,1.39Z" transform="translate(0 -0.19)"/><path class="cls-1" d="M207.05,150.64a.46.46,0,0,0,.41-.63.82.82,0,0,0-.8-.53.47.47,0,0,0-.42.63.84.84,0,0,0,.81.53Z" transform="translate(0 -0.19)"/><path class="cls-1" d="M204.9,143.56l-.19.05-.09,0a.22.22,0,0,0-.09.13.15.15,0,0,0,0,.11.37.37,0,0,0,0,.18l0,.13.08.11a.4.4,0,0,0,.15.14.37.37,0,0,0,.18.08l.21.05a.43.43,0,0,0,.25,0l.1-.07a.4.4,0,0,0,.1-.22.44.44,0,0,0,0-.2.72.72,0,0,0-.09-.2.91.91,0,0,0-.17-.17.45.45,0,0,0-.19-.11.63.63,0,0,0-.27,0Z" transform="translate(0 -0.19)"/><path class="cls-1" d="M200.78,144.91s-.11-.07-.16-.08l.08,0a1.5,1.5,0,0,0-.42-.15h-.16a.38.38,0,0,0-.17.08.23.23,0,0,0-.11.14l0,.12a.41.41,0,0,0,0,.19.35.35,0,0,0,.06.14.49.49,0,0,0,.14.18l.12.1a.88.88,0,0,0,.27.1h.24a.4.4,0,0,0,.21-.09.43.43,0,0,0,.11-.21v-.14a.63.63,0,0,0-.09-.26.69.69,0,0,0-.11-.13Z" transform="translate(0 -0.19)"/><path class="cls-1" d="M199.42,139.2h.31a.27.27,0,0,0,.17-.08A.33.33,0,0,0,200,139l0-.12a.44.44,0,0,0,0-.2.35.35,0,0,0-.06-.14.65.65,0,0,0-.15-.18l-.13-.1a.71.71,0,0,0-.28-.09h-.18a.44.44,0,0,0-.2,0,.39.39,0,0,0-.16.1.34.34,0,0,0-.08.17.31.31,0,0,0,0,.19l0,.14a.79.79,0,0,0,.19.25l.13.1a.71.71,0,0,0,.28.09Z" transform="translate(0 -0.19)"/><path class="cls-1" d="M204.58,138.75c.24,0,.17-.55-.09-.55s-.17.55.09.55Z" transform="translate(0 -0.19)"/><path class="cls-1" d="M208.1,136c0-.09.07-.19.1-.29l0-.15,0-.07a.32.32,0,0,0,0-.13.11.11,0,0,0,0-.09s0,0-.07,0l-.06.1,0,.06-.07.16-.09.27a.24.24,0,0,0,0,.12.12.12,0,0,0,.05.08c.06,0,.11,0,.13-.1Z" transform="translate(0 -0.19)"/><path class="cls-1" d="M204,131.32l.16,0a.67.67,0,0,0,.2,0l.23,0a.14.14,0,0,0,.11,0,.18.18,0,0,0,.08-.09.42.42,0,0,0,0-.27.51.51,0,0,0-.15-.28l-.07-.05a.3.3,0,0,0-.16,0c.18.06.21.07.08,0h-.06l-.31,0h-.16l-.15,0-.07,0a.24.24,0,0,0-.06.11.48.48,0,0,0,0,.24.66.66,0,0,0,.09.19.38.38,0,0,0,.11.11.23.23,0,0,0,.12.06Z" transform="translate(0 -0.19)"/><path class="cls-1" d="M213.21,132.37h0l.06,0-.07,0,.06,0a.1.1,0,0,1,0,0l0,.05,0,0,0,.07,0,0a.33.33,0,0,0-.06-.1l.05.07-.06-.09,0,.07s0,0,0,0l0,.08,0-.1,0,.07a0,0,0,0,1,0,0v0a.4.4,0,0,0,0-.15.22.22,0,0,0-.09-.13l0,0h0a0,0,0,0,0-.05,0,.1.1,0,0,0-.07,0s.14-.06.09-.05-.08,0-.11.08a.08.08,0,0,0,0,.05.36.36,0,0,0,0,.11.71.71,0,0,0,0,.14.77.77,0,0,0,0,.15s0,0,0,0a.28.28,0,0,0,.07.13v0a.47.47,0,0,0,.1.1.33.33,0,0,0,.1.06s.05,0,.07,0h0a.15.15,0,0,0,.15-.07.18.18,0,0,0,0-.09.25.25,0,0,0,0-.12.49.49,0,0,0-.08-.23l-.05,0a.2.2,0,0,0-.11-.06Z" transform="translate(0 -0.19)"/><path class="cls-1" d="M212.53,127.53h.19a.21.21,0,0,0,.15,0,.21.21,0,0,0,.11-.1.24.24,0,0,0,.05-.14.37.37,0,0,0,0-.18l0-.12a.82.82,0,0,0-.16-.22l-.1-.07a.44.44,0,0,0-.22-.07l-.23,0a.24.24,0,0,0-.12.07.25.25,0,0,0-.08.12l0,.11a.51.51,0,0,0,0,.17.22.22,0,0,0,0,.11.36.36,0,0,0,.11.16l.09.08a.5.5,0,0,0,.2.08Z" transform="translate(0 -0.19)"/></g></g></svg>