<svg xmlns="http://www.w3.org/2000/svg" xmlns:xlink="http://www.w3.org/1999/xlink" viewBox="0 0 225.12 204.06"><defs><style>.cls-1{isolation:isolate;}.cls-16,.cls-17,.cls-18,.cls-19,.cls-2,.cls-3,.cls-30,.cls-32,.cls-37,.cls-38,.cls-4,.cls-5,.cls-57,.cls-6,.cls-60,.cls-61,.cls-67,.cls-7{opacity:0.32;}.cls-10,.cls-11,.cls-12,.cls-13,.cls-14,.cls-15,.cls-16,.cls-17,.cls-18,.cls-19,.cls-2,.cls-20,.cls-21,.cls-22,.cls-23,.cls-24,.cls-25,.cls-26,.cls-27,.cls-28,.cls-29,.cls-3,.cls-30,.cls-31,.cls-32,.cls-33,.cls-34,.cls-35,.cls-36,.cls-37,.cls-38,.cls-39,.cls-4,.cls-40,.cls-41,.cls-42,.cls-43,.cls-44,.cls-45,.cls-46,.cls-47,.cls-48,.cls-49,.cls-5,.cls-50,.cls-51,.cls-52,.cls-53,.cls-54,.cls-55,.cls-56,.cls-57,.cls-58,.cls-59,.cls-6,.cls-60,.cls-61,.cls-63,.cls-64,.cls-65,.cls-66,.cls-67,.cls-69,.cls-7,.cls-70,.cls-71,.cls-72,.cls-73,.cls-74,.cls-76,.cls-77,.cls-8,.cls-9{mix-blend-mode:screen;}.cls-2{fill:url(#radial-gradient);}.cls-3{fill:url(#radial-gradient-2);}.cls-4{fill:url(#radial-gradient-3);}.cls-5{fill:url(#radial-gradient-4);}.cls-6{fill:url(#radial-gradient-5);}.cls-7{fill:url(#radial-gradient-6);}.cls-10,.cls-11,.cls-12,.cls-13,.cls-22,.cls-23,.cls-24,.cls-25,.cls-26,.cls-27,.cls-33,.cls-34,.cls-35,.cls-36,.cls-39,.cls-41,.cls-43,.cls-45,.cls-50,.cls-51,.cls-52,.cls-58,.cls-59,.cls-63,.cls-64,.cls-66,.cls-70,.cls-71,.cls-72,.cls-73,.cls-76,.cls-77,.cls-8,.cls-9{opacity:0.5;}.cls-8{fill:url(#radial-gradient-7);}.cls-9{fill:url(#radial-gradient-8);}.cls-10{fill:url(#radial-gradient-9);}.cls-11{fill:url(#radial-gradient-10);}.cls-12{fill:url(#radial-gradient-11);}.cls-13{fill:url(#radial-gradient-12);}.cls-14{fill:url(#radial-gradient-13);}.cls-15{fill:url(#radial-gradient-14);}.cls-16{fill:url(#radial-gradient-15);}.cls-17{fill:url(#radial-gradient-16);}.cls-18{fill:url(#radial-gradient-17);}.cls-19{fill:url(#radial-gradient-18);}.cls-20{fill:url(#radial-gradient-19);}.cls-21{fill:url(#radial-gradient-20);}.cls-22{fill:url(#radial-gradient-21);}.cls-23{fill:url(#radial-gradient-22);}.cls-24{fill:url(#radial-gradient-23);}.cls-25{fill:url(#radial-gradient-24);}.cls-26{fill:url(#radial-gradient-25);}.cls-27{fill:url(#radial-gradient-26);}.cls-28{fill:url(#radial-gradient-27);}.cls-29{fill:url(#radial-gradient-28);}.cls-30{fill:url(#radial-gradient-29);}.cls-31{fill:url(#radial-gradient-30);}.cls-32{fill:url(#radial-gradient-31);}.cls-33{fill:url(#radial-gradient-32);}.cls-34{fill:url(#radial-gradient-33);}.cls-35{fill:url(#radial-gradient-34);}.cls-36{fill:url(#radial-gradient-35);}.cls-37{fill:url(#radial-gradient-36);}.cls-38{fill:url(#radial-gradient-37);}.cls-39{fill:url(#radial-gradient-38);}.cls-40{fill:url(#radial-gradient-39);}.cls-41{fill:url(#radial-gradient-40);}.cls-42{fill:url(#radial-gradient-41);}.cls-43{fill:url(#radial-gradient-42);}.cls-44{fill:url(#radial-gradient-43);}.cls-45{fill:url(#radial-gradient-44);}.cls-46{fill:url(#radial-gradient-45);}.cls-47{fill:url(#radial-gradient-46);}.cls-48{fill:url(#radial-gradient-47);}.cls-49{fill:url(#radial-gradient-48);}.cls-50{fill:url(#radial-gradient-49);}.cls-51{fill:url(#radial-gradient-50);}.cls-52{fill:url(#radial-gradient-51);}.cls-53{fill:url(#radial-gradient-52);}.cls-54{fill:url(#radial-gradient-53);}.cls-55{fill:url(#radial-gradient-54);}.cls-56{fill:url(#radial-gradient-55);}.cls-57{fill:url(#radial-gradient-56);}.cls-58{fill:url(#radial-gradient-57);}.cls-59{fill:url(#radial-gradient-58);}.cls-60{fill:url(#radial-gradient-59);}.cls-61{fill:url(#radial-gradient-60);}.cls-62{fill:url(#radial-gradient-61);}.cls-63{fill:url(#radial-gradient-62);}.cls-64{fill:url(#radial-gradient-63);}.cls-65{fill:url(#radial-gradient-64);}.cls-66{fill:url(#radial-gradient-65);}.cls-67{fill:url(#radial-gradient-66);}.cls-68{fill:url(#radial-gradient-67);}.cls-69{fill:url(#radial-gradient-68);}.cls-70{fill:url(#radial-gradient-69);}.cls-71{fill:url(#radial-gradient-70);}.cls-72{fill:url(#radial-gradient-71);}.cls-73{fill:url(#radial-gradient-72);}.cls-74{fill:url(#radial-gradient-73);}.cls-75{fill:url(#radial-gradient-74);}.cls-76{fill:url(#radial-gradient-75);}.cls-77{fill:url(#radial-gradient-76);}</style><radialGradient id="radial-gradient" cx="210.6" cy="153.68" r="1.56" gradientUnits="userSpaceOnUse"><stop offset="0.06" stop-color="#ee7e9a"/><stop offset="0.53" stop-color="#e84691"/><stop offset="0.99" stop-color="#d0085b"/></radialGradient><radialGradient id="radial-gradient-2" cx="206.26" cy="190.35" r="1.56" xlink:href="#radial-gradient"/><radialGradient id="radial-gradient-3" cx="159" cy="159.3" r="1.56" xlink:href="#radial-gradient"/><radialGradient id="radial-gradient-4" cx="155.34" cy="175.75" r="2.61" xlink:href="#radial-gradient"/><radialGradient id="radial-gradient-5" cx="153.43" cy="144.82" r="2.61" xlink:href="#radial-gradient"/><radialGradient id="radial-gradient-6" cx="220.16" cy="178.88" r="2.61" xlink:href="#radial-gradient"/><radialGradient id="radial-gradient-7" cx="673.29" cy="35.19" r="68.2" gradientTransform="translate(858.6 170.05) rotate(180)" gradientUnits="userSpaceOnUse"><stop offset="0.06" stop-color="#1f264d"/><stop offset="0.89" stop-color="#0479b1"/></radialGradient><radialGradient id="radial-gradient-8" cx="673.29" cy="35.19" r="68.19" xlink:href="#radial-gradient-7"/><radialGradient id="radial-gradient-9" cx="673.29" cy="35.19" r="68.19" xlink:href="#radial-gradient-7"/><radialGradient id="radial-gradient-10" cx="673.29" cy="35.19" r="68.2" xlink:href="#radial-gradient-7"/><radialGradient id="radial-gradient-11" cx="673.29" cy="35.19" r="68.19" xlink:href="#radial-gradient-7"/><radialGradient id="radial-gradient-12" cx="673.29" cy="35.19" r="68.2" xlink:href="#radial-gradient-7"/><radialGradient id="radial-gradient-13" cx="644.52" cy="1.06" r="5.35" xlink:href="#radial-gradient-7"/><radialGradient id="radial-gradient-14" cx="697.59" cy="-18.75" r="5.49" xlink:href="#radial-gradient-7"/><radialGradient id="radial-gradient-15" cx="212.95" cy="12.65" r="1.56" xlink:href="#radial-gradient"/><radialGradient id="radial-gradient-16" cx="208.61" cy="49.32" r="1.56" xlink:href="#radial-gradient"/><radialGradient id="radial-gradient-17" cx="161.34" cy="18.27" r="1.56" xlink:href="#radial-gradient"/><radialGradient id="radial-gradient-18" cx="157.69" cy="34.72" r="2.61" xlink:href="#radial-gradient"/><radialGradient id="radial-gradient-19" cx="155.78" cy="3.79" r="2.61" xlink:href="#radial-gradient"/><radialGradient id="radial-gradient-20" cx="222.51" cy="37.85" r="2.61" xlink:href="#radial-gradient"/><radialGradient id="radial-gradient-21" cx="670.94" cy="176.21" r="68.19" xlink:href="#radial-gradient-7"/><radialGradient id="radial-gradient-22" cx="670.94" cy="176.21" r="68.19" xlink:href="#radial-gradient-7"/><radialGradient id="radial-gradient-23" cx="670.94" cy="176.21" r="68.19" xlink:href="#radial-gradient-7"/><radialGradient id="radial-gradient-24" cx="670.94" cy="176.21" r="68.19" xlink:href="#radial-gradient-7"/><radialGradient id="radial-gradient-25" cx="670.94" cy="176.21" r="68.19" xlink:href="#radial-gradient-7"/><radialGradient id="radial-gradient-26" cx="670.94" cy="176.21" r="68.19" xlink:href="#radial-gradient-7"/><radialGradient id="radial-gradient-27" cx="642.17" cy="142.08" r="5.35" xlink:href="#radial-gradient-7"/><radialGradient id="radial-gradient-28" cx="695.24" cy="122.27" r="5.49" xlink:href="#radial-gradient-7"/><radialGradient id="radial-gradient-29" cx="90.21" cy="52.08" r="1.5" xlink:href="#radial-gradient"/><radialGradient id="radial-gradient-30" cx="98.52" cy="37.42" r="2.49" xlink:href="#radial-gradient"/><radialGradient id="radial-gradient-31" cx="91.3" cy="67.56" r="2.49" xlink:href="#radial-gradient"/><radialGradient id="radial-gradient-32" cx="351.6" cy="466.47" r="68.19" gradientTransform="translate(-141.94 -481.14) rotate(17)" xlink:href="#radial-gradient-7"/><radialGradient id="radial-gradient-33" cx="351.6" cy="466.47" r="68.19" gradientTransform="translate(-141.94 -481.14) rotate(17)" xlink:href="#radial-gradient-7"/><radialGradient id="radial-gradient-34" cx="351.6" cy="466.47" r="68.19" gradientTransform="translate(-141.94 -481.14) rotate(17)" xlink:href="#radial-gradient-7"/><radialGradient id="radial-gradient-35" cx="351.6" cy="466.47" r="68.2" gradientTransform="translate(-141.94 -481.14) rotate(17)" xlink:href="#radial-gradient-7"/><radialGradient id="radial-gradient-36" cx="111.38" cy="11.31" r="1.42" xlink:href="#radial-gradient"/><radialGradient id="radial-gradient-37" cx="138.27" cy="13.14" r="2.37" xlink:href="#radial-gradient"/><radialGradient id="radial-gradient-38" cx="932.73" cy="446.43" r="68.2" gradientTransform="translate(878.72 -634.79) rotate(114.67)" xlink:href="#radial-gradient-7"/><radialGradient id="radial-gradient-39" cx="257.9" cy="-8.9" r="5.4" gradientTransform="matrix(0.13, -0.99, 0.99, 0.13, 100.15, 270.36)" xlink:href="#radial-gradient-7"/><radialGradient id="radial-gradient-40" cx="766.96" cy="124.45" r="86.04" gradientTransform="translate(733.16 345.07) rotate(-160.18)" xlink:href="#radial-gradient-7"/><radialGradient id="radial-gradient-41" cx="324.9" cy="343.38" r="6.13" gradientTransform="translate(-234.06 -355.19) rotate(2.82)" xlink:href="#radial-gradient-7"/><radialGradient id="radial-gradient-42" cx="-184.31" cy="9.28" r="86.04" gradientTransform="matrix(0.92, -0.39, 0.39, 0.92, 428.65, 71.82)" xlink:href="#radial-gradient-7"/><radialGradient id="radial-gradient-43" cx="1202.94" cy="747.32" r="6.81" gradientTransform="matrix(-0.76, 0.65, -0.65, -0.76, 1613.87, -75.99)" xlink:href="#radial-gradient-7"/><radialGradient id="radial-gradient-44" cx="598.8" cy="96.49" r="86.03" gradientTransform="matrix(-0.81, 0.58, -0.58, -0.81, 670.83, -263)" xlink:href="#radial-gradient-7"/><radialGradient id="radial-gradient-45" cx="479.25" cy="434.21" r="6.81" gradientTransform="translate(-454.3 135.96) rotate(-52.58)" xlink:href="#radial-gradient-7"/><radialGradient id="radial-gradient-46" cx="761.44" cy="161.55" r="4.87" xlink:href="#radial-gradient-7"/><radialGradient id="radial-gradient-47" cx="222.4" cy="12.87" r="2.49" gradientTransform="translate(-110.68 364.49) rotate(-54.07)" xlink:href="#radial-gradient"/><radialGradient id="radial-gradient-48" cx="253.56" cy="-4.76" r="2.49" gradientTransform="translate(-110.68 364.49) rotate(-54.07)" xlink:href="#radial-gradient"/><radialGradient id="radial-gradient-49" cx="462.25" cy="407.18" r="68.19" gradientTransform="translate(-583.3 196.4) rotate(-37.07)" xlink:href="#radial-gradient-7"/><radialGradient id="radial-gradient-50" cx="462.25" cy="407.18" r="68.19" gradientTransform="translate(-583.3 196.4) rotate(-37.07)" xlink:href="#radial-gradient-7"/><radialGradient id="radial-gradient-51" cx="462.25" cy="407.18" r="68.2" gradientTransform="translate(-583.3 196.4) rotate(-37.07)" xlink:href="#radial-gradient-7"/><radialGradient id="radial-gradient-52" cx="221.87" cy="-1.89" r="5.31" gradientTransform="translate(-110.68 364.49) rotate(-54.07)" xlink:href="#radial-gradient-7"/><radialGradient id="radial-gradient-53" cx="365.48" cy="-31.83" r="5.31" gradientTransform="translate(-110.68 364.49) rotate(-54.07)" xlink:href="#radial-gradient-7"/><radialGradient id="radial-gradient-54" cx="333.7" cy="7.68" r="5.31" gradientTransform="translate(-110.68 364.49) rotate(-54.07)" xlink:href="#radial-gradient-7"/><radialGradient id="radial-gradient-55" cx="182.04" cy="175.41" r="1.5" xlink:href="#radial-gradient"/><radialGradient id="radial-gradient-56" cx="190.35" cy="160.74" r="2.49" xlink:href="#radial-gradient"/><radialGradient id="radial-gradient-57" cx="378.47" cy="571.84" r="68.19" gradientTransform="translate(-141.94 -481.14) rotate(17)" xlink:href="#radial-gradient-7"/><radialGradient id="radial-gradient-58" cx="475.48" cy="557.55" r="68.19" gradientTransform="translate(-141.94 -481.14) rotate(17)" xlink:href="#radial-gradient-7"/><radialGradient id="radial-gradient-59" cx="131.26" cy="36.05" r="1.55" xlink:href="#radial-gradient"/><radialGradient id="radial-gradient-60" cx="149.72" cy="87.52" r="1.55" xlink:href="#radial-gradient"/><radialGradient id="radial-gradient-61" cx="693.74" cy="92.33" r="2.59" gradientTransform="translate(858.6 170.05) rotate(180)" gradientUnits="userSpaceOnUse"><stop offset="0.06" stop-color="#18b1da"/><stop offset="1" stop-color="#43277b"/></radialGradient><radialGradient id="radial-gradient-62" cx="1105.56" cy="716.39" r="68.2" gradientTransform="translate(1123.93 853.41) rotate(-173.38)" xlink:href="#radial-gradient-7"/><radialGradient id="radial-gradient-63" cx="1076.95" cy="704.07" r="68.2" gradientTransform="translate(1123.93 853.41) rotate(-173.38)" xlink:href="#radial-gradient-7"/><radialGradient id="radial-gradient-64" cx="698.22" cy="103.23" r="5.33" xlink:href="#radial-gradient-7"/><radialGradient id="radial-gradient-65" cx="364.33" cy="640.39" r="68.19" gradientTransform="translate(-141.94 -481.14) rotate(17)" xlink:href="#radial-gradient-7"/><radialGradient id="radial-gradient-66" cx="197.41" cy="103.58" r="1.5" xlink:href="#radial-gradient"/><radialGradient id="radial-gradient-67" cx="652.88" cy="81.13" r="2.49" xlink:href="#radial-gradient-61"/><radialGradient id="radial-gradient-68" cx="186.22" cy="135.32" r="2.49" xlink:href="#radial-gradient"/><radialGradient id="radial-gradient-69" cx="469.17" cy="484.38" r="68.2" gradientTransform="translate(-141.94 -481.14) rotate(17)" xlink:href="#radial-gradient-7"/><radialGradient id="radial-gradient-70" cx="462.18" cy="503.52" r="68.19" gradientTransform="translate(-141.94 -481.14) rotate(17)" xlink:href="#radial-gradient-7"/><radialGradient id="radial-gradient-71" cx="469.17" cy="484.38" r="68.19" gradientTransform="translate(-141.94 -481.14) rotate(17)" xlink:href="#radial-gradient-7"/><radialGradient id="radial-gradient-72" cx="469.17" cy="484.38" r="68.19" gradientTransform="translate(-141.94 -481.14) rotate(17)" xlink:href="#radial-gradient-7"/><radialGradient id="radial-gradient-73" cx="653.42" cy="95.9" r="5.31" xlink:href="#radial-gradient-7"/><radialGradient id="radial-gradient-74" cx="788.51" cy="60.68" r="2.49" xlink:href="#radial-gradient-61"/><radialGradient id="radial-gradient-75" cx="345.45" cy="543.59" r="68.19" gradientTransform="translate(-141.94 -481.14) rotate(17)" xlink:href="#radial-gradient-7"/><radialGradient id="radial-gradient-76" cx="345.45" cy="543.59" r="68.19" gradientTransform="translate(-141.94 -481.14) rotate(17)" xlink:href="#radial-gradient-7"/></defs><g class="cls-1"><g id="Layer_2" data-name="Layer 2"><g id="Layer_1-2" data-name="Layer 1"><path class="cls-2" d="M210.6,155.24a5.08,5.08,0,0,0-.55-1,5.35,5.35,0,0,0-1-.55,5.35,5.35,0,0,0,1-.55,5.08,5.08,0,0,0,.55-1,5.26,5.26,0,0,0,.56,1,5.35,5.35,0,0,0,1,.55,5.35,5.35,0,0,0-1,.55A5.26,5.26,0,0,0,210.6,155.24Z"/><path class="cls-3" d="M206.26,191.91a2,2,0,0,0-1.56-1.56,2,2,0,0,0,1.56-1.56,2,2,0,0,0,1.56,1.56,2,2,0,0,0-1.56,1.56Z"/><path class="cls-4" d="M159,160.86a5.26,5.26,0,0,0-.56-1,5.35,5.35,0,0,0-1-.55,5.35,5.35,0,0,0,1-.55,5.26,5.26,0,0,0,.56-1,5.08,5.08,0,0,0,.55,1,5.35,5.35,0,0,0,1,.55,5.35,5.35,0,0,0-1,.55A5.08,5.08,0,0,0,159,160.86Z"/><path class="cls-5" d="M155.34,178.36a8.81,8.81,0,0,0-.92-1.69,8.81,8.81,0,0,0-1.69-.92,8.81,8.81,0,0,0,1.69-.92,8.8,8.8,0,0,0,.92-1.68,8.8,8.8,0,0,0,.92,1.68,8.81,8.81,0,0,0,1.69.92,8.81,8.81,0,0,0-1.69.92A8.81,8.81,0,0,0,155.34,178.36Z"/><path class="cls-6" d="M153.43,147.42a8.8,8.8,0,0,0-.92-1.68,8.81,8.81,0,0,0-1.69-.92,9,9,0,0,0,1.69-.93,8.51,8.51,0,0,0,.92-1.68,8.51,8.51,0,0,0,.92,1.68,9,9,0,0,0,1.68.93,8.8,8.8,0,0,0-1.68.92A8.8,8.8,0,0,0,153.43,147.42Z"/><path class="cls-7" d="M220.16,181.49a8.81,8.81,0,0,0-.92-1.69,8.8,8.8,0,0,0-1.68-.92,8.8,8.8,0,0,0,1.68-.92,8.81,8.81,0,0,0,.92-1.69,9.42,9.42,0,0,0,.92,1.69,8.81,8.81,0,0,0,1.69.92,8.81,8.81,0,0,0-1.69.92A9.42,9.42,0,0,0,220.16,181.49Z"/><path class="cls-8" d="M161.39,149.35a.87.87,0,1,0,.87.87A.87.87,0,0,0,161.39,149.35Z"/><path class="cls-9" d="M175.57,197.14a2.56,2.56,0,0,1-.31.56,3.09,3.09,0,0,1-.56.31,2.91,2.91,0,0,1,.56.3,2.82,2.82,0,0,1,.31.56,2.82,2.82,0,0,1,.31-.56,2.91,2.91,0,0,1,.56-.3,3.09,3.09,0,0,1-.56-.31A2.56,2.56,0,0,1,175.57,197.14Z"/><path class="cls-10" d="M151.59,180.45a3.09,3.09,0,0,1-.31.56,2.56,2.56,0,0,1-.56.31,1.16,1.16,0,0,1,.87.87,2.91,2.91,0,0,1,.3-.56,3.46,3.46,0,0,1,.57-.31,2.82,2.82,0,0,1-.57-.31A2.91,2.91,0,0,1,151.59,180.45Z"/><path class="cls-11" d="M163.54,168.59a3.46,3.46,0,0,1-.31.57,2.91,2.91,0,0,1-.56.3,1.16,1.16,0,0,1,.87.87,2.56,2.56,0,0,1,.31-.56,3.09,3.09,0,0,1,.56-.31,2.91,2.91,0,0,1-.56-.3A2.82,2.82,0,0,1,163.54,168.59Z"/><path class="cls-12" d="M217.72,142.05a2.82,2.82,0,0,1-.31.56,2.91,2.91,0,0,1-.56.3,3.09,3.09,0,0,1,.56.31,2.56,2.56,0,0,1,.31.56,2.56,2.56,0,0,1,.31-.56,3.09,3.09,0,0,1,.56-.31,2.91,2.91,0,0,1-.56-.3A2.82,2.82,0,0,1,217.72,142.05Z"/><path class="cls-13" d="M207.65,181.31a1.16,1.16,0,0,1-.87.87,3.09,3.09,0,0,1,.56.31,2.56,2.56,0,0,1,.31.56,2.56,2.56,0,0,1,.31-.56,3.09,3.09,0,0,1,.56-.31,1.16,1.16,0,0,1-.87-.87Z"/><path class="cls-14" d="M212.82,168.42a.29.29,0,1,1,.29.29A.29.29,0,0,1,212.82,168.42Zm-2.32,5.32a.58.58,0,0,0,.58-.58.59.59,0,0,0-1.17,0A.58.58,0,0,0,210.5,173.74Zm-1.17-7a1.16,1.16,0,1,0-1.16-1.16A1.16,1.16,0,0,0,209.33,166.77Zm10.06-1.35a.58.58,0,1,0-.58-.58A.58.58,0,0,0,219.39,165.42Z"/><path class="cls-15" d="M162,189.2a.3.3,0,0,1-.26.32.31.31,0,0,1-.32-.27.29.29,0,0,1,.27-.31A.28.28,0,0,1,162,189.2Zm1.86-5.49a.57.57,0,0,0-.53.62.58.58,0,0,0,.63.53.57.57,0,0,0,.53-.62A.58.58,0,0,0,163.85,183.71Zm1.75,6.84a1.16,1.16,0,0,0-1.06,1.25,1.16,1.16,0,1,0,1.06-1.25Zm-9.91,2.2a.58.58,0,1,0,.1,1.16.58.58,0,0,0-.1-1.16Z"/><path class="cls-16" d="M213,14.22a4.82,4.82,0,0,0-.55-1,5,5,0,0,0-1-.56,5.35,5.35,0,0,0,1-.55,4.82,4.82,0,0,0,.55-1,5,5,0,0,0,.56,1,5.35,5.35,0,0,0,1,.55,5,5,0,0,0-1,.56A5,5,0,0,0,213,14.22Z"/><path class="cls-17" d="M208.61,50.89a5.35,5.35,0,0,0-.55-1,5.26,5.26,0,0,0-1-.56,5.68,5.68,0,0,0,1-.55,5.35,5.35,0,0,0,.55-1,5.35,5.35,0,0,0,.55,1,5.68,5.68,0,0,0,1,.55,5.26,5.26,0,0,0-1,.56A5.35,5.35,0,0,0,208.61,50.89Z"/><path class="cls-18" d="M161.34,19.84a5.09,5.09,0,0,0-.55-1,5.35,5.35,0,0,0-1-.55,5.35,5.35,0,0,0,1-.55,4.82,4.82,0,0,0,.55-1,5,5,0,0,0,.56,1,5.35,5.35,0,0,0,1,.55,5.35,5.35,0,0,0-1,.55A5.27,5.27,0,0,0,161.34,19.84Z"/><path class="cls-19" d="M157.69,37.33a8.51,8.51,0,0,0-.92-1.68,9,9,0,0,0-1.69-.93,8.81,8.81,0,0,0,1.69-.92,8.8,8.8,0,0,0,.92-1.68,8.8,8.8,0,0,0,.92,1.68,8.8,8.8,0,0,0,1.68.92,9,9,0,0,0-1.68.93A8.51,8.51,0,0,0,157.69,37.33Z"/><path class="cls-20" d="M155.78,6.4a8.81,8.81,0,0,0-.92-1.69,8.81,8.81,0,0,0-1.69-.92,8.81,8.81,0,0,0,1.69-.92,8.81,8.81,0,0,0,.92-1.69,8.81,8.81,0,0,0,.92,1.69,8.8,8.8,0,0,0,1.68.92,8.8,8.8,0,0,0-1.68.92A8.81,8.81,0,0,0,155.78,6.4Z"/><path class="cls-21" d="M222.51,40.46a8.81,8.81,0,0,0-.92-1.69,8.8,8.8,0,0,0-1.68-.92,8.8,8.8,0,0,0,1.68-.92,8.8,8.8,0,0,0,.92-1.68,8.8,8.8,0,0,0,.92,1.68,8.81,8.81,0,0,0,1.69.92,8.81,8.81,0,0,0-1.69.92A8.81,8.81,0,0,0,222.51,40.46Z"/><path class="cls-22" d="M163.74,8.32a.88.88,0,1,0,.87.88A.87.87,0,0,0,163.74,8.32Z"/><path class="cls-23" d="M177.92,56.11a2.56,2.56,0,0,1-.31.56,3.09,3.09,0,0,1-.56.31,1.16,1.16,0,0,1,.87.87,1.16,1.16,0,0,1,.87-.87,3.09,3.09,0,0,1-.56-.31A2.56,2.56,0,0,1,177.92,56.11Z"/><path class="cls-24" d="M153.94,39.43a3.47,3.47,0,0,1-.31.56,2.91,2.91,0,0,1-.56.3,3.09,3.09,0,0,1,.56.31,3.09,3.09,0,0,1,.31.56,2.91,2.91,0,0,1,.3-.56,3.46,3.46,0,0,1,.57-.31,3.23,3.23,0,0,1-.57-.3A3.23,3.23,0,0,1,153.94,39.43Z"/><path class="cls-25" d="M165.89,27.57a3.09,3.09,0,0,1-.31.56,3.09,3.09,0,0,1-.56.31,2.91,2.91,0,0,1,.56.3,3.47,3.47,0,0,1,.31.56,2.82,2.82,0,0,1,.31-.56,2.91,2.91,0,0,1,.56-.3,3.09,3.09,0,0,1-.56-.31A2.56,2.56,0,0,1,165.89,27.57Z"/><path class="cls-26" d="M220.07,1a2.56,2.56,0,0,1-.31.56,3.09,3.09,0,0,1-.56.31,2.91,2.91,0,0,1,.56.3,2.82,2.82,0,0,1,.31.56,2.82,2.82,0,0,1,.31-.56,2.91,2.91,0,0,1,.56-.3,3.09,3.09,0,0,1-.56-.31A2.56,2.56,0,0,1,220.07,1Z"/><path class="cls-27" d="M210,40.29a2.82,2.82,0,0,1-.31.56,2.91,2.91,0,0,1-.56.3,3.09,3.09,0,0,1,.56.31A2.56,2.56,0,0,1,210,42a2.56,2.56,0,0,1,.31-.56,3.09,3.09,0,0,1,.56-.31,2.91,2.91,0,0,1-.56-.3A2.82,2.82,0,0,1,210,40.29Z"/><path class="cls-28" d="M215.17,27.39a.29.29,0,1,1,.29.29A.29.29,0,0,1,215.17,27.39Zm-2.33,5.32a.58.58,0,1,0-.58-.58A.58.58,0,0,0,212.84,32.71Zm-1.16-7a1.16,1.16,0,1,0-1.16-1.16A1.15,1.15,0,0,0,211.68,25.74Zm10.06-1.35a.58.58,0,1,0-.58-.58A.58.58,0,0,0,221.74,24.39Z"/><path class="cls-29" d="M164.34,48.18a.28.28,0,0,1-.26.31.3.3,0,0,1-.32-.26.31.31,0,0,1,.27-.32A.29.29,0,0,1,164.34,48.18Zm1.86-5.5a.58.58,0,0,0,.1,1.16.58.58,0,1,0-.1-1.16ZM168,49.52a1.16,1.16,0,1,0,.2,2.31,1.14,1.14,0,0,0,1-1.25A1.16,1.16,0,0,0,168,49.52ZM158,51.72a.58.58,0,1,0,.63.53A.59.59,0,0,0,158,51.72Z"/><path class="cls-30" d="M90.67,50.59a5.69,5.69,0,0,0,.23,1.13,5.65,5.65,0,0,0,.81.82,5.56,5.56,0,0,0-1.13.23,5.34,5.34,0,0,0-.83.81,4.93,4.93,0,0,0-.23-1.13,5.21,5.21,0,0,0-.8-.82,5,5,0,0,0,1.12-.24A5,5,0,0,0,90.67,50.59Z"/><path class="cls-31" d="M99.28,34.93a8.64,8.64,0,0,0,.39,1.88A8.72,8.72,0,0,0,101,38.18a8.53,8.53,0,0,0-1.88.39,9.19,9.19,0,0,0-1.37,1.34A9.17,9.17,0,0,0,97.37,38,9.19,9.19,0,0,0,96,36.66a9.3,9.3,0,0,0,1.88-.39A9.19,9.19,0,0,0,99.28,34.93Z"/><path class="cls-32" d="M92.06,65.07A9.17,9.17,0,0,0,92.45,67a9.19,9.19,0,0,0,1.34,1.37,9.3,9.3,0,0,0-1.88.39,9.19,9.19,0,0,0-1.37,1.34,8.64,8.64,0,0,0-.39-1.88,8.72,8.72,0,0,0-1.34-1.37,8.53,8.53,0,0,0,1.88-.39A8.72,8.72,0,0,0,92.06,65.07Z"/><path class="cls-33" d="M85,60.9a.87.87,0,0,0,.51-1.67A.87.87,0,0,0,85,60.9Z"/><path class="cls-34" d="M85.42,11.05a3.29,3.29,0,0,1,.46-.45,3.13,3.13,0,0,1,.63-.12,3.29,3.29,0,0,1-.45-.46,3.33,3.33,0,0,1-.13-.63,2.8,2.8,0,0,1-.46.45,3.26,3.26,0,0,1-.62.13,2.47,2.47,0,0,1,.44.46A2.62,2.62,0,0,1,85.42,11.05Z"/><path class="cls-35" d="M103.48,34a3.29,3.29,0,0,1,.46-.45,3.26,3.26,0,0,1,.62-.13,2.68,2.68,0,0,1-.44-.45,2.78,2.78,0,0,1-.13-.63,3.29,3.29,0,0,1-.46.45,3.33,3.33,0,0,1-.63.13,2.65,2.65,0,0,1,.45.45A2.68,2.68,0,0,1,103.48,34Z"/><path class="cls-36" d="M88.58,41.87a2.81,2.81,0,0,1,.46-.45,2.68,2.68,0,0,1,.63-.13,3.29,3.29,0,0,1-.45-.46,3.26,3.26,0,0,1-.13-.62,2.47,2.47,0,0,1-.46.44,2.62,2.62,0,0,1-.62.13,3.29,3.29,0,0,1,.45.46A3.13,3.13,0,0,1,88.58,41.87Z"/><path class="cls-37" d="M112.8,12a5.31,5.31,0,0,0-1.15.08,5.22,5.22,0,0,0-.92.69,5.31,5.31,0,0,0-.08-1.15,5.22,5.22,0,0,0-.69-.92,5.31,5.31,0,0,0,1.15-.08,5.39,5.39,0,0,0,.93-.69,5.31,5.31,0,0,0,.08,1.15A5.29,5.29,0,0,0,112.8,12Z"/><path class="cls-38" d="M140.64,14.23a9.18,9.18,0,0,0-1.91.13,8.75,8.75,0,0,0-1.55,1.15,8.61,8.61,0,0,0-.13-1.92,9,9,0,0,0-1.15-1.54,8.61,8.61,0,0,0,1.92-.13,9,9,0,0,0,1.54-1.15,9.27,9.27,0,0,0,.13,1.92A9,9,0,0,0,140.64,14.23Z"/><path class="cls-39" d="M135.26,25.53a2.65,2.65,0,0,1,.38.51,2.77,2.77,0,0,1,.05.64,2.65,2.65,0,0,1,.51-.38,2.77,2.77,0,0,1,.64-.05,2.65,2.65,0,0,1-.38-.51,2.77,2.77,0,0,1-.05-.64,2.65,2.65,0,0,1-.51.38A2.77,2.77,0,0,1,135.26,25.53Z"/><path class="cls-40" d="M125.7,15.45a.3.3,0,0,1-.15-.39.3.3,0,0,1,.39-.14.29.29,0,0,1,.14.39A.29.29,0,0,1,125.7,15.45Zm3.86,4.33a.57.57,0,0,0-.28-.77.58.58,0,0,0-.77.28.58.58,0,1,0,1.05.49Zm-6.81-1.85a1.16,1.16,0,1,0-1.54.57A1.16,1.16,0,0,0,122.75,17.93Zm3-9.71a.58.58,0,1,0-.77.29A.59.59,0,0,0,125.72,8.22Z"/><path class="cls-41" d="M60.52,32.6a3.94,3.94,0,0,1-.6.54,3.4,3.4,0,0,1-.8.12,4.13,4.13,0,0,1,.54.61,4,4,0,0,1,.12.8,3.94,3.94,0,0,1,.6-.54,4.15,4.15,0,0,1,.8-.12,3.67,3.67,0,0,1-.53-.61A3.55,3.55,0,0,1,60.52,32.6Z"/><path class="cls-42" d="M71.28,2.17A.37.37,0,0,1,71.75,2a.35.35,0,0,1,.22.46.37.37,0,0,1-.47.22A.35.35,0,0,1,71.28,2.17Zm-5,5.32a.74.74,0,0,0,.94-.44.73.73,0,1,0-.94.44ZM80.37,1.42A.73.73,0,0,0,80.87,0a.74.74,0,0,0-.94.44A.73.73,0,0,0,80.37,1.42Z"/><path class="cls-43" d="M213.91,110.14a3.44,3.44,0,0,1,.08-.8,3.31,3.31,0,0,1,.5-.63,4.2,4.2,0,0,1-.81-.08,4.25,4.25,0,0,1-.63-.5,3.4,3.4,0,0,1-.08.8,3.46,3.46,0,0,1-.5.64,3.52,3.52,0,0,1,.81.08A3.74,3.74,0,0,1,213.91,110.14Z"/><path class="cls-44" d="M214.33,127.67a.37.37,0,0,1-.2.48.37.37,0,0,1-.48-.19.38.38,0,0,1,.19-.49A.37.37,0,0,1,214.33,127.67Zm0-7.33a.73.73,0,1,0,1,.39A.73.73,0,0,0,214.38,120.34Zm4.8,7.5a1.47,1.47,0,1,0,1.92.77A1.47,1.47,0,0,0,219.18,127.84Zm-11,6.57a.73.73,0,0,0,.57,1.35.73.73,0,1,0-.57-1.35Z"/><path class="cls-45" d="M184.69,38.22a4,4,0,0,1,.1.8,3.57,3.57,0,0,1-.35.73,3.85,3.85,0,0,1,.8-.1A4.07,4.07,0,0,1,186,40a4,4,0,0,1-.1-.81,3.43,3.43,0,0,1,.35-.72,3.38,3.38,0,0,1-.8.09A3.57,3.57,0,0,1,184.69,38.22Z"/><path class="cls-46" d="M180.53,21.2a.37.37,0,1,1,.51.08A.36.36,0,0,1,180.53,21.2Zm1.52,7.16a.73.73,0,1,0-1-.17A.72.72,0,0,0,182.05,28.36Zm-6.3-6.29a1.47,1.47,0,1,0-2.05-.34A1.48,1.48,0,0,0,175.75,22.07Zm9.32-8.78a.72.72,0,0,0,.17-1,.73.73,0,1,0-.17,1Z"/><path class="cls-47" d="M95.2,7.49a.29.29,0,0,1,.35-.22.29.29,0,0,1,.22.34.28.28,0,0,1-.35.22A.29.29,0,0,1,95.2,7.49ZM91.81,12.2a.58.58,0,1,0-.44-.69A.57.57,0,0,0,91.81,12.2Zm10.45-6.26a.58.58,0,1,0-.44-.69A.58.58,0,0,0,102.26,5.94Z"/><path class="cls-48" d="M28.68,189.88a8.91,8.91,0,0,0,1.75.79,8.57,8.57,0,0,0,1.9-.28,8.91,8.91,0,0,0-.79,1.75,8.57,8.57,0,0,0,.28,1.9,8.91,8.91,0,0,0-1.75-.79,8.67,8.67,0,0,0-1.9.28,8.91,8.91,0,0,0,.79-1.75A8.67,8.67,0,0,0,28.68,189.88Z"/><path class="cls-49" d="M32.68,154.31a9.21,9.21,0,0,0,1.75.79,9.22,9.22,0,0,0,1.9-.28,8.91,8.91,0,0,0-.79,1.75,9.33,9.33,0,0,0,.28,1.9,8.35,8.35,0,0,0-1.75-.79,8.67,8.67,0,0,0-1.9.28,8.61,8.61,0,0,0,.79-1.75A8.57,8.57,0,0,0,32.68,154.31Z"/><path class="cls-50" d="M1.22,187.09a2.93,2.93,0,0,1-.1-.63,2.68,2.68,0,0,1,.27-.58,3.21,3.21,0,0,1-.64.09,2.77,2.77,0,0,1-.58-.26,3.08,3.08,0,0,1,.09.63,2.77,2.77,0,0,1-.26.58,3.08,3.08,0,0,1,.63-.09A2.91,2.91,0,0,1,1.22,187.09Z"/><path class="cls-51" d="M30.41,186a2.6,2.6,0,0,1-.09-.64,3,3,0,0,1,.26-.58,2.59,2.59,0,0,1-.63.09,2.91,2.91,0,0,1-.59-.26,3.05,3.05,0,0,1,.1.63,3.46,3.46,0,0,1-.27.59,3.05,3.05,0,0,1,.64-.1A3.67,3.67,0,0,1,30.41,186Z"/><path class="cls-52" d="M28,202.61a3.08,3.08,0,0,1-.09-.63,2.77,2.77,0,0,1,.26-.58,3.08,3.08,0,0,1-.63.09,2.77,2.77,0,0,1-.58-.26,3.08,3.08,0,0,1,.09.63,2.77,2.77,0,0,1-.26.58,3.08,3.08,0,0,1,.63-.09A2.77,2.77,0,0,1,28,202.61Z"/><path class="cls-53" d="M16.83,185.24a.3.3,0,0,1,0-.41.29.29,0,0,1,.41,0,.3.3,0,0,1,0,.41A.31.31,0,0,1,16.83,185.24Zm1.83,5.5a.58.58,0,0,0,.05-.82.59.59,0,0,0-.82,0,.58.58,0,0,0-.05.82A.57.57,0,0,0,18.66,190.74Zm-5.52-4.4a1.16,1.16,0,1,0-1.63-.09A1.15,1.15,0,0,0,13.14,186.34Zm6.58-7.73a.58.58,0,0,0,.05-.82.57.57,0,0,0-.82,0,.58.58,0,0,0-.05.82A.59.59,0,0,0,19.72,178.61Z"/><path class="cls-54" d="M76.86,51.39a.3.3,0,0,1,0-.41.29.29,0,0,1,.41,0,.3.3,0,0,1,0,.41A.29.29,0,0,1,76.86,51.39Zm1.83,5.51a.58.58,0,1,0-.82,0A.58.58,0,0,0,78.69,56.9Zm-5.51-4.41a1.16,1.16,0,0,0-1.56-1.72,1.16,1.16,0,0,0,1.56,1.72Zm6.57-7.73a.58.58,0,0,0,0-.82.57.57,0,0,0-.82,0,.58.58,0,0,0,0,.82A.57.57,0,0,0,79.75,44.76Z"/><path class="cls-55" d="M90.2,100.3a.29.29,0,1,1,.44-.38.29.29,0,0,1-.44.38ZM92,105.81a.58.58,0,0,0,0-.82.57.57,0,0,0-.82,0,.58.58,0,0,0-.05.82A.57.57,0,0,0,92,105.81Zm-5.51-4.4a1.16,1.16,0,1,0-1.64-.09A1.17,1.17,0,0,0,86.52,101.41Zm6.57-7.73a.58.58,0,1,0-.82-.05A.58.58,0,0,0,93.09,93.68Z"/><path class="cls-56" d="M182.5,173.91a5.56,5.56,0,0,0,.23,1.13,5.34,5.34,0,0,0,.81.83,4.93,4.93,0,0,0-1.13.23,5.21,5.21,0,0,0-.82.8,5,5,0,0,0-.24-1.12,5,5,0,0,0-.8-.83,5.69,5.69,0,0,0,1.13-.23A5.65,5.65,0,0,0,182.5,173.91Z"/><path class="cls-57" d="M191.11,158.25a8.53,8.53,0,0,0,.39,1.88,8.89,8.89,0,0,0,1.34,1.38,9.12,9.12,0,0,0-1.88.38,9.14,9.14,0,0,0-1.37,1.35,9.17,9.17,0,0,0-.39-1.88,8.89,8.89,0,0,0-1.34-1.38,8.64,8.64,0,0,0,1.88-.39A8.72,8.72,0,0,0,191.11,158.25Z"/><path class="cls-58" d="M98.37,142.65a2.81,2.81,0,0,1,.46-.45,2.62,2.62,0,0,1,.62-.13,2.84,2.84,0,0,1-.44-.46,2.68,2.68,0,0,1-.13-.63,2.81,2.81,0,0,1-.46.45,2.68,2.68,0,0,1-.63.13,3.29,3.29,0,0,1,.45.46A3.33,3.33,0,0,1,98.37,142.65Z"/><path class="cls-59" d="M180.42,165.19a3.08,3.08,0,0,1,.45-.45,3.33,3.33,0,0,1,.63-.13,3.08,3.08,0,0,1-.45-.45,3.33,3.33,0,0,1-.13-.63,3.08,3.08,0,0,1-.45.45,3.49,3.49,0,0,1-.63.13,3.08,3.08,0,0,1,.45.45A3.49,3.49,0,0,1,180.42,165.19Z"/><path class="cls-60" d="M131.08,37.61a5.07,5.07,0,0,0-.43-1.07,5.2,5.2,0,0,0-.94-.67,5.29,5.29,0,0,0,1.07-.43,5.57,5.57,0,0,0,.66-.94,5.48,5.48,0,0,0,.44,1.07,5.57,5.57,0,0,0,.94.66,5.48,5.48,0,0,0-1.07.44A4.87,4.87,0,0,0,131.08,37.61Z"/><path class="cls-61" d="M149.54,89.07a5.29,5.29,0,0,0-.43-1.07,5.57,5.57,0,0,0-.94-.66,6,6,0,0,0,1.07-.43,5.57,5.57,0,0,0,.66-.94,5.21,5.21,0,0,0,.44,1.06,5.2,5.2,0,0,0,.94.67,5.29,5.29,0,0,0-1.07.43A5.2,5.2,0,0,0,149.54,89.07Z"/><path class="cls-62" d="M164.56,80.32a9.18,9.18,0,0,0-.72-1.78,8.72,8.72,0,0,0-1.57-1.11,9.44,9.44,0,0,0,1.78-.72,9.28,9.28,0,0,0,1.11-1.57,8.79,8.79,0,0,0,.72,1.78A9.28,9.28,0,0,0,167.45,78a8.57,8.57,0,0,0-1.78.72A8.72,8.72,0,0,0,164.56,80.32Z"/><path class="cls-63" d="M139.67,25.32a2.74,2.74,0,0,1-.37.52,2.77,2.77,0,0,1-.59.24,2.74,2.74,0,0,1,.52.37,2.77,2.77,0,0,1,.24.59,3.31,3.31,0,0,1,.37-.52,3,3,0,0,1,.6-.24,3.29,3.29,0,0,1-.53-.37A3,3,0,0,1,139.67,25.32Z"/><path class="cls-64" d="M152.15,78.7a2.9,2.9,0,0,1-.37.52,3,3,0,0,1-.6.24,3.29,3.29,0,0,1,.53.37,3,3,0,0,1,.24.6,2.46,2.46,0,0,1,.37-.52,2.77,2.77,0,0,1,.59-.24,3.31,3.31,0,0,1-.52-.37A3,3,0,0,1,152.15,78.7Z"/><path class="cls-65" d="M158.77,66.49a.29.29,0,1,1,.57.06.29.29,0,0,1-.32.26A.28.28,0,0,1,158.77,66.49Zm-2.92,5a.58.58,0,1,0,.13-1.15.58.58,0,0,0-.13,1.15Zm-.35-7a1.16,1.16,0,1,0-1-1.29A1.15,1.15,0,0,0,155.5,64.45Zm10.14-.18a.6.6,0,0,0,.65-.51.58.58,0,0,0-1.16-.14A.6.6,0,0,0,165.64,64.27Z"/><path class="cls-66" d="M64.81,204.06a3.08,3.08,0,0,1,.45-.45,3.33,3.33,0,0,1,.63-.13,2.8,2.8,0,0,1-.45-.46,3.26,3.26,0,0,1-.13-.62,2.68,2.68,0,0,1-.45.44,2.78,2.78,0,0,1-.63.13,3.29,3.29,0,0,1,.45.46A3.33,3.33,0,0,1,64.81,204.06Z"/><path class="cls-67" d="M197.86,102.09a5.2,5.2,0,0,0,.24,1.13,5.21,5.21,0,0,0,.8.82,2,2,0,0,0-2,1,5.56,5.56,0,0,0-.23-1.13,5.65,5.65,0,0,0-.81-.82,5.08,5.08,0,0,0,1.13-.24A5.21,5.21,0,0,0,197.86,102.09Z"/><path class="cls-68" d="M206.48,86.43a9.12,9.12,0,0,0,.38,1.88,9.14,9.14,0,0,0,1.35,1.37,8.53,8.53,0,0,0-1.88.39A8.89,8.89,0,0,0,205,91.41a8.64,8.64,0,0,0-.39-1.88,8.72,8.72,0,0,0-1.34-1.37,9.17,9.17,0,0,0,1.88-.39A8.89,8.89,0,0,0,206.48,86.43Z"/><path class="cls-69" d="M187,132.83a8.53,8.53,0,0,0,.39,1.88,8.45,8.45,0,0,0,1.34,1.38,9,9,0,0,0-1.88.38,8.84,8.84,0,0,0-1.38,1.35,9,9,0,0,0-.38-1.88,8.84,8.84,0,0,0-1.35-1.38,8.53,8.53,0,0,0,1.88-.39A8.45,8.45,0,0,0,187,132.83Z"/><path class="cls-70" d="M192.21,112.4a.87.87,0,1,0-.58-1.09A.87.87,0,0,0,192.21,112.4Z"/><path class="cls-71" d="M180.34,78.81a2.84,2.84,0,0,1,.46-.44,2.62,2.62,0,0,1,.62-.13,2.84,2.84,0,0,1-.44-.46,2.68,2.68,0,0,1-.13-.63,2.81,2.81,0,0,1-.46.45,2.68,2.68,0,0,1-.63.13,3.29,3.29,0,0,1,.45.46A3.26,3.26,0,0,1,180.34,78.81Z"/><path class="cls-72" d="M210.68,85.52a3.08,3.08,0,0,1,.45-.45,3.33,3.33,0,0,1,.63-.13,3.08,3.08,0,0,1-.45-.45,3.49,3.49,0,0,1-.13-.63,3.08,3.08,0,0,1-.45.45,3.49,3.49,0,0,1-.63.13,3.08,3.08,0,0,1,.45.45A3.33,3.33,0,0,1,210.68,85.52Z"/><path class="cls-73" d="M195.78,93.37a2.81,2.81,0,0,1,.46-.45,2.62,2.62,0,0,1,.62-.13,2.84,2.84,0,0,1-.44-.46,2.62,2.62,0,0,1-.13-.62,2.84,2.84,0,0,1-.46.44,2.68,2.68,0,0,1-.63.13,3.29,3.29,0,0,1,.45.46A2.68,2.68,0,0,1,195.78,93.37Z"/><path class="cls-74" d="M203.29,74.11a.29.29,0,1,1,.22.34A.27.27,0,0,1,203.29,74.11Zm-3.39,4.71a.58.58,0,1,0-.45-.69A.58.58,0,0,0,199.9,78.82Zm.33-7a1.16,1.16,0,1,0-.89-1.38A1.16,1.16,0,0,0,200.23,71.77Zm10.12.79a.58.58,0,1,0-.45-.69A.58.58,0,0,0,210.35,72.56Z"/><path class="cls-75" d="M70.85,106.88a8.53,8.53,0,0,0,.39,1.88,8.45,8.45,0,0,0,1.34,1.38,8.53,8.53,0,0,0-1.88.39,8.72,8.72,0,0,0-1.37,1.34,9.17,9.17,0,0,0-.39-1.88,8.89,8.89,0,0,0-1.34-1.38,8.64,8.64,0,0,0,1.88-.39A8.72,8.72,0,0,0,70.85,106.88Z"/><path class="cls-76" d="M75.05,106a2.84,2.84,0,0,1,.46-.44,2.62,2.62,0,0,1,.62-.13,2.84,2.84,0,0,1-.44-.46,2.68,2.68,0,0,1-.13-.63,2.81,2.81,0,0,1-.46.45,2.68,2.68,0,0,1-.63.13,2.81,2.81,0,0,1,.45.46A2.62,2.62,0,0,1,75.05,106Z"/><path class="cls-77" d="M60.15,113.82a3.29,3.29,0,0,1,.46-.45,3.33,3.33,0,0,1,.63-.13,3.08,3.08,0,0,1-.45-.45,3.33,3.33,0,0,1-.13-.63,2.8,2.8,0,0,1-.46.45,3.26,3.26,0,0,1-.62.13,2.68,2.68,0,0,1,.44.45A2.78,2.78,0,0,1,60.15,113.82Z"/></g></g></g></svg>