<svg width="527" height="523" viewBox="0 0 527 523" fill="none" xmlns="http://www.w3.org/2000/svg">
<path d="M524.568 261.757C524.76 312.997 509.606 363.141 481.023 405.838C452.44 448.535 411.716 481.864 364.007 501.605C316.298 521.346 263.752 526.61 213.022 516.731C162.292 506.852 115.662 482.273 79.0365 446.109C42.4112 409.945 17.4384 363.821 7.28131 313.579C-2.87584 263.338 2.23964 211.239 21.9795 163.881C41.7194 116.524 75.1955 76.0372 118.169 47.5497C161.142 19.0622 211.679 3.8553 263.378 3.85494C297.614 3.79158 331.528 10.4122 363.182 23.3387C394.837 36.2652 423.612 55.2445 447.866 79.193C472.12 103.141 491.377 131.59 504.537 162.914C517.698 194.239 524.504 227.826 524.568 261.757Z" fill="#27ACE3"/>
<path d="M524.568 261.757C524.568 261.757 524.568 263.444 524.568 266.337C524.889 270.911 524.889 275.501 524.568 280.075C523.596 297.204 520.742 314.176 516.056 330.692C509.116 356.309 498.205 380.702 483.712 403.001C453.723 449.941 409.177 485.971 356.765 505.68C336.451 513.421 315.188 518.446 293.535 520.624C246.814 525.704 199.577 518.123 156.861 498.69C111.312 478.203 72.4718 445.469 44.7486 404.206C30.5695 383.315 19.5113 360.503 11.9174 336.476C8.14165 324.318 5.21638 311.915 3.16246 299.358C1.25425 286.747 0.197942 274.025 0.000833969 261.275C-0.0297845 248.462 0.782731 235.66 2.43291 222.951C7.62359 184.954 21.4252 148.615 42.803 116.657C70.7476 75.4505 109.979 43.0062 155.888 23.1371C177.849 13.3387 201.103 6.68398 224.954 3.37262C230.791 3.37262 236.628 1.68537 242.221 1.44434H250.976H259.731C265.568 1.44434 270.918 1.44434 276.755 1.44434C282.591 1.44434 288.185 1.44437 293.778 2.89055C315.421 5.26466 336.67 10.3676 357.008 18.0755C375.936 25.3442 393.967 34.7244 410.754 46.035C439.903 65.9158 464.715 91.4091 483.712 120.995C498.118 143.371 509.1 167.739 516.3 193.305C520.81 209.849 523.581 226.811 524.568 243.921C524.889 248.495 524.889 253.085 524.568 257.66C524.568 260.07 524.568 261.757 524.568 261.757ZM524.568 261.757V257.177C524.568 254.044 524.568 249.465 524.568 243.68C523.275 226.632 520.261 209.756 515.57 193.305C512.221 181.489 507.91 169.962 502.681 158.837C496.688 145.823 489.611 133.326 481.523 121.477C462.169 92.9106 437.388 68.3508 408.565 49.1684C374.224 27.1388 335.169 13.3559 294.508 8.91631L278.457 7.47009H254.138H245.626C240.032 7.47009 234.439 7.47014 228.846 9.39838C217.492 10.9748 206.274 13.3918 195.285 16.6293L178.505 21.6909C173.155 23.8602 167.561 25.7884 162.211 28.1987C116.68 48.064 77.8701 80.4823 50.4047 121.592C22.9392 162.701 7.97566 210.769 7.2967 260.07C7.25851 272.643 8.07112 285.205 9.72878 297.671C11.5629 310.049 14.2443 322.289 17.7542 334.307C25.0695 358.271 35.7969 381.077 49.6124 402.037C76.5044 443.054 114.752 475.523 159.779 495.556C165.372 497.967 170.966 499.654 176.316 501.823C181.666 503.993 187.503 505.68 193.34 506.885C204.423 510.02 215.72 512.356 227.143 513.875C232.98 513.875 238.573 515.321 244.167 515.562H252.435H260.947C266.541 515.562 272.134 515.562 277.728 515.562C283.321 515.562 288.671 515.562 294.021 514.116C334.717 509.346 373.751 495.323 408.079 473.141C449.476 446.508 482.438 408.826 503.167 364.436C508.215 353.347 512.442 341.907 515.813 330.21C520.49 313.673 523.504 296.718 524.811 279.593C524.811 273.809 524.811 269.229 524.811 266.096L524.568 261.757Z" fill="#2B62AC"/>
<path d="M524.568 260.07C524.76 311.31 509.606 361.454 481.023 404.151C452.44 446.848 411.716 480.177 364.007 499.918C316.298 519.659 263.752 524.923 213.022 515.044C162.292 505.165 115.662 480.586 79.0365 444.422C42.4112 408.258 17.4384 362.134 7.28131 311.892C-2.87584 261.651 2.23964 209.552 21.9795 162.194C41.7194 114.837 75.1955 74.3501 118.169 45.8627C161.142 17.3752 211.679 2.16829 263.378 2.16793C297.614 2.10457 331.528 8.72517 363.182 21.6517C394.837 34.5782 423.612 53.5575 447.866 77.506C472.12 101.454 491.377 129.903 504.537 161.227C517.698 192.552 524.504 226.139 524.568 260.07Z" fill="#B85F17"/>
<path d="M263.622 520.142C211.765 519.951 161.127 504.536 118.103 475.844C75.0788 447.151 41.5973 406.467 21.8856 358.929C2.17381 311.39 -2.88432 259.129 7.35023 208.744C17.5848 158.359 42.6529 112.109 79.3893 75.8334C116.126 39.5581 162.884 14.8843 213.759 4.92727C264.633 -5.02976 317.344 0.176457 365.236 19.8887C413.127 39.6009 454.052 72.9352 482.843 115.683C511.634 158.43 526.999 208.674 527 260.07C526.807 329.153 498.965 395.338 449.586 444.098C400.207 492.857 333.325 520.206 263.622 520.142ZM263.622 4.33688C212.562 4.47986 162.69 19.62 120.308 47.8442C77.9263 76.0685 44.937 116.11 25.5081 162.91C6.07917 209.709 1.08271 261.167 11.1501 310.78C21.2175 360.392 45.897 405.935 82.07 441.651C118.243 477.368 164.286 501.656 214.382 511.447C264.478 521.239 316.378 516.093 363.524 496.661C410.67 477.229 450.946 444.382 479.264 402.272C507.582 360.161 522.67 310.676 522.622 260.07C522.365 192.157 494.964 127.112 446.419 79.1805C397.875 31.2488 332.145 4.3364 263.622 4.33688Z" fill="#451F0F"/>
<path d="M524.568 260.07C524.76 311.31 509.606 361.454 481.023 404.151C452.44 446.848 411.716 480.177 364.007 499.918C316.298 519.659 263.752 524.923 213.022 515.044C162.292 505.165 115.662 480.586 79.0365 444.422C42.4112 408.258 17.4384 362.134 7.28131 311.892C-2.87584 261.651 2.23964 209.552 21.9795 162.194C41.7194 114.837 75.1955 74.3501 118.169 45.8627C161.142 17.3752 211.679 2.16829 263.378 2.16793C297.614 2.10457 331.528 8.72517 363.182 21.6517C394.837 34.5782 423.612 53.5575 447.866 77.506C472.12 101.454 491.377 129.903 504.537 161.227C517.698 192.552 524.504 226.139 524.568 260.07Z" fill="#B85F17"/>
<path d="M263.622 520.142C211.765 519.951 161.127 504.536 118.103 475.844C75.0788 447.151 41.5973 406.467 21.8856 358.929C2.17381 311.39 -2.88432 259.129 7.35023 208.744C17.5848 158.359 42.6529 112.109 79.3893 75.8334C116.126 39.5581 162.884 14.8843 213.759 4.92727C264.633 -5.02976 317.344 0.176457 365.236 19.8887C413.127 39.6009 454.052 72.9352 482.843 115.683C511.634 158.43 526.999 208.674 527 260.07C526.807 329.153 498.965 395.338 449.586 444.098C400.207 492.857 333.325 520.206 263.622 520.142ZM263.622 4.33688C212.562 4.47986 162.69 19.62 120.308 47.8442C77.9263 76.0685 44.937 116.11 25.5081 162.91C6.07917 209.709 1.08271 261.167 11.1501 310.78C21.2175 360.392 45.897 405.935 82.07 441.651C118.243 477.368 164.286 501.656 214.382 511.447C264.478 521.239 316.378 516.093 363.524 496.661C410.67 477.229 450.946 444.382 479.264 402.272C507.582 360.161 522.67 310.676 522.622 260.07C522.365 192.157 494.964 127.112 446.419 79.1805C397.875 31.2488 332.145 4.3364 263.622 4.33688Z" fill="#451F0F"/>
<g style="mix-blend-mode:screen">
<path d="M517.515 199.813C502.008 199.531 486.808 195.475 473.254 188.002C460.487 176.46 449.796 162.848 441.639 147.75C441.639 167.756 452.825 194.51 430.938 204.874C425.345 207.526 420.724 202.705 418.049 198.607C415.374 194.51 410.996 187.038 403.701 185.11C396.405 183.182 390.568 185.11 388.866 191.859C386.191 205.115 392.027 224.88 382.543 236.208C373.058 247.537 343.146 241.993 329.041 240.306C329.041 240.306 327.824 240.306 327.824 238.377C327.824 220.541 334.877 200.054 315.665 190.171C307.404 185.455 299.731 179.792 292.805 173.299C287.211 168.238 285.022 161.73 277.97 160.766C284.293 178.602 307.396 186.556 311.044 205.597C314.692 224.639 302.532 229.7 289.4 239.342C276.268 248.983 274.565 260.793 270.917 276.219C269.909 282.631 266.838 288.548 262.162 293.091C257.785 296.225 248.3 301.768 242.707 299.84C237.113 297.912 232.006 288.753 220.09 295.984L207.201 303.697C207.02 303.945 206.783 304.148 206.508 304.288C206.233 304.428 205.929 304.501 205.62 304.501C205.311 304.501 205.006 304.428 204.731 304.288C204.457 304.148 204.219 303.945 204.039 303.697C200.391 291.163 186.529 276.701 175.099 292.609C170.916 300.185 167.807 308.295 165.858 316.712C164.433 320.917 161.975 324.704 158.706 327.733C155.438 330.762 151.46 332.939 147.132 334.066C138.134 337.682 137.404 350.939 124.515 345.395C118.589 341.902 113.389 337.321 109.194 331.897C101.412 323.22 96.0616 307.794 81.2268 318.881C80.0108 318.881 77.822 320.328 77.3356 318.881C76.2049 311.789 74.5798 304.782 72.4718 297.912C72.4718 294.538 69.7965 289.476 66.1486 287.548C54.9617 281.763 52.7731 297.189 52.2867 302.491C51.0708 311.892 52.2866 323.461 41.8293 328.523C37.4518 330.692 32.3448 327.077 28.2105 326.354C15.8077 323.702 16.5374 341.538 17.0238 348.769C24.2667 369.232 34.1579 388.677 46.45 406.617C63.5066 395.04 82.6679 386.855 102.871 382.514C116.733 379.38 134.486 382.514 128.649 401.314C127.15 404.234 124.898 406.709 122.122 408.487C119.346 410.265 116.144 411.283 112.842 411.437C107.735 411.437 102.871 411.437 97.7637 411.437C87.7928 411.437 85.8474 420.114 83.4154 428.068C81.8255 433.301 78.8925 438.035 74.9035 441.807C82.938 450.408 91.5508 458.461 100.682 465.91C102.211 462.195 104.845 459.029 108.233 456.833C111.622 454.638 115.604 453.516 119.651 453.617C134.486 453.617 145.673 472.418 161.481 467.597C170.479 464.705 179.476 461.33 188.475 457.956L204.039 451.93C213.037 448.315 202.337 437.709 198.446 432.889C194.694 429.268 191.959 424.741 190.51 419.754C189.06 414.767 188.945 409.492 190.177 404.447C192.934 393.841 199.254 384.482 208.095 377.91C216.935 371.338 227.77 367.946 238.816 368.293C237.567 362.002 237.749 355.515 239.347 349.302C240.946 343.09 243.921 337.309 248.057 332.379C252.673 327.603 258.585 324.254 265.081 322.738C271.16 322.738 280.645 325.871 285.266 320.569C289.886 315.266 288.67 316.23 290.859 315.266C302.532 309.24 315.178 322.256 318.097 332.861C319.907 339.409 319.907 346.319 318.097 352.867C316.81 357.24 316.914 361.899 318.393 366.211C319.873 370.524 322.656 374.28 326.365 376.97C332.202 362.026 317.367 338.646 332.688 327.318C335.179 325.061 338.298 323.6 341.638 323.128C344.979 322.655 348.386 323.191 351.414 324.666C362.115 329.005 366.492 313.82 373.545 308.758C375.884 306.617 378.712 305.069 381.787 304.248C384.862 303.427 388.092 303.357 391.2 304.044C394.308 304.732 397.201 306.155 399.633 308.194C402.064 310.232 403.961 312.824 405.16 315.748C407.838 325.392 412.29 334.462 418.292 342.503C425.871 349.341 434.005 355.548 442.612 361.062C445.044 362.749 459.878 378.657 460.365 378.416C475.443 369.739 474.227 354.313 472.767 340.574C471.308 326.835 465.228 302.25 480.793 292.368C483.557 290.677 486.798 289.917 490.034 290.199C502.194 290.199 501.951 271.158 499.762 263.927C497.296 258.151 496.456 251.82 497.33 245.608C499.911 238.654 504.913 232.841 511.435 229.218C514.442 228.046 517.367 226.677 520.19 225.121C520.677 214.274 519.218 207.044 517.515 199.813Z" fill="#B85F17"/>
</g>
<path d="M168.291 117.38C158.32 101.954 143.972 121.236 137.892 129.673C134.444 133.1 131.873 137.294 130.392 141.906C128.912 146.518 128.565 151.414 129.38 156.186C133.028 167.273 148.592 165.827 155.645 159.801C162.697 153.776 160.752 143.17 151.754 146.063C149.906 146.414 148.008 146.414 146.16 146.063H144.944C145.939 142.16 147.672 138.479 150.051 135.216L154.429 128.226L157.347 124.852H158.806C163.913 130.155 171.209 121.96 168.291 117.38Z" fill="#B85F17"/>
<g style="mix-blend-mode:multiply" opacity="0.5">
<path d="M178.747 27.7165C171.695 31.814 165.858 38.8039 157.59 40.7322C149.321 42.6604 143.241 40.7322 136.189 43.3835C132.687 44.1385 129.597 46.1651 127.527 49.0645C125.456 51.9639 124.556 55.5262 125.002 59.0505C122.648 60.2737 120.373 61.6422 118.192 63.148C112.998 66.4799 108.465 70.7281 104.817 75.6816C103.896 76.4848 103.211 77.5196 102.834 78.6769C102.458 79.8342 102.403 81.0708 102.677 82.256C102.951 83.4412 103.544 84.531 104.391 85.4103C105.238 86.2895 106.31 86.9255 107.492 87.251C103.844 102.918 94.3594 106.051 80.9838 113.282C75.8205 116.123 71.3824 120.099 68.01 124.903C64.6375 129.708 62.4206 135.215 61.5286 141.001C60.0695 155.463 51.8009 173.058 61.5286 186.555C62.1986 187.559 63.1676 188.331 64.301 188.763C65.4344 189.195 66.6756 189.266 67.8515 188.966C83.1727 186.556 92.1709 168.237 100.196 157.15C113.572 138.832 135.945 149.678 152.483 138.108C158.241 133.491 162.669 127.449 165.316 120.593C167.964 113.737 168.738 106.309 167.561 99.0615C167.561 74.9585 188.718 69.6559 202.58 55.1941C221.549 34.4654 203.553 14.4599 178.747 27.7165Z" fill="#B85F17"/>
</g>
<g style="mix-blend-mode:multiply" opacity="0.5">
<path d="M283.808 107.739C283.713 96.944 281.396 86.2816 276.998 76.4052C275.222 73.4925 272.672 71.1199 269.626 69.547C266.581 67.9742 263.158 67.2616 259.731 67.4871C247.847 67.8015 236.163 70.5938 225.441 75.6821C219.604 80.2617 212.795 87.4926 215.956 95.6876C220.334 107.739 210.12 113.524 205.013 123.406C201.582 125.829 198.81 129.056 196.943 132.799C195.076 136.542 194.172 140.685 194.312 144.858C195.412 151.367 194.194 158.052 190.866 163.769C187.539 169.486 182.309 173.877 176.073 176.192C173.152 177.538 170.53 179.445 168.359 181.804C166.188 184.162 164.512 186.924 163.427 189.93C163.115 192.514 163.512 195.133 164.576 197.512C165.64 199.89 167.332 201.94 169.473 203.445C171.614 204.951 174.126 205.856 176.743 206.065C179.359 206.274 181.984 205.779 184.341 204.633C202.338 196.197 205.499 176.674 219.605 164.863C229.01 159.341 239.287 155.43 250.004 153.294C259.846 149.739 268.34 143.257 274.323 134.735C280.34 126.986 283.668 117.516 283.808 107.739Z" fill="#B85F17"/>
</g>
<g style="mix-blend-mode:multiply" opacity="0.5">
<path d="M127.677 174.986C120.381 167.996 110.41 174.986 103.358 180.53C100.947 180.564 98.616 181.385 96.7251 182.867C94.8341 184.349 93.4897 186.408 92.9007 188.725C92.9007 190.894 92.9006 196.679 90.9551 198.125C89.0095 199.571 86.8208 200.053 85.6048 200.535C82.4421 201.692 79.6711 203.707 77.6072 206.349C75.5434 208.991 74.2697 212.155 73.9316 215.479C73.9316 228.495 90.712 223.192 98.2509 221.505C102.894 219.726 107.877 218.985 112.843 219.336C115.616 220.233 118.595 220.3 121.406 219.529C124.218 218.757 126.738 217.181 128.65 214.997C133.009 209.174 135.281 202.075 135.104 194.826C134.928 187.577 132.314 180.594 127.677 174.986Z" fill="#B85F17"/>
</g>
<g style="mix-blend-mode:multiply" opacity="0.5">
<path d="M395.919 62.1839C394.499 61.7064 392.961 61.7064 391.541 62.1839L388.38 60.4967C383.784 57.7688 378.409 56.6209 373.088 57.2311C367.767 57.8412 362.799 60.1754 358.953 63.8711C353.496 71.9191 350.615 81.4112 350.685 91.1075C349.743 95.5162 350.594 100.115 353.053 103.906C355.512 107.696 359.38 110.373 363.817 111.354C373.545 113.282 382.543 103.641 389.353 98.0974C392.136 96.7699 395.077 95.798 398.108 95.2051C400.66 94.1843 402.972 92.6507 404.897 90.7011C406.822 88.7514 408.319 86.4279 409.294 83.8767C410.066 81.5797 410.322 79.1434 410.046 76.738C409.769 74.3326 408.966 72.0161 407.692 69.9503C406.418 67.8845 404.705 66.1192 402.671 64.7778C400.638 63.4364 398.333 62.5511 395.919 62.1839Z" fill="#B85F17"/>
</g>
<g style="mix-blend-mode:multiply" opacity="0.5">
<path d="M319.313 27.9576H316.394C313.984 27.9319 311.646 28.7723 309.813 30.3232C307.98 31.8741 306.776 34.0306 306.423 36.3936C305.73 37.5063 305.236 38.7295 304.964 40.0091C304.653 41.1663 304.67 42.3861 305.013 43.5343C305.357 44.6825 306.013 45.7146 306.91 46.5169C308.486 47.5843 310.351 48.1553 312.26 48.1553C314.169 48.1553 316.034 47.5843 317.61 46.5169C319.875 45.2777 321.767 43.464 323.092 41.2616C324.416 39.0592 325.127 36.5473 325.149 33.9834C325.151 32.4261 324.543 30.9289 323.455 29.8055C322.367 28.6822 320.883 28.0199 319.313 27.9576Z" fill="#B85F17"/>
</g>
<g style="mix-blend-mode:multiply" opacity="0.5">
<path d="M350.441 437.951C341.2 431.443 329.041 437.951 319.313 432.648C315.841 430.165 311.799 428.579 307.553 428.032C303.307 427.485 298.991 427.994 294.994 429.515C286.239 433.13 284.293 444.7 283.32 453.618C282.348 462.536 275.295 465.91 270.918 472.177H268.242C257.785 472.177 253.407 492.424 266.053 493.147C267.747 493.384 269.467 493.384 271.161 493.147C282.348 493.147 291.832 493.147 300.587 485.434C303.231 482.723 305.669 479.823 307.883 476.757C311.686 476.075 315.271 474.505 318.34 472.177H329.284C344.848 471.454 369.411 451.689 350.441 437.951Z" fill="#B85F17"/>
</g>
<g style="mix-blend-mode:multiply" opacity="0.5">
<path d="M435.074 380.585C432.155 375.524 425.832 376.97 421.941 380.585L419.266 382.754C417.543 379.874 415.591 377.133 413.429 374.559C412.607 373.636 411.597 372.897 410.465 372.39C409.333 371.884 408.105 371.622 406.863 371.622C405.621 371.622 404.393 371.884 403.261 372.39C402.129 372.897 401.118 373.636 400.297 374.559C387.408 382.995 387.165 398.662 380.355 411.678C378.127 414.644 376.617 418.077 375.943 421.713C375.268 425.349 375.446 429.091 376.464 432.648C377.668 435.833 379.885 438.544 382.78 440.371C385.676 442.197 389.093 443.039 392.515 442.771C395.949 442.6 399.314 441.744 402.406 440.252C405.498 438.761 408.255 436.667 410.511 434.094C415.135 427.347 421.411 421.874 428.75 418.186C443.828 410.232 441.153 391.432 435.074 380.585Z" fill="#B85F17"/>
</g>
<g style="mix-blend-mode:multiply" opacity="0.5">
<path d="M257.056 384.682C248.787 382.995 241.735 391.19 238.087 398.18L234.682 400.831C231.102 405.141 228.304 410.034 226.414 415.293C223.676 416.753 221.072 418.447 218.631 420.355C215.956 422.765 213.524 428.309 217.415 430.96C226.17 436.745 234.682 430.96 241.735 426.14C245.779 423.762 250.109 421.9 254.624 420.596C259.652 417.545 263.766 413.218 266.54 408.062C268.014 406.02 268.945 403.642 269.246 401.148C269.548 398.654 269.21 396.126 268.265 393.795C267.32 391.465 265.797 389.409 263.838 387.816C261.879 386.223 259.546 385.146 257.056 384.682Z" fill="#B85F17"/>
</g>
<g style="mix-blend-mode:multiply" opacity="0.5">
<path d="M217.415 478.202C217.651 477.435 217.58 476.607 217.218 475.89C216.856 475.172 216.231 474.62 215.47 474.346C214.952 474.05 214.365 473.894 213.768 473.894C213.17 473.894 212.583 474.05 212.065 474.346L208.417 475.792H205.985C204.696 476.026 203.485 476.57 202.457 477.375C201.429 478.181 200.615 479.223 200.087 480.412C199.56 481.601 199.334 482.9 199.429 484.195C199.525 485.491 199.938 486.743 200.635 487.843C201.135 488.369 201.739 488.787 202.408 489.073C203.077 489.359 203.798 489.507 204.526 489.507C205.255 489.507 205.976 489.359 206.645 489.073C207.314 488.787 207.917 488.369 208.417 487.843H210.363L215.227 484.951C216.146 484.107 216.83 483.043 217.213 481.861C217.596 480.679 217.666 479.419 217.415 478.202Z" fill="#B85F17"/>
</g>
<g style="mix-blend-mode:multiply" opacity="0.5">
<path d="M239.059 191.858C238.472 190.774 237.64 189.84 236.627 189.129C235.614 188.418 234.449 187.95 233.223 187.761C230.731 187.39 228.184 187.712 225.865 188.691C223.547 189.67 221.547 191.267 220.09 193.304C218.412 195.094 217.018 197.126 215.956 199.33C213.544 201.383 211.618 203.938 210.315 206.812C209.012 209.687 208.364 212.811 208.417 215.961C208.391 216.679 208.537 217.393 208.84 218.045C209.144 218.696 209.599 219.268 210.167 219.714C210.735 220.16 211.401 220.467 212.111 220.611C212.821 220.754 213.555 220.73 214.254 220.541C216.784 220.065 219.238 219.255 221.549 218.131C224.187 218.26 226.816 217.732 229.195 216.595C231.574 215.458 233.628 213.749 235.168 211.623C239.104 208.338 241.979 203.98 243.437 199.089C243.746 197.56 243.468 195.972 242.659 194.635C241.849 193.298 240.566 192.308 239.059 191.858Z" fill="#B85F17"/>
</g>
<g style="mix-blend-mode:multiply" opacity="0.5">
<path d="M101.168 249.223C102.266 246.267 102.266 243.02 101.168 240.064C100.518 239.09 99.5856 238.334 98.4933 237.895C98.1747 237.494 97.7685 237.17 97.3051 236.947C96.8417 236.724 96.3333 236.608 95.8182 236.608C95.3031 236.608 94.795 236.724 94.3316 236.947C93.8682 237.17 93.4617 237.494 93.143 237.895C90.0289 238.843 87.4162 240.967 85.8691 243.808C84.3219 246.649 83.9646 249.98 84.8746 253.08C84.8746 253.08 84.8746 254.526 84.8746 255.49C84.8956 256.193 85.0717 256.882 85.39 257.51C85.7083 258.139 86.1613 258.69 86.7174 259.127C87.2734 259.563 87.9189 259.873 88.6088 260.036C89.2987 260.199 90.0165 260.211 90.7113 260.07C92.5231 259.909 94.2717 259.332 95.8182 258.383C97.2968 257.302 98.535 255.931 99.4555 254.355C100.376 252.779 100.959 251.032 101.168 249.223Z" fill="#B85F17"/>
</g>
<g style="mix-blend-mode:multiply" opacity="0.5">
<path d="M121.84 186.315C121.686 185.718 121.343 185.186 120.862 184.796C120.38 184.406 119.786 184.178 119.165 184.146C116.235 183.572 113.195 183.969 110.514 185.275C107.834 186.582 105.661 188.726 104.331 191.377C103.623 192.909 103.132 194.532 102.871 196.197C100.071 197.626 97.5243 199.499 95.3325 201.741C91.6846 206.08 90.2254 214.516 97.5212 216.203C100.507 216.656 103.555 216.505 106.481 215.76C109.406 215.014 112.15 213.689 114.545 211.864C117.439 209.971 119.891 207.486 121.737 204.576C123.582 201.666 124.778 198.398 125.245 194.992C125.287 193.394 125.007 191.804 124.422 190.315C123.838 188.825 122.96 187.465 121.84 186.315Z" fill="#B85F17"/>
</g>
<g style="mix-blend-mode:multiply" opacity="0.5">
<path d="M258.758 87.9747C257.02 86.4332 254.768 85.5811 252.435 85.5811C250.102 85.5811 247.851 86.4332 246.112 87.9747C243.968 88.0364 241.871 88.6179 240.006 89.6683C238.14 90.7188 236.563 92.2062 235.412 94.0004C232.903 97.131 231.305 100.882 230.791 104.847C230.791 107.498 230.791 108.703 230.791 110.39C228.95 111.97 226.999 113.419 224.954 114.729C218.145 120.514 212.065 131.119 219.118 138.832C226.17 146.545 235.412 138.832 240.032 133.288C241.879 129.74 244.256 126.489 247.085 123.647C250.803 121.028 254.375 118.212 257.785 115.211C261.339 111.606 263.408 106.816 263.588 101.779C263.768 96.7424 262.046 91.8201 258.758 87.9747Z" fill="#B85F17"/>
</g>
<g style="mix-blend-mode:multiply" opacity="0.5">
<path d="M141.782 95.4459C141.418 94.1623 140.801 92.9626 139.968 91.9159C139.134 90.8691 138.1 89.9959 136.925 89.3463C135.75 88.6968 134.457 88.2838 133.121 88.131C131.784 87.9782 130.43 88.0887 129.137 88.456C128.682 88.0144 128.071 87.7671 127.434 87.7671C126.798 87.7671 126.187 88.0144 125.732 88.456C123.923 90.2214 122.294 92.159 120.868 94.2408C119.839 95.5134 118.942 96.8862 118.193 98.3383C116.117 102.276 113.312 105.792 109.924 108.703L102.385 112.077C93.3871 114.246 84.3889 115.693 79.5251 124.852C74.6612 134.011 73.6885 141.001 81.4706 144.616C89.2528 148.232 96.0624 142.206 101.413 136.18C106.763 130.154 116.247 134.252 120.625 133.288C126.055 131.664 130.824 128.373 134.243 123.888C137.847 120.18 140.432 115.619 141.752 110.64C143.072 105.661 143.082 100.43 141.782 95.4459Z" fill="#B85F17"/>
</g>
<g style="mix-blend-mode:multiply" opacity="0.5">
<path d="M380.842 73.9949C375.005 70.3794 368.439 76.8872 369.898 82.672C369.898 82.672 369.898 82.6719 369.898 84.1181C369.657 84.8215 369.657 85.584 369.898 86.2874C371.844 91.349 378.167 89.1797 380.599 86.2874C383.03 83.395 384.733 76.4052 380.842 73.9949Z" fill="#B85F17"/>
</g>
<g style="mix-blend-mode:multiply" opacity="0.5">
<path d="M348.497 130.396C348.413 130.04 348.257 129.706 348.037 129.413C347.817 129.121 347.538 128.877 347.219 128.696C346.899 128.515 346.546 128.401 346.18 128.362C345.814 128.322 345.443 128.358 345.092 128.467C340.958 128.467 335.608 133.047 337.553 137.867C339.499 142.688 348.254 140.037 348.983 134.734C349.296 134.033 349.416 133.262 349.331 132.5C349.245 131.738 348.958 131.012 348.497 130.396Z" fill="#B85F17"/>
</g>
<g style="mix-blend-mode:multiply" opacity="0.5">
<path d="M312.746 441.807C311.099 440.124 308.914 439.059 306.563 438.796C304.213 438.532 301.842 439.085 299.857 440.361C292.804 444.458 297.668 452.653 292.318 457.474C286.968 462.295 278.943 467.838 281.861 474.346C284.779 480.854 293.291 476.515 297.668 472.418C302.551 466.834 309.45 463.372 316.881 462.777C322.961 462.777 332.445 457.715 331.959 450.002C331.472 442.289 321.258 439.638 312.746 441.807Z" fill="#B85F17"/>
</g>
<g style="mix-blend-mode:multiply" opacity="0.5">
<path d="M421.941 399.627C421.746 397.97 421.2 396.373 420.337 394.941C419.475 393.509 418.317 392.274 416.938 391.318C415.56 390.362 413.993 389.706 412.34 389.393C410.687 389.08 408.986 389.118 407.349 389.503H405.404C404.534 389.226 403.599 389.226 402.729 389.503C397.622 389.503 393.974 394.565 392.758 398.662C392.268 401.615 392.268 404.628 392.758 407.58C392.758 410.473 391.055 411.437 389.11 413.606C387.214 415.454 385.835 417.759 385.111 420.295C384.386 422.83 384.339 425.509 384.975 428.068C385.26 428.852 385.712 429.566 386.3 430.161C386.888 430.756 387.599 431.218 388.384 431.516C389.169 431.813 390.01 431.939 390.849 431.885C391.688 431.831 392.505 431.598 393.244 431.201C396.6 429.789 399.592 427.647 401.999 424.935C404.431 422.283 405.647 418.668 408.079 416.257C410.511 413.847 423.157 408.786 421.941 399.627Z" fill="#B85F17"/>
</g>
<g style="mix-blend-mode:multiply" opacity="0.5">
<path d="M260.46 397.457C259.232 396.659 257.795 396.233 256.326 396.233C254.857 396.233 253.42 396.659 252.192 397.457C251.109 397.337 250.018 397.581 249.092 398.149C248.166 398.717 247.459 399.577 247.084 400.591C245.139 406.134 239.302 409.75 236.627 415.052C235.898 415.983 235.501 417.128 235.501 418.306C235.501 419.485 235.898 420.63 236.627 421.56C238.389 423.054 240.632 423.875 242.95 423.875C245.269 423.875 247.511 423.054 249.273 421.56C251.114 420.376 252.756 418.912 254.137 417.221C254.846 416.641 255.497 415.995 256.083 415.293C258.272 412.642 256.083 415.293 256.083 415.293C261.676 408.785 265.81 402.037 260.46 397.457Z" fill="#B85F17"/>
</g>
<path d="M308.613 388.539C307.626 387.616 306.322 387.099 304.965 387.093C303.529 385.715 301.613 384.939 299.615 384.923C294.813 385.438 290.356 387.642 287.054 391.136C283.752 394.63 281.823 399.182 281.619 403.965C281.28 405.065 281.28 406.239 281.619 407.339C281.935 408.725 282.701 409.97 283.799 410.884C284.897 411.798 286.266 412.331 287.698 412.401C298.156 417.462 319.07 396.734 308.613 388.539Z" fill="#B85F17"/>
<g style="mix-blend-mode:overlay">
<path d="M100.926 62.4248C100.926 62.4248 -62.4992 198.125 39.8851 378.656C39.8851 378.656 -38.9096 203.91 100.926 62.4248Z" fill="white"/>
</g>
<g style="mix-blend-mode:multiply" opacity="0.7">
<path d="M490.278 143.652C490.278 143.652 548.644 326.112 441.639 441.806C440.666 441.565 571.747 344.189 490.278 143.652Z" fill="#B6691F"/>
</g>
<path style="mix-blend-mode:multiply" d="M524.568 260.07C524.76 311.31 509.606 361.454 481.023 404.151C452.44 446.848 411.716 480.177 364.007 499.918C316.298 519.659 263.752 524.923 213.022 515.044C162.292 505.165 115.662 480.586 79.0365 444.422C42.4112 408.258 17.4384 362.134 7.28131 311.892C-2.87584 261.651 2.23964 209.552 21.9795 162.194C41.7194 114.837 75.1955 74.3501 118.169 45.8627C161.142 17.3752 211.679 2.16829 263.378 2.16793C297.614 2.10457 331.528 8.72517 363.182 21.6517C394.837 34.5782 423.612 53.5575 447.866 77.506C472.12 101.454 491.377 129.903 504.537 161.227C517.698 192.552 524.504 226.139 524.568 260.07Z" fill="url(#paint0_radial_120_159)"/>
<path d="M100.926 62.4248C100.926 62.4248 -62.4992 198.125 39.8851 378.656C39.8851 378.656 -38.9096 203.91 100.926 62.4248Z" fill="white"/>
<g style="mix-blend-mode:multiply">
<path d="M490.278 143.652C490.278 143.652 548.644 326.112 441.639 441.806C440.666 441.565 571.747 344.189 490.278 143.652Z" fill="#94703E"/>
</g>
<path style="mix-blend-mode:screen" d="M76.8498 382.513C85.6843 379.148 93.1353 372.961 98.0241 364.929C102.913 356.896 104.961 347.478 103.844 338.164C100.683 309.481 81.4706 283.932 83.9026 254.526C84.5698 245.62 87.7198 237.073 93.0015 229.838C98.2833 222.603 105.489 216.965 113.815 213.551C133.121 207.515 153.165 204.109 173.397 203.428C181.682 203.511 189.85 201.495 197.128 197.572C204.406 193.65 210.552 187.949 214.984 181.012C219.143 171.64 224.191 162.682 230.061 154.258C238.27 145.642 249.279 140.17 261.155 138.804C273.031 137.437 285.012 140.263 294.994 146.786C305.938 153.293 317.124 170.889 330.257 170.889C354.576 174.022 354.576 152.57 360.413 136.903C360.413 136.903 362.601 134.252 364.061 134.975C377.923 141.242 386.191 159.078 400.54 163.658C420.238 169.925 423.157 129.672 420.725 119.067C418.293 108.462 412.213 94.9641 407.835 82.1895C403.458 69.4149 396.649 55.1941 403.458 43.6246C353.817 11.0418 294.225 -3.26928 235.042 3.17926C175.859 9.6278 120.827 36.4282 79.5138 78.9212C38.2006 121.414 13.2184 176.913 8.91075 235.769C4.60305 294.624 21.2421 353.115 55.9351 401.073C60.442 392.606 67.8625 386.021 76.8498 382.513Z" fill="url(#paint1_radial_120_159)"/>
<defs>
<radialGradient id="paint0_radial_120_159" cx="0" cy="0" r="1" gradientUnits="userSpaceOnUse" gradientTransform="translate(117.22 140.146) scale(423.156 415.199)">
<stop stop-color="white"/>
<stop offset="0.38" stop-color="#FDFDFD"/>
<stop offset="0.51" stop-color="#F8F7F6"/>
<stop offset="0.61" stop-color="#EEECEB"/>
<stop offset="0.69" stop-color="#E0DCDA"/>
<stop offset="0.76" stop-color="#CEC7C4"/>
<stop offset="0.82" stop-color="#B7AEA8"/>
<stop offset="0.87" stop-color="#9C8F88"/>
<stop offset="0.92" stop-color="#7D6C62"/>
<stop offset="0.96" stop-color="#5B4639"/>
<stop offset="1" stop-color="#391F10"/>
</radialGradient>
<radialGradient id="paint1_radial_120_159" cx="0" cy="0" r="1" gradientUnits="userSpaceOnUse" gradientTransform="translate(357.251 347.745) scale(376.706 369.622)">
<stop stop-color="#2B2B2B"/>
<stop offset="0.24" stop-color="#2E2D2C"/>
<stop offset="0.38" stop-color="#363330"/>
<stop offset="0.5" stop-color="#443E38"/>
<stop offset="0.61" stop-color="#594E42"/>
<stop offset="0.71" stop-color="#73624F"/>
<stop offset="0.8" stop-color="#947B5F"/>
<stop offset="0.88" stop-color="#BB9873"/>
<stop offset="0.96" stop-color="#E6B988"/>
<stop offset="0.99" stop-color="#FAC892"/>
</radialGradient>
</defs>
</svg>
