<?xml version="1.0" encoding="utf-8"?>
<!-- Generator: Adobe Illustrator 24.2.3, SVG Export Plug-In . SVG Version: 6.00 Build 0)  -->
<svg version="1.1" id="Layer_1" xmlns="http://www.w3.org/2000/svg" xmlns:xlink="http://www.w3.org/1999/xlink" x="0px" y="0px"
	 viewBox="0 0 414 138.99" style="enable-background:new 0 0 414 138.99;" xml:space="preserve">
<style type="text/css">
	.st0{clip-path:url(#SVGID_2_);fill:#1A2F59;}
	.st1{clip-path:url(#SVGID_2_);fill:#192F59;}
	.st2{clip-path:url(#SVGID_2_);fill:#16B193;}
	.st3{clip-path:url(#SVGID_2_);fill:#1DB195;}
	.st4{clip-path:url(#SVGID_2_);fill:#1BB194;}
	.st5{clip-path:url(#SVGID_2_);fill:#1DB194;}
	.st6{clip-path:url(#SVGID_2_);fill:#1CB194;}
	.st7{clip-path:url(#SVGID_2_);fill:#20B195;}
	.st8{clip-path:url(#SVGID_2_);fill:#1EB194;}
	.st9{clip-path:url(#SVGID_2_);fill:#1FB195;}
	.st10{clip-path:url(#SVGID_2_);fill:#1CB094;}
	.st11{clip-path:url(#SVGID_2_);fill:#1AB094;}
	.st12{clip-path:url(#SVGID_2_);fill:#32B498;}
	.st13{clip-path:url(#SVGID_2_);fill:#1CB296;}
	.st14{clip-path:url(#SVGID_2_);fill:#1AB194;}
</style>
<g>
	<defs>
		<rect id="SVGID_1_" width="414" height="138.99"/>
	</defs>
	<clipPath id="SVGID_2_">
		<use xlink:href="#SVGID_1_"  style="overflow:visible;"/>
	</clipPath>
	<path class="st0" d="M178.71,109.88c1.51-0.24,2.46-0.98,2.95-2.56c4.48-14.61,9.02-29.2,13.55-43.79c0.93-3.01,1.92-6,2.88-9
		c0.3,8.23,0.29,16.37,0.3,24.5c0,9.18,0.06,18.37-0.05,27.56c-0.03,2.17,0.82,3.1,2.82,3.29c1.96,0.19,3.9,0.21,5.86-0.07
		c1.87-0.26,2.52-1.15,2.51-3.1c-0.08-14.23-0.04-28.47-0.04-42.7c0-5.19,0.02-10.38-0.01-15.57c-0.02-3.57-1.59-5.14-5.1-5.17
		c-2.38-0.02-4.77-0.02-7.15,0c-4.3,0.03-6.19,1.38-7.58,5.52c-1.56,4.63-3.04,9.29-4.57,13.93c-3,9.13-6,18.26-8.99,27.37
		c-0.56-0.2-0.63-0.61-0.75-1.02c-1.93-6.13-3.87-12.25-5.8-18.37c-2.27-7.19-4.48-14.39-6.8-21.55c-1.37-4.24-3.41-5.71-7.87-5.86
		c-2.59-0.08-5.19-0.04-7.78-0.02c-3.37,0.03-4.97,1.49-4.97,4.82c-0.03,19.77-0.01,39.55-0.04,59.32c0,1.42,0.64,2,1.91,2.28
		c2.09,0.46,4.18,0.38,6.27,0.19c2.03-0.18,2.97-1.03,2.96-3.36c-0.11-17.17-0.06-34.34-0.06-51.62c0.82,0.54,0.78,1.22,0.96,1.81
		c4.68,15.57,9.34,31.15,14.04,46.72c2.04,6.78,2.22,6.87,9.32,6.55C177.88,109.97,178.3,109.95,178.71,109.88"/>
	<path class="st1" d="M136.25,12.01c-7.78,6.07-15.94,11.57-24.35,16.7c-5.08,3.11-10.19,6.15-15.6,8.68l0,0
		c-6.05,3.39-12.42,6.03-18.93,8.36c-12.45,4.45-25.16,7.19-38.46,5.35c-8.58-1.19-16.35-4.22-22.37-10.82
		c-1.88-2.06-2.82-4.42-2.78-7.24c0.07-4.33,1.96-7.97,4.25-11.43c4.85-7.32,11.18-13.25,17.9-18.8c0.64-0.53,1.84-1.03,1.06-2.11
		c-0.81-1.11-1.65-0.1-2.31,0.39c-7.9,5.85-15.39,12.16-21.97,19.49C8.21,25.54,4.3,30.88,1.77,37.13
		c-4.01,9.91-1.25,16.79,8.51,21.17c5.56,2.49,11.48,3.53,17.47,4.13c15.23,1.54,29.96-0.96,44.4-5.72
		c7.31-2.41,14.26-5.65,21.18-8.97c6.05-3.37,11.98-6.95,17.73-10.81c2.73-2.06,5.51-4.07,8.19-6.19
		c6.66-5.24,13.07-10.76,18.7-17.12c0.54-0.6,1.38-1.41,0.65-2.17C137.77,10.58,136.94,11.46,136.25,12.01"/>
	<path class="st0" d="M271.2,105.33c-0.04-0.13-0.14-0.25-0.18-0.38c-5.55-18.3-11.04-36.62-16.67-54.89
		c-2.27-7.34-0.58-6.88-9.32-6.95c-1.47,0-2.95,0.02-4.42-0.01c-2.12-0.05-3.24,0.89-3.87,3c-3.73,12.58-7.6,25.12-11.39,37.68
		c-2.3,7.61-4.58,15.23-6.79,22.88c-0.64,2.21,0.08,3.16,2.4,3.29c1.89,0.11,3.78,0.05,5.67-0.01c1.8-0.06,2.93-0.89,3.41-2.78
		c0.95-3.78,2.13-7.52,3.12-11.29c0.28-1.08,0.76-1.4,1.86-1.39c6.24,0.06,12.48,0.07,18.72,0c1.25-0.02,1.7,0.47,2,1.54
		c1.06,3.77,2.27,7.49,3.23,11.28c0.47,1.82,1.5,2.6,3.23,2.65c1.82,0.05,3.64,0.08,5.47,0.05
		C271.69,109.94,272.3,109.12,271.2,105.33 M250.93,84.26c-4.41-0.07-8.82-0.04-13.23-0.01c-1.03,0.01-1.58-0.09-1.2-1.39
		c2.57-8.68,5.09-17.39,7.62-26.08c0.15-0.01,0.3-0.03,0.46-0.04c1.35,4.65,2.71,9.31,4.05,13.96c1.15,3.95,2.23,7.92,3.47,11.84
		C252.51,83.85,252.39,84.28,250.93,84.26"/>
	<path class="st0" d="M413.75,92.42c0.77-7.95-1.68-14.47-8.53-19.02c-2.63-1.74-5.45-3.13-8.25-4.55
		c-2.37-1.21-4.74-2.44-6.43-4.61c-1.86-2.38-2-5.03-0.88-7.72c1.05-2.53,3.21-3.58,5.82-3.82c1.75-0.16,3.47-0.01,5.18,0.48
		c2.52,0.73,4.77,1.96,6.95,3.36c1.4,0.89,2.27,0.77,2.67-1.07c0.27-1.26,0.2-2.51,0.28-3.76c-0.09-2.49,0.34-5.15-2.47-6.64
		c-6.77-3.58-13.77-4.06-20.83-1.14c-10.24,4.24-12.06,16.87-8.82,25.32c2.16,5.63,6.78,8.72,11.83,11.34
		c2.79,1.45,5.7,2.69,8.16,4.69c2.99,2.43,3.95,5.69,2.79,9.2c-1.06,3.21-4,5.19-7.72,5.44c-5.32,0.35-9.83-1.64-14.05-4.59
		c-1.97-1.37-2.87-1-3.21,1.37c-0.32,2.22-0.26,4.47-0.02,6.71c0.16,1.49,0.93,2.57,2.15,3.43c2.57,1.8,5.45,2.83,8.47,3.46
		C398.52,112.74,412.25,107.86,413.75,92.42"/>
	<path class="st0" d="M319.41,96.38c-0.45-2.86-1.01-3.08-3.45-1.31c-1.93,1.4-3.93,2.72-6.23,3.39
		c-7.38,2.16-14.25,0.33-17.75-7.25c-1.51-3.27-2.15-6.78-2.39-10.36c-0.45-6.7-0.18-13.32,2.84-19.49c3.23-6.6,9.3-9.26,16.24-7.17
		c2.71,0.82,5.03,2.39,7.22,4.17c1.92,1.56,3.01,1.14,3.29-1.33c0.18-1.52,0.01-3.09,0.14-4.62c0.3-3.55-1.42-5.72-4.41-7.37
		c-9.45-5.18-24.8-3.82-32.4,8.61c-4.45,7.29-5.82,15.33-5.76,24.62c-0.09,3.39,0.38,7.61,1.24,11.82
		c3.34,16.31,17.96,24.63,33.71,19.13C318.83,106.72,320.57,103.83,319.41,96.38"/>
	<path class="st0" d="M327.7,88.82c1.17,5.55,3.04,10.83,7.13,14.92c7.47,7.47,16.54,8.6,26.21,5.67c7.82-2.37,9.02-4.57,8.34-12.79
		c-0.02-0.21-0.03-0.42-0.05-0.63c-0.27-2.18-1.12-2.61-2.88-1.33c-1.53,1.11-3.05,2.22-4.77,3c-7.5,3.39-16.86,2.05-20.42-8.16
		c-0.88-2.52-1.43-5.12-1.62-7.78c-0.5-7.11-0.41-14.16,2.93-20.71c3.34-6.56,9.98-9.12,16.84-6.56c2.32,0.86,4.35,2.2,6.27,3.75
		c2.18,1.76,3.14,1.41,3.5-1.37c0.2-1.52,0.06-3.08,0.15-4.62c0.18-3.23-1.28-5.39-4.05-6.97c-9.85-5.61-25.98-4.14-33.53,9.63
		c-3.84,7-5.1,14.58-5.01,21.23C326.75,81.19,326.9,85.03,327.7,88.82"/>
	<path class="st2" d="M93.32,47.72c-0.13,0.61-0.19,1.24-0.38,1.83C89.53,59.99,85.13,69.99,78.87,79
		c-11.53,16.61-24.58,31.98-39.11,46.06c-4.43,4.29-9.12,8.28-14.44,11.48c-0.82,0.49-2.76,0.68-1.92,2.08
		c0.61,1.02,1.82-0.37,2.6-0.85c19.18-11.93,36.47-26.2,52.57-42.02C91.04,83.51,100.27,69.27,106.45,53
		c1.98-5.22,3.89-10.49,4.6-16.08C105.3,40.78,99.37,44.35,93.32,47.72"/>
	<path class="st2" d="M110.99,16.99c-1.42-7.6-4.94-13.55-12.84-15.86C91.54-0.8,84.95-0.09,78.52,2.01
		C67.79,5.51,57.58,10.24,47.7,15.7c-5.21,2.88-10.28,5.99-15.16,9.4c-0.53,0.37-1.42,0.79-0.84,1.62c0.6,0.85,1.22,0.11,1.78-0.26
		c1.4-0.93,2.77-1.91,4.19-2.8C48.17,17.08,59.1,11.55,71.54,9.64c10.17-1.56,19.36,3.54,23.02,12.83
		c1.89,4.82,1.91,9.85,1.74,14.91c0,0,0,0,0,0c5.41-2.52,10.52-5.56,15.6-8.68C111.83,24.79,111.72,20.87,110.99,16.99"/>
	<path class="st3" d="M170.16,118.85c-1.32,0.06-1.56,1.01-1.9,1.91c-1.49,3.97-2.96,7.96-4.61,12.43c-0.38-0.9-0.56-1.27-0.7-1.66
		c-1.35-3.75-2.72-7.5-4.01-11.27c-0.53-1.54-1.7-1.4-2.9-1.39c-0.77,0.01-1.2,0.35-1.2,1.13c-0.01,5.33-0.01,10.65-0.01,15.98
		c0,0.69,0.33,0.99,1.03,1.02c0.85,0.03,1.1-0.39,1.08-1.15c-0.02-0.91,0-1.82,0-2.73c0-3.64,0-7.28,0-10.91
		c1.95,4.29,3.44,8.64,4.98,12.97c0.28,0.78,0.26,1.88,1.61,1.83c1.29-0.05,1.3-1.11,1.6-1.91c1.63-4.43,3.22-8.88,4.83-13.32
		c0.36,4.58,0.36,9.09,0.37,13.6c0,0.73-0.22,1.63,1.03,1.62c1.22-0.01,1.05-0.87,1.05-1.62c0.01-4.84-0.07-9.67,0.04-14.51
		C172.48,119.04,171.67,118.78,170.16,118.85"/>
	<path class="st4" d="M227.36,118.85c-0.74-0.1-1.36-0.01-1.52,0.97c-0.19,1.17-0.54,2.31-0.82,3.47c-0.8,3.36-1.6,6.72-2.39,10.08
		c-1.45-4.24-2.46-8.43-3.51-12.61c-0.22-0.88-0.14-2.01-1.64-1.97c-1.54,0.04-1.3,1.24-1.5,2.1c-0.99,4.16-1.93,8.33-2.9,12.56
		c-0.63-0.4-0.57-0.93-0.68-1.4c-0.95-4.01-1.96-8.01-2.85-12.04c-0.25-1.15-0.89-1.32-1.8-1.18c-1.23,0.18-0.61,1-0.46,1.6
		c1.18,4.75,2.36,9.5,3.6,14.22c0.27,1.04,0.15,2.4,2.01,2.39c1.93-0.02,1.64-1.52,1.89-2.49c0.91-3.57,1.65-7.19,2.45-10.79
		c0.15-0.01,0.3-0.02,0.45-0.03c0.96,3.92,1.93,7.83,2.88,11.75c0.21,0.88,0.48,1.55,1.61,1.53c0.96-0.02,1.62-0.24,1.87-1.25
		c1.29-5.15,2.61-10.3,3.88-15.45C228.06,119.79,228.38,118.99,227.36,118.85"/>
	<path class="st5" d="M277.51,118.84c-0.8,0-1.14,0.34-1.13,1.14c0.01,2.52,0,5.04,0,7.57c0,1.61,0,3.22,0,4.82
		c-0.67-0.55-0.95-1.1-1.22-1.66c-1.72-3.51-3.49-7-5.15-10.55c-0.61-1.32-1.61-1.41-2.77-1.26c-1.26,0.16-0.96,1.19-0.96,1.97
		c-0.02,4.76-0.02,9.53,0,14.29c0,0.77-0.33,1.82,1.05,1.82c1.42,0,1.01-1.08,1.02-1.82c0.03-4.17,0.02-8.35,0.02-12.52
		c0.12-0.01,0.25-0.01,0.37-0.02c0.68,1.38,1.37,2.75,2.05,4.13c1.49,3.01,2.96,6.02,4.46,9.02c0.45,0.91,1.17,1.34,2.22,1.19
		c0.81-0.11,1.02-0.63,1.02-1.33c0-5.25,0-10.51,0.01-15.76C278.49,119.2,278.24,118.84,277.51,118.84"/>
	<path class="st6" d="M324.34,118.51c-3.44-0.24-6.26,1.76-7.24,5.13c-0.79,2.75-0.79,5.53-0.14,8.3c0.78,3.33,2.83,5.05,6.16,5.3
		c3.21,0.24,5.84-1.46,7.02-4.55c0.61-1.58,0.79-3.25,0.86-5.4c-0.08-0.65-0.18-1.77-0.35-2.87
		C330.07,120.85,327.82,118.76,324.34,118.51 M327.92,132.15c-0.82,1.93-2.28,2.91-4.43,2.85c-2.07-0.06-3.44-1.05-4.06-3
		c-0.85-2.66-0.88-5.37-0.01-8.03c0.74-2.26,2.42-3.39,4.54-3.3c2.23,0.09,3.46,1.2,4.24,3.64c0.37,1.17,0.32,2.34,0.38,3.52
		C328.64,129.31,328.5,130.77,327.92,132.15"/>
	<path class="st6" d="M198.38,118.54c-3.44-0.44-6.39,1.49-7.54,4.98c-0.48,1.47-0.66,2.99-0.7,5.01c0.12,0.85,0.2,2.19,0.49,3.48
		c0.69,3.1,2.88,4.95,6.02,5.23c3.08,0.27,5.67-1.22,6.94-4.03c1.2-2.65,1.12-5.43,0.82-8.23
		C204,121.23,201.92,118.99,198.38,118.54 M201.66,131.95c-0.85,2.19-2.2,3.07-4.49,3.04c-2.19-0.04-3.52-1.16-4.11-3.2
		c-0.72-2.54-0.8-5.1,0-7.63c0.75-2.4,2.39-3.59,4.6-3.5c2.17,0.1,3.5,1.27,4.26,3.67c0.37,1.16,0.39,2.33,0.39,3.7
		C202.41,129.27,202.17,130.64,201.66,131.95"/>
	<path class="st6" d="M293.75,121.52c0.52,0.27,1.14,1.3,1.72,0.31c0.47-0.8,0.03-1.62-0.81-2.12c-1.62-0.95-3.35-1.42-5.23-1.1
		c-3.6,0.62-6.14,2.93-6.7,6.6c-0.6,3.96-0.61,7.98,3.17,10.65c2.64,1.86,5.55,1.72,8.4,0.44c2.23-1,0.93-3.09,1.28-4.67
		c-0.07-5.25,0.81-4.65-4.7-4.68c-0.76,0-1.63-0.13-1.61,1.08c0.02,1.26,0.97,0.87,1.67,0.99c0.77,0.13,2-0.48,2.21,0.54
		c0.31,1.54,0.71,3.39-0.22,4.69c-0.77,1.07-2.45,0.85-3.77,0.59c-2.07-0.4-3.28-1.82-3.9-3.73c-0.62-1.9-0.7-3.82-0.17-5.8
		C286.24,121.09,289.85,119.5,293.75,121.52"/>
	<path class="st4" d="M347.04,131.53c0-1.08-0.02-2.13,0-3.18c0.02-0.84-0.31-1.36-1.2-1.37c-1.4-0.01-2.8-0.01-4.2,0
		c-0.71,0.01-0.94,0.45-0.93,1.12c0,0.63,0.32,0.89,0.9,0.9c0.49,0.01,0.99,0.07,1.47,0.01c1.32-0.16,1.99,0.25,1.82,1.71
		c-0.1,0.83-0.06,1.68-0.01,2.52c0.05,0.88-0.42,1.24-1.16,1.49c-2.61,0.89-5.37-0.21-6.58-2.7c-0.98-2.02-1.19-4.13-0.69-6.34
		c1.03-4.51,4.64-6.21,8.79-4.15c0.5,0.25,1.14,1.31,1.7,0.31c0.42-0.75,0.12-1.63-0.77-2.14c-1.63-0.92-3.37-1.4-5.23-1.1
		c-3.7,0.59-5.92,2.86-6.77,6.78c-0.93,4.28,0.44,8.81,3.33,10.61c2.73,1.7,5.63,1.6,8.43,0.23
		C348.06,135.18,346.65,133.08,347.04,131.53"/>
	<path class="st6" d="M252.41,128.84c-0.5-0.63-0.29-0.85,0.2-1.3c1.87-1.72,2.48-3.99,1.61-5.99c-0.94-2.16-2.79-2.77-4.98-2.68
		c-0.77,0.03-1.54,0.07-2.3-0.01c-1.6-0.18-2.29,0.33-2.18,2.08c0.15,2.3,0.04,4.61,0.04,6.92c0,2.66,0.01,5.31,0,7.97
		c-0.01,0.75,0.22,1.18,1.06,1.18c0.83,0.01,1.1-0.39,1.1-1.15c-0.01-1.61-0.05-3.22,0.02-4.82c0.03-0.69-0.5-1.71,0.53-2
		c1-0.27,2.09-0.21,2.9,0.71c0.57,0.64,0.92,1.39,1.19,2.19c0.48,1.38,1.05,2.74,1.49,4.13c0.32,1.01,1.04,1.08,1.81,0.86
		c0.94-0.27,0.51-1.09,0.31-1.57C254.33,133.15,253.92,130.74,252.41,128.84 M248.66,126.9c-2.83,0.17-1.28-1.96-1.79-3.02
		c0.43-1.14-0.94-3.2,1.85-3.01c2.39,0.16,3.55,0.95,3.57,2.89C252.33,125.72,250.98,126.77,248.66,126.9"/>
	<path class="st7" d="M149.61,134.84c-1.4,0.02-2.8-0.04-4.2,0.02c-1.03,0.04-1.27-0.39-1.33-1.35c-0.3-4.77-0.33-4.77,4.19-5.01
		c0.28-0.01,0.56,0,0.84-0.05c0.65-0.11,0.66-0.62,0.65-1.13c-0.01-0.48-0.21-0.81-0.72-0.84c-0.42-0.03-0.84-0.03-1.26-0.03
		c-3.78-0.04-3.78-0.04-3.67-3.82c0-0.07,0.01-0.14,0-0.21c-0.17-1.24,0.45-1.58,1.59-1.51c1.26,0.07,2.52,0,3.78,0.01
		c0.76,0.01,1.18-0.24,1.18-1.08c0-0.91-0.55-0.99-1.25-0.98c-1.05,0.01-2.1,0-3.15,0c-0.98,0-1.96,0.03-2.94-0.01
		c-1.05-0.04-1.54,0.37-1.54,1.46c0.02,5.04,0.01,10.09,0.01,15.13c0,1.04,0.45,1.53,1.53,1.52c2.1-0.03,4.2-0.03,6.3,0
		c0.76,0.01,1.22-0.26,1.23-1.06C150.84,135.11,150.37,134.83,149.61,134.84"/>
	<path class="st8" d="M181.35,118.87c-0.77,0-1.55,0.06-2.31-0.01c-1.3-0.12-1.74,0.45-1.71,1.7c0.06,2.38,0.02,4.77,0.02,7.15
		c0,2.67,0,5.33,0,8c0,0.65,0.02,1.27,0.95,1.3c0.9,0.02,1.27-0.36,1.25-1.25c-0.03-1.12,0.08-2.25-0.03-3.36
		c-0.15-1.58,0.15-2.33,2.07-2.35c3.82-0.06,5.72-2.4,5.57-6.34C187.04,120.46,185.14,118.89,181.35,118.87 M184.33,126.49
		c-0.91,1.54-2.43,1.67-4.02,1.58c-0.68-0.04-0.76-0.48-0.76-1c0-0.9,0-1.81,0-2.71h-0.01c0-0.35-0.07-0.71,0.01-1.04
		c0.19-0.79-0.61-2.06,0.62-2.31c1.31-0.27,2.84-0.44,3.88,0.83C185.24,123.29,185.27,124.91,184.33,126.49"/>
	<path class="st9" d="M239.06,134.85c-0.98,0-1.98-0.11-2.94,0.02c-1.83,0.25-2.4-0.36-2.32-2.26c0.15-4.01,0.04-4.01,4.02-4.12
		c0.78-0.02,1.87,0.29,1.84-1.05c-0.03-1.35-1.13-0.97-1.89-0.98c-4.04-0.08-3.97-0.07-3.95-3.97c0.01-1.38,0.52-1.66,1.72-1.58
		c1.26,0.08,2.52,0.01,3.78,0.02c0.73,0,1.22-0.23,1.24-1.06c0.02-0.89-0.54-1.01-1.24-1c-2.03,0.01-4.06,0.05-6.09-0.01
		c-1.2-0.04-1.6,0.43-1.58,1.6c0.06,2.45,0.02,4.9,0.02,7.35c0,2.52,0.03,5.04-0.01,7.56c-0.02,1.16,0.42,1.65,1.61,1.61
		c1.96-0.06,3.92-0.01,5.88-0.02c0.71,0,1.44,0.08,1.47-0.99C240.66,134.78,239.85,134.85,239.06,134.85"/>
	<path class="st5" d="M411.27,127.34c-0.83-0.51-1.74-0.91-2.58-1.4c-1.53-0.9-2.5-2.12-1.75-3.99c0.55-1.37,2.32-1.66,4.26-0.9
		c0.55,0.21,1.23,1.49,1.78,0.16c0.41-0.98-0.21-1.7-1.18-2.13c-2.64-1.19-5.61-0.41-6.83,1.83c-1.26,2.31-0.48,5.2,1.89,6.78
		c1.05,0.69,2.21,1.2,3.25,1.91c1.26,0.85,1.96,2,1.36,3.6c-0.61,1.6-1.92,1.85-3.41,1.83c-1.38-0.02-2.43-0.95-3.69-1.37
		c-0.44,1.01-0.44,1.84,0.42,2.53c2.24,1.8,6.48,1.26,8.19-1.03C414.85,132.63,414.09,129.08,411.27,127.34"/>
	<path class="st5" d="M364.78,127.41c-0.88-0.56-1.87-0.96-2.77-1.5c-1.84-1.11-2.46-2.59-1.73-3.97c0.71-1.35,2.36-1.65,4.27-0.88
		c0.54,0.22,1.2,1.31,1.7,0.33c0.48-0.93,0.03-1.84-1.1-2.33c-2.66-1.13-5.62-0.37-6.83,1.85c-1.27,2.34-0.38,5.31,2.1,6.91
		c1.06,0.68,2.21,1.21,3.24,1.92c1.19,0.82,1.8,1.95,1.2,3.44c-0.62,1.52-1.87,2.05-3.38,1.87c-0.82-0.09-1.59-0.51-2.39-0.73
		c-0.51-0.14-0.99-1.2-1.52-0.3c-0.39,0.66-0.24,1.54,0.49,2.07c1.05,0.77,2.28,1.03,3.54,1.16c2.44,0.12,4.77-1.36,5.47-3.46
		C367.91,131.26,367.08,128.85,364.78,127.41"/>
	<path class="st6" d="M400.34,121.85c0.34,0.22,0.73,0.64,1.12,0.35c0.43-0.32,0.3-0.91,0.22-1.37c-0.18-0.95-0.99-1.3-1.76-1.64
		c-3.77-1.66-7.66,0.09-9.09,4.14c-1.05,2.99-1.14,6.01-0.14,9.05c1.37,4.17,5.45,5.94,9.41,4.05c1.28-0.61,2.07-1.43,1.39-3.19
		c-0.63,0.39-1.09,0.69-1.57,0.95c-3.14,1.71-6.06,0.49-7.06-2.94c-0.55-1.92-0.5-3.87-0.18-5.82
		C393.35,121.35,396.58,119.43,400.34,121.85"/>
	<path class="st10" d="M380.1,118.89c-3.43-0.01-6.86-0.01-10.3,0c-0.6,0-0.88,0.3-0.89,0.91c-0.01,0.64,0.15,1.12,0.9,1.13
		c0.84,0.01,1.69,0.07,2.52,0c1.18-0.1,1.62,0.32,1.57,1.54c-0.08,2.17-0.02,4.34-0.02,6.51c0,1.89-0.08,3.79,0.04,5.67
		c0.06,0.84-0.78,2.37,1.11,2.32c1.68-0.04,0.99-1.42,1.01-2.23c0.08-3.29,0.03-6.58,0.03-9.88c0-3.64,0-3.64,3.54-3.92
		c0.14-0.01,0.28-0.01,0.42-0.01c0.7-0.03,0.98-0.44,0.96-1.1C380.97,119.25,380.7,118.89,380.1,118.89"/>
	<path class="st11" d="M313.36,134.81c-0.91-0.02-1.83-0.09-2.73,0.01c-1.49,0.17-1.91-0.42-1.87-1.88
		c0.09-3.85,0.09-7.7-0.02-11.55c-0.03-0.88,0.9-2.55-1.09-2.52c-1.82,0.02-0.94,1.58-0.99,2.42c-0.13,2.16-0.04,4.34-0.04,6.51
		c0,2.52,0.03,5.04-0.01,7.56c-0.02,1.15,0.41,1.66,1.6,1.62c1.75-0.06,3.5-0.02,5.25-0.01c0.81,0,1.6-0.01,1.57-1.15
		C315,134.6,314.09,134.83,313.36,134.81"/>
	<path class="st12" d="M260.51,118.8c-1.07-0.05-1.3,0.56-1.3,1.45c0.01,5.1,0.01,10.2,0,15.3c0,0.87,0.19,1.51,1.28,1.46
		c1-0.05,1.06-0.71,1.06-1.46c0-2.51,0-5.03,0-7.55c0-2.59,0-5.17,0-7.76C261.56,119.5,261.52,118.85,260.51,118.8"/>
	<path class="st13" d="M352.79,118.81c-0.97-0.02-1.17,0.46-1.17,1.3c0.02,5.18,0.01,10.35,0,15.53c0,0.77,0.08,1.38,1.1,1.37
		c1.05-0.01,1.04-0.68,1.04-1.41c-0.01-2.59,0-5.18,0-7.76c0-2.59-0.01-5.17,0-7.76C353.76,119.38,353.71,118.84,352.79,118.81"/>
	<path class="st14" d="M386.18,120.36c0-0.79,0.07-1.57-1.13-1.55c-1.05,0.02-1.04,0.68-1.04,1.41c0,5.11,0,10.22,0,15.33
		c0,0.71-0.06,1.41,1.01,1.44c1.18,0.04,1.16-0.71,1.16-1.52c-0.01-2.45,0-4.9,0-7.35C386.18,125.54,386.18,122.95,386.18,120.36"/>
</g>
</svg>
