<svg xmlns="http://www.w3.org/2000/svg" xmlns:xlink="http://www.w3.org/1999/xlink" viewBox="0 0 153.07 132.29"><defs><style>.cls-1{fill:url(#linear-gradient);}.cls-2{fill:url(#linear-gradient-2);}.cls-3{fill:#141130;}</style><linearGradient id="linear-gradient" x1="-4659.21" y1="1546.41" x2="-4658.25" y2="1546.41" gradientTransform="matrix(-88.4, 32.43, 32.43, 88.4, -461938.6, 14405.69)" gradientUnits="userSpaceOnUse"><stop offset="0" stop-color="#01beff"/><stop offset="1" stop-color="#96cc38"/><stop offset="1" stop-color="#96cc38"/></linearGradient><linearGradient id="linear-gradient-2" x1="-4574.92" y1="1624.48" x2="-4573.96" y2="1624.48" gradientTransform="matrix(86.63, -62.19, -62.19, -86.63, 497415.75, -143731.55)" gradientUnits="userSpaceOnUse"><stop offset="0" stop-color="#e81830"/><stop offset="0.04" stop-color="#e81830"/><stop offset="1" stop-color="#f7931e"/><stop offset="1" stop-color="#f7931e"/></linearGradient></defs><title>Novity_Full_Positif</title><g id="Layer_2" data-name="Layer 2"><g id="Layer_1-2" data-name="Layer 1"><path class="cls-1" d="M76.77,76.77H32l.21-32.19L0,44.79V0H76.77Zm-32-12.72H64.05V12.72H12.72V32L45,31.77Z"/><path class="cls-2" d="M120.79,44.54,121,12.73h19.34V64.05H89.7V44.54h31.09M153.07,0H108.36l-.21,31.81H76.8l0,45h76.3V0"/><path class="cls-3" d="M.69,110.36H5.22a.68.68,0,0,1,.54.27l7.41,9.52a.69.69,0,0,0,1.23-.42v-8.68a.69.69,0,0,1,.69-.69h4.52a.68.68,0,0,1,.68.69v20.12a.68.68,0,0,1-.68.69h-4.2a.68.68,0,0,1-.54-.27l-7.75-10a.69.69,0,0,0-1.23.42v9.11a.68.68,0,0,1-.68.69H.69a.69.69,0,0,1-.69-.69V111.05A.69.69,0,0,1,.69,110.36Z"/><path class="cls-3" d="M29.5,121.17v-.06a11.27,11.27,0,0,1,11.61-11.18,11.16,11.16,0,0,1,11.54,11.12v.06a11.26,11.26,0,0,1-11.6,11.18C34.41,132.29,29.5,127.34,29.5,121.17Zm17.07,0v-.06a5.58,5.58,0,0,0-5.52-5.8,5.48,5.48,0,0,0-5.44,5.74v.06a5.58,5.58,0,0,0,5.5,5.8A5.48,5.48,0,0,0,46.57,121.17Z"/><path class="cls-3" d="M59.81,110.36H65a.68.68,0,0,1,.64.46l4.08,11.35a.69.69,0,0,0,1.29,0l4.07-11.35a.7.7,0,0,1,.65-.46h5a.69.69,0,0,1,.63,1l-8.16,20.27a.7.7,0,0,1-.64.43H68a.67.67,0,0,1-.63-.43l-8.17-20.27A.69.69,0,0,1,59.81,110.36Z"/><path class="cls-3" d="M90.79,110.36H95.4a.69.69,0,0,1,.69.69v20.12a.69.69,0,0,1-.69.69H90.79a.69.69,0,0,1-.69-.69V111.05A.69.69,0,0,1,90.79,110.36Z"/><path class="cls-3" d="M110.72,115.58h-5.07a.68.68,0,0,1-.69-.68v-3.85a.69.69,0,0,1,.69-.69h17.48a.68.68,0,0,1,.68.69v3.85a.67.67,0,0,1-.68.68h-5.08a.69.69,0,0,0-.69.69v14.9a.68.68,0,0,1-.68.69h-4.59a.69.69,0,0,1-.68-.69v-14.9A.69.69,0,0,0,110.72,115.58Z"/><path class="cls-3" d="M138.66,123.65l-7.43-12.24a.69.69,0,0,1,.58-1H137a.7.7,0,0,1,.6.35l3.63,6.43a.69.69,0,0,0,1.19,0l3.66-6.43a.69.69,0,0,1,.59-.35h5a.69.69,0,0,1,.59,1l-7.43,12.15a.62.62,0,0,0-.1.35v7.26a.69.69,0,0,1-.69.69h-4.61a.69.69,0,0,1-.69-.69V124A.64.64,0,0,0,138.66,123.65Z"/></g></g></svg>