<svg xmlns="http://www.w3.org/2000/svg" width="541.28" height="205.04" viewBox="0 0 541.28 205.04">
  <g id="SD_logo_baseline_CMYK" transform="translate(-150.29 -149.34)">
    <path id="Path_1" data-name="Path 1" d="M289.35,284.91a35.29,35.29,0,0,0,16.59,4.83c9,0,13.2-4.4,13.2-10.22s-3.54-9.24-12.61-12.63c-12.51-4.56-18.32-11.24-18.32-19.45,0-11.09,9.07-20.17,23.71-20.17,6.95,0,13.06,1.83,16.75,4.26l-3,8.95a28.18,28.18,0,0,0-14.06-4c-7.38,0-11.36,4.26-11.36,9.38,0,5.82,4,8.37,12.93,11.72,11.78,4.41,18,10.36,18,20.75,0,12.2-9.52,20.73-25.56,20.73a39.38,39.38,0,0,1-19.32-4.83Z" fill="#565d71"/>
    <path id="Path_2" data-name="Path 2" d="M401,196.74v83.09c0,6.11.14,13.06.57,17.75H390.36l-.57-11.92h-.28c-3.84,7.66-12.08,13.49-23.29,13.49-16.62,0-29.53-14.07-29.53-34.93-.14-23,14.2-36.92,30.8-36.92,10.65,0,17.76,5,20.74,10.37h.28V196.74ZM388.5,256.8a23.29,23.29,0,0,0-.57-5.39,18.39,18.39,0,0,0-18-14.35c-12.92,0-20.58,11.36-20.58,26.41,0,14.06,6.95,25.56,20.3,25.56,8.38,0,16-5.66,18.31-14.91a21.411,21.411,0,0,0,.57-5.41Z" fill="#565d71"/>
    <path id="Path_3" data-name="Path 3" d="M423.77,228.83,433,263.62c1.85,7.67,3.7,14.91,5,22h.43c1.55-6.95,3.82-14.33,6.1-21.87l11.2-34.92h10.53l10.65,34.36c2.55,8.1,4.55,15.48,6.1,22.43h.43a205.611,205.611,0,0,1,5.24-22.3l9.8-34.5h12.36l-22.16,68.71H477.32L466.8,264.75c-2.42-7.82-4.4-14.62-6.11-22.74h-.29a205.235,205.235,0,0,1-6.25,22.85l-11.07,32.66H431.72L411,228.83Z" fill="#898d99"/>
    <path id="Path_4" data-name="Path 4" d="M544.43,299.12c-18.45,0-32.94-13.64-32.94-35.37,0-23,15.19-36.48,34.09-36.48,19.74,0,33.07,14.34,33.07,35.21,0,25.56-17.74,36.64-34.08,36.64Zm.41-9.38c11.94,0,20.88-11.22,20.88-26.84,0-11.65-5.86-26.21-20.63-26.21s-21,13.59-21,26.63c0,15.06,8.52,26.41,20.57,26.41Z" fill="#898d99"/>
    <path id="Path_5" data-name="Path 5" d="M588.9,250.28c0-8.1-.14-15.06-.55-21.45h10.91l.56,13.48h.44c3.11-9.22,10.78-15,19.17-15a13.06,13.06,0,0,1,3.41.42v11.64a40.443,40.443,0,0,0-4.4-.27c-8.81,0-15.06,6.66-16.77,15.89a39.666,39.666,0,0,0-.42,6v36.62H588.76Z" fill="#898d99"/>
    <path id="Path_6" data-name="Path 6" d="M643.75,228.83l9.79,14.62c2.54,4,4.66,7.38,6.94,11.22h.43c2.28-4,4.55-7.52,7-11.22l9.51-14.62H691l-23.43,33.22,24,35.49H677.39L667.3,282.08c-2.68-4-4.95-7.82-7.38-11.93h-.28c-2.27,4.11-4.7,7.8-7.25,11.93l-9.94,15.46H628.69l24.41-35.06-23.28-33.65Z" fill="#898d99"/>
    <path id="Path_7" data-name="Path 7" d="M204.12,203.07,188.64,341.34h24.52l16.48-138.27Z" fill="#e4003a"/>
    <path id="Path_8" data-name="Path 8" d="M160.12,298.48h23.29l-9.28-52.63H150.29Z" fill="#8391b6"/>
    <path id="Path_9" data-name="Path 9" d="M263,149.34,231.25,298.42h25l33.32-149.08Z" fill="#f8ad0f"/>
    <path id="Path_10" data-name="Path 10" d="M349.88,321.12h-22v32.6h4.64V338.87H347.1V335H332.53v-9.78h17.35Z" fill="#373d4f"/>
    <path id="Path_11" data-name="Path 11" d="M363.53,329.48c-6.74,0-11.34,5-11.34,12.42s4.6,12.46,11.34,12.46,11.39-5,11.39-12.27C374.92,334.47,370.42,329.48,363.53,329.48Zm0,3.76c4.4,0,6.84,3.13,6.84,8.8,0,5.38-2.54,8.56-6.79,8.56s-6.84-3.18-6.84-8.7,2.49-8.66,6.79-8.66Z" fill="#373d4f"/>
    <path id="Path_12" data-name="Path 12" d="M380.24,330.12v23.6h4.49V341.31c0-4.2,2.79-7.43,6.41-7.43a9.139,9.139,0,0,1,2.05.24v-4.05a5.5,5.5,0,0,0-2.49-.59,6.25,6.25,0,0,0-4.21,1.86,12.851,12.851,0,0,0-1.95,2.49v-3.71Z" fill="#373d4f"/>
    <path id="Path_13" data-name="Path 13" d="M416.38,321.12h-4.5v32.6h4.5Z" fill="#373d4f"/>
    <path id="Path_14" data-name="Path 14" d="M427.41,330.12h-4.5v23.6h4.5Zm0-9h-4.5v5.23h4.5Z" fill="#373d4f"/>
    <path id="Path_15" data-name="Path 15" d="M443.22,330.12h-4.15v-2.45c0-2.59.49-3.22,2.44-3.22a12.121,12.121,0,0,1,1.71.14v-3.81a11.927,11.927,0,0,0-2.39-.24c-4.5,0-6.26,1.61-6.26,5.71v3.87h-3.32v3.56h3.32v20h4.5v-20h4.15Z" fill="#373d4f"/>
    <path id="Path_16" data-name="Path 16" d="M467.16,343a20.81,20.81,0,0,0-.93-6.5,9.655,9.655,0,0,0-9.67-7c-6.6,0-11.1,5-11.1,12.42s4.6,12.46,11.24,12.46c5.23,0,9-2.93,10.12-7.87h-4.3c-1.08,2.79-2.93,4.11-5.72,4.11-4.06,0-6.5-2.74-6.84-7.58ZM450,339.75c.24-4,2.88-6.7,6.55-6.7s5.71,2.39,5.91,6.7Z" fill="#373d4f"/>
    <path id="Path_17" data-name="Path 17" d="M477.54,348.84h-5v4.88h5Z" fill="#373d4f"/>
    <path id="Path_18" data-name="Path 18" d="M521.39,321.12h-22v32.6H504V338.87h14.6V335H504v-9.78h17.35Z" fill="#373d4f"/>
    <path id="Path_19" data-name="Path 19" d="M535,329.48c-6.74,0-11.34,5-11.34,12.42s4.6,12.46,11.34,12.46,11.39-5,11.39-12.27C546.42,334.47,541.92,329.48,535,329.48Zm0,3.76c4.4,0,6.85,3.13,6.85,8.8,0,5.38-2.55,8.56-6.8,8.56s-6.84-3.18-6.84-8.7,2.52-8.66,6.79-8.66Z" fill="#373d4f"/>
    <path id="Path_20" data-name="Path 20" d="M551.74,330.12v23.6h4.5V341.31c0-4.2,2.78-7.43,6.4-7.43a9.081,9.081,0,0,1,2.05.24v-4.05a5.5,5.5,0,0,0-2.49-.59,6.2,6.2,0,0,0-4.2,1.86,12.429,12.429,0,0,0-2,2.49v-3.71Z" fill="#373d4f"/>
    <path id="Path_21" data-name="Path 21" d="M592.19,353.72l2.93-11,1.51-6.11c.44,1.86.79,3.32,1.52,6.11l3,11h4.55l7.18-23.6h-4.69l-3.28,12.22c-.44,1.61-.78,3.12-1.51,6.54-.34-1.95-.93-4.74-1.37-6.59l-3.27-12.17H594.5l-3.17,12.31-.49,1.91a11.011,11.011,0,0,0-.39,1.66c-.2,1-.4,1.91-.64,2.88-.39-2-.44-2.34-.54-2.83-.68-2.93-.78-3.18-.88-3.67l-3.47-12.26h-4.64l7.13,23.6Z" fill="#373d4f"/>
    <path id="Path_22" data-name="Path 22" d="M626.35,329.48c-6.75,0-11.34,5-11.34,12.42s4.59,12.46,11.34,12.46,11.38-5,11.38-12.27C637.73,334.47,633.24,329.48,626.35,329.48Zm0,3.76c4.39,0,6.84,3.13,6.84,8.8,0,5.38-2.54,8.56-6.8,8.56s-6.84-3.18-6.84-8.7,2.45-8.66,6.8-8.66Z" fill="#373d4f"/>
    <path id="Path_23" data-name="Path 23" d="M643.05,330.12v23.6h4.5V341.31c0-4.2,2.78-7.43,6.4-7.43a9.149,9.149,0,0,1,2.06.24v-4.05a5.57,5.57,0,0,0-2.5-.59,6.2,6.2,0,0,0-4.2,1.86,12.427,12.427,0,0,0-2,2.49v-3.71Z" fill="#373d4f"/>
    <path id="Path_24" data-name="Path 24" d="M671.09,338.52l9.53-8.4h-6L664.54,339V321.12h-4.49v32.6h4.49v-9.38l3.38-3,8.16,12.36h5.47Z" fill="#373d4f"/>
    <path id="Path_25" data-name="Path 25" d="M690.71,348.84h-5v4.88h5Z" fill="#373d4f"/>
  </g>
</svg>
