<?xml version="1.0" encoding="utf-8"?>
<!-- Generator: Adobe Illustrator 24.2.3, SVG Export Plug-In . SVG Version: 6.00 Build 0)  -->
<svg version="1.1" id="Layer_1" xmlns="http://www.w3.org/2000/svg" xmlns:xlink="http://www.w3.org/1999/xlink" x="0px" y="0px"
	 viewBox="0 0 592.7 249.07" style="enable-background:new 0 0 592.7 249.07;" xml:space="preserve">
<style type="text/css">
	.st0{fill:#004561;}
	.st1{fill:#7E8083;}
</style>
<g>
	<path class="st0" d="M186.82,86.18c-10.35,0-20.4,7.16-23.51,18.96c-0.44,1.94-1.04,4.18-1.04,6.12v14.03
		c0,1.94,0.15,3.88,0.59,5.67c2.96,11.04,12.42,18.21,23.36,18.21c16.27,0,25.58-13.29,25.58-32.39
		C211.82,100.65,202.94,86.18,186.82,86.18z"/>
	<path class="st0" d="M114.57,8.73C53.95,8.73,4.8,57.87,4.8,118.5c0,60.63,49.15,109.77,109.77,109.77s109.77-49.15,109.77-109.77
		C224.35,57.87,175.2,8.73,114.57,8.73z M112.74,154.99c-6.8,0-13.31-1.94-18.04-4.93l2.51-5.97c3.85,2.39,9.61,4.93,15.97,4.93
		c11.24,0,16.56-6.12,16.56-13.58c0-7.91-4.73-12.09-14.94-16.27c-11.68-4.48-18.04-10.9-18.04-19.55c0-10.45,8.13-19.4,21.88-19.4
		c6.51,0,12.13,1.94,15.68,4.48l-2.66,5.82c-2.51-1.79-7.1-4.33-14.19-4.33c-9.02,0-13.75,5.82-13.75,12.39
		c0,7.46,5.03,10.6,14.64,14.63c11.54,4.63,18.34,10.45,18.34,21.35C136.7,146.78,127.23,154.99,112.74,154.99z M186.68,155.13
		c-10.2,0-19.22-4.63-24.1-13.28h-0.29v41.19h-7.1v-78.36c0-8.96-0.15-15.97-0.59-22.84h6.8l0.44,13.58h0.3
		c5.18-9.4,13.9-15.22,26.32-15.22c18.19,0,30.46,15.22,30.46,36.27C218.91,142,203.83,155.13,186.68,155.13z"/>
</g>
<path class="st0" d="M263.08,155.13c-18.34,0-32.53-14.48-32.53-36.87c0-24.48,15.97-38.06,33.56-38.06
	c19.67,0,32.98,14.92,32.98,36.87c0,26.57-18.19,38.06-33.87,38.06H263.08z M263.53,149.16c14.79,0,26.47-13.43,26.47-31.79
	c0-13.13-7.25-31.19-26.03-31.19c-18.19,0-26.32,16.27-26.32,31.64c0,17.91,11.24,31.34,25.73,31.34H263.53z"/>
<path class="st0" d="M340.78,155.13c-18.33,0-32.53-14.48-32.53-36.87c0-24.48,15.97-38.06,33.57-38.06
	c19.67,0,32.98,14.92,32.98,36.87c0,26.57-18.19,38.06-33.86,38.06H340.78z M341.22,149.16c14.79,0,26.47-13.43,26.47-31.79
	c0-13.13-7.25-31.19-26.02-31.19c-18.19,0-26.32,16.27-26.32,31.64c0,17.91,11.24,31.34,25.73,31.34H341.22z"/>
<path class="st0" d="M392.83,99.01c0-6.57-0.15-11.49-0.59-17.16h6.65l0.44,12.84h0.3c3.85-8.06,12.87-14.48,24.4-14.48
	c6.8,0,24.84,3.43,24.84,30.3v114.67h-7.1V111.1c0-13.13-5.03-24.93-19.67-24.93c-9.91,0-18.49,7.16-21.29,16.57
	c-0.44,1.64-0.89,4.03-0.89,6.27v44.48h-7.1V99.01z"/>
<g>
	<path class="st1" d="M263.14,222.72c-1.81,0.87-6.12,2.7-12.16,2.7c-11.9,0-19.84-8.79-19.84-21.33c0-13.32,8.97-22.28,21.3-22.28
		c5.09,0,9.32,1.48,10.87,2.61l-1.46,3.4c-1.98-1.22-5.17-2.44-9.74-2.44c-11.13,0-16.82,8.53-16.82,18.37
		c0,10.97,6.81,18.11,16.39,18.11c4.92,0,8.11-1.39,10.35-2.44L263.14,222.72z"/>
	<path class="st1" d="M288.58,225.51c-10.69,0-18.97-8.45-18.97-21.5c0-14.28,9.31-22.2,19.58-22.2c11.47,0,19.23,8.7,19.23,21.5
		c0,15.49-10.61,22.2-19.75,22.2H288.58z M288.84,222.03c8.63,0,15.44-7.84,15.44-18.54c0-7.66-4.22-18.19-15.18-18.19
		c-10.61,0-15.35,9.49-15.35,18.46c0,10.45,6.55,18.28,15,18.28H288.84z"/>
	<path class="st1" d="M318.94,192.78c0-3.83-0.09-6.7-0.34-10.01h3.88l0.26,7.48h0.17c2.24-4.7,7.51-8.44,14.23-8.44
		c3.97,0,14.49,2,14.49,17.67v25.07h-4.14v-24.72c0-7.66-2.93-14.54-11.47-14.54c-5.78,0-10.78,4.18-12.42,9.66
		c-0.26,0.96-0.52,2.35-0.52,3.65v25.94h-4.14V192.78z"/>
	<path class="st1" d="M363.44,219.07c2.25,1.39,5.61,2.87,9.31,2.87c6.56,0,9.66-3.57,9.66-7.92c0-4.61-2.76-7.05-8.71-9.49
		c-6.81-2.61-10.52-6.36-10.52-11.4c0-6.1,4.74-11.32,12.77-11.32c3.79,0,7.07,1.13,9.14,2.61l-1.55,3.4
		c-1.46-1.04-4.14-2.53-8.28-2.53c-5.26,0-8.02,3.39-8.02,7.22c0,4.35,2.93,6.18,8.54,8.53c6.73,2.7,10.69,6.09,10.69,12.45
		c0,7.14-5.52,11.93-13.97,11.93c-3.97,0-7.76-1.13-10.52-2.87L363.44,219.07z"/>
	<path class="st1" d="M429.24,214.37c0,3.66,0.08,6.96,0.35,10.19h-3.88l-0.26-7.49h-0.17c-2.07,3.92-6.81,8.45-14.14,8.45
		c-5.26,0-14.15-2.7-14.15-18.46v-24.29h4.14v23.5c0,9.05,2.76,15.58,10.95,15.58c6.04,0,10.44-4.27,12.25-8.44
		c0.43-1.3,0.78-2.96,0.78-4.61v-26.03h4.14V214.37z"/>
	<path class="st1" d="M467.1,173.54v9.23h11.82v3.39H467.1v27.16c0,5.31,1.64,8.62,6.04,8.62c2.15,0,3.71-0.26,4.74-0.61l0.52,3.13
		c-1.38,0.52-3.28,0.96-5.78,0.96c-3.02,0-5.52-0.96-7.08-2.87c-1.9-2.18-2.59-5.74-2.59-10.01v-26.38h-6.98v-3.39h6.98v-7.66
		L467.1,173.54z"/>
	<path class="st1" d="M489.96,174.41c-1.9,0-3.19-1.65-3.19-3.57c0-1.91,1.46-3.65,3.36-3.65c1.9,0,3.28,1.65,3.28,3.65
		c0,1.92-1.29,3.57-3.36,3.57H489.96z M488.06,224.55v-41.78h4.14v41.78H488.06z"/>
	<path class="st1" d="M506.08,192.78c0-3.83-0.09-6.7-0.35-10.01h3.88l0.26,7.48h0.17c2.24-4.7,7.5-8.44,14.23-8.44
		c3.97,0,14.49,2,14.49,17.67v25.07h-4.14v-24.72c0-7.66-2.93-14.54-11.47-14.54c-5.78,0-10.78,4.18-12.42,9.66
		c-0.26,0.96-0.52,2.35-0.52,3.65v25.94h-4.14V192.78z"/>
	<path class="st1" d="M585.34,218.46c0,10.71-2.24,16.02-5.69,19.33c-3.8,3.65-9.4,4.96-14.06,4.96c-4.74,0-10.01-1.22-13.2-3.66
		l1.46-3.31c2.93,1.92,6.99,3.48,12.33,3.48c8.71,0,15.01-4.53,15.01-16.89v-5.92h-0.17c-2.16,4.26-6.99,8.09-14.4,8.09
		c-10.44,0-17.77-9.14-17.77-20.54c0-14.54,9.49-22.2,18.63-22.2c8.19,0,12.25,4.53,13.97,8.01h0.17l0.26-7.05h3.79
		c-0.26,3.13-0.34,6.44-0.34,10.79V218.46z M581.2,198.87c0-1.57-0.09-2.87-0.52-4.09c-1.73-4.96-6.04-9.49-12.85-9.49
		c-8.8,0-14.83,7.22-14.83,18.28c0,9.4,4.91,17.5,14.66,17.5c5.52,0,10.7-3.48,12.85-9.4c0.43-1.39,0.69-2.96,0.69-4.44V198.87z"/>
</g>
</svg>
